<svg xmlns="http://www.w3.org/2000/svg" xmlns:xlink="http://www.w3.org/1999/xlink" version="1.1" class="marks" width="462" height="256" viewBox="0 0 462 256"><rect width="462" height="256" fill="white"/><g fill="none" stroke-miterlimit="10" transform="translate(50,12)"><g class="mark-group role-frame root" role="graphics-object" aria-roledescription="group mark container"><g transform="translate(0,0)"><path class="background" aria-hidden="true" d="M0,0h300v200h-300Z" stroke-width="0"/><g><g class="mark-group role-axis" role="graphics-symbol" aria-roledescription="axis" aria-label="X-axis titled 'Sera Dilution' for a log scale with values from 1e-5 to 1e-1"><g transform="translate(0.5,200.5)"><path class="background" aria-hidden="true" d="M0,0h0v0h0Z" pointer-events="none"/><g><g class="mark-rule role-axis-tick" pointer-events="none"><line transform="translate(0,0)" x2="0" y2="4" stroke="black" stroke-width="1" opacity="1"/><line transform="translate(75,0)" x2="0" y2="4" stroke="black" stroke-width="1" opacity="1"/><line transform="translate(150,0)" x2="0" y2="4" stroke="black" stroke-width="1" opacity="1"/><line transform="translate(225,0)" x2="0" y2="4" stroke="black" stroke-width="1" opacity="1"/><line transform="translate(300,0)" x2="0" y2="4" stroke="black" stroke-width="1" opacity="1"/></g><g class="mark-text role-axis-label" pointer-events="none"><text text-anchor="middle" transform="translate(0,17)" font-family="Helvetica" font-size="14px" font-weight="normal" fill="#000" opacity="1">1e-5</text><text text-anchor="middle" transform="translate(75.00000000000003,17)" font-family="Helvetica" font-size="14px" font-weight="normal" fill="#000" opacity="1">1e-4</text><text text-anchor="middle" transform="translate(150,17)" font-family="Helvetica" font-size="14px" font-weight="normal" fill="#000" opacity="1">1e-3</text><text text-anchor="middle" transform="translate(225,17)" font-family="Helvetica" font-size="14px" font-weight="normal" fill="#000" opacity="1">1e-2</text><text text-anchor="middle" transform="translate(300,17)" font-family="Helvetica" font-size="14px" font-weight="normal" fill="#000" opacity="1">1e-1</text></g><g class="mark-rule role-axis-domain" pointer-events="none"><line transform="translate(0,0)" x2="300" y2="0" stroke="black" stroke-width="1" opacity="1"/></g><g class="mark-text role-axis-title" pointer-events="none"><text text-anchor="middle" transform="translate(150,36)" font-family="Helvetica" font-size="14px" font-weight="bold" fill="#000" opacity="1">Sera Dilution</text></g></g><path class="foreground" aria-hidden="true" d="" pointer-events="none" display="none"/></g></g><g class="mark-group role-axis" role="graphics-symbol" aria-roledescription="axis" aria-label="Y-axis titled 'Fraction Infectivity' for a linear scale with values from 0.0 to 1.0"><g transform="translate(0.5,0.5)"><path class="background" aria-hidden="true" d="M0,0h0v0h0Z" pointer-events="none"/><g><g class="mark-rule role-axis-tick" pointer-events="none"><line transform="translate(0,200)" x2="-4" y2="0" stroke="black" stroke-width="1" opacity="1"/><line transform="translate(0,100)" x2="-4" y2="0" stroke="black" stroke-width="1" opacity="1"/><line transform="translate(0,0)" x2="-4" y2="0" stroke="black" stroke-width="1" opacity="1"/></g><g class="mark-text role-axis-label" pointer-events="none"><text text-anchor="end" transform="translate(-6,204)" font-family="Helvetica" font-size="14px" font-weight="normal" fill="#000" opacity="1">0.0</text><text text-anchor="end" transform="translate(-6,104)" font-family="Helvetica" font-size="14px" font-weight="normal" fill="#000" opacity="1">0.5</text><text text-anchor="end" transform="translate(-6,4)" font-family="Helvetica" font-size="14px" font-weight="normal" fill="#000" opacity="1">1.0</text></g><g class="mark-rule role-axis-domain" pointer-events="none"><line transform="translate(0,200)" x2="0" y2="-200" stroke="black" stroke-width="1" opacity="1"/></g><g class="mark-text role-axis-title" pointer-events="none"><text text-anchor="middle" transform="translate(-30.4619140625,100) rotate(-90) translate(0,-3)" font-family="Helvetica" font-size="14px" font-weight="bold" fill="#000" opacity="1">Fraction Infectivity</text></g></g><path class="foreground" aria-hidden="true" d="" pointer-events="none" display="none"/></g></g><g class="mark-group role-scope layer_0_pathgroup" role="graphics-object" aria-roledescription="group mark container"><g transform="translate(0,0)"><path class="background" aria-hidden="true" d="M0,0h300v200h-300Z"/><g><g class="mark-line role-mark layer_0_marks" role="graphics-object" aria-roledescription="line mark container"><path aria-label="Sera Dilution: 2e-5; Fraction Infectivity: 0.480679516965; Serum: mRNA" role="graphics-symbol" aria-roledescription="line mark" d="M21.978,103.864L23.275,109.185L24.572,114.455L25.869,119.643L27.166,124.724L28.462,129.673L29.759,134.467L31.056,139.088L32.353,143.519L33.65,147.75L34.946,151.77L36.243,155.574L37.54,159.158L38.837,162.523L40.134,165.671L41.43,168.605L42.727,171.332L43.484,172.83L44.024,173.859L45.321,176.194L46.618,178.346L47.915,180.326L49.211,182.142L50.508,183.806L51.805,185.328L53.102,186.717L54.399,187.982L55.695,189.135L56.992,190.182L58.289,191.134L59.586,191.997L60.883,192.779L62.179,193.487L63.476,194.128L64.773,194.708L66.07,195.231L67.367,195.705L68.663,196.132L69.96,196.517L71.257,196.865L72.554,197.178L73.851,197.461L75.147,197.715L76.444,197.944L77.741,198.151L79.038,198.337L79.268,198.368L80.335,198.504L81.631,198.655L82.928,198.79L84.225,198.912L85.522,199.022L86.819,199.121L88.115,199.21L89.412,199.289L90.709,199.361L92.006,199.426L93.303,199.484L94.599,199.536L95.896,199.583L97.193,199.625L98.49,199.663L99.787,199.697L101.083,199.728L102.38,199.755L103.677,199.78L104.974,199.802L106.271,199.823L107.567,199.84L108.864,199.857L110.161,199.871L111.458,199.884L112.755,199.896L114.051,199.907L115.147,199.915L115.348,199.916L116.645,199.924L117.942,199.932L119.239,199.939L120.535,199.945L121.832,199.951L123.129,199.956L124.426,199.96L125.723,199.964L127.019,199.968L128.316,199.971L129.613,199.974L130.91,199.977L132.207,199.979L133.503,199.981L134.8,199.983L136.097,199.985L137.394,199.986L138.691,199.988L139.987,199.989L141.284,199.99L142.581,199.991L143.878,199.992L145.175,199.993L146.472,199.994L147.768,199.994L149.065,199.995L150.362,199.995L150.931,199.996L151.659,199.996L152.956,199.996L154.252,199.997L155.549,199.997L156.846,199.997L158.143,199.998L159.44,199.998L160.736,199.998L162.033,199.998L163.33,199.998L164.627,199.999L165.924,199.999L167.22,199.999L168.517,199.999L169.814,199.999L171.111,199.999L172.408,199.999L173.704,199.999L175.001,199.999L176.298,199.999L177.595,200L178.892,200L180.188,200L181.485,200L182.782,200L184.079,200L185.376,200L186.672,200L186.705,200L187.969,200L189.266,200L190.563,200L191.86,200L193.156,200L194.453,200L195.75,200L197.047,200L198.344,200L199.64,200L200.937,200L202.234,200L203.531,200L204.828,200L206.124,200L207.421,200L208.718,200L210.015,200L211.312,200L212.608,200L213.905,200L215.202,200L216.499,200L217.796,200L219.092,200L220.389,200L221.686,200L222.492,200L222.983,200L224.28,200L225.576,200L226.873,200L228.17,200L229.467,200L230.764,200L232.06,200L233.357,200L234.654,200L235.951,200L237.248,200L238.544,200L239.841,200L241.138,200L242.435,200L243.732,200L245.028,200L246.325,200L247.622,200L248.919,200L250.216,200L251.513,200L252.809,200L254.106,200L255.403,200L256.7,200L257.997,200L258.537,200L259.293,200L260.59,200L261.887,200L263.184,200L264.481,200L265.777,200L267.074,200L268.371,200L269.668,200L270.965,200L272.261,200L273.558,200L274.855,200L276.152,200L277.449,200L278.745,200L280.042,200" stroke="#4e79a7" stroke-width="1.5"/></g></g><path class="foreground" aria-hidden="true" d="" display="none"/></g><g transform="translate(0,0)"><path class="background" aria-hidden="true" d="M0,0h300v200h-300Z"/><g><g class="mark-line role-mark layer_0_marks" role="graphics-object" aria-roledescription="line mark container"><path aria-label="Sera Dilution: 2e-5; Fraction Infectivity: 0.782122333644; Serum: NiV-sG" role="graphics-symbol" aria-roledescription="line mark" d="M21.978,43.576L23.275,46.954L24.572,50.509L25.869,54.239L27.166,58.137L28.462,62.195L29.759,66.404L31.056,70.752L32.353,75.224L33.65,79.804L34.946,84.474L36.243,89.215L37.54,94.005L38.837,98.823L40.134,103.647L41.43,108.453L42.727,113.221L43.484,115.975L44.024,117.928L45.321,122.554L46.618,127.081L47.915,131.491L49.211,135.77L50.508,139.903L51.805,143.88L53.102,147.692L54.399,151.333L55.695,154.799L56.992,158.085L58.289,161.193L59.586,164.123L60.883,166.876L62.179,169.458L63.476,171.873L64.773,174.125L66.07,176.223L67.367,178.171L68.663,179.978L69.96,181.651L71.257,183.197L72.554,184.624L73.851,185.939L75.147,187.15L76.444,188.262L77.741,189.284L79.038,190.222L79.268,190.38L80.335,191.081L81.631,191.868L82.928,192.589L84.225,193.248L85.522,193.85L86.819,194.4L88.115,194.902L89.412,195.36L90.709,195.778L92.006,196.159L93.303,196.506L94.599,196.822L95.896,197.11L97.193,197.373L98.49,197.611L99.787,197.829L101.083,198.027L102.38,198.206L103.677,198.37L104.974,198.519L106.271,198.654L107.567,198.777L108.864,198.889L110.161,198.991L111.458,199.083L112.755,199.167L114.051,199.244L115.147,199.303L115.348,199.313L116.645,199.376L117.942,199.433L119.239,199.485L120.535,199.532L121.832,199.575L123.129,199.614L124.426,199.65L125.723,199.682L127.019,199.711L128.316,199.738L129.613,199.762L130.91,199.784L132.207,199.804L133.503,199.822L134.8,199.838L136.097,199.853L137.394,199.866L138.691,199.879L139.987,199.89L141.284,199.9L142.581,199.909L143.878,199.918L145.175,199.925L146.472,199.932L147.768,199.938L149.065,199.944L150.362,199.949L150.931,199.951L151.659,199.954L152.956,199.958L154.252,199.962L155.549,199.965L156.846,199.969L158.143,199.971L159.44,199.974L160.736,199.976L162.033,199.979L163.33,199.981L164.627,199.982L165.924,199.984L167.22,199.985L168.517,199.987L169.814,199.988L171.111,199.989L172.408,199.99L173.704,199.991L175.001,199.992L176.298,199.993L177.595,199.993L178.892,199.994L180.188,199.994L181.485,199.995L182.782,199.995L184.079,199.996L185.376,199.996L186.672,199.997L186.705,199.997L187.969,199.997L189.266,199.997L190.563,199.997L191.86,199.998L193.156,199.998L194.453,199.998L195.75,199.998L197.047,199.998L198.344,199.999L199.64,199.999L200.937,199.999L202.234,199.999L203.531,199.999L204.828,199.999L206.124,199.999L207.421,199.999L208.718,199.999L210.015,199.999L211.312,199.999L212.608,200L213.905,200L215.202,200L216.499,200L217.796,200L219.092,200L220.389,200L221.686,200L222.492,200L222.983,200L224.28,200L225.576,200L226.873,200L228.17,200L229.467,200L230.764,200L232.06,200L233.357,200L234.654,200L235.951,200L237.248,200L238.544,200L239.841,200L241.138,200L242.435,200L243.732,200L245.028,200L246.325,200L247.622,200L248.919,200L250.216,200L251.513,200L252.809,200L254.106,200L255.403,200L256.7,200L257.997,200L258.537,200L259.293,200L260.59,200L261.887,200L263.184,200L264.481,200L265.777,200L267.074,200L268.371,200L269.668,200L270.965,200L272.261,200L273.558,200L274.855,200L276.152,200L277.449,200L278.745,200L280.042,200" stroke="#f28e2c" stroke-width="1.5"/></g></g><path class="foreground" aria-hidden="true" d="" display="none"/></g><g transform="translate(0,0)"><path class="background" aria-hidden="true" d="M0,0h300v200h-300Z"/><g><g class="mark-line role-mark layer_0_marks" role="graphics-object" aria-roledescription="line mark container"><path aria-label="Sera Dilution: 2e-5; Fraction Infectivity: 0.887500609286; Serum: ChAdOx1" role="graphics-symbol" aria-roledescription="line mark" d="M21.978,22.5L23.275,24.044L24.572,25.679L25.869,27.408L27.166,29.234L28.462,31.159L29.759,33.187L31.056,35.319L32.353,37.557L33.65,39.902L34.946,42.356L36.243,44.918L37.54,47.588L38.837,50.366L40.134,53.249L41.43,56.236L42.727,59.321L43.484,61.166L44.024,62.503L45.321,65.776L46.618,69.133L47.915,72.57L49.211,76.078L50.508,79.65L51.805,83.276L53.102,86.948L54.399,90.657L55.695,94.392L56.992,98.142L58.289,101.898L59.586,105.648L60.883,109.383L62.179,113.091L63.476,116.763L64.773,120.389L66.07,123.96L67.367,127.467L68.663,130.903L69.96,134.26L71.257,137.531L72.554,140.712L73.851,143.797L75.147,146.782L76.444,149.664L77.741,152.441L79.038,155.11L79.268,155.572L80.335,157.671L81.631,160.124L82.928,162.468L84.225,164.705L85.522,166.835L86.819,168.862L88.115,170.786L89.412,172.611L90.709,174.339L92.006,175.973L93.303,177.516L94.599,178.972L95.896,180.344L97.193,181.636L98.49,182.851L99.787,183.993L101.083,185.065L102.38,186.071L103.677,187.013L104.974,187.896L106.271,188.723L107.567,189.496L108.864,190.219L110.161,190.895L111.458,191.526L112.755,192.115L114.051,192.664L115.147,193.1L115.348,193.177L116.645,193.655L117.942,194.101L119.239,194.516L120.535,194.903L121.832,195.263L123.129,195.598L124.426,195.91L125.723,196.201L127.019,196.471L128.316,196.722L129.613,196.956L130.91,197.173L132.207,197.375L133.503,197.562L134.8,197.737L136.097,197.899L137.394,198.049L138.691,198.189L139.987,198.319L141.284,198.44L142.581,198.552L143.878,198.656L145.175,198.753L146.472,198.843L147.768,198.926L149.065,199.003L150.362,199.075L150.931,199.105L151.659,199.142L152.956,199.204L154.252,199.261L155.549,199.314L156.846,199.364L158.143,199.41L159.44,199.452L160.736,199.492L162.033,199.528L163.33,199.563L164.627,199.594L165.924,199.623L167.22,199.651L168.517,199.676L169.814,199.699L171.111,199.721L172.408,199.741L173.704,199.76L175.001,199.777L176.298,199.793L177.595,199.808L178.892,199.822L180.188,199.835L181.485,199.847L182.782,199.858L184.079,199.868L185.376,199.878L186.672,199.887L186.705,199.887L187.969,199.895L189.266,199.902L190.563,199.91L191.86,199.916L193.156,199.922L194.453,199.928L195.75,199.933L197.047,199.938L198.344,199.942L199.64,199.947L200.937,199.95L202.234,199.954L203.531,199.957L204.828,199.96L206.124,199.963L207.421,199.966L208.718,199.968L210.015,199.971L211.312,199.973L212.608,199.975L213.905,199.977L215.202,199.978L216.499,199.98L217.796,199.981L219.092,199.983L220.389,199.984L221.686,199.985L222.492,199.986L222.983,199.986L224.28,199.987L225.576,199.988L226.873,199.989L228.17,199.99L229.467,199.99L230.764,199.991L232.06,199.992L233.357,199.992L234.654,199.993L235.951,199.993L237.248,199.994L238.544,199.994L239.841,199.995L241.138,199.995L242.435,199.996L243.732,199.996L245.028,199.996L246.325,199.996L247.622,199.997L248.919,199.997L250.216,199.997L251.513,199.997L252.809,199.998L254.106,199.998L255.403,199.998L256.7,199.998L257.997,199.998L258.537,199.998L259.293,199.998L260.59,199.998L261.887,199.999L263.184,199.999L264.481,199.999L265.777,199.999L267.074,199.999L268.371,199.999L269.668,199.999L270.965,199.999L272.261,199.999L273.558,199.999L274.855,199.999L276.152,199.999L277.449,199.999L278.745,199.999L280.042,199.999" stroke="#e15759" stroke-width="1.5"/></g></g><path class="foreground" aria-hidden="true" d="" display="none"/></g><g transform="translate(0,0)"><path class="background" aria-hidden="true" d="M0,0h300v200h-300Z"/><g><g class="mark-line role-mark layer_0_marks" role="graphics-object" aria-roledescription="line mark container"><path aria-label="Sera Dilution: 2e-5; Fraction Infectivity: 0.889587212266; Serum: HeV-sG" role="graphics-symbol" aria-roledescription="line mark" d="M21.978,22.083L23.275,24.056L24.572,26.18L25.869,28.462L27.166,30.906L28.462,33.52L29.759,36.307L31.056,39.272L32.353,42.415L33.65,45.739L34.946,49.242L36.243,52.921L37.54,56.771L38.837,60.786L40.134,64.955L41.43,69.269L42.727,73.713L43.484,76.359L44.024,78.271L45.321,82.926L46.618,87.658L47.915,92.447L49.211,97.271L50.508,102.108L51.805,106.935L53.102,111.73L54.399,116.471L55.695,121.137L56.992,125.708L58.289,130.168L59.586,134.499L60.883,138.688L62.179,142.723L63.476,146.595L64.773,150.296L66.07,153.822L67.367,157.168L68.663,160.335L69.96,163.322L71.257,166.132L72.554,168.768L73.851,171.234L75.147,173.536L76.444,175.68L77.741,177.672L79.038,179.521L79.268,179.834L80.335,181.232L81.631,182.814L82.928,184.275L84.225,185.621L85.522,186.86L86.819,187.999L88.115,189.045L89.412,190.005L90.709,190.885L92.006,191.69L93.303,192.428L94.599,193.102L95.896,193.718L97.193,194.281L98.49,194.795L99.787,195.263L101.083,195.691L102.38,196.08L103.677,196.435L104.974,196.759L106.271,197.053L107.567,197.322L108.864,197.566L110.161,197.788L111.458,197.99L112.755,198.173L114.051,198.34L115.147,198.47L115.348,198.492L116.645,198.63L117.942,198.756L119.239,198.87L120.535,198.974L121.832,199.068L123.129,199.153L124.426,199.231L125.723,199.302L127.019,199.366L128.316,199.424L129.613,199.477L130.91,199.525L132.207,199.569L133.503,199.609L134.8,199.645L136.097,199.677L137.394,199.707L138.691,199.734L139.987,199.759L141.284,199.781L142.581,199.801L143.878,199.819L145.175,199.836L146.472,199.851L147.768,199.865L149.065,199.877L150.362,199.889L150.931,199.893L151.659,199.899L152.956,199.908L154.252,199.917L155.549,199.924L156.846,199.931L158.143,199.938L159.44,199.943L160.736,199.949L162.033,199.953L163.33,199.958L164.627,199.962L165.924,199.965L167.22,199.968L168.517,199.971L169.814,199.974L171.111,199.976L172.408,199.978L173.704,199.98L175.001,199.982L176.298,199.984L177.595,199.985L178.892,199.987L180.188,199.988L181.485,199.989L182.782,199.99L184.079,199.991L185.376,199.992L186.672,199.993L186.705,199.993L187.969,199.993L189.266,199.994L190.563,199.994L191.86,199.995L193.156,199.995L194.453,199.996L195.75,199.996L197.047,199.997L198.344,199.997L199.64,199.997L200.937,199.997L202.234,199.998L203.531,199.998L204.828,199.998L206.124,199.998L207.421,199.998L208.718,199.999L210.015,199.999L211.312,199.999L212.608,199.999L213.905,199.999L215.202,199.999L216.499,199.999L217.796,199.999L219.092,199.999L220.389,199.999L221.686,199.999L222.492,199.999L222.983,200L224.28,200L225.576,200L226.873,200L228.17,200L229.467,200L230.764,200L232.06,200L233.357,200L234.654,200L235.951,200L237.248,200L238.544,200L239.841,200L241.138,200L242.435,200L243.732,200L245.028,200L246.325,200L247.622,200L248.919,200L250.216,200L251.513,200L252.809,200L254.106,200L255.403,200L256.7,200L257.997,200L258.537,200L259.293,200L260.59,200L261.887,200L263.184,200L264.481,200L265.777,200L267.074,200L268.371,200L269.668,200L270.965,200L272.261,200L273.558,200L274.855,200L276.152,200L277.449,200L278.745,200L280.042,200" stroke="#76b7b2" stroke-width="1.5"/></g></g><path class="foreground" aria-hidden="true" d="" display="none"/></g></g><g class="mark-symbol role-mark layer_1_marks" role="graphics-object" aria-roledescription="symbol mark container"><path aria-label="Sera Dilution: 4e-5; Fraction Infectivity: 0.1358318035; Serum: mRNA" role="graphics-symbol" aria-roledescription="circle" transform="translate(43.483769746260776,172.8336393)" d="M2.739,0A2.739,2.739,0,1,1,-2.739,0A2.739,2.739,0,1,1,2.739,0" fill="#4e79a7" stroke-width="2" opacity="1"/><path aria-label="Sera Dilution: 1e-4; Fraction Infectivity: 0.0087030718; Serum: mRNA" role="graphics-symbol" aria-roledescription="circle" transform="translate(79.26786385023544,198.25938564)" d="M2.739,0A2.739,2.739,0,1,1,-2.739,0A2.739,2.739,0,1,1,2.739,0" fill="#4e79a7" stroke-width="2" opacity="1"/><path aria-label="Sera Dilution: 3e-4; Fraction Infectivity: −0.0044290325; Serum: mRNA" role="graphics-symbol" aria-roledescription="circle" transform="translate(115.14705900320779,200.8858065)" d="M2.739,0A2.739,2.739,0,1,1,-2.739,0A2.739,2.739,0,1,1,2.739,0" fill="#4e79a7" stroke-width="2" opacity="1"/><path aria-label="Sera Dilution: 1e-3; Fraction Infectivity: −0.0032102; Serum: mRNA" role="graphics-symbol" aria-roledescription="circle" transform="translate(150.93115310718247,200.64204)" d="M2.739,0A2.739,2.739,0,1,1,-2.739,0A2.739,2.739,0,1,1,2.739,0" fill="#4e79a7" stroke-width="2" opacity="1"/><path aria-label="Sera Dilution: 3e-3; Fraction Infectivity: −0.003426328; Serum: mRNA" role="graphics-symbol" aria-roledescription="circle" transform="translate(186.7046941295347,200.6852656)" d="M2.739,0A2.739,2.739,0,1,1,-2.739,0A2.739,2.739,0,1,1,2.739,0" fill="#4e79a7" stroke-width="2" opacity="1"/><path aria-label="Sera Dilution: 9e-3; Fraction Infectivity: −0.0040138215; Serum: mRNA" role="graphics-symbol" aria-roledescription="circle" transform="translate(222.4923063072983,200.8027643)" d="M2.739,0A2.739,2.739,0,1,1,-2.739,0A2.739,2.739,0,1,1,2.739,0" fill="#4e79a7" stroke-width="2" opacity="1"/><path aria-label="Sera Dilution: 3e-2; Fraction Infectivity: 0.000320723; Serum: mRNA" role="graphics-symbol" aria-roledescription="circle" transform="translate(258.53685235066644,199.9358554)" d="M2.739,0A2.739,2.739,0,1,1,-2.739,0A2.739,2.739,0,1,1,2.739,0" fill="#4e79a7" stroke-width="2" opacity="1"/><path aria-label="Sera Dilution: 4e-5; Fraction Infectivity: 0.4200592925; Serum: NiV-sG" role="graphics-symbol" aria-roledescription="circle" transform="translate(43.483769746260776,115.98814150000001)" d="M2.739,0A2.739,2.739,0,1,1,-2.739,0A2.739,2.739,0,1,1,2.739,0" fill="#f28e2c" stroke-width="2" opacity="1"/><path aria-label="Sera Dilution: 1e-4; Fraction Infectivity: 0.0487854875; Serum: NiV-sG" role="graphics-symbol" aria-roledescription="circle" transform="translate(79.26786385023544,190.2429025)" d="M2.739,0A2.739,2.739,0,1,1,-2.739,0A2.739,2.739,0,1,1,2.739,0" fill="#f28e2c" stroke-width="2" opacity="1"/><path aria-label="Sera Dilution: 3e-4; Fraction Infectivity: −0.000845976; Serum: NiV-sG" role="graphics-symbol" aria-roledescription="circle" transform="translate(115.14705900320779,200.1691952)" d="M2.739,0A2.739,2.739,0,1,1,-2.739,0A2.739,2.739,0,1,1,2.739,0" fill="#f28e2c" stroke-width="2" opacity="1"/><path aria-label="Sera Dilution: 1e-3; Fraction Infectivity: −0.0013304025; Serum: NiV-sG" role="graphics-symbol" aria-roledescription="circle" transform="translate(150.93115310718247,200.26608050000002)" d="M2.739,0A2.739,2.739,0,1,1,-2.739,0A2.739,2.739,0,1,1,2.739,0" fill="#f28e2c" stroke-width="2" opacity="1"/><path aria-label="Sera Dilution: 3e-3; Fraction Infectivity: −0.0008180515; Serum: NiV-sG" role="graphics-symbol" aria-roledescription="circle" transform="translate(186.7046941295347,200.16361030000002)" d="M2.739,0A2.739,2.739,0,1,1,-2.739,0A2.739,2.739,0,1,1,2.739,0" fill="#f28e2c" stroke-width="2" opacity="1"/><path aria-label="Sera Dilution: 9e-3; Fraction Infectivity: −0.0010905125; Serum: NiV-sG" role="graphics-symbol" aria-roledescription="circle" transform="translate(222.4923063072983,200.21810250000001)" d="M2.739,0A2.739,2.739,0,1,1,-2.739,0A2.739,2.739,0,1,1,2.739,0" fill="#f28e2c" stroke-width="2" opacity="1"/><path aria-label="Sera Dilution: 3e-2; Fraction Infectivity: −0.000620111; Serum: NiV-sG" role="graphics-symbol" aria-roledescription="circle" transform="translate(258.53685235066644,200.12402219999998)" d="M2.739,0A2.739,2.739,0,1,1,-2.739,0A2.739,2.739,0,1,1,2.739,0" fill="#f28e2c" stroke-width="2" opacity="1"/><path aria-label="Sera Dilution: 4e-5; Fraction Infectivity: 0.691577965; Serum: ChAdOx1" role="graphics-symbol" aria-roledescription="circle" transform="translate(43.483769746260776,61.68440699999999)" d="M2.739,0A2.739,2.739,0,1,1,-2.739,0A2.739,2.739,0,1,1,2.739,0" fill="#e15759" stroke-width="2" opacity="1"/><path aria-label="Sera Dilution: 1e-4; Fraction Infectivity: 0.22835644; Serum: ChAdOx1" role="graphics-symbol" aria-roledescription="circle" transform="translate(79.26786385023544,154.328712)" d="M2.739,0A2.739,2.739,0,1,1,-2.739,0A2.739,2.739,0,1,1,2.739,0" fill="#e15759" stroke-width="2" opacity="1"/><path aria-label="Sera Dilution: 3e-4; Fraction Infectivity: 0.019472311; Serum: ChAdOx1" role="graphics-symbol" aria-roledescription="circle" transform="translate(115.14705900320779,196.1055378)" d="M2.739,0A2.739,2.739,0,1,1,-2.739,0A2.739,2.739,0,1,1,2.739,0" fill="#e15759" stroke-width="2" opacity="1"/><path aria-label="Sera Dilution: 1e-3; Fraction Infectivity: −0.000653007; Serum: ChAdOx1" role="graphics-symbol" aria-roledescription="circle" transform="translate(150.93115310718247,200.1306014)" d="M2.739,0A2.739,2.739,0,1,1,-2.739,0A2.739,2.739,0,1,1,2.739,0" fill="#e15759" stroke-width="2" opacity="1"/><path aria-label="Sera Dilution: 3e-3; Fraction Infectivity: −0.000710763; Serum: ChAdOx1" role="graphics-symbol" aria-roledescription="circle" transform="translate(186.7046941295347,200.1421526)" d="M2.739,0A2.739,2.739,0,1,1,-2.739,0A2.739,2.739,0,1,1,2.739,0" fill="#e15759" stroke-width="2" opacity="1"/><path aria-label="Sera Dilution: 9e-3; Fraction Infectivity: −0.000862981; Serum: ChAdOx1" role="graphics-symbol" aria-roledescription="circle" transform="translate(222.4923063072983,200.17259620000002)" d="M2.739,0A2.739,2.739,0,1,1,-2.739,0A2.739,2.739,0,1,1,2.739,0" fill="#e15759" stroke-width="2" opacity="1"/><path aria-label="Sera Dilution: 3e-2; Fraction Infectivity: −0.000841733; Serum: ChAdOx1" role="graphics-symbol" aria-roledescription="circle" transform="translate(258.53685235066644,200.16834659999998)" d="M2.739,0A2.739,2.739,0,1,1,-2.739,0A2.739,2.739,0,1,1,2.739,0" fill="#e15759" stroke-width="2" opacity="1"/><path aria-label="Sera Dilution: 4e-5; Fraction Infectivity: 0.6182324625; Serum: HeV-sG" role="graphics-symbol" aria-roledescription="circle" transform="translate(43.483769746260776,76.3535075)" d="M2.739,0A2.739,2.739,0,1,1,-2.739,0A2.739,2.739,0,1,1,2.739,0" fill="#76b7b2" stroke-width="2" opacity="1"/><path aria-label="Sera Dilution: 1e-4; Fraction Infectivity: 0.1006856255; Serum: HeV-sG" role="graphics-symbol" aria-roledescription="circle" transform="translate(79.26786385023544,179.86287489999998)" d="M2.739,0A2.739,2.739,0,1,1,-2.739,0A2.739,2.739,0,1,1,2.739,0" fill="#76b7b2" stroke-width="2" opacity="1"/><path aria-label="Sera Dilution: 3e-4; Fraction Infectivity: 0.008617421; Serum: HeV-sG" role="graphics-symbol" aria-roledescription="circle" transform="translate(115.14705900320779,198.2765158)" d="M2.739,0A2.739,2.739,0,1,1,-2.739,0A2.739,2.739,0,1,1,2.739,0" fill="#76b7b2" stroke-width="2" opacity="1"/><path aria-label="Sera Dilution: 1e-3; Fraction Infectivity: −0.00033599; Serum: HeV-sG" role="graphics-symbol" aria-roledescription="circle" transform="translate(150.93115310718247,200.067198)" d="M2.739,0A2.739,2.739,0,1,1,-2.739,0A2.739,2.739,0,1,1,2.739,0" fill="#76b7b2" stroke-width="2" opacity="1"/><path aria-label="Sera Dilution: 3e-3; Fraction Infectivity: −0.0015608175; Serum: HeV-sG" role="graphics-symbol" aria-roledescription="circle" transform="translate(186.7046941295347,200.3121635)" d="M2.739,0A2.739,2.739,0,1,1,-2.739,0A2.739,2.739,0,1,1,2.739,0" fill="#76b7b2" stroke-width="2" opacity="1"/><path aria-label="Sera Dilution: 9e-3; Fraction Infectivity: −0.0014129685; Serum: HeV-sG" role="graphics-symbol" aria-roledescription="circle" transform="translate(222.4923063072983,200.28259369999998)" d="M2.739,0A2.739,2.739,0,1,1,-2.739,0A2.739,2.739,0,1,1,2.739,0" fill="#76b7b2" stroke-width="2" opacity="1"/><path aria-label="Sera Dilution: 3e-2; Fraction Infectivity: −0.001656851; Serum: HeV-sG" role="graphics-symbol" aria-roledescription="circle" transform="translate(258.53685235066644,200.33137019999998)" d="M2.739,0A2.739,2.739,0,1,1,-2.739,0A2.739,2.739,0,1,1,2.739,0" fill="#76b7b2" stroke-width="2" opacity="1"/></g><g class="mark-rule role-mark layer_2_marks" role="graphics-object" aria-roledescription="rule mark container"><line aria-label="concentration: 0.000038; Fraction Infectivity: 0.096887755; upper_lower: 0.174775852; Serum: mRNA; upper: 0.174775852; lower: 0.096887755" role="graphics-symbol" aria-roledescription="errorbar" transform="translate(43.483769746260776,180.622449)" x2="0" y2="-15.577619400000003" stroke="#4e79a7" opacity="1"/><line aria-label="concentration: 0.000114; Fraction Infectivity: 0.0000540816; upper_lower: 0.017352062; Serum: mRNA; upper: 0.017352062; lower: 0.0000540816" role="graphics-symbol" aria-roledescription="errorbar" transform="translate(79.26786385023544,199.98918368)" x2="0" y2="-3.4595960800000114" stroke="#4e79a7" opacity="1"/><line aria-label="concentration: 0.000343; Fraction Infectivity: −0.0048948; upper_lower: −0.003963265; Serum: mRNA; upper: −0.003963265; lower: −0.0048948" role="graphics-symbol" aria-roledescription="errorbar" transform="translate(115.14705900320779,200.97896)" x2="0" y2="-0.1863069999999709" stroke="#4e79a7" opacity="1"/><line aria-label="concentration: 0.001029; Fraction Infectivity: −0.004630604; upper_lower: −0.001789796; Serum: mRNA; upper: −0.001789796; lower: −0.004630604" role="graphics-symbol" aria-roledescription="errorbar" transform="translate(150.93115310718247,200.92612079999998)" x2="0" y2="-0.5681615999999963" stroke="#4e79a7" opacity="1"/><line aria-label="concentration: 0.003086; Fraction Infectivity: −0.004310819; upper_lower: −0.002541837; Serum: mRNA; upper: −0.002541837; lower: −0.004310819" role="graphics-symbol" aria-roledescription="errorbar" transform="translate(186.7046941295347,200.86216380000002)" x2="0" y2="-0.3537963999999931" stroke="#4e79a7" opacity="1"/><line aria-label="concentration: 0.009259; Fraction Infectivity: −0.004042439; upper_lower: −0.003985204; Serum: mRNA; upper: −0.003985204; lower: −0.004042439" role="graphics-symbol" aria-roledescription="errorbar" transform="translate(222.4923063072983,200.8084878)" x2="0" y2="-0.011447000000003982" stroke="#4e79a7" opacity="1"/><line aria-label="concentration: 0.028; Fraction Infectivity: −0.001672959; upper_lower: 0.002314405; Serum: mRNA; upper: 0.002314405; lower: −0.001672959" role="graphics-symbol" aria-roledescription="errorbar" transform="translate(258.53685235066644,200.3345918)" x2="0" y2="-0.7974728000000084" stroke="#4e79a7" opacity="1"/><line aria-label="concentration: 0.000038; Fraction Infectivity: 0.386557132; upper_lower: 0.453561453; Serum: NiV-sG; upper: 0.453561453; lower: 0.386557132" role="graphics-symbol" aria-roledescription="errorbar" transform="translate(43.483769746260776,122.68857359999998)" x2="0" y2="-13.400864200000001" stroke="#f28e2c" opacity="1"/><line aria-label="concentration: 0.000114; Fraction Infectivity: 0.037759522; upper_lower: 0.059811453; Serum: NiV-sG; upper: 0.059811453; lower: 0.037759522" role="graphics-symbol" aria-roledescription="errorbar" transform="translate(79.26786385023544,192.4480956)" x2="0" y2="-4.410386200000005" stroke="#f28e2c" opacity="1"/><line aria-label="concentration: 0.000343; Fraction Infectivity: −0.001142196; upper_lower: −0.000549756; Serum: NiV-sG; upper: −0.000549756; lower: −0.001142196" role="graphics-symbol" aria-roledescription="errorbar" transform="translate(115.14705900320779,200.2284392)" x2="0" y2="-0.11848799999998505" stroke="#f28e2c" opacity="1"/><line aria-label="concentration: 0.001029; Fraction Infectivity: −0.001412709; upper_lower: −0.001248096; Serum: NiV-sG; upper: −0.001248096; lower: −0.001412709" role="graphics-symbol" aria-roledescription="errorbar" transform="translate(150.93115310718247,200.2825418)" x2="0" y2="-0.03292259999997782" stroke="#f28e2c" opacity="1"/><line aria-label="concentration: 0.003086; Fraction Infectivity: −0.001206529; upper_lower: −0.000429574; Serum: NiV-sG; upper: −0.000429574; lower: −0.001206529" role="graphics-symbol" aria-roledescription="errorbar" transform="translate(186.7046941295347,200.24130580000002)" x2="0" y2="-0.15539100000000872" stroke="#f28e2c" opacity="1"/><line aria-label="concentration: 0.009259; Fraction Infectivity: −0.001618366; upper_lower: −0.000562659; Serum: NiV-sG; upper: −0.000562659; lower: −0.001618366" role="graphics-symbol" aria-roledescription="errorbar" transform="translate(222.4923063072983,200.3236732)" x2="0" y2="-0.21114139999997406" stroke="#f28e2c" opacity="1"/><line aria-label="concentration: 0.028; Fraction Infectivity: −0.000892457; upper_lower: −0.000347765; Serum: NiV-sG; upper: −0.000347765; lower: −0.000892457" role="graphics-symbol" aria-roledescription="errorbar" transform="translate(258.53685235066644,200.17849139999998)" x2="0" y2="-0.10893839999997112" stroke="#f28e2c" opacity="1"/><line aria-label="concentration: 0.000038; Fraction Infectivity: 0.650231125; upper_lower: 0.732924805; Serum: ChAdOx1; upper: 0.732924805; lower: 0.650231125" role="graphics-symbol" aria-roledescription="errorbar" transform="translate(43.483769746260776,69.953775)" x2="0" y2="-16.538735999999993" stroke="#e15759" opacity="1"/><line aria-label="concentration: 0.000114; Fraction Infectivity: 0.17929682; upper_lower: 0.27741606; Serum: ChAdOx1; upper: 0.27741606; lower: 0.17929682" role="graphics-symbol" aria-roledescription="errorbar" transform="translate(79.26786385023544,164.140636)" x2="0" y2="-19.62384799999998" stroke="#e15759" opacity="1"/><line aria-label="concentration: 0.000343; Fraction Infectivity: 0.007526264; upper_lower: 0.031418358; Serum: ChAdOx1; upper: 0.031418358; lower: 0.007526264" role="graphics-symbol" aria-roledescription="errorbar" transform="translate(115.14705900320779,198.4947472)" x2="0" y2="-4.778418800000026" stroke="#e15759" opacity="1"/><line aria-label="concentration: 0.001029; Fraction Infectivity: −0.000818971; upper_lower: −0.000487043; Serum: ChAdOx1; upper: −0.000487043; lower: −0.000818971" role="graphics-symbol" aria-roledescription="errorbar" transform="translate(150.93115310718247,200.16379419999998)" x2="0" y2="-0.06638559999998961" stroke="#e15759" opacity="1"/><line aria-label="concentration: 0.003086; Fraction Infectivity: −0.000868609; upper_lower: −0.000552917; Serum: ChAdOx1; upper: −0.000552917; lower: −0.000868609" role="graphics-symbol" aria-roledescription="errorbar" transform="translate(186.7046941295347,200.1737218)" x2="0" y2="-0.06313840000001392" stroke="#e15759" opacity="1"/><line aria-label="concentration: 0.009259; Fraction Infectivity: −0.001278751; upper_lower: −0.000447211; Serum: ChAdOx1; upper: −0.000447211; lower: −0.001278751" role="graphics-symbol" aria-roledescription="errorbar" transform="translate(222.4923063072983,200.25575020000002)" x2="0" y2="-0.166308000000015" stroke="#e15759" opacity="1"/><line aria-label="concentration: 0.028; Fraction Infectivity: −0.000843993; upper_lower: −0.000839473; Serum: ChAdOx1; upper: −0.000839473; lower: −0.000843993" role="graphics-symbol" aria-roledescription="errorbar" transform="translate(258.53685235066644,200.16879859999997)" x2="0" y2="-0.0009039999999629345" stroke="#e15759" opacity="1"/><line aria-label="concentration: 0.000038; Fraction Infectivity: 0.603547459; upper_lower: 0.632917466; Serum: HeV-sG; upper: 0.632917466; lower: 0.603547459" role="graphics-symbol" aria-roledescription="errorbar" transform="translate(43.483769746260776,79.2905082)" x2="0" y2="-5.874001399999997" stroke="#76b7b2" opacity="1"/><line aria-label="concentration: 0.000114; Fraction Infectivity: 0.087823586; upper_lower: 0.113547665; Serum: HeV-sG; upper: 0.113547665; lower: 0.087823586" role="graphics-symbol" aria-roledescription="errorbar" transform="translate(79.26786385023544,182.4352828)" x2="0" y2="-5.1448158000000035" stroke="#76b7b2" opacity="1"/><line aria-label="concentration: 0.000343; Fraction Infectivity: 0.006294343; upper_lower: 0.010940499; Serum: HeV-sG; upper: 0.010940499; lower: 0.006294343" role="graphics-symbol" aria-roledescription="errorbar" transform="translate(115.14705900320779,198.7411314)" x2="0" y2="-0.9292312000000038" stroke="#76b7b2" opacity="1"/><line aria-label="concentration: 0.001029; Fraction Infectivity: −0.001879434; upper_lower: 0.001207454; Serum: HeV-sG; upper: 0.001207454; lower: −0.001879434" role="graphics-symbol" aria-roledescription="errorbar" transform="translate(150.93115310718247,200.3758868)" x2="0" y2="-0.6173775999999975" stroke="#76b7b2" opacity="1"/><line aria-label="concentration: 0.003086; Fraction Infectivity: −0.001672819; upper_lower: −0.001448816; Serum: HeV-sG; upper: −0.001448816; lower: −0.001672819" role="graphics-symbol" aria-roledescription="errorbar" transform="translate(186.7046941295347,200.33456379999998)" x2="0" y2="-0.04480060000000208" stroke="#76b7b2" opacity="1"/><line aria-label="concentration: 0.009259; Fraction Infectivity: −0.001540748; upper_lower: −0.001285189; Serum: HeV-sG; upper: −0.001285189; lower: −0.001540748" role="graphics-symbol" aria-roledescription="errorbar" transform="translate(222.4923063072983,200.3081496)" x2="0" y2="-0.05111180000000104" stroke="#76b7b2" opacity="1"/><line aria-label="concentration: 0.028; Fraction Infectivity: −0.001955417; upper_lower: −0.001358285; Serum: HeV-sG; upper: −0.001358285; lower: −0.001955417" role="graphics-symbol" aria-roledescription="errorbar" transform="translate(258.53685235066644,200.3910834)" x2="0" y2="-0.11942640000000893" stroke="#76b7b2" opacity="1"/></g><g class="mark-group role-legend" role="graphics-symbol" aria-roledescription="legend" aria-label="Symbol legend titled 'Serum' for fill color and stroke color with 4 values: mRNA, NiV-sG, ChAdOx1, HeV-sG"><g transform="translate(318,0)"><path class="background" aria-hidden="true" d="M0,0h89v91h-89Z" pointer-events="none"/><g><g class="mark-group role-legend-entry"><g transform="translate(5,24)"><path class="background" aria-hidden="true" d="M0,0h0v0h0Z" pointer-events="none"/><g><g class="mark-group role-scope" role="graphics-object" aria-roledescription="group mark container"><g transform="translate(0,0)"><path class="background" aria-hidden="true" d="M0,0h78.6962890625v14h-78.6962890625Z" pointer-events="none" opacity="1"/><g><g class="mark-symbol role-legend-symbol" pointer-events="none"><path transform="translate(7,7)" d="M5,0A5,5,0,1,1,-5,0A5,5,0,1,1,5,0" fill="#4e79a7" stroke="#4e79a7" stroke-width="1.5" opacity="1"/></g><g class="mark-text role-legend-label" pointer-events="none"><text text-anchor="start" transform="translate(18,11)" font-family="Helvetica" font-size="14px" fill="#000" opacity="1">mRNA</text></g></g><path class="foreground" aria-hidden="true" d="" pointer-events="none" display="none"/></g><g transform="translate(0,16)"><path class="background" aria-hidden="true" d="M0,0h78.6962890625v14h-78.6962890625Z" pointer-events="none" opacity="1"/><g><g class="mark-symbol role-legend-symbol" pointer-events="none"><path transform="translate(7,7)" d="M5,0A5,5,0,1,1,-5,0A5,5,0,1,1,5,0" fill="#f28e2c" stroke="#f28e2c" stroke-width="1.5" opacity="1"/></g><g class="mark-text role-legend-label" pointer-events="none"><text text-anchor="start" transform="translate(18,11)" font-family="Helvetica" font-size="14px" fill="#000" opacity="1">NiV-sG</text></g></g><path class="foreground" aria-hidden="true" d="" pointer-events="none" display="none"/></g><g transform="translate(0,32)"><path class="background" aria-hidden="true" d="M0,0h78.6962890625v14h-78.6962890625Z" pointer-events="none" opacity="1"/><g><g class="mark-symbol role-legend-symbol" pointer-events="none"><path transform="translate(7,7)" d="M5,0A5,5,0,1,1,-5,0A5,5,0,1,1,5,0" fill="#e15759" stroke="#e15759" stroke-width="1.5" opacity="1"/></g><g class="mark-text role-legend-label" pointer-events="none"><text text-anchor="start" transform="translate(18,11)" font-family="Helvetica" font-size="14px" fill="#000" opacity="1">ChAdOx1</text></g></g><path class="foreground" aria-hidden="true" d="" pointer-events="none" display="none"/></g><g transform="translate(0,48)"><path class="background" aria-hidden="true" d="M0,0h78.6962890625v14h-78.6962890625Z" pointer-events="none" opacity="1"/><g><g class="mark-symbol role-legend-symbol" pointer-events="none"><path transform="translate(7,7)" d="M5,0A5,5,0,1,1,-5,0A5,5,0,1,1,5,0" fill="#76b7b2" stroke="#76b7b2" stroke-width="1.5" opacity="1"/></g><g class="mark-text role-legend-label" pointer-events="none"><text text-anchor="start" transform="translate(18,11)" font-family="Helvetica" font-size="14px" fill="#000" opacity="1">HeV-sG</text></g></g><path class="foreground" aria-hidden="true" d="" pointer-events="none" display="none"/></g></g></g><path class="foreground" aria-hidden="true" d="" pointer-events="none" display="none"/></g></g><g class="mark-text role-legend-title" pointer-events="none"><text text-anchor="start" transform="translate(5,16)" font-family="Helvetica" font-size="14px" font-weight="bold" fill="#000" opacity="1">Serum</text></g></g><path class="foreground" aria-hidden="true" d="" pointer-events="none" display="none"/></g></g></g><path class="foreground" aria-hidden="true" d="" display="none"/></g></g></g></svg>