<svg xmlns="http://www.w3.org/2000/svg" xmlns:xlink="http://www.w3.org/1999/xlink" version="1.1" class="marks" width="542" height="314" viewBox="0 0 542 314"><rect width="542" height="314" fill="white"/><g fill="none" stroke-miterlimit="10" transform="translate(50,70)"><g class="mark-group role-frame root" role="graphics-object" aria-roledescription="group mark container"><g transform="translate(0,0)"><path class="background" aria-hidden="true" d="M0,0h300v200h-300Z" stroke-width="0"/><g><g class="mark-group role-axis" role="graphics-symbol" aria-roledescription="axis" aria-label="X-axis titled 'Sera Dilution' for a log scale with values from 1e-5 to 1e-1"><g transform="translate(0.5,200.5)"><path class="background" aria-hidden="true" d="M0,0h0v0h0Z" pointer-events="none"/><g><g class="mark-rule role-axis-tick" pointer-events="none"><line transform="translate(0,0)" x2="0" y2="4" stroke="black" stroke-width="1" opacity="1"/><line transform="translate(75,0)" x2="0" y2="4" stroke="black" stroke-width="1" opacity="1"/><line transform="translate(150,0)" x2="0" y2="4" stroke="black" stroke-width="1" opacity="1"/><line transform="translate(225,0)" x2="0" y2="4" stroke="black" stroke-width="1" opacity="1"/><line transform="translate(300,0)" x2="0" y2="4" stroke="black" stroke-width="1" opacity="1"/></g><g class="mark-text role-axis-label" pointer-events="none"><text text-anchor="middle" transform="translate(0,17)" font-family="Helvetica" font-size="14px" font-weight="normal" fill="#000" opacity="1">1e-5</text><text text-anchor="middle" transform="translate(75.00000000000003,17)" font-family="Helvetica" font-size="14px" font-weight="normal" fill="#000" opacity="1">1e-4</text><text text-anchor="middle" transform="translate(150,17)" font-family="Helvetica" font-size="14px" font-weight="normal" fill="#000" opacity="1">1e-3</text><text text-anchor="middle" transform="translate(225,17)" font-family="Helvetica" font-size="14px" font-weight="normal" fill="#000" opacity="1">1e-2</text><text text-anchor="middle" transform="translate(300,17)" font-family="Helvetica" font-size="14px" font-weight="normal" fill="#000" opacity="1">1e-1</text></g><g class="mark-rule role-axis-domain" pointer-events="none"><line transform="translate(0,0)" x2="300" y2="0" stroke="black" stroke-width="1" opacity="1"/></g><g class="mark-text role-axis-title" pointer-events="none"><text text-anchor="middle" transform="translate(150,36)" font-family="Helvetica" font-size="14px" font-weight="bold" fill="#000" opacity="1">Sera Dilution</text></g></g><path class="foreground" aria-hidden="true" d="" pointer-events="none" display="none"/></g></g><g class="mark-group role-axis" role="graphics-symbol" aria-roledescription="axis" aria-label="Y-axis titled 'Fraction Infectivity' for a linear scale with values from 0.0 to 1.0"><g transform="translate(0.5,0.5)"><path class="background" aria-hidden="true" d="M0,0h0v0h0Z" pointer-events="none"/><g><g class="mark-rule role-axis-tick" pointer-events="none"><line transform="translate(0,200)" x2="-4" y2="0" stroke="black" stroke-width="1" opacity="1"/><line transform="translate(0,100)" x2="-4" y2="0" stroke="black" stroke-width="1" opacity="1"/><line transform="translate(0,0)" x2="-4" y2="0" stroke="black" stroke-width="1" opacity="1"/></g><g class="mark-text role-axis-label" pointer-events="none"><text text-anchor="end" transform="translate(-6,204)" font-family="Helvetica" font-size="14px" font-weight="normal" fill="#000" opacity="1">0.0</text><text text-anchor="end" transform="translate(-6,104)" font-family="Helvetica" font-size="14px" font-weight="normal" fill="#000" opacity="1">0.5</text><text text-anchor="end" transform="translate(-6,4)" font-family="Helvetica" font-size="14px" font-weight="normal" fill="#000" opacity="1">1.0</text></g><g class="mark-rule role-axis-domain" pointer-events="none"><line transform="translate(0,200)" x2="0" y2="-200" stroke="black" stroke-width="1" opacity="1"/></g><g class="mark-text role-axis-title" pointer-events="none"><text text-anchor="middle" transform="translate(-30.4619140625,100) rotate(-90) translate(0,-3)" font-family="Helvetica" font-size="14px" font-weight="bold" fill="#000" opacity="1">Fraction Infectivity</text></g></g><path class="foreground" aria-hidden="true" d="" pointer-events="none" display="none"/></g></g><g class="mark-group role-scope layer_0_pathgroup" role="graphics-object" aria-roledescription="group mark container"><g transform="translate(0,0)"><path class="background" aria-hidden="true" d="M0,0h300v200h-300Z"/><g><g class="mark-line role-mark layer_0_marks" role="graphics-object" aria-roledescription="line mark container"><path aria-label="Sera Dilution: 2e-5; Fraction Infectivity: 0.820014313487; Virus: K199W" role="graphics-symbol" aria-roledescription="line mark" d="M21.978,35.997L23.275,37.967L24.572,40.019L25.869,42.152L27.166,44.368L28.462,46.666L29.759,49.045L31.056,51.505L32.353,54.044L33.65,56.661L34.946,59.352L36.243,62.117L37.54,64.95L38.837,67.849L40.134,70.81L41.43,73.827L42.727,76.897L43.484,78.71L44.024,80.013L45.321,83.171L46.618,86.363L47.915,89.584L49.211,92.827L50.508,96.085L51.805,99.351L53.102,102.619L54.399,105.881L55.695,109.131L56.992,112.361L58.289,115.566L59.586,118.738L60.883,121.871L62.179,124.96L63.476,127.999L64.773,130.983L66.07,133.907L67.367,136.766L68.663,139.559L69.96,142.279L71.257,144.926L72.554,147.496L73.851,149.988L75.147,152.399L76.444,154.729L77.741,156.978L79.038,159.144L79.268,159.52L80.335,161.228L81.631,163.23L82.928,165.152L84.225,166.993L85.522,168.755L86.819,170.44L88.115,172.049L89.412,173.584L90.709,175.047L92.006,176.44L93.303,177.765L94.599,179.025L95.896,180.221L97.193,181.355L98.49,182.432L99.787,183.451L101.083,184.417L102.38,185.331L103.677,186.195L104.974,187.012L106.271,187.783L107.567,188.512L108.864,189.2L110.161,189.848L111.458,190.46L112.755,191.037L114.051,191.58L115.147,192.014L115.348,192.092L116.645,192.574L117.942,193.027L119.239,193.454L120.535,193.855L121.832,194.233L123.129,194.588L124.426,194.922L125.723,195.235L127.019,195.53L128.316,195.807L129.613,196.067L130.91,196.311L132.207,196.541L133.503,196.756L134.8,196.958L136.097,197.148L137.394,197.326L138.691,197.493L139.987,197.65L141.284,197.797L142.581,197.935L143.878,198.064L145.175,198.186L146.472,198.3L147.768,198.406L149.065,198.506L150.362,198.6L150.931,198.64L151.659,198.688L152.956,198.771L154.252,198.848L155.549,198.921L156.846,198.989L158.143,199.052L159.44,199.112L160.736,199.168L162.033,199.22L163.33,199.269L164.627,199.316L165.924,199.359L167.22,199.399L168.517,199.437L169.814,199.473L171.111,199.506L172.408,199.537L173.704,199.566L175.001,199.594L176.298,199.619L177.595,199.643L178.892,199.666L180.188,199.687L181.485,199.707L182.782,199.725L184.079,199.743L185.376,199.759L186.672,199.774L186.705,199.775L187.969,199.788L189.266,199.802L190.563,199.814L191.86,199.826L193.156,199.837L194.453,199.847L195.75,199.857L197.047,199.866L198.344,199.875L199.64,199.882L200.937,199.89L202.234,199.897L203.531,199.903L204.828,199.91L206.124,199.915L207.421,199.921L208.718,199.926L210.015,199.93L211.312,199.935L212.608,199.939L213.905,199.943L215.202,199.946L216.499,199.95L217.796,199.953L219.092,199.956L220.389,199.959L221.686,199.961L222.492,199.963L222.983,199.964L224.28,199.966L225.576,199.968L226.873,199.97L228.17,199.972L229.467,199.974L230.764,199.976L232.06,199.977L233.357,199.979L234.654,199.98L235.951,199.981L237.248,199.982L238.544,199.983L239.841,199.985L241.138,199.985L242.435,199.986L243.732,199.987L245.028,199.988L246.325,199.989L247.622,199.99L248.919,199.99L250.216,199.991L251.513,199.991L252.809,199.992L254.106,199.992L255.403,199.993L256.7,199.993L257.997,199.994L258.537,199.994L259.293,199.994L260.59,199.995L261.887,199.995L263.184,199.995L264.481,199.996L265.777,199.996L267.074,199.996L268.371,199.996L269.668,199.997L270.965,199.997L272.261,199.997L273.558,199.997L274.855,199.997L276.152,199.998L277.449,199.998L278.745,199.998L280.042,199.998" stroke="#F18F3B" stroke-width="1.5"/></g></g><path class="foreground" aria-hidden="true" d="" display="none"/></g><g transform="translate(0,0)"><path class="background" aria-hidden="true" d="M0,0h300v200h-300Z"/><g><g class="mark-line role-mark layer_0_marks" role="graphics-object" aria-roledescription="line mark container"><path aria-label="Sera Dilution: 2e-5; Fraction Infectivity: 0.728794550844; Virus: K386D" role="graphics-symbol" aria-roledescription="line mark" d="M21.978,54.241L23.275,56.418L24.572,58.647L25.869,60.926L27.166,63.255L28.462,65.631L29.759,68.051L31.056,70.514L32.353,73.017L33.65,75.556L34.946,78.13L36.243,80.734L37.54,83.366L38.837,86.022L40.134,88.698L41.43,91.391L42.727,94.096L43.484,95.678L44.024,96.81L45.321,99.528L46.618,102.248L47.915,104.963L49.211,107.672L50.508,110.369L51.805,113.052L53.102,115.715L54.399,118.355L55.695,120.97L56.992,123.555L58.289,126.106L59.586,128.622L60.883,131.099L62.179,133.535L63.476,135.926L64.773,138.271L66.07,140.568L67.367,142.815L68.663,145.01L69.96,147.152L71.257,149.239L72.554,151.272L73.851,153.249L75.147,155.169L76.444,157.032L77.741,158.839L79.038,160.589L79.268,160.893L80.335,162.282L81.631,163.918L82.928,165.499L84.225,167.024L85.522,168.495L86.819,169.912L88.115,171.276L89.412,172.588L90.709,173.85L92.006,175.061L93.303,176.225L94.599,177.341L95.896,178.411L97.193,179.436L98.49,180.418L99.787,181.358L101.083,182.258L102.38,183.118L103.677,183.94L104.974,184.725L106.271,185.475L107.567,186.191L108.864,186.874L110.161,187.526L111.458,188.147L112.755,188.739L114.051,189.303L115.147,189.759L115.348,189.841L116.645,190.353L117.942,190.84L119.239,191.304L120.535,191.745L121.832,192.165L123.129,192.564L124.426,192.944L125.723,193.305L127.019,193.648L128.316,193.975L129.613,194.284L130.91,194.579L132.207,194.858L133.503,195.124L134.8,195.376L136.097,195.616L137.394,195.843L138.691,196.059L139.987,196.263L141.284,196.458L142.581,196.642L143.878,196.817L145.175,196.983L146.472,197.14L147.768,197.29L149.065,197.431L150.362,197.566L150.931,197.622L151.659,197.693L152.956,197.814L154.252,197.928L155.549,198.037L156.846,198.14L158.143,198.238L159.44,198.33L160.736,198.418L162.033,198.501L163.33,198.58L164.627,198.654L165.924,198.725L167.22,198.792L168.517,198.856L169.814,198.916L171.111,198.973L172.408,199.027L173.704,199.079L175.001,199.127L176.298,199.173L177.595,199.217L178.892,199.258L180.188,199.297L181.485,199.334L182.782,199.369L184.079,199.403L185.376,199.434L186.672,199.464L186.705,199.465L187.969,199.492L189.266,199.519L190.563,199.545L191.86,199.569L193.156,199.591L194.453,199.613L195.75,199.633L197.047,199.653L198.344,199.671L199.64,199.689L200.937,199.705L202.234,199.721L203.531,199.735L204.828,199.749L206.124,199.763L207.421,199.775L208.718,199.787L210.015,199.798L211.312,199.809L212.608,199.819L213.905,199.829L215.202,199.838L216.499,199.846L217.796,199.854L219.092,199.862L220.389,199.869L221.686,199.876L222.492,199.88L222.983,199.883L224.28,199.889L225.576,199.895L226.873,199.901L228.17,199.906L229.467,199.911L230.764,199.915L232.06,199.92L233.357,199.924L234.654,199.928L235.951,199.932L237.248,199.936L238.544,199.939L239.841,199.942L241.138,199.945L242.435,199.948L243.732,199.951L245.028,199.954L246.325,199.956L247.622,199.958L248.919,199.961L250.216,199.963L251.513,199.965L252.809,199.966L254.106,199.968L255.403,199.97L256.7,199.972L257.997,199.973L258.537,199.974L259.293,199.974L260.59,199.976L261.887,199.977L263.184,199.978L264.481,199.979L265.777,199.981L267.074,199.982L268.371,199.983L269.668,199.983L270.965,199.984L272.261,199.985L273.558,199.986L274.855,199.987L276.152,199.987L277.449,199.988L278.745,199.989L280.042,199.989" stroke="#77B7B2" stroke-width="1.5"/></g></g><path class="foreground" aria-hidden="true" d="" display="none"/></g><g transform="translate(0,0)"><path class="background" aria-hidden="true" d="M0,0h300v200h-300Z"/><g><g class="mark-line role-mark layer_0_marks" role="graphics-object" aria-roledescription="line mark container"><path aria-label="Sera Dilution: 2e-5; Fraction Infectivity: 0.662446179786; Virus: Q530W" role="graphics-symbol" aria-roledescription="line mark" d="M21.978,67.511L23.275,70.737L24.572,74.032L25.869,77.388L27.166,80.799L28.462,84.257L29.759,87.754L31.056,91.282L32.353,94.831L33.65,98.394L34.946,101.961L36.243,105.522L37.54,109.07L38.837,112.595L40.134,116.089L41.43,119.542L42.727,122.948L43.484,124.909L44.024,126.298L45.321,129.586L46.618,132.806L47.915,135.951L49.211,139.017L50.508,141.998L51.805,144.891L53.102,147.694L54.399,150.402L55.695,153.015L56.992,155.531L58.289,157.949L59.586,160.27L60.883,162.492L62.179,164.618L63.476,166.648L64.773,168.584L66.07,170.427L67.367,172.18L68.663,173.845L69.96,175.425L71.257,176.922L72.554,178.339L73.851,179.679L75.147,180.945L76.444,182.14L77.741,183.267L79.038,184.329L79.268,184.511L80.335,185.329L81.631,186.269L82.928,187.154L84.225,187.986L85.522,188.766L86.819,189.499L88.115,190.187L89.412,190.832L90.709,191.436L92.006,192.002L93.303,192.532L94.599,193.028L95.896,193.493L97.193,193.927L98.49,194.334L99.787,194.714L101.083,195.069L102.38,195.4L103.677,195.71L104.974,196L106.271,196.27L107.567,196.522L108.864,196.758L110.161,196.978L111.458,197.183L112.755,197.374L114.051,197.553L115.147,197.695L115.348,197.72L116.645,197.875L117.942,198.02L119.239,198.155L120.535,198.281L121.832,198.398L123.129,198.508L124.426,198.61L125.723,198.705L127.019,198.794L128.316,198.876L129.613,198.953L130.91,199.025L132.207,199.092L133.503,199.154L134.8,199.212L136.097,199.266L137.394,199.316L138.691,199.363L139.987,199.407L141.284,199.448L142.581,199.486L143.878,199.521L145.175,199.554L146.472,199.585L147.768,199.613L149.065,199.64L150.362,199.664L150.931,199.675L151.659,199.688L152.956,199.709L154.252,199.729L155.549,199.748L156.846,199.765L158.143,199.781L159.44,199.796L160.736,199.81L162.033,199.823L163.33,199.835L164.627,199.847L165.924,199.857L167.22,199.867L168.517,199.876L169.814,199.885L171.111,199.893L172.408,199.9L173.704,199.907L175.001,199.913L176.298,199.919L177.595,199.925L178.892,199.93L180.188,199.935L181.485,199.939L182.782,199.944L184.079,199.947L185.376,199.951L186.672,199.954L186.705,199.955L187.969,199.958L189.266,199.96L190.563,199.963L191.86,199.966L193.156,199.968L194.453,199.97L195.75,199.972L197.047,199.974L198.344,199.976L199.64,199.978L200.937,199.979L202.234,199.981L203.531,199.982L204.828,199.983L206.124,199.984L207.421,199.985L208.718,199.986L210.015,199.987L211.312,199.988L212.608,199.989L213.905,199.99L215.202,199.991L216.499,199.991L217.796,199.992L219.092,199.992L220.389,199.993L221.686,199.993L222.492,199.994L222.983,199.994L224.28,199.994L225.576,199.995L226.873,199.995L228.17,199.995L229.467,199.996L230.764,199.996L232.06,199.996L233.357,199.997L234.654,199.997L235.951,199.997L237.248,199.997L238.544,199.997L239.841,199.998L241.138,199.998L242.435,199.998L243.732,199.998L245.028,199.998L246.325,199.998L247.622,199.998L248.919,199.999L250.216,199.999L251.513,199.999L252.809,199.999L254.106,199.999L255.403,199.999L256.7,199.999L257.997,199.999L258.537,199.999L259.293,199.999L260.59,199.999L261.887,199.999L263.184,199.999L264.481,199.999L265.777,199.999L267.074,199.999L268.371,199.999L269.668,200L270.965,200L272.261,200L273.558,200L274.855,200L276.152,200L277.449,200L278.745,200L280.042,200" stroke="#5AA155" stroke-width="1.5"/></g></g><path class="foreground" aria-hidden="true" d="" display="none"/></g><g transform="translate(0,0)"><path class="background" aria-hidden="true" d="M0,0h300v200h-300Z"/><g><g class="mark-line role-mark layer_0_marks" role="graphics-object" aria-roledescription="line mark container"><path aria-label="Sera Dilution: 2e-5; Fraction Infectivity: 0.716795029644; Virus: D582Q" role="graphics-symbol" aria-roledescription="line mark" d="M21.978,56.641L23.275,60.333L24.572,64.158L25.869,68.108L27.166,72.171L28.462,76.337L29.759,80.591L31.056,84.92L32.353,89.307L33.65,93.736L34.946,98.19L36.243,102.652L37.54,107.102L38.837,111.525L40.134,115.902L41.43,120.218L42.727,124.457L43.484,126.888L44.024,128.604L45.321,132.647L46.618,136.573L47.915,140.374L49.211,144.04L50.508,147.565L51.805,150.944L53.102,154.173L54.399,157.249L55.695,160.172L56.992,162.942L58.289,165.561L59.586,168.031L60.883,170.356L62.179,172.54L63.476,174.586L64.773,176.501L66.07,178.289L67.367,179.957L68.663,181.51L69.96,182.954L71.257,184.295L72.554,185.539L73.851,186.692L75.147,187.758L76.444,188.745L77.741,189.656L79.038,190.497L79.268,190.639L80.335,191.273L81.631,191.988L82.928,192.647L84.225,193.254L85.522,193.812L86.819,194.325L88.115,194.797L89.412,195.231L90.709,195.629L92.006,195.995L93.303,196.33L94.599,196.638L95.896,196.921L97.193,197.18L98.49,197.418L99.787,197.636L101.083,197.835L102.38,198.018L103.677,198.186L104.974,198.34L106.271,198.48L107.567,198.609L108.864,198.727L110.161,198.835L111.458,198.934L112.755,199.025L114.051,199.107L115.147,199.172L115.348,199.183L116.645,199.253L117.942,199.316L119.239,199.375L120.535,199.428L121.832,199.477L123.129,199.521L124.426,199.562L125.723,199.599L127.019,199.633L128.316,199.665L129.613,199.693L130.91,199.719L132.207,199.743L133.503,199.765L134.8,199.785L136.097,199.804L137.394,199.82L138.691,199.836L139.987,199.85L141.284,199.862L142.581,199.874L143.878,199.885L145.175,199.895L146.472,199.904L147.768,199.912L149.065,199.919L150.362,199.926L150.931,199.929L151.659,199.933L152.956,199.938L154.252,199.944L155.549,199.948L156.846,199.953L158.143,199.957L159.44,199.961L160.736,199.964L162.033,199.967L163.33,199.97L164.627,199.972L165.924,199.975L167.22,199.977L168.517,199.979L169.814,199.981L171.111,199.982L172.408,199.984L173.704,199.985L175.001,199.986L176.298,199.988L177.595,199.989L178.892,199.99L180.188,199.991L181.485,199.991L182.782,199.992L184.079,199.993L185.376,199.993L186.672,199.994L186.705,199.994L187.969,199.994L189.266,199.995L190.563,199.995L191.86,199.996L193.156,199.996L194.453,199.996L195.75,199.997L197.047,199.997L198.344,199.997L199.64,199.998L200.937,199.998L202.234,199.998L203.531,199.998L204.828,199.998L206.124,199.998L207.421,199.999L208.718,199.999L210.015,199.999L211.312,199.999L212.608,199.999L213.905,199.999L215.202,199.999L216.499,199.999L217.796,199.999L219.092,199.999L220.389,199.999L221.686,199.999L222.492,199.999L222.983,200L224.28,200L225.576,200L226.873,200L228.17,200L229.467,200L230.764,200L232.06,200L233.357,200L234.654,200L235.951,200L237.248,200L238.544,200L239.841,200L241.138,200L242.435,200L243.732,200L245.028,200L246.325,200L247.622,200L248.919,200L250.216,200L251.513,200L252.809,200L254.106,200L255.403,200L256.7,200L257.997,200L258.537,200L259.293,200L260.59,200L261.887,200L263.184,200L264.481,200L265.777,200L267.074,200L268.371,200L269.668,200L270.965,200L272.261,200L273.558,200L274.855,200L276.152,200L277.449,200L278.745,200L280.042,200" stroke="#EDC958" stroke-width="1.5"/></g></g><path class="foreground" aria-hidden="true" d="" display="none"/></g><g transform="translate(0,0)"><path class="background" aria-hidden="true" d="M0,0h300v200h-300Z"/><g><g class="mark-line role-mark layer_0_marks" role="graphics-object" aria-roledescription="line mark container"><path aria-label="Sera Dilution: 2e-5; Fraction Infectivity: 0.674202946978; Virus: WT" role="graphics-symbol" aria-roledescription="line mark" d="M21.978,65.159L23.275,68.7L24.572,72.331L25.869,76.042L27.166,79.824L28.462,83.668L29.759,87.561L31.056,91.494L32.353,95.453L33.65,99.426L34.946,103.401L36.243,107.366L37.54,111.307L38.837,115.213L40.134,119.073L41.43,122.874L42.727,126.606L43.484,128.748L44.024,130.261L45.321,133.828L46.618,137.301L47.915,140.673L49.211,143.937L50.508,147.089L51.805,150.125L53.102,153.043L54.399,155.84L55.695,158.516L56.992,161.07L58.289,163.503L59.586,165.817L60.883,168.012L62.179,170.092L63.476,172.059L64.773,173.917L66.07,175.668L67.367,177.317L68.663,178.868L69.96,180.325L71.257,181.691L72.554,182.972L73.851,184.171L75.147,185.292L76.444,186.339L77.741,187.318L79.038,188.23L79.268,188.385L80.335,189.081L81.631,189.873L82.928,190.611L84.225,191.298L85.522,191.936L86.819,192.53L88.115,193.081L89.412,193.593L90.709,194.068L92.006,194.509L93.303,194.918L94.599,195.298L95.896,195.649L97.193,195.975L98.49,196.277L99.787,196.557L101.083,196.816L102.38,197.056L103.677,197.278L104.974,197.483L106.271,197.674L107.567,197.849L108.864,198.012L110.161,198.163L111.458,198.302L112.755,198.431L114.051,198.55L115.147,198.644L115.348,198.66L116.645,198.762L117.942,198.856L119.239,198.943L120.535,199.023L121.832,199.098L123.129,199.166L124.426,199.23L125.723,199.289L127.019,199.343L128.316,199.393L129.613,199.439L130.91,199.482L132.207,199.521L133.503,199.558L134.8,199.592L136.097,199.623L137.394,199.652L138.691,199.678L139.987,199.703L141.284,199.725L142.581,199.746L143.878,199.766L145.175,199.784L146.472,199.8L147.768,199.815L149.065,199.83L150.362,199.843L150.931,199.848L151.659,199.855L152.956,199.866L154.252,199.876L155.549,199.885L156.846,199.894L158.143,199.902L159.44,199.91L160.736,199.917L162.033,199.923L163.33,199.929L164.627,199.934L165.924,199.939L167.22,199.944L168.517,199.948L169.814,199.952L171.111,199.956L172.408,199.959L173.704,199.962L175.001,199.965L176.298,199.968L177.595,199.97L178.892,199.973L180.188,199.975L181.485,199.977L182.782,199.978L184.079,199.98L185.376,199.982L186.672,199.983L186.705,199.983L187.969,199.984L189.266,199.986L190.563,199.987L191.86,199.988L193.156,199.989L194.453,199.989L195.75,199.99L197.047,199.991L198.344,199.992L199.64,199.992L200.937,199.993L202.234,199.993L203.531,199.994L204.828,199.994L206.124,199.995L207.421,199.995L208.718,199.996L210.015,199.996L211.312,199.996L212.608,199.997L213.905,199.997L215.202,199.997L216.499,199.997L217.796,199.997L219.092,199.998L220.389,199.998L221.686,199.998L222.492,199.998L222.983,199.998L224.28,199.998L225.576,199.998L226.873,199.999L228.17,199.999L229.467,199.999L230.764,199.999L232.06,199.999L233.357,199.999L234.654,199.999L235.951,199.999L237.248,199.999L238.544,199.999L239.841,199.999L241.138,199.999L242.435,199.999L243.732,199.999L245.028,200L246.325,200L247.622,200L248.919,200L250.216,200L251.513,200L252.809,200L254.106,200L255.403,200L256.7,200L257.997,200L258.537,200L259.293,200L260.59,200L261.887,200L263.184,200L264.481,200L265.777,200L267.074,200L268.371,200L269.668,200L270.965,200L272.261,200L273.558,200L274.855,200L276.152,200L277.449,200L278.745,200L280.042,200" stroke="black" stroke-width="1.5"/></g></g><path class="foreground" aria-hidden="true" d="" display="none"/></g><g transform="translate(0,0)"><path class="background" aria-hidden="true" d="M0,0h300v200h-300Z"/><g><g class="mark-line role-mark layer_0_marks" role="graphics-object" aria-roledescription="line mark container"><path aria-label="Sera Dilution: 2e-5; Fraction Infectivity: 0.998223694928; Virus: Y171G" role="graphics-symbol" aria-roledescription="line mark" d="M21.978,0.355L23.275,0.396L24.572,0.442L25.869,0.492L27.166,0.549L28.462,0.612L29.759,0.682L31.056,0.76L32.353,0.847L33.65,0.944L34.946,1.052L36.243,1.173L37.54,1.307L38.837,1.456L40.134,1.622L41.43,1.807L42.727,2.013L43.484,2.143L44.024,2.242L45.321,2.497L46.618,2.78L47.915,3.095L49.211,3.445L50.508,3.834L51.805,4.266L53.102,4.745L54.399,5.276L55.695,5.866L56.992,6.519L58.289,7.242L59.586,8.042L60.883,8.926L62.179,9.902L63.476,10.979L64.773,12.165L66.07,13.471L67.367,14.906L68.663,16.48L69.96,18.204L71.257,20.088L72.554,22.144L73.851,24.381L75.147,26.811L76.444,29.442L77.741,32.283L79.038,35.342L79.268,35.908L80.335,38.624L81.631,42.132L82.928,45.868L84.225,49.832L85.522,54.017L86.819,58.418L88.115,63.022L89.412,67.815L90.709,72.779L92.006,77.893L93.303,83.131L94.599,88.466L95.896,93.868L97.193,99.306L98.49,104.749L99.787,110.164L101.083,115.519L102.38,120.784L103.677,125.931L104.974,130.936L106.271,135.774L107.567,140.428L108.864,144.882L110.161,149.123L111.458,153.144L112.755,156.938L114.051,160.505L115.147,163.34L115.348,163.844L116.645,166.959L117.942,169.855L119.239,172.538L120.535,175.018L121.832,177.304L123.129,179.405L124.426,181.332L125.723,183.096L127.019,184.707L128.316,186.176L129.613,187.514L130.91,188.73L132.207,189.834L133.503,190.835L134.8,191.742L136.097,192.562L137.394,193.304L138.691,193.974L139.987,194.579L141.284,195.125L142.581,195.617L143.878,196.061L145.175,196.46L146.472,196.819L147.768,197.143L149.065,197.434L150.362,197.696L150.931,197.802L151.659,197.931L152.956,198.143L154.252,198.333L155.549,198.504L156.846,198.657L158.143,198.795L159.44,198.918L160.736,199.029L162.033,199.129L163.33,199.219L164.627,199.299L165.924,199.371L167.22,199.436L168.517,199.494L169.814,199.546L171.111,199.593L172.408,199.635L173.704,199.672L175.001,199.706L176.298,199.736L177.595,199.764L178.892,199.788L180.188,199.81L181.485,199.829L182.782,199.847L184.079,199.863L185.376,199.877L186.672,199.89L186.705,199.89L187.969,199.901L189.266,199.911L190.563,199.92L191.86,199.929L193.156,199.936L194.453,199.943L195.75,199.949L197.047,199.954L198.344,199.959L199.64,199.963L200.937,199.967L202.234,199.97L203.531,199.973L204.828,199.976L206.124,199.978L207.421,199.981L208.718,199.983L210.015,199.984L211.312,199.986L212.608,199.988L213.905,199.989L215.202,199.99L216.499,199.991L217.796,199.992L219.092,199.993L220.389,199.993L221.686,199.994L222.492,199.995L222.983,199.995L224.28,199.995L225.576,199.996L226.873,199.996L228.17,199.997L229.467,199.997L230.764,199.997L232.06,199.998L233.357,199.998L234.654,199.998L235.951,199.998L237.248,199.998L238.544,199.999L239.841,199.999L241.138,199.999L242.435,199.999L243.732,199.999L245.028,199.999L246.325,199.999L247.622,199.999L248.919,199.999L250.216,199.999L251.513,200L252.809,200L254.106,200L255.403,200L256.7,200L257.997,200L258.537,200L259.293,200L260.59,200L261.887,200L263.184,200L264.481,200L265.777,200L267.074,200L268.371,200L269.668,200L270.965,200L272.261,200L273.558,200L274.855,200L276.152,200L277.449,200L278.745,200L280.042,200" stroke="#4E79A5" stroke-width="1.5"/></g></g><path class="foreground" aria-hidden="true" d="" display="none"/></g><g transform="translate(0,0)"><path class="background" aria-hidden="true" d="M0,0h300v200h-300Z"/><g><g class="mark-line role-mark layer_0_marks" role="graphics-object" aria-roledescription="line mark container"><path aria-label="Sera Dilution: 2e-5; Fraction Infectivity: 0.784479307183; Virus: K199W/K386D/D582Q" role="graphics-symbol" aria-roledescription="line mark" d="M21.978,43.104L23.275,44.548L24.572,46.025L25.869,47.537L27.166,49.082L28.462,50.661L29.759,52.273L31.056,53.918L32.353,55.595L33.65,57.304L34.946,59.044L36.243,60.814L37.54,62.614L38.837,64.442L40.134,66.298L41.43,68.18L42.727,70.088L43.484,71.213L44.024,72.021L45.321,73.976L46.618,75.952L47.915,77.949L49.211,79.965L50.508,81.997L51.805,84.045L53.102,86.107L54.399,88.181L55.695,90.266L56.992,92.359L58.289,94.458L59.586,96.563L60.883,98.671L62.179,100.779L63.476,102.888L64.773,104.993L66.07,107.094L67.367,109.189L68.663,111.276L69.96,113.353L71.257,115.418L72.554,117.47L73.851,119.507L75.147,121.527L76.444,123.529L77.741,125.511L79.038,127.472L79.268,127.817L80.335,129.41L81.631,131.324L82.928,133.214L84.225,135.077L85.522,136.912L86.819,138.72L88.115,140.498L89.412,142.245L90.709,143.962L92.006,145.648L93.303,147.301L94.599,148.922L95.896,150.51L97.193,152.064L98.49,153.584L99.787,155.07L101.083,156.523L102.38,157.941L103.677,159.325L104.974,160.674L106.271,161.99L107.567,163.271L108.864,164.519L110.161,165.734L111.458,166.915L112.755,168.063L114.051,169.179L115.147,170.096L115.348,170.263L116.645,171.315L117.942,172.335L119.239,173.326L120.535,174.286L121.832,175.216L123.129,176.118L124.426,176.99L125.723,177.835L127.019,178.653L128.316,179.444L129.613,180.209L130.91,180.949L132.207,181.663L133.503,182.354L134.8,183.021L136.097,183.665L137.394,184.287L138.691,184.887L139.987,185.465L141.284,186.024L142.581,186.562L143.878,187.081L145.175,187.582L146.472,188.064L147.768,188.529L149.065,188.976L150.362,189.408L150.931,189.592L151.659,189.823L152.956,190.223L154.252,190.608L155.549,190.978L156.846,191.334L158.143,191.677L159.44,192.007L160.736,192.325L162.033,192.63L163.33,192.924L164.627,193.206L165.924,193.478L167.22,193.739L168.517,193.989L169.814,194.23L171.111,194.462L172.408,194.685L173.704,194.899L175.001,195.104L176.298,195.302L177.595,195.491L178.892,195.674L180.188,195.849L181.485,196.017L182.782,196.178L184.079,196.333L185.376,196.482L186.672,196.625L186.705,196.628L187.969,196.762L189.266,196.893L190.563,197.02L191.86,197.141L193.156,197.258L194.453,197.369L195.75,197.477L197.047,197.58L198.344,197.678L199.64,197.773L200.937,197.864L202.234,197.952L203.531,198.035L204.828,198.116L206.124,198.193L207.421,198.267L208.718,198.338L210.015,198.406L211.312,198.471L212.608,198.534L213.905,198.594L215.202,198.652L216.499,198.707L217.796,198.76L219.092,198.811L220.389,198.86L221.686,198.907L222.492,198.935L222.983,198.952L224.28,198.995L225.576,199.036L226.873,199.076L228.17,199.114L229.467,199.15L230.764,199.185L232.06,199.219L233.357,199.251L234.654,199.282L235.951,199.311L237.248,199.34L238.544,199.367L239.841,199.393L241.138,199.418L242.435,199.442L243.732,199.465L245.028,199.487L246.325,199.508L247.622,199.528L248.919,199.548L250.216,199.566L251.513,199.584L252.809,199.601L254.106,199.618L255.403,199.634L256.7,199.649L257.997,199.663L258.537,199.669L259.293,199.677L260.59,199.69L261.887,199.703L263.184,199.715L264.481,199.727L265.777,199.738L267.074,199.749L268.371,199.759L269.668,199.769L270.965,199.779L272.261,199.788L273.558,199.797L274.855,199.805L276.152,199.813L277.449,199.821L278.745,199.828L280.042,199.835" stroke="#E0585B" stroke-width="1.5"/></g></g><path class="foreground" aria-hidden="true" d="" display="none"/></g></g><g class="mark-symbol role-mark layer_1_marks" role="graphics-object" aria-roledescription="symbol mark container"><path aria-label="Sera Dilution: 4e-5; Fraction Infectivity: 0.598413234; Virus: K199W" role="graphics-symbol" aria-roledescription="circle" transform="translate(43.483769746260776,80.3173532)" d="M2.739,0A2.739,2.739,0,1,1,-2.739,0A2.739,2.739,0,1,1,2.739,0" fill="#F18F3B" stroke-width="2" opacity="1"/><path aria-label="Sera Dilution: 1e-4; Fraction Infectivity: 0.2252194465; Virus: K199W" role="graphics-symbol" aria-roledescription="circle" transform="translate(79.26786385023544,154.95611069999998)" d="M2.739,0A2.739,2.739,0,1,1,-2.739,0A2.739,2.739,0,1,1,2.739,0" fill="#F18F3B" stroke-width="2" opacity="1"/><path aria-label="Sera Dilution: 3e-4; Fraction Infectivity: −0.002655638; Virus: K199W" role="graphics-symbol" aria-roledescription="circle" transform="translate(115.14705900320779,200.5311276)" d="M2.739,0A2.739,2.739,0,1,1,-2.739,0A2.739,2.739,0,1,1,2.739,0" fill="#F18F3B" stroke-width="2" opacity="1"/><path aria-label="Sera Dilution: 1e-3; Fraction Infectivity: −0.0107376775; Virus: K199W" role="graphics-symbol" aria-roledescription="circle" transform="translate(150.93115310718247,202.14753550000003)" d="M2.739,0A2.739,2.739,0,1,1,-2.739,0A2.739,2.739,0,1,1,2.739,0" fill="#F18F3B" stroke-width="2" opacity="1"/><path aria-label="Sera Dilution: 3e-3; Fraction Infectivity: −0.0095914925; Virus: K199W" role="graphics-symbol" aria-roledescription="circle" transform="translate(186.7046941295347,201.9182985)" d="M2.739,0A2.739,2.739,0,1,1,-2.739,0A2.739,2.739,0,1,1,2.739,0" fill="#F18F3B" stroke-width="2" opacity="1"/><path aria-label="Sera Dilution: 9e-3; Fraction Infectivity: −0.00978393; Virus: K199W" role="graphics-symbol" aria-roledescription="circle" transform="translate(222.4923063072983,201.956786)" d="M2.739,0A2.739,2.739,0,1,1,-2.739,0A2.739,2.739,0,1,1,2.739,0" fill="#F18F3B" stroke-width="2" opacity="1"/><path aria-label="Sera Dilution: 3e-2; Fraction Infectivity: −0.006603646; Virus: K199W" role="graphics-symbol" aria-roledescription="circle" transform="translate(258.53685235066644,201.32072920000002)" d="M2.739,0A2.739,2.739,0,1,1,-2.739,0A2.739,2.739,0,1,1,2.739,0" fill="#F18F3B" stroke-width="2" opacity="1"/><path aria-label="Sera Dilution: 4e-5; Fraction Infectivity: 0.5118367625; Virus: K386D" role="graphics-symbol" aria-roledescription="circle" transform="translate(43.483769746260776,97.6326475)" d="M2.739,0A2.739,2.739,0,1,1,-2.739,0A2.739,2.739,0,1,1,2.739,0" fill="#77B7B2" stroke-width="2" opacity="1"/><path aria-label="Sera Dilution: 1e-4; Fraction Infectivity: 0.224900007; Virus: K386D" role="graphics-symbol" aria-roledescription="circle" transform="translate(79.26786385023544,155.0199986)" d="M2.739,0A2.739,2.739,0,1,1,-2.739,0A2.739,2.739,0,1,1,2.739,0" fill="#77B7B2" stroke-width="2" opacity="1"/><path aria-label="Sera Dilution: 3e-4; Fraction Infectivity: 0.010922556; Virus: K386D" role="graphics-symbol" aria-roledescription="circle" transform="translate(115.14705900320779,197.8154888)" d="M2.739,0A2.739,2.739,0,1,1,-2.739,0A2.739,2.739,0,1,1,2.739,0" fill="#77B7B2" stroke-width="2" opacity="1"/><path aria-label="Sera Dilution: 1e-3; Fraction Infectivity: −0.005105307; Virus: K386D" role="graphics-symbol" aria-roledescription="circle" transform="translate(150.93115310718247,201.0210614)" d="M2.739,0A2.739,2.739,0,1,1,-2.739,0A2.739,2.739,0,1,1,2.739,0" fill="#77B7B2" stroke-width="2" opacity="1"/><path aria-label="Sera Dilution: 3e-3; Fraction Infectivity: −0.00474138; Virus: K386D" role="graphics-symbol" aria-roledescription="circle" transform="translate(186.7046941295347,200.948276)" d="M2.739,0A2.739,2.739,0,1,1,-2.739,0A2.739,2.739,0,1,1,2.739,0" fill="#77B7B2" stroke-width="2" opacity="1"/><path aria-label="Sera Dilution: 9e-3; Fraction Infectivity: −0.0053634975; Virus: K386D" role="graphics-symbol" aria-roledescription="circle" transform="translate(222.4923063072983,201.07269950000003)" d="M2.739,0A2.739,2.739,0,1,1,-2.739,0A2.739,2.739,0,1,1,2.739,0" fill="#77B7B2" stroke-width="2" opacity="1"/><path aria-label="Sera Dilution: 3e-2; Fraction Infectivity: −0.0043985375; Virus: K386D" role="graphics-symbol" aria-roledescription="circle" transform="translate(258.53685235066644,200.8797075)" d="M2.739,0A2.739,2.739,0,1,1,-2.739,0A2.739,2.739,0,1,1,2.739,0" fill="#77B7B2" stroke-width="2" opacity="1"/><path aria-label="Sera Dilution: 4e-5; Fraction Infectivity: 0.373719384; Virus: Q530W" role="graphics-symbol" aria-roledescription="circle" transform="translate(43.483769746260776,125.25612320000002)" d="M2.739,0A2.739,2.739,0,1,1,-2.739,0A2.739,2.739,0,1,1,2.739,0" fill="#5AA155" stroke-width="2" opacity="1"/><path aria-label="Sera Dilution: 1e-4; Fraction Infectivity: 0.0880639215; Virus: Q530W" role="graphics-symbol" aria-roledescription="circle" transform="translate(79.26786385023544,182.3872157)" d="M2.739,0A2.739,2.739,0,1,1,-2.739,0A2.739,2.739,0,1,1,2.739,0" fill="#5AA155" stroke-width="2" opacity="1"/><path aria-label="Sera Dilution: 3e-4; Fraction Infectivity: −0.0151957635; Virus: Q530W" role="graphics-symbol" aria-roledescription="circle" transform="translate(115.14705900320779,203.0391527)" d="M2.739,0A2.739,2.739,0,1,1,-2.739,0A2.739,2.739,0,1,1,2.739,0" fill="#5AA155" stroke-width="2" opacity="1"/><path aria-label="Sera Dilution: 1e-3; Fraction Infectivity: −0.0245708; Virus: Q530W" role="graphics-symbol" aria-roledescription="circle" transform="translate(150.93115310718247,204.91416)" d="M2.739,0A2.739,2.739,0,1,1,-2.739,0A2.739,2.739,0,1,1,2.739,0" fill="#5AA155" stroke-width="2" opacity="1"/><path aria-label="Sera Dilution: 3e-3; Fraction Infectivity: −0.0183354845; Virus: Q530W" role="graphics-symbol" aria-roledescription="circle" transform="translate(186.7046941295347,203.66709690000002)" d="M2.739,0A2.739,2.739,0,1,1,-2.739,0A2.739,2.739,0,1,1,2.739,0" fill="#5AA155" stroke-width="2" opacity="1"/><path aria-label="Sera Dilution: 9e-3; Fraction Infectivity: −0.022321809; Virus: Q530W" role="graphics-symbol" aria-roledescription="circle" transform="translate(222.4923063072983,204.46436179999998)" d="M2.739,0A2.739,2.739,0,1,1,-2.739,0A2.739,2.739,0,1,1,2.739,0" fill="#5AA155" stroke-width="2" opacity="1"/><path aria-label="Sera Dilution: 3e-2; Fraction Infectivity: −0.020513127; Virus: Q530W" role="graphics-symbol" aria-roledescription="circle" transform="translate(258.53685235066644,204.10262540000002)" d="M2.739,0A2.739,2.739,0,1,1,-2.739,0A2.739,2.739,0,1,1,2.739,0" fill="#5AA155" stroke-width="2" opacity="1"/><path aria-label="Sera Dilution: 4e-5; Fraction Infectivity: 0.365471221; Virus: D582Q" role="graphics-symbol" aria-roledescription="circle" transform="translate(43.483769746260776,126.90575580000001)" d="M2.739,0A2.739,2.739,0,1,1,-2.739,0A2.739,2.739,0,1,1,2.739,0" fill="#EDC958" stroke-width="2" opacity="1"/><path aria-label="Sera Dilution: 1e-4; Fraction Infectivity: 0.0476932905; Virus: D582Q" role="graphics-symbol" aria-roledescription="circle" transform="translate(79.26786385023544,190.46134189999998)" d="M2.739,0A2.739,2.739,0,1,1,-2.739,0A2.739,2.739,0,1,1,2.739,0" fill="#EDC958" stroke-width="2" opacity="1"/><path aria-label="Sera Dilution: 3e-4; Fraction Infectivity: −0.0001409725; Virus: D582Q" role="graphics-symbol" aria-roledescription="circle" transform="translate(115.14705900320779,200.02819449999998)" d="M2.739,0A2.739,2.739,0,1,1,-2.739,0A2.739,2.739,0,1,1,2.739,0" fill="#EDC958" stroke-width="2" opacity="1"/><path aria-label="Sera Dilution: 1e-3; Fraction Infectivity: −0.003206948; Virus: D582Q" role="graphics-symbol" aria-roledescription="circle" transform="translate(150.93115310718247,200.64138960000002)" d="M2.739,0A2.739,2.739,0,1,1,-2.739,0A2.739,2.739,0,1,1,2.739,0" fill="#EDC958" stroke-width="2" opacity="1"/><path aria-label="Sera Dilution: 3e-3; Fraction Infectivity: −0.0043014155; Virus: D582Q" role="graphics-symbol" aria-roledescription="circle" transform="translate(186.7046941295347,200.8602831)" d="M2.739,0A2.739,2.739,0,1,1,-2.739,0A2.739,2.739,0,1,1,2.739,0" fill="#EDC958" stroke-width="2" opacity="1"/><path aria-label="Sera Dilution: 9e-3; Fraction Infectivity: −0.003277143; Virus: D582Q" role="graphics-symbol" aria-roledescription="circle" transform="translate(222.4923063072983,200.6554286)" d="M2.739,0A2.739,2.739,0,1,1,-2.739,0A2.739,2.739,0,1,1,2.739,0" fill="#EDC958" stroke-width="2" opacity="1"/><path aria-label="Sera Dilution: 3e-2; Fraction Infectivity: −0.003448323; Virus: D582Q" role="graphics-symbol" aria-roledescription="circle" transform="translate(258.53685235066644,200.6896646)" d="M2.739,0A2.739,2.739,0,1,1,-2.739,0A2.739,2.739,0,1,1,2.739,0" fill="#EDC958" stroke-width="2" opacity="1"/><path aria-label="Sera Dilution: 4e-5; Fraction Infectivity: 0.355932133; Virus: WT" role="graphics-symbol" aria-roledescription="circle" transform="translate(43.483769746260776,128.8135734)" d="M2.739,0A2.739,2.739,0,1,1,-2.739,0A2.739,2.739,0,1,1,2.739,0" fill="black" stroke-width="2" opacity="1"/><path aria-label="Sera Dilution: 1e-4; Fraction Infectivity: 0.060705296; Virus: WT" role="graphics-symbol" aria-roledescription="circle" transform="translate(79.26786385023544,187.8589408)" d="M2.739,0A2.739,2.739,0,1,1,-2.739,0A2.739,2.739,0,1,1,2.739,0" fill="black" stroke-width="2" opacity="1"/><path aria-label="Sera Dilution: 3e-4; Fraction Infectivity: −0.0026423625; Virus: WT" role="graphics-symbol" aria-roledescription="circle" transform="translate(115.14705900320779,200.52847250000002)" d="M2.739,0A2.739,2.739,0,1,1,-2.739,0A2.739,2.739,0,1,1,2.739,0" fill="black" stroke-width="2" opacity="1"/><path aria-label="Sera Dilution: 1e-3; Fraction Infectivity: −0.0057568715; Virus: WT" role="graphics-symbol" aria-roledescription="circle" transform="translate(150.93115310718247,201.15137430000001)" d="M2.739,0A2.739,2.739,0,1,1,-2.739,0A2.739,2.739,0,1,1,2.739,0" fill="black" stroke-width="2" opacity="1"/><path aria-label="Sera Dilution: 3e-3; Fraction Infectivity: −0.005022011; Virus: WT" role="graphics-symbol" aria-roledescription="circle" transform="translate(186.7046941295347,201.00440220000002)" d="M2.739,0A2.739,2.739,0,1,1,-2.739,0A2.739,2.739,0,1,1,2.739,0" fill="black" stroke-width="2" opacity="1"/><path aria-label="Sera Dilution: 9e-3; Fraction Infectivity: −0.004684945; Virus: WT" role="graphics-symbol" aria-roledescription="circle" transform="translate(222.4923063072983,200.93698899999998)" d="M2.739,0A2.739,2.739,0,1,1,-2.739,0A2.739,2.739,0,1,1,2.739,0" fill="black" stroke-width="2" opacity="1"/><path aria-label="Sera Dilution: 3e-2; Fraction Infectivity: −0.004918328; Virus: WT" role="graphics-symbol" aria-roledescription="circle" transform="translate(258.53685235066644,200.9836656)" d="M2.739,0A2.739,2.739,0,1,1,-2.739,0A2.739,2.739,0,1,1,2.739,0" fill="black" stroke-width="2" opacity="1"/><path aria-label="Sera Dilution: 4e-5; Fraction Infectivity: 1.018379505; Virus: Y171G" role="graphics-symbol" aria-roledescription="circle" transform="translate(43.483769746260776,-3.6759009999999925)" d="M2.739,0A2.739,2.739,0,1,1,-2.739,0A2.739,2.739,0,1,1,2.739,0" fill="#4E79A5" stroke-width="2" opacity="1"/><path aria-label="Sera Dilution: 1e-4; Fraction Infectivity: 0.8150699095; Virus: Y171G" role="graphics-symbol" aria-roledescription="circle" transform="translate(79.26786385023544,36.986018099999995)" d="M2.739,0A2.739,2.739,0,1,1,-2.739,0A2.739,2.739,0,1,1,2.739,0" fill="#4E79A5" stroke-width="2" opacity="1"/><path aria-label="Sera Dilution: 3e-4; Fraction Infectivity: 0.1876998985; Virus: Y171G" role="graphics-symbol" aria-roledescription="circle" transform="translate(115.14705900320779,162.4600203)" d="M2.739,0A2.739,2.739,0,1,1,-2.739,0A2.739,2.739,0,1,1,2.739,0" fill="#4E79A5" stroke-width="2" opacity="1"/><path aria-label="Sera Dilution: 1e-3; Fraction Infectivity: −0.0044999425; Virus: Y171G" role="graphics-symbol" aria-roledescription="circle" transform="translate(150.93115310718247,200.8999885)" d="M2.739,0A2.739,2.739,0,1,1,-2.739,0A2.739,2.739,0,1,1,2.739,0" fill="#4E79A5" stroke-width="2" opacity="1"/><path aria-label="Sera Dilution: 3e-3; Fraction Infectivity: −0.0082767205; Virus: Y171G" role="graphics-symbol" aria-roledescription="circle" transform="translate(186.7046941295347,201.6553441)" d="M2.739,0A2.739,2.739,0,1,1,-2.739,0A2.739,2.739,0,1,1,2.739,0" fill="#4E79A5" stroke-width="2" opacity="1"/><path aria-label="Sera Dilution: 9e-3; Fraction Infectivity: −0.004842743; Virus: Y171G" role="graphics-symbol" aria-roledescription="circle" transform="translate(222.4923063072983,200.9685486)" d="M2.739,0A2.739,2.739,0,1,1,-2.739,0A2.739,2.739,0,1,1,2.739,0" fill="#4E79A5" stroke-width="2" opacity="1"/><path aria-label="Sera Dilution: 3e-2; Fraction Infectivity: 0.0022896495; Virus: Y171G" role="graphics-symbol" aria-roledescription="circle" transform="translate(258.53685235066644,199.5420701)" d="M2.739,0A2.739,2.739,0,1,1,-2.739,0A2.739,2.739,0,1,1,2.739,0" fill="#4E79A5" stroke-width="2" opacity="1"/><path aria-label="Sera Dilution: 4e-5; Fraction Infectivity: 0.5531427625; Virus: K199W/K386D/D582Q" role="graphics-symbol" aria-roledescription="circle" transform="translate(43.483769746260776,89.37144749999999)" d="M2.739,0A2.739,2.739,0,1,1,-2.739,0A2.739,2.739,0,1,1,2.739,0" fill="#E0585B" stroke-width="2" opacity="1"/><path aria-label="Sera Dilution: 1e-4; Fraction Infectivity: 0.5249568185; Virus: K199W/K386D/D582Q" role="graphics-symbol" aria-roledescription="circle" transform="translate(79.26786385023544,95.0086363)" d="M2.739,0A2.739,2.739,0,1,1,-2.739,0A2.739,2.739,0,1,1,2.739,0" fill="#E0585B" stroke-width="2" opacity="1"/><path aria-label="Sera Dilution: 3e-4; Fraction Infectivity: 0.0419350325; Virus: K199W/K386D/D582Q" role="graphics-symbol" aria-roledescription="circle" transform="translate(115.14705900320779,191.61299350000002)" d="M2.739,0A2.739,2.739,0,1,1,-2.739,0A2.739,2.739,0,1,1,2.739,0" fill="#E0585B" stroke-width="2" opacity="1"/><path aria-label="Sera Dilution: 1e-3; Fraction Infectivity: −0.0077138445; Virus: K199W/K386D/D582Q" role="graphics-symbol" aria-roledescription="circle" transform="translate(150.93115310718247,201.5427689)" d="M2.739,0A2.739,2.739,0,1,1,-2.739,0A2.739,2.739,0,1,1,2.739,0" fill="#E0585B" stroke-width="2" opacity="1"/><path aria-label="Sera Dilution: 3e-3; Fraction Infectivity: −0.004459345; Virus: K199W/K386D/D582Q" role="graphics-symbol" aria-roledescription="circle" transform="translate(186.7046941295347,200.89186899999999)" d="M2.739,0A2.739,2.739,0,1,1,-2.739,0A2.739,2.739,0,1,1,2.739,0" fill="#E0585B" stroke-width="2" opacity="1"/><path aria-label="Sera Dilution: 9e-3; Fraction Infectivity: −0.004373902; Virus: K199W/K386D/D582Q" role="graphics-symbol" aria-roledescription="circle" transform="translate(222.4923063072983,200.8747804)" d="M2.739,0A2.739,2.739,0,1,1,-2.739,0A2.739,2.739,0,1,1,2.739,0" fill="#E0585B" stroke-width="2" opacity="1"/><path aria-label="Sera Dilution: 3e-2; Fraction Infectivity: 0.0102525565; Virus: K199W/K386D/D582Q" role="graphics-symbol" aria-roledescription="circle" transform="translate(258.53685235066644,197.9494887)" d="M2.739,0A2.739,2.739,0,1,1,-2.739,0A2.739,2.739,0,1,1,2.739,0" fill="#E0585B" stroke-width="2" opacity="1"/></g><g class="mark-rule role-mark layer_2_marks" role="graphics-object" aria-roledescription="rule mark container"><line aria-label="concentration: 0.000038; Fraction Infectivity: 0.582714382; upper_lower: 0.614112086; Virus: K199W; upper: 0.614112086; lower: 0.582714382" role="graphics-symbol" aria-roledescription="errorbar" transform="translate(43.483769746260776,83.45712359999999)" x2="0" y2="-6.279540799999992" stroke="#F18F3B" opacity="1"/><line aria-label="concentration: 0.000114; Fraction Infectivity: 0.217285618; upper_lower: 0.233153275; Virus: K199W; upper: 0.233153275; lower: 0.217285618" role="graphics-symbol" aria-roledescription="errorbar" transform="translate(79.26786385023544,156.5428764)" x2="0" y2="-3.17353140000003" stroke="#F18F3B" opacity="1"/><line aria-label="concentration: 0.000343; Fraction Infectivity: −0.005796759; upper_lower: 0.000485483; Virus: K199W; upper: 0.000485483; lower: −0.005796759" role="graphics-symbol" aria-roledescription="errorbar" transform="translate(115.14705900320779,201.15935180000002)" x2="0" y2="-1.2564484000000107" stroke="#F18F3B" opacity="1"/><line aria-label="concentration: 0.001029; Fraction Infectivity: −0.011343687; upper_lower: −0.010131668; Virus: K199W; upper: −0.010131668; lower: −0.011343687" role="graphics-symbol" aria-roledescription="errorbar" transform="translate(150.93115310718247,202.26873740000002)" x2="0" y2="-0.24240380000000528" stroke="#F18F3B" opacity="1"/><line aria-label="concentration: 0.003086; Fraction Infectivity: −0.009750169; upper_lower: −0.009432816; Virus: K199W; upper: −0.009432816; lower: −0.009750169" role="graphics-symbol" aria-roledescription="errorbar" transform="translate(186.7046941295347,201.95003379999997)" x2="0" y2="-0.06347059999998805" stroke="#F18F3B" opacity="1"/><line aria-label="concentration: 0.009259; Fraction Infectivity: −0.010648211; upper_lower: −0.008919649; Virus: K199W; upper: −0.008919649; lower: −0.010648211" role="graphics-symbol" aria-roledescription="errorbar" transform="translate(222.4923063072983,202.12964219999998)" x2="0" y2="-0.34571239999996806" stroke="#F18F3B" opacity="1"/><line aria-label="concentration: 0.028; Fraction Infectivity: −0.007991222; upper_lower: −0.00521607; Virus: K199W; upper: −0.00521607; lower: −0.007991222" role="graphics-symbol" aria-roledescription="errorbar" transform="translate(258.53685235066644,201.5982444)" x2="0" y2="-0.555030400000021" stroke="#F18F3B" opacity="1"/><line aria-label="concentration: 0.000038; Fraction Infectivity: 0.472990563; upper_lower: 0.550682962; Virus: K386D; upper: 0.550682962; lower: 0.472990563" role="graphics-symbol" aria-roledescription="errorbar" transform="translate(43.483769746260776,105.4018874)" x2="0" y2="-15.538479800000005" stroke="#77B7B2" opacity="1"/><line aria-label="concentration: 0.000114; Fraction Infectivity: 0.220468598; upper_lower: 0.229331416; Virus: K386D; upper: 0.229331416; lower: 0.220468598" role="graphics-symbol" aria-roledescription="errorbar" transform="translate(79.26786385023544,155.90628039999999)" x2="0" y2="-1.7725635999999838" stroke="#77B7B2" opacity="1"/><line aria-label="concentration: 0.000343; Fraction Infectivity: 0.003556794; upper_lower: 0.018288318; Virus: K386D; upper: 0.018288318; lower: 0.003556794" role="graphics-symbol" aria-roledescription="errorbar" transform="translate(115.14705900320779,199.2886412)" x2="0" y2="-2.946304800000007" stroke="#77B7B2" opacity="1"/><line aria-label="concentration: 0.001029; Fraction Infectivity: −0.00536844; upper_lower: −0.004842174; Virus: K386D; upper: −0.004842174; lower: −0.00536844" role="graphics-symbol" aria-roledescription="errorbar" transform="translate(150.93115310718247,201.073688)" x2="0" y2="-0.10525320000002125" stroke="#77B7B2" opacity="1"/><line aria-label="concentration: 0.003086; Fraction Infectivity: −0.005001797; upper_lower: −0.004480963; Virus: K386D; upper: −0.004480963; lower: −0.005001797" role="graphics-symbol" aria-roledescription="errorbar" transform="translate(186.7046941295347,201.0003594)" x2="0" y2="-0.10416680000000156" stroke="#77B7B2" opacity="1"/><line aria-label="concentration: 0.009259; Fraction Infectivity: −0.005512221; upper_lower: −0.005214774; Virus: K386D; upper: −0.005214774; lower: −0.005512221" role="graphics-symbol" aria-roledescription="errorbar" transform="translate(222.4923063072983,201.1024442)" x2="0" y2="-0.05948940000001812" stroke="#77B7B2" opacity="1"/><line aria-label="concentration: 0.028; Fraction Infectivity: −0.004719626; upper_lower: −0.004077449; Virus: K386D; upper: −0.004077449; lower: −0.004719626" role="graphics-symbol" aria-roledescription="errorbar" transform="translate(258.53685235066644,200.9439252)" x2="0" y2="-0.12843540000000075" stroke="#77B7B2" opacity="1"/><line aria-label="concentration: 0.000038; Fraction Infectivity: 0.323066298; upper_lower: 0.42437247; Virus: Q530W; upper: 0.42437247; lower: 0.323066298" role="graphics-symbol" aria-roledescription="errorbar" transform="translate(43.483769746260776,135.3867404)" x2="0" y2="-20.261234400000006" stroke="#5AA155" opacity="1"/><line aria-label="concentration: 0.000114; Fraction Infectivity: 0.080202429; upper_lower: 0.095925414; Virus: Q530W; upper: 0.095925414; lower: 0.080202429" role="graphics-symbol" aria-roledescription="errorbar" transform="translate(79.26786385023544,183.9595142)" x2="0" y2="-3.1445970000000045" stroke="#5AA155" opacity="1"/><line aria-label="concentration: 0.000343; Fraction Infectivity: −0.020502024; upper_lower: −0.009889503; Virus: Q530W; upper: −0.009889503; lower: −0.020502024" role="graphics-symbol" aria-roledescription="errorbar" transform="translate(115.14705900320779,204.1004048)" x2="0" y2="-2.122504200000037" stroke="#5AA155" opacity="1"/><line aria-label="concentration: 0.001029; Fraction Infectivity: −0.02702834; upper_lower: −0.02211326; Virus: Q530W; upper: −0.02211326; lower: −0.02702834" role="graphics-symbol" aria-roledescription="errorbar" transform="translate(150.93115310718247,205.405668)" x2="0" y2="-0.9830159999999921" stroke="#5AA155" opacity="1"/><line aria-label="concentration: 0.003086; Fraction Infectivity: −0.023659919; upper_lower: −0.01301105; Virus: Q530W; upper: −0.01301105; lower: −0.023659919" role="graphics-symbol" aria-roledescription="errorbar" transform="translate(186.7046941295347,204.7319838)" x2="0" y2="-2.129773799999981" stroke="#5AA155" opacity="1"/><line aria-label="concentration: 0.009259; Fraction Infectivity: −0.022412955; upper_lower: −0.022230663; Virus: Q530W; upper: −0.022230663; lower: −0.022412955" role="graphics-symbol" aria-roledescription="errorbar" transform="translate(222.4923063072983,204.482591)" x2="0" y2="-0.03645840000001499" stroke="#5AA155" opacity="1"/><line aria-label="concentration: 0.028; Fraction Infectivity: −0.022234818; upper_lower: −0.018791436; Virus: Q530W; upper: −0.018791436; lower: −0.022234818" role="graphics-symbol" aria-roledescription="errorbar" transform="translate(258.53685235066644,204.4469636)" x2="0" y2="-0.6886763999999914" stroke="#5AA155" opacity="1"/><line aria-label="concentration: 0.000038; Fraction Infectivity: 0.330511735; upper_lower: 0.400430707; Virus: D582Q; upper: 0.400430707; lower: 0.330511735" role="graphics-symbol" aria-roledescription="errorbar" transform="translate(43.483769746260776,133.897653)" x2="0" y2="-13.98379439999998" stroke="#EDC958" opacity="1"/><line aria-label="concentration: 0.000114; Fraction Infectivity: 0.036924458; upper_lower: 0.058462123; Virus: D582Q; upper: 0.058462123; lower: 0.036924458" role="graphics-symbol" aria-roledescription="errorbar" transform="translate(79.26786385023544,192.6151084)" x2="0" y2="-4.307532999999978" stroke="#EDC958" opacity="1"/><line aria-label="concentration: 0.000343; Fraction Infectivity: −0.002326536; upper_lower: 0.002044591; Virus: D582Q; upper: 0.002044591; lower: −0.002326536" role="graphics-symbol" aria-roledescription="errorbar" transform="translate(115.14705900320779,200.46530719999998)" x2="0" y2="-0.8742253999999718" stroke="#EDC958" opacity="1"/><line aria-label="concentration: 0.001029; Fraction Infectivity: −0.003415416; upper_lower: −0.00299848; Virus: D582Q; upper: −0.00299848; lower: −0.003415416" role="graphics-symbol" aria-roledescription="errorbar" transform="translate(150.93115310718247,200.6830832)" x2="0" y2="-0.08338720000000421" stroke="#EDC958" opacity="1"/><line aria-label="concentration: 0.003086; Fraction Infectivity: −0.004337566; upper_lower: −0.004265265; Virus: D582Q; upper: −0.004265265; lower: −0.004337566" role="graphics-symbol" aria-roledescription="errorbar" transform="translate(186.7046941295347,200.8675132)" x2="0" y2="-0.014460200000002033" stroke="#EDC958" opacity="1"/><line aria-label="concentration: 0.009259; Fraction Infectivity: −0.003706554; upper_lower: −0.002847732; Virus: D582Q; upper: −0.002847732; lower: −0.003706554" role="graphics-symbol" aria-roledescription="errorbar" transform="translate(222.4923063072983,200.7413108)" x2="0" y2="-0.1717644000000007" stroke="#EDC958" opacity="1"/><line aria-label="concentration: 0.028; Fraction Infectivity: −0.003526998; upper_lower: −0.003369648; Virus: D582Q; upper: −0.003369648; lower: −0.003526998" role="graphics-symbol" aria-roledescription="errorbar" transform="translate(258.53685235066644,200.70539959999996)" x2="0" y2="-0.031469999999956144" stroke="#EDC958" opacity="1"/><line aria-label="concentration: 0.000038; Fraction Infectivity: 0.302875924; upper_lower: 0.408988342; Virus: WT; upper: 0.408988342; lower: 0.302875924" role="graphics-symbol" aria-roledescription="errorbar" transform="translate(43.483769746260776,139.42481519999998)" x2="0" y2="-21.22248359999999" stroke="black" opacity="1"/><line aria-label="concentration: 0.000114; Fraction Infectivity: 0.060473862; upper_lower: 0.06093673; Virus: WT; upper: 0.06093673; lower: 0.060473862" role="graphics-symbol" aria-roledescription="errorbar" transform="translate(79.26786385023544,187.9052276)" x2="0" y2="-0.09257359999998016" stroke="black" opacity="1"/><line aria-label="concentration: 0.000343; Fraction Infectivity: −0.002680362; upper_lower: −0.002604363; Virus: WT; upper: −0.002604363; lower: −0.002680362" role="graphics-symbol" aria-roledescription="errorbar" transform="translate(115.14705900320779,200.5360724)" x2="0" y2="-0.015199799999976449" stroke="black" opacity="1"/><line aria-label="concentration: 0.001029; Fraction Infectivity: −0.006429109; upper_lower: −0.005084634; Virus: WT; upper: −0.005084634; lower: −0.006429109" role="graphics-symbol" aria-roledescription="errorbar" transform="translate(150.93115310718247,201.28582179999998)" x2="0" y2="-0.26889499999998634" stroke="black" opacity="1"/><line aria-label="concentration: 0.003086; Fraction Infectivity: −0.005394885; upper_lower: −0.004649137; Virus: WT; upper: −0.004649137; lower: −0.005394885" role="graphics-symbol" aria-roledescription="errorbar" transform="translate(186.7046941295347,201.078977)" x2="0" y2="-0.14914960000001543" stroke="black" opacity="1"/><line aria-label="concentration: 0.009259; Fraction Infectivity: −0.004851274; upper_lower: −0.004518616; Virus: WT; upper: −0.004518616; lower: −0.004851274" role="graphics-symbol" aria-roledescription="errorbar" transform="translate(222.4923063072983,200.9702548)" x2="0" y2="-0.0665316000000189" stroke="black" opacity="1"/><line aria-label="concentration: 0.028; Fraction Infectivity: −0.005340354; upper_lower: −0.004496302; Virus: WT; upper: −0.004496302; lower: −0.005340354" role="graphics-symbol" aria-roledescription="errorbar" transform="translate(258.53685235066644,201.06807080000002)" x2="0" y2="-0.16881040000001235" stroke="black" opacity="1"/><line aria-label="concentration: 0.000038; Fraction Infectivity: 0.719361277; upper_lower: 1.317397733; Virus: Y171G; upper: 1.317397733; lower: 0.719361277" role="graphics-symbol" aria-roledescription="errorbar" transform="translate(43.483769746260776,56.12774460000001)" x2="0" y2="-119.60729119999999" stroke="#4E79A5" opacity="1"/><line aria-label="concentration: 0.000114; Fraction Infectivity: 0.526147705; upper_lower: 1.103992114; Virus: Y171G; upper: 1.103992114; lower: 0.526147705" role="graphics-symbol" aria-roledescription="errorbar" transform="translate(79.26786385023544,94.77045899999999)" x2="0" y2="-115.56888179999999" stroke="#4E79A5" opacity="1"/><line aria-label="concentration: 0.000343; Fraction Infectivity: 0.096247505; upper_lower: 0.279152292; Virus: Y171G; upper: 0.279152292; lower: 0.096247505" role="graphics-symbol" aria-roledescription="errorbar" transform="translate(115.14705900320779,180.750499)" x2="0" y2="-36.58095739999999" stroke="#4E79A5" opacity="1"/><line aria-label="concentration: 0.001029; Fraction Infectivity: −0.006670659; upper_lower: −0.002329226; Virus: Y171G; upper: −0.002329226; lower: −0.006670659" role="graphics-symbol" aria-roledescription="errorbar" transform="translate(150.93115310718247,201.33413180000002)" x2="0" y2="-0.8682866000000047" stroke="#4E79A5" opacity="1"/><line aria-label="concentration: 0.003086; Fraction Infectivity: −0.009397206; upper_lower: −0.007156235; Virus: Y171G; upper: −0.007156235; lower: −0.009397206" role="graphics-symbol" aria-roledescription="errorbar" transform="translate(186.7046941295347,201.8794412)" x2="0" y2="-0.448194199999989" stroke="#4E79A5" opacity="1"/><line aria-label="concentration: 0.009259; Fraction Infectivity: −0.008107442; upper_lower: −0.001578044; Virus: Y171G; upper: −0.001578044; lower: −0.008107442" role="graphics-symbol" aria-roledescription="errorbar" transform="translate(222.4923063072983,201.6214884)" x2="0" y2="-1.3058796000000257" stroke="#4E79A5" opacity="1"/><line aria-label="concentration: 0.028; Fraction Infectivity: 0.001147363; upper_lower: 0.003431936; Virus: Y171G; upper: 0.003431936; lower: 0.001147363" role="graphics-symbol" aria-roledescription="errorbar" transform="translate(258.53685235066644,199.77052740000002)" x2="0" y2="-0.45691460000003303" stroke="#4E79A5" opacity="1"/><line aria-label="concentration: 0.000038; Fraction Infectivity: 0.540625; upper_lower: 0.565660525; Virus: K199W/K386D/D582Q; upper: 0.565660525; lower: 0.540625" role="graphics-symbol" aria-roledescription="errorbar" transform="translate(43.483769746260776,91.875)" x2="0" y2="-5.00710500000001" stroke="#E0585B" opacity="1"/><line aria-label="concentration: 0.000114; Fraction Infectivity: 0.4078125; upper_lower: 0.642101137; Virus: K199W/K386D/D582Q; upper: 0.642101137; lower: 0.4078125" role="graphics-symbol" aria-roledescription="errorbar" transform="translate(79.26786385023544,118.4375)" x2="0" y2="-46.85772739999999" stroke="#E0585B" opacity="1"/><line aria-label="concentration: 0.000343; Fraction Infectivity: 0.037496094; upper_lower: 0.046373971; Virus: K199W/K386D/D582Q; upper: 0.046373971; lower: 0.037496094" role="graphics-symbol" aria-roledescription="errorbar" transform="translate(115.14705900320779,192.5007812)" x2="0" y2="-1.7755754000000081" stroke="#E0585B" opacity="1"/><line aria-label="concentration: 0.001029; Fraction Infectivity: −0.009431595; upper_lower: −0.005996094; Virus: K199W/K386D/D582Q; upper: −0.005996094; lower: −0.009431595" role="graphics-symbol" aria-roledescription="errorbar" transform="translate(150.93115310718247,201.886319)" x2="0" y2="-0.6871002000000033" stroke="#E0585B" opacity="1"/><line aria-label="concentration: 0.003086; Fraction Infectivity: −0.007205018; upper_lower: −0.001713672; Virus: K199W/K386D/D582Q; upper: −0.001713672; lower: −0.007205018" role="graphics-symbol" aria-roledescription="errorbar" transform="translate(186.7046941295347,201.44100360000002)" x2="0" y2="-1.0982692000000327" stroke="#E0585B" opacity="1"/><line aria-label="concentration: 0.009259; Fraction Infectivity: −0.005931007; upper_lower: −0.002816797; Virus: K199W/K386D/D582Q; upper: −0.002816797; lower: −0.005931007" role="graphics-symbol" aria-roledescription="errorbar" transform="translate(222.4923063072983,201.18620140000002)" x2="0" y2="-0.6228420000000199" stroke="#E0585B" opacity="1"/><line aria-label="concentration: 0.028; Fraction Infectivity: 0.009050781; upper_lower: 0.011454332; Virus: K199W/K386D/D582Q; upper: 0.011454332; lower: 0.009050781" role="graphics-symbol" aria-roledescription="errorbar" transform="translate(258.53685235066644,198.1898438)" x2="0" y2="-0.4807102000000043" stroke="#E0585B" opacity="1"/></g><g class="mark-group role-legend" role="graphics-symbol" aria-roledescription="legend" aria-label="Symbol legend titled 'Virus' for fill color and stroke color with 7 values: WT, Y171G, K199W, K199W/K386D/D582Q, K386D, Q530W, D582Q"><g transform="translate(318,0)"><path class="background" aria-hidden="true" d="M0,0h169v139h-169Z" pointer-events="none"/><g><g class="mark-group role-legend-entry"><g transform="translate(5,24)"><path class="background" aria-hidden="true" d="M0,0h0v0h0Z" pointer-events="none"/><g><g class="mark-group role-scope" role="graphics-object" aria-roledescription="group mark container"><g transform="translate(0,0)"><path class="background" aria-hidden="true" d="M0,0h158.8544921875v14h-158.8544921875Z" pointer-events="none" opacity="1"/><g><g class="mark-symbol role-legend-symbol" pointer-events="none"><path transform="translate(7,7)" d="M5,0A5,5,0,1,1,-5,0A5,5,0,1,1,5,0" fill="black" stroke="black" stroke-width="1.5" opacity="1"/></g><g class="mark-text role-legend-label" pointer-events="none"><text text-anchor="start" transform="translate(18,11)" font-family="Helvetica" font-size="14px" fill="#000" opacity="1">WT</text></g></g><path class="foreground" aria-hidden="true" d="" pointer-events="none" display="none"/></g><g transform="translate(0,16)"><path class="background" aria-hidden="true" d="M0,0h158.8544921875v14h-158.8544921875Z" pointer-events="none" opacity="1"/><g><g class="mark-symbol role-legend-symbol" pointer-events="none"><path transform="translate(7,7)" d="M5,0A5,5,0,1,1,-5,0A5,5,0,1,1,5,0" fill="#4E79A5" stroke="#4E79A5" stroke-width="1.5" opacity="1"/></g><g class="mark-text role-legend-label" pointer-events="none"><text text-anchor="start" transform="translate(18,11)" font-family="Helvetica" font-size="14px" fill="#000" opacity="1">Y171G</text></g></g><path class="foreground" aria-hidden="true" d="" pointer-events="none" display="none"/></g><g transform="translate(0,32)"><path class="background" aria-hidden="true" d="M0,0h158.8544921875v14h-158.8544921875Z" pointer-events="none" opacity="1"/><g><g class="mark-symbol role-legend-symbol" pointer-events="none"><path transform="translate(7,7)" d="M5,0A5,5,0,1,1,-5,0A5,5,0,1,1,5,0" fill="#F18F3B" stroke="#F18F3B" stroke-width="1.5" opacity="1"/></g><g class="mark-text role-legend-label" pointer-events="none"><text text-anchor="start" transform="translate(18,11)" font-family="Helvetica" font-size="14px" fill="#000" opacity="1">K199W</text></g></g><path class="foreground" aria-hidden="true" d="" pointer-events="none" display="none"/></g><g transform="translate(0,48)"><path class="background" aria-hidden="true" d="M0,0h158.8544921875v14h-158.8544921875Z" pointer-events="none" opacity="1"/><g><g class="mark-symbol role-legend-symbol" pointer-events="none"><path transform="translate(7,7)" d="M5,0A5,5,0,1,1,-5,0A5,5,0,1,1,5,0" fill="#E0585B" stroke="#E0585B" stroke-width="1.5" opacity="1"/></g><g class="mark-text role-legend-label" pointer-events="none"><text text-anchor="start" transform="translate(18,11)" font-family="Helvetica" font-size="14px" fill="#000" opacity="1">K199W/K386D/D582Q</text></g></g><path class="foreground" aria-hidden="true" d="" pointer-events="none" display="none"/></g><g transform="translate(0,64)"><path class="background" aria-hidden="true" d="M0,0h158.8544921875v14h-158.8544921875Z" pointer-events="none" opacity="1"/><g><g class="mark-symbol role-legend-symbol" pointer-events="none"><path transform="translate(7,7)" d="M5,0A5,5,0,1,1,-5,0A5,5,0,1,1,5,0" fill="#77B7B2" stroke="#77B7B2" stroke-width="1.5" opacity="1"/></g><g class="mark-text role-legend-label" pointer-events="none"><text text-anchor="start" transform="translate(18,11)" font-family="Helvetica" font-size="14px" fill="#000" opacity="1">K386D</text></g></g><path class="foreground" aria-hidden="true" d="" pointer-events="none" display="none"/></g><g transform="translate(0,80)"><path class="background" aria-hidden="true" d="M0,0h158.8544921875v14h-158.8544921875Z" pointer-events="none" opacity="1"/><g><g class="mark-symbol role-legend-symbol" pointer-events="none"><path transform="translate(7,7)" d="M5,0A5,5,0,1,1,-5,0A5,5,0,1,1,5,0" fill="#5AA155" stroke="#5AA155" stroke-width="1.5" opacity="1"/></g><g class="mark-text role-legend-label" pointer-events="none"><text text-anchor="start" transform="translate(18,11)" font-family="Helvetica" font-size="14px" fill="#000" opacity="1">Q530W</text></g></g><path class="foreground" aria-hidden="true" d="" pointer-events="none" display="none"/></g><g transform="translate(0,96)"><path class="background" aria-hidden="true" d="M0,0h158.8544921875v14h-158.8544921875Z" pointer-events="none" opacity="1"/><g><g class="mark-symbol role-legend-symbol" pointer-events="none"><path transform="translate(7,7)" d="M5,0A5,5,0,1,1,-5,0A5,5,0,1,1,5,0" fill="#EDC958" stroke="#EDC958" stroke-width="1.5" opacity="1"/></g><g class="mark-text role-legend-label" pointer-events="none"><text text-anchor="start" transform="translate(18,11)" font-family="Helvetica" font-size="14px" fill="#000" opacity="1">D582Q</text></g></g><path class="foreground" aria-hidden="true" d="" pointer-events="none" display="none"/></g></g></g><path class="foreground" aria-hidden="true" d="" pointer-events="none" display="none"/></g></g><g class="mark-text role-legend-title" pointer-events="none"><text text-anchor="start" transform="translate(5,16)" font-family="Helvetica" font-size="14px" font-weight="bold" fill="#000" opacity="1">Virus</text></g></g><path class="foreground" aria-hidden="true" d="" pointer-events="none" display="none"/></g></g></g><path class="foreground" aria-hidden="true" d="" display="none"/></g></g></g></svg>