<svg xmlns="http://www.w3.org/2000/svg" xmlns:xlink="http://www.w3.org/1999/xlink" version="1.1" class="marks" width="542" height="249" viewBox="0 0 542 249"><rect width="542" height="249" fill="white"/><g fill="none" stroke-miterlimit="10" transform="translate(50,5)"><g class="mark-group role-frame root" role="graphics-object" aria-roledescription="group mark container"><g transform="translate(0,0)"><path class="background" aria-hidden="true" d="M0,0h300v200h-300Z" stroke-width="0"/><g><g class="mark-group role-axis" role="graphics-symbol" aria-roledescription="axis" aria-label="X-axis titled 'Sera Dilution' for a log scale with values from 1e-5 to 1e-1"><g transform="translate(0.5,200.5)"><path class="background" aria-hidden="true" d="M0,0h0v0h0Z" pointer-events="none"/><g><g class="mark-rule role-axis-tick" pointer-events="none"><line transform="translate(0,0)" x2="0" y2="4" stroke="black" stroke-width="1" opacity="1"/><line transform="translate(75,0)" x2="0" y2="4" stroke="black" stroke-width="1" opacity="1"/><line transform="translate(150,0)" x2="0" y2="4" stroke="black" stroke-width="1" opacity="1"/><line transform="translate(225,0)" x2="0" y2="4" stroke="black" stroke-width="1" opacity="1"/><line transform="translate(300,0)" x2="0" y2="4" stroke="black" stroke-width="1" opacity="1"/></g><g class="mark-text role-axis-label" pointer-events="none"><text text-anchor="middle" transform="translate(0,17)" font-family="Helvetica" font-size="14px" font-weight="normal" fill="#000" opacity="1">1e-5</text><text text-anchor="middle" transform="translate(75.00000000000003,17)" font-family="Helvetica" font-size="14px" font-weight="normal" fill="#000" opacity="1">1e-4</text><text text-anchor="middle" transform="translate(150,17)" font-family="Helvetica" font-size="14px" font-weight="normal" fill="#000" opacity="1">1e-3</text><text text-anchor="middle" transform="translate(225,17)" font-family="Helvetica" font-size="14px" font-weight="normal" fill="#000" opacity="1">1e-2</text><text text-anchor="middle" transform="translate(300,17)" font-family="Helvetica" font-size="14px" font-weight="normal" fill="#000" opacity="1">1e-1</text></g><g class="mark-rule role-axis-domain" pointer-events="none"><line transform="translate(0,0)" x2="300" y2="0" stroke="black" stroke-width="1" opacity="1"/></g><g class="mark-text role-axis-title" pointer-events="none"><text text-anchor="middle" transform="translate(150,36)" font-family="Helvetica" font-size="14px" font-weight="bold" fill="#000" opacity="1">Sera Dilution</text></g></g><path class="foreground" aria-hidden="true" d="" pointer-events="none" display="none"/></g></g><g class="mark-group role-axis" role="graphics-symbol" aria-roledescription="axis" aria-label="Y-axis titled 'Fraction Infectivity' for a linear scale with values from −0.2 to 1.4"><g transform="translate(0.5,0.5)"><path class="background" aria-hidden="true" d="M0,0h0v0h0Z" pointer-events="none"/><g><g class="mark-rule role-axis-tick" pointer-events="none"><line transform="translate(0,175)" x2="-4" y2="0" stroke="black" stroke-width="1" opacity="1"/><line transform="translate(0,113)" x2="-4" y2="0" stroke="black" stroke-width="1" opacity="1"/><line transform="translate(0,50)" x2="-4" y2="0" stroke="black" stroke-width="1" opacity="1"/></g><g class="mark-text role-axis-label" pointer-events="none"><text text-anchor="end" transform="translate(-6,179)" font-family="Helvetica" font-size="14px" font-weight="normal" fill="#000" opacity="1">0.0</text><text text-anchor="end" transform="translate(-6,116.5)" font-family="Helvetica" font-size="14px" font-weight="normal" fill="#000" opacity="1">0.5</text><text text-anchor="end" transform="translate(-6,54)" font-family="Helvetica" font-size="14px" font-weight="normal" fill="#000" opacity="1">1.0</text></g><g class="mark-rule role-axis-domain" pointer-events="none"><line transform="translate(0,200)" x2="0" y2="-200" stroke="black" stroke-width="1" opacity="1"/></g><g class="mark-text role-axis-title" pointer-events="none"><text text-anchor="middle" transform="translate(-30.4619140625,100) rotate(-90) translate(0,-3)" font-family="Helvetica" font-size="14px" font-weight="bold" fill="#000" opacity="1">Fraction Infectivity</text></g></g><path class="foreground" aria-hidden="true" d="" pointer-events="none" display="none"/></g></g><g class="mark-group role-scope layer_0_pathgroup" role="graphics-object" aria-roledescription="group mark container"><g transform="translate(0,0)"><path class="background" aria-hidden="true" d="M0,0h300v200h-300Z"/><g><g class="mark-line role-mark layer_0_marks" role="graphics-object" aria-roledescription="line mark container"><path aria-label="Sera Dilution: 2e-5; Fraction Infectivity: 0.820014313487; Serum: K199W" role="graphics-symbol" aria-roledescription="line mark" d="M21.978,72.498L23.275,73.729L24.572,75.012L25.869,76.345L27.166,77.73L28.462,79.166L29.759,80.653L31.056,82.191L32.353,83.778L33.65,85.413L34.946,87.095L36.243,88.823L37.54,90.594L38.837,92.406L40.134,94.256L41.43,96.142L42.727,98.061L43.484,99.193L44.024,100.008L45.321,101.982L46.618,103.977L47.915,105.99L49.211,108.017L50.508,110.053L51.805,112.094L53.102,114.137L54.399,116.176L55.695,118.207L56.992,120.226L58.289,122.228L59.586,124.211L60.883,126.169L62.179,128.1L63.476,129.999L64.773,131.864L66.07,133.692L67.367,135.479L68.663,137.224L69.96,138.925L71.257,140.579L72.554,142.185L73.851,143.742L75.147,145.249L76.444,146.706L77.741,148.111L79.038,149.465L79.268,149.7L80.335,150.768L81.631,152.019L82.928,153.22L84.225,154.371L85.522,155.472L86.819,156.525L88.115,157.531L89.412,158.49L90.709,159.404L92.006,160.275L93.303,161.103L94.599,161.89L95.896,162.638L97.193,163.347L98.49,164.02L99.787,164.657L101.083,165.261L102.38,165.832L103.677,166.372L104.974,166.882L106.271,167.365L107.567,167.82L108.864,168.25L110.161,168.655L111.458,169.038L112.755,169.398L114.051,169.737L115.147,170.009L115.348,170.057L116.645,170.358L117.942,170.642L119.239,170.909L120.535,171.16L121.832,171.396L123.129,171.618L124.426,171.826L125.723,172.022L127.019,172.206L128.316,172.379L129.613,172.542L130.91,172.695L132.207,172.838L133.503,172.973L134.8,173.099L136.097,173.218L137.394,173.329L138.691,173.433L139.987,173.531L141.284,173.623L142.581,173.709L143.878,173.79L145.175,173.866L146.472,173.937L147.768,174.004L149.065,174.067L150.362,174.125L150.931,174.15L151.659,174.18L152.956,174.232L154.252,174.28L155.549,174.325L156.846,174.368L158.143,174.408L159.44,174.445L160.736,174.48L162.033,174.513L163.33,174.543L164.627,174.572L165.924,174.599L167.22,174.624L168.517,174.648L169.814,174.67L171.111,174.691L172.408,174.711L173.704,174.729L175.001,174.746L176.298,174.762L177.595,174.777L178.892,174.791L180.188,174.804L181.485,174.817L182.782,174.828L184.079,174.839L185.376,174.849L186.672,174.859L186.705,174.859L187.969,174.868L189.266,174.876L190.563,174.884L191.86,174.891L193.156,174.898L194.453,174.905L195.75,174.911L197.047,174.916L198.344,174.922L199.64,174.927L200.937,174.931L202.234,174.936L203.531,174.94L204.828,174.943L206.124,174.947L207.421,174.95L208.718,174.954L210.015,174.956L211.312,174.959L212.608,174.962L213.905,174.964L215.202,174.966L216.499,174.969L217.796,174.971L219.092,174.972L220.389,174.974L221.686,174.976L222.492,174.977L222.983,174.977L224.28,174.979L225.576,174.98L226.873,174.981L228.17,174.983L229.467,174.984L230.764,174.985L232.06,174.986L233.357,174.987L234.654,174.987L235.951,174.988L237.248,174.989L238.544,174.99L239.841,174.99L241.138,174.991L242.435,174.992L243.732,174.992L245.028,174.993L246.325,174.993L247.622,174.993L248.919,174.994L250.216,174.994L251.513,174.995L252.809,174.995L254.106,174.995L255.403,174.996L256.7,174.996L257.997,174.996L258.537,174.996L259.293,174.996L260.59,174.997L261.887,174.997L263.184,174.997L264.481,174.997L265.777,174.997L267.074,174.998L268.371,174.998L269.668,174.998L270.965,174.998L272.261,174.998L273.558,174.998L274.855,174.998L276.152,174.998L277.449,174.999L278.745,174.999L280.042,174.999" stroke="#f28e2c" stroke-width="1.5"/></g></g><path class="foreground" aria-hidden="true" d="" display="none"/></g><g transform="translate(0,0)"><path class="background" aria-hidden="true" d="M0,0h300v200h-300Z"/><g><g class="mark-line role-mark layer_0_marks" role="graphics-object" aria-roledescription="line mark container"><path aria-label="Sera Dilution: 2e-5; Fraction Infectivity: 0.728794550844; Serum: K386D" role="graphics-symbol" aria-roledescription="line mark" d="M21.978,83.901L23.275,85.261L24.572,86.654L25.869,88.079L27.166,89.534L28.462,91.019L29.759,92.532L31.056,94.071L32.353,95.635L33.65,97.223L34.946,98.831L36.243,100.459L37.54,102.104L38.837,103.764L40.134,105.436L41.43,107.119L42.727,108.81L43.484,109.799L44.024,110.506L45.321,112.205L46.618,113.905L47.915,115.602L49.211,117.295L50.508,118.981L51.805,120.657L53.102,122.322L54.399,123.972L55.695,125.606L56.992,127.222L58.289,128.816L59.586,130.389L60.883,131.937L62.179,133.459L63.476,134.954L64.773,136.419L66.07,137.855L67.367,139.259L68.663,140.631L69.96,141.97L71.257,143.275L72.554,144.545L73.851,145.78L75.147,146.981L76.444,148.145L77.741,149.274L79.038,150.368L79.268,150.558L80.335,151.426L81.631,152.449L82.928,153.437L84.225,154.39L85.522,155.309L86.819,156.195L88.115,157.048L89.412,157.868L90.709,158.656L92.006,159.413L93.303,160.141L94.599,160.838L95.896,161.507L97.193,162.148L98.49,162.762L99.787,163.349L101.083,163.911L102.38,164.449L103.677,164.962L104.974,165.453L106.271,165.922L107.567,166.369L108.864,166.796L110.161,167.203L111.458,167.592L112.755,167.962L114.051,168.315L115.147,168.599L115.348,168.65L116.645,168.97L117.942,169.275L119.239,169.565L120.535,169.841L121.832,170.103L123.129,170.353L124.426,170.59L125.723,170.816L127.019,171.03L128.316,171.234L129.613,171.428L130.91,171.612L132.207,171.787L133.503,171.953L134.8,172.11L136.097,172.26L137.394,172.402L138.691,172.537L139.987,172.665L141.284,172.786L142.581,172.901L143.878,173.011L145.175,173.114L146.472,173.213L147.768,173.306L149.065,173.395L150.362,173.479L150.931,173.514L151.659,173.558L152.956,173.634L154.252,173.705L155.549,173.773L156.846,173.837L158.143,173.898L159.44,173.956L160.736,174.011L162.033,174.063L163.33,174.112L164.627,174.159L165.924,174.203L167.22,174.245L168.517,174.285L169.814,174.323L171.111,174.358L172.408,174.392L173.704,174.424L175.001,174.454L176.298,174.483L177.595,174.51L178.892,174.536L180.188,174.561L181.485,174.584L182.782,174.606L184.079,174.627L185.376,174.646L186.672,174.665L186.705,174.666L187.969,174.683L189.266,174.7L190.563,174.715L191.86,174.73L193.156,174.745L194.453,174.758L195.75,174.771L197.047,174.783L198.344,174.794L199.64,174.805L200.937,174.816L202.234,174.825L203.531,174.835L204.828,174.843L206.124,174.852L207.421,174.859L208.718,174.867L210.015,174.874L211.312,174.881L212.608,174.887L213.905,174.893L215.202,174.899L216.499,174.904L217.796,174.909L219.092,174.914L220.389,174.918L221.686,174.923L222.492,174.925L222.983,174.927L224.28,174.931L225.576,174.934L226.873,174.938L228.17,174.941L229.467,174.944L230.764,174.947L232.06,174.95L233.357,174.953L234.654,174.955L235.951,174.958L237.248,174.96L238.544,174.962L239.841,174.964L241.138,174.966L242.435,174.968L243.732,174.969L245.028,174.971L246.325,174.972L247.622,174.974L248.919,174.975L250.216,174.977L251.513,174.978L252.809,174.979L254.106,174.98L255.403,174.981L256.7,174.982L257.997,174.983L258.537,174.984L259.293,174.984L260.59,174.985L261.887,174.986L263.184,174.986L264.481,174.987L265.777,174.988L267.074,174.988L268.371,174.989L269.668,174.99L270.965,174.99L272.261,174.991L273.558,174.991L274.855,174.992L276.152,174.992L277.449,174.993L278.745,174.993L280.042,174.993" stroke="#76b7b2" stroke-width="1.5"/></g></g><path class="foreground" aria-hidden="true" d="" display="none"/></g><g transform="translate(0,0)"><path class="background" aria-hidden="true" d="M0,0h300v200h-300Z"/><g><g class="mark-line role-mark layer_0_marks" role="graphics-object" aria-roledescription="line mark container"><path aria-label="Sera Dilution: 2e-5; Fraction Infectivity: 0.662446179786; Serum: Q530W" role="graphics-symbol" aria-roledescription="line mark" d="M21.978,92.194L23.275,94.211L24.572,96.27L25.869,98.368L27.166,100.5L28.462,102.661L29.759,104.846L31.056,107.051L32.353,109.269L33.65,111.496L34.946,113.725L36.243,115.952L37.54,118.169L38.837,120.372L40.134,122.555L41.43,124.714L42.727,126.842L43.484,128.068L44.024,128.936L45.321,130.992L46.618,133.004L47.915,134.969L49.211,136.885L50.508,138.749L51.805,140.557L53.102,142.309L54.399,144.001L55.695,145.634L56.992,147.207L58.289,148.718L59.586,150.168L60.883,151.558L62.179,152.886L63.476,154.155L64.773,155.365L66.07,156.517L67.367,157.613L68.663,158.653L69.96,159.641L71.257,160.576L72.554,161.462L73.851,162.299L75.147,163.091L76.444,163.837L77.741,164.542L79.038,165.205L79.268,165.319L80.335,165.83L81.631,166.418L82.928,166.971L84.225,167.491L85.522,167.979L86.819,168.437L88.115,168.867L89.412,169.27L90.709,169.647L92.006,170.001L93.303,170.333L94.599,170.643L95.896,170.933L97.193,171.205L98.49,171.459L99.787,171.696L101.083,171.918L102.38,172.125L103.677,172.319L104.974,172.5L106.271,172.669L107.567,172.827L108.864,172.974L110.161,173.111L111.458,173.239L112.755,173.359L114.051,173.471L115.147,173.559L115.348,173.575L116.645,173.672L117.942,173.762L119.239,173.847L120.535,173.926L121.832,173.999L123.129,174.067L124.426,174.131L125.723,174.191L127.019,174.246L128.316,174.298L129.613,174.346L130.91,174.391L132.207,174.432L133.503,174.471L134.8,174.508L136.097,174.541L137.394,174.573L138.691,174.602L139.987,174.629L141.284,174.655L142.581,174.679L143.878,174.701L145.175,174.721L146.472,174.74L147.768,174.758L149.065,174.775L150.362,174.79L150.931,174.797L151.659,174.805L152.956,174.818L154.252,174.831L155.549,174.842L156.846,174.853L158.143,174.863L159.44,174.873L160.736,174.881L162.033,174.89L163.33,174.897L164.627,174.904L165.924,174.911L167.22,174.917L168.517,174.923L169.814,174.928L171.111,174.933L172.408,174.938L173.704,174.942L175.001,174.946L176.298,174.95L177.595,174.953L178.892,174.956L180.188,174.959L181.485,174.962L182.782,174.965L184.079,174.967L185.376,174.969L186.672,174.972L186.705,174.972L187.969,174.973L189.266,174.975L190.563,174.977L191.86,174.979L193.156,174.98L194.453,174.981L195.75,174.983L197.047,174.984L198.344,174.985L199.64,174.986L200.937,174.987L202.234,174.988L203.531,174.989L204.828,174.99L206.124,174.99L207.421,174.991L208.718,174.992L210.015,174.992L211.312,174.993L212.608,174.993L213.905,174.994L215.202,174.994L216.499,174.994L217.796,174.995L219.092,174.995L220.389,174.996L221.686,174.996L222.492,174.996L222.983,174.996L224.28,174.996L225.576,174.997L226.873,174.997L228.17,174.997L229.467,174.997L230.764,174.997L232.06,174.998L233.357,174.998L234.654,174.998L235.951,174.998L237.248,174.998L238.544,174.998L239.841,174.998L241.138,174.999L242.435,174.999L243.732,174.999L245.028,174.999L246.325,174.999L247.622,174.999L248.919,174.999L250.216,174.999L251.513,174.999L252.809,174.999L254.106,174.999L255.403,174.999L256.7,174.999L257.997,174.999L258.537,174.999L259.293,174.999L260.59,175L261.887,175L263.184,175L264.481,175L265.777,175L267.074,175L268.371,175L269.668,175L270.965,175L272.261,175L273.558,175L274.855,175L276.152,175L277.449,175L278.745,175L280.042,175" stroke="#59a14f" stroke-width="1.5"/></g></g><path class="foreground" aria-hidden="true" d="" display="none"/></g><g transform="translate(0,0)"><path class="background" aria-hidden="true" d="M0,0h300v200h-300Z"/><g><g class="mark-line role-mark layer_0_marks" role="graphics-object" aria-roledescription="line mark container"><path aria-label="Sera Dilution: 2e-5; Fraction Infectivity: 0.716795029644; Serum: D582Q" role="graphics-symbol" aria-roledescription="line mark" d="M21.978,85.401L23.275,87.708L24.572,90.099L25.869,92.567L27.166,95.107L28.462,97.71L29.759,100.369L31.056,103.075L32.353,105.817L33.65,108.585L34.946,111.369L36.243,114.157L37.54,116.939L38.837,119.703L40.134,122.439L41.43,125.136L42.727,127.785L43.484,129.305L44.024,130.377L45.321,132.904L46.618,135.358L47.915,137.734L49.211,140.025L50.508,142.228L51.805,144.34L53.102,146.358L54.399,148.28L55.695,150.107L56.992,151.839L58.289,153.476L59.586,155.02L60.883,156.473L62.179,157.837L63.476,159.116L64.773,160.313L66.07,161.431L67.367,162.473L68.663,163.444L69.96,164.346L71.257,165.185L72.554,165.962L73.851,166.682L75.147,167.349L76.444,167.965L77.741,168.535L79.038,169.061L79.268,169.15L80.335,169.546L81.631,169.993L82.928,170.404L84.225,170.784L85.522,171.132L86.819,171.453L88.115,171.748L89.412,172.019L90.709,172.268L92.006,172.497L93.303,172.706L94.599,172.899L95.896,173.076L97.193,173.238L98.49,173.386L99.787,173.522L101.083,173.647L102.38,173.761L103.677,173.866L104.974,173.962L106.271,174.05L107.567,174.131L108.864,174.204L110.161,174.272L111.458,174.334L112.755,174.39L114.051,174.442L115.147,174.483L115.348,174.49L116.645,174.533L117.942,174.573L119.239,174.609L120.535,174.642L121.832,174.673L123.129,174.701L124.426,174.726L125.723,174.75L127.019,174.771L128.316,174.79L129.613,174.808L130.91,174.825L132.207,174.84L133.503,174.853L134.8,174.866L136.097,174.877L137.394,174.888L138.691,174.897L139.987,174.906L141.284,174.914L142.581,174.921L143.878,174.928L145.175,174.934L146.472,174.94L147.768,174.945L149.065,174.95L150.362,174.954L150.931,174.956L151.659,174.958L152.956,174.961L154.252,174.965L155.549,174.968L156.846,174.971L158.143,174.973L159.44,174.975L160.736,174.977L162.033,174.979L163.33,174.981L164.627,174.983L165.924,174.984L167.22,174.986L168.517,174.987L169.814,174.988L171.111,174.989L172.408,174.99L173.704,174.991L175.001,174.992L176.298,174.992L177.595,174.993L178.892,174.994L180.188,174.994L181.485,174.995L182.782,174.995L184.079,174.995L185.376,174.996L186.672,174.996L186.705,174.996L187.969,174.997L189.266,174.997L190.563,174.997L191.86,174.997L193.156,174.998L194.453,174.998L195.75,174.998L197.047,174.998L198.344,174.998L199.64,174.998L200.937,174.999L202.234,174.999L203.531,174.999L204.828,174.999L206.124,174.999L207.421,174.999L208.718,174.999L210.015,174.999L211.312,174.999L212.608,174.999L213.905,174.999L215.202,174.999L216.499,175L217.796,175L219.092,175L220.389,175L221.686,175L222.492,175L222.983,175L224.28,175L225.576,175L226.873,175L228.17,175L229.467,175L230.764,175L232.06,175L233.357,175L234.654,175L235.951,175L237.248,175L238.544,175L239.841,175L241.138,175L242.435,175L243.732,175L245.028,175L246.325,175L247.622,175L248.919,175L250.216,175L251.513,175L252.809,175L254.106,175L255.403,175L256.7,175L257.997,175L258.537,175L259.293,175L260.59,175L261.887,175L263.184,175L264.481,175L265.777,175L267.074,175L268.371,175L269.668,175L270.965,175L272.261,175L273.558,175L274.855,175L276.152,175L277.449,175L278.745,175L280.042,175" stroke="#4e79a7" stroke-width="1.5"/></g></g><path class="foreground" aria-hidden="true" d="" display="none"/></g><g transform="translate(0,0)"><path class="background" aria-hidden="true" d="M0,0h300v200h-300Z"/><g><g class="mark-line role-mark layer_0_marks" role="graphics-object" aria-roledescription="line mark container"><path aria-label="Sera Dilution: 2e-5; Fraction Infectivity: 0.674202946978; Serum: WT" role="graphics-symbol" aria-roledescription="line mark" d="M21.978,90.725L23.275,92.938L24.572,95.207L25.869,97.526L27.166,99.89L28.462,102.292L29.759,104.726L31.056,107.184L32.353,109.658L33.65,112.141L34.946,114.626L36.243,117.104L37.54,119.567L38.837,122.008L40.134,124.42L41.43,126.796L42.727,129.129L43.484,130.468L44.024,131.413L45.321,133.643L46.618,135.813L47.915,137.92L49.211,139.961L50.508,141.931L51.805,143.828L53.102,145.652L54.399,147.4L55.695,149.073L56.992,150.669L58.289,152.19L59.586,153.635L60.883,155.008L62.179,156.307L63.476,157.537L64.773,158.698L66.07,159.793L67.367,160.823L68.663,161.793L69.96,162.703L71.257,163.557L72.554,164.357L73.851,165.107L75.147,165.807L76.444,166.462L77.741,167.073L79.038,167.644L79.268,167.741L80.335,168.175L81.631,168.671L82.928,169.132L84.225,169.561L85.522,169.96L86.819,170.331L88.115,170.676L89.412,170.996L90.709,171.293L92.006,171.568L93.303,171.824L94.599,172.061L95.896,172.281L97.193,172.485L98.49,172.673L99.787,172.848L101.083,173.01L102.38,173.16L103.677,173.299L104.974,173.427L106.271,173.546L107.567,173.656L108.864,173.758L110.161,173.852L111.458,173.939L112.755,174.019L114.051,174.094L115.147,174.152L115.348,174.163L116.645,174.226L117.942,174.285L119.239,174.339L120.535,174.39L121.832,174.436L123.129,174.479L124.426,174.519L125.723,174.555L127.019,174.589L128.316,174.621L129.613,174.649L130.91,174.676L132.207,174.701L133.503,174.724L134.8,174.745L136.097,174.764L137.394,174.782L138.691,174.799L139.987,174.814L141.284,174.828L142.581,174.842L143.878,174.854L145.175,174.865L146.472,174.875L147.768,174.885L149.065,174.893L150.362,174.902L150.931,174.905L151.659,174.909L152.956,174.916L154.252,174.922L155.549,174.928L156.846,174.934L158.143,174.939L159.44,174.944L160.736,174.948L162.033,174.952L163.33,174.956L164.627,174.959L165.924,174.962L167.22,174.965L168.517,174.968L169.814,174.97L171.111,174.972L172.408,174.975L173.704,174.976L175.001,174.978L176.298,174.98L177.595,174.981L178.892,174.983L180.188,174.984L181.485,174.985L182.782,174.987L184.079,174.988L185.376,174.989L186.672,174.989L186.705,174.989L187.969,174.99L189.266,174.991L190.563,174.992L191.86,174.992L193.156,174.993L194.453,174.993L195.75,174.994L197.047,174.994L198.344,174.995L199.64,174.995L200.937,174.996L202.234,174.996L203.531,174.996L204.828,174.997L206.124,174.997L207.421,174.997L208.718,174.997L210.015,174.997L211.312,174.998L212.608,174.998L213.905,174.998L215.202,174.998L216.499,174.998L217.796,174.998L219.092,174.999L220.389,174.999L221.686,174.999L222.492,174.999L222.983,174.999L224.28,174.999L225.576,174.999L226.873,174.999L228.17,174.999L229.467,174.999L230.764,174.999L232.06,174.999L233.357,174.999L234.654,174.999L235.951,174.999L237.248,175L238.544,175L239.841,175L241.138,175L242.435,175L243.732,175L245.028,175L246.325,175L247.622,175L248.919,175L250.216,175L251.513,175L252.809,175L254.106,175L255.403,175L256.7,175L257.997,175L258.537,175L259.293,175L260.59,175L261.887,175L263.184,175L264.481,175L265.777,175L267.074,175L268.371,175L269.668,175L270.965,175L272.261,175L273.558,175L274.855,175L276.152,175L277.449,175L278.745,175L280.042,175" stroke="#edc949" stroke-width="1.5"/></g></g><path class="foreground" aria-hidden="true" d="" display="none"/></g><g transform="translate(0,0)"><path class="background" aria-hidden="true" d="M0,0h300v200h-300Z"/><g><g class="mark-line role-mark layer_0_marks" role="graphics-object" aria-roledescription="line mark container"><path aria-label="Sera Dilution: 2e-5; Fraction Infectivity: 0.998223694928; Serum: Y171G" role="graphics-symbol" aria-roledescription="line mark" d="M21.978,50.222L23.275,50.248L24.572,50.276L25.869,50.308L27.166,50.343L28.462,50.382L29.759,50.426L31.056,50.475L32.353,50.529L33.65,50.59L34.946,50.658L36.243,50.733L37.54,50.817L38.837,50.91L40.134,51.014L41.43,51.129L42.727,51.258L43.484,51.34L44.024,51.401L45.321,51.56L46.618,51.737L47.915,51.934L49.211,52.153L50.508,52.396L51.805,52.666L53.102,52.965L54.399,53.298L55.695,53.666L56.992,54.074L58.289,54.526L59.586,55.026L60.883,55.579L62.179,56.189L63.476,56.862L64.773,57.603L66.07,58.419L67.367,59.316L68.663,60.3L69.96,61.377L71.257,62.555L72.554,63.84L73.851,65.238L75.147,66.757L76.444,68.401L77.741,70.177L79.038,72.089L79.268,72.442L80.335,74.14L81.631,76.332L82.928,78.668L84.225,81.145L85.522,83.761L86.819,86.511L88.115,89.389L89.412,92.385L90.709,95.487L92.006,98.683L93.303,101.957L94.599,105.291L95.896,108.667L97.193,112.067L98.49,115.468L99.787,118.852L101.083,122.199L102.38,125.49L103.677,128.707L104.974,131.835L106.271,134.859L107.567,137.768L108.864,140.551L110.161,143.202L111.458,145.715L112.755,148.086L114.051,150.315L115.147,152.088L115.348,152.402L116.645,154.349L117.942,156.159L119.239,157.836L120.535,159.387L121.832,160.815L123.129,162.128L124.426,163.333L125.723,164.435L127.019,165.442L128.316,166.36L129.613,167.196L130.91,167.956L132.207,168.646L133.503,169.272L134.8,169.838L136.097,170.351L137.394,170.815L138.691,171.234L139.987,171.612L141.284,171.953L142.581,172.261L143.878,172.538L145.175,172.787L146.472,173.012L147.768,173.214L149.065,173.396L150.362,173.56L150.931,173.626L151.659,173.707L152.956,173.839L154.252,173.958L155.549,174.065L156.846,174.161L158.143,174.247L159.44,174.324L160.736,174.393L162.033,174.456L163.33,174.512L164.627,174.562L165.924,174.607L167.22,174.647L168.517,174.684L169.814,174.716L171.111,174.746L172.408,174.772L173.704,174.795L175.001,174.816L176.298,174.835L177.595,174.852L178.892,174.867L180.188,174.881L181.485,174.893L182.782,174.904L184.079,174.914L185.376,174.923L186.672,174.931L186.705,174.931L187.969,174.938L189.266,174.945L190.563,174.95L191.86,174.955L193.156,174.96L194.453,174.964L195.75,174.968L197.047,174.971L198.344,174.974L199.64,174.977L200.937,174.979L202.234,174.981L203.531,174.983L204.828,174.985L206.124,174.987L207.421,174.988L208.718,174.989L210.015,174.99L211.312,174.991L212.608,174.992L213.905,174.993L215.202,174.994L216.499,174.994L217.796,174.995L219.092,174.995L220.389,174.996L221.686,174.996L222.492,174.997L222.983,174.997L224.28,174.997L225.576,174.997L226.873,174.998L228.17,174.998L229.467,174.998L230.764,174.998L232.06,174.998L233.357,174.999L234.654,174.999L235.951,174.999L237.248,174.999L238.544,174.999L239.841,174.999L241.138,174.999L242.435,174.999L243.732,174.999L245.028,174.999L246.325,175L247.622,175L248.919,175L250.216,175L251.513,175L252.809,175L254.106,175L255.403,175L256.7,175L257.997,175L258.537,175L259.293,175L260.59,175L261.887,175L263.184,175L264.481,175L265.777,175L267.074,175L268.371,175L269.668,175L270.965,175L272.261,175L273.558,175L274.855,175L276.152,175L277.449,175L278.745,175L280.042,175" stroke="#af7aa1" stroke-width="1.5"/></g></g><path class="foreground" aria-hidden="true" d="" display="none"/></g><g transform="translate(0,0)"><path class="background" aria-hidden="true" d="M0,0h300v200h-300Z"/><g><g class="mark-line role-mark layer_0_marks" role="graphics-object" aria-roledescription="line mark container"><path aria-label="Sera Dilution: 2e-5; Fraction Infectivity: 0.784479307183; Serum: K199W/K386D/D582Q" role="graphics-symbol" aria-roledescription="line mark" d="M21.978,76.94L23.275,77.842L24.572,78.766L25.869,79.71L27.166,80.676L28.462,81.663L29.759,82.671L31.056,83.699L32.353,84.747L33.65,85.815L34.946,86.902L36.243,88.009L37.54,89.134L38.837,90.276L40.134,91.436L41.43,92.613L42.727,93.805L43.484,94.508L44.024,95.013L45.321,96.235L46.618,97.47L47.915,98.718L49.211,99.978L50.508,101.248L51.805,102.528L53.102,103.817L54.399,105.113L55.695,106.416L56.992,107.724L58.289,109.036L59.586,110.352L60.883,111.669L62.179,112.987L63.476,114.305L64.773,115.621L66.07,116.934L67.367,118.243L68.663,119.548L69.96,120.846L71.257,122.136L72.554,123.419L73.851,124.692L75.147,125.954L76.444,127.205L77.741,128.444L79.038,129.67L79.268,129.886L80.335,130.881L81.631,132.078L82.928,133.259L84.225,134.423L85.522,135.57L86.819,136.7L88.115,137.811L89.412,138.903L90.709,139.977L92.006,141.03L93.303,142.063L94.599,143.076L95.896,144.068L97.193,145.04L98.49,145.99L99.787,146.919L101.083,147.827L102.38,148.713L103.677,149.578L104.974,150.421L106.271,151.244L107.567,152.045L108.864,152.825L110.161,153.584L111.458,154.322L112.755,155.039L114.051,155.737L115.147,156.31L115.348,156.414L116.645,157.072L117.942,157.71L119.239,158.329L120.535,158.929L121.832,159.51L123.129,160.073L124.426,160.619L125.723,161.147L127.019,161.658L128.316,162.153L129.613,162.631L130.91,163.093L132.207,163.54L133.503,163.971L134.8,164.388L136.097,164.791L137.394,165.179L138.691,165.554L139.987,165.916L141.284,166.265L142.581,166.601L143.878,166.926L145.175,167.239L146.472,167.54L147.768,167.831L149.065,168.11L150.362,168.38L150.931,168.495L151.659,168.639L152.956,168.889L154.252,169.13L155.549,169.361L156.846,169.584L158.143,169.798L159.44,170.005L160.736,170.203L162.033,170.394L163.33,170.577L164.627,170.754L165.924,170.924L167.22,171.087L168.517,171.243L169.814,171.394L171.111,171.539L172.408,171.678L173.704,171.812L175.001,171.94L176.298,172.064L177.595,172.182L178.892,172.296L180.188,172.405L181.485,172.51L182.782,172.611L184.079,172.708L185.376,172.801L186.672,172.89L186.705,172.893L187.969,172.976L189.266,173.058L190.563,173.137L191.86,173.213L193.156,173.286L194.453,173.356L195.75,173.423L197.047,173.487L198.344,173.549L199.64,173.608L200.937,173.665L202.234,173.72L203.531,173.772L204.828,173.822L206.124,173.871L207.421,173.917L208.718,173.961L210.015,174.004L211.312,174.045L212.608,174.084L213.905,174.121L215.202,174.157L216.499,174.192L217.796,174.225L219.092,174.257L220.389,174.287L221.686,174.317L222.492,174.334L222.983,174.345L224.28,174.372L225.576,174.398L226.873,174.422L228.17,174.446L229.467,174.469L230.764,174.491L232.06,174.512L233.357,174.532L234.654,174.551L235.951,174.569L237.248,174.587L238.544,174.604L239.841,174.62L241.138,174.636L242.435,174.651L243.732,174.665L245.028,174.679L246.325,174.692L247.622,174.705L248.919,174.717L250.216,174.729L251.513,174.74L252.809,174.751L254.106,174.761L255.403,174.771L256.7,174.78L257.997,174.789L258.537,174.793L259.293,174.798L260.59,174.806L261.887,174.814L263.184,174.822L264.481,174.829L265.777,174.836L267.074,174.843L268.371,174.85L269.668,174.856L270.965,174.862L272.261,174.868L273.558,174.873L274.855,174.878L276.152,174.883L277.449,174.888L278.745,174.893L280.042,174.897" stroke="#e15759" stroke-width="1.5"/></g></g><path class="foreground" aria-hidden="true" d="" display="none"/></g></g><g class="mark-symbol role-mark layer_1_marks" role="graphics-object" aria-roledescription="symbol mark container"><path aria-label="Sera Dilution: 4e-5; Fraction Infectivity: 0.598413234; Serum: K199W" role="graphics-symbol" aria-roledescription="circle" transform="translate(43.483769746260776,100.19834574999997)" d="M3.162,0A3.162,3.162,0,1,1,-3.162,0A3.162,3.162,0,1,1,3.162,0" fill="#f28e2c" stroke-width="2" opacity="1"/><path aria-label="Sera Dilution: 1e-4; Fraction Infectivity: 0.2252194465; Serum: K199W" role="graphics-symbol" aria-roledescription="circle" transform="translate(79.26786385023544,146.8475691875)" d="M3.162,0A3.162,3.162,0,1,1,-3.162,0A3.162,3.162,0,1,1,3.162,0" fill="#f28e2c" stroke-width="2" opacity="1"/><path aria-label="Sera Dilution: 3e-4; Fraction Infectivity: −0.002655638; Serum: K199W" role="graphics-symbol" aria-roledescription="circle" transform="translate(115.14705900320779,175.33195475)" d="M3.162,0A3.162,3.162,0,1,1,-3.162,0A3.162,3.162,0,1,1,3.162,0" fill="#f28e2c" stroke-width="2" opacity="1"/><path aria-label="Sera Dilution: 1e-3; Fraction Infectivity: −0.0107376775; Serum: K199W" role="graphics-symbol" aria-roledescription="circle" transform="translate(150.93115310718247,176.34220968749997)" d="M3.162,0A3.162,3.162,0,1,1,-3.162,0A3.162,3.162,0,1,1,3.162,0" fill="#f28e2c" stroke-width="2" opacity="1"/><path aria-label="Sera Dilution: 3e-3; Fraction Infectivity: −0.0095914925; Serum: K199W" role="graphics-symbol" aria-roledescription="circle" transform="translate(186.7046941295347,176.1989365625)" d="M3.162,0A3.162,3.162,0,1,1,-3.162,0A3.162,3.162,0,1,1,3.162,0" fill="#f28e2c" stroke-width="2" opacity="1"/><path aria-label="Sera Dilution: 9e-3; Fraction Infectivity: −0.00978393; Serum: K199W" role="graphics-symbol" aria-roledescription="circle" transform="translate(222.4923063072983,176.22299125)" d="M3.162,0A3.162,3.162,0,1,1,-3.162,0A3.162,3.162,0,1,1,3.162,0" fill="#f28e2c" stroke-width="2" opacity="1"/><path aria-label="Sera Dilution: 3e-2; Fraction Infectivity: −0.006603646; Serum: K199W" role="graphics-symbol" aria-roledescription="circle" transform="translate(258.53685235066644,175.82545575)" d="M3.162,0A3.162,3.162,0,1,1,-3.162,0A3.162,3.162,0,1,1,3.162,0" fill="#f28e2c" stroke-width="2" opacity="1"/><path aria-label="Sera Dilution: 4e-5; Fraction Infectivity: 0.5118367625; Serum: K386D" role="graphics-symbol" aria-roledescription="circle" transform="translate(43.483769746260776,111.02040468749999)" d="M3.162,0A3.162,3.162,0,1,1,-3.162,0A3.162,3.162,0,1,1,3.162,0" fill="#76b7b2" stroke-width="2" opacity="1"/><path aria-label="Sera Dilution: 1e-4; Fraction Infectivity: 0.224900007; Serum: K386D" role="graphics-symbol" aria-roledescription="circle" transform="translate(79.26786385023544,146.88749912499998)" d="M3.162,0A3.162,3.162,0,1,1,-3.162,0A3.162,3.162,0,1,1,3.162,0" fill="#76b7b2" stroke-width="2" opacity="1"/><path aria-label="Sera Dilution: 3e-4; Fraction Infectivity: 0.010922556; Serum: K386D" role="graphics-symbol" aria-roledescription="circle" transform="translate(115.14705900320779,173.6346805)" d="M3.162,0A3.162,3.162,0,1,1,-3.162,0A3.162,3.162,0,1,1,3.162,0" fill="#76b7b2" stroke-width="2" opacity="1"/><path aria-label="Sera Dilution: 1e-3; Fraction Infectivity: −0.005105307; Serum: K386D" role="graphics-symbol" aria-roledescription="circle" transform="translate(150.93115310718247,175.638163375)" d="M3.162,0A3.162,3.162,0,1,1,-3.162,0A3.162,3.162,0,1,1,3.162,0" fill="#76b7b2" stroke-width="2" opacity="1"/><path aria-label="Sera Dilution: 3e-3; Fraction Infectivity: −0.00474138; Serum: K386D" role="graphics-symbol" aria-roledescription="circle" transform="translate(186.7046941295347,175.5926725)" d="M3.162,0A3.162,3.162,0,1,1,-3.162,0A3.162,3.162,0,1,1,3.162,0" fill="#76b7b2" stroke-width="2" opacity="1"/><path aria-label="Sera Dilution: 9e-3; Fraction Infectivity: −0.0053634975; Serum: K386D" role="graphics-symbol" aria-roledescription="circle" transform="translate(222.4923063072983,175.6704371875)" d="M3.162,0A3.162,3.162,0,1,1,-3.162,0A3.162,3.162,0,1,1,3.162,0" fill="#76b7b2" stroke-width="2" opacity="1"/><path aria-label="Sera Dilution: 3e-2; Fraction Infectivity: −0.0043985375; Serum: K386D" role="graphics-symbol" aria-roledescription="circle" transform="translate(258.53685235066644,175.5498171875)" d="M3.162,0A3.162,3.162,0,1,1,-3.162,0A3.162,3.162,0,1,1,3.162,0" fill="#76b7b2" stroke-width="2" opacity="1"/><path aria-label="Sera Dilution: 4e-5; Fraction Infectivity: 0.373719384; Serum: Q530W" role="graphics-symbol" aria-roledescription="circle" transform="translate(43.483769746260776,128.285077)" d="M3.162,0A3.162,3.162,0,1,1,-3.162,0A3.162,3.162,0,1,1,3.162,0" fill="#59a14f" stroke-width="2" opacity="1"/><path aria-label="Sera Dilution: 1e-4; Fraction Infectivity: 0.0880639215; Serum: Q530W" role="graphics-symbol" aria-roledescription="circle" transform="translate(79.26786385023544,163.9920098125)" d="M3.162,0A3.162,3.162,0,1,1,-3.162,0A3.162,3.162,0,1,1,3.162,0" fill="#59a14f" stroke-width="2" opacity="1"/><path aria-label="Sera Dilution: 3e-4; Fraction Infectivity: −0.0151957635; Serum: Q530W" role="graphics-symbol" aria-roledescription="circle" transform="translate(115.14705900320779,176.8994704375)" d="M3.162,0A3.162,3.162,0,1,1,-3.162,0A3.162,3.162,0,1,1,3.162,0" fill="#59a14f" stroke-width="2" opacity="1"/><path aria-label="Sera Dilution: 1e-3; Fraction Infectivity: −0.0245708; Serum: Q530W" role="graphics-symbol" aria-roledescription="circle" transform="translate(150.93115310718247,178.07135)" d="M3.162,0A3.162,3.162,0,1,1,-3.162,0A3.162,3.162,0,1,1,3.162,0" fill="#59a14f" stroke-width="2" opacity="1"/><path aria-label="Sera Dilution: 3e-3; Fraction Infectivity: −0.0183354845; Serum: Q530W" role="graphics-symbol" aria-roledescription="circle" transform="translate(186.7046941295347,177.29193556250002)" d="M3.162,0A3.162,3.162,0,1,1,-3.162,0A3.162,3.162,0,1,1,3.162,0" fill="#59a14f" stroke-width="2" opacity="1"/><path aria-label="Sera Dilution: 9e-3; Fraction Infectivity: −0.022321809; Serum: Q530W" role="graphics-symbol" aria-roledescription="circle" transform="translate(222.4923063072983,177.790226125)" d="M3.162,0A3.162,3.162,0,1,1,-3.162,0A3.162,3.162,0,1,1,3.162,0" fill="#59a14f" stroke-width="2" opacity="1"/><path aria-label="Sera Dilution: 3e-2; Fraction Infectivity: −0.020513127; Serum: Q530W" role="graphics-symbol" aria-roledescription="circle" transform="translate(258.53685235066644,177.564140875)" d="M3.162,0A3.162,3.162,0,1,1,-3.162,0A3.162,3.162,0,1,1,3.162,0" fill="#59a14f" stroke-width="2" opacity="1"/><path aria-label="Sera Dilution: 4e-5; Fraction Infectivity: 0.365471221; Serum: D582Q" role="graphics-symbol" aria-roledescription="circle" transform="translate(43.483769746260776,129.316097375)" d="M3.162,0A3.162,3.162,0,1,1,-3.162,0A3.162,3.162,0,1,1,3.162,0" fill="#4e79a7" stroke-width="2" opacity="1"/><path aria-label="Sera Dilution: 1e-4; Fraction Infectivity: 0.0476932905; Serum: D582Q" role="graphics-symbol" aria-roledescription="circle" transform="translate(79.26786385023544,169.0383386875)" d="M3.162,0A3.162,3.162,0,1,1,-3.162,0A3.162,3.162,0,1,1,3.162,0" fill="#4e79a7" stroke-width="2" opacity="1"/><path aria-label="Sera Dilution: 3e-4; Fraction Infectivity: −0.0001409725; Serum: D582Q" role="graphics-symbol" aria-roledescription="circle" transform="translate(115.14705900320779,175.0176215625)" d="M3.162,0A3.162,3.162,0,1,1,-3.162,0A3.162,3.162,0,1,1,3.162,0" fill="#4e79a7" stroke-width="2" opacity="1"/><path aria-label="Sera Dilution: 1e-3; Fraction Infectivity: −0.003206948; Serum: D582Q" role="graphics-symbol" aria-roledescription="circle" transform="translate(150.93115310718247,175.4008685)" d="M3.162,0A3.162,3.162,0,1,1,-3.162,0A3.162,3.162,0,1,1,3.162,0" fill="#4e79a7" stroke-width="2" opacity="1"/><path aria-label="Sera Dilution: 3e-3; Fraction Infectivity: −0.0043014155; Serum: D582Q" role="graphics-symbol" aria-roledescription="circle" transform="translate(186.7046941295347,175.5376769375)" d="M3.162,0A3.162,3.162,0,1,1,-3.162,0A3.162,3.162,0,1,1,3.162,0" fill="#4e79a7" stroke-width="2" opacity="1"/><path aria-label="Sera Dilution: 9e-3; Fraction Infectivity: −0.003277143; Serum: D582Q" role="graphics-symbol" aria-roledescription="circle" transform="translate(222.4923063072983,175.409642875)" d="M3.162,0A3.162,3.162,0,1,1,-3.162,0A3.162,3.162,0,1,1,3.162,0" fill="#4e79a7" stroke-width="2" opacity="1"/><path aria-label="Sera Dilution: 3e-2; Fraction Infectivity: −0.003448323; Serum: D582Q" role="graphics-symbol" aria-roledescription="circle" transform="translate(258.53685235066644,175.43104037499998)" d="M3.162,0A3.162,3.162,0,1,1,-3.162,0A3.162,3.162,0,1,1,3.162,0" fill="#4e79a7" stroke-width="2" opacity="1"/><path aria-label="Sera Dilution: 4e-5; Fraction Infectivity: 0.355932133; Serum: WT" role="graphics-symbol" aria-roledescription="circle" transform="translate(43.483769746260776,130.508483375)" d="M3.162,0A3.162,3.162,0,1,1,-3.162,0A3.162,3.162,0,1,1,3.162,0" fill="#edc949" stroke-width="2" opacity="1"/><path aria-label="Sera Dilution: 1e-4; Fraction Infectivity: 0.060705296; Serum: WT" role="graphics-symbol" aria-roledescription="circle" transform="translate(79.26786385023544,167.411838)" d="M3.162,0A3.162,3.162,0,1,1,-3.162,0A3.162,3.162,0,1,1,3.162,0" fill="#edc949" stroke-width="2" opacity="1"/><path aria-label="Sera Dilution: 3e-4; Fraction Infectivity: −0.0026423625; Serum: WT" role="graphics-symbol" aria-roledescription="circle" transform="translate(115.14705900320779,175.3302953125)" d="M3.162,0A3.162,3.162,0,1,1,-3.162,0A3.162,3.162,0,1,1,3.162,0" fill="#edc949" stroke-width="2" opacity="1"/><path aria-label="Sera Dilution: 1e-3; Fraction Infectivity: −0.0057568715; Serum: WT" role="graphics-symbol" aria-roledescription="circle" transform="translate(150.93115310718247,175.7196089375)" d="M3.162,0A3.162,3.162,0,1,1,-3.162,0A3.162,3.162,0,1,1,3.162,0" fill="#edc949" stroke-width="2" opacity="1"/><path aria-label="Sera Dilution: 3e-3; Fraction Infectivity: −0.005022011; Serum: WT" role="graphics-symbol" aria-roledescription="circle" transform="translate(186.7046941295347,175.627751375)" d="M3.162,0A3.162,3.162,0,1,1,-3.162,0A3.162,3.162,0,1,1,3.162,0" fill="#edc949" stroke-width="2" opacity="1"/><path aria-label="Sera Dilution: 9e-3; Fraction Infectivity: −0.004684945; Serum: WT" role="graphics-symbol" aria-roledescription="circle" transform="translate(222.4923063072983,175.585618125)" d="M3.162,0A3.162,3.162,0,1,1,-3.162,0A3.162,3.162,0,1,1,3.162,0" fill="#edc949" stroke-width="2" opacity="1"/><path aria-label="Sera Dilution: 3e-2; Fraction Infectivity: −0.004918328; Serum: WT" role="graphics-symbol" aria-roledescription="circle" transform="translate(258.53685235066644,175.614791)" d="M3.162,0A3.162,3.162,0,1,1,-3.162,0A3.162,3.162,0,1,1,3.162,0" fill="#edc949" stroke-width="2" opacity="1"/><path aria-label="Sera Dilution: 4e-5; Fraction Infectivity: 1.018379505; Serum: Y171G" role="graphics-symbol" aria-roledescription="circle" transform="translate(43.483769746260776,47.702561874999994)" d="M3.162,0A3.162,3.162,0,1,1,-3.162,0A3.162,3.162,0,1,1,3.162,0" fill="#af7aa1" stroke-width="2" opacity="1"/><path aria-label="Sera Dilution: 1e-4; Fraction Infectivity: 0.8150699095; Serum: Y171G" role="graphics-symbol" aria-roledescription="circle" transform="translate(79.26786385023544,73.1162613125)" d="M3.162,0A3.162,3.162,0,1,1,-3.162,0A3.162,3.162,0,1,1,3.162,0" fill="#af7aa1" stroke-width="2" opacity="1"/><path aria-label="Sera Dilution: 3e-4; Fraction Infectivity: 0.1876998985; Serum: Y171G" role="graphics-symbol" aria-roledescription="circle" transform="translate(115.14705900320779,151.5375126875)" d="M3.162,0A3.162,3.162,0,1,1,-3.162,0A3.162,3.162,0,1,1,3.162,0" fill="#af7aa1" stroke-width="2" opacity="1"/><path aria-label="Sera Dilution: 1e-3; Fraction Infectivity: −0.0044999425; Serum: Y171G" role="graphics-symbol" aria-roledescription="circle" transform="translate(150.93115310718247,175.5624928125)" d="M3.162,0A3.162,3.162,0,1,1,-3.162,0A3.162,3.162,0,1,1,3.162,0" fill="#af7aa1" stroke-width="2" opacity="1"/><path aria-label="Sera Dilution: 3e-3; Fraction Infectivity: −0.0082767205; Serum: Y171G" role="graphics-symbol" aria-roledescription="circle" transform="translate(186.7046941295347,176.0345900625)" d="M3.162,0A3.162,3.162,0,1,1,-3.162,0A3.162,3.162,0,1,1,3.162,0" fill="#af7aa1" stroke-width="2" opacity="1"/><path aria-label="Sera Dilution: 9e-3; Fraction Infectivity: −0.004842743; Serum: Y171G" role="graphics-symbol" aria-roledescription="circle" transform="translate(222.4923063072983,175.605342875)" d="M3.162,0A3.162,3.162,0,1,1,-3.162,0A3.162,3.162,0,1,1,3.162,0" fill="#af7aa1" stroke-width="2" opacity="1"/><path aria-label="Sera Dilution: 3e-2; Fraction Infectivity: 0.0022896495; Serum: Y171G" role="graphics-symbol" aria-roledescription="circle" transform="translate(258.53685235066644,174.71379381249997)" d="M3.162,0A3.162,3.162,0,1,1,-3.162,0A3.162,3.162,0,1,1,3.162,0" fill="#af7aa1" stroke-width="2" opacity="1"/><path aria-label="Sera Dilution: 4e-5; Fraction Infectivity: 0.5531427625; Serum: K199W/K386D/D582Q" role="graphics-symbol" aria-roledescription="circle" transform="translate(43.483769746260776,105.85715468749999)" d="M3.162,0A3.162,3.162,0,1,1,-3.162,0A3.162,3.162,0,1,1,3.162,0" fill="#e15759" stroke-width="2" opacity="1"/><path aria-label="Sera Dilution: 1e-4; Fraction Infectivity: 0.5249568185; Serum: K199W/K386D/D582Q" role="graphics-symbol" aria-roledescription="circle" transform="translate(79.26786385023544,109.3803976875)" d="M3.162,0A3.162,3.162,0,1,1,-3.162,0A3.162,3.162,0,1,1,3.162,0" fill="#e15759" stroke-width="2" opacity="1"/><path aria-label="Sera Dilution: 3e-4; Fraction Infectivity: 0.0419350325; Serum: K199W/K386D/D582Q" role="graphics-symbol" aria-roledescription="circle" transform="translate(115.14705900320779,169.7581209375)" d="M3.162,0A3.162,3.162,0,1,1,-3.162,0A3.162,3.162,0,1,1,3.162,0" fill="#e15759" stroke-width="2" opacity="1"/><path aria-label="Sera Dilution: 1e-3; Fraction Infectivity: −0.0077138445; Serum: K199W/K386D/D582Q" role="graphics-symbol" aria-roledescription="circle" transform="translate(150.93115310718247,175.96423056249998)" d="M3.162,0A3.162,3.162,0,1,1,-3.162,0A3.162,3.162,0,1,1,3.162,0" fill="#e15759" stroke-width="2" opacity="1"/><path aria-label="Sera Dilution: 3e-3; Fraction Infectivity: −0.004459345; Serum: K199W/K386D/D582Q" role="graphics-symbol" aria-roledescription="circle" transform="translate(186.7046941295347,175.557418125)" d="M3.162,0A3.162,3.162,0,1,1,-3.162,0A3.162,3.162,0,1,1,3.162,0" fill="#e15759" stroke-width="2" opacity="1"/><path aria-label="Sera Dilution: 9e-3; Fraction Infectivity: −0.004373902; Serum: K199W/K386D/D582Q" role="graphics-symbol" aria-roledescription="circle" transform="translate(222.4923063072983,175.54673775)" d="M3.162,0A3.162,3.162,0,1,1,-3.162,0A3.162,3.162,0,1,1,3.162,0" fill="#e15759" stroke-width="2" opacity="1"/><path aria-label="Sera Dilution: 3e-2; Fraction Infectivity: 0.0102525565; Serum: K199W/K386D/D582Q" role="graphics-symbol" aria-roledescription="circle" transform="translate(258.53685235066644,173.7184304375)" d="M3.162,0A3.162,3.162,0,1,1,-3.162,0A3.162,3.162,0,1,1,3.162,0" fill="#e15759" stroke-width="2" opacity="1"/></g><g class="mark-rule role-mark layer_2_marks" role="graphics-object" aria-roledescription="rule mark container"><line aria-label="concentration: 0.000038; Fraction Infectivity: 0.582714382; upper_lower: 0.614112086; virus: K199W; upper: 0.614112086; lower: 0.582714382" role="graphics-symbol" aria-roledescription="errorbar" transform="translate(43.483769746260776,102.16070225)" x2="0" y2="-3.924713000000011" stroke="#f28e2c" opacity="1"/><line aria-label="concentration: 0.000114; Fraction Infectivity: 0.217285618; upper_lower: 0.233153275; virus: K199W; upper: 0.233153275; lower: 0.217285618" role="graphics-symbol" aria-roledescription="errorbar" transform="translate(79.26786385023544,147.83929775)" x2="0" y2="-1.983457125000001" stroke="#f28e2c" opacity="1"/><line aria-label="concentration: 0.000343; Fraction Infectivity: −0.005796759; upper_lower: 0.000485483; virus: K199W; upper: 0.000485483; lower: −0.005796759" role="graphics-symbol" aria-roledescription="errorbar" transform="translate(115.14705900320779,175.724594875)" x2="0" y2="-0.7852802499999996" stroke="#f28e2c" opacity="1"/><line aria-label="concentration: 0.001029; Fraction Infectivity: −0.011343687; upper_lower: −0.010131668; virus: K199W; upper: −0.010131668; lower: −0.011343687" role="graphics-symbol" aria-roledescription="errorbar" transform="translate(150.93115310718247,176.41796087499998)" x2="0" y2="-0.15150237499997843" stroke="#f28e2c" opacity="1"/><line aria-label="concentration: 0.003086; Fraction Infectivity: −0.009750169; upper_lower: −0.009432816; virus: K199W; upper: −0.009432816; lower: −0.009750169" role="graphics-symbol" aria-roledescription="errorbar" transform="translate(186.7046941295347,176.218771125)" x2="0" y2="-0.03966912499998898" stroke="#f28e2c" opacity="1"/><line aria-label="concentration: 0.009259; Fraction Infectivity: −0.010648211; upper_lower: −0.008919649; virus: K199W; upper: −0.008919649; lower: −0.010648211" role="graphics-symbol" aria-roledescription="errorbar" transform="translate(222.4923063072983,176.331026375)" x2="0" y2="-0.21607025000000135" stroke="#f28e2c" opacity="1"/><line aria-label="concentration: 0.028; Fraction Infectivity: −0.007991222; upper_lower: −0.00521607; virus: K199W; upper: −0.00521607; lower: −0.007991222" role="graphics-symbol" aria-roledescription="errorbar" transform="translate(258.53685235066644,175.99890275)" x2="0" y2="-0.34689400000002024" stroke="#f28e2c" opacity="1"/><line aria-label="concentration: 0.000038; Fraction Infectivity: 0.472990563; upper_lower: 0.550682962; virus: K386D; upper: 0.550682962; lower: 0.472990563" role="graphics-symbol" aria-roledescription="errorbar" transform="translate(43.483769746260776,115.87617962499999)" x2="0" y2="-9.711549875000003" stroke="#76b7b2" opacity="1"/><line aria-label="concentration: 0.000114; Fraction Infectivity: 0.220468598; upper_lower: 0.229331416; virus: K386D; upper: 0.229331416; lower: 0.220468598" role="graphics-symbol" aria-roledescription="errorbar" transform="translate(79.26786385023544,147.44142524999998)" x2="0" y2="-1.1078522500000076" stroke="#76b7b2" opacity="1"/><line aria-label="concentration: 0.000343; Fraction Infectivity: 0.003556794; upper_lower: 0.018288318; virus: K386D; upper: 0.018288318; lower: 0.003556794" role="graphics-symbol" aria-roledescription="errorbar" transform="translate(115.14705900320779,174.55540075)" x2="0" y2="-1.8414405000000045" stroke="#76b7b2" opacity="1"/><line aria-label="concentration: 0.001029; Fraction Infectivity: −0.00536844; upper_lower: −0.004842174; virus: K386D; upper: −0.004842174; lower: −0.00536844" role="graphics-symbol" aria-roledescription="errorbar" transform="translate(150.93115310718247,175.671055)" x2="0" y2="-0.06578324999998131" stroke="#76b7b2" opacity="1"/><line aria-label="concentration: 0.003086; Fraction Infectivity: −0.005001797; upper_lower: −0.004480963; virus: K386D; upper: −0.004480963; lower: −0.005001797" role="graphics-symbol" aria-roledescription="errorbar" transform="translate(186.7046941295347,175.625224625)" x2="0" y2="-0.06510424999999032" stroke="#76b7b2" opacity="1"/><line aria-label="concentration: 0.009259; Fraction Infectivity: −0.005512221; upper_lower: −0.005214774; virus: K386D; upper: −0.005214774; lower: −0.005512221" role="graphics-symbol" aria-roledescription="errorbar" transform="translate(222.4923063072983,175.689027625)" x2="0" y2="-0.03718087499999001" stroke="#76b7b2" opacity="1"/><line aria-label="concentration: 0.028; Fraction Infectivity: −0.004719626; upper_lower: −0.004077449; virus: K386D; upper: −0.004077449; lower: −0.004719626" role="graphics-symbol" aria-roledescription="errorbar" transform="translate(258.53685235066644,175.58995325)" x2="0" y2="-0.08027212499999337" stroke="#76b7b2" opacity="1"/><line aria-label="concentration: 0.000038; Fraction Infectivity: 0.323066298; upper_lower: 0.42437247; virus: Q530W; upper: 0.42437247; lower: 0.323066298" role="graphics-symbol" aria-roledescription="errorbar" transform="translate(43.483769746260776,134.61671274999998)" x2="0" y2="-12.663271499999993" stroke="#59a14f" opacity="1"/><line aria-label="concentration: 0.000114; Fraction Infectivity: 0.080202429; upper_lower: 0.095925414; virus: Q530W; upper: 0.095925414; lower: 0.080202429" role="graphics-symbol" aria-roledescription="errorbar" transform="translate(79.26786385023544,164.974696375)" x2="0" y2="-1.9653731250000135" stroke="#59a14f" opacity="1"/><line aria-label="concentration: 0.000343; Fraction Infectivity: −0.020502024; upper_lower: −0.009889503; virus: Q530W; upper: −0.009889503; lower: −0.020502024" role="graphics-symbol" aria-roledescription="errorbar" transform="translate(115.14705900320779,177.562753)" x2="0" y2="-1.326565125000002" stroke="#59a14f" opacity="1"/><line aria-label="concentration: 0.001029; Fraction Infectivity: −0.02702834; upper_lower: −0.02211326; virus: Q530W; upper: −0.02211326; lower: −0.02702834" role="graphics-symbol" aria-roledescription="errorbar" transform="translate(150.93115310718247,178.3785425)" x2="0" y2="-0.6143849999999986" stroke="#59a14f" opacity="1"/><line aria-label="concentration: 0.003086; Fraction Infectivity: −0.023659919; upper_lower: −0.01301105; virus: Q530W; upper: −0.01301105; lower: −0.023659919" role="graphics-symbol" aria-roledescription="errorbar" transform="translate(186.7046941295347,177.957489875)" x2="0" y2="-1.3311086249999846" stroke="#59a14f" opacity="1"/><line aria-label="concentration: 0.009259; Fraction Infectivity: −0.022412955; upper_lower: −0.022230663; virus: Q530W; upper: −0.022230663; lower: −0.022412955" role="graphics-symbol" aria-roledescription="errorbar" transform="translate(222.4923063072983,177.80161937499997)" x2="0" y2="-0.022786499999966736" stroke="#59a14f" opacity="1"/><line aria-label="concentration: 0.028; Fraction Infectivity: −0.022234818; upper_lower: −0.018791436; virus: Q530W; upper: −0.018791436; lower: −0.022234818" role="graphics-symbol" aria-roledescription="errorbar" transform="translate(258.53685235066644,177.77935225)" x2="0" y2="-0.4304227499999911" stroke="#59a14f" opacity="1"/><line aria-label="concentration: 0.000038; Fraction Infectivity: 0.330511735; upper_lower: 0.400430707; virus: D582Q; upper: 0.400430707; lower: 0.330511735" role="graphics-symbol" aria-roledescription="errorbar" transform="translate(43.483769746260776,133.686033125)" x2="0" y2="-8.739871499999992" stroke="#4e79a7" opacity="1"/><line aria-label="concentration: 0.000114; Fraction Infectivity: 0.036924458; upper_lower: 0.058462123; virus: D582Q; upper: 0.058462123; lower: 0.036924458" role="graphics-symbol" aria-roledescription="errorbar" transform="translate(79.26786385023544,170.38444275)" x2="0" y2="-2.6922081250000076" stroke="#4e79a7" opacity="1"/><line aria-label="concentration: 0.000343; Fraction Infectivity: −0.002326536; upper_lower: 0.002044591; virus: D582Q; upper: 0.002044591; lower: −0.002326536" role="graphics-symbol" aria-roledescription="errorbar" transform="translate(115.14705900320779,175.290817)" x2="0" y2="-0.546390874999986" stroke="#4e79a7" opacity="1"/><line aria-label="concentration: 0.001029; Fraction Infectivity: −0.003415416; upper_lower: −0.00299848; virus: D582Q; upper: −0.00299848; lower: −0.003415416" role="graphics-symbol" aria-roledescription="errorbar" transform="translate(150.93115310718247,175.426927)" x2="0" y2="-0.05211700000000974" stroke="#4e79a7" opacity="1"/><line aria-label="concentration: 0.003086; Fraction Infectivity: −0.004337566; upper_lower: −0.004265265; virus: D582Q; upper: −0.004265265; lower: −0.004337566" role="graphics-symbol" aria-roledescription="errorbar" transform="translate(186.7046941295347,175.54219575)" x2="0" y2="-0.009037624999990612" stroke="#4e79a7" opacity="1"/><line aria-label="concentration: 0.009259; Fraction Infectivity: −0.003706554; upper_lower: −0.002847732; virus: D582Q; upper: −0.002847732; lower: −0.003706554" role="graphics-symbol" aria-roledescription="errorbar" transform="translate(222.4923063072983,175.46331925)" x2="0" y2="-0.1073527500000182" stroke="#4e79a7" opacity="1"/><line aria-label="concentration: 0.028; Fraction Infectivity: −0.003526998; upper_lower: −0.003369648; virus: D582Q; upper: −0.003369648; lower: −0.003526998" role="graphics-symbol" aria-roledescription="errorbar" transform="translate(258.53685235066644,175.44087474999998)" x2="0" y2="-0.019668749999993906" stroke="#4e79a7" opacity="1"/><line aria-label="concentration: 0.000038; Fraction Infectivity: 0.302875924; upper_lower: 0.408988342; virus: WT; upper: 0.408988342; lower: 0.302875924" role="graphics-symbol" aria-roledescription="errorbar" transform="translate(43.483769746260776,137.1405095)" x2="0" y2="-13.26405225000002" stroke="#edc949" opacity="1"/><line aria-label="concentration: 0.000114; Fraction Infectivity: 0.060473862; upper_lower: 0.06093673; virus: WT; upper: 0.06093673; lower: 0.060473862" role="graphics-symbol" aria-roledescription="errorbar" transform="translate(79.26786385023544,167.44076725000002)" x2="0" y2="-0.05785850000003734" stroke="#edc949" opacity="1"/><line aria-label="concentration: 0.000343; Fraction Infectivity: −0.002680362; upper_lower: −0.002604363; virus: WT; upper: −0.002604363; lower: −0.002680362" role="graphics-symbol" aria-roledescription="errorbar" transform="translate(115.14705900320779,175.33504524999998)" x2="0" y2="-0.009499874999988833" stroke="#edc949" opacity="1"/><line aria-label="concentration: 0.001029; Fraction Infectivity: −0.006429109; upper_lower: −0.005084634; virus: WT; upper: −0.005084634; lower: −0.006429109" role="graphics-symbol" aria-roledescription="errorbar" transform="translate(150.93115310718247,175.803638625)" x2="0" y2="-0.16805937499998436" stroke="#edc949" opacity="1"/><line aria-label="concentration: 0.003086; Fraction Infectivity: −0.005394885; upper_lower: −0.004649137; virus: WT; upper: −0.004649137; lower: −0.005394885" role="graphics-symbol" aria-roledescription="errorbar" transform="translate(186.7046941295347,175.674360625)" x2="0" y2="-0.09321849999997767" stroke="#edc949" opacity="1"/><line aria-label="concentration: 0.009259; Fraction Infectivity: −0.004851274; upper_lower: −0.004518616; virus: WT; upper: −0.004518616; lower: −0.004851274" role="graphics-symbol" aria-roledescription="errorbar" transform="translate(222.4923063072983,175.60640924999998)" x2="0" y2="-0.041582249999976284" stroke="#edc949" opacity="1"/><line aria-label="concentration: 0.028; Fraction Infectivity: −0.005340354; upper_lower: −0.004496302; virus: WT; upper: −0.004496302; lower: −0.005340354" role="graphics-symbol" aria-roledescription="errorbar" transform="translate(258.53685235066644,175.66754425)" x2="0" y2="-0.10550649999998996" stroke="#edc949" opacity="1"/><line aria-label="concentration: 0.000038; Fraction Infectivity: 0.719361277; upper_lower: 1.317397733; virus: Y171G; upper: 1.317397733; lower: 0.719361277" role="graphics-symbol" aria-roledescription="errorbar" transform="translate(43.483769746260776,85.079840375)" x2="0" y2="-74.754557" stroke="#af7aa1" opacity="1"/><line aria-label="concentration: 0.000114; Fraction Infectivity: 0.526147705; upper_lower: 1.103992114; virus: Y171G; upper: 1.103992114; lower: 0.526147705" role="graphics-symbol" aria-roledescription="errorbar" transform="translate(79.26786385023544,109.231536875)" x2="0" y2="-72.230551125" stroke="#af7aa1" opacity="1"/><line aria-label="concentration: 0.000343; Fraction Infectivity: 0.096247505; upper_lower: 0.279152292; virus: Y171G; upper: 0.279152292; lower: 0.096247505" role="graphics-symbol" aria-roledescription="errorbar" transform="translate(115.14705900320779,162.969061875)" x2="0" y2="-22.86309837500002" stroke="#af7aa1" opacity="1"/><line aria-label="concentration: 0.001029; Fraction Infectivity: −0.006670659; upper_lower: −0.002329226; virus: Y171G; upper: −0.002329226; lower: −0.006670659" role="graphics-symbol" aria-roledescription="errorbar" transform="translate(150.93115310718247,175.833832375)" x2="0" y2="-0.5426791249999781" stroke="#af7aa1" opacity="1"/><line aria-label="concentration: 0.003086; Fraction Infectivity: −0.009397206; upper_lower: −0.007156235; virus: Y171G; upper: −0.007156235; lower: −0.009397206" role="graphics-symbol" aria-roledescription="errorbar" transform="translate(186.7046941295347,176.17465074999998)" x2="0" y2="-0.2801213749999647" stroke="#af7aa1" opacity="1"/><line aria-label="concentration: 0.009259; Fraction Infectivity: −0.008107442; upper_lower: −0.001578044; virus: Y171G; upper: −0.001578044; lower: −0.008107442" role="graphics-symbol" aria-roledescription="errorbar" transform="translate(222.4923063072983,176.01343025)" x2="0" y2="-0.8161747499999876" stroke="#af7aa1" opacity="1"/><line aria-label="concentration: 0.028; Fraction Infectivity: 0.001147363; upper_lower: 0.003431936; virus: Y171G; upper: 0.003431936; lower: 0.001147363" role="graphics-symbol" aria-roledescription="errorbar" transform="translate(258.53685235066644,174.856579625)" x2="0" y2="-0.2855716250000171" stroke="#af7aa1" opacity="1"/><line aria-label="concentration: 0.000038; Fraction Infectivity: 0.540625; upper_lower: 0.565660525; virus: K199W/K386D/D582Q; upper: 0.565660525; lower: 0.540625" role="graphics-symbol" aria-roledescription="errorbar" transform="translate(43.483769746260776,107.42187499999997)" x2="0" y2="-3.129440625000001" stroke="#e15759" opacity="1"/><line aria-label="concentration: 0.000114; Fraction Infectivity: 0.4078125; upper_lower: 0.642101137; virus: K199W/K386D/D582Q; upper: 0.642101137; lower: 0.4078125" role="graphics-symbol" aria-roledescription="errorbar" transform="translate(79.26786385023544,124.02343749999997)" x2="0" y2="-29.28607962499997" stroke="#e15759" opacity="1"/><line aria-label="concentration: 0.000343; Fraction Infectivity: 0.037496094; upper_lower: 0.046373971; virus: K199W/K386D/D582Q; upper: 0.046373971; lower: 0.037496094" role="graphics-symbol" aria-roledescription="errorbar" transform="translate(115.14705900320779,170.31298825)" x2="0" y2="-1.1097346249999873" stroke="#e15759" opacity="1"/><line aria-label="concentration: 0.001029; Fraction Infectivity: −0.009431595; upper_lower: −0.005996094; virus: K199W/K386D/D582Q; upper: −0.005996094; lower: −0.009431595" role="graphics-symbol" aria-roledescription="errorbar" transform="translate(150.93115310718247,176.178949375)" x2="0" y2="-0.4294376249999914" stroke="#e15759" opacity="1"/><line aria-label="concentration: 0.003086; Fraction Infectivity: −0.007205018; upper_lower: −0.001713672; virus: K199W/K386D/D582Q; upper: −0.001713672; lower: −0.007205018" role="graphics-symbol" aria-roledescription="errorbar" transform="translate(186.7046941295347,175.90062724999999)" x2="0" y2="-0.6864182499999743" stroke="#e15759" opacity="1"/><line aria-label="concentration: 0.009259; Fraction Infectivity: −0.005931007; upper_lower: −0.002816797; virus: K199W/K386D/D582Q; upper: −0.002816797; lower: −0.005931007" role="graphics-symbol" aria-roledescription="errorbar" transform="translate(222.4923063072983,175.741375875)" x2="0" y2="-0.38927624999999466" stroke="#e15759" opacity="1"/><line aria-label="concentration: 0.028; Fraction Infectivity: 0.009050781; upper_lower: 0.011454332; virus: K199W/K386D/D582Q; upper: 0.011454332; lower: 0.009050781" role="graphics-symbol" aria-roledescription="errorbar" transform="translate(258.53685235066644,173.868652375)" x2="0" y2="-0.30044387500001335" stroke="#e15759" opacity="1"/></g><g class="mark-group role-legend" role="graphics-symbol" aria-roledescription="legend" aria-label="Symbol legend titled 'Serum' for fill color and stroke color with 7 values: D582Q, K199W, K199W/K386D/D582Q, K386D, Q530W, WT, Y171G"><g transform="translate(318,0)"><path class="background" aria-hidden="true" d="M0,0h169v139h-169Z" pointer-events="none"/><g><g class="mark-group role-legend-entry"><g transform="translate(5,24)"><path class="background" aria-hidden="true" d="M0,0h0v0h0Z" pointer-events="none"/><g><g class="mark-group role-scope" role="graphics-object" aria-roledescription="group mark container"><g transform="translate(0,0)"><path class="background" aria-hidden="true" d="M0,0h158.8544921875v14h-158.8544921875Z" pointer-events="none" opacity="1"/><g><g class="mark-symbol role-legend-symbol" pointer-events="none"><path transform="translate(7,7)" d="M5,0A5,5,0,1,1,-5,0A5,5,0,1,1,5,0" fill="#4e79a7" stroke="#4e79a7" stroke-width="1.5" opacity="1"/></g><g class="mark-text role-legend-label" pointer-events="none"><text text-anchor="start" transform="translate(18,11)" font-family="Helvetica" font-size="14px" fill="#000" opacity="1">D582Q</text></g></g><path class="foreground" aria-hidden="true" d="" pointer-events="none" display="none"/></g><g transform="translate(0,16)"><path class="background" aria-hidden="true" d="M0,0h158.8544921875v14h-158.8544921875Z" pointer-events="none" opacity="1"/><g><g class="mark-symbol role-legend-symbol" pointer-events="none"><path transform="translate(7,7)" d="M5,0A5,5,0,1,1,-5,0A5,5,0,1,1,5,0" fill="#f28e2c" stroke="#f28e2c" stroke-width="1.5" opacity="1"/></g><g class="mark-text role-legend-label" pointer-events="none"><text text-anchor="start" transform="translate(18,11)" font-family="Helvetica" font-size="14px" fill="#000" opacity="1">K199W</text></g></g><path class="foreground" aria-hidden="true" d="" pointer-events="none" display="none"/></g><g transform="translate(0,32)"><path class="background" aria-hidden="true" d="M0,0h158.8544921875v14h-158.8544921875Z" pointer-events="none" opacity="1"/><g><g class="mark-symbol role-legend-symbol" pointer-events="none"><path transform="translate(7,7)" d="M5,0A5,5,0,1,1,-5,0A5,5,0,1,1,5,0" fill="#e15759" stroke="#e15759" stroke-width="1.5" opacity="1"/></g><g class="mark-text role-legend-label" pointer-events="none"><text text-anchor="start" transform="translate(18,11)" font-family="Helvetica" font-size="14px" fill="#000" opacity="1">K199W/K386D/D582Q</text></g></g><path class="foreground" aria-hidden="true" d="" pointer-events="none" display="none"/></g><g transform="translate(0,48)"><path class="background" aria-hidden="true" d="M0,0h158.8544921875v14h-158.8544921875Z" pointer-events="none" opacity="1"/><g><g class="mark-symbol role-legend-symbol" pointer-events="none"><path transform="translate(7,7)" d="M5,0A5,5,0,1,1,-5,0A5,5,0,1,1,5,0" fill="#76b7b2" stroke="#76b7b2" stroke-width="1.5" opacity="1"/></g><g class="mark-text role-legend-label" pointer-events="none"><text text-anchor="start" transform="translate(18,11)" font-family="Helvetica" font-size="14px" fill="#000" opacity="1">K386D</text></g></g><path class="foreground" aria-hidden="true" d="" pointer-events="none" display="none"/></g><g transform="translate(0,64)"><path class="background" aria-hidden="true" d="M0,0h158.8544921875v14h-158.8544921875Z" pointer-events="none" opacity="1"/><g><g class="mark-symbol role-legend-symbol" pointer-events="none"><path transform="translate(7,7)" d="M5,0A5,5,0,1,1,-5,0A5,5,0,1,1,5,0" fill="#59a14f" stroke="#59a14f" stroke-width="1.5" opacity="1"/></g><g class="mark-text role-legend-label" pointer-events="none"><text text-anchor="start" transform="translate(18,11)" font-family="Helvetica" font-size="14px" fill="#000" opacity="1">Q530W</text></g></g><path class="foreground" aria-hidden="true" d="" pointer-events="none" display="none"/></g><g transform="translate(0,80)"><path class="background" aria-hidden="true" d="M0,0h158.8544921875v14h-158.8544921875Z" pointer-events="none" opacity="1"/><g><g class="mark-symbol role-legend-symbol" pointer-events="none"><path transform="translate(7,7)" d="M5,0A5,5,0,1,1,-5,0A5,5,0,1,1,5,0" fill="#edc949" stroke="#edc949" stroke-width="1.5" opacity="1"/></g><g class="mark-text role-legend-label" pointer-events="none"><text text-anchor="start" transform="translate(18,11)" font-family="Helvetica" font-size="14px" fill="#000" opacity="1">WT</text></g></g><path class="foreground" aria-hidden="true" d="" pointer-events="none" display="none"/></g><g transform="translate(0,96)"><path class="background" aria-hidden="true" d="M0,0h158.8544921875v14h-158.8544921875Z" pointer-events="none" opacity="1"/><g><g class="mark-symbol role-legend-symbol" pointer-events="none"><path transform="translate(7,7)" d="M5,0A5,5,0,1,1,-5,0A5,5,0,1,1,5,0" fill="#af7aa1" stroke="#af7aa1" stroke-width="1.5" opacity="1"/></g><g class="mark-text role-legend-label" pointer-events="none"><text text-anchor="start" transform="translate(18,11)" font-family="Helvetica" font-size="14px" fill="#000" opacity="1">Y171G</text></g></g><path class="foreground" aria-hidden="true" d="" pointer-events="none" display="none"/></g></g></g><path class="foreground" aria-hidden="true" d="" pointer-events="none" display="none"/></g></g><g class="mark-text role-legend-title" pointer-events="none"><text text-anchor="start" transform="translate(5,16)" font-family="Helvetica" font-size="14px" font-weight="bold" fill="#000" opacity="1">Serum</text></g></g><path class="foreground" aria-hidden="true" d="" pointer-events="none" display="none"/></g></g></g><path class="foreground" aria-hidden="true" d="" display="none"/></g></g></g></svg>