<svg xmlns="http://www.w3.org/2000/svg" xmlns:xlink="http://www.w3.org/1999/xlink" version="1.1" class="marks" width="462" height="249" viewBox="0 0 462 249"><rect width="462" height="249" fill="white"/><g fill="none" stroke-miterlimit="10" transform="translate(50,5)"><g class="mark-group role-frame root" role="graphics-object" aria-roledescription="group mark container"><g transform="translate(0,0)"><path class="background" aria-hidden="true" d="M0,0h300v200h-300Z" stroke-width="0"/><g><g class="mark-group role-axis" role="graphics-symbol" aria-roledescription="axis" aria-label="X-axis titled 'Sera Dilution' for a log scale with values from 1e-5 to 1e-1"><g transform="translate(0.5,200.5)"><path class="background" aria-hidden="true" d="M0,0h0v0h0Z" pointer-events="none"/><g><g class="mark-rule role-axis-tick" pointer-events="none"><line transform="translate(0,0)" x2="0" y2="4" stroke="black" stroke-width="1" opacity="1"/><line transform="translate(75,0)" x2="0" y2="4" stroke="black" stroke-width="1" opacity="1"/><line transform="translate(150,0)" x2="0" y2="4" stroke="black" stroke-width="1" opacity="1"/><line transform="translate(225,0)" x2="0" y2="4" stroke="black" stroke-width="1" opacity="1"/><line transform="translate(300,0)" x2="0" y2="4" stroke="black" stroke-width="1" opacity="1"/></g><g class="mark-text role-axis-label" pointer-events="none"><text text-anchor="middle" transform="translate(0,17)" font-family="Helvetica" font-size="14px" font-weight="normal" fill="#000" opacity="1">1e-5</text><text text-anchor="middle" transform="translate(75.00000000000003,17)" font-family="Helvetica" font-size="14px" font-weight="normal" fill="#000" opacity="1">1e-4</text><text text-anchor="middle" transform="translate(150,17)" font-family="Helvetica" font-size="14px" font-weight="normal" fill="#000" opacity="1">1e-3</text><text text-anchor="middle" transform="translate(225,17)" font-family="Helvetica" font-size="14px" font-weight="normal" fill="#000" opacity="1">1e-2</text><text text-anchor="middle" transform="translate(300,17)" font-family="Helvetica" font-size="14px" font-weight="normal" fill="#000" opacity="1">1e-1</text></g><g class="mark-rule role-axis-domain" pointer-events="none"><line transform="translate(0,0)" x2="300" y2="0" stroke="black" stroke-width="1" opacity="1"/></g><g class="mark-text role-axis-title" pointer-events="none"><text text-anchor="middle" transform="translate(150,36)" font-family="Helvetica" font-size="14px" font-weight="bold" fill="#000" opacity="1">Sera Dilution</text></g></g><path class="foreground" aria-hidden="true" d="" pointer-events="none" display="none"/></g></g><g class="mark-group role-axis" role="graphics-symbol" aria-roledescription="axis" aria-label="Y-axis titled 'Fraction Infectivity' for a linear scale with values from −0.1 to 0.9"><g transform="translate(0.5,0.5)"><path class="background" aria-hidden="true" d="M0,0h0v0h0Z" pointer-events="none"/><g><g class="mark-rule role-axis-tick" pointer-events="none"><line transform="translate(0,180)" x2="-4" y2="0" stroke="black" stroke-width="1" opacity="1"/><line transform="translate(0,140)" x2="-4" y2="0" stroke="black" stroke-width="1" opacity="1"/><line transform="translate(0,100)" x2="-4" y2="0" stroke="black" stroke-width="1" opacity="1"/><line transform="translate(0,60)" x2="-4" y2="0" stroke="black" stroke-width="1" opacity="1"/><line transform="translate(0,20)" x2="-4" y2="0" stroke="black" stroke-width="1" opacity="1"/></g><g class="mark-text role-axis-label" pointer-events="none"><text text-anchor="end" transform="translate(-6,184)" font-family="Helvetica" font-size="14px" font-weight="normal" fill="#000" opacity="1">0.0</text><text text-anchor="end" transform="translate(-6,144)" font-family="Helvetica" font-size="14px" font-weight="normal" fill="#000" opacity="1">0.2</text><text text-anchor="end" transform="translate(-6,104)" font-family="Helvetica" font-size="14px" font-weight="normal" fill="#000" opacity="1">0.4</text><text text-anchor="end" transform="translate(-6,64)" font-family="Helvetica" font-size="14px" font-weight="normal" fill="#000" opacity="1">0.6</text><text text-anchor="end" transform="translate(-6,23.999999999999996)" font-family="Helvetica" font-size="14px" font-weight="normal" fill="#000" opacity="1">0.8</text></g><g class="mark-rule role-axis-domain" pointer-events="none"><line transform="translate(0,200)" x2="0" y2="-200" stroke="black" stroke-width="1" opacity="1"/></g><g class="mark-text role-axis-title" pointer-events="none"><text text-anchor="middle" transform="translate(-30.4619140625,100) rotate(-90) translate(0,-3)" font-family="Helvetica" font-size="14px" font-weight="bold" fill="#000" opacity="1">Fraction Infectivity</text></g></g><path class="foreground" aria-hidden="true" d="" pointer-events="none" display="none"/></g></g><g class="mark-group role-scope layer_0_pathgroup" role="graphics-object" aria-roledescription="group mark container"><g transform="translate(0,0)"><path class="background" aria-hidden="true" d="M0,0h300v200h-300Z"/><g><g class="mark-line role-mark layer_0_marks" role="graphics-object" aria-roledescription="line mark container"><path aria-label="Sera Dilution: 2e-5; Fraction Infectivity: 0.480679516965; Serum: mRNA" role="graphics-symbol" aria-roledescription="line mark" d="M21.978,83.864L23.275,89.185L24.572,94.455L25.869,99.643L27.166,104.724L28.462,109.673L29.759,114.467L31.056,119.088L32.353,123.519L33.65,127.75L34.946,131.77L36.243,135.574L37.54,139.158L38.837,142.523L40.134,145.671L41.43,148.605L42.727,151.332L43.484,152.83L44.024,153.859L45.321,156.194L46.618,158.346L47.915,160.326L49.211,162.142L50.508,163.806L51.805,165.328L53.102,166.717L54.399,167.982L55.695,169.135L56.992,170.182L58.289,171.134L59.586,171.997L60.883,172.779L62.179,173.487L63.476,174.128L64.773,174.708L66.07,175.231L67.367,175.705L68.663,176.132L69.96,176.517L71.257,176.865L72.554,177.178L73.851,177.461L75.147,177.715L76.444,177.944L77.741,178.151L79.038,178.337L79.268,178.368L80.335,178.504L81.631,178.655L82.928,178.79L84.225,178.912L85.522,179.022L86.819,179.121L88.115,179.21L89.412,179.289L90.709,179.361L92.006,179.426L93.303,179.484L94.599,179.536L95.896,179.583L97.193,179.625L98.49,179.663L99.787,179.697L101.083,179.728L102.38,179.755L103.677,179.78L104.974,179.802L106.271,179.823L107.567,179.84L108.864,179.857L110.161,179.871L111.458,179.884L112.755,179.896L114.051,179.907L115.147,179.915L115.348,179.916L116.645,179.924L117.942,179.932L119.239,179.939L120.535,179.945L121.832,179.951L123.129,179.956L124.426,179.96L125.723,179.964L127.019,179.968L128.316,179.971L129.613,179.974L130.91,179.977L132.207,179.979L133.503,179.981L134.8,179.983L136.097,179.985L137.394,179.986L138.691,179.988L139.987,179.989L141.284,179.99L142.581,179.991L143.878,179.992L145.175,179.993L146.472,179.994L147.768,179.994L149.065,179.995L150.362,179.995L150.931,179.996L151.659,179.996L152.956,179.996L154.252,179.997L155.549,179.997L156.846,179.997L158.143,179.998L159.44,179.998L160.736,179.998L162.033,179.998L163.33,179.998L164.627,179.999L165.924,179.999L167.22,179.999L168.517,179.999L169.814,179.999L171.111,179.999L172.408,179.999L173.704,179.999L175.001,179.999L176.298,179.999L177.595,180L178.892,180L180.188,180L181.485,180L182.782,180L184.079,180L185.376,180L186.672,180L186.705,180L187.969,180L189.266,180L190.563,180L191.86,180L193.156,180L194.453,180L195.75,180L197.047,180L198.344,180L199.64,180L200.937,180L202.234,180L203.531,180L204.828,180L206.124,180L207.421,180L208.718,180L210.015,180L211.312,180L212.608,180L213.905,180L215.202,180L216.499,180L217.796,180L219.092,180L220.389,180L221.686,180L222.492,180L222.983,180L224.28,180L225.576,180L226.873,180L228.17,180L229.467,180L230.764,180L232.06,180L233.357,180L234.654,180L235.951,180L237.248,180L238.544,180L239.841,180L241.138,180L242.435,180L243.732,180L245.028,180L246.325,180L247.622,180L248.919,180L250.216,180L251.513,180L252.809,180L254.106,180L255.403,180L256.7,180L257.997,180L258.537,180L259.293,180L260.59,180L261.887,180L263.184,180L264.481,180L265.777,180L267.074,180L268.371,180L269.668,180L270.965,180L272.261,180L273.558,180L274.855,180L276.152,180L277.449,180L278.745,180L280.042,180" stroke="#76b7b2" stroke-width="1.5"/></g></g><path class="foreground" aria-hidden="true" d="" display="none"/></g><g transform="translate(0,0)"><path class="background" aria-hidden="true" d="M0,0h300v200h-300Z"/><g><g class="mark-line role-mark layer_0_marks" role="graphics-object" aria-roledescription="line mark container"><path aria-label="Sera Dilution: 2e-5; Fraction Infectivity: 0.782122333644; Serum: NiV-sG" role="graphics-symbol" aria-roledescription="line mark" d="M21.978,23.576L23.275,26.954L24.572,30.509L25.869,34.239L27.166,38.137L28.462,42.195L29.759,46.404L31.056,50.752L32.353,55.224L33.65,59.804L34.946,64.474L36.243,69.215L37.54,74.005L38.837,78.823L40.134,83.647L41.43,88.453L42.727,93.221L43.484,95.975L44.024,97.928L45.321,102.554L46.618,107.081L47.915,111.491L49.211,115.77L50.508,119.903L51.805,123.88L53.102,127.692L54.399,131.333L55.695,134.799L56.992,138.085L58.289,141.193L59.586,144.123L60.883,146.876L62.179,149.458L63.476,151.873L64.773,154.125L66.07,156.223L67.367,158.171L68.663,159.978L69.96,161.651L71.257,163.197L72.554,164.624L73.851,165.939L75.147,167.15L76.444,168.262L77.741,169.284L79.038,170.222L79.268,170.38L80.335,171.081L81.631,171.868L82.928,172.589L84.225,173.248L85.522,173.85L86.819,174.4L88.115,174.902L89.412,175.36L90.709,175.778L92.006,176.159L93.303,176.506L94.599,176.822L95.896,177.11L97.193,177.373L98.49,177.611L99.787,177.829L101.083,178.027L102.38,178.206L103.677,178.37L104.974,178.519L106.271,178.654L107.567,178.777L108.864,178.889L110.161,178.991L111.458,179.083L112.755,179.167L114.051,179.244L115.147,179.303L115.348,179.313L116.645,179.376L117.942,179.433L119.239,179.485L120.535,179.532L121.832,179.575L123.129,179.614L124.426,179.65L125.723,179.682L127.019,179.711L128.316,179.738L129.613,179.762L130.91,179.784L132.207,179.804L133.503,179.822L134.8,179.838L136.097,179.853L137.394,179.866L138.691,179.879L139.987,179.89L141.284,179.9L142.581,179.909L143.878,179.918L145.175,179.925L146.472,179.932L147.768,179.938L149.065,179.944L150.362,179.949L150.931,179.951L151.659,179.954L152.956,179.958L154.252,179.962L155.549,179.965L156.846,179.969L158.143,179.971L159.44,179.974L160.736,179.976L162.033,179.979L163.33,179.981L164.627,179.982L165.924,179.984L167.22,179.985L168.517,179.987L169.814,179.988L171.111,179.989L172.408,179.99L173.704,179.991L175.001,179.992L176.298,179.993L177.595,179.993L178.892,179.994L180.188,179.994L181.485,179.995L182.782,179.995L184.079,179.996L185.376,179.996L186.672,179.997L186.705,179.997L187.969,179.997L189.266,179.997L190.563,179.997L191.86,179.998L193.156,179.998L194.453,179.998L195.75,179.998L197.047,179.998L198.344,179.999L199.64,179.999L200.937,179.999L202.234,179.999L203.531,179.999L204.828,179.999L206.124,179.999L207.421,179.999L208.718,179.999L210.015,179.999L211.312,179.999L212.608,180L213.905,180L215.202,180L216.499,180L217.796,180L219.092,180L220.389,180L221.686,180L222.492,180L222.983,180L224.28,180L225.576,180L226.873,180L228.17,180L229.467,180L230.764,180L232.06,180L233.357,180L234.654,180L235.951,180L237.248,180L238.544,180L239.841,180L241.138,180L242.435,180L243.732,180L245.028,180L246.325,180L247.622,180L248.919,180L250.216,180L251.513,180L252.809,180L254.106,180L255.403,180L256.7,180L257.997,180L258.537,180L259.293,180L260.59,180L261.887,180L263.184,180L264.481,180L265.777,180L267.074,180L268.371,180L269.668,180L270.965,180L272.261,180L273.558,180L274.855,180L276.152,180L277.449,180L278.745,180L280.042,180" stroke="#e15759" stroke-width="1.5"/></g></g><path class="foreground" aria-hidden="true" d="" display="none"/></g><g transform="translate(0,0)"><path class="background" aria-hidden="true" d="M0,0h300v200h-300Z"/><g><g class="mark-line role-mark layer_0_marks" role="graphics-object" aria-roledescription="line mark container"><path aria-label="Sera Dilution: 2e-5; Fraction Infectivity: 0.887500609286; Serum: ChAdOx1" role="graphics-symbol" aria-roledescription="line mark" d="M21.978,2.5L23.275,4.044L24.572,5.679L25.869,7.408L27.166,9.234L28.462,11.159L29.759,13.187L31.056,15.319L32.353,17.557L33.65,19.902L34.946,22.356L36.243,24.918L37.54,27.588L38.837,30.366L40.134,33.249L41.43,36.236L42.727,39.321L43.484,41.166L44.024,42.503L45.321,45.776L46.618,49.133L47.915,52.57L49.211,56.078L50.508,59.65L51.805,63.276L53.102,66.948L54.399,70.657L55.695,74.392L56.992,78.142L58.289,81.898L59.586,85.648L60.883,89.383L62.179,93.091L63.476,96.763L64.773,100.389L66.07,103.96L67.367,107.467L68.663,110.903L69.96,114.26L71.257,117.531L72.554,120.712L73.851,123.797L75.147,126.782L76.444,129.664L77.741,132.441L79.038,135.11L79.268,135.572L80.335,137.671L81.631,140.124L82.928,142.468L84.225,144.705L85.522,146.835L86.819,148.862L88.115,150.786L89.412,152.611L90.709,154.339L92.006,155.973L93.303,157.516L94.599,158.972L95.896,160.344L97.193,161.636L98.49,162.851L99.787,163.993L101.083,165.065L102.38,166.071L103.677,167.013L104.974,167.896L106.271,168.723L107.567,169.496L108.864,170.219L110.161,170.895L111.458,171.526L112.755,172.115L114.051,172.664L115.147,173.1L115.348,173.177L116.645,173.655L117.942,174.101L119.239,174.516L120.535,174.903L121.832,175.263L123.129,175.598L124.426,175.91L125.723,176.201L127.019,176.471L128.316,176.722L129.613,176.956L130.91,177.173L132.207,177.375L133.503,177.562L134.8,177.737L136.097,177.899L137.394,178.049L138.691,178.189L139.987,178.319L141.284,178.44L142.581,178.552L143.878,178.656L145.175,178.753L146.472,178.843L147.768,178.926L149.065,179.003L150.362,179.075L150.931,179.105L151.659,179.142L152.956,179.204L154.252,179.261L155.549,179.314L156.846,179.364L158.143,179.41L159.44,179.452L160.736,179.492L162.033,179.528L163.33,179.563L164.627,179.594L165.924,179.623L167.22,179.651L168.517,179.676L169.814,179.699L171.111,179.721L172.408,179.741L173.704,179.76L175.001,179.777L176.298,179.793L177.595,179.808L178.892,179.822L180.188,179.835L181.485,179.847L182.782,179.858L184.079,179.868L185.376,179.878L186.672,179.887L186.705,179.887L187.969,179.895L189.266,179.902L190.563,179.91L191.86,179.916L193.156,179.922L194.453,179.928L195.75,179.933L197.047,179.938L198.344,179.942L199.64,179.947L200.937,179.95L202.234,179.954L203.531,179.957L204.828,179.96L206.124,179.963L207.421,179.966L208.718,179.968L210.015,179.971L211.312,179.973L212.608,179.975L213.905,179.977L215.202,179.978L216.499,179.98L217.796,179.981L219.092,179.983L220.389,179.984L221.686,179.985L222.492,179.986L222.983,179.986L224.28,179.987L225.576,179.988L226.873,179.989L228.17,179.99L229.467,179.99L230.764,179.991L232.06,179.992L233.357,179.992L234.654,179.993L235.951,179.993L237.248,179.994L238.544,179.994L239.841,179.995L241.138,179.995L242.435,179.996L243.732,179.996L245.028,179.996L246.325,179.996L247.622,179.997L248.919,179.997L250.216,179.997L251.513,179.997L252.809,179.998L254.106,179.998L255.403,179.998L256.7,179.998L257.997,179.998L258.537,179.998L259.293,179.998L260.59,179.998L261.887,179.999L263.184,179.999L264.481,179.999L265.777,179.999L267.074,179.999L268.371,179.999L269.668,179.999L270.965,179.999L272.261,179.999L273.558,179.999L274.855,179.999L276.152,179.999L277.449,179.999L278.745,179.999L280.042,179.999" stroke="#4e79a7" stroke-width="1.5"/></g></g><path class="foreground" aria-hidden="true" d="" display="none"/></g><g transform="translate(0,0)"><path class="background" aria-hidden="true" d="M0,0h300v200h-300Z"/><g><g class="mark-line role-mark layer_0_marks" role="graphics-object" aria-roledescription="line mark container"><path aria-label="Sera Dilution: 2e-5; Fraction Infectivity: 0.889587212266; Serum: HeV-sG" role="graphics-symbol" aria-roledescription="line mark" d="M21.978,2.083L23.275,4.056L24.572,6.18L25.869,8.462L27.166,10.906L28.462,13.52L29.759,16.307L31.056,19.272L32.353,22.415L33.65,25.739L34.946,29.242L36.243,32.921L37.54,36.771L38.837,40.786L40.134,44.955L41.43,49.269L42.727,53.713L43.484,56.359L44.024,58.271L45.321,62.926L46.618,67.658L47.915,72.447L49.211,77.271L50.508,82.108L51.805,86.935L53.102,91.73L54.399,96.471L55.695,101.137L56.992,105.708L58.289,110.168L59.586,114.499L60.883,118.688L62.179,122.723L63.476,126.595L64.773,130.296L66.07,133.822L67.367,137.168L68.663,140.335L69.96,143.322L71.257,146.132L72.554,148.768L73.851,151.234L75.147,153.536L76.444,155.68L77.741,157.672L79.038,159.521L79.268,159.834L80.335,161.232L81.631,162.814L82.928,164.275L84.225,165.621L85.522,166.86L86.819,167.999L88.115,169.045L89.412,170.005L90.709,170.885L92.006,171.69L93.303,172.428L94.599,173.102L95.896,173.718L97.193,174.281L98.49,174.795L99.787,175.263L101.083,175.691L102.38,176.08L103.677,176.435L104.974,176.759L106.271,177.053L107.567,177.322L108.864,177.566L110.161,177.788L111.458,177.99L112.755,178.173L114.051,178.34L115.147,178.47L115.348,178.492L116.645,178.63L117.942,178.756L119.239,178.87L120.535,178.974L121.832,179.068L123.129,179.153L124.426,179.231L125.723,179.302L127.019,179.366L128.316,179.424L129.613,179.477L130.91,179.525L132.207,179.569L133.503,179.609L134.8,179.645L136.097,179.677L137.394,179.707L138.691,179.734L139.987,179.759L141.284,179.781L142.581,179.801L143.878,179.819L145.175,179.836L146.472,179.851L147.768,179.865L149.065,179.877L150.362,179.889L150.931,179.893L151.659,179.899L152.956,179.908L154.252,179.917L155.549,179.924L156.846,179.931L158.143,179.938L159.44,179.943L160.736,179.949L162.033,179.953L163.33,179.958L164.627,179.962L165.924,179.965L167.22,179.968L168.517,179.971L169.814,179.974L171.111,179.976L172.408,179.978L173.704,179.98L175.001,179.982L176.298,179.984L177.595,179.985L178.892,179.987L180.188,179.988L181.485,179.989L182.782,179.99L184.079,179.991L185.376,179.992L186.672,179.993L186.705,179.993L187.969,179.993L189.266,179.994L190.563,179.994L191.86,179.995L193.156,179.995L194.453,179.996L195.75,179.996L197.047,179.997L198.344,179.997L199.64,179.997L200.937,179.997L202.234,179.998L203.531,179.998L204.828,179.998L206.124,179.998L207.421,179.998L208.718,179.999L210.015,179.999L211.312,179.999L212.608,179.999L213.905,179.999L215.202,179.999L216.499,179.999L217.796,179.999L219.092,179.999L220.389,179.999L221.686,179.999L222.492,179.999L222.983,180L224.28,180L225.576,180L226.873,180L228.17,180L229.467,180L230.764,180L232.06,180L233.357,180L234.654,180L235.951,180L237.248,180L238.544,180L239.841,180L241.138,180L242.435,180L243.732,180L245.028,180L246.325,180L247.622,180L248.919,180L250.216,180L251.513,180L252.809,180L254.106,180L255.403,180L256.7,180L257.997,180L258.537,180L259.293,180L260.59,180L261.887,180L263.184,180L264.481,180L265.777,180L267.074,180L268.371,180L269.668,180L270.965,180L272.261,180L273.558,180L274.855,180L276.152,180L277.449,180L278.745,180L280.042,180" stroke="#f28e2c" stroke-width="1.5"/></g></g><path class="foreground" aria-hidden="true" d="" display="none"/></g></g><g class="mark-symbol role-mark layer_1_marks" role="graphics-object" aria-roledescription="symbol mark container"><path aria-label="Sera Dilution: 4e-5; Fraction Infectivity: 0.1358318035; Serum: mRNA" role="graphics-symbol" aria-roledescription="circle" transform="translate(43.483769746260776,152.83363930000002)" d="M3.162,0A3.162,3.162,0,1,1,-3.162,0A3.162,3.162,0,1,1,3.162,0" fill="#76b7b2" stroke-width="2" opacity="1"/><path aria-label="Sera Dilution: 1e-4; Fraction Infectivity: 0.0087030718; Serum: mRNA" role="graphics-symbol" aria-roledescription="circle" transform="translate(79.26786385023544,178.25938563999998)" d="M3.162,0A3.162,3.162,0,1,1,-3.162,0A3.162,3.162,0,1,1,3.162,0" fill="#76b7b2" stroke-width="2" opacity="1"/><path aria-label="Sera Dilution: 3e-4; Fraction Infectivity: −0.0044290325; Serum: mRNA" role="graphics-symbol" aria-roledescription="circle" transform="translate(115.14705900320779,180.8858065)" d="M3.162,0A3.162,3.162,0,1,1,-3.162,0A3.162,3.162,0,1,1,3.162,0" fill="#76b7b2" stroke-width="2" opacity="1"/><path aria-label="Sera Dilution: 1e-3; Fraction Infectivity: −0.0032102; Serum: mRNA" role="graphics-symbol" aria-roledescription="circle" transform="translate(150.93115310718247,180.64203999999998)" d="M3.162,0A3.162,3.162,0,1,1,-3.162,0A3.162,3.162,0,1,1,3.162,0" fill="#76b7b2" stroke-width="2" opacity="1"/><path aria-label="Sera Dilution: 3e-3; Fraction Infectivity: −0.003426328; Serum: mRNA" role="graphics-symbol" aria-roledescription="circle" transform="translate(186.7046941295347,180.6852656)" d="M3.162,0A3.162,3.162,0,1,1,-3.162,0A3.162,3.162,0,1,1,3.162,0" fill="#76b7b2" stroke-width="2" opacity="1"/><path aria-label="Sera Dilution: 9e-3; Fraction Infectivity: −0.0040138215; Serum: mRNA" role="graphics-symbol" aria-roledescription="circle" transform="translate(222.4923063072983,180.8027643)" d="M3.162,0A3.162,3.162,0,1,1,-3.162,0A3.162,3.162,0,1,1,3.162,0" fill="#76b7b2" stroke-width="2" opacity="1"/><path aria-label="Sera Dilution: 3e-2; Fraction Infectivity: 0.000320723; Serum: mRNA" role="graphics-symbol" aria-roledescription="circle" transform="translate(258.53685235066644,179.93585539999998)" d="M3.162,0A3.162,3.162,0,1,1,-3.162,0A3.162,3.162,0,1,1,3.162,0" fill="#76b7b2" stroke-width="2" opacity="1"/><path aria-label="Sera Dilution: 4e-5; Fraction Infectivity: 0.4200592925; Serum: NiV-sG" role="graphics-symbol" aria-roledescription="circle" transform="translate(43.483769746260776,95.98814149999998)" d="M3.162,0A3.162,3.162,0,1,1,-3.162,0A3.162,3.162,0,1,1,3.162,0" fill="#e15759" stroke-width="2" opacity="1"/><path aria-label="Sera Dilution: 1e-4; Fraction Infectivity: 0.0487854875; Serum: NiV-sG" role="graphics-symbol" aria-roledescription="circle" transform="translate(79.26786385023544,170.2429025)" d="M3.162,0A3.162,3.162,0,1,1,-3.162,0A3.162,3.162,0,1,1,3.162,0" fill="#e15759" stroke-width="2" opacity="1"/><path aria-label="Sera Dilution: 3e-4; Fraction Infectivity: −0.000845976; Serum: NiV-sG" role="graphics-symbol" aria-roledescription="circle" transform="translate(115.14705900320779,180.16919520000002)" d="M3.162,0A3.162,3.162,0,1,1,-3.162,0A3.162,3.162,0,1,1,3.162,0" fill="#e15759" stroke-width="2" opacity="1"/><path aria-label="Sera Dilution: 1e-3; Fraction Infectivity: −0.0013304025; Serum: NiV-sG" role="graphics-symbol" aria-roledescription="circle" transform="translate(150.93115310718247,180.2660805)" d="M3.162,0A3.162,3.162,0,1,1,-3.162,0A3.162,3.162,0,1,1,3.162,0" fill="#e15759" stroke-width="2" opacity="1"/><path aria-label="Sera Dilution: 3e-3; Fraction Infectivity: −0.0008180515; Serum: NiV-sG" role="graphics-symbol" aria-roledescription="circle" transform="translate(186.7046941295347,180.1636103)" d="M3.162,0A3.162,3.162,0,1,1,-3.162,0A3.162,3.162,0,1,1,3.162,0" fill="#e15759" stroke-width="2" opacity="1"/><path aria-label="Sera Dilution: 9e-3; Fraction Infectivity: −0.0010905125; Serum: NiV-sG" role="graphics-symbol" aria-roledescription="circle" transform="translate(222.4923063072983,180.2181025)" d="M3.162,0A3.162,3.162,0,1,1,-3.162,0A3.162,3.162,0,1,1,3.162,0" fill="#e15759" stroke-width="2" opacity="1"/><path aria-label="Sera Dilution: 3e-2; Fraction Infectivity: −0.000620111; Serum: NiV-sG" role="graphics-symbol" aria-roledescription="circle" transform="translate(258.53685235066644,180.1240222)" d="M3.162,0A3.162,3.162,0,1,1,-3.162,0A3.162,3.162,0,1,1,3.162,0" fill="#e15759" stroke-width="2" opacity="1"/><path aria-label="Sera Dilution: 4e-5; Fraction Infectivity: 0.691577965; Serum: ChAdOx1" role="graphics-symbol" aria-roledescription="circle" transform="translate(43.483769746260776,41.684407)" d="M3.162,0A3.162,3.162,0,1,1,-3.162,0A3.162,3.162,0,1,1,3.162,0" fill="#4e79a7" stroke-width="2" opacity="1"/><path aria-label="Sera Dilution: 1e-4; Fraction Infectivity: 0.22835644; Serum: ChAdOx1" role="graphics-symbol" aria-roledescription="circle" transform="translate(79.26786385023544,134.328712)" d="M3.162,0A3.162,3.162,0,1,1,-3.162,0A3.162,3.162,0,1,1,3.162,0" fill="#4e79a7" stroke-width="2" opacity="1"/><path aria-label="Sera Dilution: 3e-4; Fraction Infectivity: 0.019472311; Serum: ChAdOx1" role="graphics-symbol" aria-roledescription="circle" transform="translate(115.14705900320779,176.1055378)" d="M3.162,0A3.162,3.162,0,1,1,-3.162,0A3.162,3.162,0,1,1,3.162,0" fill="#4e79a7" stroke-width="2" opacity="1"/><path aria-label="Sera Dilution: 1e-3; Fraction Infectivity: −0.000653007; Serum: ChAdOx1" role="graphics-symbol" aria-roledescription="circle" transform="translate(150.93115310718247,180.1306014)" d="M3.162,0A3.162,3.162,0,1,1,-3.162,0A3.162,3.162,0,1,1,3.162,0" fill="#4e79a7" stroke-width="2" opacity="1"/><path aria-label="Sera Dilution: 3e-3; Fraction Infectivity: −0.000710763; Serum: ChAdOx1" role="graphics-symbol" aria-roledescription="circle" transform="translate(186.7046941295347,180.1421526)" d="M3.162,0A3.162,3.162,0,1,1,-3.162,0A3.162,3.162,0,1,1,3.162,0" fill="#4e79a7" stroke-width="2" opacity="1"/><path aria-label="Sera Dilution: 9e-3; Fraction Infectivity: −0.000862981; Serum: ChAdOx1" role="graphics-symbol" aria-roledescription="circle" transform="translate(222.4923063072983,180.1725962)" d="M3.162,0A3.162,3.162,0,1,1,-3.162,0A3.162,3.162,0,1,1,3.162,0" fill="#4e79a7" stroke-width="2" opacity="1"/><path aria-label="Sera Dilution: 3e-2; Fraction Infectivity: −0.000841733; Serum: ChAdOx1" role="graphics-symbol" aria-roledescription="circle" transform="translate(258.53685235066644,180.1683466)" d="M3.162,0A3.162,3.162,0,1,1,-3.162,0A3.162,3.162,0,1,1,3.162,0" fill="#4e79a7" stroke-width="2" opacity="1"/><path aria-label="Sera Dilution: 4e-5; Fraction Infectivity: 0.6182324625; Serum: HeV-sG" role="graphics-symbol" aria-roledescription="circle" transform="translate(43.483769746260776,56.35350750000001)" d="M3.162,0A3.162,3.162,0,1,1,-3.162,0A3.162,3.162,0,1,1,3.162,0" fill="#f28e2c" stroke-width="2" opacity="1"/><path aria-label="Sera Dilution: 1e-4; Fraction Infectivity: 0.1006856255; Serum: HeV-sG" role="graphics-symbol" aria-roledescription="circle" transform="translate(79.26786385023544,159.8628749)" d="M3.162,0A3.162,3.162,0,1,1,-3.162,0A3.162,3.162,0,1,1,3.162,0" fill="#f28e2c" stroke-width="2" opacity="1"/><path aria-label="Sera Dilution: 3e-4; Fraction Infectivity: 0.008617421; Serum: HeV-sG" role="graphics-symbol" aria-roledescription="circle" transform="translate(115.14705900320779,178.2765158)" d="M3.162,0A3.162,3.162,0,1,1,-3.162,0A3.162,3.162,0,1,1,3.162,0" fill="#f28e2c" stroke-width="2" opacity="1"/><path aria-label="Sera Dilution: 1e-3; Fraction Infectivity: −0.00033599; Serum: HeV-sG" role="graphics-symbol" aria-roledescription="circle" transform="translate(150.93115310718247,180.067198)" d="M3.162,0A3.162,3.162,0,1,1,-3.162,0A3.162,3.162,0,1,1,3.162,0" fill="#f28e2c" stroke-width="2" opacity="1"/><path aria-label="Sera Dilution: 3e-3; Fraction Infectivity: −0.0015608175; Serum: HeV-sG" role="graphics-symbol" aria-roledescription="circle" transform="translate(186.7046941295347,180.3121635)" d="M3.162,0A3.162,3.162,0,1,1,-3.162,0A3.162,3.162,0,1,1,3.162,0" fill="#f28e2c" stroke-width="2" opacity="1"/><path aria-label="Sera Dilution: 9e-3; Fraction Infectivity: −0.0014129685; Serum: HeV-sG" role="graphics-symbol" aria-roledescription="circle" transform="translate(222.4923063072983,180.2825937)" d="M3.162,0A3.162,3.162,0,1,1,-3.162,0A3.162,3.162,0,1,1,3.162,0" fill="#f28e2c" stroke-width="2" opacity="1"/><path aria-label="Sera Dilution: 3e-2; Fraction Infectivity: −0.001656851; Serum: HeV-sG" role="graphics-symbol" aria-roledescription="circle" transform="translate(258.53685235066644,180.3313702)" d="M3.162,0A3.162,3.162,0,1,1,-3.162,0A3.162,3.162,0,1,1,3.162,0" fill="#f28e2c" stroke-width="2" opacity="1"/></g><g class="mark-rule role-mark layer_2_marks" role="graphics-object" aria-roledescription="rule mark container"><line aria-label="concentration: 0.000038; Fraction Infectivity: 0.096887755; upper_lower: 0.174775852; serum: mRNA; upper: 0.174775852; lower: 0.096887755" role="graphics-symbol" aria-roledescription="errorbar" transform="translate(43.483769746260776,160.622449)" x2="0" y2="-15.577619399999975" stroke="#76b7b2" opacity="1"/><line aria-label="concentration: 0.000114; Fraction Infectivity: 0.0000540816; upper_lower: 0.017352062; serum: mRNA; upper: 0.017352062; lower: 0.0000540816" role="graphics-symbol" aria-roledescription="errorbar" transform="translate(79.26786385023544,179.98918368)" x2="0" y2="-3.4595960800000114" stroke="#76b7b2" opacity="1"/><line aria-label="concentration: 0.000343; Fraction Infectivity: −0.0048948; upper_lower: −0.003963265; serum: mRNA; upper: −0.003963265; lower: −0.0048948" role="graphics-symbol" aria-roledescription="errorbar" transform="translate(115.14705900320779,180.97896)" x2="0" y2="-0.18630699999999933" stroke="#76b7b2" opacity="1"/><line aria-label="concentration: 0.001029; Fraction Infectivity: −0.004630604; upper_lower: −0.001789796; serum: mRNA; upper: −0.001789796; lower: −0.004630604" role="graphics-symbol" aria-roledescription="errorbar" transform="translate(150.93115310718247,180.92612079999998)" x2="0" y2="-0.5681615999999963" stroke="#76b7b2" opacity="1"/><line aria-label="concentration: 0.003086; Fraction Infectivity: −0.004310819; upper_lower: −0.002541837; serum: mRNA; upper: −0.002541837; lower: −0.004310819" role="graphics-symbol" aria-roledescription="errorbar" transform="translate(186.7046941295347,180.8621638)" x2="0" y2="-0.3537963999999931" stroke="#76b7b2" opacity="1"/><line aria-label="concentration: 0.009259; Fraction Infectivity: −0.004042439; upper_lower: −0.003985204; serum: mRNA; upper: −0.003985204; lower: −0.004042439" role="graphics-symbol" aria-roledescription="errorbar" transform="translate(222.4923063072983,180.8084878)" x2="0" y2="-0.01144699999997556" stroke="#76b7b2" opacity="1"/><line aria-label="concentration: 0.028; Fraction Infectivity: −0.001672959; upper_lower: 0.002314405; serum: mRNA; upper: 0.002314405; lower: −0.001672959" role="graphics-symbol" aria-roledescription="errorbar" transform="translate(258.53685235066644,180.3345918)" x2="0" y2="-0.7974728000000084" stroke="#76b7b2" opacity="1"/><line aria-label="concentration: 0.000038; Fraction Infectivity: 0.386557132; upper_lower: 0.453561453; serum: NiV-sG; upper: 0.453561453; lower: 0.386557132" role="graphics-symbol" aria-roledescription="errorbar" transform="translate(43.483769746260776,102.68857359999998)" x2="0" y2="-13.400864199999987" stroke="#e15759" opacity="1"/><line aria-label="concentration: 0.000114; Fraction Infectivity: 0.037759522; upper_lower: 0.059811453; serum: NiV-sG; upper: 0.059811453; lower: 0.037759522" role="graphics-symbol" aria-roledescription="errorbar" transform="translate(79.26786385023544,172.4480956)" x2="0" y2="-4.4103861999999765" stroke="#e15759" opacity="1"/><line aria-label="concentration: 0.000343; Fraction Infectivity: −0.001142196; upper_lower: −0.000549756; serum: NiV-sG; upper: −0.000549756; lower: −0.001142196" role="graphics-symbol" aria-roledescription="errorbar" transform="translate(115.14705900320779,180.2284392)" x2="0" y2="-0.11848800000001347" stroke="#e15759" opacity="1"/><line aria-label="concentration: 0.001029; Fraction Infectivity: −0.001412709; upper_lower: −0.001248096; serum: NiV-sG; upper: −0.001248096; lower: −0.001412709" role="graphics-symbol" aria-roledescription="errorbar" transform="translate(150.93115310718247,180.28254180000002)" x2="0" y2="-0.03292260000000624" stroke="#e15759" opacity="1"/><line aria-label="concentration: 0.003086; Fraction Infectivity: −0.001206529; upper_lower: −0.000429574; serum: NiV-sG; upper: −0.000429574; lower: −0.001206529" role="graphics-symbol" aria-roledescription="errorbar" transform="translate(186.7046941295347,180.2413058)" x2="0" y2="-0.1553909999999803" stroke="#e15759" opacity="1"/><line aria-label="concentration: 0.009259; Fraction Infectivity: −0.001618366; upper_lower: −0.000562659; serum: NiV-sG; upper: −0.000562659; lower: −0.001618366" role="graphics-symbol" aria-roledescription="errorbar" transform="translate(222.4923063072983,180.3236732)" x2="0" y2="-0.21114140000000248" stroke="#e15759" opacity="1"/><line aria-label="concentration: 0.028; Fraction Infectivity: −0.000892457; upper_lower: −0.000347765; serum: NiV-sG; upper: −0.000347765; lower: −0.000892457" role="graphics-symbol" aria-roledescription="errorbar" transform="translate(258.53685235066644,180.17849139999998)" x2="0" y2="-0.10893839999997112" stroke="#e15759" opacity="1"/><line aria-label="concentration: 0.000038; Fraction Infectivity: 0.650231125; upper_lower: 0.732924805; serum: ChAdOx1; upper: 0.732924805; lower: 0.650231125" role="graphics-symbol" aria-roledescription="errorbar" transform="translate(43.483769746260776,49.953775)" x2="0" y2="-16.538736" stroke="#4e79a7" opacity="1"/><line aria-label="concentration: 0.000114; Fraction Infectivity: 0.17929682; upper_lower: 0.27741606; serum: ChAdOx1; upper: 0.27741606; lower: 0.17929682" role="graphics-symbol" aria-roledescription="errorbar" transform="translate(79.26786385023544,144.140636)" x2="0" y2="-19.62384800000001" stroke="#4e79a7" opacity="1"/><line aria-label="concentration: 0.000343; Fraction Infectivity: 0.007526264; upper_lower: 0.031418358; serum: ChAdOx1; upper: 0.031418358; lower: 0.007526264" role="graphics-symbol" aria-roledescription="errorbar" transform="translate(115.14705900320779,178.4947472)" x2="0" y2="-4.778418799999997" stroke="#4e79a7" opacity="1"/><line aria-label="concentration: 0.001029; Fraction Infectivity: −0.000818971; upper_lower: −0.000487043; serum: ChAdOx1; upper: −0.000487043; lower: −0.000818971" role="graphics-symbol" aria-roledescription="errorbar" transform="translate(150.93115310718247,180.16379419999998)" x2="0" y2="-0.06638559999998961" stroke="#4e79a7" opacity="1"/><line aria-label="concentration: 0.003086; Fraction Infectivity: −0.000868609; upper_lower: −0.000552917; serum: ChAdOx1; upper: −0.000552917; lower: −0.000868609" role="graphics-symbol" aria-roledescription="errorbar" transform="translate(186.7046941295347,180.1737218)" x2="0" y2="-0.06313840000001392" stroke="#4e79a7" opacity="1"/><line aria-label="concentration: 0.009259; Fraction Infectivity: −0.001278751; upper_lower: −0.000447211; serum: ChAdOx1; upper: −0.000447211; lower: −0.001278751" role="graphics-symbol" aria-roledescription="errorbar" transform="translate(222.4923063072983,180.2557502)" x2="0" y2="-0.16630799999998658" stroke="#4e79a7" opacity="1"/><line aria-label="concentration: 0.028; Fraction Infectivity: −0.000843993; upper_lower: −0.000839473; serum: ChAdOx1; upper: −0.000839473; lower: −0.000843993" role="graphics-symbol" aria-roledescription="errorbar" transform="translate(258.53685235066644,180.1687986)" x2="0" y2="-0.0009039999999913562" stroke="#4e79a7" opacity="1"/><line aria-label="concentration: 0.000038; Fraction Infectivity: 0.603547459; upper_lower: 0.632917466; serum: HeV-sG; upper: 0.632917466; lower: 0.603547459" role="graphics-symbol" aria-roledescription="errorbar" transform="translate(43.483769746260776,59.29050820000001)" x2="0" y2="-5.8740014000000045" stroke="#f28e2c" opacity="1"/><line aria-label="concentration: 0.000114; Fraction Infectivity: 0.087823586; upper_lower: 0.113547665; serum: HeV-sG; upper: 0.113547665; lower: 0.087823586" role="graphics-symbol" aria-roledescription="errorbar" transform="translate(79.26786385023544,162.4352828)" x2="0" y2="-5.1448158000000035" stroke="#f28e2c" opacity="1"/><line aria-label="concentration: 0.000343; Fraction Infectivity: 0.006294343; upper_lower: 0.010940499; serum: HeV-sG; upper: 0.010940499; lower: 0.006294343" role="graphics-symbol" aria-roledescription="errorbar" transform="translate(115.14705900320779,178.74113139999997)" x2="0" y2="-0.9292311999999754" stroke="#f28e2c" opacity="1"/><line aria-label="concentration: 0.001029; Fraction Infectivity: −0.001879434; upper_lower: 0.001207454; serum: HeV-sG; upper: 0.001207454; lower: −0.001879434" role="graphics-symbol" aria-roledescription="errorbar" transform="translate(150.93115310718247,180.37588680000002)" x2="0" y2="-0.617377600000026" stroke="#f28e2c" opacity="1"/><line aria-label="concentration: 0.003086; Fraction Infectivity: −0.001672819; upper_lower: −0.001448816; serum: HeV-sG; upper: −0.001448816; lower: −0.001672819" role="graphics-symbol" aria-roledescription="errorbar" transform="translate(186.7046941295347,180.33456379999998)" x2="0" y2="-0.044800599999973656" stroke="#f28e2c" opacity="1"/><line aria-label="concentration: 0.009259; Fraction Infectivity: −0.001540748; upper_lower: −0.001285189; serum: HeV-sG; upper: −0.001285189; lower: −0.001540748" role="graphics-symbol" aria-roledescription="errorbar" transform="translate(222.4923063072983,180.30814959999998)" x2="0" y2="-0.05111179999997262" stroke="#f28e2c" opacity="1"/><line aria-label="concentration: 0.028; Fraction Infectivity: −0.001955417; upper_lower: −0.001358285; serum: HeV-sG; upper: −0.001358285; lower: −0.001955417" role="graphics-symbol" aria-roledescription="errorbar" transform="translate(258.53685235066644,180.3910834)" x2="0" y2="-0.11942640000000893" stroke="#f28e2c" opacity="1"/></g><g class="mark-group role-legend" role="graphics-symbol" aria-roledescription="legend" aria-label="Symbol legend titled 'Serum' for fill color and stroke color with 4 values: ChAdOx1, HeV-sG, NiV-sG, mRNA"><g transform="translate(318,0)"><path class="background" aria-hidden="true" d="M0,0h89v91h-89Z" pointer-events="none"/><g><g class="mark-group role-legend-entry"><g transform="translate(5,24)"><path class="background" aria-hidden="true" d="M0,0h0v0h0Z" pointer-events="none"/><g><g class="mark-group role-scope" role="graphics-object" aria-roledescription="group mark container"><g transform="translate(0,0)"><path class="background" aria-hidden="true" d="M0,0h78.6962890625v14h-78.6962890625Z" pointer-events="none" opacity="1"/><g><g class="mark-symbol role-legend-symbol" pointer-events="none"><path transform="translate(7,7)" d="M5,0A5,5,0,1,1,-5,0A5,5,0,1,1,5,0" fill="#4e79a7" stroke="#4e79a7" stroke-width="1.5" opacity="1"/></g><g class="mark-text role-legend-label" pointer-events="none"><text text-anchor="start" transform="translate(18,11)" font-family="Helvetica" font-size="14px" fill="#000" opacity="1">ChAdOx1</text></g></g><path class="foreground" aria-hidden="true" d="" pointer-events="none" display="none"/></g><g transform="translate(0,16)"><path class="background" aria-hidden="true" d="M0,0h78.6962890625v14h-78.6962890625Z" pointer-events="none" opacity="1"/><g><g class="mark-symbol role-legend-symbol" pointer-events="none"><path transform="translate(7,7)" d="M5,0A5,5,0,1,1,-5,0A5,5,0,1,1,5,0" fill="#f28e2c" stroke="#f28e2c" stroke-width="1.5" opacity="1"/></g><g class="mark-text role-legend-label" pointer-events="none"><text text-anchor="start" transform="translate(18,11)" font-family="Helvetica" font-size="14px" fill="#000" opacity="1">HeV-sG</text></g></g><path class="foreground" aria-hidden="true" d="" pointer-events="none" display="none"/></g><g transform="translate(0,32)"><path class="background" aria-hidden="true" d="M0,0h78.6962890625v14h-78.6962890625Z" pointer-events="none" opacity="1"/><g><g class="mark-symbol role-legend-symbol" pointer-events="none"><path transform="translate(7,7)" d="M5,0A5,5,0,1,1,-5,0A5,5,0,1,1,5,0" fill="#e15759" stroke="#e15759" stroke-width="1.5" opacity="1"/></g><g class="mark-text role-legend-label" pointer-events="none"><text text-anchor="start" transform="translate(18,11)" font-family="Helvetica" font-size="14px" fill="#000" opacity="1">NiV-sG</text></g></g><path class="foreground" aria-hidden="true" d="" pointer-events="none" display="none"/></g><g transform="translate(0,48)"><path class="background" aria-hidden="true" d="M0,0h78.6962890625v14h-78.6962890625Z" pointer-events="none" opacity="1"/><g><g class="mark-symbol role-legend-symbol" pointer-events="none"><path transform="translate(7,7)" d="M5,0A5,5,0,1,1,-5,0A5,5,0,1,1,5,0" fill="#76b7b2" stroke="#76b7b2" stroke-width="1.5" opacity="1"/></g><g class="mark-text role-legend-label" pointer-events="none"><text text-anchor="start" transform="translate(18,11)" font-family="Helvetica" font-size="14px" fill="#000" opacity="1">mRNA</text></g></g><path class="foreground" aria-hidden="true" d="" pointer-events="none" display="none"/></g></g></g><path class="foreground" aria-hidden="true" d="" pointer-events="none" display="none"/></g></g><g class="mark-text role-legend-title" pointer-events="none"><text text-anchor="start" transform="translate(5,16)" font-family="Helvetica" font-size="14px" font-weight="bold" fill="#000" opacity="1">Serum</text></g></g><path class="foreground" aria-hidden="true" d="" pointer-events="none" display="none"/></g></g></g><path class="foreground" aria-hidden="true" d="" display="none"/></g></g></g></svg>