<svg xmlns="http://www.w3.org/2000/svg" xmlns:xlink="http://www.w3.org/1999/xlink" version="1.1" class="marks" width="489" height="256" viewBox="0 0 489 256"><rect width="489" height="256" fill="white"/><g fill="none" stroke-miterlimit="10" transform="translate(50,12)"><g class="mark-group role-frame root" role="graphics-object" aria-roledescription="group mark container"><g transform="translate(0,0)"><path class="background" aria-hidden="true" d="M0,0h300v200h-300Z" stroke-width="0"/><g><g class="mark-group role-axis" role="graphics-symbol" aria-roledescription="axis" aria-label="X-axis titled 'Sera Dilution' for a log scale with values from 1e-5 to 1e+0"><g transform="translate(0.5,200.5)"><path class="background" aria-hidden="true" d="M0,0h0v0h0Z" pointer-events="none"/><g><g class="mark-rule role-axis-tick" pointer-events="none"><line transform="translate(60,0)" x2="0" y2="4" stroke="black" stroke-width="1" opacity="1"/><line transform="translate(180,0)" x2="0" y2="4" stroke="black" stroke-width="1" opacity="1"/><line transform="translate(300,0)" x2="0" y2="4" stroke="black" stroke-width="1" opacity="1"/></g><g class="mark-text role-axis-label" pointer-events="none"><text text-anchor="middle" transform="translate(60.00000000000003,17)" font-family="Helvetica" font-size="14px" font-weight="normal" fill="#000" opacity="1">1e-4</text><text text-anchor="middle" transform="translate(180.00000000000003,17)" font-family="Helvetica" font-size="14px" font-weight="normal" fill="#000" opacity="1">1e-2</text><text text-anchor="middle" transform="translate(300,17)" font-family="Helvetica" font-size="14px" font-weight="normal" fill="#000" opacity="1">1e+0</text></g><g class="mark-rule role-axis-domain" pointer-events="none"><line transform="translate(0,0)" x2="300" y2="0" stroke="black" stroke-width="1" opacity="1"/></g><g class="mark-text role-axis-title" pointer-events="none"><text text-anchor="middle" transform="translate(150,36)" font-family="Helvetica" font-size="14px" font-weight="bold" fill="#000" opacity="1">Sera Dilution</text></g></g><path class="foreground" aria-hidden="true" d="" pointer-events="none" display="none"/></g></g><g class="mark-group role-axis" role="graphics-symbol" aria-roledescription="axis" aria-label="Y-axis titled 'Fraction Infectivity' for a linear scale with values from 0.0 to 1.0"><g transform="translate(0.5,0.5)"><path class="background" aria-hidden="true" d="M0,0h0v0h0Z" pointer-events="none"/><g><g class="mark-rule role-axis-tick" pointer-events="none"><line transform="translate(0,200)" x2="-4" y2="0" stroke="black" stroke-width="1" opacity="1"/><line transform="translate(0,100)" x2="-4" y2="0" stroke="black" stroke-width="1" opacity="1"/><line transform="translate(0,0)" x2="-4" y2="0" stroke="black" stroke-width="1" opacity="1"/></g><g class="mark-text role-axis-label" pointer-events="none"><text text-anchor="end" transform="translate(-6,204)" font-family="Helvetica" font-size="14px" font-weight="normal" fill="#000" opacity="1">0.0</text><text text-anchor="end" transform="translate(-6,104)" font-family="Helvetica" font-size="14px" font-weight="normal" fill="#000" opacity="1">0.5</text><text text-anchor="end" transform="translate(-6,4)" font-family="Helvetica" font-size="14px" font-weight="normal" fill="#000" opacity="1">1.0</text></g><g class="mark-rule role-axis-domain" pointer-events="none"><line transform="translate(0,200)" x2="0" y2="-200" stroke="black" stroke-width="1" opacity="1"/></g><g class="mark-text role-axis-title" pointer-events="none"><text text-anchor="middle" transform="translate(-30.4619140625,100) rotate(-90) translate(0,-3)" font-family="Helvetica" font-size="14px" font-weight="bold" fill="#000" opacity="1">Fraction Infectivity</text></g></g><path class="foreground" aria-hidden="true" d="" pointer-events="none" display="none"/></g></g><g class="mark-group role-scope layer_0_pathgroup" role="graphics-object" aria-roledescription="group mark container"><g transform="translate(0,0)"><path class="background" aria-hidden="true" d="M0,0h300v200h-300Z"/><g><g class="mark-line role-mark layer_0_marks" role="graphics-object" aria-roledescription="line mark container"><path aria-label="Sera Dilution: 2e-5; Fraction Infectivity: 0.791316111049; Serum: NiV-sG_Pig42" role="graphics-symbol" aria-roledescription="line mark" d="M22.132,41.737L23.326,44.254L24.521,46.879L25.715,49.609L26.909,52.445L28.104,55.382L29.298,58.419L30.492,61.551L31.687,64.775L32.881,68.085L34.075,71.474L35.27,74.936L36.464,78.463L37.658,82.048L38.853,85.681L40.047,89.352L41.242,93.053L41.938,95.222L42.436,96.774L43.63,100.503L44.825,104.231L46.019,107.947L47.213,111.641L48.408,115.303L49.602,118.924L50.796,122.494L51.991,126.004L53.185,129.448L54.379,132.816L55.574,136.103L56.768,139.302L57.962,142.409L59.157,145.42L60.351,148.33L61.545,151.137L62.74,153.839L63.934,156.435L65.128,158.924L66.323,161.305L67.517,163.581L68.711,165.751L68.768,165.85L69.906,167.817L71.1,169.781L72.294,171.645L73.489,173.413L74.683,175.086L75.877,176.668L77.072,178.163L78.266,179.572L79.46,180.9L80.655,182.151L81.849,183.327L83.043,184.433L84.238,185.47L85.432,186.444L86.627,187.357L87.821,188.213L89.015,189.013L90.21,189.763L91.404,190.464L92.598,191.119L93.793,191.731L94.987,192.303L96.181,192.836L96.767,193.085L97.376,193.334L98.57,193.798L99.764,194.231L100.959,194.635L102.153,195.011L103.347,195.361L104.542,195.688L105.736,195.991L106.93,196.274L108.125,196.538L109.319,196.782L110.513,197.01L111.708,197.222L112.902,197.419L114.096,197.603L115.291,197.773L116.485,197.932L117.679,198.079L118.874,198.216L120.068,198.343L121.262,198.461L122.457,198.571L123.651,198.673L124.845,198.768L125.394,198.809L126.04,198.856L127.234,198.938L128.429,199.014L129.623,199.084L130.817,199.15L132.012,199.211L133.206,199.267L134.4,199.32L135.595,199.369L136.789,199.414L137.983,199.456L139.178,199.495L140.372,199.531L141.566,199.565L142.761,199.596L143.955,199.625L145.149,199.652L146.344,199.677L147.538,199.7L148.732,199.722L149.927,199.742L151.121,199.76L152.315,199.777L153.51,199.793L154.092,199.801L154.704,199.808L155.898,199.822L157.093,199.835L158.287,199.847L159.481,199.858L160.676,199.868L161.87,199.877L163.064,199.886L164.259,199.894L165.453,199.902L166.647,199.909L167.842,199.916L169.036,199.922L170.23,199.927L171.425,199.932L172.619,199.937L173.814,199.942L175.008,199.946L176.202,199.95L177.397,199.953L178.591,199.957L179.785,199.96L180.98,199.963L182.174,199.965L182.743,199.967L183.368,199.968L184.563,199.97L185.757,199.972L186.951,199.974L188.146,199.976L189.34,199.978L190.534,199.98L191.729,199.981L192.923,199.982L194.117,199.984L195.312,199.985L196.506,199.986L197.7,199.987L198.895,199.988L200.089,199.989L201.283,199.99L202.478,199.99L203.672,199.991L204.866,199.992L206.061,199.992L207.255,199.993L208.449,199.993L209.644,199.994L210.838,199.994L211.37,199.994L212.032,199.995L213.227,199.995L214.421,199.995L215.616,199.996L216.81,199.996L218.004,199.996L219.199,199.997L220.393,199.997L221.587,199.997L222.782,199.997L223.976,199.997L225.17,199.998L226.365,199.998L227.559,199.998L228.753,199.998L229.948,199.998L231.142,199.998L232.336,199.998L233.531,199.999L234.725,199.999L235.919,199.999L237.114,199.999L238.308,199.999L239.502,199.999L240,199.999L240.697,199.999L241.891,199.999L243.085,199.999L244.28,199.999L245.474,199.999L246.668,199.999L247.863,199.999L249.057,199.999L250.251,200L251.446,200L252.64,200L253.834,200L255.029,200L256.223,200L257.417,200L258.612,200L259.806,200" stroke="#4e79a7" stroke-width="1.5"/></g></g><path class="foreground" aria-hidden="true" d="" display="none"/></g><g transform="translate(0,0)"><path class="background" aria-hidden="true" d="M0,0h300v200h-300Z"/><g><g class="mark-line role-mark layer_0_marks" role="graphics-object" aria-roledescription="line mark container"><path aria-label="Sera Dilution: 2e-5; Fraction Infectivity: 0.861725234325; Serum: NiV-sG_Pig47" role="graphics-symbol" aria-roledescription="line mark" d="M22.132,27.655L23.326,29.009L24.521,30.419L25.715,31.883L26.909,33.405L28.104,34.984L29.298,36.621L30.492,38.317L31.687,40.072L32.881,41.887L34.075,43.762L35.27,45.696L36.464,47.689L37.658,49.742L38.853,51.853L40.047,54.021L41.242,56.245L41.938,57.568L42.436,58.525L43.63,60.857L44.825,63.241L46.019,65.674L47.213,68.154L48.408,70.679L49.602,73.245L50.796,75.85L51.991,78.49L53.185,81.162L54.379,83.862L55.574,86.586L56.768,89.331L57.962,92.092L59.157,94.865L60.351,97.646L61.545,100.431L62.74,103.216L63.934,105.995L65.128,108.765L66.323,111.521L67.517,114.26L68.711,116.977L68.768,117.105L69.906,119.669L71.1,122.331L72.294,124.961L73.489,127.554L74.683,130.107L75.877,132.618L77.072,135.084L78.266,137.503L79.46,139.871L80.655,142.187L81.849,144.45L83.043,146.657L84.238,148.807L85.432,150.9L86.627,152.934L87.821,154.91L89.015,156.825L90.21,158.681L91.404,160.478L92.598,162.215L93.793,163.892L94.987,165.511L96.181,167.072L96.767,167.817L97.376,168.576L98.57,170.024L99.764,171.416L100.959,172.754L102.153,174.038L103.347,175.271L104.542,176.453L105.736,177.586L106.93,178.671L108.125,179.709L109.319,180.703L110.513,181.652L111.708,182.56L112.902,183.427L114.096,184.254L115.291,185.043L116.485,185.796L117.679,186.514L118.874,187.198L120.068,187.849L121.262,188.47L122.457,189.06L123.651,189.622L124.845,190.157L125.394,190.394L126.04,190.665L127.234,191.149L128.429,191.608L129.623,192.045L130.817,192.46L132.012,192.854L133.206,193.228L134.4,193.583L135.595,193.92L136.789,194.24L137.983,194.544L139.178,194.832L140.372,195.105L141.566,195.364L142.761,195.61L143.955,195.842L145.149,196.063L146.344,196.273L147.538,196.471L148.732,196.659L149.927,196.837L151.121,197.006L152.315,197.166L153.51,197.317L154.092,197.388L154.704,197.461L155.898,197.597L157.093,197.726L158.287,197.847L159.481,197.963L160.676,198.072L161.87,198.176L163.064,198.274L164.259,198.367L165.453,198.454L166.647,198.537L167.842,198.616L169.036,198.691L170.23,198.761L171.425,198.828L172.619,198.891L173.814,198.951L175.008,199.007L176.202,199.061L177.397,199.112L178.591,199.16L179.785,199.205L180.98,199.248L182.174,199.288L182.743,199.307L183.368,199.327L184.563,199.363L185.757,199.398L186.951,199.43L188.146,199.461L189.34,199.49L190.534,199.518L191.729,199.544L192.923,199.568L194.117,199.592L195.312,199.614L196.506,199.635L197.7,199.654L198.895,199.673L200.089,199.691L201.283,199.708L202.478,199.723L203.672,199.738L204.866,199.752L206.061,199.766L207.255,199.779L208.449,199.791L209.644,199.802L210.838,199.813L211.37,199.817L212.032,199.823L213.227,199.832L214.421,199.841L215.616,199.85L216.81,199.858L218.004,199.866L219.199,199.873L220.393,199.88L221.587,199.886L222.782,199.893L223.976,199.898L225.17,199.904L226.365,199.909L227.559,199.914L228.753,199.919L229.948,199.923L231.142,199.927L232.336,199.931L233.531,199.935L234.725,199.938L235.919,199.942L237.114,199.945L238.308,199.948L239.502,199.951L240,199.952L240.697,199.953L241.891,199.956L243.085,199.958L244.28,199.961L245.474,199.963L246.668,199.965L247.863,199.967L249.057,199.968L250.251,199.97L251.446,199.972L252.64,199.973L253.834,199.975L255.029,199.976L256.223,199.977L257.417,199.979L258.612,199.98L259.806,199.981" stroke="#f28e2c" stroke-width="1.5"/></g></g><path class="foreground" aria-hidden="true" d="" display="none"/></g><g transform="translate(0,0)"><path class="background" aria-hidden="true" d="M0,0h300v200h-300Z"/><g><g class="mark-line role-mark layer_0_marks" role="graphics-object" aria-roledescription="line mark container"><path aria-label="Sera Dilution: 2e-5; Fraction Infectivity: 0.957471324267; Serum: NiV-sG_Pig53" role="graphics-symbol" aria-roledescription="line mark" d="M22.132,8.506L23.326,9.032L24.521,9.588L25.715,10.177L26.909,10.801L28.104,11.46L29.298,12.157L30.492,12.893L31.687,13.67L32.881,14.491L34.075,15.357L35.27,16.271L36.464,17.233L37.658,18.247L38.853,19.314L40.047,20.437L41.242,21.617L41.938,22.333L42.436,22.856L43.63,24.157L44.825,25.522L46.019,26.951L47.213,28.448L48.408,30.013L49.602,31.649L50.796,33.356L51.991,35.136L53.185,36.99L54.379,38.918L55.574,40.922L56.768,43.002L57.962,45.157L59.157,47.388L60.351,49.694L61.545,52.073L62.74,54.525L63.934,57.048L65.128,59.64L66.323,62.298L67.517,65.02L68.711,67.803L68.768,67.935L69.906,70.642L71.1,73.533L72.294,76.474L73.489,79.457L74.683,82.48L75.877,85.536L77.072,88.62L78.266,91.726L79.46,94.848L80.655,97.98L81.849,101.116L83.043,104.25L84.238,107.375L85.432,110.487L86.627,113.577L87.821,116.642L89.015,119.675L90.21,122.67L91.404,125.623L92.598,128.53L93.793,131.384L94.987,134.183L96.181,136.923L96.767,138.244L97.376,139.6L98.57,142.211L99.764,144.754L100.959,147.227L102.153,149.628L103.347,151.955L104.542,154.207L105.736,156.384L106.93,158.486L108.125,160.511L109.319,162.462L110.513,164.337L111.708,166.138L112.902,167.866L114.096,169.522L115.291,171.108L116.485,172.624L117.679,174.073L118.874,175.456L120.068,176.775L121.262,178.032L122.457,179.229L123.651,180.368L124.845,181.451L125.394,181.93L126.04,182.48L127.234,183.457L128.429,184.384L129.623,185.264L130.817,186.097L132.012,186.887L133.206,187.635L134.4,188.343L135.595,189.013L136.789,189.647L137.983,190.245L139.178,190.811L140.372,191.346L141.566,191.85L142.761,192.327L143.955,192.777L145.149,193.201L146.344,193.601L147.538,193.978L148.732,194.334L149.927,194.669L151.121,194.985L152.315,195.283L153.51,195.564L154.092,195.694L154.704,195.828L155.898,196.076L157.093,196.311L158.287,196.531L159.481,196.738L160.676,196.934L161.87,197.118L163.064,197.29L164.259,197.453L165.453,197.606L166.647,197.75L167.842,197.885L169.036,198.013L170.23,198.132L171.425,198.245L172.619,198.351L173.814,198.45L175.008,198.544L176.202,198.632L177.397,198.714L178.591,198.792L179.785,198.865L180.98,198.934L182.174,198.998L182.743,199.028L183.368,199.059L184.563,199.116L185.757,199.169L186.951,199.22L188.146,199.267L189.34,199.311L190.534,199.353L191.729,199.392L192.923,199.429L194.117,199.464L195.312,199.496L196.506,199.527L197.7,199.556L198.895,199.583L200.089,199.608L201.283,199.632L202.478,199.654L203.672,199.675L204.866,199.695L206.061,199.713L207.255,199.731L208.449,199.747L209.644,199.762L210.838,199.777L211.37,199.783L212.032,199.79L213.227,199.803L214.421,199.815L215.616,199.826L216.81,199.837L218.004,199.847L219.199,199.856L220.393,199.865L221.587,199.873L222.782,199.881L223.976,199.888L225.17,199.895L226.365,199.901L227.559,199.907L228.753,199.913L229.948,199.918L231.142,199.923L232.336,199.928L233.531,199.932L234.725,199.936L235.919,199.94L237.114,199.944L238.308,199.947L239.502,199.95L240,199.952L240.697,199.953L241.891,199.956L243.085,199.959L244.28,199.961L245.474,199.964L246.668,199.966L247.863,199.968L249.057,199.97L250.251,199.972L251.446,199.974L252.64,199.975L253.834,199.977L255.029,199.978L256.223,199.979L257.417,199.981L258.612,199.982L259.806,199.983" stroke="#e15759" stroke-width="1.5"/></g></g><path class="foreground" aria-hidden="true" d="" display="none"/></g><g transform="translate(0,0)"><path class="background" aria-hidden="true" d="M0,0h300v200h-300Z"/><g><g class="mark-line role-mark layer_0_marks" role="graphics-object" aria-roledescription="line mark container"><path aria-label="Sera Dilution: 2e-5; Fraction Infectivity: 0.754269945177; Serum: NiV-sG_Pig58" role="graphics-symbol" aria-roledescription="line mark" d="M22.132,49.146L23.326,51.377L24.521,53.673L25.715,56.033L26.909,58.455L28.104,60.938L29.298,63.479L30.492,66.076L31.687,68.725L32.881,71.424L34.075,74.169L35.27,76.956L36.464,79.782L37.658,82.641L38.853,85.531L40.047,88.445L41.242,91.379L41.938,93.098L42.436,94.328L43.63,97.288L44.825,100.251L46.019,103.215L47.213,106.173L48.408,109.12L49.602,112.051L50.796,114.961L51.991,117.846L53.185,120.7L54.379,123.52L55.574,126.3L56.768,129.037L57.962,131.728L59.157,134.369L60.351,136.956L61.545,139.487L62.74,141.96L63.934,144.372L65.128,146.721L66.323,149.006L67.517,151.226L68.711,153.379L68.768,153.479L69.906,155.466L71.1,157.484L72.294,159.435L73.489,161.319L74.683,163.135L75.877,164.885L77.072,166.569L78.266,168.187L79.46,169.741L80.655,171.233L81.849,172.663L83.043,174.032L84.238,175.343L85.432,176.596L86.627,177.794L87.821,178.937L89.015,180.029L90.21,181.07L91.404,182.062L92.598,183.007L93.793,183.906L94.987,184.762L96.181,185.576L96.767,185.961L97.376,186.35L98.57,187.085L99.764,187.783L100.959,188.446L102.153,189.075L103.347,189.671L104.542,190.237L105.736,190.773L106.93,191.281L108.125,191.762L109.319,192.218L110.513,192.649L111.708,193.058L112.902,193.444L114.096,193.81L115.291,194.156L116.485,194.483L117.679,194.793L118.874,195.085L120.068,195.361L121.262,195.623L122.457,195.869L123.651,196.102L124.845,196.323L125.394,196.42L126.04,196.531L127.234,196.727L128.429,196.913L129.623,197.088L130.817,197.253L132.012,197.409L133.206,197.557L134.4,197.696L135.595,197.827L136.789,197.951L137.983,198.068L139.178,198.178L140.372,198.282L141.566,198.38L142.761,198.472L143.955,198.56L145.149,198.642L146.344,198.72L147.538,198.793L148.732,198.862L149.927,198.927L151.121,198.989L152.315,199.047L153.51,199.101L154.092,199.127L154.704,199.153L155.898,199.201L157.093,199.247L158.287,199.29L159.481,199.331L160.676,199.369L161.87,199.406L163.064,199.44L164.259,199.472L165.453,199.502L166.647,199.531L167.842,199.558L169.036,199.583L170.23,199.607L171.425,199.63L172.619,199.651L173.814,199.671L175.008,199.69L176.202,199.708L177.397,199.725L178.591,199.74L179.785,199.755L180.98,199.769L182.174,199.783L182.743,199.789L183.368,199.795L184.563,199.807L185.757,199.818L186.951,199.829L188.146,199.838L189.34,199.848L190.534,199.856L191.729,199.865L192.923,199.872L194.117,199.88L195.312,199.887L196.506,199.893L197.7,199.899L198.895,199.905L200.089,199.911L201.283,199.916L202.478,199.921L203.672,199.925L204.866,199.93L206.061,199.934L207.255,199.937L208.449,199.941L209.644,199.944L210.838,199.948L211.37,199.949L212.032,199.951L213.227,199.953L214.421,199.956L215.616,199.959L216.81,199.961L218.004,199.963L219.199,199.965L220.393,199.967L221.587,199.969L222.782,199.971L223.976,199.973L225.17,199.974L226.365,199.976L227.559,199.977L228.753,199.978L229.948,199.98L231.142,199.981L232.336,199.982L233.531,199.983L234.725,199.984L235.919,199.985L237.114,199.986L238.308,199.987L239.502,199.987L240,199.988L240.697,199.988L241.891,199.989L243.085,199.989L244.28,199.99L245.474,199.991L246.668,199.991L247.863,199.992L249.057,199.992L250.251,199.993L251.446,199.993L252.64,199.993L253.834,199.994L255.029,199.994L256.223,199.994L257.417,199.995L258.612,199.995L259.806,199.995" stroke="#76b7b2" stroke-width="1.5"/></g></g><path class="foreground" aria-hidden="true" d="" display="none"/></g></g><g class="mark-symbol role-mark layer_1_marks" role="graphics-object" aria-roledescription="symbol mark container"><path aria-label="Sera Dilution: 5e-5; Fraction Infectivity: 0.52; Serum: NiV-sG_Pig42" role="graphics-symbol" aria-roledescription="circle" transform="translate(41.93820026016115,96)" d="M2.739,0A2.739,2.739,0,1,1,-2.739,0A2.739,2.739,0,1,1,2.739,0" fill="#4e79a7" stroke-width="2" opacity="1"/><path aria-label="Sera Dilution: 1e-4; Fraction Infectivity: 0.1839; Serum: NiV-sG_Pig42" role="graphics-symbol" aria-roledescription="circle" transform="translate(68.76768214069429,163.22)" d="M2.739,0A2.739,2.739,0,1,1,-2.739,0A2.739,2.739,0,1,1,2.739,0" fill="#4e79a7" stroke-width="2" opacity="1"/><path aria-label="Sera Dilution: 4e-4; Fraction Infectivity: 0.00895; Serum: NiV-sG_Pig42" role="graphics-symbol" aria-roledescription="circle" transform="translate(96.76703140318413,198.21)" d="M2.739,0A2.739,2.739,0,1,1,-2.739,0A2.739,2.739,0,1,1,2.739,0" fill="#4e79a7" stroke-width="2" opacity="1"/><path aria-label="Sera Dilution: 1e-3; Fraction Infectivity: 0; Serum: NiV-sG_Pig42" role="graphics-symbol" aria-roledescription="circle" transform="translate(125.39430668636389,200)" d="M2.739,0A2.739,2.739,0,1,1,-2.739,0A2.739,2.739,0,1,1,2.739,0" fill="#4e79a7" stroke-width="2" opacity="1"/><path aria-label="Sera Dilution: 4e-3; Fraction Infectivity: 0; Serum: NiV-sG_Pig42" role="graphics-symbol" aria-roledescription="circle" transform="translate(154.0921034440197,200)" d="M2.739,0A2.739,2.739,0,1,1,-2.739,0A2.739,2.739,0,1,1,2.739,0" fill="#4e79a7" stroke-width="2" opacity="1"/><path aria-label="Sera Dilution: 1e-2; Fraction Infectivity: 0; Serum: NiV-sG_Pig42" role="graphics-symbol" aria-roledescription="circle" transform="translate(182.74284353645206,200)" d="M2.739,0A2.739,2.739,0,1,1,-2.739,0A2.739,2.739,0,1,1,2.739,0" fill="#4e79a7" stroke-width="2" opacity="1"/><path aria-label="Sera Dilution: 3e-2; Fraction Infectivity: 0; Serum: NiV-sG_Pig42" role="graphics-symbol" aria-roledescription="circle" transform="translate(211.3701188196318,200)" d="M2.739,0A2.739,2.739,0,1,1,-2.739,0A2.739,2.739,0,1,1,2.739,0" fill="#4e79a7" stroke-width="2" opacity="1"/><path aria-label="Sera Dilution: 1e-1; Fraction Infectivity: 0; Serum: NiV-sG_Pig42" role="graphics-symbol" aria-roledescription="circle" transform="translate(240,200)" d="M2.739,0A2.739,2.739,0,1,1,-2.739,0A2.739,2.739,0,1,1,2.739,0" fill="#4e79a7" stroke-width="2" opacity="1"/><path aria-label="Sera Dilution: 5e-5; Fraction Infectivity: 0.679855; Serum: NiV-sG_Pig47" role="graphics-symbol" aria-roledescription="circle" transform="translate(41.93820026016115,64.02899999999998)" d="M2.739,0A2.739,2.739,0,1,1,-2.739,0A2.739,2.739,0,1,1,2.739,0" fill="#f28e2c" stroke-width="2" opacity="1"/><path aria-label="Sera Dilution: 1e-4; Fraction Infectivity: 0.457835; Serum: NiV-sG_Pig47" role="graphics-symbol" aria-roledescription="circle" transform="translate(68.76768214069429,108.433)" d="M2.739,0A2.739,2.739,0,1,1,-2.739,0A2.739,2.739,0,1,1,2.739,0" fill="#f28e2c" stroke-width="2" opacity="1"/><path aria-label="Sera Dilution: 4e-4; Fraction Infectivity: 0.148285; Serum: NiV-sG_Pig47" role="graphics-symbol" aria-roledescription="circle" transform="translate(96.76703140318413,170.343)" d="M2.739,0A2.739,2.739,0,1,1,-2.739,0A2.739,2.739,0,1,1,2.739,0" fill="#f28e2c" stroke-width="2" opacity="1"/><path aria-label="Sera Dilution: 1e-3; Fraction Infectivity: 0.003975; Serum: NiV-sG_Pig47" role="graphics-symbol" aria-roledescription="circle" transform="translate(125.39430668636389,199.205)" d="M2.739,0A2.739,2.739,0,1,1,-2.739,0A2.739,2.739,0,1,1,2.739,0" fill="#f28e2c" stroke-width="2" opacity="1"/><path aria-label="Sera Dilution: 4e-3; Fraction Infectivity: 0; Serum: NiV-sG_Pig47" role="graphics-symbol" aria-roledescription="circle" transform="translate(154.0921034440197,200)" d="M2.739,0A2.739,2.739,0,1,1,-2.739,0A2.739,2.739,0,1,1,2.739,0" fill="#f28e2c" stroke-width="2" opacity="1"/><path aria-label="Sera Dilution: 1e-2; Fraction Infectivity: 0; Serum: NiV-sG_Pig47" role="graphics-symbol" aria-roledescription="circle" transform="translate(182.74284353645206,200)" d="M2.739,0A2.739,2.739,0,1,1,-2.739,0A2.739,2.739,0,1,1,2.739,0" fill="#f28e2c" stroke-width="2" opacity="1"/><path aria-label="Sera Dilution: 3e-2; Fraction Infectivity: 0; Serum: NiV-sG_Pig47" role="graphics-symbol" aria-roledescription="circle" transform="translate(211.3701188196318,200)" d="M2.739,0A2.739,2.739,0,1,1,-2.739,0A2.739,2.739,0,1,1,2.739,0" fill="#f28e2c" stroke-width="2" opacity="1"/><path aria-label="Sera Dilution: 1e-1; Fraction Infectivity: 0; Serum: NiV-sG_Pig47" role="graphics-symbol" aria-roledescription="circle" transform="translate(240,200)" d="M2.739,0A2.739,2.739,0,1,1,-2.739,0A2.739,2.739,0,1,1,2.739,0" fill="#f28e2c" stroke-width="2" opacity="1"/><path aria-label="Sera Dilution: 5e-5; Fraction Infectivity: 0.8513; Serum: NiV-sG_Pig53" role="graphics-symbol" aria-roledescription="circle" transform="translate(41.93820026016115,29.74000000000001)" d="M2.739,0A2.739,2.739,0,1,1,-2.739,0A2.739,2.739,0,1,1,2.739,0" fill="#e15759" stroke-width="2" opacity="1"/><path aria-label="Sera Dilution: 1e-4; Fraction Infectivity: 0.6783; Serum: NiV-sG_Pig53" role="graphics-symbol" aria-roledescription="circle" transform="translate(68.76768214069429,64.34)" d="M2.739,0A2.739,2.739,0,1,1,-2.739,0A2.739,2.739,0,1,1,2.739,0" fill="#e15759" stroke-width="2" opacity="1"/><path aria-label="Sera Dilution: 4e-4; Fraction Infectivity: 0.3193; Serum: NiV-sG_Pig53" role="graphics-symbol" aria-roledescription="circle" transform="translate(96.76703140318413,136.14)" d="M2.739,0A2.739,2.739,0,1,1,-2.739,0A2.739,2.739,0,1,1,2.739,0" fill="#e15759" stroke-width="2" opacity="1"/><path aria-label="Sera Dilution: 1e-3; Fraction Infectivity: 0.0643; Serum: NiV-sG_Pig53" role="graphics-symbol" aria-roledescription="circle" transform="translate(125.39430668636389,187.14)" d="M2.739,0A2.739,2.739,0,1,1,-2.739,0A2.739,2.739,0,1,1,2.739,0" fill="#e15759" stroke-width="2" opacity="1"/><path aria-label="Sera Dilution: 4e-3; Fraction Infectivity: 0.00075; Serum: NiV-sG_Pig53" role="graphics-symbol" aria-roledescription="circle" transform="translate(154.0921034440197,199.85)" d="M2.739,0A2.739,2.739,0,1,1,-2.739,0A2.739,2.739,0,1,1,2.739,0" fill="#e15759" stroke-width="2" opacity="1"/><path aria-label="Sera Dilution: 1e-2; Fraction Infectivity: 0; Serum: NiV-sG_Pig53" role="graphics-symbol" aria-roledescription="circle" transform="translate(182.74284353645206,200)" d="M2.739,0A2.739,2.739,0,1,1,-2.739,0A2.739,2.739,0,1,1,2.739,0" fill="#e15759" stroke-width="2" opacity="1"/><path aria-label="Sera Dilution: 3e-2; Fraction Infectivity: 0; Serum: NiV-sG_Pig53" role="graphics-symbol" aria-roledescription="circle" transform="translate(211.3701188196318,200)" d="M2.739,0A2.739,2.739,0,1,1,-2.739,0A2.739,2.739,0,1,1,2.739,0" fill="#e15759" stroke-width="2" opacity="1"/><path aria-label="Sera Dilution: 1e-1; Fraction Infectivity: 0; Serum: NiV-sG_Pig53" role="graphics-symbol" aria-roledescription="circle" transform="translate(240,200)" d="M2.739,0A2.739,2.739,0,1,1,-2.739,0A2.739,2.739,0,1,1,2.739,0" fill="#e15759" stroke-width="2" opacity="1"/><path aria-label="Sera Dilution: 5e-5; Fraction Infectivity: 0.5247; Serum: NiV-sG_Pig58" role="graphics-symbol" aria-roledescription="circle" transform="translate(41.93820026016115,95.06000000000002)" d="M2.739,0A2.739,2.739,0,1,1,-2.739,0A2.739,2.739,0,1,1,2.739,0" fill="#76b7b2" stroke-width="2" opacity="1"/><path aria-label="Sera Dilution: 1e-4; Fraction Infectivity: 0.2574; Serum: NiV-sG_Pig58" role="graphics-symbol" aria-roledescription="circle" transform="translate(68.76768214069429,148.51999999999998)" d="M2.739,0A2.739,2.739,0,1,1,-2.739,0A2.739,2.739,0,1,1,2.739,0" fill="#76b7b2" stroke-width="2" opacity="1"/><path aria-label="Sera Dilution: 4e-4; Fraction Infectivity: 0.04475; Serum: NiV-sG_Pig58" role="graphics-symbol" aria-roledescription="circle" transform="translate(96.76703140318413,191.05)" d="M2.739,0A2.739,2.739,0,1,1,-2.739,0A2.739,2.739,0,1,1,2.739,0" fill="#76b7b2" stroke-width="2" opacity="1"/><path aria-label="Sera Dilution: 1e-3; Fraction Infectivity: 0.0006; Serum: NiV-sG_Pig58" role="graphics-symbol" aria-roledescription="circle" transform="translate(125.39430668636389,199.88)" d="M2.739,0A2.739,2.739,0,1,1,-2.739,0A2.739,2.739,0,1,1,2.739,0" fill="#76b7b2" stroke-width="2" opacity="1"/><path aria-label="Sera Dilution: 4e-3; Fraction Infectivity: 0; Serum: NiV-sG_Pig58" role="graphics-symbol" aria-roledescription="circle" transform="translate(154.0921034440197,200)" d="M2.739,0A2.739,2.739,0,1,1,-2.739,0A2.739,2.739,0,1,1,2.739,0" fill="#76b7b2" stroke-width="2" opacity="1"/><path aria-label="Sera Dilution: 1e-2; Fraction Infectivity: 0; Serum: NiV-sG_Pig58" role="graphics-symbol" aria-roledescription="circle" transform="translate(182.74284353645206,200)" d="M2.739,0A2.739,2.739,0,1,1,-2.739,0A2.739,2.739,0,1,1,2.739,0" fill="#76b7b2" stroke-width="2" opacity="1"/><path aria-label="Sera Dilution: 3e-2; Fraction Infectivity: 0; Serum: NiV-sG_Pig58" role="graphics-symbol" aria-roledescription="circle" transform="translate(211.3701188196318,200)" d="M2.739,0A2.739,2.739,0,1,1,-2.739,0A2.739,2.739,0,1,1,2.739,0" fill="#76b7b2" stroke-width="2" opacity="1"/><path aria-label="Sera Dilution: 1e-1; Fraction Infectivity: 0; Serum: NiV-sG_Pig58" role="graphics-symbol" aria-roledescription="circle" transform="translate(240,200)" d="M2.739,0A2.739,2.739,0,1,1,-2.739,0A2.739,2.739,0,1,1,2.739,0" fill="#76b7b2" stroke-width="2" opacity="1"/></g><g class="mark-rule role-mark layer_2_marks" role="graphics-object" aria-roledescription="rule mark container"><line aria-label="concentration: 0.00005; Fraction Infectivity: 0.5077; upper_lower: 0.5323; serum: NiV-sG_Pig42; upper: 0.5323; lower: 0.5077" role="graphics-symbol" aria-roledescription="errorbar" transform="translate(41.93820026016115,98.46)" x2="0" y2="-4.9199999999999875" stroke="#4e79a7" opacity="1"/><line aria-label="concentration: 0.00014; Fraction Infectivity: 0.1614; upper_lower: 0.2064; serum: NiV-sG_Pig42; upper: 0.2064; lower: 0.1614" role="graphics-symbol" aria-roledescription="errorbar" transform="translate(68.76768214069429,167.72)" x2="0" y2="-9" stroke="#4e79a7" opacity="1"/><line aria-label="concentration: 0.00041; Fraction Infectivity: 0.0067; upper_lower: 0.0112; serum: NiV-sG_Pig42; upper: 0.0112; lower: 0.0067" role="graphics-symbol" aria-roledescription="errorbar" transform="translate(96.76703140318413,198.66)" x2="0" y2="-0.9000000000000057" stroke="#4e79a7" opacity="1"/><line aria-label="concentration: 0.00123; Fraction Infectivity: 0; upper_lower: 0; serum: NiV-sG_Pig42; upper: 0; lower: 0" role="graphics-symbol" aria-roledescription="errorbar" transform="translate(125.39430668636389,200)" x2="0" y2="0" stroke="#4e79a7" opacity="1"/><line aria-label="concentration: 0.0037; Fraction Infectivity: 0; upper_lower: 0; serum: NiV-sG_Pig42; upper: 0; lower: 0" role="graphics-symbol" aria-roledescription="errorbar" transform="translate(154.0921034440197,200)" x2="0" y2="0" stroke="#4e79a7" opacity="1"/><line aria-label="concentration: 0.01111; Fraction Infectivity: 0; upper_lower: 0; serum: NiV-sG_Pig42; upper: 0; lower: 0" role="graphics-symbol" aria-roledescription="errorbar" transform="translate(182.74284353645206,200)" x2="0" y2="0" stroke="#4e79a7" opacity="1"/><line aria-label="concentration: 0.03333; Fraction Infectivity: 0; upper_lower: 0; serum: NiV-sG_Pig42; upper: 0; lower: 0" role="graphics-symbol" aria-roledescription="errorbar" transform="translate(211.3701188196318,200)" x2="0" y2="0" stroke="#4e79a7" opacity="1"/><line aria-label="concentration: 0.1; Fraction Infectivity: 0; upper_lower: 0; serum: NiV-sG_Pig42; upper: 0; lower: 0" role="graphics-symbol" aria-roledescription="errorbar" transform="translate(240,200)" x2="0" y2="0" stroke="#4e79a7" opacity="1"/><line aria-label="concentration: 0.00005; Fraction Infectivity: 0.64973; upper_lower: 0.70998; serum: NiV-sG_Pig47; upper: 0.70998; lower: 0.64973" role="graphics-symbol" aria-roledescription="errorbar" transform="translate(41.93820026016115,70.05399999999999)" x2="0" y2="-12.050000000000018" stroke="#f28e2c" opacity="1"/><line aria-label="concentration: 0.00014; Fraction Infectivity: 0.45076; upper_lower: 0.46491; serum: NiV-sG_Pig47; upper: 0.46491; lower: 0.45076" role="graphics-symbol" aria-roledescription="errorbar" transform="translate(68.76768214069429,109.84799999999998)" x2="0" y2="-2.82999999999997" stroke="#f28e2c" opacity="1"/><line aria-label="concentration: 0.00041; Fraction Infectivity: 0.1394; upper_lower: 0.15717; serum: NiV-sG_Pig47; upper: 0.15717; lower: 0.1394" role="graphics-symbol" aria-roledescription="errorbar" transform="translate(96.76703140318413,172.12)" x2="0" y2="-3.554000000000002" stroke="#f28e2c" opacity="1"/><line aria-label="concentration: 0.00123; Fraction Infectivity: 0.00364; upper_lower: 0.00431; serum: NiV-sG_Pig47; upper: 0.00431; lower: 0.00364" role="graphics-symbol" aria-roledescription="errorbar" transform="translate(125.39430668636389,199.272)" x2="0" y2="-0.13399999999998613" stroke="#f28e2c" opacity="1"/><line aria-label="concentration: 0.0037; Fraction Infectivity: 0; upper_lower: 0; serum: NiV-sG_Pig47; upper: 0; lower: 0" role="graphics-symbol" aria-roledescription="errorbar" transform="translate(154.0921034440197,200)" x2="0" y2="0" stroke="#f28e2c" opacity="1"/><line aria-label="concentration: 0.01111; Fraction Infectivity: 0; upper_lower: 0; serum: NiV-sG_Pig47; upper: 0; lower: 0" role="graphics-symbol" aria-roledescription="errorbar" transform="translate(182.74284353645206,200)" x2="0" y2="0" stroke="#f28e2c" opacity="1"/><line aria-label="concentration: 0.03333; Fraction Infectivity: 0; upper_lower: 0; serum: NiV-sG_Pig47; upper: 0; lower: 0" role="graphics-symbol" aria-roledescription="errorbar" transform="translate(211.3701188196318,200)" x2="0" y2="0" stroke="#f28e2c" opacity="1"/><line aria-label="concentration: 0.1; Fraction Infectivity: 0; upper_lower: 0; serum: NiV-sG_Pig47; upper: 0; lower: 0" role="graphics-symbol" aria-roledescription="errorbar" transform="translate(240,200)" x2="0" y2="0" stroke="#f28e2c" opacity="1"/><line aria-label="concentration: 0.00005; Fraction Infectivity: 0.7817; upper_lower: 0.9209; serum: NiV-sG_Pig53; upper: 0.9209; lower: 0.7817" role="graphics-symbol" aria-roledescription="errorbar" transform="translate(41.93820026016115,43.66000000000003)" x2="0" y2="-27.840000000000042" stroke="#e15759" opacity="1"/><line aria-label="concentration: 0.00014; Fraction Infectivity: 0.6655; upper_lower: 0.6911; serum: NiV-sG_Pig53; upper: 0.6911; lower: 0.6655" role="graphics-symbol" aria-roledescription="errorbar" transform="translate(68.76768214069429,66.9)" x2="0" y2="-5.120000000000019" stroke="#e15759" opacity="1"/><line aria-label="concentration: 0.00041; Fraction Infectivity: 0.2861; upper_lower: 0.3525; serum: NiV-sG_Pig53; upper: 0.3525; lower: 0.2861" role="graphics-symbol" aria-roledescription="errorbar" transform="translate(96.76703140318413,142.78)" x2="0" y2="-13.280000000000001" stroke="#e15759" opacity="1"/><line aria-label="concentration: 0.00123; Fraction Infectivity: 0.0564; upper_lower: 0.0722; serum: NiV-sG_Pig53; upper: 0.0722; lower: 0.0564" role="graphics-symbol" aria-roledescription="errorbar" transform="translate(125.39430668636389,188.72)" x2="0" y2="-3.1599999999999966" stroke="#e15759" opacity="1"/><line aria-label="concentration: 0.0037; Fraction Infectivity: 0.0004; upper_lower: 0.0011; serum: NiV-sG_Pig53; upper: 0.0011; lower: 0.0004" role="graphics-symbol" aria-roledescription="errorbar" transform="translate(154.0921034440197,199.92000000000002)" x2="0" y2="-0.14000000000001478" stroke="#e15759" opacity="1"/><line aria-label="concentration: 0.01111; Fraction Infectivity: 0; upper_lower: 0; serum: NiV-sG_Pig53; upper: 0; lower: 0" role="graphics-symbol" aria-roledescription="errorbar" transform="translate(182.74284353645206,200)" x2="0" y2="0" stroke="#e15759" opacity="1"/><line aria-label="concentration: 0.03333; Fraction Infectivity: 0; upper_lower: 0; serum: NiV-sG_Pig53; upper: 0; lower: 0" role="graphics-symbol" aria-roledescription="errorbar" transform="translate(211.3701188196318,200)" x2="0" y2="0" stroke="#e15759" opacity="1"/><line aria-label="concentration: 0.1; Fraction Infectivity: 0; upper_lower: 0; serum: NiV-sG_Pig53; upper: 0; lower: 0" role="graphics-symbol" aria-roledescription="errorbar" transform="translate(240,200)" x2="0" y2="0" stroke="#e15759" opacity="1"/><line aria-label="concentration: 0.00005; Fraction Infectivity: 0.4129; upper_lower: 0.6365; serum: NiV-sG_Pig58; upper: 0.6365; lower: 0.4129" role="graphics-symbol" aria-roledescription="errorbar" transform="translate(41.93820026016115,117.42000000000002)" x2="0" y2="-44.72000000000001" stroke="#76b7b2" opacity="1"/><line aria-label="concentration: 0.00014; Fraction Infectivity: 0.1932; upper_lower: 0.3216; serum: NiV-sG_Pig58; upper: 0.3216; lower: 0.1932" role="graphics-symbol" aria-roledescription="errorbar" transform="translate(68.76768214069429,161.35999999999999)" x2="0" y2="-25.67999999999998" stroke="#76b7b2" opacity="1"/><line aria-label="concentration: 0.00041; Fraction Infectivity: 0.0193; upper_lower: 0.0702; serum: NiV-sG_Pig58; upper: 0.0702; lower: 0.0193" role="graphics-symbol" aria-roledescription="errorbar" transform="translate(96.76703140318413,196.14000000000001)" x2="0" y2="-10.180000000000035" stroke="#76b7b2" opacity="1"/><line aria-label="concentration: 0.00123; Fraction Infectivity: 0.0001; upper_lower: 0.0011; serum: NiV-sG_Pig58; upper: 0.0011; lower: 0.0001" role="graphics-symbol" aria-roledescription="errorbar" transform="translate(125.39430668636389,199.98)" x2="0" y2="-0.19999999999998863" stroke="#76b7b2" opacity="1"/><line aria-label="concentration: 0.0037; Fraction Infectivity: 0; upper_lower: 0; serum: NiV-sG_Pig58; upper: 0; lower: 0" role="graphics-symbol" aria-roledescription="errorbar" transform="translate(154.0921034440197,200)" x2="0" y2="0" stroke="#76b7b2" opacity="1"/><line aria-label="concentration: 0.01111; Fraction Infectivity: 0; upper_lower: 0; serum: NiV-sG_Pig58; upper: 0; lower: 0" role="graphics-symbol" aria-roledescription="errorbar" transform="translate(182.74284353645206,200)" x2="0" y2="0" stroke="#76b7b2" opacity="1"/><line aria-label="concentration: 0.03333; Fraction Infectivity: 0; upper_lower: 0; serum: NiV-sG_Pig58; upper: 0; lower: 0" role="graphics-symbol" aria-roledescription="errorbar" transform="translate(211.3701188196318,200)" x2="0" y2="0" stroke="#76b7b2" opacity="1"/><line aria-label="concentration: 0.1; Fraction Infectivity: 0; upper_lower: 0; serum: NiV-sG_Pig58; upper: 0; lower: 0" role="graphics-symbol" aria-roledescription="errorbar" transform="translate(240,200)" x2="0" y2="0" stroke="#76b7b2" opacity="1"/></g><g class="mark-group role-legend" role="graphics-symbol" aria-roledescription="legend" aria-label="Symbol legend titled 'Serum' for fill color and stroke color with 4 values: NiV-sG_Pig42, NiV-sG_Pig47, NiV-sG_Pig53, NiV-sG_Pig58"><g transform="translate(318,0)"><path class="background" aria-hidden="true" d="M0,0h116v91h-116Z" pointer-events="none"/><g><g class="mark-group role-legend-entry"><g transform="translate(5,24)"><path class="background" aria-hidden="true" d="M0,0h0v0h0Z" pointer-events="none"/><g><g class="mark-group role-scope" role="graphics-object" aria-roledescription="group mark container"><g transform="translate(0,0)"><path class="background" aria-hidden="true" d="M0,0h105.9375v14h-105.9375Z" pointer-events="none" opacity="1"/><g><g class="mark-symbol role-legend-symbol" pointer-events="none"><path transform="translate(7,7)" d="M5,0A5,5,0,1,1,-5,0A5,5,0,1,1,5,0" fill="#4e79a7" stroke="#4e79a7" stroke-width="1.5" opacity="1"/></g><g class="mark-text role-legend-label" pointer-events="none"><text text-anchor="start" transform="translate(18,11)" font-family="Helvetica" font-size="14px" fill="#000" opacity="1">NiV-sG_Pig42</text></g></g><path class="foreground" aria-hidden="true" d="" pointer-events="none" display="none"/></g><g transform="translate(0,16)"><path class="background" aria-hidden="true" d="M0,0h105.9375v14h-105.9375Z" pointer-events="none" opacity="1"/><g><g class="mark-symbol role-legend-symbol" pointer-events="none"><path transform="translate(7,7)" d="M5,0A5,5,0,1,1,-5,0A5,5,0,1,1,5,0" fill="#f28e2c" stroke="#f28e2c" stroke-width="1.5" opacity="1"/></g><g class="mark-text role-legend-label" pointer-events="none"><text text-anchor="start" transform="translate(18,11)" font-family="Helvetica" font-size="14px" fill="#000" opacity="1">NiV-sG_Pig47</text></g></g><path class="foreground" aria-hidden="true" d="" pointer-events="none" display="none"/></g><g transform="translate(0,32)"><path class="background" aria-hidden="true" d="M0,0h105.9375v14h-105.9375Z" pointer-events="none" opacity="1"/><g><g class="mark-symbol role-legend-symbol" pointer-events="none"><path transform="translate(7,7)" d="M5,0A5,5,0,1,1,-5,0A5,5,0,1,1,5,0" fill="#e15759" stroke="#e15759" stroke-width="1.5" opacity="1"/></g><g class="mark-text role-legend-label" pointer-events="none"><text text-anchor="start" transform="translate(18,11)" font-family="Helvetica" font-size="14px" fill="#000" opacity="1">NiV-sG_Pig53</text></g></g><path class="foreground" aria-hidden="true" d="" pointer-events="none" display="none"/></g><g transform="translate(0,48)"><path class="background" aria-hidden="true" d="M0,0h105.9375v14h-105.9375Z" pointer-events="none" opacity="1"/><g><g class="mark-symbol role-legend-symbol" pointer-events="none"><path transform="translate(7,7)" d="M5,0A5,5,0,1,1,-5,0A5,5,0,1,1,5,0" fill="#76b7b2" stroke="#76b7b2" stroke-width="1.5" opacity="1"/></g><g class="mark-text role-legend-label" pointer-events="none"><text text-anchor="start" transform="translate(18,11)" font-family="Helvetica" font-size="14px" fill="#000" opacity="1">NiV-sG_Pig58</text></g></g><path class="foreground" aria-hidden="true" d="" pointer-events="none" display="none"/></g></g></g><path class="foreground" aria-hidden="true" d="" pointer-events="none" display="none"/></g></g><g class="mark-text role-legend-title" pointer-events="none"><text text-anchor="start" transform="translate(5,16)" font-family="Helvetica" font-size="14px" font-weight="bold" fill="#000" opacity="1">Serum</text></g></g><path class="foreground" aria-hidden="true" d="" pointer-events="none" display="none"/></g></g></g><path class="foreground" aria-hidden="true" d="" display="none"/></g></g></g></svg>