<svg xmlns="http://www.w3.org/2000/svg" xmlns:xlink="http://www.w3.org/1999/xlink" version="1.1" class="marks" width="482" height="256" viewBox="0 0 482 256"><rect width="482" height="256" fill="white"/><g fill="none" stroke-miterlimit="10" transform="translate(50,12)"><g class="mark-group role-frame root" role="graphics-object" aria-roledescription="group mark container"><g transform="translate(0,0)"><path class="background" aria-hidden="true" d="M0,0h300v200h-300Z" stroke-width="0"/><g><g class="mark-group role-axis" role="graphics-symbol" aria-roledescription="axis" aria-label="X-axis titled 'Sera Dilution' for a log scale with values from 1e-6 to 1e+0"><g transform="translate(0.5,200.5)"><path class="background" aria-hidden="true" d="M0,0h0v0h0Z" pointer-events="none"/><g><g class="mark-rule role-axis-tick" pointer-events="none"><line transform="translate(0,0)" x2="0" y2="4" stroke="black" stroke-width="1" opacity="1"/><line transform="translate(100,0)" x2="0" y2="4" stroke="black" stroke-width="1" opacity="1"/><line transform="translate(200,0)" x2="0" y2="4" stroke="black" stroke-width="1" opacity="1"/><line transform="translate(300,0)" x2="0" y2="4" stroke="black" stroke-width="1" opacity="1"/></g><g class="mark-text role-axis-label" pointer-events="none"><text text-anchor="middle" transform="translate(0,17)" font-family="Helvetica" font-size="14px" font-weight="normal" fill="#000" opacity="1">1e-6</text><text text-anchor="middle" transform="translate(100.00000000000001,17)" font-family="Helvetica" font-size="14px" font-weight="normal" fill="#000" opacity="1">1e-4</text><text text-anchor="middle" transform="translate(200.00000000000003,17)" font-family="Helvetica" font-size="14px" font-weight="normal" fill="#000" opacity="1">1e-2</text><text text-anchor="middle" transform="translate(300,17)" font-family="Helvetica" font-size="14px" font-weight="normal" fill="#000" opacity="1">1e+0</text></g><g class="mark-rule role-axis-domain" pointer-events="none"><line transform="translate(0,0)" x2="300" y2="0" stroke="black" stroke-width="1" opacity="1"/></g><g class="mark-text role-axis-title" pointer-events="none"><text text-anchor="middle" transform="translate(150,36)" font-family="Helvetica" font-size="14px" font-weight="bold" fill="#000" opacity="1">Sera Dilution</text></g></g><path class="foreground" aria-hidden="true" d="" pointer-events="none" display="none"/></g></g><g class="mark-group role-axis" role="graphics-symbol" aria-roledescription="axis" aria-label="Y-axis titled 'Fraction Infectivity' for a linear scale with values from 0.0 to 1.0"><g transform="translate(0.5,0.5)"><path class="background" aria-hidden="true" d="M0,0h0v0h0Z" pointer-events="none"/><g><g class="mark-rule role-axis-tick" pointer-events="none"><line transform="translate(0,200)" x2="-4" y2="0" stroke="black" stroke-width="1" opacity="1"/><line transform="translate(0,100)" x2="-4" y2="0" stroke="black" stroke-width="1" opacity="1"/><line transform="translate(0,0)" x2="-4" y2="0" stroke="black" stroke-width="1" opacity="1"/></g><g class="mark-text role-axis-label" pointer-events="none"><text text-anchor="end" transform="translate(-6,204)" font-family="Helvetica" font-size="14px" font-weight="normal" fill="#000" opacity="1">0.0</text><text text-anchor="end" transform="translate(-6,104)" font-family="Helvetica" font-size="14px" font-weight="normal" fill="#000" opacity="1">0.5</text><text text-anchor="end" transform="translate(-6,4)" font-family="Helvetica" font-size="14px" font-weight="normal" fill="#000" opacity="1">1.0</text></g><g class="mark-rule role-axis-domain" pointer-events="none"><line transform="translate(0,200)" x2="0" y2="-200" stroke="black" stroke-width="1" opacity="1"/></g><g class="mark-text role-axis-title" pointer-events="none"><text text-anchor="middle" transform="translate(-30.4619140625,100) rotate(-90) translate(0,-3)" font-family="Helvetica" font-size="14px" font-weight="bold" fill="#000" opacity="1">Fraction Infectivity</text></g></g><path class="foreground" aria-hidden="true" d="" pointer-events="none" display="none"/></g></g><g class="mark-group role-scope layer_0_pathgroup" role="graphics-object" aria-roledescription="group mark container"><g transform="translate(0,0)"><path class="background" aria-hidden="true" d="M0,0h300v200h-300Z"/><g><g class="mark-line role-mark layer_0_marks" role="graphics-object" aria-roledescription="line mark container"><path aria-label="Sera Dilution: 4e-6; Fraction Infectivity: 0.994957737421; Serum: HeV-sG_p36" role="graphics-symbol" aria-roledescription="line mark" d="M31.276,1.008L32.405,1.093L33.534,1.185L34.663,1.285L35.792,1.392L36.922,1.509L38.051,1.636L39.18,1.773L40.309,1.921L41.438,2.082L42.567,2.255L43.696,2.444L44.825,2.647L45.954,2.868L47.083,3.107L48.212,3.365L49.341,3.644L50,3.817L50.47,3.946L51.6,4.272L52.729,4.625L53.858,5.006L54.987,5.417L56.116,5.862L57.245,6.341L58.374,6.859L59.503,7.417L60.632,8.018L61.761,8.667L62.89,9.365L64.019,10.116L65.148,10.924L66.277,11.793L67.407,12.726L68.536,13.727L69.665,14.802L70.794,15.953L71.923,17.185L73.052,18.503L73.856,19.496L74.181,19.91L75.31,21.413L76.439,23.014L77.568,24.718L78.697,26.53L79.826,28.453L80.955,30.491L82.085,32.647L83.214,34.924L84.343,37.324L85.472,39.85L86.601,42.502L87.73,45.28L88.859,48.185L89.988,51.214L91.117,54.365L92.246,57.635L93.375,61.02L94.504,64.513L95.154,66.571L95.633,68.108L96.762,71.797L97.892,75.572L99.021,79.422L100.15,83.337L101.279,87.305L102.408,91.314L103.537,95.352L104.666,99.404L105.795,103.459L106.924,107.502L108.053,111.521L109.182,115.503L110.311,119.434L111.44,123.305L112.57,127.102L113.699,130.818L114.828,134.441L115.957,137.965L117.086,141.382L118.086,144.316L118.215,144.686L119.344,147.873L120.473,150.938L121.602,153.88L122.731,156.695L123.86,159.384L124.989,161.947L126.118,164.384L127.247,166.697L128.377,168.888L129.506,170.96L130.635,172.917L131.764,174.761L132.893,176.496L134.022,178.127L135.151,179.658L136.28,181.093L137.409,182.437L138.538,183.694L139.667,184.869L140.796,185.965L141.925,186.987L141.942,187.002L143.055,187.94L144.184,188.827L145.313,189.653L146.442,190.42L147.571,191.134L148.7,191.796L149.829,192.411L150.958,192.982L152.087,193.511L153.216,194.001L154.345,194.456L155.474,194.877L156.603,195.266L157.732,195.627L158.862,195.961L159.991,196.27L161.12,196.556L162.249,196.82L163.378,197.064L164.507,197.29L165.636,197.498L165.693,197.508L166.765,197.691L167.894,197.869L169.023,198.033L170.152,198.185L171.281,198.325L172.41,198.455L173.54,198.574L174.669,198.685L175.798,198.787L176.927,198.881L178.056,198.967L179.185,199.047L180.314,199.121L181.443,199.19L182.572,199.252L183.701,199.31L184.83,199.364L185.959,199.413L187.088,199.459L188.217,199.501L189.347,199.54L189.514,199.545L190.476,199.576L191.605,199.609L192.734,199.639L193.863,199.667L194.992,199.693L196.121,199.717L197.25,199.739L198.379,199.759L199.508,199.778L200.637,199.795L201.766,199.811L202.895,199.826L204.025,199.839L205.154,199.852L206.283,199.864L207.412,199.874L208.541,199.884L209.67,199.893L210.799,199.901L211.928,199.909L213.057,199.916L213.382,199.918L214.186,199.923L215.315,199.929L216.444,199.934L217.573,199.939L218.702,199.944L219.832,199.948L220.961,199.952L222.09,199.956L223.219,199.96L224.348,199.963L225.477,199.966L226.606,199.968L227.735,199.971L228.864,199.973L229.993,199.975L231.122,199.977L232.251,199.979L233.38,199.981L234.51,199.982L235.639,199.983L236.768,199.985L237.238,199.985L237.897,199.986L239.026,199.987L240.155,199.988L241.284,199.989L242.413,199.99L243.542,199.991L244.671,199.991L245.8,199.992L246.929,199.993L248.058,199.993L249.187,199.994L250.317,199.994L251.446,199.995L252.575,199.995L253.704,199.995L254.833,199.996L255.962,199.996" stroke="#4e79a7" stroke-width="1.5"/></g></g><path class="foreground" aria-hidden="true" d="" display="none"/></g><g transform="translate(0,0)"><path class="background" aria-hidden="true" d="M0,0h300v200h-300Z"/><g><g class="mark-line role-mark layer_0_marks" role="graphics-object" aria-roledescription="line mark container"><path aria-label="Sera Dilution: 4e-6; Fraction Infectivity: 0.987488389814; Serum: HeV-sG_p38" role="graphics-symbol" aria-roledescription="line mark" d="M31.276,2.502L32.405,2.721L33.534,2.959L34.663,3.217L35.792,3.498L36.922,3.802L38.051,4.132L39.18,4.491L40.309,4.879L41.438,5.3L42.567,5.757L43.696,6.252L44.825,6.787L45.954,7.367L47.083,7.995L48.212,8.673L49.341,9.406L50,9.86L50.47,10.198L51.6,11.052L52.729,11.974L53.858,12.967L54.987,14.036L56.116,15.187L57.245,16.423L58.374,17.751L59.503,19.174L60.632,20.699L61.761,22.33L62.89,24.072L64.019,25.93L65.148,27.909L66.277,30.013L67.407,32.246L68.536,34.611L69.665,37.111L70.794,39.749L71.923,42.525L73.052,45.44L73.856,47.6L74.181,48.493L75.31,51.683L76.439,55.006L77.568,58.459L78.697,62.035L79.826,65.729L80.955,69.533L82.085,73.435L83.214,77.427L84.343,81.496L85.472,85.63L86.601,89.814L87.73,94.035L88.859,98.277L89.988,102.526L91.117,106.765L92.246,110.98L93.375,115.156L94.504,119.278L95.154,121.622L95.633,123.334L96.762,127.309L97.892,131.194L99.021,134.977L100.15,138.65L101.279,142.204L102.408,145.632L103.537,148.931L104.666,152.095L105.795,155.122L106.924,158.011L108.053,160.76L109.182,163.372L110.311,165.846L111.44,168.186L112.57,170.394L113.699,172.474L114.828,174.43L115.957,176.266L117.086,177.987L118.086,179.42L118.215,179.597L119.344,181.103L120.473,182.507L121.602,183.817L122.731,185.037L123.86,186.172L124.989,187.226L126.118,188.206L127.247,189.114L128.377,189.957L129.506,190.737L130.635,191.459L131.764,192.128L132.893,192.746L134.022,193.317L135.151,193.845L136.28,194.332L137.409,194.782L138.538,195.197L139.667,195.579L140.796,195.932L141.925,196.257L141.942,196.262L143.055,196.557L144.184,196.833L145.313,197.087L146.442,197.322L147.571,197.537L148.7,197.735L149.829,197.918L150.958,198.086L152.087,198.241L153.216,198.383L154.345,198.514L155.474,198.634L156.603,198.744L157.732,198.846L158.862,198.94L159.991,199.026L161.12,199.105L162.249,199.177L163.378,199.244L164.507,199.305L165.636,199.362L165.693,199.365L166.765,199.414L167.894,199.461L169.023,199.505L170.152,199.545L171.281,199.582L172.41,199.616L173.54,199.647L174.669,199.676L175.798,199.702L176.927,199.727L178.056,199.749L179.185,199.769L180.314,199.788L181.443,199.805L182.572,199.821L183.701,199.836L184.83,199.849L185.959,199.861L187.088,199.873L188.217,199.883L189.347,199.893L189.514,199.894L190.476,199.901L191.605,199.909L192.734,199.917L193.863,199.924L194.992,199.93L196.121,199.935L197.25,199.941L198.379,199.946L199.508,199.95L200.637,199.954L201.766,199.958L202.895,199.961L204.025,199.964L205.154,199.967L206.283,199.97L207.412,199.972L208.541,199.975L209.67,199.977L210.799,199.979L211.928,199.98L213.057,199.982L213.382,199.982L214.186,199.983L215.315,199.985L216.444,199.986L217.573,199.987L218.702,199.988L219.832,199.989L220.961,199.99L222.09,199.991L223.219,199.992L224.348,199.992L225.477,199.993L226.606,199.993L227.735,199.994L228.864,199.995L229.993,199.995L231.122,199.995L232.251,199.996L233.38,199.996L234.51,199.996L235.639,199.997L236.768,199.997L237.238,199.997L237.897,199.997L239.026,199.997L240.155,199.998L241.284,199.998L242.413,199.998L243.542,199.998L244.671,199.998L245.8,199.998L246.929,199.999L248.058,199.999L249.187,199.999L250.317,199.999L251.446,199.999L252.575,199.999L253.704,199.999L254.833,199.999L255.962,199.999" stroke="#f28e2c" stroke-width="1.5"/></g></g><path class="foreground" aria-hidden="true" d="" display="none"/></g><g transform="translate(0,0)"><path class="background" aria-hidden="true" d="M0,0h300v200h-300Z"/><g><g class="mark-line role-mark layer_0_marks" role="graphics-object" aria-roledescription="line mark container"><path aria-label="Sera Dilution: 4e-6; Fraction Infectivity: 0.978267179899; Serum: HeV-sG_p44" role="graphics-symbol" aria-roledescription="line mark" d="M31.276,4.347L32.405,4.696L33.534,5.073L34.663,5.479L35.792,5.917L36.922,6.388L38.051,6.896L39.18,7.442L40.309,8.03L41.438,8.663L42.567,9.343L43.696,10.073L44.825,10.857L45.954,11.699L47.083,12.601L48.212,13.568L49.341,14.604L50,15.241L50.47,15.711L51.6,16.896L52.729,18.16L53.858,19.509L54.987,20.947L56.116,22.478L57.245,24.105L58.374,25.833L59.503,27.666L60.632,29.606L61.761,31.657L62.89,33.823L64.019,36.104L65.148,38.504L66.277,41.024L67.407,43.664L68.536,46.424L69.665,49.304L70.794,52.301L71.923,55.414L73.052,58.638L73.856,61L74.181,61.969L75.31,65.402L76.439,68.931L77.568,72.547L78.697,76.243L79.826,80.008L80.955,83.834L82.085,87.709L83.214,91.621L84.343,95.56L85.472,99.512L86.601,103.466L87.73,107.41L88.859,111.33L89.988,115.215L91.117,119.054L92.246,122.835L93.375,126.549L94.504,130.185L95.154,132.241L95.633,133.736L96.762,137.193L97.892,140.551L99.021,143.802L100.15,146.942L101.279,149.968L102.408,152.877L103.537,155.667L104.666,158.336L105.795,160.886L106.924,163.315L108.053,165.626L109.182,167.819L110.311,169.899L111.44,171.866L112.57,173.725L113.699,175.478L114.828,177.13L115.957,178.684L117.086,180.145L118.086,181.364L118.215,181.515L119.344,182.8L120.473,184.004L121.602,185.13L122.731,186.183L123.86,187.166L124.989,188.084L126.118,188.941L127.247,189.739L128.377,190.482L129.506,191.174L130.635,191.818L131.764,192.417L132.893,192.973L134.022,193.49L135.151,193.97L136.28,194.416L137.409,194.83L138.538,195.214L139.667,195.57L140.796,195.9L141.925,196.206L141.942,196.21L143.055,196.489L144.184,196.752L145.313,196.995L146.442,197.221L147.571,197.429L148.7,197.623L149.829,197.801L150.958,197.967L152.087,198.12L153.216,198.262L154.345,198.393L155.474,198.514L156.603,198.627L157.732,198.73L158.862,198.826L159.991,198.915L161.12,198.997L162.249,199.073L163.378,199.143L164.507,199.208L165.636,199.268L165.693,199.271L166.765,199.324L167.894,199.375L169.023,199.422L170.152,199.466L171.281,199.507L172.41,199.544L173.54,199.579L174.669,199.611L175.798,199.64L176.927,199.668L178.056,199.693L179.185,199.716L180.314,199.738L181.443,199.758L182.572,199.776L183.701,199.793L184.83,199.809L185.959,199.823L187.088,199.837L188.217,199.849L189.347,199.861L189.514,199.862L190.476,199.871L191.605,199.881L192.734,199.89L193.863,199.898L194.992,199.906L196.121,199.913L197.25,199.92L198.379,199.926L199.508,199.932L200.637,199.937L201.766,199.942L202.895,199.946L204.025,199.95L205.154,199.954L206.283,199.957L207.412,199.961L208.541,199.964L209.67,199.966L210.799,199.969L211.928,199.971L213.057,199.974L213.382,199.974L214.186,199.976L215.315,199.977L216.444,199.979L217.573,199.981L218.702,199.982L219.832,199.984L220.961,199.985L222.09,199.986L223.219,199.987L224.348,199.988L225.477,199.989L226.606,199.99L227.735,199.991L228.864,199.991L229.993,199.992L231.122,199.993L232.251,199.993L233.38,199.994L234.51,199.994L235.639,199.995L236.768,199.995L237.238,199.995L237.897,199.995L239.026,199.996L240.155,199.996L241.284,199.996L242.413,199.997L243.542,199.997L244.671,199.997L245.8,199.997L246.929,199.998L248.058,199.998L249.187,199.998L250.317,199.998L251.446,199.998L252.575,199.998L253.704,199.998L254.833,199.999L255.962,199.999" stroke="#e15759" stroke-width="1.5"/></g></g><path class="foreground" aria-hidden="true" d="" display="none"/></g><g transform="translate(0,0)"><path class="background" aria-hidden="true" d="M0,0h300v200h-300Z"/><g><g class="mark-line role-mark layer_0_marks" role="graphics-object" aria-roledescription="line mark container"><path aria-label="Sera Dilution: 4e-6; Fraction Infectivity: 0.806393825365; Serum: mRNA_p70" role="graphics-symbol" aria-roledescription="line mark" d="M31.276,38.721L32.405,40.953L33.534,43.279L34.663,45.699L35.792,48.212L36.922,50.819L38.051,53.516L39.18,56.303L40.309,59.176L41.438,62.133L42.567,65.169L43.696,68.28L44.825,71.46L45.954,74.705L47.083,78.007L48.212,81.361L49.341,84.759L50,86.758L50.47,88.193L51.6,91.655L52.729,95.138L53.858,98.633L54.987,102.131L56.116,105.624L57.245,109.103L58.374,112.56L59.503,115.987L60.632,119.376L61.761,122.719L62.89,126.01L64.019,129.241L65.148,132.406L66.277,135.501L67.407,138.52L68.536,141.459L69.665,144.313L70.794,147.081L71.923,149.759L73.052,152.345L73.856,154.13L74.181,154.838L75.31,157.238L76.439,159.543L77.568,161.754L78.697,163.872L79.826,165.897L80.955,167.831L82.085,169.675L83.214,171.432L84.343,173.103L85.472,174.69L86.601,176.197L87.73,177.626L88.859,178.979L89.988,180.259L91.117,181.47L92.246,182.613L93.375,183.692L94.504,184.71L95.154,185.269L95.633,185.669L96.762,186.573L97.892,187.423L99.021,188.223L100.15,188.975L101.279,189.682L102.408,190.345L103.537,190.968L104.666,191.553L105.795,192.101L106.924,192.615L108.053,193.097L109.182,193.548L110.311,193.971L111.44,194.367L112.57,194.738L113.699,195.085L114.828,195.409L115.957,195.713L117.086,195.997L118.086,196.233L118.215,196.262L119.344,196.51L120.473,196.742L121.602,196.959L122.731,197.162L123.86,197.351L124.989,197.528L126.118,197.693L127.247,197.847L128.377,197.991L129.506,198.126L130.635,198.251L131.764,198.368L132.893,198.478L134.022,198.58L135.151,198.675L136.28,198.764L137.409,198.847L138.538,198.925L139.667,198.997L140.796,199.065L141.925,199.128L141.942,199.128L143.055,199.186L144.184,199.241L145.313,199.292L146.442,199.34L147.571,199.384L148.7,199.426L149.829,199.464L150.958,199.501L152.087,199.534L153.216,199.566L154.345,199.595L155.474,199.622L156.603,199.648L157.732,199.672L158.862,199.694L159.991,199.714L161.12,199.734L162.249,199.752L163.378,199.768L164.507,199.784L165.636,199.799L165.693,199.799L166.765,199.812L167.894,199.825L169.023,199.837L170.152,199.848L171.281,199.858L172.41,199.868L173.54,199.877L174.669,199.885L175.798,199.893L176.927,199.9L178.056,199.907L179.185,199.913L180.314,199.919L181.443,199.924L182.572,199.929L183.701,199.934L184.83,199.939L185.959,199.943L187.088,199.947L188.217,199.95L189.347,199.954L189.514,199.954L190.476,199.957L191.605,199.96L192.734,199.962L193.863,199.965L194.992,199.967L196.121,199.97L197.25,199.972L198.379,199.974L199.508,199.975L200.637,199.977L201.766,199.979L202.895,199.98L204.025,199.981L205.154,199.983L206.283,199.984L207.412,199.985L208.541,199.986L209.67,199.987L210.799,199.988L211.928,199.989L213.057,199.989L213.382,199.99L214.186,199.99L215.315,199.991L216.444,199.991L217.573,199.992L218.702,199.992L219.832,199.993L220.961,199.993L222.09,199.994L223.219,199.994L224.348,199.995L225.477,199.995L226.606,199.995L227.735,199.996L228.864,199.996L229.993,199.996L231.122,199.997L232.251,199.997L233.38,199.997L234.51,199.997L235.639,199.997L236.768,199.998L237.238,199.998L237.897,199.998L239.026,199.998L240.155,199.998L241.284,199.998L242.413,199.998L243.542,199.998L244.671,199.998L245.8,199.999L246.929,199.999L248.058,199.999L249.187,199.999L250.317,199.999L251.446,199.999L252.575,199.999L253.704,199.999L254.833,199.999L255.962,199.999" stroke="#76b7b2" stroke-width="1.5"/></g></g><path class="foreground" aria-hidden="true" d="" display="none"/></g><g transform="translate(0,0)"><path class="background" aria-hidden="true" d="M0,0h300v200h-300Z"/><g><g class="mark-line role-mark layer_0_marks" role="graphics-object" aria-roledescription="line mark container"><path aria-label="Sera Dilution: 4e-6; Fraction Infectivity: 0.892988410391; Serum: mRNA_p71" role="graphics-symbol" aria-roledescription="line mark" d="M31.276,21.402L32.405,22.828L33.534,24.336L34.663,25.929L35.792,27.61L36.922,29.381L38.051,31.245L39.18,33.205L40.309,35.262L41.438,37.418L42.567,39.673L43.696,42.03L44.825,44.488L45.954,47.046L47.083,49.705L48.212,52.463L49.341,55.317L50,57.025L50.47,58.265L51.6,61.304L52.729,64.429L53.858,67.635L54.987,70.918L56.116,74.271L57.245,77.687L58.374,81.159L59.503,84.678L60.632,88.236L61.761,91.826L62.89,95.436L64.019,99.058L65.148,102.683L66.277,106.301L67.407,109.902L68.536,113.478L69.665,117.019L70.794,120.516L71.923,123.962L73.052,127.348L73.856,129.72L74.181,130.668L75.31,133.915L76.439,137.083L77.568,140.168L78.697,143.163L79.826,146.067L80.955,148.875L82.085,151.585L83.214,154.196L84.343,156.706L85.472,159.115L86.601,161.423L87.73,163.631L88.859,165.739L89.988,167.749L91.117,169.662L92.246,171.482L93.375,173.209L94.504,174.847L95.154,175.751L95.633,176.399L96.762,177.867L97.892,179.255L99.021,180.565L100.15,181.8L101.279,182.965L102.408,184.061L103.537,185.093L104.666,186.063L105.795,186.974L106.924,187.83L108.053,188.633L109.182,189.386L110.311,190.091L111.44,190.752L112.57,191.371L113.699,191.95L114.828,192.492L115.957,192.999L117.086,193.473L118.086,193.867L118.215,193.915L119.344,194.329L120.473,194.715L121.602,195.076L122.731,195.412L123.86,195.726L124.989,196.019L126.118,196.292L127.247,196.547L128.377,196.785L129.506,197.006L130.635,197.213L131.764,197.405L132.893,197.585L134.022,197.752L135.151,197.907L136.28,198.052L137.409,198.187L138.538,198.313L139.667,198.43L140.796,198.539L141.925,198.641L141.942,198.642L143.055,198.735L144.184,198.823L145.313,198.905L146.442,198.981L147.571,199.052L148.7,199.118L149.829,199.179L150.958,199.237L152.087,199.29L153.216,199.339L154.345,199.385L155.474,199.428L156.603,199.468L157.732,199.505L158.862,199.54L159.991,199.572L161.12,199.602L162.249,199.63L163.378,199.655L164.507,199.68L165.636,199.702L165.693,199.703L166.765,199.723L167.894,199.742L169.023,199.76L170.152,199.777L171.281,199.792L172.41,199.807L173.54,199.82L174.669,199.833L175.798,199.845L176.927,199.856L178.056,199.866L179.185,199.875L180.314,199.884L181.443,199.892L182.572,199.899L183.701,199.906L184.83,199.913L185.959,199.919L187.088,199.925L188.217,199.93L189.347,199.935L189.514,199.936L190.476,199.939L191.605,199.944L192.734,199.948L193.863,199.951L194.992,199.955L196.121,199.958L197.25,199.961L198.379,199.964L199.508,199.966L200.637,199.968L201.766,199.971L202.895,199.973L204.025,199.975L205.154,199.976L206.283,199.978L207.412,199.98L208.541,199.981L209.67,199.982L210.799,199.984L211.928,199.985L213.057,199.986L213.382,199.986L214.186,199.987L215.315,199.988L216.444,199.989L217.573,199.989L218.702,199.99L219.832,199.991L220.961,199.991L222.09,199.992L223.219,199.993L224.348,199.993L225.477,199.994L226.606,199.994L227.735,199.994L228.864,199.995L229.993,199.995L231.122,199.996L232.251,199.996L233.38,199.996L234.51,199.996L235.639,199.997L236.768,199.997L237.238,199.997L237.897,199.997L239.026,199.997L240.155,199.998L241.284,199.998L242.413,199.998L243.542,199.998L244.671,199.998L245.8,199.998L246.929,199.998L248.058,199.998L249.187,199.999L250.317,199.999L251.446,199.999L252.575,199.999L253.704,199.999L254.833,199.999L255.962,199.999" stroke="#59a14f" stroke-width="1.5"/></g></g><path class="foreground" aria-hidden="true" d="" display="none"/></g><g transform="translate(0,0)"><path class="background" aria-hidden="true" d="M0,0h300v200h-300Z"/><g><g class="mark-line role-mark layer_0_marks" role="graphics-object" aria-roledescription="line mark container"><path aria-label="Sera Dilution: 4e-6; Fraction Infectivity: 0.805368732566; Serum: mRNA_p72" role="graphics-symbol" aria-roledescription="line mark" d="M31.276,38.926L32.405,42.159L33.534,45.585L34.663,49.202L35.792,53.008L36.922,56.996L38.051,61.16L39.18,65.489L40.309,69.97L41.438,74.587L42.567,79.324L43.696,84.159L44.825,89.071L45.954,94.037L47.083,99.033L48.212,104.034L49.341,109.015L50,111.901L50.47,113.951L51.6,118.819L52.729,123.596L53.858,128.261L54.987,132.797L56.116,137.186L57.245,141.415L58.374,145.473L59.503,149.35L60.632,153.04L61.761,156.54L62.89,159.847L64.019,162.963L65.148,165.888L66.277,168.626L67.407,171.183L68.536,173.564L69.665,175.777L70.794,177.828L71.923,179.725L73.052,181.476L73.856,182.64L74.181,183.091L75.31,184.577L76.439,185.942L77.568,187.195L78.697,188.343L79.826,189.394L80.955,190.356L82.085,191.234L83.214,192.035L84.343,192.766L85.472,193.432L86.601,194.039L87.73,194.591L88.859,195.094L89.988,195.55L91.117,195.966L92.246,196.343L93.375,196.685L94.504,196.996L95.154,197.162L95.633,197.278L96.762,197.534L97.892,197.766L99.021,197.977L100.15,198.168L101.279,198.341L102.408,198.498L103.537,198.64L104.666,198.768L105.795,198.885L106.924,198.991L108.053,199.086L109.182,199.173L110.311,199.251L111.44,199.322L112.57,199.387L113.699,199.445L114.828,199.498L115.957,199.545L117.086,199.589L118.086,199.623L118.215,199.628L119.344,199.663L120.473,199.695L121.602,199.724L122.731,199.75L123.86,199.774L124.989,199.796L126.118,199.815L127.247,199.833L128.377,199.849L129.506,199.863L130.635,199.876L131.764,199.888L132.893,199.898L134.022,199.908L135.151,199.917L136.28,199.925L137.409,199.932L138.538,199.938L139.667,199.944L140.796,199.95L141.925,199.954L141.942,199.954L143.055,199.959L144.184,199.963L145.313,199.966L146.442,199.969L147.571,199.972L148.7,199.975L149.829,199.977L150.958,199.98L152.087,199.981L153.216,199.983L154.345,199.985L155.474,199.986L156.603,199.988L157.732,199.989L158.862,199.99L159.991,199.991L161.12,199.992L162.249,199.992L163.378,199.993L164.507,199.994L165.636,199.994L165.693,199.994L166.765,199.995L167.894,199.995L169.023,199.996L170.152,199.996L171.281,199.997L172.41,199.997L173.54,199.997L174.669,199.997L175.798,199.998L176.927,199.998L178.056,199.998L179.185,199.998L180.314,199.998L181.443,199.999L182.572,199.999L183.701,199.999L184.83,199.999L185.959,199.999L187.088,199.999L188.217,199.999L189.347,199.999L189.514,199.999L190.476,199.999L191.605,199.999L192.734,199.999L193.863,200L194.992,200L196.121,200L197.25,200L198.379,200L199.508,200L200.637,200L201.766,200L202.895,200L204.025,200L205.154,200L206.283,200L207.412,200L208.541,200L209.67,200L210.799,200L211.928,200L213.057,200L213.382,200L214.186,200L215.315,200L216.444,200L217.573,200L218.702,200L219.832,200L220.961,200L222.09,200L223.219,200L224.348,200L225.477,200L226.606,200L227.735,200L228.864,200L229.993,200L231.122,200L232.251,200L233.38,200L234.51,200L235.639,200L236.768,200L237.238,200L237.897,200L239.026,200L240.155,200L241.284,200L242.413,200L243.542,200L244.671,200L245.8,200L246.929,200L248.058,200L249.187,200L250.317,200L251.446,200L252.575,200L253.704,200L254.833,200L255.962,200" stroke="#edc949" stroke-width="1.5"/></g></g><path class="foreground" aria-hidden="true" d="" display="none"/></g></g><g class="mark-symbol role-mark layer_1_marks" role="graphics-object" aria-roledescription="symbol mark container"><path aria-label="Sera Dilution: 1e-5; Fraction Infectivity: 0.950465; Serum: HeV-sG_p36" role="graphics-symbol" aria-roledescription="circle" transform="translate(49.999999999999986,9.907)" d="M2.739,0A2.739,2.739,0,1,1,-2.739,0A2.739,2.739,0,1,1,2.739,0" fill="#4e79a7" stroke-width="2" opacity="1"/><path aria-label="Sera Dilution: 3e-5; Fraction Infectivity: 0.930845; Serum: HeV-sG_p36" role="graphics-symbol" aria-roledescription="circle" transform="translate(73.8560627359831,13.830999999999992)" d="M2.739,0A2.739,2.739,0,1,1,-2.739,0A2.739,2.739,0,1,1,2.739,0" fill="#4e79a7" stroke-width="2" opacity="1"/><path aria-label="Sera Dilution: 8e-5; Fraction Infectivity: 0.645; Serum: HeV-sG_p36" role="graphics-symbol" aria-roledescription="circle" transform="translate(95.15449934959717,71)" d="M2.739,0A2.739,2.739,0,1,1,-2.739,0A2.739,2.739,0,1,1,2.739,0" fill="#4e79a7" stroke-width="2" opacity="1"/><path aria-label="Sera Dilution: 2e-4; Fraction Infectivity: 0.30122; Serum: HeV-sG_p36" role="graphics-symbol" aria-roledescription="circle" transform="translate(118.08639180087962,139.756)" d="M2.739,0A2.739,2.739,0,1,1,-2.739,0A2.739,2.739,0,1,1,2.739,0" fill="#4e79a7" stroke-width="2" opacity="1"/><path aria-label="Sera Dilution: 7e-4; Fraction Infectivity: 0.04128; Serum: HeV-sG_p36" role="graphics-symbol" aria-roledescription="circle" transform="translate(141.94245453686275,191.744)" d="M2.739,0A2.739,2.739,0,1,1,-2.739,0A2.739,2.739,0,1,1,2.739,0" fill="#4e79a7" stroke-width="2" opacity="1"/><path aria-label="Sera Dilution: 2e-3; Fraction Infectivity: 0.001155; Serum: HeV-sG_p36" role="graphics-symbol" aria-roledescription="circle" transform="translate(165.69336101845767,199.769)" d="M2.739,0A2.739,2.739,0,1,1,-2.739,0A2.739,2.739,0,1,1,2.739,0" fill="#4e79a7" stroke-width="2" opacity="1"/><path aria-label="Sera Dilution: 6e-3; Fraction Infectivity: 0.00006; Serum: HeV-sG_p36" role="graphics-symbol" aria-roledescription="circle" transform="translate(189.5142582016621,199.988)" d="M2.739,0A2.739,2.739,0,1,1,-2.739,0A2.739,2.739,0,1,1,2.739,0" fill="#4e79a7" stroke-width="2" opacity="1"/><path aria-label="Sera Dilution: 2e-2; Fraction Infectivity: 0; Serum: HeV-sG_p36" role="graphics-symbol" aria-roledescription="circle" transform="translate(213.38204911729576,200)" d="M2.739,0A2.739,2.739,0,1,1,-2.739,0A2.739,2.739,0,1,1,2.739,0" fill="#4e79a7" stroke-width="2" opacity="1"/><path aria-label="Sera Dilution: 6e-2; Fraction Infectivity: 0.000005; Serum: HeV-sG_p36" role="graphics-symbol" aria-roledescription="circle" transform="translate(237.23811185327887,199.999)" d="M2.739,0A2.739,2.739,0,1,1,-2.739,0A2.739,2.739,0,1,1,2.739,0" fill="#4e79a7" stroke-width="2" opacity="1"/><path aria-label="Sera Dilution: 1e-5; Fraction Infectivity: 0.915555; Serum: HeV-sG_p38" role="graphics-symbol" aria-roledescription="circle" transform="translate(49.999999999999986,16.889)" d="M2.739,0A2.739,2.739,0,1,1,-2.739,0A2.739,2.739,0,1,1,2.739,0" fill="#f28e2c" stroke-width="2" opacity="1"/><path aria-label="Sera Dilution: 3e-5; Fraction Infectivity: 0.761425; Serum: HeV-sG_p38" role="graphics-symbol" aria-roledescription="circle" transform="translate(73.8560627359831,47.714999999999996)" d="M2.739,0A2.739,2.739,0,1,1,-2.739,0A2.739,2.739,0,1,1,2.739,0" fill="#f28e2c" stroke-width="2" opacity="1"/><path aria-label="Sera Dilution: 8e-5; Fraction Infectivity: 0.41198; Serum: HeV-sG_p38" role="graphics-symbol" aria-roledescription="circle" transform="translate(95.15449934959717,117.604)" d="M2.739,0A2.739,2.739,0,1,1,-2.739,0A2.739,2.739,0,1,1,2.739,0" fill="#f28e2c" stroke-width="2" opacity="1"/><path aria-label="Sera Dilution: 2e-4; Fraction Infectivity: 0.073065; Serum: HeV-sG_p38" role="graphics-symbol" aria-roledescription="circle" transform="translate(118.08639180087962,185.387)" d="M2.739,0A2.739,2.739,0,1,1,-2.739,0A2.739,2.739,0,1,1,2.739,0" fill="#f28e2c" stroke-width="2" opacity="1"/><path aria-label="Sera Dilution: 7e-4; Fraction Infectivity: 0.0038; Serum: HeV-sG_p38" role="graphics-symbol" aria-roledescription="circle" transform="translate(141.94245453686275,199.24)" d="M2.739,0A2.739,2.739,0,1,1,-2.739,0A2.739,2.739,0,1,1,2.739,0" fill="#f28e2c" stroke-width="2" opacity="1"/><path aria-label="Sera Dilution: 2e-3; Fraction Infectivity: 0.000345; Serum: HeV-sG_p38" role="graphics-symbol" aria-roledescription="circle" transform="translate(165.69336101845767,199.93099999999998)" d="M2.739,0A2.739,2.739,0,1,1,-2.739,0A2.739,2.739,0,1,1,2.739,0" fill="#f28e2c" stroke-width="2" opacity="1"/><path aria-label="Sera Dilution: 6e-3; Fraction Infectivity: −0.000005; Serum: HeV-sG_p38" role="graphics-symbol" aria-roledescription="circle" transform="translate(189.5142582016621,200.001)" d="M2.739,0A2.739,2.739,0,1,1,-2.739,0A2.739,2.739,0,1,1,2.739,0" fill="#f28e2c" stroke-width="2" opacity="1"/><path aria-label="Sera Dilution: 2e-2; Fraction Infectivity: 0.000005; Serum: HeV-sG_p38" role="graphics-symbol" aria-roledescription="circle" transform="translate(213.38204911729576,199.999)" d="M2.739,0A2.739,2.739,0,1,1,-2.739,0A2.739,2.739,0,1,1,2.739,0" fill="#f28e2c" stroke-width="2" opacity="1"/><path aria-label="Sera Dilution: 6e-2; Fraction Infectivity: 0; Serum: HeV-sG_p38" role="graphics-symbol" aria-roledescription="circle" transform="translate(237.23811185327887,200)" d="M2.739,0A2.739,2.739,0,1,1,-2.739,0A2.739,2.739,0,1,1,2.739,0" fill="#f28e2c" stroke-width="2" opacity="1"/><path aria-label="Sera Dilution: 1e-5; Fraction Infectivity: 0.90975; Serum: HeV-sG_p44" role="graphics-symbol" aria-roledescription="circle" transform="translate(49.999999999999986,18.04999999999999)" d="M2.739,0A2.739,2.739,0,1,1,-2.739,0A2.739,2.739,0,1,1,2.739,0" fill="#e15759" stroke-width="2" opacity="1"/><path aria-label="Sera Dilution: 3e-5; Fraction Infectivity: 0.68748; Serum: HeV-sG_p44" role="graphics-symbol" aria-roledescription="circle" transform="translate(73.8560627359831,62.504000000000005)" d="M2.739,0A2.739,2.739,0,1,1,-2.739,0A2.739,2.739,0,1,1,2.739,0" fill="#e15759" stroke-width="2" opacity="1"/><path aria-label="Sera Dilution: 8e-5; Fraction Infectivity: 0.36421; Serum: HeV-sG_p44" role="graphics-symbol" aria-roledescription="circle" transform="translate(95.15449934959717,127.15799999999999)" d="M2.739,0A2.739,2.739,0,1,1,-2.739,0A2.739,2.739,0,1,1,2.739,0" fill="#e15759" stroke-width="2" opacity="1"/><path aria-label="Sera Dilution: 2e-4; Fraction Infectivity: 0.05982; Serum: HeV-sG_p44" role="graphics-symbol" aria-roledescription="circle" transform="translate(118.08639180087962,188.036)" d="M2.739,0A2.739,2.739,0,1,1,-2.739,0A2.739,2.739,0,1,1,2.739,0" fill="#e15759" stroke-width="2" opacity="1"/><path aria-label="Sera Dilution: 7e-4; Fraction Infectivity: 0.004005; Serum: HeV-sG_p44" role="graphics-symbol" aria-roledescription="circle" transform="translate(141.94245453686275,199.19899999999998)" d="M2.739,0A2.739,2.739,0,1,1,-2.739,0A2.739,2.739,0,1,1,2.739,0" fill="#e15759" stroke-width="2" opacity="1"/><path aria-label="Sera Dilution: 2e-3; Fraction Infectivity: 0.00009; Serum: HeV-sG_p44" role="graphics-symbol" aria-roledescription="circle" transform="translate(165.69336101845767,199.982)" d="M2.739,0A2.739,2.739,0,1,1,-2.739,0A2.739,2.739,0,1,1,2.739,0" fill="#e15759" stroke-width="2" opacity="1"/><path aria-label="Sera Dilution: 6e-3; Fraction Infectivity: −0.000005; Serum: HeV-sG_p44" role="graphics-symbol" aria-roledescription="circle" transform="translate(189.5142582016621,200.001)" d="M2.739,0A2.739,2.739,0,1,1,-2.739,0A2.739,2.739,0,1,1,2.739,0" fill="#e15759" stroke-width="2" opacity="1"/><path aria-label="Sera Dilution: 2e-2; Fraction Infectivity: −0.00001; Serum: HeV-sG_p44" role="graphics-symbol" aria-roledescription="circle" transform="translate(213.38204911729576,200.002)" d="M2.739,0A2.739,2.739,0,1,1,-2.739,0A2.739,2.739,0,1,1,2.739,0" fill="#e15759" stroke-width="2" opacity="1"/><path aria-label="Sera Dilution: 6e-2; Fraction Infectivity: −0.00001; Serum: HeV-sG_p44" role="graphics-symbol" aria-roledescription="circle" transform="translate(237.23811185327887,200.002)" d="M2.739,0A2.739,2.739,0,1,1,-2.739,0A2.739,2.739,0,1,1,2.739,0" fill="#e15759" stroke-width="2" opacity="1"/><path aria-label="Sera Dilution: 1e-5; Fraction Infectivity: 0.555; Serum: mRNA_p70" role="graphics-symbol" aria-roledescription="circle" transform="translate(49.999999999999986,89.00000000000001)" d="M2.739,0A2.739,2.739,0,1,1,-2.739,0A2.739,2.739,0,1,1,2.739,0" fill="#76b7b2" stroke-width="2" opacity="1"/><path aria-label="Sera Dilution: 3e-5; Fraction Infectivity: 0.26; Serum: mRNA_p70" role="graphics-symbol" aria-roledescription="circle" transform="translate(73.8560627359831,148)" d="M2.739,0A2.739,2.739,0,1,1,-2.739,0A2.739,2.739,0,1,1,2.739,0" fill="#76b7b2" stroke-width="2" opacity="1"/><path aria-label="Sera Dilution: 8e-5; Fraction Infectivity: 0.04; Serum: mRNA_p70" role="graphics-symbol" aria-roledescription="circle" transform="translate(95.15449934959717,192)" d="M2.739,0A2.739,2.739,0,1,1,-2.739,0A2.739,2.739,0,1,1,2.739,0" fill="#76b7b2" stroke-width="2" opacity="1"/><path aria-label="Sera Dilution: 2e-4; Fraction Infectivity: 0; Serum: mRNA_p70" role="graphics-symbol" aria-roledescription="circle" transform="translate(118.08639180087962,200)" d="M2.739,0A2.739,2.739,0,1,1,-2.739,0A2.739,2.739,0,1,1,2.739,0" fill="#76b7b2" stroke-width="2" opacity="1"/><path aria-label="Sera Dilution: 7e-4; Fraction Infectivity: 0; Serum: mRNA_p70" role="graphics-symbol" aria-roledescription="circle" transform="translate(141.94245453686275,200)" d="M2.739,0A2.739,2.739,0,1,1,-2.739,0A2.739,2.739,0,1,1,2.739,0" fill="#76b7b2" stroke-width="2" opacity="1"/><path aria-label="Sera Dilution: 2e-3; Fraction Infectivity: 0; Serum: mRNA_p70" role="graphics-symbol" aria-roledescription="circle" transform="translate(165.69336101845767,200)" d="M2.739,0A2.739,2.739,0,1,1,-2.739,0A2.739,2.739,0,1,1,2.739,0" fill="#76b7b2" stroke-width="2" opacity="1"/><path aria-label="Sera Dilution: 6e-3; Fraction Infectivity: 0; Serum: mRNA_p70" role="graphics-symbol" aria-roledescription="circle" transform="translate(189.5142582016621,200)" d="M2.739,0A2.739,2.739,0,1,1,-2.739,0A2.739,2.739,0,1,1,2.739,0" fill="#76b7b2" stroke-width="2" opacity="1"/><path aria-label="Sera Dilution: 2e-2; Fraction Infectivity: 0; Serum: mRNA_p70" role="graphics-symbol" aria-roledescription="circle" transform="translate(213.38204911729576,200)" d="M2.739,0A2.739,2.739,0,1,1,-2.739,0A2.739,2.739,0,1,1,2.739,0" fill="#76b7b2" stroke-width="2" opacity="1"/><path aria-label="Sera Dilution: 6e-2; Fraction Infectivity: 0; Serum: mRNA_p70" role="graphics-symbol" aria-roledescription="circle" transform="translate(237.23811185327887,200)" d="M2.739,0A2.739,2.739,0,1,1,-2.739,0A2.739,2.739,0,1,1,2.739,0" fill="#76b7b2" stroke-width="2" opacity="1"/><path aria-label="Sera Dilution: 1e-5; Fraction Infectivity: 0.695; Serum: mRNA_p71" role="graphics-symbol" aria-roledescription="circle" transform="translate(49.999999999999986,60.999999999999986)" d="M2.739,0A2.739,2.739,0,1,1,-2.739,0A2.739,2.739,0,1,1,2.739,0" fill="#59a14f" stroke-width="2" opacity="1"/><path aria-label="Sera Dilution: 3e-5; Fraction Infectivity: 0.385; Serum: mRNA_p71" role="graphics-symbol" aria-roledescription="circle" transform="translate(73.8560627359831,123)" d="M2.739,0A2.739,2.739,0,1,1,-2.739,0A2.739,2.739,0,1,1,2.739,0" fill="#59a14f" stroke-width="2" opacity="1"/><path aria-label="Sera Dilution: 8e-5; Fraction Infectivity: 0.095; Serum: mRNA_p71" role="graphics-symbol" aria-roledescription="circle" transform="translate(95.15449934959717,181)" d="M2.739,0A2.739,2.739,0,1,1,-2.739,0A2.739,2.739,0,1,1,2.739,0" fill="#59a14f" stroke-width="2" opacity="1"/><path aria-label="Sera Dilution: 2e-4; Fraction Infectivity: 0.005; Serum: mRNA_p71" role="graphics-symbol" aria-roledescription="circle" transform="translate(118.08639180087962,199)" d="M2.739,0A2.739,2.739,0,1,1,-2.739,0A2.739,2.739,0,1,1,2.739,0" fill="#59a14f" stroke-width="2" opacity="1"/><path aria-label="Sera Dilution: 7e-4; Fraction Infectivity: 0; Serum: mRNA_p71" role="graphics-symbol" aria-roledescription="circle" transform="translate(141.94245453686275,200)" d="M2.739,0A2.739,2.739,0,1,1,-2.739,0A2.739,2.739,0,1,1,2.739,0" fill="#59a14f" stroke-width="2" opacity="1"/><path aria-label="Sera Dilution: 2e-3; Fraction Infectivity: 0; Serum: mRNA_p71" role="graphics-symbol" aria-roledescription="circle" transform="translate(165.69336101845767,200)" d="M2.739,0A2.739,2.739,0,1,1,-2.739,0A2.739,2.739,0,1,1,2.739,0" fill="#59a14f" stroke-width="2" opacity="1"/><path aria-label="Sera Dilution: 6e-3; Fraction Infectivity: 0; Serum: mRNA_p71" role="graphics-symbol" aria-roledescription="circle" transform="translate(189.5142582016621,200)" d="M2.739,0A2.739,2.739,0,1,1,-2.739,0A2.739,2.739,0,1,1,2.739,0" fill="#59a14f" stroke-width="2" opacity="1"/><path aria-label="Sera Dilution: 2e-2; Fraction Infectivity: 0; Serum: mRNA_p71" role="graphics-symbol" aria-roledescription="circle" transform="translate(213.38204911729576,200)" d="M2.739,0A2.739,2.739,0,1,1,-2.739,0A2.739,2.739,0,1,1,2.739,0" fill="#59a14f" stroke-width="2" opacity="1"/><path aria-label="Sera Dilution: 6e-2; Fraction Infectivity: 0; Serum: mRNA_p71" role="graphics-symbol" aria-roledescription="circle" transform="translate(237.23811185327887,200)" d="M2.739,0A2.739,2.739,0,1,1,-2.739,0A2.739,2.739,0,1,1,2.739,0" fill="#59a14f" stroke-width="2" opacity="1"/><path aria-label="Sera Dilution: 1e-5; Fraction Infectivity: 0.44; Serum: mRNA_p72" role="graphics-symbol" aria-roledescription="circle" transform="translate(49.999999999999986,112.00000000000001)" d="M2.739,0A2.739,2.739,0,1,1,-2.739,0A2.739,2.739,0,1,1,2.739,0" fill="#edc949" stroke-width="2" opacity="1"/><path aria-label="Sera Dilution: 3e-5; Fraction Infectivity: 0.09; Serum: mRNA_p72" role="graphics-symbol" aria-roledescription="circle" transform="translate(73.8560627359831,182)" d="M2.739,0A2.739,2.739,0,1,1,-2.739,0A2.739,2.739,0,1,1,2.739,0" fill="#edc949" stroke-width="2" opacity="1"/><path aria-label="Sera Dilution: 8e-5; Fraction Infectivity: 0.005; Serum: mRNA_p72" role="graphics-symbol" aria-roledescription="circle" transform="translate(95.15449934959717,199)" d="M2.739,0A2.739,2.739,0,1,1,-2.739,0A2.739,2.739,0,1,1,2.739,0" fill="#edc949" stroke-width="2" opacity="1"/><path aria-label="Sera Dilution: 2e-4; Fraction Infectivity: 0; Serum: mRNA_p72" role="graphics-symbol" aria-roledescription="circle" transform="translate(118.08639180087962,200)" d="M2.739,0A2.739,2.739,0,1,1,-2.739,0A2.739,2.739,0,1,1,2.739,0" fill="#edc949" stroke-width="2" opacity="1"/><path aria-label="Sera Dilution: 7e-4; Fraction Infectivity: 0; Serum: mRNA_p72" role="graphics-symbol" aria-roledescription="circle" transform="translate(141.94245453686275,200)" d="M2.739,0A2.739,2.739,0,1,1,-2.739,0A2.739,2.739,0,1,1,2.739,0" fill="#edc949" stroke-width="2" opacity="1"/><path aria-label="Sera Dilution: 2e-3; Fraction Infectivity: 0; Serum: mRNA_p72" role="graphics-symbol" aria-roledescription="circle" transform="translate(165.69336101845767,200)" d="M2.739,0A2.739,2.739,0,1,1,-2.739,0A2.739,2.739,0,1,1,2.739,0" fill="#edc949" stroke-width="2" opacity="1"/><path aria-label="Sera Dilution: 6e-3; Fraction Infectivity: 0; Serum: mRNA_p72" role="graphics-symbol" aria-roledescription="circle" transform="translate(189.5142582016621,200)" d="M2.739,0A2.739,2.739,0,1,1,-2.739,0A2.739,2.739,0,1,1,2.739,0" fill="#edc949" stroke-width="2" opacity="1"/><path aria-label="Sera Dilution: 2e-2; Fraction Infectivity: 0; Serum: mRNA_p72" role="graphics-symbol" aria-roledescription="circle" transform="translate(213.38204911729576,200)" d="M2.739,0A2.739,2.739,0,1,1,-2.739,0A2.739,2.739,0,1,1,2.739,0" fill="#edc949" stroke-width="2" opacity="1"/><path aria-label="Sera Dilution: 6e-2; Fraction Infectivity: 0; Serum: mRNA_p72" role="graphics-symbol" aria-roledescription="circle" transform="translate(237.23811185327887,200)" d="M2.739,0A2.739,2.739,0,1,1,-2.739,0A2.739,2.739,0,1,1,2.739,0" fill="#edc949" stroke-width="2" opacity="1"/></g><g class="mark-rule role-mark layer_2_marks" role="graphics-object" aria-roledescription="rule mark container"><line aria-label="concentration: 0.00001; Fraction Infectivity: 0.92644; upper_lower: 0.97449; Serum: HeV-sG_p36; upper: 0.97449; lower: 0.92644" role="graphics-symbol" aria-roledescription="errorbar" transform="translate(49.999999999999986,14.711999999999993)" x2="0" y2="-9.609999999999985" stroke="#4e79a7" opacity="1"/><line aria-label="concentration: 0.00003; Fraction Infectivity: 0.91; upper_lower: 0.95169; Serum: HeV-sG_p36; upper: 0.95169; lower: 0.91" role="graphics-symbol" aria-roledescription="errorbar" transform="translate(73.8560627359831,17.999999999999993)" x2="0" y2="-8.338000000000001" stroke="#4e79a7" opacity="1"/><line aria-label="concentration: 0.00008; Fraction Infectivity: 0.63616; upper_lower: 0.65384; Serum: HeV-sG_p36; upper: 0.65384; lower: 0.63616" role="graphics-symbol" aria-roledescription="errorbar" transform="translate(95.15449934959717,72.76799999999999)" x2="0" y2="-3.535999999999987" stroke="#4e79a7" opacity="1"/><line aria-label="concentration: 0.00023; Fraction Infectivity: 0.27937; upper_lower: 0.32307; Serum: HeV-sG_p36; upper: 0.32307; lower: 0.27937" role="graphics-symbol" aria-roledescription="errorbar" transform="translate(118.08639180087962,144.12599999999998)" x2="0" y2="-8.73999999999998" stroke="#4e79a7" opacity="1"/><line aria-label="concentration: 0.00069; Fraction Infectivity: 0.03881; upper_lower: 0.04375; Serum: HeV-sG_p36; upper: 0.04375; lower: 0.03881" role="graphics-symbol" aria-roledescription="errorbar" transform="translate(141.94245453686275,192.238)" x2="0" y2="-0.9879999999999995" stroke="#4e79a7" opacity="1"/><line aria-label="concentration: 0.00206; Fraction Infectivity: 0.00088; upper_lower: 0.00143; Serum: HeV-sG_p36; upper: 0.00143; lower: 0.00088" role="graphics-symbol" aria-roledescription="errorbar" transform="translate(165.69336101845767,199.824)" x2="0" y2="-0.11000000000001364" stroke="#4e79a7" opacity="1"/><line aria-label="concentration: 0.00617; Fraction Infectivity: 0.00002; upper_lower: 0.0001; Serum: HeV-sG_p36; upper: 0.0001; lower: 0.00002" role="graphics-symbol" aria-roledescription="errorbar" transform="translate(189.5142582016621,199.996)" x2="0" y2="-0.016000000000019554" stroke="#4e79a7" opacity="1"/><line aria-label="concentration: 0.01852; Fraction Infectivity: 0; upper_lower: 0; Serum: HeV-sG_p36; upper: 0; lower: 0" role="graphics-symbol" aria-roledescription="errorbar" transform="translate(213.38204911729576,200)" x2="0" y2="0" stroke="#4e79a7" opacity="1"/><line aria-label="concentration: 0.05556; Fraction Infectivity: 8.47032947254e-22; upper_lower: 0.00001; Serum: HeV-sG_p36; upper: 0.00001; lower: 8.47032947254e-22" role="graphics-symbol" aria-roledescription="errorbar" transform="translate(237.23811185327887,200)" x2="0" y2="-0.001999999999981128" stroke="#4e79a7" opacity="1"/><line aria-label="concentration: 0.00001; Fraction Infectivity: 0.90636; upper_lower: 0.92475; Serum: HeV-sG_p38; upper: 0.92475; lower: 0.90636" role="graphics-symbol" aria-roledescription="errorbar" transform="translate(49.999999999999986,18.727999999999987)" x2="0" y2="-3.6779999999999795" stroke="#f28e2c" opacity="1"/><line aria-label="concentration: 0.00003; Fraction Infectivity: 0.72755; upper_lower: 0.7953; Serum: HeV-sG_p38; upper: 0.7953; lower: 0.72755" role="graphics-symbol" aria-roledescription="errorbar" transform="translate(73.8560627359831,54.489999999999995)" x2="0" y2="-13.549999999999997" stroke="#f28e2c" opacity="1"/><line aria-label="concentration: 0.00008; Fraction Infectivity: 0.38449; upper_lower: 0.43947; Serum: HeV-sG_p38; upper: 0.43947; lower: 0.38449" role="graphics-symbol" aria-roledescription="errorbar" transform="translate(95.15449934959717,123.102)" x2="0" y2="-10.99600000000001" stroke="#f28e2c" opacity="1"/><line aria-label="concentration: 0.00023; Fraction Infectivity: 0.07056; upper_lower: 0.07557; Serum: HeV-sG_p38; upper: 0.07557; lower: 0.07056" role="graphics-symbol" aria-roledescription="errorbar" transform="translate(118.08639180087962,185.888)" x2="0" y2="-1.0020000000000095" stroke="#f28e2c" opacity="1"/><line aria-label="concentration: 0.00069; Fraction Infectivity: 0.00304; upper_lower: 0.00456; Serum: HeV-sG_p38; upper: 0.00456; lower: 0.00304" role="graphics-symbol" aria-roledescription="errorbar" transform="translate(141.94245453686275,199.392)" x2="0" y2="-0.30400000000000205" stroke="#f28e2c" opacity="1"/><line aria-label="concentration: 0.00206; Fraction Infectivity: 0.00007; upper_lower: 0.00062; Serum: HeV-sG_p38; upper: 0.00062; lower: 0.00007" role="graphics-symbol" aria-roledescription="errorbar" transform="translate(165.69336101845767,199.986)" x2="0" y2="-0.10999999999998522" stroke="#f28e2c" opacity="1"/><line aria-label="concentration: 0.00617; Fraction Infectivity: −0.00001; upper_lower: −8.47032947254e-22; Serum: HeV-sG_p38; upper: −8.47032947254e-22; lower: −0.00001" role="graphics-symbol" aria-roledescription="errorbar" transform="translate(189.5142582016621,200.002)" x2="0" y2="-0.0020000000000095497" stroke="#f28e2c" opacity="1"/><line aria-label="concentration: 0.01852; Fraction Infectivity: 8.47032947254e-22; upper_lower: 0.00001; Serum: HeV-sG_p38; upper: 0.00001; lower: 8.47032947254e-22" role="graphics-symbol" aria-roledescription="errorbar" transform="translate(213.38204911729576,200)" x2="0" y2="-0.001999999999981128" stroke="#f28e2c" opacity="1"/><line aria-label="concentration: 0.05556; Fraction Infectivity: 0; upper_lower: 0; Serum: HeV-sG_p38; upper: 0; lower: 0" role="graphics-symbol" aria-roledescription="errorbar" transform="translate(237.23811185327887,200)" x2="0" y2="0" stroke="#f28e2c" opacity="1"/><line aria-label="concentration: 0.00001; Fraction Infectivity: 0.88886; upper_lower: 0.93064; Serum: HeV-sG_p44; upper: 0.93064; lower: 0.88886" role="graphics-symbol" aria-roledescription="errorbar" transform="translate(49.999999999999986,22.228)" x2="0" y2="-8.356000000000028" stroke="#e15759" opacity="1"/><line aria-label="concentration: 0.00003; Fraction Infectivity: 0.6517; upper_lower: 0.72326; Serum: HeV-sG_p44; upper: 0.72326; lower: 0.6517" role="graphics-symbol" aria-roledescription="errorbar" transform="translate(73.8560627359831,69.66000000000001)" x2="0" y2="-14.312000000000012" stroke="#e15759" opacity="1"/><line aria-label="concentration: 0.00008; Fraction Infectivity: 0.32544; upper_lower: 0.40298; Serum: HeV-sG_p44; upper: 0.40298; lower: 0.32544" role="graphics-symbol" aria-roledescription="errorbar" transform="translate(95.15449934959717,134.912)" x2="0" y2="-15.508000000000024" stroke="#e15759" opacity="1"/><line aria-label="concentration: 0.00023; Fraction Infectivity: 0.05126; upper_lower: 0.06838; Serum: HeV-sG_p44; upper: 0.06838; lower: 0.05126" role="graphics-symbol" aria-roledescription="errorbar" transform="translate(118.08639180087962,189.74800000000002)" x2="0" y2="-3.4240000000000066" stroke="#e15759" opacity="1"/><line aria-label="concentration: 0.00069; Fraction Infectivity: 0.0034; upper_lower: 0.00461; Serum: HeV-sG_p44; upper: 0.00461; lower: 0.0034" role="graphics-symbol" aria-roledescription="errorbar" transform="translate(141.94245453686275,199.32000000000002)" x2="0" y2="-0.24200000000001864" stroke="#e15759" opacity="1"/><line aria-label="concentration: 0.00206; Fraction Infectivity: 0.00008; upper_lower: 0.0001; Serum: HeV-sG_p44; upper: 0.0001; lower: 0.00008" role="graphics-symbol" aria-roledescription="errorbar" transform="translate(165.69336101845767,199.984)" x2="0" y2="-0.004000000000019099" stroke="#e15759" opacity="1"/><line aria-label="concentration: 0.00617; Fraction Infectivity: −0.00001; upper_lower: −8.47032947254e-22; Serum: HeV-sG_p44; upper: −8.47032947254e-22; lower: −0.00001" role="graphics-symbol" aria-roledescription="errorbar" transform="translate(189.5142582016621,200.002)" x2="0" y2="-0.0020000000000095497" stroke="#e15759" opacity="1"/><line aria-label="concentration: 0.01852; Fraction Infectivity: −0.00001; upper_lower: −0.00001; Serum: HeV-sG_p44; upper: −0.00001; lower: −0.00001" role="graphics-symbol" aria-roledescription="errorbar" transform="translate(213.38204911729576,200.002)" x2="0" y2="0" stroke="#e15759" opacity="1"/><line aria-label="concentration: 0.05556; Fraction Infectivity: −0.00001; upper_lower: −0.00001; Serum: HeV-sG_p44; upper: −0.00001; lower: −0.00001" role="graphics-symbol" aria-roledescription="errorbar" transform="translate(237.23811185327887,200.002)" x2="0" y2="0" stroke="#e15759" opacity="1"/><line aria-label="concentration: 0.00001; Fraction Infectivity: 0.48; upper_lower: 0.63; Serum: mRNA_p70; upper: 0.63; lower: 0.48" role="graphics-symbol" aria-roledescription="errorbar" transform="translate(49.999999999999986,104)" x2="0" y2="-29.99999999999997" stroke="#76b7b2" opacity="1"/><line aria-label="concentration: 0.00003; Fraction Infectivity: 0.26; upper_lower: 0.26; Serum: mRNA_p70; upper: 0.26; lower: 0.26" role="graphics-symbol" aria-roledescription="errorbar" transform="translate(73.8560627359831,148)" x2="0" y2="0" stroke="#76b7b2" opacity="1"/><line aria-label="concentration: 0.00008; Fraction Infectivity: 0.03; upper_lower: 0.05; Serum: mRNA_p70; upper: 0.05; lower: 0.03" role="graphics-symbol" aria-roledescription="errorbar" transform="translate(95.15449934959717,194)" x2="0" y2="-4" stroke="#76b7b2" opacity="1"/><line aria-label="concentration: 0.00023; Fraction Infectivity: 0; upper_lower: 0; Serum: mRNA_p70; upper: 0; lower: 0" role="graphics-symbol" aria-roledescription="errorbar" transform="translate(118.08639180087962,200)" x2="0" y2="0" stroke="#76b7b2" opacity="1"/><line aria-label="concentration: 0.00069; Fraction Infectivity: 0; upper_lower: 0; Serum: mRNA_p70; upper: 0; lower: 0" role="graphics-symbol" aria-roledescription="errorbar" transform="translate(141.94245453686275,200)" x2="0" y2="0" stroke="#76b7b2" opacity="1"/><line aria-label="concentration: 0.00206; Fraction Infectivity: 0; upper_lower: 0; Serum: mRNA_p70; upper: 0; lower: 0" role="graphics-symbol" aria-roledescription="errorbar" transform="translate(165.69336101845767,200)" x2="0" y2="0" stroke="#76b7b2" opacity="1"/><line aria-label="concentration: 0.00617; Fraction Infectivity: 0; upper_lower: 0; Serum: mRNA_p70; upper: 0; lower: 0" role="graphics-symbol" aria-roledescription="errorbar" transform="translate(189.5142582016621,200)" x2="0" y2="0" stroke="#76b7b2" opacity="1"/><line aria-label="concentration: 0.01852; Fraction Infectivity: 0; upper_lower: 0; Serum: mRNA_p70; upper: 0; lower: 0" role="graphics-symbol" aria-roledescription="errorbar" transform="translate(213.38204911729576,200)" x2="0" y2="0" stroke="#76b7b2" opacity="1"/><line aria-label="concentration: 0.05556; Fraction Infectivity: 0; upper_lower: 0; Serum: mRNA_p70; upper: 0; lower: 0" role="graphics-symbol" aria-roledescription="errorbar" transform="translate(237.23811185327887,200)" x2="0" y2="0" stroke="#76b7b2" opacity="1"/><line aria-label="concentration: 0.00001; Fraction Infectivity: 0.68; upper_lower: 0.71; Serum: mRNA_p71; upper: 0.71; lower: 0.68" role="graphics-symbol" aria-roledescription="errorbar" transform="translate(49.999999999999986,63.99999999999997)" x2="0" y2="-5.9999999999999645" stroke="#59a14f" opacity="1"/><line aria-label="concentration: 0.00003; Fraction Infectivity: 0.37; upper_lower: 0.4; Serum: mRNA_p71; upper: 0.4; lower: 0.37" role="graphics-symbol" aria-roledescription="errorbar" transform="translate(73.8560627359831,126)" x2="0" y2="-6" stroke="#59a14f" opacity="1"/><line aria-label="concentration: 0.00008; Fraction Infectivity: 0.07; upper_lower: 0.12; Serum: mRNA_p71; upper: 0.12; lower: 0.07" role="graphics-symbol" aria-roledescription="errorbar" transform="translate(95.15449934959717,186)" x2="0" y2="-10" stroke="#59a14f" opacity="1"/><line aria-label="concentration: 0.00023; Fraction Infectivity: 0; upper_lower: 0.01; Serum: mRNA_p71; upper: 0.01; lower: 0" role="graphics-symbol" aria-roledescription="errorbar" transform="translate(118.08639180087962,200)" x2="0" y2="-2" stroke="#59a14f" opacity="1"/><line aria-label="concentration: 0.00069; Fraction Infectivity: 0; upper_lower: 0; Serum: mRNA_p71; upper: 0; lower: 0" role="graphics-symbol" aria-roledescription="errorbar" transform="translate(141.94245453686275,200)" x2="0" y2="0" stroke="#59a14f" opacity="1"/><line aria-label="concentration: 0.00206; Fraction Infectivity: 0; upper_lower: 0; Serum: mRNA_p71; upper: 0; lower: 0" role="graphics-symbol" aria-roledescription="errorbar" transform="translate(165.69336101845767,200)" x2="0" y2="0" stroke="#59a14f" opacity="1"/><line aria-label="concentration: 0.00617; Fraction Infectivity: 0; upper_lower: 0; Serum: mRNA_p71; upper: 0; lower: 0" role="graphics-symbol" aria-roledescription="errorbar" transform="translate(189.5142582016621,200)" x2="0" y2="0" stroke="#59a14f" opacity="1"/><line aria-label="concentration: 0.01852; Fraction Infectivity: 0; upper_lower: 0; Serum: mRNA_p71; upper: 0; lower: 0" role="graphics-symbol" aria-roledescription="errorbar" transform="translate(213.38204911729576,200)" x2="0" y2="0" stroke="#59a14f" opacity="1"/><line aria-label="concentration: 0.05556; Fraction Infectivity: 0; upper_lower: 0; Serum: mRNA_p71; upper: 0; lower: 0" role="graphics-symbol" aria-roledescription="errorbar" transform="translate(237.23811185327887,200)" x2="0" y2="0" stroke="#59a14f" opacity="1"/><line aria-label="concentration: 0.00001; Fraction Infectivity: 0.43; upper_lower: 0.45; Serum: mRNA_p72; upper: 0.45; lower: 0.43" role="graphics-symbol" aria-roledescription="errorbar" transform="translate(49.999999999999986,114.00000000000001)" x2="0" y2="-4" stroke="#edc949" opacity="1"/><line aria-label="concentration: 0.00003; Fraction Infectivity: 0.07; upper_lower: 0.11; Serum: mRNA_p72; upper: 0.11; lower: 0.07" role="graphics-symbol" aria-roledescription="errorbar" transform="translate(73.8560627359831,186)" x2="0" y2="-8" stroke="#edc949" opacity="1"/><line aria-label="concentration: 0.00008; Fraction Infectivity: 0; upper_lower: 0.01; Serum: mRNA_p72; upper: 0.01; lower: 0" role="graphics-symbol" aria-roledescription="errorbar" transform="translate(95.15449934959717,200)" x2="0" y2="-2" stroke="#edc949" opacity="1"/><line aria-label="concentration: 0.00023; Fraction Infectivity: 0; upper_lower: 0; Serum: mRNA_p72; upper: 0; lower: 0" role="graphics-symbol" aria-roledescription="errorbar" transform="translate(118.08639180087962,200)" x2="0" y2="0" stroke="#edc949" opacity="1"/><line aria-label="concentration: 0.00069; Fraction Infectivity: 0; upper_lower: 0; Serum: mRNA_p72; upper: 0; lower: 0" role="graphics-symbol" aria-roledescription="errorbar" transform="translate(141.94245453686275,200)" x2="0" y2="0" stroke="#edc949" opacity="1"/><line aria-label="concentration: 0.00206; Fraction Infectivity: 0; upper_lower: 0; Serum: mRNA_p72; upper: 0; lower: 0" role="graphics-symbol" aria-roledescription="errorbar" transform="translate(165.69336101845767,200)" x2="0" y2="0" stroke="#edc949" opacity="1"/><line aria-label="concentration: 0.00617; Fraction Infectivity: 0; upper_lower: 0; Serum: mRNA_p72; upper: 0; lower: 0" role="graphics-symbol" aria-roledescription="errorbar" transform="translate(189.5142582016621,200)" x2="0" y2="0" stroke="#edc949" opacity="1"/><line aria-label="concentration: 0.01852; Fraction Infectivity: 0; upper_lower: 0; Serum: mRNA_p72; upper: 0; lower: 0" role="graphics-symbol" aria-roledescription="errorbar" transform="translate(213.38204911729576,200)" x2="0" y2="0" stroke="#edc949" opacity="1"/><line aria-label="concentration: 0.05556; Fraction Infectivity: 0; upper_lower: 0; Serum: mRNA_p72; upper: 0; lower: 0" role="graphics-symbol" aria-roledescription="errorbar" transform="translate(237.23811185327887,200)" x2="0" y2="0" stroke="#edc949" opacity="1"/></g><g class="mark-group role-legend" role="graphics-symbol" aria-roledescription="legend" aria-label="Symbol legend titled 'Serum' for fill color and stroke color with 6 values: HeV-sG_p36, HeV-sG_p38, HeV-sG_p44, mRNA_p70, mRNA_p71, mRNA_p72"><g transform="translate(318,0)"><path class="background" aria-hidden="true" d="M0,0h109v123h-109Z" pointer-events="none"/><g><g class="mark-group role-legend-entry"><g transform="translate(5,24)"><path class="background" aria-hidden="true" d="M0,0h0v0h0Z" pointer-events="none"/><g><g class="mark-group role-scope" role="graphics-object" aria-roledescription="group mark container"><g transform="translate(0,0)"><path class="background" aria-hidden="true" d="M0,0h98.1650390625v14h-98.1650390625Z" pointer-events="none" opacity="1"/><g><g class="mark-symbol role-legend-symbol" pointer-events="none"><path transform="translate(7,7)" d="M5,0A5,5,0,1,1,-5,0A5,5,0,1,1,5,0" fill="#4e79a7" stroke="#4e79a7" stroke-width="1.5" opacity="1"/></g><g class="mark-text role-legend-label" pointer-events="none"><text text-anchor="start" transform="translate(18,11)" font-family="Helvetica" font-size="14px" fill="#000" opacity="1">HeV-sG_p36</text></g></g><path class="foreground" aria-hidden="true" d="" pointer-events="none" display="none"/></g><g transform="translate(0,16)"><path class="background" aria-hidden="true" d="M0,0h98.1650390625v14h-98.1650390625Z" pointer-events="none" opacity="1"/><g><g class="mark-symbol role-legend-symbol" pointer-events="none"><path transform="translate(7,7)" d="M5,0A5,5,0,1,1,-5,0A5,5,0,1,1,5,0" fill="#f28e2c" stroke="#f28e2c" stroke-width="1.5" opacity="1"/></g><g class="mark-text role-legend-label" pointer-events="none"><text text-anchor="start" transform="translate(18,11)" font-family="Helvetica" font-size="14px" fill="#000" opacity="1">HeV-sG_p38</text></g></g><path class="foreground" aria-hidden="true" d="" pointer-events="none" display="none"/></g><g transform="translate(0,32)"><path class="background" aria-hidden="true" d="M0,0h98.1650390625v14h-98.1650390625Z" pointer-events="none" opacity="1"/><g><g class="mark-symbol role-legend-symbol" pointer-events="none"><path transform="translate(7,7)" d="M5,0A5,5,0,1,1,-5,0A5,5,0,1,1,5,0" fill="#e15759" stroke="#e15759" stroke-width="1.5" opacity="1"/></g><g class="mark-text role-legend-label" pointer-events="none"><text text-anchor="start" transform="translate(18,11)" font-family="Helvetica" font-size="14px" fill="#000" opacity="1">HeV-sG_p44</text></g></g><path class="foreground" aria-hidden="true" d="" pointer-events="none" display="none"/></g><g transform="translate(0,48)"><path class="background" aria-hidden="true" d="M0,0h98.1650390625v14h-98.1650390625Z" pointer-events="none" opacity="1"/><g><g class="mark-symbol role-legend-symbol" pointer-events="none"><path transform="translate(7,7)" d="M5,0A5,5,0,1,1,-5,0A5,5,0,1,1,5,0" fill="#76b7b2" stroke="#76b7b2" stroke-width="1.5" opacity="1"/></g><g class="mark-text role-legend-label" pointer-events="none"><text text-anchor="start" transform="translate(18,11)" font-family="Helvetica" font-size="14px" fill="#000" opacity="1">mRNA_p70</text></g></g><path class="foreground" aria-hidden="true" d="" pointer-events="none" display="none"/></g><g transform="translate(0,64)"><path class="background" aria-hidden="true" d="M0,0h98.1650390625v14h-98.1650390625Z" pointer-events="none" opacity="1"/><g><g class="mark-symbol role-legend-symbol" pointer-events="none"><path transform="translate(7,7)" d="M5,0A5,5,0,1,1,-5,0A5,5,0,1,1,5,0" fill="#59a14f" stroke="#59a14f" stroke-width="1.5" opacity="1"/></g><g class="mark-text role-legend-label" pointer-events="none"><text text-anchor="start" transform="translate(18,11)" font-family="Helvetica" font-size="14px" fill="#000" opacity="1">mRNA_p71</text></g></g><path class="foreground" aria-hidden="true" d="" pointer-events="none" display="none"/></g><g transform="translate(0,80)"><path class="background" aria-hidden="true" d="M0,0h98.1650390625v14h-98.1650390625Z" pointer-events="none" opacity="1"/><g><g class="mark-symbol role-legend-symbol" pointer-events="none"><path transform="translate(7,7)" d="M5,0A5,5,0,1,1,-5,0A5,5,0,1,1,5,0" fill="#edc949" stroke="#edc949" stroke-width="1.5" opacity="1"/></g><g class="mark-text role-legend-label" pointer-events="none"><text text-anchor="start" transform="translate(18,11)" font-family="Helvetica" font-size="14px" fill="#000" opacity="1">mRNA_p72</text></g></g><path class="foreground" aria-hidden="true" d="" pointer-events="none" display="none"/></g></g></g><path class="foreground" aria-hidden="true" d="" pointer-events="none" display="none"/></g></g><g class="mark-text role-legend-title" pointer-events="none"><text text-anchor="start" transform="translate(5,16)" font-family="Helvetica" font-size="14px" font-weight="bold" fill="#000" opacity="1">Serum</text></g></g><path class="foreground" aria-hidden="true" d="" pointer-events="none" display="none"/></g></g></g><path class="foreground" aria-hidden="true" d="" display="none"/></g></g></g></svg>