<svg xmlns="http://www.w3.org/2000/svg" xmlns:xlink="http://www.w3.org/1999/xlink" version="1.1" class="marks" width="463" height="256" viewBox="0 0 463 256"><rect width="463" height="256" fill="white"/><g fill="none" stroke-miterlimit="10" transform="translate(50,12)"><g class="mark-group role-frame root" role="graphics-object" aria-roledescription="group mark container"><g transform="translate(0,0)"><path class="background" aria-hidden="true" d="M0,0h300v200h-300Z" stroke-width="0"/><g><g class="mark-group role-axis" role="graphics-symbol" aria-roledescription="axis" aria-label="X-axis titled 'Sera Dilution' for a log scale with values from 1e-6 to 1e+0"><g transform="translate(0.5,200.5)"><path class="background" aria-hidden="true" d="M0,0h0v0h0Z" pointer-events="none"/><g><g class="mark-rule role-axis-tick" pointer-events="none"><line transform="translate(0,0)" x2="0" y2="4" stroke="black" stroke-width="1" opacity="1"/><line transform="translate(100,0)" x2="0" y2="4" stroke="black" stroke-width="1" opacity="1"/><line transform="translate(200,0)" x2="0" y2="4" stroke="black" stroke-width="1" opacity="1"/><line transform="translate(300,0)" x2="0" y2="4" stroke="black" stroke-width="1" opacity="1"/></g><g class="mark-text role-axis-label" pointer-events="none"><text text-anchor="middle" transform="translate(0,17)" font-family="Helvetica" font-size="14px" font-weight="normal" fill="#000" opacity="1">1e-6</text><text text-anchor="middle" transform="translate(100.00000000000001,17)" font-family="Helvetica" font-size="14px" font-weight="normal" fill="#000" opacity="1">1e-4</text><text text-anchor="middle" transform="translate(200.00000000000003,17)" font-family="Helvetica" font-size="14px" font-weight="normal" fill="#000" opacity="1">1e-2</text><text text-anchor="middle" transform="translate(300,17)" font-family="Helvetica" font-size="14px" font-weight="normal" fill="#000" opacity="1">1e+0</text></g><g class="mark-rule role-axis-domain" pointer-events="none"><line transform="translate(0,0)" x2="300" y2="0" stroke="black" stroke-width="1" opacity="1"/></g><g class="mark-text role-axis-title" pointer-events="none"><text text-anchor="middle" transform="translate(150,36)" font-family="Helvetica" font-size="14px" font-weight="bold" fill="#000" opacity="1">Sera Dilution</text></g></g><path class="foreground" aria-hidden="true" d="" pointer-events="none" display="none"/></g></g><g class="mark-group role-axis" role="graphics-symbol" aria-roledescription="axis" aria-label="Y-axis titled 'Fraction Infectivity' for a linear scale with values from 0.0 to 1.0"><g transform="translate(0.5,0.5)"><path class="background" aria-hidden="true" d="M0,0h0v0h0Z" pointer-events="none"/><g><g class="mark-rule role-axis-tick" pointer-events="none"><line transform="translate(0,200)" x2="-4" y2="0" stroke="black" stroke-width="1" opacity="1"/><line transform="translate(0,100)" x2="-4" y2="0" stroke="black" stroke-width="1" opacity="1"/><line transform="translate(0,0)" x2="-4" y2="0" stroke="black" stroke-width="1" opacity="1"/></g><g class="mark-text role-axis-label" pointer-events="none"><text text-anchor="end" transform="translate(-6,204)" font-family="Helvetica" font-size="14px" font-weight="normal" fill="#000" opacity="1">0.0</text><text text-anchor="end" transform="translate(-6,104)" font-family="Helvetica" font-size="14px" font-weight="normal" fill="#000" opacity="1">0.5</text><text text-anchor="end" transform="translate(-6,4)" font-family="Helvetica" font-size="14px" font-weight="normal" fill="#000" opacity="1">1.0</text></g><g class="mark-rule role-axis-domain" pointer-events="none"><line transform="translate(0,200)" x2="0" y2="-200" stroke="black" stroke-width="1" opacity="1"/></g><g class="mark-text role-axis-title" pointer-events="none"><text text-anchor="middle" transform="translate(-30.4619140625,100) rotate(-90) translate(0,-3)" font-family="Helvetica" font-size="14px" font-weight="bold" fill="#000" opacity="1">Fraction Infectivity</text></g></g><path class="foreground" aria-hidden="true" d="" pointer-events="none" display="none"/></g></g><g class="mark-group role-scope layer_0_pathgroup" role="graphics-object" aria-roledescription="group mark container"><g transform="translate(0,0)"><path class="background" aria-hidden="true" d="M0,0h300v200h-300Z"/><g><g class="mark-line role-mark layer_0_marks" role="graphics-object" aria-roledescription="line mark container"><path aria-label="Sera Dilution: 4e-6; Fraction Infectivity: 0.944370603545; Serum: mRNA-74" role="graphics-symbol" aria-roledescription="line mark" d="M31.276,11.126L32.405,12.066L33.534,13.08L34.663,14.172L35.792,15.348L36.922,16.614L38.051,17.973L39.18,19.432L40.309,20.995L41.438,22.669L42.567,24.458L43.696,26.366L44.825,28.4L45.954,30.563L47.083,32.859L48.212,35.292L49.341,37.864L50,39.43L50.47,40.578L51.6,43.433L52.729,46.432L53.858,49.571L54.987,52.85L56.116,56.265L57.245,59.81L58.374,63.48L59.503,67.268L60.632,71.164L61.761,75.157L62.89,79.237L64.019,83.39L65.148,87.603L66.277,91.861L67.407,96.15L68.536,100.452L69.665,104.753L70.794,109.036L71.923,113.286L73.052,117.488L73.856,120.443L74.181,121.627L75.31,125.689L76.439,129.663L77.568,133.537L78.697,137.3L79.826,140.945L80.955,144.464L82.085,147.85L83.214,151.1L84.343,154.21L85.472,157.178L86.601,160.004L87.73,162.688L88.859,165.23L89.988,167.634L91.117,169.902L92.246,172.038L93.375,174.045L94.504,175.928L95.154,176.958L95.633,177.692L96.762,179.342L97.892,180.883L99.021,182.321L100.15,183.66L101.279,184.906L102.408,186.064L103.537,187.14L104.666,188.138L105.795,189.063L106.924,189.919L108.053,190.712L109.182,191.446L110.311,192.123L111.44,192.749L112.57,193.328L113.699,193.861L114.828,194.353L115.957,194.807L117.086,195.225L118.086,195.568L118.215,195.61L119.344,195.965L120.473,196.292L121.602,196.592L122.731,196.869L123.86,197.124L124.989,197.358L126.118,197.573L127.247,197.771L128.377,197.953L129.506,198.12L130.635,198.274L131.764,198.415L132.893,198.545L134.022,198.664L135.151,198.774L136.28,198.874L137.409,198.967L138.538,199.051L139.667,199.129L140.796,199.201L141.925,199.267L141.942,199.268L143.055,199.327L144.184,199.382L145.313,199.433L146.442,199.48L147.571,199.522L148.7,199.562L149.829,199.598L150.958,199.631L152.087,199.661L153.216,199.689L154.345,199.715L155.474,199.738L156.603,199.76L157.732,199.78L158.862,199.798L159.991,199.814L161.12,199.83L162.249,199.844L163.378,199.857L164.507,199.868L165.636,199.879L165.693,199.88L166.765,199.889L167.894,199.898L169.023,199.907L170.152,199.914L171.281,199.922L172.41,199.928L173.54,199.934L174.669,199.939L175.798,199.944L176.927,199.949L178.056,199.953L179.185,199.957L180.314,199.961L181.443,199.964L182.572,199.967L183.701,199.97L184.83,199.972L185.959,199.974L187.088,199.976L188.217,199.978L189.347,199.98L189.514,199.98L190.476,199.982L191.605,199.983L192.734,199.985L193.863,199.986L194.992,199.987L196.121,199.988L197.25,199.989L198.379,199.99L199.508,199.991L200.637,199.992L201.766,199.992L202.895,199.993L204.025,199.994L205.154,199.994L206.283,199.995L207.412,199.995L208.541,199.995L209.67,199.996L210.799,199.996L211.928,199.996L213.057,199.997L213.382,199.997L214.186,199.997L215.315,199.997L216.444,199.997L217.573,199.998L218.702,199.998L219.832,199.998L220.961,199.998L222.09,199.998L223.219,199.999L224.348,199.999L225.477,199.999L226.606,199.999L227.735,199.999L228.864,199.999L229.993,199.999L231.122,199.999L232.251,199.999L233.38,199.999L234.51,199.999L235.639,199.999L236.768,199.999L237.238,199.999L237.897,200L239.026,200L240.155,200L241.284,200L242.413,200L243.542,200L244.671,200L245.8,200L246.929,200L248.058,200L249.187,200L250.317,200L251.446,200L252.575,200L253.704,200L254.833,200L255.962,200" stroke="#4e79a7" stroke-width="1.5"/></g></g><path class="foreground" aria-hidden="true" d="" display="none"/></g><g transform="translate(0,0)"><path class="background" aria-hidden="true" d="M0,0h300v200h-300Z"/><g><g class="mark-line role-mark layer_0_marks" role="graphics-object" aria-roledescription="line mark container"><path aria-label="Sera Dilution: 4e-6; Fraction Infectivity: 0.931395909649; Serum: mRNA-75" role="graphics-symbol" aria-roledescription="line mark" d="M31.276,13.721L32.405,14.782L33.534,15.918L34.663,17.133L35.792,18.432L36.922,19.818L38.051,21.297L39.18,22.871L40.309,24.547L41.438,26.326L42.567,28.214L43.696,30.214L44.825,32.329L45.954,34.562L47.083,36.915L48.212,39.39L49.341,41.989L50,43.562L50.47,44.711L51.6,47.556L52.729,50.524L53.858,53.612L54.987,56.816L56.116,60.134L57.245,63.559L58.374,67.086L59.503,70.707L60.632,74.414L61.761,78.198L62.89,82.049L64.019,85.955L65.148,89.906L66.277,93.888L67.407,97.891L68.536,101.9L69.665,105.903L70.794,109.887L71.923,113.839L73.052,117.748L73.856,120.499L74.181,121.602L75.31,125.39L76.439,129.101L77.568,132.727L78.697,136.259L79.826,139.69L80.955,143.013L82.085,146.224L83.214,149.318L84.343,152.292L85.472,155.143L86.601,157.872L87.73,160.477L88.859,162.958L89.988,165.318L91.117,167.557L92.246,169.678L93.375,171.684L94.504,173.578L95.154,174.619L95.633,175.363L96.762,177.044L97.892,178.624L99.021,180.107L100.15,181.498L101.279,182.801L102.408,184.021L103.537,185.161L104.666,186.226L105.795,187.219L106.924,188.146L108.053,189.009L109.182,189.813L110.311,190.561L111.44,191.256L112.57,191.903L113.699,192.503L114.828,193.061L115.957,193.579L117.086,194.059L118.086,194.455L118.215,194.504L119.344,194.917L120.473,195.299L121.602,195.654L122.731,195.982L123.86,196.286L124.989,196.567L126.118,196.827L127.247,197.068L128.377,197.291L129.506,197.497L130.635,197.688L131.764,197.864L132.893,198.027L134.022,198.178L135.151,198.317L136.28,198.446L137.409,198.565L138.538,198.675L139.667,198.776L140.796,198.87L141.925,198.956L141.942,198.958L143.055,199.036L144.184,199.11L145.313,199.179L146.442,199.242L147.571,199.3L148.7,199.354L149.829,199.403L150.958,199.449L152.087,199.492L153.216,199.531L154.345,199.567L155.474,199.6L156.603,199.631L157.732,199.659L158.862,199.685L159.991,199.71L161.12,199.732L162.249,199.753L163.378,199.772L164.507,199.789L165.636,199.805L165.693,199.806L166.765,199.82L167.894,199.834L169.023,199.847L170.152,199.859L171.281,199.87L172.41,199.88L173.54,199.889L174.669,199.898L175.798,199.905L176.927,199.913L178.056,199.919L179.185,199.926L180.314,199.931L181.443,199.937L182.572,199.942L183.701,199.946L184.83,199.95L185.959,199.954L187.088,199.958L188.217,199.961L189.347,199.964L189.514,199.964L190.476,199.967L191.605,199.969L192.734,199.972L193.863,199.974L194.992,199.976L196.121,199.978L197.25,199.979L198.379,199.981L199.508,199.982L200.637,199.984L201.766,199.985L202.895,199.986L204.025,199.987L205.154,199.988L206.283,199.989L207.412,199.99L208.541,199.991L209.67,199.991L210.799,199.992L211.928,199.993L213.057,199.993L213.382,199.993L214.186,199.994L215.315,199.994L216.444,199.995L217.573,199.995L218.702,199.996L219.832,199.996L220.961,199.996L222.09,199.996L223.219,199.997L224.348,199.997L225.477,199.997L226.606,199.997L227.735,199.998L228.864,199.998L229.993,199.998L231.122,199.998L232.251,199.998L233.38,199.998L234.51,199.999L235.639,199.999L236.768,199.999L237.238,199.999L237.897,199.999L239.026,199.999L240.155,199.999L241.284,199.999L242.413,199.999L243.542,199.999L244.671,199.999L245.8,199.999L246.929,199.999L248.058,199.999L249.187,199.999L250.317,200L251.446,200L252.575,200L253.704,200L254.833,200L255.962,200" stroke="#f28e2c" stroke-width="1.5"/></g></g><path class="foreground" aria-hidden="true" d="" display="none"/></g><g transform="translate(0,0)"><path class="background" aria-hidden="true" d="M0,0h300v200h-300Z"/><g><g class="mark-line role-mark layer_0_marks" role="graphics-object" aria-roledescription="line mark container"><path aria-label="Sera Dilution: 4e-6; Fraction Infectivity: 0.934041170262; Serum: NiVsG-61" role="graphics-symbol" aria-roledescription="line mark" d="M31.276,13.192L32.405,14.252L33.534,15.39L34.663,16.611L35.792,17.919L36.922,19.32L38.051,20.818L39.18,22.417L40.309,24.122L41.438,25.939L42.567,27.87L43.696,29.921L44.825,32.094L45.954,34.394L47.083,36.822L48.212,39.38L49.341,42.071L50,43.701L50.47,44.894L51.6,47.849L52.729,50.934L53.858,54.148L54.987,57.486L56.116,60.944L57.245,64.516L58.374,68.195L59.503,71.972L60.632,75.838L61.761,79.782L62.89,83.793L64.019,87.858L65.148,91.964L66.277,96.098L67.407,100.245L68.536,104.391L69.665,108.522L70.794,112.624L71.923,116.683L73.052,120.687L73.856,123.497L74.181,124.622L75.31,128.478L76.439,132.244L77.568,135.911L78.697,139.47L79.826,142.914L80.955,146.238L82.085,149.437L83.214,152.507L84.343,155.446L85.472,158.254L86.601,160.928L87.73,163.472L88.859,165.884L89.988,168.168L91.117,170.327L92.246,172.364L93.375,174.281L94.504,176.084L95.154,177.072L95.633,177.777L96.762,179.364L97.892,180.85L99.021,182.24L100.15,183.538L101.279,184.748L102.408,185.877L103.537,186.928L104.666,187.906L105.795,188.815L106.924,189.66L108.053,190.444L109.182,191.171L110.311,191.846L111.44,192.471L112.57,193.049L113.699,193.585L114.828,194.081L115.957,194.539L117.086,194.963L118.086,195.312L118.215,195.355L119.344,195.717L120.473,196.051L121.602,196.36L122.731,196.645L123.86,196.908L124.989,197.151L126.118,197.375L127.247,197.581L128.377,197.772L129.506,197.947L130.635,198.109L131.764,198.258L132.893,198.396L134.022,198.523L135.151,198.64L136.28,198.747L137.409,198.846L138.538,198.938L139.667,199.022L140.796,199.1L141.925,199.171L141.942,199.172L143.055,199.237L144.184,199.297L145.313,199.353L146.442,199.404L147.571,199.452L148.7,199.495L149.829,199.535L150.958,199.572L152.087,199.606L153.216,199.638L154.345,199.666L155.474,199.693L156.603,199.717L157.732,199.74L158.862,199.761L159.991,199.78L161.12,199.797L162.249,199.813L163.378,199.828L164.507,199.842L165.636,199.854L165.693,199.855L166.765,199.866L167.894,199.877L169.023,199.886L170.152,199.895L171.281,199.904L172.41,199.911L173.54,199.919L174.669,199.925L175.798,199.931L176.927,199.936L178.056,199.942L179.185,199.946L180.314,199.95L181.443,199.954L182.572,199.958L183.701,199.961L184.83,199.964L185.959,199.967L187.088,199.97L188.217,199.972L189.347,199.974L189.514,199.975L190.476,199.977L191.605,199.978L192.734,199.98L193.863,199.982L194.992,199.983L196.121,199.984L197.25,199.986L198.379,199.987L199.508,199.988L200.637,199.989L201.766,199.99L202.895,199.991L204.025,199.991L205.154,199.992L206.283,199.993L207.412,199.993L208.541,199.994L209.67,199.994L210.799,199.995L211.928,199.995L213.057,199.996L213.382,199.996L214.186,199.996L215.315,199.996L216.444,199.997L217.573,199.997L218.702,199.997L219.832,199.997L220.961,199.998L222.09,199.998L223.219,199.998L224.348,199.998L225.477,199.998L226.606,199.998L227.735,199.998L228.864,199.999L229.993,199.999L231.122,199.999L232.251,199.999L233.38,199.999L234.51,199.999L235.639,199.999L236.768,199.999L237.238,199.999L237.897,199.999L239.026,199.999L240.155,199.999L241.284,199.999L242.413,199.999L243.542,200L244.671,200L245.8,200L246.929,200L248.058,200L249.187,200L250.317,200L251.446,200L252.575,200L253.704,200L254.833,200L255.962,200" stroke="#e15759" stroke-width="1.5"/></g></g><path class="foreground" aria-hidden="true" d="" display="none"/></g></g><g class="mark-symbol role-mark layer_1_marks" role="graphics-object" aria-roledescription="symbol mark container"><path aria-label="Sera Dilution: 1e-5; Fraction Infectivity: 0.767165; Serum: mRNA-74" role="graphics-symbol" aria-roledescription="circle" transform="translate(49.999999999999986,46.567)" d="M2.739,0A2.739,2.739,0,1,1,-2.739,0A2.739,2.739,0,1,1,2.739,0" fill="#4e79a7" stroke-width="2" opacity="1"/><path aria-label="Sera Dilution: 3e-5; Fraction Infectivity: 0.44563; Serum: mRNA-74" role="graphics-symbol" aria-roledescription="circle" transform="translate(73.8560627359831,110.87400000000001)" d="M2.739,0A2.739,2.739,0,1,1,-2.739,0A2.739,2.739,0,1,1,2.739,0" fill="#4e79a7" stroke-width="2" opacity="1"/><path aria-label="Sera Dilution: 8e-5; Fraction Infectivity: 0.062735; Serum: mRNA-74" role="graphics-symbol" aria-roledescription="circle" transform="translate(95.15449934959717,187.453)" d="M2.739,0A2.739,2.739,0,1,1,-2.739,0A2.739,2.739,0,1,1,2.739,0" fill="#4e79a7" stroke-width="2" opacity="1"/><path aria-label="Sera Dilution: 2e-4; Fraction Infectivity: 0.00139; Serum: mRNA-74" role="graphics-symbol" aria-roledescription="circle" transform="translate(118.08639180087962,199.722)" d="M2.739,0A2.739,2.739,0,1,1,-2.739,0A2.739,2.739,0,1,1,2.739,0" fill="#4e79a7" stroke-width="2" opacity="1"/><path aria-label="Sera Dilution: 7e-4; Fraction Infectivity: 0.00011; Serum: mRNA-74" role="graphics-symbol" aria-roledescription="circle" transform="translate(141.94245453686275,199.97799999999998)" d="M2.739,0A2.739,2.739,0,1,1,-2.739,0A2.739,2.739,0,1,1,2.739,0" fill="#4e79a7" stroke-width="2" opacity="1"/><path aria-label="Sera Dilution: 2e-3; Fraction Infectivity: 0.000085; Serum: mRNA-74" role="graphics-symbol" aria-roledescription="circle" transform="translate(165.69336101845767,199.983)" d="M2.739,0A2.739,2.739,0,1,1,-2.739,0A2.739,2.739,0,1,1,2.739,0" fill="#4e79a7" stroke-width="2" opacity="1"/><path aria-label="Sera Dilution: 6e-3; Fraction Infectivity: 0.000065; Serum: mRNA-74" role="graphics-symbol" aria-roledescription="circle" transform="translate(189.5142582016621,199.987)" d="M2.739,0A2.739,2.739,0,1,1,-2.739,0A2.739,2.739,0,1,1,2.739,0" fill="#4e79a7" stroke-width="2" opacity="1"/><path aria-label="Sera Dilution: 2e-2; Fraction Infectivity: 0.000055; Serum: mRNA-74" role="graphics-symbol" aria-roledescription="circle" transform="translate(213.38204911729576,199.989)" d="M2.739,0A2.739,2.739,0,1,1,-2.739,0A2.739,2.739,0,1,1,2.739,0" fill="#4e79a7" stroke-width="2" opacity="1"/><path aria-label="Sera Dilution: 6e-2; Fraction Infectivity: 0.000045; Serum: mRNA-74" role="graphics-symbol" aria-roledescription="circle" transform="translate(237.23811185327887,199.991)" d="M2.739,0A2.739,2.739,0,1,1,-2.739,0A2.739,2.739,0,1,1,2.739,0" fill="#4e79a7" stroke-width="2" opacity="1"/><path aria-label="Sera Dilution: 1e-5; Fraction Infectivity: 0.74229; Serum: mRNA-75" role="graphics-symbol" aria-roledescription="circle" transform="translate(49.999999999999986,51.542)" d="M2.739,0A2.739,2.739,0,1,1,-2.739,0A2.739,2.739,0,1,1,2.739,0" fill="#f28e2c" stroke-width="2" opacity="1"/><path aria-label="Sera Dilution: 3e-5; Fraction Infectivity: 0.45417; Serum: mRNA-75" role="graphics-symbol" aria-roledescription="circle" transform="translate(73.8560627359831,109.16600000000001)" d="M2.739,0A2.739,2.739,0,1,1,-2.739,0A2.739,2.739,0,1,1,2.739,0" fill="#f28e2c" stroke-width="2" opacity="1"/><path aria-label="Sera Dilution: 8e-5; Fraction Infectivity: 0.072555; Serum: mRNA-75" role="graphics-symbol" aria-roledescription="circle" transform="translate(95.15449934959717,185.489)" d="M2.739,0A2.739,2.739,0,1,1,-2.739,0A2.739,2.739,0,1,1,2.739,0" fill="#f28e2c" stroke-width="2" opacity="1"/><path aria-label="Sera Dilution: 2e-4; Fraction Infectivity: 0.00086; Serum: mRNA-75" role="graphics-symbol" aria-roledescription="circle" transform="translate(118.08639180087962,199.828)" d="M2.739,0A2.739,2.739,0,1,1,-2.739,0A2.739,2.739,0,1,1,2.739,0" fill="#f28e2c" stroke-width="2" opacity="1"/><path aria-label="Sera Dilution: 7e-4; Fraction Infectivity: 0.000115; Serum: mRNA-75" role="graphics-symbol" aria-roledescription="circle" transform="translate(141.94245453686275,199.977)" d="M2.739,0A2.739,2.739,0,1,1,-2.739,0A2.739,2.739,0,1,1,2.739,0" fill="#f28e2c" stroke-width="2" opacity="1"/><path aria-label="Sera Dilution: 2e-3; Fraction Infectivity: 0.000075; Serum: mRNA-75" role="graphics-symbol" aria-roledescription="circle" transform="translate(165.69336101845767,199.98499999999999)" d="M2.739,0A2.739,2.739,0,1,1,-2.739,0A2.739,2.739,0,1,1,2.739,0" fill="#f28e2c" stroke-width="2" opacity="1"/><path aria-label="Sera Dilution: 6e-3; Fraction Infectivity: 0.000055; Serum: mRNA-75" role="graphics-symbol" aria-roledescription="circle" transform="translate(189.5142582016621,199.989)" d="M2.739,0A2.739,2.739,0,1,1,-2.739,0A2.739,2.739,0,1,1,2.739,0" fill="#f28e2c" stroke-width="2" opacity="1"/><path aria-label="Sera Dilution: 2e-2; Fraction Infectivity: 0.00004; Serum: mRNA-75" role="graphics-symbol" aria-roledescription="circle" transform="translate(213.38204911729576,199.992)" d="M2.739,0A2.739,2.739,0,1,1,-2.739,0A2.739,2.739,0,1,1,2.739,0" fill="#f28e2c" stroke-width="2" opacity="1"/><path aria-label="Sera Dilution: 6e-2; Fraction Infectivity: 0.00004; Serum: mRNA-75" role="graphics-symbol" aria-roledescription="circle" transform="translate(237.23811185327887,199.992)" d="M2.739,0A2.739,2.739,0,1,1,-2.739,0A2.739,2.739,0,1,1,2.739,0" fill="#f28e2c" stroke-width="2" opacity="1"/><path aria-label="Sera Dilution: 1e-5; Fraction Infectivity: 0.750415; Serum: NiVsG-61" role="graphics-symbol" aria-roledescription="circle" transform="translate(49.999999999999986,49.91699999999999)" d="M2.739,0A2.739,2.739,0,1,1,-2.739,0A2.739,2.739,0,1,1,2.739,0" fill="#e15759" stroke-width="2" opacity="1"/><path aria-label="Sera Dilution: 3e-5; Fraction Infectivity: 0.42767; Serum: NiVsG-61" role="graphics-symbol" aria-roledescription="circle" transform="translate(73.8560627359831,114.46600000000001)" d="M2.739,0A2.739,2.739,0,1,1,-2.739,0A2.739,2.739,0,1,1,2.739,0" fill="#e15759" stroke-width="2" opacity="1"/><path aria-label="Sera Dilution: 8e-5; Fraction Infectivity: 0.067015; Serum: NiVsG-61" role="graphics-symbol" aria-roledescription="circle" transform="translate(95.15449934959717,186.59699999999998)" d="M2.739,0A2.739,2.739,0,1,1,-2.739,0A2.739,2.739,0,1,1,2.739,0" fill="#e15759" stroke-width="2" opacity="1"/><path aria-label="Sera Dilution: 2e-4; Fraction Infectivity: 0.00124; Serum: NiVsG-61" role="graphics-symbol" aria-roledescription="circle" transform="translate(118.08639180087962,199.752)" d="M2.739,0A2.739,2.739,0,1,1,-2.739,0A2.739,2.739,0,1,1,2.739,0" fill="#e15759" stroke-width="2" opacity="1"/><path aria-label="Sera Dilution: 7e-4; Fraction Infectivity: 0.0001; Serum: NiVsG-61" role="graphics-symbol" aria-roledescription="circle" transform="translate(141.94245453686275,199.98)" d="M2.739,0A2.739,2.739,0,1,1,-2.739,0A2.739,2.739,0,1,1,2.739,0" fill="#e15759" stroke-width="2" opacity="1"/><path aria-label="Sera Dilution: 2e-3; Fraction Infectivity: 0.00007; Serum: NiVsG-61" role="graphics-symbol" aria-roledescription="circle" transform="translate(165.69336101845767,199.986)" d="M2.739,0A2.739,2.739,0,1,1,-2.739,0A2.739,2.739,0,1,1,2.739,0" fill="#e15759" stroke-width="2" opacity="1"/><path aria-label="Sera Dilution: 6e-3; Fraction Infectivity: 0.00005; Serum: NiVsG-61" role="graphics-symbol" aria-roledescription="circle" transform="translate(189.5142582016621,199.99)" d="M2.739,0A2.739,2.739,0,1,1,-2.739,0A2.739,2.739,0,1,1,2.739,0" fill="#e15759" stroke-width="2" opacity="1"/><path aria-label="Sera Dilution: 2e-2; Fraction Infectivity: 0.00005; Serum: NiVsG-61" role="graphics-symbol" aria-roledescription="circle" transform="translate(213.38204911729576,199.99)" d="M2.739,0A2.739,2.739,0,1,1,-2.739,0A2.739,2.739,0,1,1,2.739,0" fill="#e15759" stroke-width="2" opacity="1"/><path aria-label="Sera Dilution: 6e-2; Fraction Infectivity: 0.000055; Serum: NiVsG-61" role="graphics-symbol" aria-roledescription="circle" transform="translate(237.23811185327887,199.989)" d="M2.739,0A2.739,2.739,0,1,1,-2.739,0A2.739,2.739,0,1,1,2.739,0" fill="#e15759" stroke-width="2" opacity="1"/></g><g class="mark-rule role-mark layer_2_marks" role="graphics-object" aria-roledescription="rule mark container"><line aria-label="concentration: 0.00001; Fraction Infectivity: 0.765; upper_lower: 0.76933; Serum: mRNA-74; upper: 0.76933; lower: 0.765" role="graphics-symbol" aria-roledescription="errorbar" transform="translate(49.999999999999986,47)" x2="0" y2="-0.8659999999999926" stroke="#4e79a7" opacity="1"/><line aria-label="concentration: 0.00003; Fraction Infectivity: 0.40527; upper_lower: 0.48599; Serum: mRNA-74; upper: 0.48599; lower: 0.40527" role="graphics-symbol" aria-roledescription="errorbar" transform="translate(73.8560627359831,118.946)" x2="0" y2="-16.143999999999977" stroke="#4e79a7" opacity="1"/><line aria-label="concentration: 0.00008; Fraction Infectivity: 0.04443; upper_lower: 0.08104; Serum: mRNA-74; upper: 0.08104; lower: 0.04443" role="graphics-symbol" aria-roledescription="errorbar" transform="translate(95.15449934959717,191.114)" x2="0" y2="-7.322000000000003" stroke="#4e79a7" opacity="1"/><line aria-label="concentration: 0.00023; Fraction Infectivity: 0.0004; upper_lower: 0.00238; Serum: mRNA-74; upper: 0.00238; lower: 0.0004" role="graphics-symbol" aria-roledescription="errorbar" transform="translate(118.08639180087962,199.92000000000002)" x2="0" y2="-0.396000000000015" stroke="#4e79a7" opacity="1"/><line aria-label="concentration: 0.00069; Fraction Infectivity: 0.00009; upper_lower: 0.00013; Serum: mRNA-74; upper: 0.00013; lower: 0.00009" role="graphics-symbol" aria-roledescription="errorbar" transform="translate(141.94245453686275,199.982)" x2="0" y2="-0.007999999999981355" stroke="#4e79a7" opacity="1"/><line aria-label="concentration: 0.00206; Fraction Infectivity: 0.00007; upper_lower: 0.0001; Serum: mRNA-74; upper: 0.0001; lower: 0.00007" role="graphics-symbol" aria-roledescription="errorbar" transform="translate(165.69336101845767,199.986)" x2="0" y2="-0.006000000000000227" stroke="#4e79a7" opacity="1"/><line aria-label="concentration: 0.00617; Fraction Infectivity: 0.00005; upper_lower: 0.00008; Serum: mRNA-74; upper: 0.00008; lower: 0.00005" role="graphics-symbol" aria-roledescription="errorbar" transform="translate(189.5142582016621,199.99)" x2="0" y2="-0.006000000000000227" stroke="#4e79a7" opacity="1"/><line aria-label="concentration: 0.01852; Fraction Infectivity: 0.00005; upper_lower: 0.00006; Serum: mRNA-74; upper: 0.00006; lower: 0.00005" role="graphics-symbol" aria-roledescription="errorbar" transform="translate(213.38204911729576,199.99)" x2="0" y2="-0.0020000000000095497" stroke="#4e79a7" opacity="1"/><line aria-label="concentration: 0.05556; Fraction Infectivity: 0.00004; upper_lower: 0.00005; Serum: mRNA-74; upper: 0.00005; lower: 0.00004" role="graphics-symbol" aria-roledescription="errorbar" transform="translate(237.23811185327887,199.992)" x2="0" y2="-0.001999999999981128" stroke="#4e79a7" opacity="1"/><line aria-label="concentration: 0.00001; Fraction Infectivity: 0.72517; upper_lower: 0.75941; Serum: mRNA-75; upper: 0.75941; lower: 0.72517" role="graphics-symbol" aria-roledescription="errorbar" transform="translate(49.999999999999986,54.966)" x2="0" y2="-6.848000000000006" stroke="#f28e2c" opacity="1"/><line aria-label="concentration: 0.00003; Fraction Infectivity: 0.4375; upper_lower: 0.47084; Serum: mRNA-75; upper: 0.47084; lower: 0.4375" role="graphics-symbol" aria-roledescription="errorbar" transform="translate(73.8560627359831,112.5)" x2="0" y2="-6.667999999999978" stroke="#f28e2c" opacity="1"/><line aria-label="concentration: 0.00008; Fraction Infectivity: 0.06105; upper_lower: 0.08406; Serum: mRNA-75; upper: 0.08406; lower: 0.06105" role="graphics-symbol" aria-roledescription="errorbar" transform="translate(95.15449934959717,187.79)" x2="0" y2="-4.602000000000004" stroke="#f28e2c" opacity="1"/><line aria-label="concentration: 0.00023; Fraction Infectivity: 0.00084; upper_lower: 0.00088; Serum: mRNA-75; upper: 0.00088; lower: 0.00084" role="graphics-symbol" aria-roledescription="errorbar" transform="translate(118.08639180087962,199.83200000000002)" x2="0" y2="-0.008000000000009777" stroke="#f28e2c" opacity="1"/><line aria-label="concentration: 0.00069; Fraction Infectivity: 0.00011; upper_lower: 0.00012; Serum: mRNA-75; upper: 0.00012; lower: 0.00011" role="graphics-symbol" aria-roledescription="errorbar" transform="translate(141.94245453686275,199.97799999999998)" x2="0" y2="-0.001999999999981128" stroke="#f28e2c" opacity="1"/><line aria-label="concentration: 0.00206; Fraction Infectivity: 0.00007; upper_lower: 0.00008; Serum: mRNA-75; upper: 0.00008; lower: 0.00007" role="graphics-symbol" aria-roledescription="errorbar" transform="translate(165.69336101845767,199.986)" x2="0" y2="-0.001999999999981128" stroke="#f28e2c" opacity="1"/><line aria-label="concentration: 0.00617; Fraction Infectivity: 0.00004; upper_lower: 0.00007; Serum: mRNA-75; upper: 0.00007; lower: 0.00004" role="graphics-symbol" aria-roledescription="errorbar" transform="translate(189.5142582016621,199.992)" x2="0" y2="-0.006000000000000227" stroke="#f28e2c" opacity="1"/><line aria-label="concentration: 0.01852; Fraction Infectivity: 0.00004; upper_lower: 0.00004; Serum: mRNA-75; upper: 0.00004; lower: 0.00004" role="graphics-symbol" aria-roledescription="errorbar" transform="translate(213.38204911729576,199.992)" x2="0" y2="0" stroke="#f28e2c" opacity="1"/><line aria-label="concentration: 0.05556; Fraction Infectivity: 0.00003; upper_lower: 0.00005; Serum: mRNA-75; upper: 0.00005; lower: 0.00003" role="graphics-symbol" aria-roledescription="errorbar" transform="translate(237.23811185327887,199.994)" x2="0" y2="-0.003999999999990678" stroke="#f28e2c" opacity="1"/><line aria-label="concentration: 0.00001; Fraction Infectivity: 0.73925; upper_lower: 0.76158; Serum: NiVsG-61; upper: 0.76158; lower: 0.73925" role="graphics-symbol" aria-roledescription="errorbar" transform="translate(49.999999999999986,52.150000000000006)" x2="0" y2="-4.466000000000037" stroke="#e15759" opacity="1"/><line aria-label="concentration: 0.00003; Fraction Infectivity: 0.39872; upper_lower: 0.45662; Serum: NiVsG-61; upper: 0.45662; lower: 0.39872" role="graphics-symbol" aria-roledescription="errorbar" transform="translate(73.8560627359831,120.256)" x2="0" y2="-11.580000000000013" stroke="#e15759" opacity="1"/><line aria-label="concentration: 0.00008; Fraction Infectivity: 0.058; upper_lower: 0.07603; Serum: NiVsG-61; upper: 0.07603; lower: 0.058" role="graphics-symbol" aria-roledescription="errorbar" transform="translate(95.15449934959717,188.39999999999998)" x2="0" y2="-3.6059999999999945" stroke="#e15759" opacity="1"/><line aria-label="concentration: 0.00023; Fraction Infectivity: 0.00053; upper_lower: 0.00195; Serum: NiVsG-61; upper: 0.00195; lower: 0.00053" role="graphics-symbol" aria-roledescription="errorbar" transform="translate(118.08639180087962,199.894)" x2="0" y2="-0.28400000000002024" stroke="#e15759" opacity="1"/><line aria-label="concentration: 0.00069; Fraction Infectivity: 0.00008; upper_lower: 0.00012; Serum: NiVsG-61; upper: 0.00012; lower: 0.00008" role="graphics-symbol" aria-roledescription="errorbar" transform="translate(141.94245453686275,199.984)" x2="0" y2="-0.008000000000009777" stroke="#e15759" opacity="1"/><line aria-label="concentration: 0.00206; Fraction Infectivity: 0.00006; upper_lower: 0.00008; Serum: NiVsG-61; upper: 0.00008; lower: 0.00006" role="graphics-symbol" aria-roledescription="errorbar" transform="translate(165.69336101845767,199.988)" x2="0" y2="-0.003999999999990678" stroke="#e15759" opacity="1"/><line aria-label="concentration: 0.00617; Fraction Infectivity: 0.00004; upper_lower: 0.00006; Serum: NiVsG-61; upper: 0.00006; lower: 0.00004" role="graphics-symbol" aria-roledescription="errorbar" transform="translate(189.5142582016621,199.992)" x2="0" y2="-0.003999999999990678" stroke="#e15759" opacity="1"/><line aria-label="concentration: 0.01852; Fraction Infectivity: 0.00005; upper_lower: 0.00005; Serum: NiVsG-61; upper: 0.00005; lower: 0.00005" role="graphics-symbol" aria-roledescription="errorbar" transform="translate(213.38204911729576,199.99)" x2="0" y2="0" stroke="#e15759" opacity="1"/><line aria-label="concentration: 0.05556; Fraction Infectivity: 0.00005; upper_lower: 0.00006; Serum: NiVsG-61; upper: 0.00006; lower: 0.00005" role="graphics-symbol" aria-roledescription="errorbar" transform="translate(237.23811185327887,199.99)" x2="0" y2="-0.0020000000000095497" stroke="#e15759" opacity="1"/></g><g class="mark-group role-legend" role="graphics-symbol" aria-roledescription="legend" aria-label="Symbol legend titled 'Serum' for fill color and stroke color with 3 values: mRNA-74, mRNA-75, NiVsG-61"><g transform="translate(318,0)"><path class="background" aria-hidden="true" d="M0,0h90v75h-90Z" pointer-events="none"/><g><g class="mark-group role-legend-entry"><g transform="translate(5,24)"><path class="background" aria-hidden="true" d="M0,0h0v0h0Z" pointer-events="none"/><g><g class="mark-group role-scope" role="graphics-object" aria-roledescription="group mark container"><g transform="translate(0,0)"><path class="background" aria-hidden="true" d="M0,0h79.455078125v14h-79.455078125Z" pointer-events="none" opacity="1"/><g><g class="mark-symbol role-legend-symbol" pointer-events="none"><path transform="translate(7,7)" d="M5,0A5,5,0,1,1,-5,0A5,5,0,1,1,5,0" fill="#4e79a7" stroke="#4e79a7" stroke-width="1.5" opacity="1"/></g><g class="mark-text role-legend-label" pointer-events="none"><text text-anchor="start" transform="translate(18,11)" font-family="Helvetica" font-size="14px" fill="#000" opacity="1">mRNA-74</text></g></g><path class="foreground" aria-hidden="true" d="" pointer-events="none" display="none"/></g><g transform="translate(0,16)"><path class="background" aria-hidden="true" d="M0,0h79.455078125v14h-79.455078125Z" pointer-events="none" opacity="1"/><g><g class="mark-symbol role-legend-symbol" pointer-events="none"><path transform="translate(7,7)" d="M5,0A5,5,0,1,1,-5,0A5,5,0,1,1,5,0" fill="#f28e2c" stroke="#f28e2c" stroke-width="1.5" opacity="1"/></g><g class="mark-text role-legend-label" pointer-events="none"><text text-anchor="start" transform="translate(18,11)" font-family="Helvetica" font-size="14px" fill="#000" opacity="1">mRNA-75</text></g></g><path class="foreground" aria-hidden="true" d="" pointer-events="none" display="none"/></g><g transform="translate(0,32)"><path class="background" aria-hidden="true" d="M0,0h79.455078125v14h-79.455078125Z" pointer-events="none" opacity="1"/><g><g class="mark-symbol role-legend-symbol" pointer-events="none"><path transform="translate(7,7)" d="M5,0A5,5,0,1,1,-5,0A5,5,0,1,1,5,0" fill="#e15759" stroke="#e15759" stroke-width="1.5" opacity="1"/></g><g class="mark-text role-legend-label" pointer-events="none"><text text-anchor="start" transform="translate(18,11)" font-family="Helvetica" font-size="14px" fill="#000" opacity="1">NiVsG-61</text></g></g><path class="foreground" aria-hidden="true" d="" pointer-events="none" display="none"/></g></g></g><path class="foreground" aria-hidden="true" d="" pointer-events="none" display="none"/></g></g><g class="mark-text role-legend-title" pointer-events="none"><text text-anchor="start" transform="translate(5,16)" font-family="Helvetica" font-size="14px" font-weight="bold" fill="#000" opacity="1">Serum</text></g></g><path class="foreground" aria-hidden="true" d="" pointer-events="none" display="none"/></g></g></g><path class="foreground" aria-hidden="true" d="" display="none"/></g></g></g></svg>