<svg xmlns="http://www.w3.org/2000/svg" xmlns:xlink="http://www.w3.org/1999/xlink" version="1.1" class="marks" width="528" height="256" viewBox="0 0 528 256"><rect width="528" height="256" fill="white"/><g fill="none" stroke-miterlimit="10" transform="translate(50,12)"><g class="mark-group role-frame root" role="graphics-object" aria-roledescription="group mark container"><g transform="translate(0,0)"><path class="background" aria-hidden="true" d="M0,0h300v200h-300Z" stroke-width="0"/><g><g class="mark-group role-axis" role="graphics-symbol" aria-roledescription="axis" aria-label="X-axis titled 'Sera Dilution' for a log scale with values from 1e-6 to 1e+0"><g transform="translate(0.5,200.5)"><path class="background" aria-hidden="true" d="M0,0h0v0h0Z" pointer-events="none"/><g><g class="mark-rule role-axis-tick" pointer-events="none"><line transform="translate(0,0)" x2="0" y2="4" stroke="black" stroke-width="1" opacity="1"/><line transform="translate(100,0)" x2="0" y2="4" stroke="black" stroke-width="1" opacity="1"/><line transform="translate(200,0)" x2="0" y2="4" stroke="black" stroke-width="1" opacity="1"/><line transform="translate(300,0)" x2="0" y2="4" stroke="black" stroke-width="1" opacity="1"/></g><g class="mark-text role-axis-label" pointer-events="none"><text text-anchor="middle" transform="translate(0,17)" font-family="Helvetica" font-size="14px" font-weight="normal" fill="#000" opacity="1">1e-6</text><text text-anchor="middle" transform="translate(100.00000000000001,17)" font-family="Helvetica" font-size="14px" font-weight="normal" fill="#000" opacity="1">1e-4</text><text text-anchor="middle" transform="translate(200.00000000000003,17)" font-family="Helvetica" font-size="14px" font-weight="normal" fill="#000" opacity="1">1e-2</text><text text-anchor="middle" transform="translate(300,17)" font-family="Helvetica" font-size="14px" font-weight="normal" fill="#000" opacity="1">1e+0</text></g><g class="mark-rule role-axis-domain" pointer-events="none"><line transform="translate(0,0)" x2="300" y2="0" stroke="black" stroke-width="1" opacity="1"/></g><g class="mark-text role-axis-title" pointer-events="none"><text text-anchor="middle" transform="translate(150,36)" font-family="Helvetica" font-size="14px" font-weight="bold" fill="#000" opacity="1">Sera Dilution</text></g></g><path class="foreground" aria-hidden="true" d="" pointer-events="none" display="none"/></g></g><g class="mark-group role-axis" role="graphics-symbol" aria-roledescription="axis" aria-label="Y-axis titled 'Fraction Infectivity' for a linear scale with values from 0.0 to 1.0"><g transform="translate(0.5,0.5)"><path class="background" aria-hidden="true" d="M0,0h0v0h0Z" pointer-events="none"/><g><g class="mark-rule role-axis-tick" pointer-events="none"><line transform="translate(0,200)" x2="-4" y2="0" stroke="black" stroke-width="1" opacity="1"/><line transform="translate(0,100)" x2="-4" y2="0" stroke="black" stroke-width="1" opacity="1"/><line transform="translate(0,0)" x2="-4" y2="0" stroke="black" stroke-width="1" opacity="1"/></g><g class="mark-text role-axis-label" pointer-events="none"><text text-anchor="end" transform="translate(-6,204)" font-family="Helvetica" font-size="14px" font-weight="normal" fill="#000" opacity="1">0.0</text><text text-anchor="end" transform="translate(-6,104)" font-family="Helvetica" font-size="14px" font-weight="normal" fill="#000" opacity="1">0.5</text><text text-anchor="end" transform="translate(-6,4)" font-family="Helvetica" font-size="14px" font-weight="normal" fill="#000" opacity="1">1.0</text></g><g class="mark-rule role-axis-domain" pointer-events="none"><line transform="translate(0,200)" x2="0" y2="-200" stroke="black" stroke-width="1" opacity="1"/></g><g class="mark-text role-axis-title" pointer-events="none"><text text-anchor="middle" transform="translate(-30.4619140625,100) rotate(-90) translate(0,-3)" font-family="Helvetica" font-size="14px" font-weight="bold" fill="#000" opacity="1">Fraction Infectivity</text></g></g><path class="foreground" aria-hidden="true" d="" pointer-events="none" display="none"/></g></g><g class="mark-group role-scope layer_0_pathgroup" role="graphics-object" aria-roledescription="group mark container"><g transform="translate(0,0)"><path class="background" aria-hidden="true" d="M0,0h300v200h-300Z"/><g><g class="mark-line role-mark layer_0_marks" role="graphics-object" aria-roledescription="line mark container"><path aria-label="Sera Dilution: 4e-6; Fraction Infectivity: 0.920184804111; Serum: HeVsG_p44-5min" role="graphics-symbol" aria-roledescription="line mark" d="M31.276,15.963L32.405,16.557L33.534,17.172L34.663,17.807L35.792,18.463L36.922,19.14L38.051,19.84L39.18,20.563L40.309,21.308L41.438,22.078L42.567,22.871L43.696,23.69L44.825,24.533L45.954,25.403L47.083,26.298L48.212,27.22L49.341,28.169L50,28.736L50.47,29.146L51.6,30.151L52.729,31.184L53.858,32.245L54.987,33.336L56.116,34.456L57.245,35.606L58.374,36.785L59.503,37.994L60.632,39.234L61.761,40.504L62.89,41.804L64.019,43.135L65.148,44.497L66.277,45.888L67.407,47.31L68.536,48.762L69.665,50.244L70.794,51.756L71.923,53.297L73.052,54.867L73.856,56.002L74.181,56.465L75.31,58.091L76.439,59.745L77.568,61.425L78.697,63.131L79.826,64.862L80.955,66.618L82.085,68.397L83.214,70.199L84.343,72.022L85.472,73.866L86.601,75.729L87.73,77.61L88.859,79.508L89.988,81.421L91.117,83.349L92.246,85.289L93.375,87.241L94.504,89.202L95.154,90.336L95.633,91.172L96.762,93.15L97.892,95.132L99.021,97.118L100.15,99.107L101.279,101.096L102.408,103.084L103.537,105.07L104.666,107.052L105.795,109.029L106.924,110.998L108.053,112.959L109.182,114.91L110.311,116.849L111.44,118.775L112.57,120.687L113.699,122.583L114.828,124.462L115.957,126.323L117.086,128.165L118.086,129.78L118.215,129.986L119.344,131.785L120.473,133.562L121.602,135.315L122.731,137.044L123.86,138.748L124.989,140.425L126.118,142.076L127.247,143.699L128.377,145.295L129.506,146.862L130.635,148.4L131.764,149.908L132.893,151.387L134.022,152.836L135.151,154.255L136.28,155.644L137.409,157.002L138.538,158.33L139.667,159.627L140.796,160.894L141.925,162.13L141.942,162.149L143.055,163.337L144.184,164.513L145.313,165.659L146.442,166.776L147.571,167.864L148.7,168.923L149.829,169.953L150.958,170.955L152.087,171.929L153.216,172.875L154.345,173.794L155.474,174.687L156.603,175.554L157.732,176.395L158.862,177.211L159.991,178.002L161.12,178.769L162.249,179.512L163.378,180.232L164.507,180.93L165.636,181.605L165.693,181.639L166.765,182.259L167.894,182.892L169.023,183.504L170.152,184.096L171.281,184.669L172.41,185.223L173.54,185.758L174.669,186.276L175.798,186.776L176.927,187.259L178.056,187.725L179.185,188.176L180.314,188.611L181.443,189.03L182.572,189.436L183.701,189.827L184.83,190.204L185.959,190.568L187.088,190.919L188.217,191.258L189.347,191.585L189.514,191.632L190.476,191.9L191.605,192.203L192.734,192.496L193.863,192.778L194.992,193.05L196.121,193.312L197.25,193.565L198.379,193.808L199.508,194.042L200.637,194.268L201.766,194.485L202.895,194.695L204.025,194.896L205.154,195.091L206.283,195.278L207.412,195.458L208.541,195.631L209.67,195.798L210.799,195.958L211.928,196.113L213.057,196.262L213.382,196.303L214.186,196.405L215.315,196.543L216.444,196.675L217.573,196.803L218.702,196.926L219.832,197.044L220.961,197.158L222.09,197.267L223.219,197.372L224.348,197.473L225.477,197.571L226.606,197.664L227.735,197.754L228.864,197.841L229.993,197.924L231.122,198.005L232.251,198.082L233.38,198.156L234.51,198.227L235.639,198.296L236.768,198.362L237.238,198.388L237.897,198.425L239.026,198.486L240.155,198.545L241.284,198.601L242.413,198.655L243.542,198.707L244.671,198.757L245.8,198.806L246.929,198.852L248.058,198.896L249.187,198.939L250.317,198.98L251.446,199.02L252.575,199.058L253.704,199.095L254.833,199.13L255.962,199.164" stroke="#4e79a7" stroke-width="1.5"/></g></g><path class="foreground" aria-hidden="true" d="" display="none"/></g><g transform="translate(0,0)"><path class="background" aria-hidden="true" d="M0,0h300v200h-300Z"/><g><g class="mark-line role-mark layer_0_marks" role="graphics-object" aria-roledescription="line mark container"><path aria-label="Sera Dilution: 4e-6; Fraction Infectivity: 0.943153857506; Serum: HeVsG_p44-60min" role="graphics-symbol" aria-roledescription="line mark" d="M31.276,11.369L32.405,11.841L33.534,12.33L34.663,12.838L35.792,13.366L36.922,13.914L38.051,14.483L39.18,15.073L40.309,15.685L41.438,16.32L42.567,16.978L43.696,17.66L44.825,18.366L45.954,19.098L47.083,19.856L48.212,20.641L49.341,21.453L50,21.939L50.47,22.293L51.6,23.161L52.729,24.059L53.858,24.987L54.987,25.945L56.116,26.934L57.245,27.955L58.374,29.008L59.503,30.094L60.632,31.213L61.761,32.365L62.89,33.552L64.019,34.773L65.148,36.03L66.277,37.321L67.407,38.648L68.536,40.01L69.665,41.408L70.794,42.841L71.923,44.311L73.052,45.816L73.856,46.909L74.181,47.356L75.31,48.933L76.439,50.544L77.568,52.19L78.697,53.87L79.826,55.584L80.955,57.331L82.085,59.11L83.214,60.921L84.343,62.763L85.472,64.635L86.601,66.535L87.73,68.463L88.859,70.418L89.988,72.397L91.117,74.401L92.246,76.426L93.375,78.472L94.504,80.538L95.154,81.735L95.633,82.62L96.762,84.718L97.892,86.831L99.021,88.955L100.15,91.089L101.279,93.232L102.408,95.381L103.537,97.534L104.666,99.689L105.795,101.845L106.924,103.999L108.053,106.149L109.182,108.294L110.311,110.43L111.44,112.558L112.57,114.674L113.699,116.776L114.828,118.863L115.957,120.934L117.086,122.986L118.086,124.787L118.215,125.017L119.344,127.027L120.473,129.014L121.602,130.976L122.731,132.911L123.86,134.82L124.989,136.7L126.118,138.551L127.247,140.371L128.377,142.159L129.506,143.916L130.635,145.639L131.764,147.329L132.893,148.985L134.022,150.606L135.151,152.193L136.28,153.743L137.409,155.259L138.538,156.739L139.667,158.183L140.796,159.591L141.925,160.963L141.942,160.984L143.055,162.3L144.184,163.602L145.313,164.868L146.442,166.099L147.571,167.296L148.7,168.458L149.829,169.587L150.958,170.682L152.087,171.745L153.216,172.775L154.345,173.773L155.474,174.74L156.603,175.677L157.732,176.583L158.862,177.46L159.991,178.308L161.12,179.128L162.249,179.92L163.378,180.686L164.507,181.425L165.636,182.139L165.693,182.175L166.765,182.828L167.894,183.493L169.023,184.134L170.152,184.753L171.281,185.349L172.41,185.924L173.54,186.478L174.669,187.011L175.798,187.525L176.927,188.02L178.056,188.497L179.185,188.955L180.314,189.397L181.443,189.821L182.572,190.23L183.701,190.623L184.83,191.001L185.959,191.364L187.088,191.714L188.217,192.049L189.347,192.372L189.514,192.419L190.476,192.682L191.605,192.98L192.734,193.267L193.863,193.542L194.992,193.806L196.121,194.059L197.25,194.303L198.379,194.537L199.508,194.761L200.637,194.977L201.766,195.184L202.895,195.382L204.025,195.573L205.154,195.756L206.283,195.931L207.412,196.099L208.541,196.261L209.67,196.416L210.799,196.565L211.928,196.707L213.057,196.844L213.382,196.882L214.186,196.975L215.315,197.101L216.444,197.222L217.573,197.337L218.702,197.448L219.832,197.555L220.961,197.657L222.09,197.754L223.219,197.848L224.348,197.938L225.477,198.024L226.606,198.107L227.735,198.186L228.864,198.262L229.993,198.335L231.122,198.404L232.251,198.471L233.38,198.535L234.51,198.597L235.639,198.655L236.768,198.712L237.238,198.735L237.897,198.766L239.026,198.818L240.155,198.867L241.284,198.915L242.413,198.96L243.542,199.004L244.671,199.046L245.8,199.086L246.929,199.124L248.058,199.161L249.187,199.196L250.317,199.23L251.446,199.262L252.575,199.294L253.704,199.323L254.833,199.352L255.962,199.379" stroke="#f28e2c" stroke-width="1.5"/></g></g><path class="foreground" aria-hidden="true" d="" display="none"/></g><g transform="translate(0,0)"><path class="background" aria-hidden="true" d="M0,0h300v200h-300Z"/><g><g class="mark-line role-mark layer_0_marks" role="graphics-object" aria-roledescription="line mark container"><path aria-label="Sera Dilution: 4e-6; Fraction Infectivity: 0.967238389322; Serum: HeVsG_p44-120min" role="graphics-symbol" aria-roledescription="line mark" d="M31.276,6.552L32.405,6.869L33.534,7.2L34.663,7.547L35.792,7.91L36.922,8.289L38.051,8.686L39.18,9.101L40.309,9.535L41.438,9.988L42.567,10.461L43.696,10.956L44.825,11.473L45.954,12.013L47.083,12.576L48.212,13.164L49.341,13.777L50,14.147L50.47,14.417L51.6,15.084L52.729,15.779L53.858,16.504L54.987,17.258L56.116,18.044L57.245,18.862L58.374,19.713L59.503,20.598L60.632,21.518L61.761,22.473L62.89,23.466L64.019,24.496L65.148,25.566L66.277,26.674L67.407,27.823L68.536,29.014L69.665,30.246L70.794,31.521L71.923,32.839L73.052,34.202L73.856,35.199L74.181,35.608L75.31,37.06L76.439,38.557L77.568,40.1L78.697,41.688L79.826,43.322L80.955,45.002L82.085,46.728L83.214,48.5L84.343,50.316L85.472,52.177L86.601,54.082L87.73,56.03L88.859,58.02L89.988,60.052L91.117,62.124L92.246,64.234L93.375,66.382L94.504,68.565L95.154,69.837L95.633,70.781L96.762,73.03L97.892,75.308L99.021,77.614L100.15,79.946L101.279,82.3L102.408,84.675L103.537,87.068L104.666,89.475L105.795,91.895L106.924,94.325L108.053,96.762L109.182,99.202L110.311,101.643L111.44,104.083L112.57,106.517L113.699,108.944L114.828,111.36L115.957,113.763L117.086,116.15L118.086,118.249L118.215,118.518L119.344,120.864L120.473,123.187L121.602,125.484L122.731,127.752L123.86,129.99L124.989,132.196L126.118,134.366L127.247,136.501L128.377,138.598L129.506,140.656L130.635,142.674L131.764,144.65L132.893,146.583L134.022,148.473L135.151,150.318L136.28,152.119L137.409,153.875L138.538,155.585L139.667,157.249L140.796,158.867L141.925,160.44L141.942,160.463L143.055,161.967L144.184,163.448L145.313,164.884L146.442,166.275L147.571,167.622L148.7,168.926L149.829,170.186L150.958,171.403L152.087,172.579L153.216,173.714L154.345,174.809L155.474,175.865L156.603,176.882L157.732,177.862L158.862,178.805L159.991,179.713L161.12,180.586L162.249,181.425L163.378,182.232L164.507,183.006L165.636,183.75L165.693,183.787L166.765,184.465L167.894,185.15L169.023,185.808L170.152,186.438L171.281,187.042L172.41,187.622L173.54,188.177L174.669,188.708L175.798,189.218L176.927,189.705L178.056,190.171L179.185,190.618L180.314,191.045L181.443,191.454L182.572,191.844L183.701,192.218L184.83,192.575L185.959,192.916L187.088,193.242L188.217,193.554L189.347,193.852L189.514,193.895L190.476,194.136L191.605,194.408L192.734,194.667L193.863,194.915L194.992,195.151L196.121,195.377L197.25,195.593L198.379,195.798L199.508,195.994L200.637,196.182L201.766,196.36L202.895,196.531L204.025,196.693L205.154,196.848L206.283,196.996L207.412,197.137L208.541,197.272L209.67,197.4L210.799,197.523L211.928,197.639L213.057,197.751L213.382,197.782L214.186,197.857L215.315,197.958L216.444,198.054L217.573,198.146L218.702,198.234L219.832,198.317L220.961,198.397L222.09,198.472L223.219,198.545L224.348,198.614L225.477,198.679L226.606,198.742L227.735,198.801L228.864,198.858L229.993,198.912L231.122,198.964L232.251,199.013L233.38,199.06L234.51,199.104L235.639,199.147L236.768,199.187L237.238,199.204L237.897,199.226L239.026,199.263L240.155,199.298L241.284,199.331L242.413,199.363L243.542,199.393L244.671,199.422L245.8,199.449L246.929,199.476L248.058,199.501L249.187,199.524L250.317,199.547L251.446,199.568L252.575,199.589L253.704,199.609L254.833,199.627L255.962,199.645" stroke="#e15759" stroke-width="1.5"/></g></g><path class="foreground" aria-hidden="true" d="" display="none"/></g></g><g class="mark-symbol role-mark layer_1_marks" role="graphics-object" aria-roledescription="symbol mark container"><path aria-label="Sera Dilution: 1e-5; Fraction Infectivity: 0.772923457; Serum: HeVsG_p44-5min" role="graphics-symbol" aria-roledescription="circle" transform="translate(49.999999999999986,45.4153086)" d="M2.739,0A2.739,2.739,0,1,1,-2.739,0A2.739,2.739,0,1,1,2.739,0" fill="#4e79a7" stroke-width="2" opacity="1"/><path aria-label="Sera Dilution: 3e-5; Fraction Infectivity: 0.6939745705; Serum: HeVsG_p44-5min" role="graphics-symbol" aria-roledescription="circle" transform="translate(73.8560627359831,61.2050859)" d="M2.739,0A2.739,2.739,0,1,1,-2.739,0A2.739,2.739,0,1,1,2.739,0" fill="#4e79a7" stroke-width="2" opacity="1"/><path aria-label="Sera Dilution: 8e-5; Fraction Infectivity: 0.6064263555; Serum: HeVsG_p44-5min" role="graphics-symbol" aria-roledescription="circle" transform="translate(95.15449934959717,78.7147289)" d="M2.739,0A2.739,2.739,0,1,1,-2.739,0A2.739,2.739,0,1,1,2.739,0" fill="#4e79a7" stroke-width="2" opacity="1"/><path aria-label="Sera Dilution: 2e-4; Fraction Infectivity: 0.418636117; Serum: HeVsG_p44-5min" role="graphics-symbol" aria-roledescription="circle" transform="translate(118.08639180087962,116.27277660000001)" d="M2.739,0A2.739,2.739,0,1,1,-2.739,0A2.739,2.739,0,1,1,2.739,0" fill="#4e79a7" stroke-width="2" opacity="1"/><path aria-label="Sera Dilution: 7e-4; Fraction Infectivity: 0.1511221475; Serum: HeVsG_p44-5min" role="graphics-symbol" aria-roledescription="circle" transform="translate(141.94245453686275,169.77557050000001)" d="M2.739,0A2.739,2.739,0,1,1,-2.739,0A2.739,2.739,0,1,1,2.739,0" fill="#4e79a7" stroke-width="2" opacity="1"/><path aria-label="Sera Dilution: 2e-3; Fraction Infectivity: 0.015556275; Serum: HeVsG_p44-5min" role="graphics-symbol" aria-roledescription="circle" transform="translate(165.69336101845767,196.888745)" d="M2.739,0A2.739,2.739,0,1,1,-2.739,0A2.739,2.739,0,1,1,2.739,0" fill="#4e79a7" stroke-width="2" opacity="1"/><path aria-label="Sera Dilution: 6e-3; Fraction Infectivity: 0.0003439565; Serum: HeVsG_p44-5min" role="graphics-symbol" aria-roledescription="circle" transform="translate(189.5142582016621,199.9312087)" d="M2.739,0A2.739,2.739,0,1,1,-2.739,0A2.739,2.739,0,1,1,2.739,0" fill="#4e79a7" stroke-width="2" opacity="1"/><path aria-label="Sera Dilution: 2e-2; Fraction Infectivity: 0.0000445745; Serum: HeVsG_p44-5min" role="graphics-symbol" aria-roledescription="circle" transform="translate(213.38204911729576,199.99108510000002)" d="M2.739,0A2.739,2.739,0,1,1,-2.739,0A2.739,2.739,0,1,1,2.739,0" fill="#4e79a7" stroke-width="2" opacity="1"/><path aria-label="Sera Dilution: 6e-2; Fraction Infectivity: 0.0000232485; Serum: HeVsG_p44-5min" role="graphics-symbol" aria-roledescription="circle" transform="translate(237.23811185327887,199.99535029999998)" d="M2.739,0A2.739,2.739,0,1,1,-2.739,0A2.739,2.739,0,1,1,2.739,0" fill="#4e79a7" stroke-width="2" opacity="1"/><path aria-label="Sera Dilution: 1e-5; Fraction Infectivity: 0.8167893135; Serum: HeVsG_p44-60min" role="graphics-symbol" aria-roledescription="circle" transform="translate(49.999999999999986,36.64213730000001)" d="M2.739,0A2.739,2.739,0,1,1,-2.739,0A2.739,2.739,0,1,1,2.739,0" fill="#f28e2c" stroke-width="2" opacity="1"/><path aria-label="Sera Dilution: 3e-5; Fraction Infectivity: 0.718937502; Serum: HeVsG_p44-60min" role="graphics-symbol" aria-roledescription="circle" transform="translate(73.8560627359831,56.21249960000001)" d="M2.739,0A2.739,2.739,0,1,1,-2.739,0A2.739,2.739,0,1,1,2.739,0" fill="#f28e2c" stroke-width="2" opacity="1"/><path aria-label="Sera Dilution: 8e-5; Fraction Infectivity: 0.6422857885; Serum: HeVsG_p44-60min" role="graphics-symbol" aria-roledescription="circle" transform="translate(95.15449934959717,71.5428423)" d="M2.739,0A2.739,2.739,0,1,1,-2.739,0A2.739,2.739,0,1,1,2.739,0" fill="#f28e2c" stroke-width="2" opacity="1"/><path aria-label="Sera Dilution: 2e-4; Fraction Infectivity: 0.4501200095; Serum: HeVsG_p44-60min" role="graphics-symbol" aria-roledescription="circle" transform="translate(118.08639180087962,109.9759981)" d="M2.739,0A2.739,2.739,0,1,1,-2.739,0A2.739,2.739,0,1,1,2.739,0" fill="#f28e2c" stroke-width="2" opacity="1"/><path aria-label="Sera Dilution: 7e-4; Fraction Infectivity: 0.156120064; Serum: HeVsG_p44-60min" role="graphics-symbol" aria-roledescription="circle" transform="translate(141.94245453686275,168.7759872)" d="M2.739,0A2.739,2.739,0,1,1,-2.739,0A2.739,2.739,0,1,1,2.739,0" fill="#f28e2c" stroke-width="2" opacity="1"/><path aria-label="Sera Dilution: 2e-3; Fraction Infectivity: 0.010433665; Serum: HeVsG_p44-60min" role="graphics-symbol" aria-roledescription="circle" transform="translate(165.69336101845767,197.913267)" d="M2.739,0A2.739,2.739,0,1,1,-2.739,0A2.739,2.739,0,1,1,2.739,0" fill="#f28e2c" stroke-width="2" opacity="1"/><path aria-label="Sera Dilution: 6e-3; Fraction Infectivity: 0.00019923055; Serum: HeVsG_p44-60min" role="graphics-symbol" aria-roledescription="circle" transform="translate(189.5142582016621,199.96015389)" d="M2.739,0A2.739,2.739,0,1,1,-2.739,0A2.739,2.739,0,1,1,2.739,0" fill="#f28e2c" stroke-width="2" opacity="1"/><path aria-label="Sera Dilution: 2e-2; Fraction Infectivity: 0.0000306702; Serum: HeVsG_p44-60min" role="graphics-symbol" aria-roledescription="circle" transform="translate(213.38204911729576,199.99386596)" d="M2.739,0A2.739,2.739,0,1,1,-2.739,0A2.739,2.739,0,1,1,2.739,0" fill="#f28e2c" stroke-width="2" opacity="1"/><path aria-label="Sera Dilution: 6e-2; Fraction Infectivity: 0.00001410162; Serum: HeVsG_p44-60min" role="graphics-symbol" aria-roledescription="circle" transform="translate(237.23811185327887,199.997179676)" d="M2.739,0A2.739,2.739,0,1,1,-2.739,0A2.739,2.739,0,1,1,2.739,0" fill="#f28e2c" stroke-width="2" opacity="1"/><path aria-label="Sera Dilution: 1e-5; Fraction Infectivity: 0.867799847; Serum: HeVsG_p44-120min" role="graphics-symbol" aria-roledescription="circle" transform="translate(49.999999999999986,26.440030599999996)" d="M2.739,0A2.739,2.739,0,1,1,-2.739,0A2.739,2.739,0,1,1,2.739,0" fill="#e15759" stroke-width="2" opacity="1"/><path aria-label="Sera Dilution: 3e-5; Fraction Infectivity: 0.765755145; Serum: HeVsG_p44-120min" role="graphics-symbol" aria-roledescription="circle" transform="translate(73.8560627359831,46.848971000000006)" d="M2.739,0A2.739,2.739,0,1,1,-2.739,0A2.739,2.739,0,1,1,2.739,0" fill="#e15759" stroke-width="2" opacity="1"/><path aria-label="Sera Dilution: 8e-5; Fraction Infectivity: 0.68779487; Serum: HeVsG_p44-120min" role="graphics-symbol" aria-roledescription="circle" transform="translate(95.15449934959717,62.44102599999999)" d="M2.739,0A2.739,2.739,0,1,1,-2.739,0A2.739,2.739,0,1,1,2.739,0" fill="#e15759" stroke-width="2" opacity="1"/><path aria-label="Sera Dilution: 2e-4; Fraction Infectivity: 0.473752807; Serum: HeVsG_p44-120min" role="graphics-symbol" aria-roledescription="circle" transform="translate(118.08639180087962,105.2494386)" d="M2.739,0A2.739,2.739,0,1,1,-2.739,0A2.739,2.739,0,1,1,2.739,0" fill="#e15759" stroke-width="2" opacity="1"/><path aria-label="Sera Dilution: 7e-4; Fraction Infectivity: 0.164288029; Serum: HeVsG_p44-120min" role="graphics-symbol" aria-roledescription="circle" transform="translate(141.94245453686275,167.1423942)" d="M2.739,0A2.739,2.739,0,1,1,-2.739,0A2.739,2.739,0,1,1,2.739,0" fill="#e15759" stroke-width="2" opacity="1"/><path aria-label="Sera Dilution: 2e-3; Fraction Infectivity: 0.010065757; Serum: HeVsG_p44-120min" role="graphics-symbol" aria-roledescription="circle" transform="translate(165.69336101845767,197.9868486)" d="M2.739,0A2.739,2.739,0,1,1,-2.739,0A2.739,2.739,0,1,1,2.739,0" fill="#e15759" stroke-width="2" opacity="1"/><path aria-label="Sera Dilution: 6e-3; Fraction Infectivity: 0.00005100455; Serum: HeVsG_p44-120min" role="graphics-symbol" aria-roledescription="circle" transform="translate(189.5142582016621,199.98979909000002)" d="M2.739,0A2.739,2.739,0,1,1,-2.739,0A2.739,2.739,0,1,1,2.739,0" fill="#e15759" stroke-width="2" opacity="1"/><path aria-label="Sera Dilution: 2e-2; Fraction Infectivity: 0.0000263574; Serum: HeVsG_p44-120min" role="graphics-symbol" aria-roledescription="circle" transform="translate(213.38204911729576,199.99472852)" d="M2.739,0A2.739,2.739,0,1,1,-2.739,0A2.739,2.739,0,1,1,2.739,0" fill="#e15759" stroke-width="2" opacity="1"/><path aria-label="Sera Dilution: 6e-2; Fraction Infectivity: 0.0000152558; Serum: HeVsG_p44-120min" role="graphics-symbol" aria-roledescription="circle" transform="translate(237.23811185327887,199.99694884000002)" d="M2.739,0A2.739,2.739,0,1,1,-2.739,0A2.739,2.739,0,1,1,2.739,0" fill="#e15759" stroke-width="2" opacity="1"/></g><g class="mark-rule role-mark layer_2_marks" role="graphics-object" aria-roledescription="rule mark container"><line aria-label="concentration: 0.00001; Fraction Infectivity: 0.74371406; upper_lower: 0.802132854; Serum: HeVsG_p44-5min; upper: 0.802132854; lower: 0.74371406" role="graphics-symbol" aria-roledescription="errorbar" transform="translate(49.999999999999986,51.257188000000006)" x2="0" y2="-11.683758800000007" stroke="#4e79a7" opacity="1"/><line aria-label="concentration: 0.00003; Fraction Infectivity: 0.664449205; upper_lower: 0.723499936; Serum: HeVsG_p44-5min; upper: 0.723499936; lower: 0.664449205" role="graphics-symbol" aria-roledescription="errorbar" transform="translate(73.8560627359831,67.110159)" x2="0" y2="-11.810146199999984" stroke="#4e79a7" opacity="1"/><line aria-label="concentration: 0.00008; Fraction Infectivity: 0.604779648; upper_lower: 0.608073063; Serum: HeVsG_p44-5min; upper: 0.608073063; lower: 0.604779648" role="graphics-symbol" aria-roledescription="errorbar" transform="translate(95.15449934959717,79.04407040000001)" x2="0" y2="-0.6586830000000248" stroke="#4e79a7" opacity="1"/><line aria-label="concentration: 0.00023; Fraction Infectivity: 0.397339046; upper_lower: 0.439933188; Serum: HeVsG_p44-5min; upper: 0.439933188; lower: 0.397339046" role="graphics-symbol" aria-roledescription="errorbar" transform="translate(118.08639180087962,120.53219080000002)" x2="0" y2="-8.518828400000004" stroke="#4e79a7" opacity="1"/><line aria-label="concentration: 0.00069; Fraction Infectivity: 0.147886419; upper_lower: 0.154357876; Serum: HeVsG_p44-5min; upper: 0.154357876; lower: 0.147886419" role="graphics-symbol" aria-roledescription="errorbar" transform="translate(141.94245453686275,170.4227162)" x2="0" y2="-1.2942913999999917" stroke="#4e79a7" opacity="1"/><line aria-label="concentration: 0.00206; Fraction Infectivity: 0.014030579; upper_lower: 0.017081971; Serum: HeVsG_p44-5min; upper: 0.017081971; lower: 0.014030579" role="graphics-symbol" aria-roledescription="errorbar" transform="translate(165.69336101845767,197.19388419999999)" x2="0" y2="-0.6102783999999701" stroke="#4e79a7" opacity="1"/><line aria-label="concentration: 0.00617; Fraction Infectivity: 0.000337919; upper_lower: 0.000349994; Serum: HeVsG_p44-5min; upper: 0.000349994; lower: 0.000337919" role="graphics-symbol" aria-roledescription="errorbar" transform="translate(189.5142582016621,199.9324162)" x2="0" y2="-0.0024150000000133787" stroke="#4e79a7" opacity="1"/><line aria-label="concentration: 0.01852; Fraction Infectivity: 0.0000269365; upper_lower: 0.0000622125; Serum: HeVsG_p44-5min; upper: 0.0000622125; lower: 0.0000269365" role="graphics-symbol" aria-roledescription="errorbar" transform="translate(213.38204911729576,199.9946127)" x2="0" y2="-0.007055200000024797" stroke="#4e79a7" opacity="1"/><line aria-label="concentration: 0.05556; Fraction Infectivity: 0.0000189516; upper_lower: 0.0000275454; Serum: HeVsG_p44-5min; upper: 0.0000275454; lower: 0.0000189516" role="graphics-symbol" aria-roledescription="errorbar" transform="translate(237.23811185327887,199.99620968)" x2="0" y2="-0.0017187600000170278" stroke="#4e79a7" opacity="1"/><line aria-label="concentration: 0.00001; Fraction Infectivity: 0.769948317; upper_lower: 0.86363031; Serum: HeVsG_p44-60min; upper: 0.86363031; lower: 0.769948317" role="graphics-symbol" aria-roledescription="errorbar" transform="translate(49.999999999999986,46.010336600000024)" x2="0" y2="-18.736398600000026" stroke="#f28e2c" opacity="1"/><line aria-label="concentration: 0.00003; Fraction Infectivity: 0.658010841; upper_lower: 0.779864163; Serum: HeVsG_p44-60min; upper: 0.779864163; lower: 0.658010841" role="graphics-symbol" aria-roledescription="errorbar" transform="translate(73.8560627359831,68.39783180000003)" x2="0" y2="-24.370664400000045" stroke="#f28e2c" opacity="1"/><line aria-label="concentration: 0.00008; Fraction Infectivity: 0.608849111; upper_lower: 0.675722466; Serum: HeVsG_p44-60min; upper: 0.675722466; lower: 0.608849111" role="graphics-symbol" aria-roledescription="errorbar" transform="translate(95.15449934959717,78.2301778)" x2="0" y2="-13.374671000000006" stroke="#f28e2c" opacity="1"/><line aria-label="concentration: 0.00023; Fraction Infectivity: 0.445985125; upper_lower: 0.454254894; Serum: HeVsG_p44-60min; upper: 0.454254894; lower: 0.445985125" role="graphics-symbol" aria-roledescription="errorbar" transform="translate(118.08639180087962,110.802975)" x2="0" y2="-1.6539537999999965" stroke="#f28e2c" opacity="1"/><line aria-label="concentration: 0.00069; Fraction Infectivity: 0.14950208; upper_lower: 0.162738048; Serum: HeVsG_p44-60min; upper: 0.162738048; lower: 0.14950208" role="graphics-symbol" aria-roledescription="errorbar" transform="translate(141.94245453686275,170.099584)" x2="0" y2="-2.6471936000000085" stroke="#f28e2c" opacity="1"/><line aria-label="concentration: 0.00206; Fraction Infectivity: 0.009671061; upper_lower: 0.011196269; Serum: HeVsG_p44-60min; upper: 0.011196269; lower: 0.009671061" role="graphics-symbol" aria-roledescription="errorbar" transform="translate(165.69336101845767,198.06578779999998)" x2="0" y2="-0.30504159999998137" stroke="#f28e2c" opacity="1"/><line aria-label="concentration: 0.00617; Fraction Infectivity: 0.0000659271; upper_lower: 0.000332534; Serum: HeVsG_p44-60min; upper: 0.000332534; lower: 0.0000659271" role="graphics-symbol" aria-roledescription="errorbar" transform="translate(189.5142582016621,199.98681458000001)" x2="0" y2="-0.053321380000028284" stroke="#f28e2c" opacity="1"/><line aria-label="concentration: 0.01852; Fraction Infectivity: 0.0000288054; upper_lower: 0.000032535; Serum: HeVsG_p44-60min; upper: 0.000032535; lower: 0.0000288054" role="graphics-symbol" aria-roledescription="errorbar" transform="translate(213.38204911729576,199.99423892)" x2="0" y2="-0.0007459199999857447" stroke="#f28e2c" opacity="1"/><line aria-label="concentration: 0.05556; Fraction Infectivity: 0.00000730324; upper_lower: 0.0000209; Serum: HeVsG_p44-60min; upper: 0.0000209; lower: 0.00000730324" role="graphics-symbol" aria-roledescription="errorbar" transform="translate(237.23811185327887,199.998539352)" x2="0" y2="-0.00271935199998552" stroke="#f28e2c" opacity="1"/><line aria-label="concentration: 0.00001; Fraction Infectivity: 0.842424242; upper_lower: 0.893175452; Serum: HeVsG_p44-120min; upper: 0.893175452; lower: 0.842424242" role="graphics-symbol" aria-roledescription="errorbar" transform="translate(49.999999999999986,31.515151600000003)" x2="0" y2="-10.15024200000001" stroke="#e15759" opacity="1"/><line aria-label="concentration: 0.00003; Fraction Infectivity: 0.691046832; upper_lower: 0.840463458; Serum: HeVsG_p44-120min; upper: 0.840463458; lower: 0.691046832" role="graphics-symbol" aria-roledescription="errorbar" transform="translate(73.8560627359831,61.790633600000014)" x2="0" y2="-29.883325200000012" stroke="#e15759" opacity="1"/><line aria-label="concentration: 0.00008; Fraction Infectivity: 0.63953168; upper_lower: 0.73605806; Serum: HeVsG_p44-120min; upper: 0.73605806; lower: 0.63953168" role="graphics-symbol" aria-roledescription="errorbar" transform="translate(95.15449934959717,72.09366399999996)" x2="0" y2="-19.30527599999995" stroke="#e15759" opacity="1"/><line aria-label="concentration: 0.00023; Fraction Infectivity: 0.450688705; upper_lower: 0.496816909; Serum: HeVsG_p44-120min; upper: 0.496816909; lower: 0.450688705" role="graphics-symbol" aria-roledescription="errorbar" transform="translate(118.08639180087962,109.862259)" x2="0" y2="-9.225640799999994" stroke="#e15759" opacity="1"/><line aria-label="concentration: 0.00069; Fraction Infectivity: 0.139118457; upper_lower: 0.189457601; Serum: HeVsG_p44-120min; upper: 0.189457601; lower: 0.139118457" role="graphics-symbol" aria-roledescription="errorbar" transform="translate(141.94245453686275,172.1763086)" x2="0" y2="-10.067828800000001" stroke="#e15759" opacity="1"/><line aria-label="concentration: 0.00206; Fraction Infectivity: 0.009941431; upper_lower: 0.010190083; Serum: HeVsG_p44-120min; upper: 0.010190083; lower: 0.009941431" role="graphics-symbol" aria-roledescription="errorbar" transform="translate(165.69336101845767,198.0117138)" x2="0" y2="-0.049730399999987185" stroke="#e15759" opacity="1"/><line aria-label="concentration: 0.00617; Fraction Infectivity: 0.0000448052; upper_lower: 0.0000572039; Serum: HeVsG_p44-120min; upper: 0.0000572039; lower: 0.0000448052" role="graphics-symbol" aria-roledescription="errorbar" transform="translate(189.5142582016621,199.99103896)" x2="0" y2="-0.0024797399999840763" stroke="#e15759" opacity="1"/><line aria-label="concentration: 0.01852; Fraction Infectivity: 0.0000168195; upper_lower: 0.0000358953; Serum: HeVsG_p44-120min; upper: 0.0000358953; lower: 0.0000168195" role="graphics-symbol" aria-roledescription="errorbar" transform="translate(213.38204911729576,199.9966361)" x2="0" y2="-0.003815159999987827" stroke="#e15759" opacity="1"/><line aria-label="concentration: 0.05556; Fraction Infectivity: 0.0000127706; upper_lower: 0.000017741; Serum: HeVsG_p44-120min; upper: 0.000017741; lower: 0.0000127706" role="graphics-symbol" aria-roledescription="errorbar" transform="translate(237.23811185327887,199.99744588)" x2="0" y2="-0.0009940799999696992" stroke="#e15759" opacity="1"/></g><g class="mark-group role-legend" role="graphics-symbol" aria-roledescription="legend" aria-label="Symbol legend titled 'Serum' for fill color and stroke color with 3 values: HeVsG_p44-5min, HeVsG_p44-60min, HeVsG_p44-120min"><g transform="translate(318,0)"><path class="background" aria-hidden="true" d="M0,0h155v75h-155Z" pointer-events="none"/><g><g class="mark-group role-legend-entry"><g transform="translate(5,24)"><path class="background" aria-hidden="true" d="M0,0h0v0h0Z" pointer-events="none"/><g><g class="mark-group role-scope" role="graphics-object" aria-roledescription="group mark container"><g transform="translate(0,0)"><path class="background" aria-hidden="true" d="M0,0h144.84765625v14h-144.84765625Z" pointer-events="none" opacity="1"/><g><g class="mark-symbol role-legend-symbol" pointer-events="none"><path transform="translate(7,7)" d="M5,0A5,5,0,1,1,-5,0A5,5,0,1,1,5,0" fill="#4e79a7" stroke="#4e79a7" stroke-width="1.5" opacity="1"/></g><g class="mark-text role-legend-label" pointer-events="none"><text text-anchor="start" transform="translate(18,11)" font-family="Helvetica" font-size="14px" fill="#000" opacity="1">HeVsG_p44-5min</text></g></g><path class="foreground" aria-hidden="true" d="" pointer-events="none" display="none"/></g><g transform="translate(0,16)"><path class="background" aria-hidden="true" d="M0,0h144.84765625v14h-144.84765625Z" pointer-events="none" opacity="1"/><g><g class="mark-symbol role-legend-symbol" pointer-events="none"><path transform="translate(7,7)" d="M5,0A5,5,0,1,1,-5,0A5,5,0,1,1,5,0" fill="#f28e2c" stroke="#f28e2c" stroke-width="1.5" opacity="1"/></g><g class="mark-text role-legend-label" pointer-events="none"><text text-anchor="start" transform="translate(18,11)" font-family="Helvetica" font-size="14px" fill="#000" opacity="1">HeVsG_p44-60min</text></g></g><path class="foreground" aria-hidden="true" d="" pointer-events="none" display="none"/></g><g transform="translate(0,32)"><path class="background" aria-hidden="true" d="M0,0h144.84765625v14h-144.84765625Z" pointer-events="none" opacity="1"/><g><g class="mark-symbol role-legend-symbol" pointer-events="none"><path transform="translate(7,7)" d="M5,0A5,5,0,1,1,-5,0A5,5,0,1,1,5,0" fill="#e15759" stroke="#e15759" stroke-width="1.5" opacity="1"/></g><g class="mark-text role-legend-label" pointer-events="none"><text text-anchor="start" transform="translate(18,11)" font-family="Helvetica" font-size="14px" fill="#000" opacity="1">HeVsG_p44-120min</text></g></g><path class="foreground" aria-hidden="true" d="" pointer-events="none" display="none"/></g></g></g><path class="foreground" aria-hidden="true" d="" pointer-events="none" display="none"/></g></g><g class="mark-text role-legend-title" pointer-events="none"><text text-anchor="start" transform="translate(5,16)" font-family="Helvetica" font-size="14px" font-weight="bold" fill="#000" opacity="1">Serum</text></g></g><path class="foreground" aria-hidden="true" d="" pointer-events="none" display="none"/></g></g></g><path class="foreground" aria-hidden="true" d="" display="none"/></g></g></g></svg>