<svg xmlns="http://www.w3.org/2000/svg" xmlns:xlink="http://www.w3.org/1999/xlink" version="1.1" class="marks" width="488" height="256" viewBox="0 0 488 256"><rect width="488" height="256" fill="white"/><g fill="none" stroke-miterlimit="10" transform="translate(50,12)"><g class="mark-group role-frame root" role="graphics-object" aria-roledescription="group mark container"><g transform="translate(0,0)"><path class="background" aria-hidden="true" d="M0,0h300v200h-300Z" stroke-width="0"/><g><g class="mark-group role-axis" role="graphics-symbol" aria-roledescription="axis" aria-label="X-axis titled 'Sera Dilution' for a log scale with values from 1e-6 to 1e-1"><g transform="translate(0.5,200.5)"><path class="background" aria-hidden="true" d="M0,0h0v0h0Z" pointer-events="none"/><g><g class="mark-rule role-axis-tick" pointer-events="none"><line transform="translate(0,0)" x2="0" y2="4" stroke="black" stroke-width="1" opacity="1"/><line transform="translate(120,0)" x2="0" y2="4" stroke="black" stroke-width="1" opacity="1"/><line transform="translate(240,0)" x2="0" y2="4" stroke="black" stroke-width="1" opacity="1"/></g><g class="mark-text role-axis-label" pointer-events="none"><text text-anchor="middle" transform="translate(0,17)" font-family="Helvetica" font-size="14px" font-weight="normal" fill="#000" opacity="1">1e-6</text><text text-anchor="middle" transform="translate(120,17)" font-family="Helvetica" font-size="14px" font-weight="normal" fill="#000" opacity="1">1e-4</text><text text-anchor="middle" transform="translate(240,17)" font-family="Helvetica" font-size="14px" font-weight="normal" fill="#000" opacity="1">1e-2</text></g><g class="mark-rule role-axis-domain" pointer-events="none"><line transform="translate(0,0)" x2="300" y2="0" stroke="black" stroke-width="1" opacity="1"/></g><g class="mark-text role-axis-title" pointer-events="none"><text text-anchor="middle" transform="translate(150,36)" font-family="Helvetica" font-size="14px" font-weight="bold" fill="#000" opacity="1">Sera Dilution</text></g></g><path class="foreground" aria-hidden="true" d="" pointer-events="none" display="none"/></g></g><g class="mark-group role-axis" role="graphics-symbol" aria-roledescription="axis" aria-label="Y-axis titled 'Fraction Infectivity' for a linear scale with values from 0.0 to 1.0"><g transform="translate(0.5,0.5)"><path class="background" aria-hidden="true" d="M0,0h0v0h0Z" pointer-events="none"/><g><g class="mark-rule role-axis-tick" pointer-events="none"><line transform="translate(0,200)" x2="-4" y2="0" stroke="black" stroke-width="1" opacity="1"/><line transform="translate(0,100)" x2="-4" y2="0" stroke="black" stroke-width="1" opacity="1"/><line transform="translate(0,0)" x2="-4" y2="0" stroke="black" stroke-width="1" opacity="1"/></g><g class="mark-text role-axis-label" pointer-events="none"><text text-anchor="end" transform="translate(-6,204)" font-family="Helvetica" font-size="14px" font-weight="normal" fill="#000" opacity="1">0.0</text><text text-anchor="end" transform="translate(-6,104)" font-family="Helvetica" font-size="14px" font-weight="normal" fill="#000" opacity="1">0.5</text><text text-anchor="end" transform="translate(-6,4)" font-family="Helvetica" font-size="14px" font-weight="normal" fill="#000" opacity="1">1.0</text></g><g class="mark-rule role-axis-domain" pointer-events="none"><line transform="translate(0,200)" x2="0" y2="-200" stroke="black" stroke-width="1" opacity="1"/></g><g class="mark-text role-axis-title" pointer-events="none"><text text-anchor="middle" transform="translate(-30.4619140625,100) rotate(-90) translate(0,-3)" font-family="Helvetica" font-size="14px" font-weight="bold" fill="#000" opacity="1">Fraction Infectivity</text></g></g><path class="foreground" aria-hidden="true" d="" pointer-events="none" display="none"/></g></g><g class="mark-group role-scope layer_0_pathgroup" role="graphics-object" aria-roledescription="group mark container"><g transform="translate(0,0)"><path class="background" aria-hidden="true" d="M0,0h300v200h-300Z"/><g><g class="mark-line role-mark layer_0_marks" role="graphics-object" aria-roledescription="line mark container"><path aria-label="Sera Dilution: 2e-6; Fraction Infectivity: 0.951923026748; Virus: WT" role="graphics-symbol" aria-roledescription="line mark" d="M13.074,9.615L14.464,9.967L15.853,10.331L17.243,10.707L18.633,11.097L20.023,11.499L21.413,11.916L22.803,12.346L24.193,12.791L25.583,13.251L26.973,13.726L28.363,14.217L29.753,14.724L31.143,15.247L32.533,15.788L33.923,16.346L35.313,16.922L36.124,17.267L36.703,17.517L38.093,18.13L39.483,18.762L40.873,19.415L42.263,20.087L43.653,20.78L45.042,21.494L46.432,22.229L47.822,22.987L49.212,23.767L50.602,24.569L51.992,25.395L53.382,26.244L54.772,27.118L56.162,28.015L57.552,28.938L58.942,29.885L60,30.624L60.332,30.858L61.722,31.857L63.112,32.882L64.502,33.933L65.892,35.011L67.282,36.115L68.672,37.247L70.062,38.405L71.452,39.591L72.841,40.804L74.231,42.045L75.621,43.313L77.011,44.609L78.401,45.931L79.791,47.282L81.181,48.659L82.571,50.063L83.961,51.495L85.351,52.952L86.741,54.436L88.131,55.945L89.521,57.48L90.911,59.04L92.301,60.624L93.691,62.231L95.081,63.862L96.124,65.1L96.471,65.515L97.861,67.19L99.251,68.886L100.641,70.602L102.03,72.337L103.42,74.09L104.81,75.86L106.2,77.647L107.59,79.448L108.98,81.264L110.37,83.093L111.76,84.933L113.15,86.784L114.54,88.645L115.93,90.513L117.32,92.388L118.71,94.268L120.1,96.152L121.49,98.039L122.484,99.39L122.88,99.928L124.27,101.816L125.66,103.704L127.05,105.588L128.44,107.469L129.83,109.344L131.219,111.213L132.609,113.074L133.999,114.926L135.389,116.767L136.779,118.597L138.169,120.413L139.559,122.216L140.949,124.004L142.339,125.776L143.729,127.53L145.119,129.267L146.509,130.984L147.899,132.681L149.289,134.358L150.679,136.013L151.889,137.435L152.069,137.645L153.459,139.255L154.849,140.84L156.239,142.402L157.629,143.939L159.019,145.45L160.408,146.936L161.798,148.395L163.188,149.828L164.578,151.235L165.968,152.614L167.358,153.966L168.748,155.291L170.138,156.589L171.528,157.859L172.918,159.102L174.308,160.317L175.698,161.505L177.088,162.666L178.478,163.799L179.868,164.906L180.77,165.61L181.258,165.986L182.648,167.039L184.038,168.066L185.428,169.066L186.818,170.041L188.207,170.991L189.597,171.915L190.987,172.815L192.377,173.69L193.767,174.541L195.157,175.369L196.547,176.173L197.937,176.954L199.327,177.714L200.717,178.451L202.107,179.166L203.497,179.861L204.887,180.535L206.277,181.189L207.667,181.822L209.057,182.437L209.398,182.585L210.447,183.033L211.837,183.61L213.227,184.17L214.617,184.712L216.007,185.237L217.396,185.745L218.786,186.237L220.176,186.713L221.566,187.174L222.956,187.62L224.346,188.052L225.736,188.469L227.126,188.873L228.516,189.263L229.906,189.641L231.296,190.006L232.686,190.358L234.076,190.699L235.466,191.028L236.856,191.347L237.997,191.6L238.246,191.654L239.636,191.951L241.026,192.238L242.416,192.515L243.806,192.782L245.196,193.04L246.585,193.29L247.975,193.53L249.365,193.763L250.755,193.987L252.145,194.203L253.535,194.412L254.925,194.614L256.315,194.808L257.705,194.996L259.095,195.177L260.485,195.352L261.875,195.52L263.265,195.683L264.655,195.839L266.045,195.991L266.624,196.052L267.435,196.136L268.825,196.277L270.215,196.412L271.605,196.543L272.995,196.669L274.384,196.791L275.774,196.908L277.164,197.021L278.554,197.13L279.944,197.234L281.334,197.336L282.724,197.433L284.114,197.527L285.504,197.618L286.894,197.705L288.284,197.789L289.674,197.87" stroke="black" stroke-width="1.5"/></g></g><path class="foreground" aria-hidden="true" d="" display="none"/></g><g transform="translate(0,0)"><path class="background" aria-hidden="true" d="M0,0h300v200h-300Z"/><g><g class="mark-line role-mark layer_0_marks" role="graphics-object" aria-roledescription="line mark container"><path aria-label="Sera Dilution: 2e-6; Fraction Infectivity: 0.964379446429; Virus: N529H" role="graphics-symbol" aria-roledescription="line mark" d="M13.074,7.124L14.464,7.423L15.853,7.733L17.243,8.056L18.633,8.392L20.023,8.741L21.413,9.105L22.803,9.482L24.193,9.874L25.583,10.282L26.973,10.705L28.363,11.145L29.753,11.602L31.143,12.077L32.533,12.569L33.923,13.081L35.313,13.611L36.124,13.93L36.703,14.162L38.093,14.733L39.483,15.325L40.873,15.938L42.263,16.575L43.653,17.234L45.042,17.917L46.432,18.624L47.822,19.356L49.212,20.113L50.602,20.897L51.992,21.708L53.382,22.546L54.772,23.413L56.162,24.308L57.552,25.232L58.942,26.187L60,26.934L60.332,27.172L61.722,28.187L63.112,29.235L64.502,30.314L65.892,31.426L67.282,32.571L68.672,33.75L70.062,34.962L71.452,36.208L72.841,37.488L74.231,38.803L75.621,40.153L77.011,41.538L78.401,42.957L79.791,44.412L81.181,45.901L82.571,47.425L83.961,48.983L85.351,50.576L86.741,52.203L88.131,53.863L89.521,55.556L90.911,57.281L92.301,59.038L93.691,60.826L95.081,62.644L96.124,64.027L96.471,64.491L97.861,66.367L99.251,68.269L100.641,70.197L102.03,72.15L103.42,74.127L104.81,76.125L106.2,78.143L107.59,80.181L108.98,82.236L110.37,84.306L111.76,86.39L113.15,88.487L114.54,90.593L115.93,92.708L117.32,94.83L118.71,96.956L120.1,99.086L121.49,101.216L122.484,102.738L122.88,103.344L124.27,105.47L125.66,107.591L127.05,109.705L128.44,111.811L129.83,113.905L131.219,115.988L132.609,118.056L133.999,120.108L135.389,122.143L136.779,124.159L138.169,126.154L139.559,128.127L140.949,130.077L142.339,132.001L143.729,133.9L145.119,135.772L146.509,137.615L147.899,139.429L149.289,141.212L150.679,142.965L151.889,144.465L152.069,144.686L153.459,146.374L154.849,148.03L156.239,149.651L157.629,151.239L159.019,152.793L160.408,154.312L161.798,155.796L163.188,157.246L164.578,158.66L165.968,160.04L167.358,161.385L168.748,162.695L170.138,163.97L171.528,165.212L172.918,166.419L174.308,167.593L175.698,168.733L177.088,169.84L178.478,170.915L179.868,171.958L180.77,172.618L181.258,172.97L182.648,173.95L184.038,174.9L185.428,175.82L186.818,176.711L188.207,177.574L189.597,178.408L190.987,179.215L192.377,179.995L193.767,180.749L195.157,181.478L196.547,182.181L197.937,182.861L199.327,183.517L200.717,184.15L202.107,184.76L203.497,185.35L204.887,185.918L206.277,186.465L207.667,186.993L209.057,187.501L209.398,187.623L210.447,187.991L211.837,188.463L213.227,188.918L214.617,189.355L216.007,189.777L217.396,190.182L218.786,190.572L220.176,190.948L221.566,191.309L222.956,191.656L224.346,191.99L225.736,192.311L227.126,192.62L228.516,192.917L229.906,193.203L231.296,193.477L232.686,193.74L234.076,193.994L235.466,194.237L236.856,194.471L237.997,194.655L238.246,194.695L239.636,194.911L241.026,195.118L242.416,195.317L243.806,195.508L245.196,195.691L246.585,195.867L247.975,196.036L249.365,196.198L250.755,196.354L252.145,196.503L253.535,196.647L254.925,196.784L256.315,196.916L257.705,197.043L259.095,197.164L260.485,197.281L261.875,197.393L263.265,197.5L264.655,197.603L266.045,197.702L266.624,197.742L267.435,197.797L268.825,197.888L270.215,197.975L271.605,198.059L272.995,198.139L274.384,198.216L275.774,198.29L277.164,198.36L278.554,198.428L279.944,198.493L281.334,198.556L282.724,198.615L284.114,198.673L285.504,198.728L286.894,198.781L288.284,198.831L289.674,198.88" stroke="#5AA155" stroke-width="1.5"/></g></g><path class="foreground" aria-hidden="true" d="" display="none"/></g><g transform="translate(0,0)"><path class="background" aria-hidden="true" d="M0,0h300v200h-300Z"/><g><g class="mark-line role-mark layer_0_marks" role="graphics-object" aria-roledescription="line mark container"><path aria-label="Sera Dilution: 2e-6; Fraction Infectivity: 0.985764563651; Virus: E393W" role="graphics-symbol" aria-roledescription="line mark" d="M13.074,2.847L14.464,2.984L15.853,3.128L17.243,3.278L18.633,3.435L20.023,3.6L21.413,3.773L22.803,3.953L24.193,4.142L25.583,4.34L26.973,4.547L28.363,4.764L29.753,4.991L31.143,5.229L32.533,5.477L33.923,5.737L35.313,6.009L36.124,6.173L36.703,6.293L38.093,6.59L39.483,6.901L40.873,7.226L42.263,7.566L43.653,7.92L45.042,8.291L46.432,8.679L47.822,9.083L49.212,9.506L50.602,9.947L51.992,10.408L53.382,10.889L54.772,11.39L56.162,11.913L57.552,12.459L58.942,13.028L60,13.477L60.332,13.621L61.722,14.239L63.112,14.883L64.502,15.553L65.892,16.251L67.282,16.978L68.672,17.734L70.062,18.52L71.452,19.337L72.841,20.186L74.231,21.068L75.621,21.984L77.011,22.935L78.401,23.921L79.791,24.944L81.181,26.004L82.571,27.102L83.961,28.239L85.351,29.416L86.741,30.632L88.131,31.89L89.521,33.189L90.911,34.531L92.301,35.914L93.691,37.341L95.081,38.811L96.124,39.943L96.471,40.325L97.861,41.882L99.251,43.483L100.641,45.128L102.03,46.816L103.42,48.548L104.81,50.323L106.2,52.14L107.59,53.999L108.98,55.9L110.37,57.841L111.76,59.821L113.15,61.84L114.54,63.895L115.93,65.987L117.32,68.112L118.71,70.27L120.1,72.459L121.49,74.677L122.484,76.279L122.88,76.922L124.27,79.192L125.66,81.484L127.05,83.796L128.44,86.127L129.83,88.473L131.219,90.832L132.609,93.201L133.999,95.578L135.389,97.96L136.779,100.344L138.169,102.728L139.559,105.109L140.949,107.484L142.339,109.851L143.729,112.206L145.119,114.548L146.509,116.874L147.899,119.181L149.289,121.467L150.679,123.729L151.889,125.678L152.069,125.967L153.459,128.176L154.849,130.356L156.239,132.505L157.629,134.621L159.019,136.702L160.408,138.747L161.798,140.755L163.188,142.724L164.578,144.653L165.968,146.542L167.358,148.389L168.748,150.194L170.138,151.957L171.528,153.676L172.918,155.352L174.308,156.984L175.698,158.572L177.088,160.117L178.478,161.618L179.868,163.075L180.77,163.999L181.258,164.49L182.648,165.861L184.038,167.19L185.428,168.478L186.818,169.723L188.207,170.928L189.597,172.094L190.987,173.219L192.377,174.306L193.767,175.355L195.157,176.367L196.547,177.343L197.937,178.284L199.327,179.19L200.717,180.063L202.107,180.903L203.497,181.711L204.887,182.488L206.277,183.235L207.667,183.953L209.057,184.643L209.398,184.808L210.447,185.306L211.837,185.942L213.227,186.553L214.617,187.139L216.007,187.701L217.396,188.24L218.786,188.757L220.176,189.252L221.566,189.727L222.956,190.182L224.346,190.618L225.736,191.035L227.126,191.435L228.516,191.818L229.906,192.184L231.296,192.534L232.686,192.869L234.076,193.19L235.466,193.497L236.856,193.791L237.997,194.022L238.246,194.071L239.636,194.339L241.026,194.596L242.416,194.841L243.806,195.075L245.196,195.299L246.585,195.513L247.975,195.718L249.365,195.913L250.755,196.1L252.145,196.278L253.535,196.448L254.925,196.611L256.315,196.766L257.705,196.915L259.095,197.056L260.485,197.191L261.875,197.32L263.265,197.444L264.655,197.561L266.045,197.673L266.624,197.719L267.435,197.781L268.825,197.883L270.215,197.98L271.605,198.074L272.995,198.163L274.384,198.247L275.774,198.328L277.164,198.406L278.554,198.479L279.944,198.55L281.334,198.617L282.724,198.681L284.114,198.742L285.504,198.8L286.894,198.855L288.284,198.909L289.674,198.959" stroke="#E0585B" stroke-width="1.5"/></g></g><path class="foreground" aria-hidden="true" d="" display="none"/></g><g transform="translate(0,0)"><path class="background" aria-hidden="true" d="M0,0h300v200h-300Z"/><g><g class="mark-line role-mark layer_0_marks" role="graphics-object" aria-roledescription="line mark container"><path aria-label="Sera Dilution: 2e-6; Fraction Infectivity: 0.979705779062; Virus: L184E/P403K" role="graphics-symbol" aria-roledescription="line mark" d="M13.074,4.059L14.464,4.267L15.853,4.486L17.243,4.716L18.633,4.958L20.023,5.211L21.413,5.478L22.803,5.757L24.193,6.05L25.583,6.358L26.973,6.68L28.363,7.019L29.753,7.373L31.143,7.746L32.533,8.136L33.923,8.545L35.313,8.973L36.124,9.232L36.703,9.422L38.093,9.892L39.483,10.385L40.873,10.9L42.263,11.44L43.653,12.004L45.042,12.595L46.432,13.212L47.822,13.858L49.212,14.533L50.602,15.238L51.992,15.974L53.382,16.742L54.772,17.544L56.162,18.381L57.552,19.253L58.942,20.162L60,20.879L60.332,21.109L61.722,22.094L63.112,23.12L64.502,24.187L65.892,25.297L67.282,26.449L68.672,27.646L70.062,28.888L71.452,30.176L72.841,31.51L74.231,32.893L75.621,34.323L77.011,35.803L78.401,37.332L79.791,38.91L81.181,40.539L82.571,42.218L83.961,43.948L85.351,45.728L86.741,47.558L88.131,49.437L89.521,51.366L90.911,53.344L92.301,55.369L93.691,57.441L95.081,59.559L96.124,61.177L96.471,61.721L97.861,63.926L99.251,66.172L100.641,68.457L102.03,70.779L103.42,73.136L104.81,75.526L106.2,77.946L107.59,80.393L108.98,82.865L110.37,85.359L111.76,87.872L113.15,90.4L114.54,92.941L115.93,95.491L117.32,98.046L118.71,100.605L120.1,103.162L121.49,105.715L122.484,107.537L122.88,108.261L124.27,110.797L125.66,113.318L127.05,115.822L128.44,118.306L129.83,120.767L131.219,123.201L132.609,125.607L133.999,127.982L135.389,130.323L136.779,132.628L138.169,134.895L139.559,137.121L140.949,139.306L142.339,141.447L143.729,143.544L145.119,145.594L146.509,147.597L147.899,149.551L149.289,151.457L150.679,153.313L151.889,154.889L152.069,155.12L153.459,156.876L154.849,158.582L156.239,160.237L157.629,161.842L159.019,163.397L160.408,164.903L161.798,166.359L163.188,167.767L164.578,169.126L165.968,170.439L167.358,171.705L168.748,172.925L170.138,174.101L171.528,175.233L172.918,176.322L174.308,177.37L175.698,178.376L177.088,179.344L178.478,180.272L179.868,181.164L180.77,181.723L181.258,182.019L182.648,182.839L184.038,183.625L185.428,184.378L186.818,185.099L188.207,185.79L189.597,186.451L190.987,187.083L192.377,187.687L193.767,188.266L195.157,188.818L196.547,189.346L197.937,189.851L199.327,190.333L200.717,190.793L202.107,191.232L203.497,191.651L204.887,192.051L206.277,192.432L207.667,192.796L209.057,193.143L209.398,193.226L210.447,193.474L211.837,193.79L213.227,194.09L214.617,194.377L216.007,194.65L217.396,194.91L218.786,195.158L220.176,195.394L221.566,195.618L222.956,195.832L224.346,196.036L225.736,196.23L227.126,196.415L228.516,196.591L229.906,196.758L231.296,196.917L232.686,197.069L234.076,197.213L235.466,197.35L236.856,197.481L237.997,197.583L238.246,197.605L239.636,197.723L241.026,197.835L242.416,197.942L243.806,198.044L245.196,198.14L246.585,198.232L247.975,198.32L249.365,198.403L250.755,198.482L252.145,198.557L253.535,198.629L254.925,198.697L256.315,198.761L257.705,198.823L259.095,198.881L260.485,198.937L261.875,198.989L263.265,199.04L264.655,199.087L266.045,199.133L266.624,199.151L267.435,199.176L268.825,199.217L270.215,199.256L271.605,199.293L272.995,199.328L274.384,199.361L275.774,199.393L277.164,199.423L278.554,199.452L279.944,199.479L281.334,199.505L282.724,199.53L284.114,199.553L285.504,199.575L286.894,199.596L288.284,199.617L289.674,199.636" stroke="#4E79A5" stroke-width="1.5"/></g></g><path class="foreground" aria-hidden="true" d="" display="none"/></g><g transform="translate(0,0)"><path class="background" aria-hidden="true" d="M0,0h300v200h-300Z"/><g><g class="mark-line role-mark layer_0_marks" role="graphics-object" aria-roledescription="line mark container"><path aria-label="Sera Dilution: 2e-6; Fraction Infectivity: 0.990261962385; Virus: N306V" role="graphics-symbol" aria-roledescription="line mark" d="M13.074,1.948L14.464,2.071L15.853,2.202L17.243,2.341L18.633,2.489L20.023,2.647L21.413,2.814L22.803,2.991L24.193,3.179L25.583,3.379L26.973,3.592L28.363,3.817L29.753,4.057L31.143,4.311L32.533,4.58L33.923,4.866L35.313,5.169L36.124,5.355L36.703,5.491L38.093,5.832L39.483,6.194L40.873,6.578L42.263,6.984L43.653,7.414L45.042,7.87L46.432,8.353L47.822,8.864L49.212,9.404L50.602,9.976L51.992,10.581L53.382,11.22L54.772,11.895L56.162,12.608L57.552,13.362L58.942,14.156L60,14.79L60.332,14.994L61.722,15.878L63.112,16.808L64.502,17.788L65.892,18.82L67.282,19.904L68.672,21.044L70.062,22.241L71.452,23.498L72.841,24.815L74.231,26.195L75.621,27.64L77.011,29.151L78.401,30.73L79.791,32.378L81.181,34.097L82.571,35.888L83.961,37.751L85.351,39.688L86.741,41.698L88.131,43.783L89.521,45.941L90.911,48.173L92.301,50.478L93.691,52.855L95.081,55.302L96.124,57.184L96.471,57.818L97.861,60.401L99.251,63.048L100.641,65.757L102.03,68.523L103.42,71.344L104.81,74.216L106.2,77.134L107.59,80.093L108.98,83.09L110.37,86.118L111.76,89.172L113.15,92.247L114.54,95.336L115.93,98.435L117.32,101.536L118.71,104.635L120.1,107.725L121.49,110.8L122.484,112.986L122.88,113.854L124.27,116.882L125.66,119.879L127.05,122.839L128.44,125.757L129.83,128.629L131.219,131.451L132.609,134.218L133.999,136.927L135.389,139.575L136.779,142.158L138.169,144.675L139.559,147.123L140.949,149.5L142.339,151.806L143.729,154.039L145.119,156.198L146.509,158.283L147.899,160.294L149.289,162.231L150.679,164.095L151.889,165.659L152.069,165.887L153.459,167.606L154.849,169.255L156.239,170.835L157.629,172.347L159.019,173.792L160.408,175.173L161.798,176.491L163.188,177.747L164.578,178.945L165.968,180.085L167.358,181.17L168.748,182.202L170.138,183.183L171.528,184.114L172.918,184.998L174.308,185.836L175.698,186.631L177.088,187.385L178.478,188.098L179.868,188.774L180.77,189.193L181.258,189.414L182.648,190.019L184.038,190.591L185.428,191.132L186.818,191.643L188.207,192.126L189.597,192.582L190.987,193.012L192.377,193.419L193.767,193.802L195.157,194.164L196.547,194.506L197.937,194.828L199.327,195.131L200.717,195.417L202.107,195.687L203.497,195.941L204.887,196.181L206.277,196.406L207.667,196.619L209.057,196.819L209.398,196.866L210.447,197.007L211.837,197.185L213.227,197.352L214.617,197.509L216.007,197.657L217.396,197.797L218.786,197.928L220.176,198.051L221.566,198.167L222.956,198.277L224.346,198.38L225.736,198.476L227.126,198.567L228.516,198.653L229.906,198.733L231.296,198.809L232.686,198.88L234.076,198.947L235.466,199.01L236.856,199.07L237.997,199.116L238.246,199.125L239.636,199.178L241.026,199.227L242.416,199.273L243.806,199.317L245.196,199.358L246.585,199.396L247.975,199.433L249.365,199.467L250.755,199.499L252.145,199.529L253.535,199.557L254.925,199.584L256.315,199.609L257.705,199.632L259.095,199.654L260.485,199.675L261.875,199.694L263.265,199.713L264.655,199.73L266.045,199.746L266.624,199.753L267.435,199.762L268.825,199.776L270.215,199.789L271.605,199.802L272.995,199.814L274.384,199.825L275.774,199.836L277.164,199.845L278.554,199.855L279.944,199.863L281.334,199.872L282.724,199.879L284.114,199.887L285.504,199.893L286.894,199.9L288.284,199.906L289.674,199.912" stroke="#F18F3B" stroke-width="1.5"/></g></g><path class="foreground" aria-hidden="true" d="" display="none"/></g><g transform="translate(0,0)"><path class="background" aria-hidden="true" d="M0,0h300v200h-300Z"/><g><g class="mark-line role-mark layer_0_marks" role="graphics-object" aria-roledescription="line mark container"><path aria-label="Sera Dilution: 2e-6; Fraction Infectivity: 0.989336692849; Virus: P403K" role="graphics-symbol" aria-roledescription="line mark" d="M13.074,2.133L14.464,2.24L15.853,2.353L17.243,2.471L18.633,2.595L20.023,2.726L21.413,2.863L22.803,3.006L24.193,3.157L25.583,3.315L26.973,3.481L28.363,3.655L29.753,3.837L31.143,4.029L32.533,4.23L33.923,4.44L35.313,4.661L36.124,4.795L36.703,4.893L38.093,5.135L39.483,5.39L40.873,5.657L42.263,5.936L43.653,6.229L45.042,6.536L46.432,6.857L47.822,7.194L49.212,7.546L50.602,7.916L51.992,8.302L53.382,8.706L54.772,9.129L56.162,9.572L57.552,10.035L58.942,10.519L60,10.903L60.332,11.026L61.722,11.555L63.112,12.107L64.502,12.685L65.892,13.288L67.282,13.918L68.672,14.575L70.062,15.26L71.452,15.975L72.841,16.721L74.231,17.498L75.621,18.307L77.011,19.15L78.401,20.028L79.791,20.941L81.181,21.891L82.571,22.878L83.961,23.904L85.351,24.969L86.741,26.075L88.131,27.222L89.521,28.412L90.911,29.644L92.301,30.92L93.691,32.241L95.081,33.607L96.124,34.662L96.471,35.019L97.861,36.477L99.251,37.982L100.641,39.534L102.03,41.133L103.42,42.78L104.81,44.474L106.2,46.215L107.59,48.004L108.98,49.839L110.37,51.721L111.76,53.648L113.15,55.621L114.54,57.637L115.93,59.696L117.32,61.797L118.71,63.938L120.1,66.117L121.49,68.334L122.484,69.941L122.88,70.586L124.27,72.871L125.66,75.187L127.05,77.531L128.44,79.902L129.83,82.297L131.219,84.713L132.609,87.147L133.999,89.597L135.389,92.059L136.779,94.532L138.169,97.011L139.559,99.493L140.949,101.977L142.339,104.458L143.729,106.933L145.119,109.4L146.509,111.855L147.899,114.296L149.289,116.72L150.679,119.124L151.889,121.198L152.069,121.505L153.459,123.86L154.849,126.188L156.239,128.486L157.629,130.751L159.019,132.983L160.408,135.178L161.798,137.335L163.188,139.452L164.578,141.528L165.968,143.562L167.358,145.552L168.748,147.498L170.138,149.399L171.528,151.253L172.918,153.061L174.308,154.822L175.698,156.535L177.088,158.201L178.478,159.82L179.868,161.391L180.77,162.386L181.258,162.915L182.648,164.392L184.038,165.823L185.428,167.207L186.818,168.546L188.207,169.841L189.597,171.091L190.987,172.298L192.377,173.462L193.767,174.585L195.157,175.666L196.547,176.708L197.937,177.711L199.327,178.676L200.717,179.604L202.107,180.496L203.497,181.353L204.887,182.176L206.277,182.966L207.667,183.724L209.057,184.452L209.398,184.625L210.447,185.149L211.837,185.818L213.227,186.459L214.617,187.072L216.007,187.66L217.396,188.223L218.786,188.761L220.176,189.277L221.566,189.77L222.956,190.241L224.346,190.692L225.736,191.123L227.126,191.535L228.516,191.929L229.906,192.305L231.296,192.664L232.686,193.007L234.076,193.335L235.466,193.648L236.856,193.946L237.997,194.181L238.246,194.231L239.636,194.503L241.026,194.762L242.416,195.01L243.806,195.246L245.196,195.471L246.585,195.686L247.975,195.89L249.365,196.086L250.755,196.272L252.145,196.449L253.535,196.618L254.925,196.78L256.315,196.933L257.705,197.08L259.095,197.219L260.485,197.352L261.875,197.479L263.265,197.6L264.655,197.715L266.045,197.824L266.624,197.868L267.435,197.929L268.825,198.028L270.215,198.123L271.605,198.213L272.995,198.299L274.384,198.38L275.774,198.458L277.164,198.532L278.554,198.603L279.944,198.67L281.334,198.734L282.724,198.795L284.114,198.853L285.504,198.909L286.894,198.961L288.284,199.011L289.674,199.059" stroke="#77B7B2" stroke-width="1.5"/></g></g><path class="foreground" aria-hidden="true" d="" display="none"/></g></g><g class="mark-symbol role-mark layer_1_marks" role="graphics-object" aria-roledescription="symbol mark container"><path aria-label="Sera Dilution: 4e-6; Fraction Infectivity: 0.8692536825; Virus: WT" role="graphics-symbol" aria-roledescription="circle" transform="translate(36.12359947967774,26.149263499999996)" d="M2.739,0A2.739,2.739,0,1,1,-2.739,0A2.739,2.739,0,1,1,2.739,0" fill="black" stroke-width="2" opacity="1"/><path aria-label="Sera Dilution: 1e-5; Fraction Infectivity: 0.758096851; Virus: WT" role="graphics-symbol" aria-roledescription="circle" transform="translate(59.99999999999998,48.38062980000002)" d="M2.739,0A2.739,2.739,0,1,1,-2.739,0A2.739,2.739,0,1,1,2.739,0" fill="black" stroke-width="2" opacity="1"/><path aria-label="Sera Dilution: 4e-5; Fraction Infectivity: 0.6680069485; Virus: WT" role="graphics-symbol" aria-roledescription="circle" transform="translate(96.12359947967772,66.3986103)" d="M2.739,0A2.739,2.739,0,1,1,-2.739,0A2.739,2.739,0,1,1,2.739,0" fill="black" stroke-width="2" opacity="1"/><path aria-label="Sera Dilution: 1e-4; Fraction Infectivity: 0.5891223415; Virus: WT" role="graphics-symbol" aria-roledescription="circle" transform="translate(122.4835611094935,82.17553170000001)" d="M2.739,0A2.739,2.739,0,1,1,-2.739,0A2.739,2.739,0,1,1,2.739,0" fill="black" stroke-width="2" opacity="1"/><path aria-label="Sera Dilution: 3e-4; Fraction Infectivity: 0.383496855; Virus: WT" role="graphics-symbol" aria-roledescription="circle" transform="translate(151.8887350225353,123.300629)" d="M2.739,0A2.739,2.739,0,1,1,-2.739,0A2.739,2.739,0,1,1,2.739,0" fill="black" stroke-width="2" opacity="1"/><path aria-label="Sera Dilution: 1e-3; Fraction Infectivity: 0.092142296; Virus: WT" role="graphics-symbol" aria-roledescription="circle" transform="translate(180.77023348231032,181.5715408)" d="M2.739,0A2.739,2.739,0,1,1,-2.739,0A2.739,2.739,0,1,1,2.739,0" fill="black" stroke-width="2" opacity="1"/><path aria-label="Sera Dilution: 3e-3; Fraction Infectivity: 0.0010712115; Virus: WT" role="graphics-symbol" aria-roledescription="circle" transform="translate(209.39750876549004,199.7857577)" d="M2.739,0A2.739,2.739,0,1,1,-2.739,0A2.739,2.739,0,1,1,2.739,0" fill="black" stroke-width="2" opacity="1"/><path aria-label="Sera Dilution: 9e-3; Fraction Infectivity: 0.00008268065; Virus: WT" role="graphics-symbol" aria-roledescription="circle" transform="translate(237.996659200916,199.98346386999998)" d="M2.739,0A2.739,2.739,0,1,1,-2.739,0A2.739,2.739,0,1,1,2.739,0" fill="black" stroke-width="2" opacity="1"/><path aria-label="Sera Dilution: 3e-2; Fraction Infectivity: 0.0000689144; Virus: WT" role="graphics-symbol" aria-roledescription="circle" transform="translate(266.6239344840958,199.98621712)" d="M2.739,0A2.739,2.739,0,1,1,-2.739,0A2.739,2.739,0,1,1,2.739,0" fill="black" stroke-width="2" opacity="1"/><path aria-label="Sera Dilution: 4e-6; Fraction Infectivity: 0.821852047; Virus: N529H" role="graphics-symbol" aria-roledescription="circle" transform="translate(36.12359947967774,35.629590600000014)" d="M2.739,0A2.739,2.739,0,1,1,-2.739,0A2.739,2.739,0,1,1,2.739,0" fill="#5AA155" stroke-width="2" opacity="1"/><path aria-label="Sera Dilution: 1e-5; Fraction Infectivity: 0.7842234505; Virus: N529H" role="graphics-symbol" aria-roledescription="circle" transform="translate(59.99999999999998,43.155309899999985)" d="M2.739,0A2.739,2.739,0,1,1,-2.739,0A2.739,2.739,0,1,1,2.739,0" fill="#5AA155" stroke-width="2" opacity="1"/><path aria-label="Sera Dilution: 4e-5; Fraction Infectivity: 0.746397958; Virus: N529H" role="graphics-symbol" aria-roledescription="circle" transform="translate(96.12359947967772,50.720408400000004)" d="M2.739,0A2.739,2.739,0,1,1,-2.739,0A2.739,2.739,0,1,1,2.739,0" fill="#5AA155" stroke-width="2" opacity="1"/><path aria-label="Sera Dilution: 1e-4; Fraction Infectivity: 0.525527558; Virus: N529H" role="graphics-symbol" aria-roledescription="circle" transform="translate(122.4835611094935,94.89448839999999)" d="M2.739,0A2.739,2.739,0,1,1,-2.739,0A2.739,2.739,0,1,1,2.739,0" fill="#5AA155" stroke-width="2" opacity="1"/><path aria-label="Sera Dilution: 3e-4; Fraction Infectivity: 0.3137628495; Virus: N529H" role="graphics-symbol" aria-roledescription="circle" transform="translate(151.8887350225353,137.2474301)" d="M2.739,0A2.739,2.739,0,1,1,-2.739,0A2.739,2.739,0,1,1,2.739,0" fill="#5AA155" stroke-width="2" opacity="1"/><path aria-label="Sera Dilution: 1e-3; Fraction Infectivity: 0.046887093; Virus: N529H" role="graphics-symbol" aria-roledescription="circle" transform="translate(180.77023348231032,190.6225814)" d="M2.739,0A2.739,2.739,0,1,1,-2.739,0A2.739,2.739,0,1,1,2.739,0" fill="#5AA155" stroke-width="2" opacity="1"/><path aria-label="Sera Dilution: 3e-3; Fraction Infectivity: 0.000251773; Virus: N529H" role="graphics-symbol" aria-roledescription="circle" transform="translate(209.39750876549004,199.9496454)" d="M2.739,0A2.739,2.739,0,1,1,-2.739,0A2.739,2.739,0,1,1,2.739,0" fill="#5AA155" stroke-width="2" opacity="1"/><path aria-label="Sera Dilution: 9e-3; Fraction Infectivity: 0.0001179655; Virus: N529H" role="graphics-symbol" aria-roledescription="circle" transform="translate(237.996659200916,199.9764069)" d="M2.739,0A2.739,2.739,0,1,1,-2.739,0A2.739,2.739,0,1,1,2.739,0" fill="#5AA155" stroke-width="2" opacity="1"/><path aria-label="Sera Dilution: 3e-2; Fraction Infectivity: 0.00012734275; Virus: N529H" role="graphics-symbol" aria-roledescription="circle" transform="translate(266.6239344840958,199.97453145)" d="M2.739,0A2.739,2.739,0,1,1,-2.739,0A2.739,2.739,0,1,1,2.739,0" fill="#5AA155" stroke-width="2" opacity="1"/><path aria-label="Sera Dilution: 4e-6; Fraction Infectivity: 0.862691691; Virus: E393W" role="graphics-symbol" aria-roledescription="circle" transform="translate(36.12359947967774,27.4616618)" d="M2.739,0A2.739,2.739,0,1,1,-2.739,0A2.739,2.739,0,1,1,2.739,0" fill="#E0585B" stroke-width="2" opacity="1"/><path aria-label="Sera Dilution: 1e-5; Fraction Infectivity: 0.747627034; Virus: E393W" role="graphics-symbol" aria-roledescription="circle" transform="translate(59.99999999999998,50.47459320000001)" d="M2.739,0A2.739,2.739,0,1,1,-2.739,0A2.739,2.739,0,1,1,2.739,0" fill="#E0585B" stroke-width="2" opacity="1"/><path aria-label="Sera Dilution: 4e-5; Fraction Infectivity: 0.792251037; Virus: E393W" role="graphics-symbol" aria-roledescription="circle" transform="translate(96.12359947967772,41.5497926)" d="M2.739,0A2.739,2.739,0,1,1,-2.739,0A2.739,2.739,0,1,1,2.739,0" fill="#E0585B" stroke-width="2" opacity="1"/><path aria-label="Sera Dilution: 1e-4; Fraction Infectivity: 0.7226619375; Virus: E393W" role="graphics-symbol" aria-roledescription="circle" transform="translate(122.4835611094935,55.46761250000001)" d="M2.739,0A2.739,2.739,0,1,1,-2.739,0A2.739,2.739,0,1,1,2.739,0" fill="#E0585B" stroke-width="2" opacity="1"/><path aria-label="Sera Dilution: 3e-4; Fraction Infectivity: 0.420706389; Virus: E393W" role="graphics-symbol" aria-roledescription="circle" transform="translate(151.8887350225353,115.8587222)" d="M2.739,0A2.739,2.739,0,1,1,-2.739,0A2.739,2.739,0,1,1,2.739,0" fill="#E0585B" stroke-width="2" opacity="1"/><path aria-label="Sera Dilution: 1e-3; Fraction Infectivity: 0.087359834; Virus: E393W" role="graphics-symbol" aria-roledescription="circle" transform="translate(180.77023348231032,182.52803319999998)" d="M2.739,0A2.739,2.739,0,1,1,-2.739,0A2.739,2.739,0,1,1,2.739,0" fill="#E0585B" stroke-width="2" opacity="1"/><path aria-label="Sera Dilution: 3e-3; Fraction Infectivity: 0.0010288155; Virus: E393W" role="graphics-symbol" aria-roledescription="circle" transform="translate(209.39750876549004,199.7942369)" d="M2.739,0A2.739,2.739,0,1,1,-2.739,0A2.739,2.739,0,1,1,2.739,0" fill="#E0585B" stroke-width="2" opacity="1"/><path aria-label="Sera Dilution: 9e-3; Fraction Infectivity: 0.00014200805; Virus: E393W" role="graphics-symbol" aria-roledescription="circle" transform="translate(237.996659200916,199.97159839)" d="M2.739,0A2.739,2.739,0,1,1,-2.739,0A2.739,2.739,0,1,1,2.739,0" fill="#E0585B" stroke-width="2" opacity="1"/><path aria-label="Sera Dilution: 3e-2; Fraction Infectivity: 0.00006350115; Virus: E393W" role="graphics-symbol" aria-roledescription="circle" transform="translate(266.6239344840958,199.98729977)" d="M2.739,0A2.739,2.739,0,1,1,-2.739,0A2.739,2.739,0,1,1,2.739,0" fill="#E0585B" stroke-width="2" opacity="1"/><path aria-label="Sera Dilution: 4e-6; Fraction Infectivity: 0.888816844; Virus: L184E/P403K" role="graphics-symbol" aria-roledescription="circle" transform="translate(36.12359947967774,22.236631200000012)" d="M2.739,0A2.739,2.739,0,1,1,-2.739,0A2.739,2.739,0,1,1,2.739,0" fill="#4E79A5" stroke-width="2" opacity="1"/><path aria-label="Sera Dilution: 1e-5; Fraction Infectivity: 0.7769652415; Virus: L184E/P403K" role="graphics-symbol" aria-roledescription="circle" transform="translate(59.99999999999998,44.606951699999996)" d="M2.739,0A2.739,2.739,0,1,1,-2.739,0A2.739,2.739,0,1,1,2.739,0" fill="#4E79A5" stroke-width="2" opacity="1"/><path aria-label="Sera Dilution: 4e-5; Fraction Infectivity: 0.756200606; Virus: L184E/P403K" role="graphics-symbol" aria-roledescription="circle" transform="translate(96.12359947967772,48.75987880000001)" d="M2.739,0A2.739,2.739,0,1,1,-2.739,0A2.739,2.739,0,1,1,2.739,0" fill="#4E79A5" stroke-width="2" opacity="1"/><path aria-label="Sera Dilution: 1e-4; Fraction Infectivity: 0.515697998; Virus: L184E/P403K" role="graphics-symbol" aria-roledescription="circle" transform="translate(122.4835611094935,96.86040040000002)" d="M2.739,0A2.739,2.739,0,1,1,-2.739,0A2.739,2.739,0,1,1,2.739,0" fill="#4E79A5" stroke-width="2" opacity="1"/><path aria-label="Sera Dilution: 3e-4; Fraction Infectivity: 0.190721829; Virus: L184E/P403K" role="graphics-symbol" aria-roledescription="circle" transform="translate(151.8887350225353,161.8556342)" d="M2.739,0A2.739,2.739,0,1,1,-2.739,0A2.739,2.739,0,1,1,2.739,0" fill="#4E79A5" stroke-width="2" opacity="1"/><path aria-label="Sera Dilution: 1e-3; Fraction Infectivity: 0.0289999525; Virus: L184E/P403K" role="graphics-symbol" aria-roledescription="circle" transform="translate(180.77023348231032,194.2000095)" d="M2.739,0A2.739,2.739,0,1,1,-2.739,0A2.739,2.739,0,1,1,2.739,0" fill="#4E79A5" stroke-width="2" opacity="1"/><path aria-label="Sera Dilution: 3e-3; Fraction Infectivity: 0.0011764735; Virus: L184E/P403K" role="graphics-symbol" aria-roledescription="circle" transform="translate(209.39750876549004,199.7647053)" d="M2.739,0A2.739,2.739,0,1,1,-2.739,0A2.739,2.739,0,1,1,2.739,0" fill="#4E79A5" stroke-width="2" opacity="1"/><path aria-label="Sera Dilution: 9e-3; Fraction Infectivity: 0.000106293; Virus: L184E/P403K" role="graphics-symbol" aria-roledescription="circle" transform="translate(237.996659200916,199.9787414)" d="M2.739,0A2.739,2.739,0,1,1,-2.739,0A2.739,2.739,0,1,1,2.739,0" fill="#4E79A5" stroke-width="2" opacity="1"/><path aria-label="Sera Dilution: 3e-2; Fraction Infectivity: 0.00008831385; Virus: L184E/P403K" role="graphics-symbol" aria-roledescription="circle" transform="translate(266.6239344840958,199.98233723)" d="M2.739,0A2.739,2.739,0,1,1,-2.739,0A2.739,2.739,0,1,1,2.739,0" fill="#4E79A5" stroke-width="2" opacity="1"/><path aria-label="Sera Dilution: 4e-6; Fraction Infectivity: 0.873997284; Virus: N306V" role="graphics-symbol" aria-roledescription="circle" transform="translate(36.12359947967774,25.20054319999998)" d="M2.739,0A2.739,2.739,0,1,1,-2.739,0A2.739,2.739,0,1,1,2.739,0" fill="#F18F3B" stroke-width="2" opacity="1"/><path aria-label="Sera Dilution: 1e-5; Fraction Infectivity: 0.8658396495; Virus: N306V" role="graphics-symbol" aria-roledescription="circle" transform="translate(59.99999999999998,26.832070099999996)" d="M2.739,0A2.739,2.739,0,1,1,-2.739,0A2.739,2.739,0,1,1,2.739,0" fill="#F18F3B" stroke-width="2" opacity="1"/><path aria-label="Sera Dilution: 4e-5; Fraction Infectivity: 0.753338257; Virus: N306V" role="graphics-symbol" aria-roledescription="circle" transform="translate(96.12359947967772,49.332348599999996)" d="M2.739,0A2.739,2.739,0,1,1,-2.739,0A2.739,2.739,0,1,1,2.739,0" fill="#F18F3B" stroke-width="2" opacity="1"/><path aria-label="Sera Dilution: 1e-4; Fraction Infectivity: 0.455650095; Virus: N306V" role="graphics-symbol" aria-roledescription="circle" transform="translate(122.4835611094935,108.86998100000001)" d="M2.739,0A2.739,2.739,0,1,1,-2.739,0A2.739,2.739,0,1,1,2.739,0" fill="#F18F3B" stroke-width="2" opacity="1"/><path aria-label="Sera Dilution: 3e-4; Fraction Infectivity: 0.145104001; Virus: N306V" role="graphics-symbol" aria-roledescription="circle" transform="translate(151.8887350225353,170.9791998)" d="M2.739,0A2.739,2.739,0,1,1,-2.739,0A2.739,2.739,0,1,1,2.739,0" fill="#F18F3B" stroke-width="2" opacity="1"/><path aria-label="Sera Dilution: 1e-3; Fraction Infectivity: 0.0086288945; Virus: N306V" role="graphics-symbol" aria-roledescription="circle" transform="translate(180.77023348231032,198.2742211)" d="M2.739,0A2.739,2.739,0,1,1,-2.739,0A2.739,2.739,0,1,1,2.739,0" fill="#F18F3B" stroke-width="2" opacity="1"/><path aria-label="Sera Dilution: 3e-3; Fraction Infectivity: 0.000176274; Virus: N306V" role="graphics-symbol" aria-roledescription="circle" transform="translate(209.39750876549004,199.9647452)" d="M2.739,0A2.739,2.739,0,1,1,-2.739,0A2.739,2.739,0,1,1,2.739,0" fill="#F18F3B" stroke-width="2" opacity="1"/><path aria-label="Sera Dilution: 9e-3; Fraction Infectivity: 0.000133031; Virus: N306V" role="graphics-symbol" aria-roledescription="circle" transform="translate(237.996659200916,199.9733938)" d="M2.739,0A2.739,2.739,0,1,1,-2.739,0A2.739,2.739,0,1,1,2.739,0" fill="#F18F3B" stroke-width="2" opacity="1"/><path aria-label="Sera Dilution: 3e-2; Fraction Infectivity: 0.00009985095; Virus: N306V" role="graphics-symbol" aria-roledescription="circle" transform="translate(266.6239344840958,199.98002981)" d="M2.739,0A2.739,2.739,0,1,1,-2.739,0A2.739,2.739,0,1,1,2.739,0" fill="#F18F3B" stroke-width="2" opacity="1"/><path aria-label="Sera Dilution: 4e-6; Fraction Infectivity: 0.9043674185; Virus: P403K" role="graphics-symbol" aria-roledescription="circle" transform="translate(36.12359947967774,19.12651630000002)" d="M2.739,0A2.739,2.739,0,1,1,-2.739,0A2.739,2.739,0,1,1,2.739,0" fill="#77B7B2" stroke-width="2" opacity="1"/><path aria-label="Sera Dilution: 1e-5; Fraction Infectivity: 0.892875822; Virus: P403K" role="graphics-symbol" aria-roledescription="circle" transform="translate(59.99999999999998,21.42483559999999)" d="M2.739,0A2.739,2.739,0,1,1,-2.739,0A2.739,2.739,0,1,1,2.739,0" fill="#77B7B2" stroke-width="2" opacity="1"/><path aria-label="Sera Dilution: 4e-5; Fraction Infectivity: 0.756042721; Virus: P403K" role="graphics-symbol" aria-roledescription="circle" transform="translate(96.12359947967772,48.791455799999994)" d="M2.739,0A2.739,2.739,0,1,1,-2.739,0A2.739,2.739,0,1,1,2.739,0" fill="#77B7B2" stroke-width="2" opacity="1"/><path aria-label="Sera Dilution: 1e-4; Fraction Infectivity: 0.702360274; Virus: P403K" role="graphics-symbol" aria-roledescription="circle" transform="translate(122.4835611094935,59.5279452)" d="M2.739,0A2.739,2.739,0,1,1,-2.739,0A2.739,2.739,0,1,1,2.739,0" fill="#77B7B2" stroke-width="2" opacity="1"/><path aria-label="Sera Dilution: 3e-4; Fraction Infectivity: 0.4710275265; Virus: P403K" role="graphics-symbol" aria-roledescription="circle" transform="translate(151.8887350225353,105.7944947)" d="M2.739,0A2.739,2.739,0,1,1,-2.739,0A2.739,2.739,0,1,1,2.739,0" fill="#77B7B2" stroke-width="2" opacity="1"/><path aria-label="Sera Dilution: 1e-3; Fraction Infectivity: 0.1253682445; Virus: P403K" role="graphics-symbol" aria-roledescription="circle" transform="translate(180.77023348231032,174.9263511)" d="M2.739,0A2.739,2.739,0,1,1,-2.739,0A2.739,2.739,0,1,1,2.739,0" fill="#77B7B2" stroke-width="2" opacity="1"/><path aria-label="Sera Dilution: 3e-3; Fraction Infectivity: 0.003422528; Virus: P403K" role="graphics-symbol" aria-roledescription="circle" transform="translate(209.39750876549004,199.3154944)" d="M2.739,0A2.739,2.739,0,1,1,-2.739,0A2.739,2.739,0,1,1,2.739,0" fill="#77B7B2" stroke-width="2" opacity="1"/><path aria-label="Sera Dilution: 9e-3; Fraction Infectivity: 0.0000948446; Virus: P403K" role="graphics-symbol" aria-roledescription="circle" transform="translate(237.996659200916,199.98103108)" d="M2.739,0A2.739,2.739,0,1,1,-2.739,0A2.739,2.739,0,1,1,2.739,0" fill="#77B7B2" stroke-width="2" opacity="1"/><path aria-label="Sera Dilution: 3e-2; Fraction Infectivity: 0.0001062985; Virus: P403K" role="graphics-symbol" aria-roledescription="circle" transform="translate(266.6239344840958,199.9787403)" d="M2.739,0A2.739,2.739,0,1,1,-2.739,0A2.739,2.739,0,1,1,2.739,0" fill="#77B7B2" stroke-width="2" opacity="1"/></g><g class="mark-rule role-mark layer_2_marks" role="graphics-object" aria-roledescription="rule mark container"><line aria-label="concentration: 0.000004; Fraction Infectivity: 0.809327037; upper_lower: 0.929180328; Virus: WT; upper: 0.929180328; lower: 0.809327037" role="graphics-symbol" aria-roledescription="errorbar" transform="translate(36.12359947967774,38.134592600000005)" x2="0" y2="-23.970658200000017" stroke="black" opacity="1"/><line aria-label="concentration: 0.00001; Fraction Infectivity: 0.738488784; upper_lower: 0.777704918; Virus: WT; upper: 0.777704918; lower: 0.738488784" role="graphics-symbol" aria-roledescription="errorbar" transform="translate(59.99999999999998,52.30224320000001)" x2="0" y2="-7.843226799999975" stroke="black" opacity="1"/><line aria-label="concentration: 0.00004; Fraction Infectivity: 0.57798111; upper_lower: 0.758032787; Virus: WT; upper: 0.758032787; lower: 0.57798111" role="graphics-symbol" aria-roledescription="errorbar" transform="translate(96.12359947967772,84.403778)" x2="0" y2="-36.0103354" stroke="black" opacity="1"/><line aria-label="concentration: 0.00011; Fraction Infectivity: 0.55785124; upper_lower: 0.620393443; Virus: WT; upper: 0.620393443; lower: 0.55785124" role="graphics-symbol" aria-roledescription="errorbar" transform="translate(122.4835611094935,88.42975200000001)" x2="0" y2="-12.5084406" stroke="black" opacity="1"/><line aria-label="concentration: 0.00034; Fraction Infectivity: 0.3635183; upper_lower: 0.40347541; Virus: WT; upper: 0.40347541; lower: 0.3635183" role="graphics-symbol" aria-roledescription="errorbar" transform="translate(151.8887350225353,127.29634000000001)" x2="0" y2="-7.991422000000014" stroke="black" opacity="1"/><line aria-label="concentration: 0.00103; Fraction Infectivity: 0.085005903; upper_lower: 0.099278689; Virus: WT; upper: 0.099278689; lower: 0.085005903" role="graphics-symbol" aria-roledescription="errorbar" transform="translate(180.77023348231032,182.9988194)" x2="0" y2="-2.8545572000000163" stroke="black" opacity="1"/><line aria-label="concentration: 0.00309; Fraction Infectivity: 0.00065482; upper_lower: 0.001487603; Virus: WT; upper: 0.001487603; lower: 0.00065482" role="graphics-symbol" aria-roledescription="errorbar" transform="translate(209.39750876549004,199.86903600000002)" x2="0" y2="-0.16655660000000694" stroke="black" opacity="1"/><line aria-label="concentration: 0.00926; Fraction Infectivity: 0.0000752787; upper_lower: 0.0000900826; Virus: WT; upper: 0.0000900826; lower: 0.0000752787" role="graphics-symbol" aria-roledescription="errorbar" transform="translate(237.996659200916,199.98494426)" x2="0" y2="-0.002960779999995111" stroke="black" opacity="1"/><line aria-label="concentration: 0.02778; Fraction Infectivity: 0.0000655738; upper_lower: 0.000072255; Virus: WT; upper: 0.000072255; lower: 0.0000655738" role="graphics-symbol" aria-roledescription="errorbar" transform="translate(266.6239344840958,199.98688524)" x2="0" y2="-0.001336239999972122" stroke="black" opacity="1"/><line aria-label="concentration: 0.000004; Fraction Infectivity: 0.687155172; upper_lower: 0.956548922; Virus: N529H; upper: 0.956548922; lower: 0.687155172" role="graphics-symbol" aria-roledescription="errorbar" transform="translate(36.12359947967774,62.568965600000006)" x2="0" y2="-53.878749999999975" stroke="#5AA155" opacity="1"/><line aria-label="concentration: 0.00001; Fraction Infectivity: 0.676293103; upper_lower: 0.892153798; Virus: N529H; upper: 0.892153798; lower: 0.676293103" role="graphics-symbol" aria-roledescription="errorbar" transform="translate(59.99999999999998,64.74137939999997)" x2="0" y2="-43.17213899999998" stroke="#5AA155" opacity="1"/><line aria-label="concentration: 0.00004; Fraction Infectivity: 0.683793103; upper_lower: 0.809002813; Virus: N529H; upper: 0.809002813; lower: 0.683793103" role="graphics-symbol" aria-roledescription="errorbar" transform="translate(96.12359947967772,63.24137940000001)" x2="0" y2="-25.041942000000006" stroke="#5AA155" opacity="1"/><line aria-label="concentration: 0.00011; Fraction Infectivity: 0.490775862; upper_lower: 0.560279254; Virus: N529H; upper: 0.560279254; lower: 0.490775862" role="graphics-symbol" aria-roledescription="errorbar" transform="translate(122.4835611094935,101.84482759999997)" x2="0" y2="-13.900678399999975" stroke="#5AA155" opacity="1"/><line aria-label="concentration: 0.00034; Fraction Infectivity: 0.257931034; upper_lower: 0.369594665; Virus: N529H; upper: 0.369594665; lower: 0.257931034" role="graphics-symbol" aria-roledescription="errorbar" transform="translate(151.8887350225353,148.4137932)" x2="0" y2="-22.332726199999968" stroke="#5AA155" opacity="1"/><line aria-label="concentration: 0.00103; Fraction Infectivity: 0.037068966; upper_lower: 0.05670522; Virus: N529H; upper: 0.05670522; lower: 0.037068966" role="graphics-symbol" aria-roledescription="errorbar" transform="translate(180.77023348231032,192.5862068)" x2="0" y2="-3.9272508000000244" stroke="#5AA155" opacity="1"/><line aria-label="concentration: 0.00309; Fraction Infectivity: 0.000248362; upper_lower: 0.000255184; Virus: N529H; upper: 0.000255184; lower: 0.000248362" role="graphics-symbol" aria-roledescription="errorbar" transform="translate(209.39750876549004,199.9503276)" x2="0" y2="-0.0013643999999999323" stroke="#5AA155" opacity="1"/><line aria-label="concentration: 0.00926; Fraction Infectivity: 0.000106724; upper_lower: 0.000129207; Virus: N529H; upper: 0.000129207; lower: 0.000106724" role="graphics-symbol" aria-roledescription="errorbar" transform="translate(237.996659200916,199.9786552)" x2="0" y2="-0.004496599999981754" stroke="#5AA155" opacity="1"/><line aria-label="concentration: 0.02778; Fraction Infectivity: 0.0000829655; upper_lower: 0.00017172; Virus: N529H; upper: 0.00017172; lower: 0.0000829655" role="graphics-symbol" aria-roledescription="errorbar" transform="translate(266.6239344840958,199.9834069)" x2="0" y2="-0.017750900000010006" stroke="#5AA155" opacity="1"/><line aria-label="concentration: 0.000004; Fraction Infectivity: 0.845776502; upper_lower: 0.87960688; Virus: E393W; upper: 0.87960688; lower: 0.845776502" role="graphics-symbol" aria-roledescription="errorbar" transform="translate(36.12359947967774,30.844699600000002)" x2="0" y2="-6.766075599999997" stroke="#E0585B" opacity="1"/><line aria-label="concentration: 0.00001; Fraction Infectivity: 0.675520459; upper_lower: 0.819733609; Virus: E393W; upper: 0.819733609; lower: 0.675520459" role="graphics-symbol" aria-roledescription="errorbar" transform="translate(59.99999999999998,64.89590820000002)" x2="0" y2="-28.842630000000028" stroke="#E0585B" opacity="1"/><line aria-label="concentration: 0.00004; Fraction Infectivity: 0.624072745; upper_lower: 0.960429329; Virus: E393W; upper: 0.960429329; lower: 0.624072745" role="graphics-symbol" aria-roledescription="errorbar" transform="translate(96.12359947967772,75.185451)" x2="0" y2="-67.2713168" stroke="#E0585B" opacity="1"/><line aria-label="concentration: 0.00011; Fraction Infectivity: 0.65649677; upper_lower: 0.788827105; Virus: E393W; upper: 0.788827105; lower: 0.65649677" role="graphics-symbol" aria-roledescription="errorbar" transform="translate(122.4835611094935,68.700646)" x2="0" y2="-26.466067000000002" stroke="#E0585B" opacity="1"/><line aria-label="concentration: 0.00034; Fraction Infectivity: 0.362167983; upper_lower: 0.479244795; Virus: E393W; upper: 0.479244795; lower: 0.362167983" role="graphics-symbol" aria-roledescription="errorbar" transform="translate(151.8887350225353,127.56640340000001)" x2="0" y2="-23.41536240000002" stroke="#E0585B" opacity="1"/><line aria-label="concentration: 0.00103; Fraction Infectivity: 0.075508495; upper_lower: 0.099211173; Virus: E393W; upper: 0.099211173; lower: 0.075508495" role="graphics-symbol" aria-roledescription="errorbar" transform="translate(180.77023348231032,184.898301)" x2="0" y2="-4.740535600000015" stroke="#E0585B" opacity="1"/><line aria-label="concentration: 0.00309; Fraction Infectivity: 0.001006939; upper_lower: 0.001050692; Virus: E393W; upper: 0.001050692; lower: 0.001006939" role="graphics-symbol" aria-roledescription="errorbar" transform="translate(209.39750876549004,199.79861219999998)" x2="0" y2="-0.008750599999984843" stroke="#E0585B" opacity="1"/><line aria-label="concentration: 0.00926; Fraction Infectivity: 0.0000945681; upper_lower: 0.000189448; Virus: E393W; upper: 0.000189448; lower: 0.0000945681" role="graphics-symbol" aria-roledescription="errorbar" transform="translate(237.996659200916,199.98108638)" x2="0" y2="-0.018975979999993342" stroke="#E0585B" opacity="1"/><line aria-label="concentration: 0.02778; Fraction Infectivity: 0.0000494257; upper_lower: 0.0000775766; Virus: E393W; upper: 0.0000775766; lower: 0.0000494257" role="graphics-symbol" aria-roledescription="errorbar" transform="translate(266.6239344840958,199.99011486)" x2="0" y2="-0.005630179999997154" stroke="#E0585B" opacity="1"/><line aria-label="concentration: 0.000004; Fraction Infectivity: 0.847066919; upper_lower: 0.930566769; Virus: L184E/P403K; upper: 0.930566769; lower: 0.847066919" role="graphics-symbol" aria-roledescription="errorbar" transform="translate(36.12359947967774,30.586616200000005)" x2="0" y2="-16.699969999999986" stroke="#4E79A5" opacity="1"/><line aria-label="concentration: 0.00001; Fraction Infectivity: 0.73421605; upper_lower: 0.819714433; Virus: L184E/P403K; upper: 0.819714433; lower: 0.73421605" role="graphics-symbol" aria-roledescription="errorbar" transform="translate(59.99999999999998,53.15679)" x2="0" y2="-17.099676600000002" stroke="#4E79A5" opacity="1"/><line aria-label="concentration: 0.00004; Fraction Infectivity: 0.711609882; upper_lower: 0.80079133; Virus: L184E/P403K; upper: 0.80079133; lower: 0.711609882" role="graphics-symbol" aria-roledescription="errorbar" transform="translate(96.12359947967772,57.67802360000003)" x2="0" y2="-17.836289600000036" stroke="#4E79A5" opacity="1"/><line aria-label="concentration: 0.00011; Fraction Infectivity: 0.469723882; upper_lower: 0.561672114; Virus: L184E/P403K; upper: 0.561672114; lower: 0.469723882" role="graphics-symbol" aria-roledescription="errorbar" transform="translate(122.4835611094935,106.05522360000002)" x2="0" y2="-18.389646400000004" stroke="#4E79A5" opacity="1"/><line aria-label="concentration: 0.00034; Fraction Infectivity: 0.188600032; upper_lower: 0.192843626; Virus: L184E/P403K; upper: 0.192843626; lower: 0.188600032" role="graphics-symbol" aria-roledescription="errorbar" transform="translate(151.8887350225353,162.27999359999998)" x2="0" y2="-0.8487187999999719" stroke="#4E79A5" opacity="1"/><line aria-label="concentration: 0.00103; Fraction Infectivity: 0.028806717; upper_lower: 0.029193188; Virus: L184E/P403K; upper: 0.029193188; lower: 0.028806717" role="graphics-symbol" aria-roledescription="errorbar" transform="translate(180.77023348231032,194.23865659999998)" x2="0" y2="-0.077294199999983" stroke="#4E79A5" opacity="1"/><line aria-label="concentration: 0.00309; Fraction Infectivity: 0.000335056; upper_lower: 0.002017891; Virus: L184E/P403K; upper: 0.002017891; lower: 0.000335056" role="graphics-symbol" aria-roledescription="errorbar" transform="translate(209.39750876549004,199.9329888)" x2="0" y2="-0.3365670000000023" stroke="#4E79A5" opacity="1"/><line aria-label="concentration: 0.00926; Fraction Infectivity: 0.000101679; upper_lower: 0.000110907; Virus: L184E/P403K; upper: 0.000110907; lower: 0.000101679" role="graphics-symbol" aria-roledescription="errorbar" transform="translate(237.996659200916,199.9796642)" x2="0" y2="-0.0018456000000242057" stroke="#4E79A5" opacity="1"/><line aria-label="concentration: 0.02778; Fraction Infectivity: 0.0000285807; upper_lower: 0.000148047; Virus: L184E/P403K; upper: 0.000148047; lower: 0.0000285807" role="graphics-symbol" aria-roledescription="errorbar" transform="translate(266.6239344840958,199.99428386)" x2="0" y2="-0.023893259999994143" stroke="#4E79A5" opacity="1"/><line aria-label="concentration: 0.000004; Fraction Infectivity: 0.860104987; upper_lower: 0.887889581; Virus: N306V; upper: 0.887889581; lower: 0.860104987" role="graphics-symbol" aria-roledescription="errorbar" transform="translate(36.12359947967774,27.97900259999999)" x2="0" y2="-5.55691880000002" stroke="#F18F3B" opacity="1"/><line aria-label="concentration: 0.00001; Fraction Infectivity: 0.841207349; upper_lower: 0.89047195; Virus: N306V; upper: 0.89047195; lower: 0.841207349" role="graphics-symbol" aria-roledescription="errorbar" transform="translate(59.99999999999998,31.75853019999999)" x2="0" y2="-9.852920199999993" stroke="#F18F3B" opacity="1"/><line aria-label="concentration: 0.00004; Fraction Infectivity: 0.716562778; upper_lower: 0.790113736; Virus: N306V; upper: 0.790113736; lower: 0.716562778" role="graphics-symbol" aria-roledescription="errorbar" transform="translate(96.12359947967772,56.6874444)" x2="0" y2="-14.710191600000002" stroke="#F18F3B" opacity="1"/><line aria-label="concentration: 0.00011; Fraction Infectivity: 0.445494313; upper_lower: 0.465805877; Virus: N306V; upper: 0.465805877; lower: 0.445494313" role="graphics-symbol" aria-roledescription="errorbar" transform="translate(122.4835611094935,110.90113740000001)" x2="0" y2="-4.062312800000001" stroke="#F18F3B" opacity="1"/><line aria-label="concentration: 0.00034; Fraction Infectivity: 0.134820647; upper_lower: 0.155387355; Virus: N306V; upper: 0.155387355; lower: 0.134820647" role="graphics-symbol" aria-roledescription="errorbar" transform="translate(151.8887350225353,173.0358706)" x2="0" y2="-4.1133416000000125" stroke="#F18F3B" opacity="1"/><line aria-label="concentration: 0.00103; Fraction Infectivity: 0.008482636; upper_lower: 0.008775153; Virus: N306V; upper: 0.008775153; lower: 0.008482636" role="graphics-symbol" aria-roledescription="errorbar" transform="translate(180.77023348231032,198.3034728)" x2="0" y2="-0.05850340000000642" stroke="#F18F3B" opacity="1"/><line aria-label="concentration: 0.00309; Fraction Infectivity: 0.000118077; upper_lower: 0.000234471; Virus: N306V; upper: 0.000234471; lower: 0.000118077" role="graphics-symbol" aria-roledescription="errorbar" transform="translate(209.39750876549004,199.9763846)" x2="0" y2="-0.023278799999985722" stroke="#F18F3B" opacity="1"/><line aria-label="concentration: 0.00926; Fraction Infectivity: 0.000130621; upper_lower: 0.000135441; Virus: N306V; upper: 0.000135441; lower: 0.000130621" role="graphics-symbol" aria-roledescription="errorbar" transform="translate(237.996659200916,199.9738758)" x2="0" y2="-0.0009639999999819793" stroke="#F18F3B" opacity="1"/><line aria-label="concentration: 0.02778; Fraction Infectivity: 0.0000979519; upper_lower: 0.00010175; Virus: N306V; upper: 0.00010175; lower: 0.0000979519" role="graphics-symbol" aria-roledescription="errorbar" transform="translate(266.6239344840958,199.98040962000002)" x2="0" y2="-0.0007596200000250519" stroke="#F18F3B" opacity="1"/><line aria-label="concentration: 0.000004; Fraction Infectivity: 0.862111043; upper_lower: 0.946623794; Virus: P403K; upper: 0.946623794; lower: 0.862111043" role="graphics-symbol" aria-roledescription="errorbar" transform="translate(36.12359947967774,27.577791400000006)" x2="0" y2="-16.902550199999975" stroke="#77B7B2" opacity="1"/><line aria-label="concentration: 0.00001; Fraction Infectivity: 0.831511254; upper_lower: 0.95424039; Virus: P403K; upper: 0.95424039; lower: 0.831511254" role="graphics-symbol" aria-roledescription="errorbar" transform="translate(59.99999999999998,33.69774919999999)" x2="0" y2="-24.545827199999998" stroke="#77B7B2" opacity="1"/><line aria-label="concentration: 0.00004; Fraction Infectivity: 0.710799268; upper_lower: 0.801286174; Virus: P403K; upper: 0.801286174; lower: 0.710799268" role="graphics-symbol" aria-roledescription="errorbar" transform="translate(96.12359947967772,57.840146399999995)" x2="0" y2="-18.0973812" stroke="#77B7B2" opacity="1"/><line aria-label="concentration: 0.00011; Fraction Infectivity: 0.638804149; upper_lower: 0.765916399; Virus: P403K; upper: 0.765916399; lower: 0.638804149" role="graphics-symbol" aria-roledescription="errorbar" transform="translate(122.4835611094935,72.23917019999999)" x2="0" y2="-25.422449999999984" stroke="#77B7B2" opacity="1"/><line aria-label="concentration: 0.00034; Fraction Infectivity: 0.414338011; upper_lower: 0.527717042; Virus: P403K; upper: 0.527717042; lower: 0.414338011" role="graphics-symbol" aria-roledescription="errorbar" transform="translate(151.8887350225353,117.13239779999999)" x2="0" y2="-22.675806199999997" stroke="#77B7B2" opacity="1"/><line aria-label="concentration: 0.00103; Fraction Infectivity: 0.107199512; upper_lower: 0.143536977; Virus: P403K; upper: 0.143536977; lower: 0.107199512" role="graphics-symbol" aria-roledescription="errorbar" transform="translate(180.77023348231032,178.5600976)" x2="0" y2="-7.267493000000002" stroke="#77B7B2" opacity="1"/><line aria-label="concentration: 0.00309; Fraction Infectivity: 0.001631511; upper_lower: 0.005213545; Virus: P403K; upper: 0.005213545; lower: 0.001631511" role="graphics-symbol" aria-roledescription="errorbar" transform="translate(209.39750876549004,199.67369779999999)" x2="0" y2="-0.7164067999999872" stroke="#77B7B2" opacity="1"/><line aria-label="concentration: 0.00926; Fraction Infectivity: 0.0000785852; upper_lower: 0.000111104; Virus: P403K; upper: 0.000111104; lower: 0.0000785852" role="graphics-symbol" aria-roledescription="errorbar" transform="translate(237.996659200916,199.98428296)" x2="0" y2="-0.006503760000015291" stroke="#77B7B2" opacity="1"/><line aria-label="concentration: 0.02778; Fraction Infectivity: 0.000104116; upper_lower: 0.000108481; Virus: P403K; upper: 0.000108481; lower: 0.000104116" role="graphics-symbol" aria-roledescription="errorbar" transform="translate(266.6239344840958,199.9791768)" x2="0" y2="-0.0008730000000127802" stroke="#77B7B2" opacity="1"/></g><g class="mark-group role-legend" role="graphics-symbol" aria-roledescription="legend" aria-label="Symbol legend titled 'Virus' for fill color and stroke color with 6 values: WT, L184E/P403K, N306V, E393W, P403K, N529H"><g transform="translate(318,0)"><path class="background" aria-hidden="true" d="M0,0h115v123h-115Z" pointer-events="none"/><g><g class="mark-group role-legend-entry"><g transform="translate(5,24)"><path class="background" aria-hidden="true" d="M0,0h0v0h0Z" pointer-events="none"/><g><g class="mark-group role-scope" role="graphics-object" aria-roledescription="group mark container"><g transform="translate(0,0)"><path class="background" aria-hidden="true" d="M0,0h104.40625v14h-104.40625Z" pointer-events="none" opacity="1"/><g><g class="mark-symbol role-legend-symbol" pointer-events="none"><path transform="translate(7,7)" d="M5,0A5,5,0,1,1,-5,0A5,5,0,1,1,5,0" fill="black" stroke="black" stroke-width="1.5" opacity="1"/></g><g class="mark-text role-legend-label" pointer-events="none"><text text-anchor="start" transform="translate(18,11)" font-family="Helvetica" font-size="14px" fill="#000" opacity="1">WT</text></g></g><path class="foreground" aria-hidden="true" d="" pointer-events="none" display="none"/></g><g transform="translate(0,16)"><path class="background" aria-hidden="true" d="M0,0h104.40625v14h-104.40625Z" pointer-events="none" opacity="1"/><g><g class="mark-symbol role-legend-symbol" pointer-events="none"><path transform="translate(7,7)" d="M5,0A5,5,0,1,1,-5,0A5,5,0,1,1,5,0" fill="#4E79A5" stroke="#4E79A5" stroke-width="1.5" opacity="1"/></g><g class="mark-text role-legend-label" pointer-events="none"><text text-anchor="start" transform="translate(18,11)" font-family="Helvetica" font-size="14px" fill="#000" opacity="1">L184E/P403K</text></g></g><path class="foreground" aria-hidden="true" d="" pointer-events="none" display="none"/></g><g transform="translate(0,32)"><path class="background" aria-hidden="true" d="M0,0h104.40625v14h-104.40625Z" pointer-events="none" opacity="1"/><g><g class="mark-symbol role-legend-symbol" pointer-events="none"><path transform="translate(7,7)" d="M5,0A5,5,0,1,1,-5,0A5,5,0,1,1,5,0" fill="#F18F3B" stroke="#F18F3B" stroke-width="1.5" opacity="1"/></g><g class="mark-text role-legend-label" pointer-events="none"><text text-anchor="start" transform="translate(18,11)" font-family="Helvetica" font-size="14px" fill="#000" opacity="1">N306V</text></g></g><path class="foreground" aria-hidden="true" d="" pointer-events="none" display="none"/></g><g transform="translate(0,48)"><path class="background" aria-hidden="true" d="M0,0h104.40625v14h-104.40625Z" pointer-events="none" opacity="1"/><g><g class="mark-symbol role-legend-symbol" pointer-events="none"><path transform="translate(7,7)" d="M5,0A5,5,0,1,1,-5,0A5,5,0,1,1,5,0" fill="#E0585B" stroke="#E0585B" stroke-width="1.5" opacity="1"/></g><g class="mark-text role-legend-label" pointer-events="none"><text text-anchor="start" transform="translate(18,11)" font-family="Helvetica" font-size="14px" fill="#000" opacity="1">E393W</text></g></g><path class="foreground" aria-hidden="true" d="" pointer-events="none" display="none"/></g><g transform="translate(0,64)"><path class="background" aria-hidden="true" d="M0,0h104.40625v14h-104.40625Z" pointer-events="none" opacity="1"/><g><g class="mark-symbol role-legend-symbol" pointer-events="none"><path transform="translate(7,7)" d="M5,0A5,5,0,1,1,-5,0A5,5,0,1,1,5,0" fill="#77B7B2" stroke="#77B7B2" stroke-width="1.5" opacity="1"/></g><g class="mark-text role-legend-label" pointer-events="none"><text text-anchor="start" transform="translate(18,11)" font-family="Helvetica" font-size="14px" fill="#000" opacity="1">P403K</text></g></g><path class="foreground" aria-hidden="true" d="" pointer-events="none" display="none"/></g><g transform="translate(0,80)"><path class="background" aria-hidden="true" d="M0,0h104.40625v14h-104.40625Z" pointer-events="none" opacity="1"/><g><g class="mark-symbol role-legend-symbol" pointer-events="none"><path transform="translate(7,7)" d="M5,0A5,5,0,1,1,-5,0A5,5,0,1,1,5,0" fill="#5AA155" stroke="#5AA155" stroke-width="1.5" opacity="1"/></g><g class="mark-text role-legend-label" pointer-events="none"><text text-anchor="start" transform="translate(18,11)" font-family="Helvetica" font-size="14px" fill="#000" opacity="1">N529H</text></g></g><path class="foreground" aria-hidden="true" d="" pointer-events="none" display="none"/></g></g></g><path class="foreground" aria-hidden="true" d="" pointer-events="none" display="none"/></g></g><g class="mark-text role-legend-title" pointer-events="none"><text text-anchor="start" transform="translate(5,16)" font-family="Helvetica" font-size="14px" font-weight="bold" fill="#000" opacity="1">Virus</text></g></g><path class="foreground" aria-hidden="true" d="" pointer-events="none" display="none"/></g></g></g><path class="foreground" aria-hidden="true" d="" display="none"/></g></g></g></svg>