<svg xmlns="http://www.w3.org/2000/svg" xmlns:xlink="http://www.w3.org/1999/xlink" version="1.1" class="marks" width="508" height="256" viewBox="0 0 508 256"><rect width="508" height="256" fill="white"/><g fill="none" stroke-miterlimit="10" transform="translate(50,12)"><g class="mark-group role-frame root" role="graphics-object" aria-roledescription="group mark container"><g transform="translate(0,0)"><path class="background" aria-hidden="true" d="M0,0h300v200h-300Z" stroke-width="0"/><g><g class="mark-group role-axis" role="graphics-symbol" aria-roledescription="axis" aria-label="X-axis titled 'Concentration (µg/mL)' for a log scale with values from 1e-4 to 1e+2"><g transform="translate(0.5,200.5)"><path class="background" aria-hidden="true" d="M0,0h0v0h0Z" pointer-events="none"/><g><g class="mark-rule role-axis-tick" pointer-events="none"><line transform="translate(0,0)" x2="0" y2="4" stroke="black" stroke-width="1" opacity="1"/><line transform="translate(100,0)" x2="0" y2="4" stroke="black" stroke-width="1" opacity="1"/><line transform="translate(200,0)" x2="0" y2="4" stroke="black" stroke-width="1" opacity="1"/><line transform="translate(300,0)" x2="0" y2="4" stroke="black" stroke-width="1" opacity="1"/></g><g class="mark-text role-axis-label" pointer-events="none"><text text-anchor="middle" transform="translate(0,17)" font-family="Helvetica" font-size="14px" font-weight="normal" fill="#000" opacity="1">1e-4</text><text text-anchor="middle" transform="translate(100,17)" font-family="Helvetica" font-size="14px" font-weight="normal" fill="#000" opacity="1">1e-2</text><text text-anchor="middle" transform="translate(200,17)" font-family="Helvetica" font-size="14px" font-weight="normal" fill="#000" opacity="1">1e+0</text><text text-anchor="middle" transform="translate(300,17)" font-family="Helvetica" font-size="14px" font-weight="normal" fill="#000" opacity="1">1e+2</text></g><g class="mark-rule role-axis-domain" pointer-events="none"><line transform="translate(0,0)" x2="300" y2="0" stroke="black" stroke-width="1" opacity="1"/></g><g class="mark-text role-axis-title" pointer-events="none"><text text-anchor="middle" transform="translate(150,36)" font-family="Helvetica" font-size="14px" font-weight="bold" fill="#000" opacity="1">Concentration (µg/mL)</text></g></g><path class="foreground" aria-hidden="true" d="" pointer-events="none" display="none"/></g></g><g class="mark-group role-axis" role="graphics-symbol" aria-roledescription="axis" aria-label="Y-axis titled 'Fraction Infectivity' for a linear scale with values from 0.0 to 1.0"><g transform="translate(0.5,0.5)"><path class="background" aria-hidden="true" d="M0,0h0v0h0Z" pointer-events="none"/><g><g class="mark-rule role-axis-tick" pointer-events="none"><line transform="translate(0,200)" x2="-4" y2="0" stroke="black" stroke-width="1" opacity="1"/><line transform="translate(0,100)" x2="-4" y2="0" stroke="black" stroke-width="1" opacity="1"/><line transform="translate(0,0)" x2="-4" y2="0" stroke="black" stroke-width="1" opacity="1"/></g><g class="mark-text role-axis-label" pointer-events="none"><text text-anchor="end" transform="translate(-6,204)" font-family="Helvetica" font-size="14px" font-weight="normal" fill="#000" opacity="1">0.0</text><text text-anchor="end" transform="translate(-6,104)" font-family="Helvetica" font-size="14px" font-weight="normal" fill="#000" opacity="1">0.5</text><text text-anchor="end" transform="translate(-6,4)" font-family="Helvetica" font-size="14px" font-weight="normal" fill="#000" opacity="1">1.0</text></g><g class="mark-rule role-axis-domain" pointer-events="none"><line transform="translate(0,200)" x2="0" y2="-200" stroke="black" stroke-width="1" opacity="1"/></g><g class="mark-text role-axis-title" pointer-events="none"><text text-anchor="middle" transform="translate(-30.4619140625,100) rotate(-90) translate(0,-3)" font-family="Helvetica" font-size="14px" font-weight="bold" fill="#000" opacity="1">Fraction Infectivity</text></g></g><path class="foreground" aria-hidden="true" d="" pointer-events="none" display="none"/></g></g><g class="mark-group role-scope layer_0_pathgroup" role="graphics-object" aria-roledescription="group mark container"><g transform="translate(0,0)"><path class="background" aria-hidden="true" d="M0,0h300v200h-300Z"/><g><g class="mark-line role-mark layer_0_marks" role="graphics-object" aria-roledescription="line mark container"><path aria-label="Concentration (µg/mL): 6e-4; Fraction Infectivity: 0.861644567851; Serum: bEFNB2_5min" role="graphics-symbol" aria-roledescription="line mark" d="M39.685,27.671L40.838,29.838L41.991,32.143L43.144,34.59L44.297,37.182L45.45,39.922L46.603,42.81L47.756,45.847L48.909,49.032L50.061,52.364L51.214,55.838L52.367,59.45L53.52,63.193L54.673,67.06L55.826,71.04L56.979,75.123L58.132,79.296L58.805,81.767L59.285,83.546L60.438,87.858L61.591,92.216L62.744,96.605L63.897,101.006L65.05,105.403L66.203,109.78L67.356,114.119L68.508,118.405L69.661,122.621L70.814,126.755L71.967,130.792L73.12,134.722L74.273,138.533L75.426,142.217L76.579,145.767L77.732,149.176L78.885,152.442L80.038,155.56L81.191,158.529L82.344,161.349L83.138,163.205L83.497,164.02L84.65,166.546L85.803,168.928L86.955,171.169L88.108,173.274L89.261,175.248L90.414,177.096L91.567,178.822L92.72,180.432L93.873,181.933L95.026,183.329L96.179,184.626L97.332,185.83L98.485,186.946L99.638,187.98L100.791,188.937L101.944,189.822L103.097,190.64L104.25,191.395L105.402,192.092L106.555,192.734L106.836,192.883L107.708,193.326L108.861,193.871L110.014,194.373L111.167,194.835L112.32,195.26L113.473,195.651L114.626,196.011L115.779,196.341L116.932,196.644L118.085,196.922L119.238,197.178L120.391,197.413L121.544,197.628L122.697,197.826L123.849,198.008L125.002,198.174L126.155,198.327L127.308,198.467L128.461,198.595L129.614,198.713L130.745,198.818L130.767,198.82L131.92,198.919L133.073,199.01L134.226,199.093L135.379,199.169L136.532,199.239L137.685,199.303L138.838,199.361L139.991,199.415L141.144,199.464L142.296,199.509L143.449,199.551L144.602,199.588L145.755,199.623L146.908,199.655L148.061,199.684L149.214,199.71L150.367,199.735L151.52,199.757L152.673,199.778L153.826,199.796L154.583,199.808L154.979,199.813L156.132,199.829L157.285,199.844L158.438,199.857L159.59,199.869L160.743,199.88L161.896,199.89L163.049,199.899L164.202,199.908L165.355,199.915L166.508,199.923L167.661,199.929L168.814,199.935L169.967,199.941L171.12,199.946L172.273,199.95L173.426,199.954L174.579,199.958L175.732,199.962L176.885,199.965L178.037,199.968L178.434,199.969L179.19,199.971L180.343,199.973L181.496,199.975L182.649,199.977L183.802,199.979L184.955,199.981L186.108,199.983L187.261,199.984L188.414,199.985L189.567,199.987L190.72,199.988L191.873,199.989L193.026,199.99L194.179,199.991L195.332,199.991L196.484,199.992L197.637,199.993L198.79,199.993L199.943,199.994L201.096,199.994L202.249,199.995L202.288,199.995L203.402,199.995L204.555,199.996L205.708,199.996L206.861,199.996L208.014,199.997L209.167,199.997L210.32,199.997L211.473,199.998L212.626,199.998L213.779,199.998L214.931,199.998L216.084,199.998L217.237,199.998L218.39,199.999L219.543,199.999L220.696,199.999L221.849,199.999L223.002,199.999L224.155,199.999L225.308,199.999L226.144,199.999L226.461,199.999L227.614,199.999L228.767,199.999L229.92,199.999L231.073,199.999L232.226,199.999L233.378,200L234.531,200L235.684,200L236.837,200L237.99,200L239.143,200L240.296,200L241.449,200L242.602,200L243.755,200L244.908,200L246.061,200L247.214,200L248.367,200L249.52,200L250,200L250.673,200L251.825,200L252.978,200L254.131,200L255.284,200L256.437,200L257.59,200L258.743,200L259.896,200L261.049,200L262.202,200L263.355,200L264.508,200L265.661,200L266.814,200L267.967,200L269.12,200" stroke="#4E79A5" stroke-width="1.5"/></g></g><path class="foreground" aria-hidden="true" d="" display="none"/></g><g transform="translate(0,0)"><path class="background" aria-hidden="true" d="M0,0h300v200h-300Z"/><g><g class="mark-line role-mark layer_0_marks" role="graphics-object" aria-roledescription="line mark container"><path aria-label="Concentration (µg/mL): 6e-4; Fraction Infectivity: 0.908048908804; Serum: bEFNB2_60min" role="graphics-symbol" aria-roledescription="line mark" d="M39.685,18.39L40.838,20.063L41.991,21.87L43.144,23.817L44.297,25.913L45.45,28.164L46.603,30.576L47.756,33.155L48.909,35.905L50.061,38.831L51.214,41.934L52.367,45.215L53.52,48.673L54.673,52.307L55.826,56.112L56.979,60.081L58.132,64.205L58.805,66.678L59.285,68.474L60.438,72.874L61.591,77.391L62.744,82.007L63.897,86.704L65.05,91.461L66.203,96.257L67.356,101.071L68.508,105.88L69.661,110.662L70.814,115.395L71.967,120.058L73.12,124.632L74.273,129.099L75.426,133.442L76.579,137.648L77.732,141.705L78.885,145.601L80.038,149.331L81.191,152.887L82.344,156.267L83.138,158.492L83.497,159.469L84.65,162.492L85.803,165.34L86.955,168.013L88.108,170.517L89.261,172.857L90.414,175.038L91.567,177.067L92.72,178.951L93.873,180.697L95.026,182.313L96.179,183.805L97.332,185.182L98.485,186.451L99.638,187.618L100.791,188.69L101.944,189.675L103.097,190.578L104.25,191.406L105.402,192.165L106.555,192.858L106.836,193.018L107.708,193.493L108.861,194.072L110.014,194.602L111.167,195.085L112.32,195.527L113.473,195.929L114.626,196.296L115.779,196.63L116.932,196.935L118.085,197.212L119.238,197.465L120.391,197.695L121.544,197.905L122.697,198.095L123.849,198.269L125.002,198.426L126.155,198.57L127.308,198.7L128.461,198.819L129.614,198.927L130.745,199.023L130.767,199.025L131.92,199.114L133.073,199.195L134.226,199.269L135.379,199.336L136.532,199.396L137.685,199.452L138.838,199.502L139.991,199.548L141.144,199.589L142.296,199.627L143.449,199.661L144.602,199.692L145.755,199.72L146.908,199.746L148.061,199.769L149.214,199.79L150.367,199.81L151.52,199.827L152.673,199.843L153.826,199.857L154.583,199.866L154.979,199.87L156.132,199.882L157.285,199.893L158.438,199.903L159.59,199.912L160.743,199.92L161.896,199.927L163.049,199.934L164.202,199.94L165.355,199.946L166.508,199.951L167.661,199.955L168.814,199.959L169.967,199.963L171.12,199.966L172.273,199.969L173.426,199.972L174.579,199.975L175.732,199.977L176.885,199.979L178.037,199.981L178.434,199.982L179.19,199.983L180.343,199.984L181.496,199.986L182.649,199.987L183.802,199.988L184.955,199.989L186.108,199.99L187.261,199.991L188.414,199.992L189.567,199.993L190.72,199.993L191.873,199.994L193.026,199.995L194.179,199.995L195.332,199.996L196.484,199.996L197.637,199.996L198.79,199.997L199.943,199.997L201.096,199.997L202.249,199.998L202.288,199.998L203.402,199.998L204.555,199.998L205.708,199.998L206.861,199.998L208.014,199.998L209.167,199.999L210.32,199.999L211.473,199.999L212.626,199.999L213.779,199.999L214.931,199.999L216.084,199.999L217.237,199.999L218.39,199.999L219.543,199.999L220.696,199.999L221.849,200L223.002,200L224.155,200L225.308,200L226.144,200L226.461,200L227.614,200L228.767,200L229.92,200L231.073,200L232.226,200L233.378,200L234.531,200L235.684,200L236.837,200L237.99,200L239.143,200L240.296,200L241.449,200L242.602,200L243.755,200L244.908,200L246.061,200L247.214,200L248.367,200L249.52,200L250,200L250.673,200L251.825,200L252.978,200L254.131,200L255.284,200L256.437,200L257.59,200L258.743,200L259.896,200L261.049,200L262.202,200L263.355,200L264.508,200L265.661,200L266.814,200L267.967,200L269.12,200" stroke="#F18F3B" stroke-width="1.5"/></g></g><path class="foreground" aria-hidden="true" d="" display="none"/></g><g transform="translate(0,0)"><path class="background" aria-hidden="true" d="M0,0h300v200h-300Z"/><g><g class="mark-line role-mark layer_0_marks" role="graphics-object" aria-roledescription="line mark container"><path aria-label="Concentration (µg/mL): 6e-4; Fraction Infectivity: 0.953876389504; Serum: bEFNB2_120min" role="graphics-symbol" aria-roledescription="line mark" d="M39.685,9.225L40.838,10.184L41.991,11.238L43.144,12.393L44.297,13.658L45.45,15.043L46.603,16.555L47.756,18.204L48.909,20L50.061,21.951L51.214,24.067L52.367,26.357L53.52,28.83L54.673,31.492L55.826,34.35L56.979,37.411L58.132,40.677L58.805,42.678L59.285,44.151L60.438,47.832L61.591,51.719L62.744,55.806L63.897,60.084L65.05,64.544L66.203,69.171L67.356,73.949L68.508,78.858L69.661,83.876L70.814,88.979L71.967,94.141L73.12,99.334L74.273,104.531L75.426,109.703L76.579,114.823L77.732,119.865L78.885,124.805L80.038,129.618L81.191,134.286L82.344,138.79L83.138,141.79L83.497,143.116L84.65,147.253L85.803,151.191L86.955,154.926L88.108,158.453L89.261,161.772L90.414,164.885L91.567,167.795L92.72,170.507L93.873,173.027L95.026,175.363L96.179,177.523L97.332,179.516L98.485,181.35L99.638,183.036L100.791,184.582L101.944,185.999L103.097,187.294L104.25,188.476L105.402,189.555L106.555,190.538L106.836,190.764L107.708,191.433L108.861,192.246L110.014,192.985L111.167,193.656L112.32,194.265L113.473,194.816L114.626,195.316L115.779,195.769L116.932,196.179L118.085,196.55L119.238,196.885L120.391,197.189L121.544,197.463L122.697,197.711L123.849,197.934L125.002,198.137L126.155,198.319L127.308,198.484L128.461,198.633L129.614,198.767L130.745,198.886L130.767,198.888L131.92,198.997L133.073,199.096L134.226,199.185L135.379,199.265L136.532,199.337L137.685,199.403L138.838,199.461L139.991,199.514L141.144,199.562L142.296,199.605L143.449,199.644L144.602,199.679L145.755,199.711L146.908,199.74L148.061,199.765L149.214,199.788L150.367,199.809L151.52,199.828L152.673,199.845L153.826,199.86L154.583,199.87L154.979,199.874L156.132,199.887L157.285,199.898L158.438,199.908L159.59,199.917L160.743,199.925L161.896,199.933L163.049,199.939L164.202,199.945L165.355,199.951L166.508,199.956L167.661,199.96L168.814,199.964L169.967,199.967L171.12,199.971L172.273,199.974L173.426,199.976L174.579,199.979L175.732,199.981L176.885,199.983L178.037,199.984L178.434,199.985L179.19,199.986L180.343,199.987L181.496,199.988L182.649,199.99L183.802,199.991L184.955,199.992L186.108,199.992L187.261,199.993L188.414,199.994L189.567,199.994L190.72,199.995L191.873,199.995L193.026,199.996L194.179,199.996L195.332,199.997L196.484,199.997L197.637,199.997L198.79,199.998L199.943,199.998L201.096,199.998L202.249,199.998L202.288,199.998L203.402,199.998L204.555,199.999L205.708,199.999L206.861,199.999L208.014,199.999L209.167,199.999L210.32,199.999L211.473,199.999L212.626,199.999L213.779,199.999L214.931,199.999L216.084,199.999L217.237,200L218.39,200L219.543,200L220.696,200L221.849,200L223.002,200L224.155,200L225.308,200L226.144,200L226.461,200L227.614,200L228.767,200L229.92,200L231.073,200L232.226,200L233.378,200L234.531,200L235.684,200L236.837,200L237.99,200L239.143,200L240.296,200L241.449,200L242.602,200L243.755,200L244.908,200L246.061,200L247.214,200L248.367,200L249.52,200L250,200L250.673,200L251.825,200L252.978,200L254.131,200L255.284,200L256.437,200L257.59,200L258.743,200L259.896,200L261.049,200L262.202,200L263.355,200L264.508,200L265.661,200L266.814,200L267.967,200L269.12,200" stroke="#E0585B" stroke-width="1.5"/></g></g><path class="foreground" aria-hidden="true" d="" display="none"/></g></g><g class="mark-symbol role-mark layer_1_marks" role="graphics-object" aria-roledescription="symbol mark container"><path aria-label="Concentration (µg/mL): 2e-3; Fraction Infectivity: 0.5862111785; Serum: bEFNB2_5min" role="graphics-symbol" aria-roledescription="circle" transform="translate(58.80456295278403,82.75776430000002)" d="M2.739,0A2.739,2.739,0,1,1,-2.739,0A2.739,2.739,0,1,1,2.739,0" fill="#4E79A5" stroke-width="2" opacity="1"/><path aria-label="Concentration (µg/mL): 5e-3; Fraction Infectivity: 0.1998979285; Serum: bEFNB2_5min" role="graphics-symbol" aria-roledescription="circle" transform="translate(83.13789158407869,160.0204143)" d="M2.739,0A2.739,2.739,0,1,1,-2.739,0A2.739,2.739,0,1,1,2.739,0" fill="#4E79A5" stroke-width="2" opacity="1"/><path aria-label="Concentration (µg/mL): 1e-2; Fraction Infectivity: 0.0018476915; Serum: bEFNB2_5min" role="graphics-symbol" aria-roledescription="circle" transform="translate(106.83602835782033,199.6304617)" d="M2.739,0A2.739,2.739,0,1,1,-2.739,0A2.739,2.739,0,1,1,2.739,0" fill="#4E79A5" stroke-width="2" opacity="1"/><path aria-label="Concentration (µg/mL): 4e-2; Fraction Infectivity: 0.0000734659; Serum: bEFNB2_5min" role="graphics-symbol" aria-roledescription="circle" transform="translate(130.7448608016567,199.98530682)" d="M2.739,0A2.739,2.739,0,1,1,-2.739,0A2.739,2.739,0,1,1,2.739,0" fill="#4E79A5" stroke-width="2" opacity="1"/><path aria-label="Concentration (µg/mL): 1e-1; Fraction Infectivity: 0.00003992135; Serum: bEFNB2_5min" role="graphics-symbol" aria-roledescription="circle" transform="translate(154.58334787978418,199.99201573)" d="M2.739,0A2.739,2.739,0,1,1,-2.739,0A2.739,2.739,0,1,1,2.739,0" fill="#4E79A5" stroke-width="2" opacity="1"/><path aria-label="Concentration (µg/mL): 4e-1; Fraction Infectivity: 0.00002271375; Serum: bEFNB2_5min" role="graphics-symbol" aria-roledescription="circle" transform="translate(178.4335489004948,199.99545725000002)" d="M2.739,0A2.739,2.739,0,1,1,-2.739,0A2.739,2.739,0,1,1,2.739,0" fill="#4E79A5" stroke-width="2" opacity="1"/><path aria-label="Concentration (µg/mL): 1e+0; Fraction Infectivity: 0.00001397645; Serum: bEFNB2_5min" role="graphics-symbol" aria-roledescription="circle" transform="translate(202.28765737970704,199.99720471)" d="M2.739,0A2.739,2.739,0,1,1,-2.739,0A2.739,2.739,0,1,1,2.739,0" fill="#4E79A5" stroke-width="2" opacity="1"/><path aria-label="Concentration (µg/mL): 3e+0; Fraction Infectivity: 0.0000115929; Serum: bEFNB2_5min" role="graphics-symbol" aria-roledescription="circle" transform="translate(226.14372011569017,199.99768142)" d="M2.739,0A2.739,2.739,0,1,1,-2.739,0A2.739,2.739,0,1,1,2.739,0" fill="#4E79A5" stroke-width="2" opacity="1"/><path aria-label="Concentration (µg/mL): 1e+1; Fraction Infectivity: 0.00001488235; Serum: bEFNB2_5min" role="graphics-symbol" aria-roledescription="circle" transform="translate(249.99999999999997,199.99702353)" d="M2.739,0A2.739,2.739,0,1,1,-2.739,0A2.739,2.739,0,1,1,2.739,0" fill="#4E79A5" stroke-width="2" opacity="1"/><path aria-label="Concentration (µg/mL): 2e-3; Fraction Infectivity: 0.661377559; Serum: bEFNB2_60min" role="graphics-symbol" aria-roledescription="circle" transform="translate(58.80456295278403,67.72448820000001)" d="M2.739,0A2.739,2.739,0,1,1,-2.739,0A2.739,2.739,0,1,1,2.739,0" fill="#F18F3B" stroke-width="2" opacity="1"/><path aria-label="Concentration (µg/mL): 5e-3; Fraction Infectivity: 0.2217179315; Serum: bEFNB2_60min" role="graphics-symbol" aria-roledescription="circle" transform="translate(83.13789158407869,155.6564137)" d="M2.739,0A2.739,2.739,0,1,1,-2.739,0A2.739,2.739,0,1,1,2.739,0" fill="#F18F3B" stroke-width="2" opacity="1"/><path aria-label="Concentration (µg/mL): 1e-2; Fraction Infectivity: 0.000908415; Serum: bEFNB2_60min" role="graphics-symbol" aria-roledescription="circle" transform="translate(106.83602835782033,199.81831699999998)" d="M2.739,0A2.739,2.739,0,1,1,-2.739,0A2.739,2.739,0,1,1,2.739,0" fill="#F18F3B" stroke-width="2" opacity="1"/><path aria-label="Concentration (µg/mL): 4e-2; Fraction Infectivity: 0.0001025005; Serum: bEFNB2_60min" role="graphics-symbol" aria-roledescription="circle" transform="translate(130.7448608016567,199.97949989999998)" d="M2.739,0A2.739,2.739,0,1,1,-2.739,0A2.739,2.739,0,1,1,2.739,0" fill="#F18F3B" stroke-width="2" opacity="1"/><path aria-label="Concentration (µg/mL): 1e-1; Fraction Infectivity: 0.0000358989; Serum: bEFNB2_60min" role="graphics-symbol" aria-roledescription="circle" transform="translate(154.58334787978418,199.99282022)" d="M2.739,0A2.739,2.739,0,1,1,-2.739,0A2.739,2.739,0,1,1,2.739,0" fill="#F18F3B" stroke-width="2" opacity="1"/><path aria-label="Concentration (µg/mL): 4e-1; Fraction Infectivity: 0.0000214961; Serum: bEFNB2_60min" role="graphics-symbol" aria-roledescription="circle" transform="translate(178.4335489004948,199.99570078)" d="M2.739,0A2.739,2.739,0,1,1,-2.739,0A2.739,2.739,0,1,1,2.739,0" fill="#F18F3B" stroke-width="2" opacity="1"/><path aria-label="Concentration (µg/mL): 1e+0; Fraction Infectivity: 0.00001197797; Serum: bEFNB2_60min" role="graphics-symbol" aria-roledescription="circle" transform="translate(202.28765737970704,199.997604406)" d="M2.739,0A2.739,2.739,0,1,1,-2.739,0A2.739,2.739,0,1,1,2.739,0" fill="#F18F3B" stroke-width="2" opacity="1"/><path aria-label="Concentration (µg/mL): 3e+0; Fraction Infectivity: 0.00001390915; Serum: bEFNB2_60min" role="graphics-symbol" aria-roledescription="circle" transform="translate(226.14372011569017,199.99721817)" d="M2.739,0A2.739,2.739,0,1,1,-2.739,0A2.739,2.739,0,1,1,2.739,0" fill="#F18F3B" stroke-width="2" opacity="1"/><path aria-label="Concentration (µg/mL): 1e+1; Fraction Infectivity: 0.0000140593; Serum: bEFNB2_60min" role="graphics-symbol" aria-roledescription="circle" transform="translate(249.99999999999997,199.99718814)" d="M2.739,0A2.739,2.739,0,1,1,-2.739,0A2.739,2.739,0,1,1,2.739,0" fill="#F18F3B" stroke-width="2" opacity="1"/><path aria-label="Concentration (µg/mL): 2e-3; Fraction Infectivity: 0.7761729445; Serum: bEFNB2_120min" role="graphics-symbol" aria-roledescription="circle" transform="translate(58.80456295278403,44.76541109999999)" d="M2.739,0A2.739,2.739,0,1,1,-2.739,0A2.739,2.739,0,1,1,2.739,0" fill="#E0585B" stroke-width="2" opacity="1"/><path aria-label="Concentration (µg/mL): 5e-3; Fraction Infectivity: 0.3081054015; Serum: bEFNB2_120min" role="graphics-symbol" aria-roledescription="circle" transform="translate(83.13789158407869,138.3789197)" d="M2.739,0A2.739,2.739,0,1,1,-2.739,0A2.739,2.739,0,1,1,2.739,0" fill="#E0585B" stroke-width="2" opacity="1"/><path aria-label="Concentration (µg/mL): 1e-2; Fraction Infectivity: 0.006765295; Serum: bEFNB2_120min" role="graphics-symbol" aria-roledescription="circle" transform="translate(106.83602835782033,198.646941)" d="M2.739,0A2.739,2.739,0,1,1,-2.739,0A2.739,2.739,0,1,1,2.739,0" fill="#E0585B" stroke-width="2" opacity="1"/><path aria-label="Concentration (µg/mL): 4e-2; Fraction Infectivity: 0.0000689455; Serum: bEFNB2_120min" role="graphics-symbol" aria-roledescription="circle" transform="translate(130.7448608016567,199.9862109)" d="M2.739,0A2.739,2.739,0,1,1,-2.739,0A2.739,2.739,0,1,1,2.739,0" fill="#E0585B" stroke-width="2" opacity="1"/><path aria-label="Concentration (µg/mL): 1e-1; Fraction Infectivity: 0.00002914225; Serum: bEFNB2_120min" role="graphics-symbol" aria-roledescription="circle" transform="translate(154.58334787978418,199.99417155)" d="M2.739,0A2.739,2.739,0,1,1,-2.739,0A2.739,2.739,0,1,1,2.739,0" fill="#E0585B" stroke-width="2" opacity="1"/><path aria-label="Concentration (µg/mL): 4e-1; Fraction Infectivity: 0.000010126985; Serum: bEFNB2_120min" role="graphics-symbol" aria-roledescription="circle" transform="translate(178.4335489004948,199.997974603)" d="M2.739,0A2.739,2.739,0,1,1,-2.739,0A2.739,2.739,0,1,1,2.739,0" fill="#E0585B" stroke-width="2" opacity="1"/><path aria-label="Concentration (µg/mL): 1e+0; Fraction Infectivity: 0.00000854947; Serum: bEFNB2_120min" role="graphics-symbol" aria-roledescription="circle" transform="translate(202.28765737970704,199.998290106)" d="M2.739,0A2.739,2.739,0,1,1,-2.739,0A2.739,2.739,0,1,1,2.739,0" fill="#E0585B" stroke-width="2" opacity="1"/><path aria-label="Concentration (µg/mL): 3e+0; Fraction Infectivity: 0.00000451412; Serum: bEFNB2_120min" role="graphics-symbol" aria-roledescription="circle" transform="translate(226.14372011569017,199.999097176)" d="M2.739,0A2.739,2.739,0,1,1,-2.739,0A2.739,2.739,0,1,1,2.739,0" fill="#E0585B" stroke-width="2" opacity="1"/><path aria-label="Concentration (µg/mL): 1e+1; Fraction Infectivity: 0.0000145678; Serum: bEFNB2_120min" role="graphics-symbol" aria-roledescription="circle" transform="translate(249.99999999999997,199.99708644)" d="M2.739,0A2.739,2.739,0,1,1,-2.739,0A2.739,2.739,0,1,1,2.739,0" fill="#E0585B" stroke-width="2" opacity="1"/></g><g class="mark-rule role-mark layer_2_marks" role="graphics-object" aria-roledescription="rule mark container"><line aria-label="concentration: 0.0015; Fraction Infectivity: 0.549458698; upper_lower: 0.622963659; Serum: bEFNB2_5min; upper: 0.622963659; lower: 0.549458698" role="graphics-symbol" aria-roledescription="errorbar" transform="translate(58.80456295278403,90.10826040000002)" x2="0" y2="-14.700992200000016" stroke="#4E79A5" opacity="1"/><line aria-label="concentration: 0.0046; Fraction Infectivity: 0.19694498; upper_lower: 0.202850877; Serum: bEFNB2_5min; upper: 0.202850877; lower: 0.19694498" role="graphics-symbol" aria-roledescription="errorbar" transform="translate(83.13789158407869,160.611004)" x2="0" y2="-1.181179400000019" stroke="#4E79A5" opacity="1"/><line aria-label="concentration: 0.0137; Fraction Infectivity: 0.001467888; upper_lower: 0.002227495; Serum: bEFNB2_5min; upper: 0.002227495; lower: 0.001467888" role="graphics-symbol" aria-roledescription="errorbar" transform="translate(106.83602835782033,199.7064224)" x2="0" y2="-0.151921399999992" stroke="#4E79A5" opacity="1"/><line aria-label="concentration: 0.0412; Fraction Infectivity: 0.0000598547; upper_lower: 0.0000870771; Serum: bEFNB2_5min; upper: 0.0000870771; lower: 0.0000598547" role="graphics-symbol" aria-roledescription="errorbar" transform="translate(130.7448608016567,199.98802906)" x2="0" y2="-0.005444479999994201" stroke="#4E79A5" opacity="1"/><line aria-label="concentration: 0.1235; Fraction Infectivity: 0.0000308765; upper_lower: 0.0000489662; Serum: bEFNB2_5min; upper: 0.0000489662; lower: 0.0000308765" role="graphics-symbol" aria-roledescription="errorbar" transform="translate(154.58334787978418,199.9938247)" x2="0" y2="-0.0036179399999980433" stroke="#4E79A5" opacity="1"/><line aria-label="concentration: 0.3704; Fraction Infectivity: 0.0000183598; upper_lower: 0.0000270677; Serum: bEFNB2_5min; upper: 0.0000270677; lower: 0.0000183598" role="graphics-symbol" aria-roledescription="errorbar" transform="translate(178.4335489004948,199.99632804)" x2="0" y2="-0.0017415800000151194" stroke="#4E79A5" opacity="1"/><line aria-label="concentration: 1.1111; Fraction Infectivity: 0.000011521; upper_lower: 0.0000164319; Serum: bEFNB2_5min; upper: 0.0000164319; lower: 0.000011521" role="graphics-symbol" aria-roledescription="errorbar" transform="translate(202.28765737970704,199.9976958)" x2="0" y2="-0.0009821799999940595" stroke="#4E79A5" opacity="1"/><line aria-label="concentration: 3.3333; Fraction Infectivity: 0.0000108409; upper_lower: 0.0000123449; Serum: bEFNB2_5min; upper: 0.0000123449; lower: 0.0000108409" role="graphics-symbol" aria-roledescription="errorbar" transform="translate(226.14372011569017,199.99783182)" x2="0" y2="-0.00030079999999088614" stroke="#4E79A5" opacity="1"/><line aria-label="concentration: 10; Fraction Infectivity: 0.0000129571; upper_lower: 0.0000168076; Serum: bEFNB2_5min; upper: 0.0000168076; lower: 0.0000129571" role="graphics-symbol" aria-roledescription="errorbar" transform="translate(249.99999999999997,199.99740857999998)" x2="0" y2="-0.0007700999999826763" stroke="#4E79A5" opacity="1"/><line aria-label="concentration: 0.0015; Fraction Infectivity: 0.614964926; upper_lower: 0.707790192; Serum: bEFNB2_60min; upper: 0.707790192; lower: 0.614964926" role="graphics-symbol" aria-roledescription="errorbar" transform="translate(58.80456295278403,77.00701480000004)" x2="0" y2="-18.565053200000044" stroke="#F18F3B" opacity="1"/><line aria-label="concentration: 0.0046; Fraction Infectivity: 0.219273743; upper_lower: 0.22416212; Serum: bEFNB2_60min; upper: 0.22416212; lower: 0.219273743" role="graphics-symbol" aria-roledescription="errorbar" transform="translate(83.13789158407869,156.1452514)" x2="0" y2="-0.9776754000000096" stroke="#F18F3B" opacity="1"/><line aria-label="concentration: 0.0137; Fraction Infectivity: 0.000850039; upper_lower: 0.000966791; Serum: bEFNB2_60min; upper: 0.000966791; lower: 0.000850039" role="graphics-symbol" aria-roledescription="errorbar" transform="translate(106.83602835782033,199.8299922)" x2="0" y2="-0.023350399999998217" stroke="#F18F3B" opacity="1"/><line aria-label="concentration: 0.0412; Fraction Infectivity: 0.00010092; upper_lower: 0.000104081; Serum: bEFNB2_60min; upper: 0.000104081; lower: 0.00010092" role="graphics-symbol" aria-roledescription="errorbar" transform="translate(130.7448608016567,199.979816)" x2="0" y2="-0.0006322000000125172" stroke="#F18F3B" opacity="1"/><line aria-label="concentration: 0.1235; Fraction Infectivity: 0.0000281657; upper_lower: 0.0000436321; Serum: bEFNB2_60min; upper: 0.0000436321; lower: 0.0000281657" role="graphics-symbol" aria-roledescription="errorbar" transform="translate(154.58334787978418,199.99436686)" x2="0" y2="-0.003093280000030063" stroke="#F18F3B" opacity="1"/><line aria-label="concentration: 0.3704; Fraction Infectivity: 0.000018675; upper_lower: 0.0000243172; Serum: bEFNB2_60min; upper: 0.0000243172; lower: 0.000018675" role="graphics-symbol" aria-roledescription="errorbar" transform="translate(178.4335489004948,199.996265)" x2="0" y2="-0.001128439999973807" stroke="#F18F3B" opacity="1"/><line aria-label="concentration: 1.1111; Fraction Infectivity: 0.00000939634; upper_lower: 0.0000145596; Serum: bEFNB2_60min; upper: 0.0000145596; lower: 0.00000939634" role="graphics-symbol" aria-roledescription="errorbar" transform="translate(202.28765737970704,199.99812073200002)" x2="0" y2="-0.001032652000020562" stroke="#F18F3B" opacity="1"/><line aria-label="concentration: 3.3333; Fraction Infectivity: 0.0000126071; upper_lower: 0.0000152112; Serum: bEFNB2_60min; upper: 0.0000152112; lower: 0.0000126071" role="graphics-symbol" aria-roledescription="errorbar" transform="translate(226.14372011569017,199.99747858)" x2="0" y2="-0.0005208200000197394" stroke="#F18F3B" opacity="1"/><line aria-label="concentration: 10; Fraction Infectivity: 0.0000120313; upper_lower: 0.0000160873; Serum: bEFNB2_60min; upper: 0.0000160873; lower: 0.0000120313" role="graphics-symbol" aria-roledescription="errorbar" transform="translate(249.99999999999997,199.99759373999999)" x2="0" y2="-0.0008111999999869113" stroke="#F18F3B" opacity="1"/><line aria-label="concentration: 0.0015; Fraction Infectivity: 0.688266924; upper_lower: 0.864078965; Serum: bEFNB2_120min; upper: 0.864078965; lower: 0.688266924" role="graphics-symbol" aria-roledescription="errorbar" transform="translate(58.80456295278403,62.346615199999974)" x2="0" y2="-35.16240819999998" stroke="#E0585B" opacity="1"/><line aria-label="concentration: 0.0046; Fraction Infectivity: 0.298083552; upper_lower: 0.318127251; Serum: bEFNB2_120min; upper: 0.318127251; lower: 0.298083552" role="graphics-symbol" aria-roledescription="errorbar" transform="translate(83.13789158407869,140.38328959999998)" x2="0" y2="-4.008739799999972" stroke="#E0585B" opacity="1"/><line aria-label="concentration: 0.0137; Fraction Infectivity: 0.00589687; upper_lower: 0.00763372; Serum: bEFNB2_120min; upper: 0.00763372; lower: 0.00589687" role="graphics-symbol" aria-roledescription="errorbar" transform="translate(106.83602835782033,198.82062599999998)" x2="0" y2="-0.3473699999999553" stroke="#E0585B" opacity="1"/><line aria-label="concentration: 0.0412; Fraction Infectivity: 0.0000548219; upper_lower: 0.0000830691; Serum: bEFNB2_120min; upper: 0.0000830691; lower: 0.0000548219" role="graphics-symbol" aria-roledescription="errorbar" transform="translate(130.7448608016567,199.98903562)" x2="0" y2="-0.005649440000013328" stroke="#E0585B" opacity="1"/><line aria-label="concentration: 0.1235; Fraction Infectivity: 0.0000289449; upper_lower: 0.0000293396; Serum: bEFNB2_120min; upper: 0.0000293396; lower: 0.0000289449" role="graphics-symbol" aria-roledescription="errorbar" transform="translate(154.58334787978418,199.99421102)" x2="0" y2="-0.00007893999998032086" stroke="#E0585B" opacity="1"/><line aria-label="concentration: 0.3704; Fraction Infectivity: 0.00000925437; upper_lower: 0.0000109996; Serum: bEFNB2_120min; upper: 0.0000109996; lower: 0.00000925437" role="graphics-symbol" aria-roledescription="errorbar" transform="translate(178.4335489004948,199.99814912600002)" x2="0" y2="-0.0003490459999966333" stroke="#E0585B" opacity="1"/><line aria-label="concentration: 1.1111; Fraction Infectivity: 0.00000709484; upper_lower: 0.0000100041; Serum: bEFNB2_120min; upper: 0.0000100041; lower: 0.00000709484" role="graphics-symbol" aria-roledescription="errorbar" transform="translate(202.28765737970704,199.99858103199998)" x2="0" y2="-0.000581851999953642" stroke="#E0585B" opacity="1"/><line aria-label="concentration: 3.3333; Fraction Infectivity: 0.00000409097; upper_lower: 0.00000493727; Serum: bEFNB2_120min; upper: 0.00000493727; lower: 0.00000409097" role="graphics-symbol" aria-roledescription="errorbar" transform="translate(226.14372011569017,199.999181806)" x2="0" y2="-0.0001692599999785216" stroke="#E0585B" opacity="1"/><line aria-label="concentration: 10; Fraction Infectivity: 0.0000114739; upper_lower: 0.0000176617; Serum: bEFNB2_120min; upper: 0.0000176617; lower: 0.0000114739" role="graphics-symbol" aria-roledescription="errorbar" transform="translate(249.99999999999997,199.99770522)" x2="0" y2="-0.0012375599999927545" stroke="#E0585B" opacity="1"/></g><g class="mark-group role-legend" role="graphics-symbol" aria-roledescription="legend" aria-label="Symbol legend titled 'Serum' for fill color and stroke color with 3 values: bEFNB2_5min, bEFNB2_60min, bEFNB2_120min"><g transform="translate(318,0)"><path class="background" aria-hidden="true" d="M0,0h135v75h-135Z" pointer-events="none"/><g><g class="mark-group role-legend-entry"><g transform="translate(5,24)"><path class="background" aria-hidden="true" d="M0,0h0v0h0Z" pointer-events="none"/><g><g class="mark-group role-scope" role="graphics-object" aria-roledescription="group mark container"><g transform="translate(0,0)"><path class="background" aria-hidden="true" d="M0,0h124.61328125v14h-124.61328125Z" pointer-events="none" opacity="1"/><g><g class="mark-symbol role-legend-symbol" pointer-events="none"><path transform="translate(7,7)" d="M5,0A5,5,0,1,1,-5,0A5,5,0,1,1,5,0" fill="#4E79A5" stroke="#4E79A5" stroke-width="1.5" opacity="1"/></g><g class="mark-text role-legend-label" pointer-events="none"><text text-anchor="start" transform="translate(18,11)" font-family="Helvetica" font-size="14px" fill="#000" opacity="1">bEFNB2_5min</text></g></g><path class="foreground" aria-hidden="true" d="" pointer-events="none" display="none"/></g><g transform="translate(0,16)"><path class="background" aria-hidden="true" d="M0,0h124.61328125v14h-124.61328125Z" pointer-events="none" opacity="1"/><g><g class="mark-symbol role-legend-symbol" pointer-events="none"><path transform="translate(7,7)" d="M5,0A5,5,0,1,1,-5,0A5,5,0,1,1,5,0" fill="#F18F3B" stroke="#F18F3B" stroke-width="1.5" opacity="1"/></g><g class="mark-text role-legend-label" pointer-events="none"><text text-anchor="start" transform="translate(18,11)" font-family="Helvetica" font-size="14px" fill="#000" opacity="1">bEFNB2_60min</text></g></g><path class="foreground" aria-hidden="true" d="" pointer-events="none" display="none"/></g><g transform="translate(0,32)"><path class="background" aria-hidden="true" d="M0,0h124.61328125v14h-124.61328125Z" pointer-events="none" opacity="1"/><g><g class="mark-symbol role-legend-symbol" pointer-events="none"><path transform="translate(7,7)" d="M5,0A5,5,0,1,1,-5,0A5,5,0,1,1,5,0" fill="#E0585B" stroke="#E0585B" stroke-width="1.5" opacity="1"/></g><g class="mark-text role-legend-label" pointer-events="none"><text text-anchor="start" transform="translate(18,11)" font-family="Helvetica" font-size="14px" fill="#000" opacity="1">bEFNB2_120min</text></g></g><path class="foreground" aria-hidden="true" d="" pointer-events="none" display="none"/></g></g></g><path class="foreground" aria-hidden="true" d="" pointer-events="none" display="none"/></g></g><g class="mark-text role-legend-title" pointer-events="none"><text text-anchor="start" transform="translate(5,16)" font-family="Helvetica" font-size="14px" font-weight="bold" fill="#000" opacity="1">Serum</text></g></g><path class="foreground" aria-hidden="true" d="" pointer-events="none" display="none"/></g></g></g><path class="foreground" aria-hidden="true" d="" display="none"/></g></g></g></svg>