<svg xmlns="http://www.w3.org/2000/svg" xmlns:xlink="http://www.w3.org/1999/xlink" version="1.1" class="marks" width="528" height="256" viewBox="0 0 528 256"><rect width="528" height="256" fill="white"/><g fill="none" stroke-miterlimit="10" transform="translate(50,12)"><g class="mark-group role-frame root" role="graphics-object" aria-roledescription="group mark container"><g transform="translate(0,0)"><path class="background" aria-hidden="true" d="M0,0h300v200h-300Z" stroke-width="0"/><g><g class="mark-group role-axis" role="graphics-symbol" aria-roledescription="axis" aria-label="X-axis titled 'Sera Dilution' for a log scale with values from 1e-6 to 1e+0"><g transform="translate(0.5,200.5)"><path class="background" aria-hidden="true" d="M0,0h0v0h0Z" pointer-events="none"/><g><g class="mark-rule role-axis-tick" pointer-events="none"><line transform="translate(0,0)" x2="0" y2="4" stroke="black" stroke-width="1" opacity="1"/><line transform="translate(100,0)" x2="0" y2="4" stroke="black" stroke-width="1" opacity="1"/><line transform="translate(200,0)" x2="0" y2="4" stroke="black" stroke-width="1" opacity="1"/><line transform="translate(300,0)" x2="0" y2="4" stroke="black" stroke-width="1" opacity="1"/></g><g class="mark-text role-axis-label" pointer-events="none"><text text-anchor="middle" transform="translate(0,17)" font-family="Helvetica" font-size="14px" font-weight="normal" fill="#000" opacity="1">1e-6</text><text text-anchor="middle" transform="translate(100.00000000000001,17)" font-family="Helvetica" font-size="14px" font-weight="normal" fill="#000" opacity="1">1e-4</text><text text-anchor="middle" transform="translate(200.00000000000003,17)" font-family="Helvetica" font-size="14px" font-weight="normal" fill="#000" opacity="1">1e-2</text><text text-anchor="middle" transform="translate(300,17)" font-family="Helvetica" font-size="14px" font-weight="normal" fill="#000" opacity="1">1e+0</text></g><g class="mark-rule role-axis-domain" pointer-events="none"><line transform="translate(0,0)" x2="300" y2="0" stroke="black" stroke-width="1" opacity="1"/></g><g class="mark-text role-axis-title" pointer-events="none"><text text-anchor="middle" transform="translate(150,36)" font-family="Helvetica" font-size="14px" font-weight="bold" fill="#000" opacity="1">Sera Dilution</text></g></g><path class="foreground" aria-hidden="true" d="" pointer-events="none" display="none"/></g></g><g class="mark-group role-axis" role="graphics-symbol" aria-roledescription="axis" aria-label="Y-axis titled 'Fraction Infectivity' for a linear scale with values from 0.0 to 1.0"><g transform="translate(0.5,0.5)"><path class="background" aria-hidden="true" d="M0,0h0v0h0Z" pointer-events="none"/><g><g class="mark-rule role-axis-tick" pointer-events="none"><line transform="translate(0,200)" x2="-4" y2="0" stroke="black" stroke-width="1" opacity="1"/><line transform="translate(0,100)" x2="-4" y2="0" stroke="black" stroke-width="1" opacity="1"/><line transform="translate(0,0)" x2="-4" y2="0" stroke="black" stroke-width="1" opacity="1"/></g><g class="mark-text role-axis-label" pointer-events="none"><text text-anchor="end" transform="translate(-6,204)" font-family="Helvetica" font-size="14px" font-weight="normal" fill="#000" opacity="1">0.0</text><text text-anchor="end" transform="translate(-6,104)" font-family="Helvetica" font-size="14px" font-weight="normal" fill="#000" opacity="1">0.5</text><text text-anchor="end" transform="translate(-6,4)" font-family="Helvetica" font-size="14px" font-weight="normal" fill="#000" opacity="1">1.0</text></g><g class="mark-rule role-axis-domain" pointer-events="none"><line transform="translate(0,200)" x2="0" y2="-200" stroke="black" stroke-width="1" opacity="1"/></g><g class="mark-text role-axis-title" pointer-events="none"><text text-anchor="middle" transform="translate(-30.4619140625,100) rotate(-90) translate(0,-3)" font-family="Helvetica" font-size="14px" font-weight="bold" fill="#000" opacity="1">Fraction Infectivity</text></g></g><path class="foreground" aria-hidden="true" d="" pointer-events="none" display="none"/></g></g><g class="mark-group role-scope layer_0_pathgroup" role="graphics-object" aria-roledescription="group mark container"><g transform="translate(0,0)"><path class="background" aria-hidden="true" d="M0,0h300v200h-300Z"/><g><g class="mark-line role-mark layer_0_marks" role="graphics-object" aria-roledescription="line mark container"><path aria-label="Sera Dilution: 4e-6; Fraction Infectivity: 0.885424518847; Serum: mRNA_p72_5min" role="graphics-symbol" aria-roledescription="line mark" d="M31.276,22.915L32.405,23.994L33.534,25.116L34.663,26.282L35.792,27.495L36.922,28.754L38.051,30.06L39.18,31.416L40.309,32.82L41.438,34.275L42.567,35.78L43.696,37.336L44.825,38.944L45.954,40.604L47.083,42.316L48.212,44.08L49.341,45.897L50,46.98L50.47,47.765L51.6,49.685L52.729,51.656L53.858,53.677L54.987,55.748L56.116,57.867L57.245,60.032L58.374,62.244L59.503,64.499L60.632,66.797L61.761,69.134L62.89,71.51L64.019,73.92L65.148,76.364L66.277,78.839L67.407,81.34L68.536,83.866L69.665,86.414L70.794,88.979L71.923,91.559L73.052,94.151L73.856,96.001L74.181,96.75L75.31,99.354L76.439,101.959L77.568,104.561L78.697,107.157L79.826,109.743L80.955,112.316L82.085,114.873L83.214,117.41L84.343,119.924L85.472,122.412L86.601,124.871L87.73,127.299L88.859,129.692L89.988,132.049L91.117,134.367L92.246,136.643L93.375,138.876L94.504,141.065L95.154,142.304L95.633,143.207L96.762,145.302L97.892,147.348L99.021,149.344L100.15,151.289L101.279,153.183L102.408,155.025L103.537,156.816L104.666,158.554L105.795,160.239L106.924,161.873L108.053,163.455L109.182,164.985L110.311,166.465L111.44,167.894L112.57,169.274L113.699,170.604L114.828,171.887L115.957,173.122L117.086,174.311L118.086,175.327L118.215,175.455L119.344,176.555L120.473,177.612L121.602,178.627L122.731,179.602L123.86,180.537L124.989,181.433L126.118,182.292L127.247,183.115L128.377,183.903L129.506,184.658L130.635,185.38L131.764,186.07L132.893,186.731L134.022,187.362L135.151,187.965L136.28,188.541L137.409,189.091L138.538,189.616L139.667,190.117L140.796,190.595L141.925,191.051L141.942,191.058L143.055,191.486L144.184,191.901L145.313,192.296L146.442,192.673L147.571,193.032L148.7,193.374L149.829,193.7L150.958,194.01L152.087,194.305L153.216,194.587L154.345,194.854L155.474,195.109L156.603,195.352L157.732,195.583L158.862,195.802L159.991,196.011L161.12,196.21L162.249,196.399L163.378,196.578L164.507,196.749L165.636,196.912L165.693,196.92L166.765,197.066L167.894,197.213L169.023,197.353L170.152,197.485L171.281,197.611L172.41,197.731L173.54,197.845L174.669,197.954L175.798,198.056L176.927,198.154L178.056,198.247L179.185,198.335L180.314,198.419L181.443,198.499L182.572,198.574L183.701,198.646L184.83,198.715L185.959,198.779L187.088,198.841L188.217,198.9L189.347,198.955L189.514,198.963L190.476,199.008L191.605,199.058L192.734,199.106L193.863,199.151L194.992,199.194L196.121,199.235L197.25,199.273L198.379,199.31L199.508,199.345L200.637,199.378L201.766,199.41L202.895,199.439L204.025,199.468L205.154,199.495L206.283,199.52L207.412,199.545L208.541,199.568L209.67,199.59L210.799,199.61L211.928,199.63L213.057,199.649L213.382,199.654L214.186,199.667L215.315,199.684L216.444,199.7L217.573,199.715L218.702,199.729L219.832,199.743L220.961,199.756L222.09,199.768L223.219,199.78L224.348,199.791L225.477,199.802L226.606,199.812L227.735,199.822L228.864,199.831L229.993,199.839L231.122,199.847L232.251,199.855L233.38,199.862L234.51,199.869L235.639,199.876L236.768,199.882L237.238,199.885L237.897,199.888L239.026,199.894L240.155,199.899L241.284,199.904L242.413,199.909L243.542,199.914L244.671,199.918L245.8,199.922L246.929,199.926L248.058,199.93L249.187,199.934L250.317,199.937L251.446,199.94L252.575,199.943L253.704,199.946L254.833,199.949L255.962,199.951" stroke="#4e79a7" stroke-width="1.5"/></g></g><path class="foreground" aria-hidden="true" d="" display="none"/></g><g transform="translate(0,0)"><path class="background" aria-hidden="true" d="M0,0h300v200h-300Z"/><g><g class="mark-line role-mark layer_0_marks" role="graphics-object" aria-roledescription="line mark container"><path aria-label="Sera Dilution: 4e-6; Fraction Infectivity: 0.891777306108; Serum: mRNA_p72_60min" role="graphics-symbol" aria-roledescription="line mark" d="M31.276,21.645L32.405,22.625L33.534,23.644L34.663,24.703L35.792,25.802L36.922,26.942L38.051,28.125L39.18,29.351L40.309,30.621L41.438,31.935L42.567,33.295L43.696,34.701L44.825,36.153L45.954,37.652L47.083,39.198L48.212,40.792L49.341,42.434L50,43.414L50.47,44.124L51.6,45.861L52.729,47.645L53.858,49.477L54.987,51.355L56.116,53.28L57.245,55.25L58.374,57.264L59.503,59.322L60.632,61.421L61.761,63.562L62.89,65.741L64.019,67.958L65.148,70.211L66.277,72.498L67.407,74.816L68.536,77.163L69.665,79.537L70.794,81.936L71.923,84.356L73.052,86.795L73.856,88.542L74.181,89.25L75.31,91.718L76.439,94.197L77.568,96.683L78.697,99.173L79.826,101.663L80.955,104.152L82.085,106.636L83.214,109.111L84.343,111.576L85.472,114.026L86.601,116.459L87.73,118.872L88.859,121.263L89.988,123.628L91.117,125.966L92.246,128.273L93.375,130.549L94.504,132.79L95.154,134.064L95.633,134.995L96.762,137.161L97.892,139.288L99.021,141.374L100.15,143.417L101.279,145.416L102.408,147.371L103.537,149.28L104.666,151.143L105.795,152.959L106.924,154.728L108.053,156.449L109.182,158.122L110.311,159.748L111.44,161.326L112.57,162.856L113.699,164.34L114.828,165.776L115.957,167.167L117.086,168.511L118.086,169.665L118.215,169.81L119.344,171.065L120.473,172.277L121.602,173.445L122.731,174.572L123.86,175.657L124.989,176.702L126.118,177.708L127.247,178.676L128.377,179.607L129.506,180.501L130.635,181.361L131.764,182.186L132.893,182.978L134.022,183.738L135.151,184.467L136.28,185.166L137.409,185.836L138.538,186.478L139.667,187.092L140.796,187.681L141.925,188.245L141.942,188.253L143.055,188.784L144.184,189.3L145.313,189.793L146.442,190.265L147.571,190.716L148.7,191.148L149.829,191.56L150.958,191.953L152.087,192.329L153.216,192.689L154.345,193.031L155.474,193.359L156.603,193.671L157.732,193.97L158.862,194.254L159.991,194.526L161.12,194.785L162.249,195.032L163.378,195.268L164.507,195.493L165.636,195.707L165.693,195.718L166.765,195.911L167.894,196.106L169.023,196.292L170.152,196.469L171.281,196.638L172.41,196.799L173.54,196.952L174.669,197.098L175.798,197.237L176.927,197.369L178.056,197.496L179.185,197.616L180.314,197.73L181.443,197.84L182.572,197.943L183.701,198.042L184.83,198.137L185.959,198.226L187.088,198.312L188.217,198.393L189.347,198.471L189.514,198.482L190.476,198.545L191.605,198.615L192.734,198.682L193.863,198.745L194.992,198.806L196.121,198.864L197.25,198.919L198.379,198.971L199.508,199.021L200.637,199.068L201.766,199.113L202.895,199.156L204.025,199.197L205.154,199.236L206.283,199.273L207.412,199.308L208.541,199.342L209.67,199.373L210.799,199.404L211.928,199.433L213.057,199.46L213.382,199.468L214.186,199.486L215.315,199.511L216.444,199.535L217.573,199.558L218.702,199.579L219.832,199.599L220.961,199.619L222.09,199.637L223.219,199.655L224.348,199.672L225.477,199.688L226.606,199.703L227.735,199.717L228.864,199.731L229.993,199.744L231.122,199.756L232.251,199.768L233.38,199.779L234.51,199.79L235.639,199.8L236.768,199.81L237.238,199.814L237.897,199.819L239.026,199.828L240.155,199.836L241.284,199.844L242.413,199.852L243.542,199.859L244.671,199.866L245.8,199.872L246.929,199.879L248.058,199.885L249.187,199.89L250.317,199.895L251.446,199.901L252.575,199.905L253.704,199.91L254.833,199.914L255.962,199.919" stroke="#f28e2c" stroke-width="1.5"/></g></g><path class="foreground" aria-hidden="true" d="" display="none"/></g><g transform="translate(0,0)"><path class="background" aria-hidden="true" d="M0,0h300v200h-300Z"/><g><g class="mark-line role-mark layer_0_marks" role="graphics-object" aria-roledescription="line mark container"><path aria-label="Sera Dilution: 4e-6; Fraction Infectivity: 0.884039581415; Serum: mRNA_p72_120min" role="graphics-symbol" aria-roledescription="line mark" d="M31.276,23.192L32.405,24.225L33.534,25.298L34.663,26.412L35.792,27.566L36.922,28.763L38.051,30.002L39.18,31.285L40.309,32.613L41.438,33.985L42.567,35.403L43.696,36.868L44.825,38.378L45.954,39.935L47.083,41.539L48.212,43.191L49.341,44.889L50,45.901L50.47,46.634L51.6,48.426L52.729,50.264L53.858,52.148L54.987,54.077L56.116,56.05L57.245,58.067L58.374,60.126L59.503,62.226L60.632,64.366L61.761,66.543L62.89,68.757L64.019,71.005L65.148,73.286L66.277,75.597L67.407,77.937L68.536,80.301L69.665,82.689L70.794,85.098L71.923,87.524L73.052,89.966L73.856,91.712L74.181,92.419L75.31,94.882L76.439,97.351L77.568,99.823L78.697,102.296L79.826,104.765L80.955,107.229L82.085,109.684L83.214,112.127L84.343,114.556L85.472,116.967L86.601,119.358L87.73,121.727L88.859,124.07L89.988,126.385L91.117,128.67L92.246,130.923L93.375,133.142L94.504,135.325L95.154,136.565L95.633,137.47L96.762,139.576L97.892,141.641L99.021,143.664L100.15,145.643L101.279,147.579L102.408,149.469L103.537,151.314L104.666,153.112L105.795,154.864L106.924,156.569L108.053,158.227L109.182,159.838L110.311,161.402L111.44,162.919L112.57,164.39L113.699,165.815L114.828,167.193L115.957,168.527L117.086,169.817L118.086,170.923L118.215,171.063L119.344,172.265L120.473,173.426L121.602,174.545L122.731,175.623L123.86,176.662L124.989,177.663L126.118,178.625L127.247,179.551L128.377,180.442L129.506,181.297L130.635,182.119L131.764,182.908L132.893,183.665L134.022,184.392L135.151,185.089L136.28,185.757L137.409,186.398L138.538,187.012L139.667,187.599L140.796,188.162L141.925,188.701L141.942,188.709L143.055,189.217L144.184,189.711L145.313,190.183L146.442,190.634L147.571,191.066L148.7,191.479L149.829,191.873L150.958,192.25L152.087,192.61L153.216,192.954L154.345,193.283L155.474,193.597L156.603,193.896L157.732,194.182L158.862,194.455L159.991,194.716L161.12,194.964L162.249,195.201L163.378,195.428L164.507,195.643L165.636,195.849L165.693,195.859L166.765,196.046L167.894,196.233L169.023,196.411L170.152,196.582L171.281,196.744L172.41,196.899L173.54,197.046L174.669,197.186L175.798,197.32L176.927,197.448L178.056,197.57L179.185,197.686L180.314,197.796L181.443,197.901L182.572,198.002L183.701,198.097L184.83,198.188L185.959,198.275L187.088,198.357L188.217,198.436L189.347,198.511L189.514,198.522L190.476,198.582L191.605,198.65L192.734,198.715L193.863,198.777L194.992,198.835L196.121,198.891L197.25,198.944L198.379,198.995L199.508,199.043L200.637,199.089L201.766,199.133L202.895,199.175L204.025,199.214L205.154,199.252L206.283,199.288L207.412,199.322L208.541,199.355L209.67,199.386L210.799,199.415L211.928,199.444L213.057,199.47L213.382,199.478L214.186,199.496L215.315,199.52L216.444,199.543L217.573,199.565L218.702,199.586L219.832,199.606L220.961,199.625L222.09,199.643L223.219,199.66L224.348,199.677L225.477,199.692L226.606,199.707L227.735,199.721L228.864,199.735L229.993,199.747L231.122,199.76L232.251,199.771L233.38,199.782L234.51,199.793L235.639,199.803L236.768,199.812L237.238,199.816L237.897,199.821L239.026,199.83L240.155,199.838L241.284,199.846L242.413,199.853L243.542,199.86L244.671,199.867L245.8,199.874L246.929,199.88L248.058,199.885L249.187,199.891L250.317,199.896L251.446,199.901L252.575,199.906L253.704,199.911L254.833,199.915L255.962,199.919" stroke="#e15759" stroke-width="1.5"/></g></g><path class="foreground" aria-hidden="true" d="" display="none"/></g></g><g class="mark-symbol role-mark layer_1_marks" role="graphics-object" aria-roledescription="symbol mark container"><path aria-label="Sera Dilution: 1e-5; Fraction Infectivity: 0.7691654925; Serum: mRNA_p72_5min" role="graphics-symbol" aria-roledescription="circle" transform="translate(49.999999999999986,46.1669015)" d="M2.739,0A2.739,2.739,0,1,1,-2.739,0A2.739,2.739,0,1,1,2.739,0" fill="#4e79a7" stroke-width="2" opacity="1"/><path aria-label="Sera Dilution: 3e-5; Fraction Infectivity: 0.499327941; Serum: mRNA_p72_5min" role="graphics-symbol" aria-roledescription="circle" transform="translate(73.8560627359831,100.1344118)" d="M2.739,0A2.739,2.739,0,1,1,-2.739,0A2.739,2.739,0,1,1,2.739,0" fill="#4e79a7" stroke-width="2" opacity="1"/><path aria-label="Sera Dilution: 8e-5; Fraction Infectivity: 0.3168974655; Serum: mRNA_p72_5min" role="graphics-symbol" aria-roledescription="circle" transform="translate(95.15449934959717,136.6205069)" d="M2.739,0A2.739,2.739,0,1,1,-2.739,0A2.739,2.739,0,1,1,2.739,0" fill="#4e79a7" stroke-width="2" opacity="1"/><path aria-label="Sera Dilution: 2e-4; Fraction Infectivity: 0.1250814215; Serum: mRNA_p72_5min" role="graphics-symbol" aria-roledescription="circle" transform="translate(118.08639180087962,174.9837157)" d="M2.739,0A2.739,2.739,0,1,1,-2.739,0A2.739,2.739,0,1,1,2.739,0" fill="#4e79a7" stroke-width="2" opacity="1"/><path aria-label="Sera Dilution: 7e-4; Fraction Infectivity: 0.013161369; Serum: mRNA_p72_5min" role="graphics-symbol" aria-roledescription="circle" transform="translate(141.94245453686275,197.3677262)" d="M2.739,0A2.739,2.739,0,1,1,-2.739,0A2.739,2.739,0,1,1,2.739,0" fill="#4e79a7" stroke-width="2" opacity="1"/><path aria-label="Sera Dilution: 2e-3; Fraction Infectivity: 0.0012073495; Serum: mRNA_p72_5min" role="graphics-symbol" aria-roledescription="circle" transform="translate(165.69336101845767,199.7585301)" d="M2.739,0A2.739,2.739,0,1,1,-2.739,0A2.739,2.739,0,1,1,2.739,0" fill="#4e79a7" stroke-width="2" opacity="1"/><path aria-label="Sera Dilution: 6e-3; Fraction Infectivity: 0.00008224975; Serum: mRNA_p72_5min" role="graphics-symbol" aria-roledescription="circle" transform="translate(189.5142582016621,199.98355005)" d="M2.739,0A2.739,2.739,0,1,1,-2.739,0A2.739,2.739,0,1,1,2.739,0" fill="#4e79a7" stroke-width="2" opacity="1"/><path aria-label="Sera Dilution: 2e-2; Fraction Infectivity: 0.00002908235; Serum: mRNA_p72_5min" role="graphics-symbol" aria-roledescription="circle" transform="translate(213.38204911729576,199.99418353000002)" d="M2.739,0A2.739,2.739,0,1,1,-2.739,0A2.739,2.739,0,1,1,2.739,0" fill="#4e79a7" stroke-width="2" opacity="1"/><path aria-label="Sera Dilution: 6e-2; Fraction Infectivity: 0.00001515585; Serum: mRNA_p72_5min" role="graphics-symbol" aria-roledescription="circle" transform="translate(237.23811185327887,199.99696883)" d="M2.739,0A2.739,2.739,0,1,1,-2.739,0A2.739,2.739,0,1,1,2.739,0" fill="#4e79a7" stroke-width="2" opacity="1"/><path aria-label="Sera Dilution: 1e-5; Fraction Infectivity: 0.7334604175; Serum: mRNA_p72_60min" role="graphics-symbol" aria-roledescription="circle" transform="translate(49.999999999999986,53.3079165)" d="M2.739,0A2.739,2.739,0,1,1,-2.739,0A2.739,2.739,0,1,1,2.739,0" fill="#f28e2c" stroke-width="2" opacity="1"/><path aria-label="Sera Dilution: 3e-5; Fraction Infectivity: 0.5780411525; Serum: mRNA_p72_60min" role="graphics-symbol" aria-roledescription="circle" transform="translate(73.8560627359831,84.39176950000001)" d="M2.739,0A2.739,2.739,0,1,1,-2.739,0A2.739,2.739,0,1,1,2.739,0" fill="#f28e2c" stroke-width="2" opacity="1"/><path aria-label="Sera Dilution: 8e-5; Fraction Infectivity: 0.378882607; Serum: mRNA_p72_60min" role="graphics-symbol" aria-roledescription="circle" transform="translate(95.15449934959717,124.2234786)" d="M2.739,0A2.739,2.739,0,1,1,-2.739,0A2.739,2.739,0,1,1,2.739,0" fill="#f28e2c" stroke-width="2" opacity="1"/><path aria-label="Sera Dilution: 2e-4; Fraction Infectivity: 0.1197064425; Serum: mRNA_p72_60min" role="graphics-symbol" aria-roledescription="circle" transform="translate(118.08639180087962,176.05871150000002)" d="M2.739,0A2.739,2.739,0,1,1,-2.739,0A2.739,2.739,0,1,1,2.739,0" fill="#f28e2c" stroke-width="2" opacity="1"/><path aria-label="Sera Dilution: 7e-4; Fraction Infectivity: 0.0051281415; Serum: mRNA_p72_60min" role="graphics-symbol" aria-roledescription="circle" transform="translate(141.94245453686275,198.9743717)" d="M2.739,0A2.739,2.739,0,1,1,-2.739,0A2.739,2.739,0,1,1,2.739,0" fill="#f28e2c" stroke-width="2" opacity="1"/><path aria-label="Sera Dilution: 2e-3; Fraction Infectivity: 0.000241581; Serum: mRNA_p72_60min" role="graphics-symbol" aria-roledescription="circle" transform="translate(165.69336101845767,199.95168379999998)" d="M2.739,0A2.739,2.739,0,1,1,-2.739,0A2.739,2.739,0,1,1,2.739,0" fill="#f28e2c" stroke-width="2" opacity="1"/><path aria-label="Sera Dilution: 6e-3; Fraction Infectivity: 0.0000554149; Serum: mRNA_p72_60min" role="graphics-symbol" aria-roledescription="circle" transform="translate(189.5142582016621,199.98891702)" d="M2.739,0A2.739,2.739,0,1,1,-2.739,0A2.739,2.739,0,1,1,2.739,0" fill="#f28e2c" stroke-width="2" opacity="1"/><path aria-label="Sera Dilution: 2e-2; Fraction Infectivity: 0.00002772975; Serum: mRNA_p72_60min" role="graphics-symbol" aria-roledescription="circle" transform="translate(213.38204911729576,199.99445405)" d="M2.739,0A2.739,2.739,0,1,1,-2.739,0A2.739,2.739,0,1,1,2.739,0" fill="#f28e2c" stroke-width="2" opacity="1"/><path aria-label="Sera Dilution: 6e-2; Fraction Infectivity: 0.00001424735; Serum: mRNA_p72_60min" role="graphics-symbol" aria-roledescription="circle" transform="translate(237.23811185327887,199.99715053)" d="M2.739,0A2.739,2.739,0,1,1,-2.739,0A2.739,2.739,0,1,1,2.739,0" fill="#f28e2c" stroke-width="2" opacity="1"/><path aria-label="Sera Dilution: 1e-5; Fraction Infectivity: 0.7386363635; Serum: mRNA_p72_120min" role="graphics-symbol" aria-roledescription="circle" transform="translate(49.999999999999986,52.272727300000014)" d="M2.739,0A2.739,2.739,0,1,1,-2.739,0A2.739,2.739,0,1,1,2.739,0" fill="#e15759" stroke-width="2" opacity="1"/><path aria-label="Sera Dilution: 3e-5; Fraction Infectivity: 0.552945746; Serum: mRNA_p72_120min" role="graphics-symbol" aria-roledescription="circle" transform="translate(73.8560627359831,89.41085079999999)" d="M2.739,0A2.739,2.739,0,1,1,-2.739,0A2.739,2.739,0,1,1,2.739,0" fill="#e15759" stroke-width="2" opacity="1"/><path aria-label="Sera Dilution: 8e-5; Fraction Infectivity: 0.351240857; Serum: mRNA_p72_120min" role="graphics-symbol" aria-roledescription="circle" transform="translate(95.15449934959717,129.75182859999998)" d="M2.739,0A2.739,2.739,0,1,1,-2.739,0A2.739,2.739,0,1,1,2.739,0" fill="#e15759" stroke-width="2" opacity="1"/><path aria-label="Sera Dilution: 2e-4; Fraction Infectivity: 0.1336526565; Serum: mRNA_p72_120min" role="graphics-symbol" aria-roledescription="circle" transform="translate(118.08639180087962,173.2694687)" d="M2.739,0A2.739,2.739,0,1,1,-2.739,0A2.739,2.739,0,1,1,2.739,0" fill="#e15759" stroke-width="2" opacity="1"/><path aria-label="Sera Dilution: 7e-4; Fraction Infectivity: 0.0064166395; Serum: mRNA_p72_120min" role="graphics-symbol" aria-roledescription="circle" transform="translate(141.94245453686275,198.71667209999998)" d="M2.739,0A2.739,2.739,0,1,1,-2.739,0A2.739,2.739,0,1,1,2.739,0" fill="#e15759" stroke-width="2" opacity="1"/><path aria-label="Sera Dilution: 2e-3; Fraction Infectivity: 0.000155528; Serum: mRNA_p72_120min" role="graphics-symbol" aria-roledescription="circle" transform="translate(165.69336101845767,199.9688944)" d="M2.739,0A2.739,2.739,0,1,1,-2.739,0A2.739,2.739,0,1,1,2.739,0" fill="#e15759" stroke-width="2" opacity="1"/><path aria-label="Sera Dilution: 6e-3; Fraction Infectivity: 0.0000280646; Serum: mRNA_p72_120min" role="graphics-symbol" aria-roledescription="circle" transform="translate(189.5142582016621,199.99438708)" d="M2.739,0A2.739,2.739,0,1,1,-2.739,0A2.739,2.739,0,1,1,2.739,0" fill="#e15759" stroke-width="2" opacity="1"/><path aria-label="Sera Dilution: 2e-2; Fraction Infectivity: 0.0000206695; Serum: mRNA_p72_120min" role="graphics-symbol" aria-roledescription="circle" transform="translate(213.38204911729576,199.9958661)" d="M2.739,0A2.739,2.739,0,1,1,-2.739,0A2.739,2.739,0,1,1,2.739,0" fill="#e15759" stroke-width="2" opacity="1"/><path aria-label="Sera Dilution: 6e-2; Fraction Infectivity: 0.000007921735; Serum: mRNA_p72_120min" role="graphics-symbol" aria-roledescription="circle" transform="translate(237.23811185327887,199.998415653)" d="M2.739,0A2.739,2.739,0,1,1,-2.739,0A2.739,2.739,0,1,1,2.739,0" fill="#e15759" stroke-width="2" opacity="1"/></g><g class="mark-rule role-mark layer_2_marks" role="graphics-object" aria-roledescription="rule mark container"><line aria-label="concentration: 0.00001; Fraction Infectivity: 0.704718945; upper_lower: 0.83361204; Serum: mRNA_p72_5min; upper: 0.83361204; lower: 0.704718945" role="graphics-symbol" aria-roledescription="errorbar" transform="translate(49.999999999999986,59.056211000000005)" x2="0" y2="-25.778619000000006" stroke="#4e79a7" opacity="1"/><line aria-label="concentration: 0.00003; Fraction Infectivity: 0.418806384; upper_lower: 0.579849498; Serum: mRNA_p72_5min; upper: 0.579849498; lower: 0.418806384" role="graphics-symbol" aria-roledescription="errorbar" transform="translate(73.8560627359831,116.2387232)" x2="0" y2="-32.208622799999986" stroke="#4e79a7" opacity="1"/><line aria-label="concentration: 0.00008; Fraction Infectivity: 0.275433727; upper_lower: 0.358361204; Serum: mRNA_p72_5min; upper: 0.358361204; lower: 0.275433727" role="graphics-symbol" aria-roledescription="errorbar" transform="translate(95.15449934959717,144.9132546)" x2="0" y2="-16.585495399999985" stroke="#4e79a7" opacity="1"/><line aria-label="concentration: 0.00023; Fraction Infectivity: 0.107980569; upper_lower: 0.142182274; Serum: mRNA_p72_5min; upper: 0.142182274; lower: 0.107980569" role="graphics-symbol" aria-roledescription="errorbar" transform="translate(118.08639180087962,178.40388620000002)" x2="0" y2="-6.8403410000000235" stroke="#4e79a7" opacity="1"/><line aria-label="concentration: 0.00069; Fraction Infectivity: 0.011828591; upper_lower: 0.014494147; Serum: mRNA_p72_5min; upper: 0.014494147; lower: 0.011828591" role="graphics-symbol" aria-roledescription="errorbar" transform="translate(141.94245453686275,197.6342818)" x2="0" y2="-0.5331111999999791" stroke="#4e79a7" opacity="1"/><line aria-label="concentration: 0.00206; Fraction Infectivity: 0.001193963; upper_lower: 0.001220736; Serum: mRNA_p72_5min; upper: 0.001220736; lower: 0.001193963" role="graphics-symbol" aria-roledescription="errorbar" transform="translate(165.69336101845767,199.76120740000002)" x2="0" y2="-0.005354600000032406" stroke="#4e79a7" opacity="1"/><line aria-label="concentration: 0.00617; Fraction Infectivity: 0.0000535045; upper_lower: 0.000110995; Serum: mRNA_p72_5min; upper: 0.000110995; lower: 0.0000535045" role="graphics-symbol" aria-roledescription="errorbar" transform="translate(189.5142582016621,199.9892991)" x2="0" y2="-0.011498100000011391" stroke="#4e79a7" opacity="1"/><line aria-label="concentration: 0.01852; Fraction Infectivity: 0.000024306; upper_lower: 0.0000338587; Serum: mRNA_p72_5min; upper: 0.0000338587; lower: 0.000024306" role="graphics-symbol" aria-roledescription="errorbar" transform="translate(213.38204911729576,199.9951388)" x2="0" y2="-0.0019105399999830297" stroke="#4e79a7" opacity="1"/><line aria-label="concentration: 0.05556; Fraction Infectivity: 0.0000121721; upper_lower: 0.0000181396; Serum: mRNA_p72_5min; upper: 0.0000181396; lower: 0.0000121721" role="graphics-symbol" aria-roledescription="errorbar" transform="translate(237.23811185327887,199.99756557999999)" x2="0" y2="-0.0011934999999709817" stroke="#4e79a7" opacity="1"/><line aria-label="concentration: 0.00001; Fraction Infectivity: 0.722870731; upper_lower: 0.744050104; Serum: mRNA_p72_60min; upper: 0.744050104; lower: 0.722870731" role="graphics-symbol" aria-roledescription="errorbar" transform="translate(49.999999999999986,55.4258538)" x2="0" y2="-4.23587460000001" stroke="#f28e2c" opacity="1"/><line aria-label="concentration: 0.00003; Fraction Infectivity: 0.560751566; upper_lower: 0.595330739; Serum: mRNA_p72_60min; upper: 0.595330739; lower: 0.560751566" role="graphics-symbol" aria-roledescription="errorbar" transform="translate(73.8560627359831,87.8496868)" x2="0" y2="-6.915834599999997" stroke="#f28e2c" opacity="1"/><line aria-label="concentration: 0.00008; Fraction Infectivity: 0.365720251; upper_lower: 0.392044963; Serum: mRNA_p72_60min; upper: 0.392044963; lower: 0.365720251" role="graphics-symbol" aria-roledescription="errorbar" transform="translate(95.15449934959717,126.85594980000002)" x2="0" y2="-5.264942400000024" stroke="#f28e2c" opacity="1"/><line aria-label="concentration: 0.00023; Fraction Infectivity: 0.117536534; upper_lower: 0.121876351; Serum: mRNA_p72_60min; upper: 0.121876351; lower: 0.117536534" role="graphics-symbol" aria-roledescription="errorbar" transform="translate(118.08639180087962,176.49269320000002)" x2="0" y2="-0.8679634000000362" stroke="#f28e2c" opacity="1"/><line aria-label="concentration: 0.00069; Fraction Infectivity: 0.004924341; upper_lower: 0.005331942; Serum: mRNA_p72_60min; upper: 0.005331942; lower: 0.004924341" role="graphics-symbol" aria-roledescription="errorbar" transform="translate(141.94245453686275,199.01513179999998)" x2="0" y2="-0.08152019999997151" stroke="#f28e2c" opacity="1"/><line aria-label="concentration: 0.00206; Fraction Infectivity: 0.00022618; upper_lower: 0.000256982; Serum: mRNA_p72_60min; upper: 0.000256982; lower: 0.00022618" role="graphics-symbol" aria-roledescription="errorbar" transform="translate(165.69336101845767,199.954764)" x2="0" y2="-0.006160400000027266" stroke="#f28e2c" opacity="1"/><line aria-label="concentration: 0.00617; Fraction Infectivity: 0.000050454; upper_lower: 0.0000603758; Serum: mRNA_p72_60min; upper: 0.0000603758; lower: 0.000050454" role="graphics-symbol" aria-roledescription="errorbar" transform="translate(189.5142582016621,199.9899092)" x2="0" y2="-0.001984359999994467" stroke="#f28e2c" opacity="1"/><line aria-label="concentration: 0.01852; Fraction Infectivity: 0.0000264885; upper_lower: 0.000028971; Serum: mRNA_p72_60min; upper: 0.000028971; lower: 0.0000264885" role="graphics-symbol" aria-roledescription="errorbar" transform="translate(213.38204911729576,199.9947023)" x2="0" y2="-0.0004964999999970132" stroke="#f28e2c" opacity="1"/><line aria-label="concentration: 0.05556; Fraction Infectivity: 0.0000137181; upper_lower: 0.0000147766; Serum: mRNA_p72_60min; upper: 0.0000147766; lower: 0.0000137181" role="graphics-symbol" aria-roledescription="errorbar" transform="translate(237.23811185327887,199.99725638)" x2="0" y2="-0.00021170000002257439" stroke="#f28e2c" opacity="1"/><line aria-label="concentration: 0.00001; Fraction Infectivity: 0.727272727; upper_lower: 0.75; Serum: mRNA_p72_120min; upper: 0.75; lower: 0.727272727" role="graphics-symbol" aria-roledescription="errorbar" transform="translate(49.999999999999986,54.5454546)" x2="0" y2="-4.545454599999978" stroke="#e15759" opacity="1"/><line aria-label="concentration: 0.00003; Fraction Infectivity: 0.550548589; upper_lower: 0.555342903; Serum: mRNA_p72_120min; upper: 0.555342903; lower: 0.550548589" role="graphics-symbol" aria-roledescription="errorbar" transform="translate(73.8560627359831,89.89028219999999)" x2="0" y2="-0.9588627999999915" stroke="#e15759" opacity="1"/><line aria-label="concentration: 0.00008; Fraction Infectivity: 0.344905956; upper_lower: 0.357575758; Serum: mRNA_p72_120min; upper: 0.357575758; lower: 0.344905956" role="graphics-symbol" aria-roledescription="errorbar" transform="translate(95.15449934959717,131.0188088)" x2="0" y2="-2.533960400000012" stroke="#e15759" opacity="1"/><line aria-label="concentration: 0.00023; Fraction Infectivity: 0.120415361; upper_lower: 0.146889952; Serum: mRNA_p72_120min; upper: 0.146889952; lower: 0.120415361" role="graphics-symbol" aria-roledescription="errorbar" transform="translate(118.08639180087962,175.9169278)" x2="0" y2="-5.294918199999984" stroke="#e15759" opacity="1"/><line aria-label="concentration: 0.00069; Fraction Infectivity: 0.005321317; upper_lower: 0.007511962; Serum: mRNA_p72_120min; upper: 0.007511962; lower: 0.005321317" role="graphics-symbol" aria-roledescription="errorbar" transform="translate(141.94245453686275,198.93573659999998)" x2="0" y2="-0.43812900000000354" stroke="#e15759" opacity="1"/><line aria-label="concentration: 0.00206; Fraction Infectivity: 0.000123987; upper_lower: 0.000187069; Serum: mRNA_p72_120min; upper: 0.000187069; lower: 0.000123987" role="graphics-symbol" aria-roledescription="errorbar" transform="translate(165.69336101845767,199.9752026)" x2="0" y2="-0.012616399999984651" stroke="#e15759" opacity="1"/><line aria-label="concentration: 0.00617; Fraction Infectivity: 0.0000169442; upper_lower: 0.000039185; Serum: mRNA_p72_120min; upper: 0.000039185; lower: 0.0000169442" role="graphics-symbol" aria-roledescription="errorbar" transform="translate(189.5142582016621,199.99661116000001)" x2="0" y2="-0.004448160000009693" stroke="#e15759" opacity="1"/><line aria-label="concentration: 0.01852; Fraction Infectivity: 0.0000172089; upper_lower: 0.0000241301; Serum: mRNA_p72_120min; upper: 0.0000241301; lower: 0.0000172089" role="graphics-symbol" aria-roledescription="errorbar" transform="translate(213.38204911729576,199.99655822)" x2="0" y2="-0.0013842399999930421" stroke="#e15759" opacity="1"/><line aria-label="concentration: 0.05556; Fraction Infectivity: 0.00000560447; upper_lower: 0.000010239; Serum: mRNA_p72_120min; upper: 0.000010239; lower: 0.00000560447" role="graphics-symbol" aria-roledescription="errorbar" transform="translate(237.23811185327887,199.998879106)" x2="0" y2="-0.000926905999989458" stroke="#e15759" opacity="1"/></g><g class="mark-group role-legend" role="graphics-symbol" aria-roledescription="legend" aria-label="Symbol legend titled 'Serum' for fill color and stroke color with 3 values: mRNA_p72_5min, mRNA_p72_60min, mRNA_p72_120min"><g transform="translate(318,0)"><path class="background" aria-hidden="true" d="M0,0h155v75h-155Z" pointer-events="none"/><g><g class="mark-group role-legend-entry"><g transform="translate(5,24)"><path class="background" aria-hidden="true" d="M0,0h0v0h0Z" pointer-events="none"/><g><g class="mark-group role-scope" role="graphics-object" aria-roledescription="group mark container"><g transform="translate(0,0)"><path class="background" aria-hidden="true" d="M0,0h144.068359375v14h-144.068359375Z" pointer-events="none" opacity="1"/><g><g class="mark-symbol role-legend-symbol" pointer-events="none"><path transform="translate(7,7)" d="M5,0A5,5,0,1,1,-5,0A5,5,0,1,1,5,0" fill="#4e79a7" stroke="#4e79a7" stroke-width="1.5" opacity="1"/></g><g class="mark-text role-legend-label" pointer-events="none"><text text-anchor="start" transform="translate(18,11)" font-family="Helvetica" font-size="14px" fill="#000" opacity="1">mRNA_p72_5min</text></g></g><path class="foreground" aria-hidden="true" d="" pointer-events="none" display="none"/></g><g transform="translate(0,16)"><path class="background" aria-hidden="true" d="M0,0h144.068359375v14h-144.068359375Z" pointer-events="none" opacity="1"/><g><g class="mark-symbol role-legend-symbol" pointer-events="none"><path transform="translate(7,7)" d="M5,0A5,5,0,1,1,-5,0A5,5,0,1,1,5,0" fill="#f28e2c" stroke="#f28e2c" stroke-width="1.5" opacity="1"/></g><g class="mark-text role-legend-label" pointer-events="none"><text text-anchor="start" transform="translate(18,11)" font-family="Helvetica" font-size="14px" fill="#000" opacity="1">mRNA_p72_60min</text></g></g><path class="foreground" aria-hidden="true" d="" pointer-events="none" display="none"/></g><g transform="translate(0,32)"><path class="background" aria-hidden="true" d="M0,0h144.068359375v14h-144.068359375Z" pointer-events="none" opacity="1"/><g><g class="mark-symbol role-legend-symbol" pointer-events="none"><path transform="translate(7,7)" d="M5,0A5,5,0,1,1,-5,0A5,5,0,1,1,5,0" fill="#e15759" stroke="#e15759" stroke-width="1.5" opacity="1"/></g><g class="mark-text role-legend-label" pointer-events="none"><text text-anchor="start" transform="translate(18,11)" font-family="Helvetica" font-size="14px" fill="#000" opacity="1">mRNA_p72_120min</text></g></g><path class="foreground" aria-hidden="true" d="" pointer-events="none" display="none"/></g></g></g><path class="foreground" aria-hidden="true" d="" pointer-events="none" display="none"/></g></g><g class="mark-text role-legend-title" pointer-events="none"><text text-anchor="start" transform="translate(5,16)" font-family="Helvetica" font-size="14px" font-weight="bold" fill="#000" opacity="1">Serum</text></g></g><path class="foreground" aria-hidden="true" d="" pointer-events="none" display="none"/></g></g></g><path class="foreground" aria-hidden="true" d="" display="none"/></g></g></g></svg>