<svg xmlns="http://www.w3.org/2000/svg" xmlns:xlink="http://www.w3.org/1999/xlink" version="1.1" class="marks" width="488" height="256" viewBox="0 0 488 256"><rect width="488" height="256" fill="white"/><g fill="none" stroke-miterlimit="10" transform="translate(50,12)"><g class="mark-group role-frame root" role="graphics-object" aria-roledescription="group mark container"><g transform="translate(0,0)"><path class="background" aria-hidden="true" d="M0,0h300v200h-300Z" stroke-width="0"/><g><g class="mark-group role-axis" role="graphics-symbol" aria-roledescription="axis" aria-label="X-axis titled 'Sera Dilution' for a log scale with values from 1e-6 to 1e-1"><g transform="translate(0.5,200.5)"><path class="background" aria-hidden="true" d="M0,0h0v0h0Z" pointer-events="none"/><g><g class="mark-rule role-axis-tick" pointer-events="none"><line transform="translate(0,0)" x2="0" y2="4" stroke="black" stroke-width="1" opacity="1"/><line transform="translate(120,0)" x2="0" y2="4" stroke="black" stroke-width="1" opacity="1"/><line transform="translate(240,0)" x2="0" y2="4" stroke="black" stroke-width="1" opacity="1"/></g><g class="mark-text role-axis-label" pointer-events="none"><text text-anchor="middle" transform="translate(0,17)" font-family="Helvetica" font-size="14px" font-weight="normal" fill="#000" opacity="1">1e-6</text><text text-anchor="middle" transform="translate(120,17)" font-family="Helvetica" font-size="14px" font-weight="normal" fill="#000" opacity="1">1e-4</text><text text-anchor="middle" transform="translate(240,17)" font-family="Helvetica" font-size="14px" font-weight="normal" fill="#000" opacity="1">1e-2</text></g><g class="mark-rule role-axis-domain" pointer-events="none"><line transform="translate(0,0)" x2="300" y2="0" stroke="black" stroke-width="1" opacity="1"/></g><g class="mark-text role-axis-title" pointer-events="none"><text text-anchor="middle" transform="translate(150,36)" font-family="Helvetica" font-size="14px" font-weight="bold" fill="#000" opacity="1">Sera Dilution</text></g></g><path class="foreground" aria-hidden="true" d="" pointer-events="none" display="none"/></g></g><g class="mark-group role-axis" role="graphics-symbol" aria-roledescription="axis" aria-label="Y-axis titled 'Fraction Infectivity' for a linear scale with values from 0.0 to 1.0"><g transform="translate(0.5,0.5)"><path class="background" aria-hidden="true" d="M0,0h0v0h0Z" pointer-events="none"/><g><g class="mark-rule role-axis-tick" pointer-events="none"><line transform="translate(0,200)" x2="-4" y2="0" stroke="black" stroke-width="1" opacity="1"/><line transform="translate(0,100)" x2="-4" y2="0" stroke="black" stroke-width="1" opacity="1"/><line transform="translate(0,0)" x2="-4" y2="0" stroke="black" stroke-width="1" opacity="1"/></g><g class="mark-text role-axis-label" pointer-events="none"><text text-anchor="end" transform="translate(-6,204)" font-family="Helvetica" font-size="14px" font-weight="normal" fill="#000" opacity="1">0.0</text><text text-anchor="end" transform="translate(-6,104)" font-family="Helvetica" font-size="14px" font-weight="normal" fill="#000" opacity="1">0.5</text><text text-anchor="end" transform="translate(-6,4)" font-family="Helvetica" font-size="14px" font-weight="normal" fill="#000" opacity="1">1.0</text></g><g class="mark-rule role-axis-domain" pointer-events="none"><line transform="translate(0,200)" x2="0" y2="-200" stroke="black" stroke-width="1" opacity="1"/></g><g class="mark-text role-axis-title" pointer-events="none"><text text-anchor="middle" transform="translate(-30.4619140625,100) rotate(-90) translate(0,-3)" font-family="Helvetica" font-size="14px" font-weight="bold" fill="#000" opacity="1">Fraction Infectivity</text></g></g><path class="foreground" aria-hidden="true" d="" pointer-events="none" display="none"/></g></g><g class="mark-group role-scope layer_0_pathgroup" role="graphics-object" aria-roledescription="group mark container"><g transform="translate(0,0)"><path class="background" aria-hidden="true" d="M0,0h300v200h-300Z"/><g><g class="mark-line role-mark layer_0_marks" role="graphics-object" aria-roledescription="line mark container"><path aria-label="Sera Dilution: 2e-6; Fraction Infectivity: 0.907701632396; Virus: WT" role="graphics-symbol" aria-roledescription="line mark" d="M13.074,18.46L14.464,19.113L15.853,19.787L17.243,20.483L18.633,21.199L20.023,21.938L21.413,22.699L22.803,23.484L24.193,24.291L25.583,25.123L26.973,25.978L28.363,26.859L29.753,27.764L31.143,28.695L32.533,29.652L33.923,30.635L35.313,31.644L36.124,32.245L36.703,32.68L38.093,33.744L39.483,34.834L40.873,35.953L42.263,37.099L43.653,38.273L45.042,39.476L46.432,40.707L47.822,41.966L49.212,43.253L50.602,44.569L51.992,45.913L53.382,47.285L54.772,48.686L56.162,50.114L57.552,51.57L58.942,53.053L60,54.2L60.332,54.563L61.722,56.1L63.112,57.663L64.502,59.251L65.892,60.865L67.282,62.503L68.672,64.164L70.062,65.849L71.452,67.556L72.841,69.284L74.231,71.033L75.621,72.801L77.011,74.588L78.401,76.393L79.791,78.214L81.181,80.05L82.571,81.9L83.961,83.764L85.351,85.638L86.741,87.524L88.131,89.418L89.521,91.32L90.911,93.228L92.301,95.142L93.691,97.058L95.081,98.977L96.124,100.418L96.471,100.897L97.861,102.816L99.251,104.733L100.641,106.647L102.03,108.556L103.42,110.458L104.81,112.353L106.2,114.239L107.59,116.115L108.98,117.979L110.37,119.83L111.76,121.667L113.15,123.489L114.54,125.294L115.93,127.082L117.32,128.852L118.71,130.602L120.1,132.332L121.49,134.04L122.484,135.248L122.88,135.726L124.27,137.39L125.66,139.029L127.05,140.644L128.44,142.234L129.83,143.799L131.219,145.337L132.609,146.849L133.999,148.334L135.389,149.792L136.779,151.222L138.169,152.624L139.559,153.998L140.949,155.344L142.339,156.662L143.729,157.951L145.119,159.212L146.509,160.445L147.899,161.649L149.289,162.825L150.679,163.973L151.889,164.95L152.069,165.093L153.459,166.186L154.849,167.251L156.239,168.289L157.629,169.3L159.019,170.285L160.408,171.243L161.798,172.176L163.188,173.083L164.578,173.965L165.968,174.822L167.358,175.655L168.748,176.464L170.138,177.25L171.528,178.013L172.918,178.753L174.308,179.471L175.698,180.168L177.088,180.843L178.478,181.498L179.868,182.133L180.77,182.535L181.258,182.748L182.648,183.344L184.038,183.921L185.428,184.479L186.818,185.02L188.207,185.544L189.597,186.05L190.987,186.54L192.377,187.015L193.767,187.473L195.157,187.916L196.547,188.345L197.937,188.759L199.327,189.16L200.717,189.547L202.107,189.921L203.497,190.282L204.887,190.631L206.277,190.968L207.667,191.293L209.057,191.608L209.398,191.683L210.447,191.911L211.837,192.204L213.227,192.486L214.617,192.759L216.007,193.022L217.396,193.276L218.786,193.522L220.176,193.758L221.566,193.986L222.956,194.206L224.346,194.418L225.736,194.623L227.126,194.82L228.516,195.01L229.906,195.194L231.296,195.371L232.686,195.541L234.076,195.705L235.466,195.864L236.856,196.017L237.997,196.138L238.246,196.164L239.636,196.306L241.026,196.442L242.416,196.574L243.806,196.701L245.196,196.823L246.585,196.941L247.975,197.055L249.365,197.164L250.755,197.269L252.145,197.371L253.535,197.469L254.925,197.563L256.315,197.654L257.705,197.741L259.095,197.825L260.485,197.906L261.875,197.984L263.265,198.059L264.655,198.132L266.045,198.202L266.624,198.23L267.435,198.269L268.825,198.333L270.215,198.396L271.605,198.456L272.995,198.513L274.384,198.569L275.774,198.623L277.164,198.674L278.554,198.724L279.944,198.772L281.334,198.818L282.724,198.862L284.114,198.904L285.504,198.946L286.894,198.985L288.284,199.023L289.674,199.06" stroke="black" stroke-width="1.5"/></g></g><path class="foreground" aria-hidden="true" d="" display="none"/></g><g transform="translate(0,0)"><path class="background" aria-hidden="true" d="M0,0h300v200h-300Z"/><g><g class="mark-line role-mark layer_0_marks" role="graphics-object" aria-roledescription="line mark container"><path aria-label="Sera Dilution: 2e-6; Fraction Infectivity: 0.938499066929; Virus: N529H" role="graphics-symbol" aria-roledescription="line mark" d="M13.074,12.3L14.464,12.845L15.853,13.411L17.243,14.001L18.633,14.615L20.023,15.254L21.413,15.918L22.803,16.608L24.193,17.325L25.583,18.071L26.973,18.845L28.363,19.649L29.753,20.483L31.143,21.348L32.533,22.246L33.923,23.176L35.313,24.14L36.124,24.718L36.703,25.138L38.093,26.171L39.483,27.24L40.873,28.346L42.263,29.489L43.653,30.67L45.042,31.889L46.432,33.147L47.822,34.445L49.212,35.783L50.602,37.161L51.992,38.579L53.382,40.039L54.772,41.539L56.162,43.081L57.552,44.663L58.942,46.287L60,47.55L60.332,47.951L61.722,49.656L63.112,51.401L64.502,53.185L65.892,55.009L67.282,56.871L68.672,58.77L70.062,60.706L71.452,62.678L72.841,64.683L74.231,66.722L75.621,68.792L77.011,70.893L78.401,73.021L79.791,75.177L81.181,77.357L82.571,79.56L83.961,81.785L85.351,84.028L86.741,86.287L88.131,88.561L89.521,90.847L90.911,93.143L92.301,95.446L93.691,97.754L95.081,100.064L96.124,101.797L96.471,102.374L97.861,104.681L99.251,106.984L100.641,109.279L102.03,111.565L103.42,113.838L104.81,116.097L106.2,118.339L107.59,120.562L108.98,122.764L110.37,124.943L111.76,127.097L113.15,129.224L114.54,131.323L115.93,133.391L117.32,135.428L118.71,137.432L120.1,139.402L121.49,141.335L122.484,142.696L122.88,143.233L124.27,145.093L125.66,146.914L127.05,148.697L128.44,150.439L129.83,152.142L131.219,153.804L132.609,155.425L133.999,157.006L135.389,158.545L136.779,160.043L138.169,161.5L139.559,162.916L140.949,164.292L142.339,165.627L143.729,166.923L145.119,168.179L146.509,169.396L147.899,170.575L149.289,171.716L150.679,172.82L151.889,173.751L152.069,173.887L153.459,174.918L154.849,175.914L156.239,176.876L157.629,177.805L159.019,178.7L160.408,179.564L161.798,180.396L163.188,181.199L164.578,181.971L165.968,182.715L167.358,183.431L168.748,184.12L170.138,184.782L171.528,185.419L172.918,186.032L174.308,186.621L175.698,187.186L177.088,187.729L178.478,188.251L179.868,188.752L180.77,189.066L181.258,189.232L182.648,189.693L184.038,190.136L185.428,190.56L186.818,190.967L188.207,191.358L189.597,191.732L190.987,192.09L192.377,192.434L193.767,192.763L195.157,193.079L196.547,193.381L197.937,193.671L199.327,193.948L200.717,194.213L202.107,194.467L203.497,194.711L204.887,194.943L206.277,195.166L207.667,195.38L209.057,195.584L209.398,195.632L210.447,195.779L211.837,195.966L213.227,196.144L214.617,196.315L216.007,196.479L217.396,196.635L218.786,196.785L220.176,196.928L221.566,197.064L222.956,197.195L224.346,197.32L225.736,197.439L227.126,197.554L228.516,197.663L229.906,197.767L231.296,197.867L232.686,197.962L234.076,198.053L235.466,198.141L236.856,198.224L237.997,198.289L238.246,198.303L239.636,198.379L241.026,198.452L242.416,198.521L243.806,198.588L245.196,198.651L246.585,198.712L247.975,198.769L249.365,198.825L250.755,198.877L252.145,198.928L253.535,198.976L254.925,199.022L256.315,199.066L257.705,199.108L259.095,199.148L260.485,199.186L261.875,199.223L263.265,199.258L264.655,199.291L266.045,199.323L266.624,199.336L267.435,199.354L268.825,199.383L270.215,199.411L271.605,199.437L272.995,199.462L274.384,199.487L275.774,199.51L277.164,199.532L278.554,199.553L279.944,199.573L281.334,199.592L282.724,199.611L284.114,199.628L285.504,199.645L286.894,199.661L288.284,199.676L289.674,199.691" stroke="#5AA155" stroke-width="1.5"/></g></g><path class="foreground" aria-hidden="true" d="" display="none"/></g><g transform="translate(0,0)"><path class="background" aria-hidden="true" d="M0,0h300v200h-300Z"/><g><g class="mark-line role-mark layer_0_marks" role="graphics-object" aria-roledescription="line mark container"><path aria-label="Sera Dilution: 2e-6; Fraction Infectivity: 0.93692491567; Virus: E393W" role="graphics-symbol" aria-roledescription="line mark" d="M13.074,12.615L14.464,13.186L15.853,13.782L17.243,14.402L18.633,15.048L20.023,15.72L21.413,16.42L22.803,17.148L24.193,17.905L25.583,18.692L26.973,19.51L28.363,20.36L29.753,21.243L31.143,22.159L32.533,23.109L33.923,24.095L35.313,25.116L36.124,25.729L36.703,26.175L38.093,27.271L39.483,28.406L40.873,29.58L42.263,30.793L43.653,32.047L45.042,33.342L46.432,34.679L47.822,36.058L49.212,37.478L50.602,38.942L51.992,40.449L53.382,41.998L54.772,43.591L56.162,45.227L57.552,46.906L58.942,48.627L60,49.966L60.332,50.391L61.722,52.197L63.112,54.045L64.502,55.932L65.892,57.86L67.282,59.827L68.672,61.831L70.062,63.872L71.452,65.948L72.841,68.058L74.231,70.2L75.621,72.372L77.011,74.573L78.401,76.801L79.791,79.053L81.181,81.328L82.571,83.623L83.961,85.936L85.351,88.264L86.741,90.605L88.131,92.957L89.521,95.316L90.911,97.681L92.301,100.048L93.691,102.415L95.081,104.78L96.124,106.551L96.471,107.139L97.861,109.491L99.251,111.831L100.641,114.159L102.03,116.471L103.42,118.765L104.81,121.039L106.2,123.29L107.59,125.517L108.98,127.717L110.37,129.888L111.76,132.029L113.15,134.137L114.54,136.212L115.93,138.251L117.32,140.254L118.71,142.219L120.1,144.145L121.49,146.031L122.484,147.355L122.88,147.877L124.27,149.681L125.66,151.444L127.05,153.163L128.44,154.841L129.83,156.475L131.219,158.066L132.609,159.614L133.999,161.118L135.389,162.58L136.779,163.999L138.169,165.376L139.559,166.711L140.949,168.004L142.339,169.257L143.729,170.469L145.119,171.641L146.509,172.774L147.899,173.869L149.289,174.926L150.679,175.946L151.889,176.805L152.069,176.93L153.459,177.879L154.849,178.794L156.239,179.675L157.629,180.524L159.019,181.34L160.408,182.126L161.798,182.882L163.188,183.609L164.578,184.308L165.968,184.979L167.358,185.624L168.748,186.243L170.138,186.837L171.528,187.408L172.918,187.955L174.308,188.48L175.698,188.984L177.088,189.466L178.478,189.929L179.868,190.372L180.77,190.65L181.258,190.797L182.648,191.204L184.038,191.594L185.428,191.967L186.818,192.324L188.207,192.666L189.597,192.994L190.987,193.307L192.377,193.606L193.767,193.893L195.157,194.167L196.547,194.43L197.937,194.68L199.327,194.92L200.717,195.149L202.107,195.369L203.497,195.578L204.887,195.778L206.277,195.97L207.667,196.152L209.057,196.327L209.398,196.369L210.447,196.494L211.837,196.653L213.227,196.806L214.617,196.951L216.007,197.09L217.396,197.223L218.786,197.35L220.176,197.471L221.566,197.586L222.956,197.697L224.346,197.802L225.736,197.903L227.126,197.999L228.516,198.09L229.906,198.178L231.296,198.261L232.686,198.341L234.076,198.417L235.466,198.49L236.856,198.559L237.997,198.614L238.246,198.625L239.636,198.689L241.026,198.749L242.416,198.806L243.806,198.861L245.196,198.914L246.585,198.964L247.975,199.011L249.365,199.057L250.755,199.1L252.145,199.142L253.535,199.181L254.925,199.219L256.315,199.255L257.705,199.289L259.095,199.322L260.485,199.353L261.875,199.383L263.265,199.412L264.655,199.439L266.045,199.465L266.624,199.475L267.435,199.489L268.825,199.513L270.215,199.535L271.605,199.557L272.995,199.577L274.384,199.597L275.774,199.615L277.164,199.633L278.554,199.65L279.944,199.666L281.334,199.682L282.724,199.696L284.114,199.71L285.504,199.724L286.894,199.736L288.284,199.749L289.674,199.76" stroke="#E0585B" stroke-width="1.5"/></g></g><path class="foreground" aria-hidden="true" d="" display="none"/></g><g transform="translate(0,0)"><path class="background" aria-hidden="true" d="M0,0h300v200h-300Z"/><g><g class="mark-line role-mark layer_0_marks" role="graphics-object" aria-roledescription="line mark container"><path aria-label="Sera Dilution: 2e-6; Fraction Infectivity: 0.933855545962; Virus: L184E/P403K" role="graphics-symbol" aria-roledescription="line mark" d="M13.074,13.229L14.464,13.872L15.853,14.543L17.243,15.245L18.633,15.977L20.023,16.742L21.413,17.54L22.803,18.371L24.193,19.238L25.583,20.142L26.973,21.083L28.363,22.062L29.753,23.081L31.143,24.141L32.533,25.242L33.923,26.387L35.313,27.575L36.124,28.288L36.703,28.807L38.093,30.085L39.483,31.409L40.873,32.781L42.263,34.2L43.653,35.667L45.042,37.183L46.432,38.749L47.822,40.364L49.212,42.029L50.602,43.743L51.992,45.508L53.382,47.322L54.772,49.185L56.162,51.097L57.552,53.058L58.942,55.066L60,56.625L60.332,57.12L61.722,59.219L63.112,61.363L64.502,63.549L65.892,65.776L67.282,68.042L68.672,70.346L70.062,72.684L71.452,75.055L72.841,77.456L74.231,79.886L75.621,82.34L77.011,84.816L78.401,87.311L79.791,89.823L81.181,92.348L82.571,94.882L83.961,97.423L85.351,99.968L86.741,102.512L88.131,105.053L89.521,107.588L90.911,110.113L92.301,112.625L93.691,115.121L95.081,117.598L96.124,119.442L96.471,120.053L97.861,122.482L99.251,124.884L100.641,127.256L102.03,129.596L103.42,131.9L104.81,134.167L106.2,136.395L107.59,138.582L108.98,140.727L110.37,142.828L111.76,144.883L113.15,146.892L114.54,148.854L115.93,150.767L117.32,152.632L118.71,154.447L120.1,156.213L121.49,157.929L122.484,159.125L122.88,159.595L124.27,161.211L125.66,162.778L127.05,164.295L128.44,165.764L129.83,167.184L131.219,168.556L132.609,169.882L133.999,171.161L135.389,172.395L136.779,173.584L138.169,174.729L139.559,175.832L140.949,176.892L142.339,177.913L143.729,178.893L145.119,179.835L146.509,180.739L147.899,181.607L149.289,182.44L150.679,183.238L151.889,183.906L152.069,184.004L153.459,184.737L154.849,185.439L156.239,186.112L157.629,186.755L159.019,187.371L160.408,187.96L161.798,188.523L163.188,189.062L164.578,189.576L165.968,190.068L167.358,190.537L168.748,190.986L170.138,191.414L171.528,191.823L172.918,192.213L174.308,192.585L175.698,192.94L177.088,193.278L178.478,193.601L179.868,193.909L180.77,194.101L181.258,194.203L182.648,194.482L184.038,194.749L185.428,195.003L186.818,195.245L188.207,195.476L189.597,195.696L190.987,195.905L192.377,196.104L193.767,196.294L195.157,196.474L196.547,196.647L197.937,196.81L199.327,196.966L200.717,197.115L202.107,197.256L203.497,197.39L204.887,197.518L206.277,197.64L207.667,197.756L209.057,197.866L209.398,197.892L210.447,197.971L211.837,198.07L213.227,198.165L214.617,198.256L216.007,198.341L217.396,198.423L218.786,198.501L220.176,198.575L221.566,198.645L222.956,198.712L224.346,198.775L225.736,198.836L227.126,198.893L228.516,198.948L229.906,199L231.296,199.049L232.686,199.096L234.076,199.141L235.466,199.183L236.856,199.224L237.997,199.255L238.246,199.262L239.636,199.298L241.026,199.333L242.416,199.366L243.806,199.398L245.196,199.427L246.585,199.456L247.975,199.483L249.365,199.508L250.755,199.533L252.145,199.556L253.535,199.578L254.925,199.599L256.315,199.619L257.705,199.637L259.095,199.655L260.485,199.672L261.875,199.689L263.265,199.704L264.655,199.719L266.045,199.733L266.624,199.738L267.435,199.746L268.825,199.759L270.215,199.771L271.605,199.782L272.995,199.793L274.384,199.803L275.774,199.813L277.164,199.822L278.554,199.831L279.944,199.839L281.334,199.847L282.724,199.855L284.114,199.862L285.504,199.869L286.894,199.875L288.284,199.882L289.674,199.887" stroke="#4E79A5" stroke-width="1.5"/></g></g><path class="foreground" aria-hidden="true" d="" display="none"/></g><g transform="translate(0,0)"><path class="background" aria-hidden="true" d="M0,0h300v200h-300Z"/><g><g class="mark-line role-mark layer_0_marks" role="graphics-object" aria-roledescription="line mark container"><path aria-label="Sera Dilution: 2e-6; Fraction Infectivity: 0.926351732163; Virus: N306V" role="graphics-symbol" aria-roledescription="line mark" d="M13.074,14.73L14.464,15.451L15.853,16.205L17.243,16.992L18.633,17.813L20.023,18.67L21.413,19.564L22.803,20.496L24.193,21.467L25.583,22.478L26.973,23.531L28.363,24.626L29.753,25.765L31.143,26.948L32.533,28.176L33.923,29.452L35.313,30.774L36.124,31.568L36.703,32.145L38.093,33.565L39.483,35.034L40.873,36.553L42.263,38.124L43.653,39.745L45.042,41.417L46.432,43.141L47.822,44.917L49.212,46.743L50.602,48.621L51.992,50.549L53.382,52.528L54.772,54.555L56.162,56.631L57.552,58.753L58.942,60.921L60,62.602L60.332,63.134L61.722,65.389L63.112,67.685L64.502,70.02L65.892,72.391L67.282,74.796L68.672,77.233L70.062,79.698L71.452,82.19L72.841,84.704L74.231,87.239L75.621,89.79L77.011,92.355L78.401,94.93L79.791,97.512L81.181,100.097L82.571,102.682L83.961,105.263L85.351,107.838L86.741,110.402L88.131,112.952L89.521,115.485L90.911,117.998L92.301,120.488L93.691,122.951L95.081,125.386L96.124,127.192L96.471,127.788L97.861,130.157L99.251,132.489L100.641,134.781L102.03,137.034L103.42,139.243L104.81,141.408L106.2,143.527L107.59,145.599L108.98,147.623L110.37,149.597L111.76,151.522L113.15,153.395L114.54,155.218L115.93,156.99L117.32,158.71L118.71,160.379L120.1,161.996L121.49,163.562L122.484,164.651L122.88,165.078L124.27,166.544L125.66,167.96L127.05,169.327L128.44,170.646L129.83,171.917L131.219,173.143L132.609,174.322L133.999,175.458L135.389,176.55L136.779,177.599L138.169,178.607L139.559,179.575L140.949,180.504L142.339,181.395L143.729,182.25L145.119,183.069L146.509,183.853L147.899,184.604L149.289,185.323L150.679,186.011L151.889,186.586L152.069,186.669L153.459,187.298L154.849,187.9L156.239,188.474L157.629,189.023L159.019,189.548L160.408,190.048L161.798,190.526L163.188,190.982L164.578,191.417L165.968,191.832L167.358,192.228L168.748,192.605L170.138,192.964L171.528,193.307L172.918,193.634L174.308,193.945L175.698,194.241L177.088,194.523L178.478,194.792L179.868,195.048L180.77,195.208L181.258,195.292L182.648,195.524L184.038,195.745L185.428,195.955L186.818,196.155L188.207,196.345L189.597,196.526L190.987,196.698L192.377,196.862L193.767,197.018L195.157,197.166L196.547,197.307L197.937,197.441L199.327,197.568L200.717,197.689L202.107,197.805L203.497,197.914L204.887,198.018L206.277,198.117L207.667,198.211L209.057,198.301L209.398,198.322L210.447,198.385L211.837,198.466L213.227,198.543L214.617,198.616L216.007,198.685L217.396,198.751L218.786,198.814L220.176,198.873L221.566,198.93L222.956,198.983L224.346,199.034L225.736,199.083L227.126,199.129L228.516,199.172L229.906,199.214L231.296,199.253L232.686,199.291L234.076,199.327L235.466,199.36L236.856,199.393L237.997,199.418L238.246,199.423L239.636,199.452L241.026,199.48L242.416,199.506L243.806,199.531L245.196,199.554L246.585,199.577L247.975,199.598L249.365,199.618L250.755,199.637L252.145,199.656L253.535,199.673L254.925,199.689L256.315,199.705L257.705,199.72L259.095,199.734L260.485,199.747L261.875,199.76L263.265,199.772L264.655,199.784L266.045,199.795L266.624,199.799L267.435,199.805L268.825,199.815L270.215,199.824L271.605,199.833L272.995,199.841L274.384,199.849L275.774,199.857L277.164,199.864L278.554,199.871L279.944,199.877L281.334,199.884L282.724,199.889L284.114,199.895L285.504,199.9L286.894,199.905L288.284,199.91L289.674,199.915" stroke="#F18F3B" stroke-width="1.5"/></g></g><path class="foreground" aria-hidden="true" d="" display="none"/></g><g transform="translate(0,0)"><path class="background" aria-hidden="true" d="M0,0h300v200h-300Z"/><g><g class="mark-line role-mark layer_0_marks" role="graphics-object" aria-roledescription="line mark container"><path aria-label="Sera Dilution: 2e-6; Fraction Infectivity: 0.895892858304; Virus: P403K" role="graphics-symbol" aria-roledescription="line mark" d="M13.074,20.821L14.464,21.509L15.853,22.217L17.243,22.946L18.633,23.695L20.023,24.465L21.413,25.256L22.803,26.069L24.193,26.905L25.583,27.763L26.973,28.643L28.363,29.547L29.753,30.475L31.143,31.426L32.533,32.401L33.923,33.4L35.313,34.424L36.124,35.033L36.703,35.473L38.093,36.546L39.483,37.644L40.873,38.768L42.263,39.917L43.653,41.091L45.042,42.291L46.432,43.516L47.822,44.767L49.212,46.043L50.602,47.344L51.992,48.671L53.382,50.022L54.772,51.398L56.162,52.799L57.552,54.224L58.942,55.673L60,56.791L60.332,57.145L61.722,58.641L63.112,60.159L64.502,61.699L65.892,63.261L67.282,64.844L68.672,66.447L70.062,68.07L71.452,69.712L72.841,71.372L74.231,73.05L75.621,74.744L77.011,76.453L78.401,78.178L79.791,79.916L81.181,81.666L82.571,83.429L83.961,85.202L85.351,86.985L86.741,88.776L88.131,90.574L89.521,92.379L90.911,94.188L92.301,96.002L93.691,97.818L95.081,99.636L96.124,100.999L96.471,101.453L97.861,103.27L99.251,105.085L100.641,106.896L102.03,108.703L103.42,110.504L104.81,112.298L106.2,114.084L107.59,115.861L108.98,117.628L110.37,119.384L111.76,121.127L113.15,122.857L114.54,124.573L115.93,126.273L117.32,127.957L118.71,129.624L120.1,131.274L121.49,132.904L122.484,134.058L122.88,134.516L124.27,136.107L125.66,137.677L127.05,139.226L128.44,140.753L129.83,142.258L131.219,143.74L132.609,145.198L133.999,146.633L135.389,148.043L136.779,149.429L138.169,150.79L139.559,152.127L140.949,153.438L142.339,154.724L143.729,155.985L145.119,157.221L146.509,158.431L147.899,159.615L149.289,160.774L150.679,161.908L151.889,162.874L152.069,163.017L153.459,164.1L154.849,165.159L156.239,166.192L157.629,167.201L159.019,168.186L160.408,169.147L161.798,170.084L163.188,170.997L164.578,171.887L165.968,172.754L167.358,173.598L168.748,174.42L170.138,175.221L171.528,175.999L172.918,176.757L174.308,177.493L175.698,178.209L177.088,178.905L178.478,179.581L179.868,180.238L180.77,180.655L181.258,180.876L182.648,181.496L184.038,182.098L185.428,182.681L186.818,183.248L188.207,183.798L189.597,184.331L190.987,184.848L192.377,185.349L193.767,185.835L195.157,186.307L196.547,186.763L197.937,187.205L199.327,187.634L200.717,188.049L202.107,188.451L203.497,188.841L204.887,189.218L206.277,189.582L207.667,189.936L209.057,190.278L209.398,190.36L210.447,190.608L211.837,190.929L213.227,191.238L214.617,191.538L216.007,191.828L217.396,192.108L218.786,192.379L220.176,192.641L221.566,192.894L222.956,193.139L224.346,193.376L225.736,193.605L227.126,193.827L228.516,194.04L229.906,194.247L231.296,194.447L232.686,194.64L234.076,194.826L235.466,195.006L236.856,195.18L237.997,195.319L238.246,195.348L239.636,195.511L241.026,195.668L242.416,195.819L243.806,195.965L245.196,196.107L246.585,196.243L247.975,196.375L249.365,196.502L250.755,196.625L252.145,196.743L253.535,196.858L254.925,196.968L256.315,197.075L257.705,197.178L259.095,197.277L260.485,197.373L261.875,197.466L263.265,197.555L264.655,197.641L266.045,197.725L266.624,197.758L267.435,197.805L268.825,197.883L270.215,197.957L271.605,198.03L272.995,198.099L274.384,198.166L275.774,198.231L277.164,198.294L278.554,198.354L279.944,198.413L281.334,198.469L282.724,198.523L284.114,198.576L285.504,198.626L286.894,198.675L288.284,198.722L289.674,198.767" stroke="#77B7B2" stroke-width="1.5"/></g></g><path class="foreground" aria-hidden="true" d="" display="none"/></g></g><g class="mark-symbol role-mark layer_1_marks" role="graphics-object" aria-roledescription="symbol mark container"><path aria-label="Sera Dilution: 4e-6; Fraction Infectivity: 0.744103157; Virus: WT" role="graphics-symbol" aria-roledescription="circle" transform="translate(36.12359947967774,51.17936859999999)" d="M2.739,0A2.739,2.739,0,1,1,-2.739,0A2.739,2.739,0,1,1,2.739,0" fill="black" stroke-width="2" opacity="1"/><path aria-label="Sera Dilution: 1e-5; Fraction Infectivity: 0.695141322; Virus: WT" role="graphics-symbol" aria-roledescription="circle" transform="translate(59.99999999999998,60.9717356)" d="M2.739,0A2.739,2.739,0,1,1,-2.739,0A2.739,2.739,0,1,1,2.739,0" fill="black" stroke-width="2" opacity="1"/><path aria-label="Sera Dilution: 4e-5; Fraction Infectivity: 0.5923839835; Virus: WT" role="graphics-symbol" aria-roledescription="circle" transform="translate(96.12359947967772,81.5232033)" d="M2.739,0A2.739,2.739,0,1,1,-2.739,0A2.739,2.739,0,1,1,2.739,0" fill="black" stroke-width="2" opacity="1"/><path aria-label="Sera Dilution: 1e-4; Fraction Infectivity: 0.392748805; Virus: WT" role="graphics-symbol" aria-roledescription="circle" transform="translate(122.4835611094935,121.45023900000001)" d="M2.739,0A2.739,2.739,0,1,1,-2.739,0A2.739,2.739,0,1,1,2.739,0" fill="black" stroke-width="2" opacity="1"/><path aria-label="Sera Dilution: 3e-4; Fraction Infectivity: 0.1046683065; Virus: WT" role="graphics-symbol" aria-roledescription="circle" transform="translate(151.8887350225353,179.0663387)" d="M2.739,0A2.739,2.739,0,1,1,-2.739,0A2.739,2.739,0,1,1,2.739,0" fill="black" stroke-width="2" opacity="1"/><path aria-label="Sera Dilution: 1e-3; Fraction Infectivity: 0.000285965; Virus: WT" role="graphics-symbol" aria-roledescription="circle" transform="translate(180.77023348231032,199.942807)" d="M2.739,0A2.739,2.739,0,1,1,-2.739,0A2.739,2.739,0,1,1,2.739,0" fill="black" stroke-width="2" opacity="1"/><path aria-label="Sera Dilution: 3e-3; Fraction Infectivity: 0.000126354; Virus: WT" role="graphics-symbol" aria-roledescription="circle" transform="translate(209.39750876549004,199.97472919999998)" d="M2.739,0A2.739,2.739,0,1,1,-2.739,0A2.739,2.739,0,1,1,2.739,0" fill="black" stroke-width="2" opacity="1"/><path aria-label="Sera Dilution: 9e-3; Fraction Infectivity: 0.00010821845; Virus: WT" role="graphics-symbol" aria-roledescription="circle" transform="translate(237.996659200916,199.97835631)" d="M2.739,0A2.739,2.739,0,1,1,-2.739,0A2.739,2.739,0,1,1,2.739,0" fill="black" stroke-width="2" opacity="1"/><path aria-label="Sera Dilution: 3e-2; Fraction Infectivity: 0.00006710325; Virus: WT" role="graphics-symbol" aria-roledescription="circle" transform="translate(266.6239344840958,199.98657935)" d="M2.739,0A2.739,2.739,0,1,1,-2.739,0A2.739,2.739,0,1,1,2.739,0" fill="black" stroke-width="2" opacity="1"/><path aria-label="Sera Dilution: 4e-6; Fraction Infectivity: 0.806910531; Virus: N529H" role="graphics-symbol" aria-roledescription="circle" transform="translate(36.12359947967774,38.617893800000004)" d="M2.739,0A2.739,2.739,0,1,1,-2.739,0A2.739,2.739,0,1,1,2.739,0" fill="#5AA155" stroke-width="2" opacity="1"/><path aria-label="Sera Dilution: 1e-5; Fraction Infectivity: 0.7443460605; Virus: N529H" role="graphics-symbol" aria-roledescription="circle" transform="translate(59.99999999999998,51.13078790000001)" d="M2.739,0A2.739,2.739,0,1,1,-2.739,0A2.739,2.739,0,1,1,2.739,0" fill="#5AA155" stroke-width="2" opacity="1"/><path aria-label="Sera Dilution: 4e-5; Fraction Infectivity: 0.5497839035; Virus: N529H" role="graphics-symbol" aria-roledescription="circle" transform="translate(96.12359947967772,90.04321929999999)" d="M2.739,0A2.739,2.739,0,1,1,-2.739,0A2.739,2.739,0,1,1,2.739,0" fill="#5AA155" stroke-width="2" opacity="1"/><path aria-label="Sera Dilution: 1e-4; Fraction Infectivity: 0.325725986; Virus: N529H" role="graphics-symbol" aria-roledescription="circle" transform="translate(122.4835611094935,134.8548028)" d="M2.739,0A2.739,2.739,0,1,1,-2.739,0A2.739,2.739,0,1,1,2.739,0" fill="#5AA155" stroke-width="2" opacity="1"/><path aria-label="Sera Dilution: 3e-4; Fraction Infectivity: 0.055985674; Virus: N529H" role="graphics-symbol" aria-roledescription="circle" transform="translate(151.8887350225353,188.8028652)" d="M2.739,0A2.739,2.739,0,1,1,-2.739,0A2.739,2.739,0,1,1,2.739,0" fill="#5AA155" stroke-width="2" opacity="1"/><path aria-label="Sera Dilution: 1e-3; Fraction Infectivity: 0.000440291; Virus: N529H" role="graphics-symbol" aria-roledescription="circle" transform="translate(180.77023348231032,199.9119418)" d="M2.739,0A2.739,2.739,0,1,1,-2.739,0A2.739,2.739,0,1,1,2.739,0" fill="#5AA155" stroke-width="2" opacity="1"/><path aria-label="Sera Dilution: 3e-3; Fraction Infectivity: 0.000169291; Virus: N529H" role="graphics-symbol" aria-roledescription="circle" transform="translate(209.39750876549004,199.9661418)" d="M2.739,0A2.739,2.739,0,1,1,-2.739,0A2.739,2.739,0,1,1,2.739,0" fill="#5AA155" stroke-width="2" opacity="1"/><path aria-label="Sera Dilution: 9e-3; Fraction Infectivity: 0.000159318; Virus: N529H" role="graphics-symbol" aria-roledescription="circle" transform="translate(237.996659200916,199.9681364)" d="M2.739,0A2.739,2.739,0,1,1,-2.739,0A2.739,2.739,0,1,1,2.739,0" fill="#5AA155" stroke-width="2" opacity="1"/><path aria-label="Sera Dilution: 3e-2; Fraction Infectivity: 0.000110225; Virus: N529H" role="graphics-symbol" aria-roledescription="circle" transform="translate(266.6239344840958,199.977955)" d="M2.739,0A2.739,2.739,0,1,1,-2.739,0A2.739,2.739,0,1,1,2.739,0" fill="#5AA155" stroke-width="2" opacity="1"/><path aria-label="Sera Dilution: 4e-6; Fraction Infectivity: 0.8547441815; Virus: E393W" role="graphics-symbol" aria-roledescription="circle" transform="translate(36.12359947967774,29.051163699999982)" d="M2.739,0A2.739,2.739,0,1,1,-2.739,0A2.739,2.739,0,1,1,2.739,0" fill="#E0585B" stroke-width="2" opacity="1"/><path aria-label="Sera Dilution: 1e-5; Fraction Infectivity: 0.6856608445; Virus: E393W" role="graphics-symbol" aria-roledescription="circle" transform="translate(59.99999999999998,62.867831100000004)" d="M2.739,0A2.739,2.739,0,1,1,-2.739,0A2.739,2.739,0,1,1,2.739,0" fill="#E0585B" stroke-width="2" opacity="1"/><path aria-label="Sera Dilution: 4e-5; Fraction Infectivity: 0.5516091795; Virus: E393W" role="graphics-symbol" aria-roledescription="circle" transform="translate(96.12359947967772,89.6781641)" d="M2.739,0A2.739,2.739,0,1,1,-2.739,0A2.739,2.739,0,1,1,2.739,0" fill="#E0585B" stroke-width="2" opacity="1"/><path aria-label="Sera Dilution: 1e-4; Fraction Infectivity: 0.2760355255; Virus: E393W" role="graphics-symbol" aria-roledescription="circle" transform="translate(122.4835611094935,144.7928949)" d="M2.739,0A2.739,2.739,0,1,1,-2.739,0A2.739,2.739,0,1,1,2.739,0" fill="#E0585B" stroke-width="2" opacity="1"/><path aria-label="Sera Dilution: 3e-4; Fraction Infectivity: 0.046574497; Virus: E393W" role="graphics-symbol" aria-roledescription="circle" transform="translate(151.8887350225353,190.6851006)" d="M2.739,0A2.739,2.739,0,1,1,-2.739,0A2.739,2.739,0,1,1,2.739,0" fill="#E0585B" stroke-width="2" opacity="1"/><path aria-label="Sera Dilution: 1e-3; Fraction Infectivity: 0.0009226155; Virus: E393W" role="graphics-symbol" aria-roledescription="circle" transform="translate(180.77023348231032,199.81547690000002)" d="M2.739,0A2.739,2.739,0,1,1,-2.739,0A2.739,2.739,0,1,1,2.739,0" fill="#E0585B" stroke-width="2" opacity="1"/><path aria-label="Sera Dilution: 3e-3; Fraction Infectivity: 0.0001203748; Virus: E393W" role="graphics-symbol" aria-roledescription="circle" transform="translate(209.39750876549004,199.97592504)" d="M2.739,0A2.739,2.739,0,1,1,-2.739,0A2.739,2.739,0,1,1,2.739,0" fill="#E0585B" stroke-width="2" opacity="1"/><path aria-label="Sera Dilution: 9e-3; Fraction Infectivity: 0.0000893412; Virus: E393W" role="graphics-symbol" aria-roledescription="circle" transform="translate(237.996659200916,199.98213176)" d="M2.739,0A2.739,2.739,0,1,1,-2.739,0A2.739,2.739,0,1,1,2.739,0" fill="#E0585B" stroke-width="2" opacity="1"/><path aria-label="Sera Dilution: 3e-2; Fraction Infectivity: 0.0000696298; Virus: E393W" role="graphics-symbol" aria-roledescription="circle" transform="translate(266.6239344840958,199.98607404)" d="M2.739,0A2.739,2.739,0,1,1,-2.739,0A2.739,2.739,0,1,1,2.739,0" fill="#E0585B" stroke-width="2" opacity="1"/><path aria-label="Sera Dilution: 4e-6; Fraction Infectivity: 0.8170844795; Virus: L184E/P403K" role="graphics-symbol" aria-roledescription="circle" transform="translate(36.12359947967774,36.583104099999986)" d="M2.739,0A2.739,2.739,0,1,1,-2.739,0A2.739,2.739,0,1,1,2.739,0" fill="#4E79A5" stroke-width="2" opacity="1"/><path aria-label="Sera Dilution: 1e-5; Fraction Infectivity: 0.7069688255; Virus: L184E/P403K" role="graphics-symbol" aria-roledescription="circle" transform="translate(59.99999999999998,58.60623490000001)" d="M2.739,0A2.739,2.739,0,1,1,-2.739,0A2.739,2.739,0,1,1,2.739,0" fill="#4E79A5" stroke-width="2" opacity="1"/><path aria-label="Sera Dilution: 4e-5; Fraction Infectivity: 0.4637937945; Virus: L184E/P403K" role="graphics-symbol" aria-roledescription="circle" transform="translate(96.12359947967772,107.2412411)" d="M2.739,0A2.739,2.739,0,1,1,-2.739,0A2.739,2.739,0,1,1,2.739,0" fill="#4E79A5" stroke-width="2" opacity="1"/><path aria-label="Sera Dilution: 1e-4; Fraction Infectivity: 0.1876671165; Virus: L184E/P403K" role="graphics-symbol" aria-roledescription="circle" transform="translate(122.4835611094935,162.4665767)" d="M2.739,0A2.739,2.739,0,1,1,-2.739,0A2.739,2.739,0,1,1,2.739,0" fill="#4E79A5" stroke-width="2" opacity="1"/><path aria-label="Sera Dilution: 3e-4; Fraction Infectivity: 0.025985197; Virus: L184E/P403K" role="graphics-symbol" aria-roledescription="circle" transform="translate(151.8887350225353,194.8029606)" d="M2.739,0A2.739,2.739,0,1,1,-2.739,0A2.739,2.739,0,1,1,2.739,0" fill="#4E79A5" stroke-width="2" opacity="1"/><path aria-label="Sera Dilution: 1e-3; Fraction Infectivity: 0.003125654; Virus: L184E/P403K" role="graphics-symbol" aria-roledescription="circle" transform="translate(180.77023348231032,199.3748692)" d="M2.739,0A2.739,2.739,0,1,1,-2.739,0A2.739,2.739,0,1,1,2.739,0" fill="#4E79A5" stroke-width="2" opacity="1"/><path aria-label="Sera Dilution: 3e-3; Fraction Infectivity: 0.00011446485; Virus: L184E/P403K" role="graphics-symbol" aria-roledescription="circle" transform="translate(209.39750876549004,199.97710703)" d="M2.739,0A2.739,2.739,0,1,1,-2.739,0A2.739,2.739,0,1,1,2.739,0" fill="#4E79A5" stroke-width="2" opacity="1"/><path aria-label="Sera Dilution: 9e-3; Fraction Infectivity: 0.0000881053; Virus: L184E/P403K" role="graphics-symbol" aria-roledescription="circle" transform="translate(237.996659200916,199.98237894)" d="M2.739,0A2.739,2.739,0,1,1,-2.739,0A2.739,2.739,0,1,1,2.739,0" fill="#4E79A5" stroke-width="2" opacity="1"/><path aria-label="Sera Dilution: 3e-2; Fraction Infectivity: 0.00010517945; Virus: L184E/P403K" role="graphics-symbol" aria-roledescription="circle" transform="translate(266.6239344840958,199.97896411)" d="M2.739,0A2.739,2.739,0,1,1,-2.739,0A2.739,2.739,0,1,1,2.739,0" fill="#4E79A5" stroke-width="2" opacity="1"/><path aria-label="Sera Dilution: 4e-6; Fraction Infectivity: 0.816739752; Virus: N306V" role="graphics-symbol" aria-roledescription="circle" transform="translate(36.12359947967774,36.65204959999999)" d="M2.739,0A2.739,2.739,0,1,1,-2.739,0A2.739,2.739,0,1,1,2.739,0" fill="#F18F3B" stroke-width="2" opacity="1"/><path aria-label="Sera Dilution: 1e-5; Fraction Infectivity: 0.6550457505; Virus: N306V" role="graphics-symbol" aria-roledescription="circle" transform="translate(59.99999999999998,68.9908499)" d="M2.739,0A2.739,2.739,0,1,1,-2.739,0A2.739,2.739,0,1,1,2.739,0" fill="#F18F3B" stroke-width="2" opacity="1"/><path aria-label="Sera Dilution: 4e-5; Fraction Infectivity: 0.4578170905; Virus: N306V" role="graphics-symbol" aria-roledescription="circle" transform="translate(96.12359947967772,108.43658189999998)" d="M2.739,0A2.739,2.739,0,1,1,-2.739,0A2.739,2.739,0,1,1,2.739,0" fill="#F18F3B" stroke-width="2" opacity="1"/><path aria-label="Sera Dilution: 1e-4; Fraction Infectivity: 0.127942413; Virus: N306V" role="graphics-symbol" aria-roledescription="circle" transform="translate(122.4835611094935,174.4115174)" d="M2.739,0A2.739,2.739,0,1,1,-2.739,0A2.739,2.739,0,1,1,2.739,0" fill="#F18F3B" stroke-width="2" opacity="1"/><path aria-label="Sera Dilution: 3e-4; Fraction Infectivity: 0.0073380845; Virus: N306V" role="graphics-symbol" aria-roledescription="circle" transform="translate(151.8887350225353,198.5323831)" d="M2.739,0A2.739,2.739,0,1,1,-2.739,0A2.739,2.739,0,1,1,2.739,0" fill="#F18F3B" stroke-width="2" opacity="1"/><path aria-label="Sera Dilution: 1e-3; Fraction Infectivity: 0.0006759425; Virus: N306V" role="graphics-symbol" aria-roledescription="circle" transform="translate(180.77023348231032,199.8648115)" d="M2.739,0A2.739,2.739,0,1,1,-2.739,0A2.739,2.739,0,1,1,2.739,0" fill="#F18F3B" stroke-width="2" opacity="1"/><path aria-label="Sera Dilution: 3e-3; Fraction Infectivity: 0.0000875044; Virus: N306V" role="graphics-symbol" aria-roledescription="circle" transform="translate(209.39750876549004,199.98249912)" d="M2.739,0A2.739,2.739,0,1,1,-2.739,0A2.739,2.739,0,1,1,2.739,0" fill="#F18F3B" stroke-width="2" opacity="1"/><path aria-label="Sera Dilution: 9e-3; Fraction Infectivity: 0.0000371452; Virus: N306V" role="graphics-symbol" aria-roledescription="circle" transform="translate(237.996659200916,199.99257096)" d="M2.739,0A2.739,2.739,0,1,1,-2.739,0A2.739,2.739,0,1,1,2.739,0" fill="#F18F3B" stroke-width="2" opacity="1"/><path aria-label="Sera Dilution: 3e-2; Fraction Infectivity: 0.0000568145; Virus: N306V" role="graphics-symbol" aria-roledescription="circle" transform="translate(266.6239344840958,199.9886371)" d="M2.739,0A2.739,2.739,0,1,1,-2.739,0A2.739,2.739,0,1,1,2.739,0" fill="#F18F3B" stroke-width="2" opacity="1"/><path aria-label="Sera Dilution: 4e-6; Fraction Infectivity: 0.787626309; Virus: P403K" role="graphics-symbol" aria-roledescription="circle" transform="translate(36.12359947967774,42.474738200000004)" d="M2.739,0A2.739,2.739,0,1,1,-2.739,0A2.739,2.739,0,1,1,2.739,0" fill="#77B7B2" stroke-width="2" opacity="1"/><path aria-label="Sera Dilution: 1e-5; Fraction Infectivity: 0.6206277055; Virus: P403K" role="graphics-symbol" aria-roledescription="circle" transform="translate(59.99999999999998,75.8744589)" d="M2.739,0A2.739,2.739,0,1,1,-2.739,0A2.739,2.739,0,1,1,2.739,0" fill="#77B7B2" stroke-width="2" opacity="1"/><path aria-label="Sera Dilution: 4e-5; Fraction Infectivity: 0.596919477; Virus: P403K" role="graphics-symbol" aria-roledescription="circle" transform="translate(96.12359947967772,80.61610460000001)" d="M2.739,0A2.739,2.739,0,1,1,-2.739,0A2.739,2.739,0,1,1,2.739,0" fill="#77B7B2" stroke-width="2" opacity="1"/><path aria-label="Sera Dilution: 1e-4; Fraction Infectivity: 0.416262625; Virus: P403K" role="graphics-symbol" aria-roledescription="circle" transform="translate(122.4835611094935,116.747475)" d="M2.739,0A2.739,2.739,0,1,1,-2.739,0A2.739,2.739,0,1,1,2.739,0" fill="#77B7B2" stroke-width="2" opacity="1"/><path aria-label="Sera Dilution: 3e-4; Fraction Infectivity: 0.1271745155; Virus: P403K" role="graphics-symbol" aria-roledescription="circle" transform="translate(151.8887350225353,174.5650969)" d="M2.739,0A2.739,2.739,0,1,1,-2.739,0A2.739,2.739,0,1,1,2.739,0" fill="#77B7B2" stroke-width="2" opacity="1"/><path aria-label="Sera Dilution: 1e-3; Fraction Infectivity: 0.003724396; Virus: P403K" role="graphics-symbol" aria-roledescription="circle" transform="translate(180.77023348231032,199.25512080000001)" d="M2.739,0A2.739,2.739,0,1,1,-2.739,0A2.739,2.739,0,1,1,2.739,0" fill="#77B7B2" stroke-width="2" opacity="1"/><path aria-label="Sera Dilution: 3e-3; Fraction Infectivity: 0.0000629531; Virus: P403K" role="graphics-symbol" aria-roledescription="circle" transform="translate(209.39750876549004,199.98740938)" d="M2.739,0A2.739,2.739,0,1,1,-2.739,0A2.739,2.739,0,1,1,2.739,0" fill="#77B7B2" stroke-width="2" opacity="1"/><path aria-label="Sera Dilution: 9e-3; Fraction Infectivity: 0.00004968705; Virus: P403K" role="graphics-symbol" aria-roledescription="circle" transform="translate(237.996659200916,199.99006259)" d="M2.739,0A2.739,2.739,0,1,1,-2.739,0A2.739,2.739,0,1,1,2.739,0" fill="#77B7B2" stroke-width="2" opacity="1"/><path aria-label="Sera Dilution: 3e-2; Fraction Infectivity: 0.0000458166; Virus: P403K" role="graphics-symbol" aria-roledescription="circle" transform="translate(266.6239344840958,199.99083668)" d="M2.739,0A2.739,2.739,0,1,1,-2.739,0A2.739,2.739,0,1,1,2.739,0" fill="#77B7B2" stroke-width="2" opacity="1"/></g><g class="mark-rule role-mark layer_2_marks" role="graphics-object" aria-roledescription="rule mark container"><line aria-label="concentration: 0.000004; Fraction Infectivity: 0.70440678; upper_lower: 0.783799534; Virus: WT; upper: 0.783799534; lower: 0.70440678" role="graphics-symbol" aria-roledescription="errorbar" transform="translate(36.12359947967774,59.118643999999975)" x2="0" y2="-15.878550799999978" stroke="black" opacity="1"/><line aria-label="concentration: 0.00001; Fraction Infectivity: 0.63620339; upper_lower: 0.754079254; Virus: WT; upper: 0.754079254; lower: 0.63620339" role="graphics-symbol" aria-roledescription="errorbar" transform="translate(59.99999999999998,72.759322)" x2="0" y2="-23.57517279999999" stroke="black" opacity="1"/><line aria-label="concentration: 0.00004; Fraction Infectivity: 0.569966102; upper_lower: 0.614801865; Virus: WT; upper: 0.614801865; lower: 0.569966102" role="graphics-symbol" aria-roledescription="errorbar" transform="translate(96.12359947967772,86.0067796)" x2="0" y2="-8.967152600000006" stroke="black" opacity="1"/><line aria-label="concentration: 0.00011; Fraction Infectivity: 0.386779661; upper_lower: 0.398717949; Virus: WT; upper: 0.398717949; lower: 0.386779661" role="graphics-symbol" aria-roledescription="errorbar" transform="translate(122.4835611094935,122.64406780000002)" x2="0" y2="-2.3876576000000256" stroke="black" opacity="1"/><line aria-label="concentration: 0.00034; Fraction Infectivity: 0.095525424; upper_lower: 0.113811189; Virus: WT; upper: 0.113811189; lower: 0.095525424" role="graphics-symbol" aria-roledescription="errorbar" transform="translate(151.8887350225353,180.8949152)" x2="0" y2="-3.6571530000000223" stroke="black" opacity="1"/><line aria-label="concentration: 0.00103; Fraction Infectivity: 0.000276475; upper_lower: 0.000295455; Virus: WT; upper: 0.000295455; lower: 0.000276475" role="graphics-symbol" aria-roledescription="errorbar" transform="translate(180.77023348231032,199.944705)" x2="0" y2="-0.003796000000022559" stroke="black" opacity="1"/><line aria-label="concentration: 0.00309; Fraction Infectivity: 0.000107284; upper_lower: 0.000145424; Virus: WT; upper: 0.000145424; lower: 0.000107284" role="graphics-symbol" aria-roledescription="errorbar" transform="translate(209.39750876549004,199.9785432)" x2="0" y2="-0.007627999999982649" stroke="black" opacity="1"/><line aria-label="concentration: 0.00926; Fraction Infectivity: 0.0000315559; upper_lower: 0.000184881; Virus: WT; upper: 0.000184881; lower: 0.0000315559" role="graphics-symbol" aria-roledescription="errorbar" transform="translate(237.996659200916,199.99368882)" x2="0" y2="-0.030665019999986498" stroke="black" opacity="1"/><line aria-label="concentration: 0.02778; Fraction Infectivity: 0.0000649184; upper_lower: 0.0000692881; Virus: WT; upper: 0.0000692881; lower: 0.0000649184" role="graphics-symbol" aria-roledescription="errorbar" transform="translate(266.6239344840958,199.98701632)" x2="0" y2="-0.0008739399999910802" stroke="black" opacity="1"/><line aria-label="concentration: 0.000004; Fraction Infectivity: 0.76174559; upper_lower: 0.852075472; Virus: N529H; upper: 0.852075472; lower: 0.76174559" role="graphics-symbol" aria-roledescription="errorbar" transform="translate(36.12359947967774,47.650882)" x2="0" y2="-18.065976400000004" stroke="#5AA155" opacity="1"/><line aria-label="concentration: 0.00001; Fraction Infectivity: 0.693314763; upper_lower: 0.795377358; Virus: N529H; upper: 0.795377358; lower: 0.693314763" role="graphics-symbol" aria-roledescription="errorbar" transform="translate(59.99999999999998,61.33704740000001)" x2="0" y2="-20.412519000000003" stroke="#5AA155" opacity="1"/><line aria-label="concentration: 0.00004; Fraction Infectivity: 0.543207547; upper_lower: 0.55636026; Virus: N529H; upper: 0.55636026; lower: 0.543207547" role="graphics-symbol" aria-roledescription="errorbar" transform="translate(96.12359947967772,91.35849059999998)" x2="0" y2="-2.6305425999999983" stroke="#5AA155" opacity="1"/><line aria-label="concentration: 0.00011; Fraction Infectivity: 0.324339623; upper_lower: 0.327112349; Virus: N529H; upper: 0.327112349; lower: 0.324339623" role="graphics-symbol" aria-roledescription="errorbar" transform="translate(122.4835611094935,135.13207540000002)" x2="0" y2="-0.5545452000000353" stroke="#5AA155" opacity="1"/><line aria-label="concentration: 0.00034; Fraction Infectivity: 0.042537736; upper_lower: 0.069433612; Virus: N529H; upper: 0.069433612; lower: 0.042537736" role="graphics-symbol" aria-roledescription="errorbar" transform="translate(151.8887350225353,191.4924528)" x2="0" y2="-5.379175199999992" stroke="#5AA155" opacity="1"/><line aria-label="concentration: 0.00103; Fraction Infectivity: 0.000387453; upper_lower: 0.000493129; Virus: N529H; upper: 0.000493129; lower: 0.000387453" role="graphics-symbol" aria-roledescription="errorbar" transform="translate(180.77023348231032,199.9225094)" x2="0" y2="-0.02113520000000335" stroke="#5AA155" opacity="1"/><line aria-label="concentration: 0.00309; Fraction Infectivity: 0.000164903; upper_lower: 0.000173679; Virus: N529H; upper: 0.000173679; lower: 0.000164903" role="graphics-symbol" aria-roledescription="errorbar" transform="translate(209.39750876549004,199.9670194)" x2="0" y2="-0.001755199999990964" stroke="#5AA155" opacity="1"/><line aria-label="concentration: 0.00926; Fraction Infectivity: 0.000127642; upper_lower: 0.000190994; Virus: N529H; upper: 0.000190994; lower: 0.000127642" role="graphics-symbol" aria-roledescription="errorbar" transform="translate(237.996659200916,199.9744716)" x2="0" y2="-0.012670399999990423" stroke="#5AA155" opacity="1"/><line aria-label="concentration: 0.02778; Fraction Infectivity: 0.000101393; upper_lower: 0.000119057; Virus: N529H; upper: 0.000119057; lower: 0.000101393" role="graphics-symbol" aria-roledescription="errorbar" transform="translate(266.6239344840958,199.9797214)" x2="0" y2="-0.003532799999987901" stroke="#5AA155" opacity="1"/><line aria-label="concentration: 0.000004; Fraction Infectivity: 0.82528626; upper_lower: 0.884202103; Virus: E393W; upper: 0.884202103; lower: 0.82528626" role="graphics-symbol" aria-roledescription="errorbar" transform="translate(36.12359947967774,34.94274799999999)" x2="0" y2="-11.783168600000014" stroke="#E0585B" opacity="1"/><line aria-label="concentration: 0.00001; Fraction Infectivity: 0.622085048; upper_lower: 0.749236641; Virus: E393W; upper: 0.749236641; lower: 0.622085048" role="graphics-symbol" aria-roledescription="errorbar" transform="translate(59.99999999999998,75.5829904)" x2="0" y2="-25.430318599999993" stroke="#E0585B" opacity="1"/><line aria-label="concentration: 0.00004; Fraction Infectivity: 0.515432099; upper_lower: 0.58778626; Virus: E393W; upper: 0.58778626; lower: 0.515432099" role="graphics-symbol" aria-roledescription="errorbar" transform="translate(96.12359947967772,96.9135802)" x2="0" y2="-14.470832200000004" stroke="#E0585B" opacity="1"/><line aria-label="concentration: 0.00011; Fraction Infectivity: 0.244055784; upper_lower: 0.308015267; Virus: E393W; upper: 0.308015267; lower: 0.244055784" role="graphics-symbol" aria-roledescription="errorbar" transform="translate(122.4835611094935,151.1888432)" x2="0" y2="-12.79189660000003" stroke="#E0585B" opacity="1"/><line aria-label="concentration: 0.00034; Fraction Infectivity: 0.034141221; upper_lower: 0.059007773; Virus: E393W; upper: 0.059007773; lower: 0.034141221" role="graphics-symbol" aria-roledescription="errorbar" transform="translate(151.8887350225353,193.1717558)" x2="0" y2="-4.973310400000003" stroke="#E0585B" opacity="1"/><line aria-label="concentration: 0.00103; Fraction Infectivity: 0.000658208; upper_lower: 0.001187023; Virus: E393W; upper: 0.001187023; lower: 0.000658208" role="graphics-symbol" aria-roledescription="errorbar" transform="translate(180.77023348231032,199.86835839999998)" x2="0" y2="-0.10576299999996763" stroke="#E0585B" opacity="1"/><line aria-label="concentration: 0.00309; Fraction Infectivity: 0.0000788836; upper_lower: 0.000161866; Virus: E393W; upper: 0.000161866; lower: 0.0000788836" role="graphics-symbol" aria-roledescription="errorbar" transform="translate(209.39750876549004,199.98422328)" x2="0" y2="-0.01659648000000402" stroke="#E0585B" opacity="1"/><line aria-label="concentration: 0.00926; Fraction Infectivity: 0.0000709534; upper_lower: 0.000107729; Virus: E393W; upper: 0.000107729; lower: 0.0000709534" role="graphics-symbol" aria-roledescription="errorbar" transform="translate(237.996659200916,199.98580932000002)" x2="0" y2="-0.007355120000028137" stroke="#E0585B" opacity="1"/><line aria-label="concentration: 0.02778; Fraction Infectivity: 0.0000450095; upper_lower: 0.0000942501; Virus: E393W; upper: 0.0000942501; lower: 0.0000450095" role="graphics-symbol" aria-roledescription="errorbar" transform="translate(266.6239344840958,199.9909981)" x2="0" y2="-0.009848120000015115" stroke="#E0585B" opacity="1"/><line aria-label="concentration: 0.000004; Fraction Infectivity: 0.746596455; upper_lower: 0.887572504; Virus: L184E/P403K; upper: 0.887572504; lower: 0.746596455" role="graphics-symbol" aria-roledescription="errorbar" transform="translate(36.12359947967774,50.68070899999999)" x2="0" y2="-28.19520980000001" stroke="#4E79A5" opacity="1"/><line aria-label="concentration: 0.00001; Fraction Infectivity: 0.662717512; upper_lower: 0.751220139; Virus: L184E/P403K; upper: 0.751220139; lower: 0.662717512" role="graphics-symbol" aria-roledescription="errorbar" transform="translate(59.99999999999998,67.4564976)" x2="0" y2="-17.700525399999997" stroke="#4E79A5" opacity="1"/><line aria-label="concentration: 0.00004; Fraction Infectivity: 0.439249936; upper_lower: 0.488337653; Virus: L184E/P403K; upper: 0.488337653; lower: 0.439249936" role="graphics-symbol" aria-roledescription="errorbar" transform="translate(96.12359947967772,112.15001280000001)" x2="0" y2="-9.817543400000034" stroke="#4E79A5" opacity="1"/><line aria-label="concentration: 0.00011; Fraction Infectivity: 0.178699247; upper_lower: 0.196634986; Virus: L184E/P403K; upper: 0.196634986; lower: 0.178699247" role="graphics-symbol" aria-roledescription="errorbar" transform="translate(122.4835611094935,164.2601506)" x2="0" y2="-3.587147800000025" stroke="#4E79A5" opacity="1"/><line aria-label="concentration: 0.00034; Fraction Infectivity: 0.025918315; upper_lower: 0.026052079; Virus: L184E/P403K; upper: 0.026052079; lower: 0.025918315" role="graphics-symbol" aria-roledescription="errorbar" transform="translate(151.8887350225353,194.816337)" x2="0" y2="-0.026752799999997023" stroke="#4E79A5" opacity="1"/><line aria-label="concentration: 0.00103; Fraction Infectivity: 0.000972603; upper_lower: 0.005278705; Virus: L184E/P403K; upper: 0.005278705; lower: 0.000972603" role="graphics-symbol" aria-roledescription="errorbar" transform="translate(180.77023348231032,199.8054794)" x2="0" y2="-0.8612204000000077" stroke="#4E79A5" opacity="1"/><line aria-label="concentration: 0.00309; Fraction Infectivity: 0.0000707167; upper_lower: 0.000158213; Virus: L184E/P403K; upper: 0.000158213; lower: 0.0000707167" role="graphics-symbol" aria-roledescription="errorbar" transform="translate(209.39750876549004,199.98585666)" x2="0" y2="-0.01749925999999391" stroke="#4E79A5" opacity="1"/><line aria-label="concentration: 0.00926; Fraction Infectivity: 0.0000183636; upper_lower: 0.000157847; Virus: L184E/P403K; upper: 0.000157847; lower: 0.0000183636" role="graphics-symbol" aria-roledescription="errorbar" transform="translate(237.996659200916,199.99632728)" x2="0" y2="-0.027896679999997787" stroke="#4E79A5" opacity="1"/><line aria-label="concentration: 0.02778; Fraction Infectivity: 0.0000780699; upper_lower: 0.000132289; Virus: L184E/P403K; upper: 0.000132289; lower: 0.0000780699" role="graphics-symbol" aria-roledescription="errorbar" transform="translate(266.6239344840958,199.98438602)" x2="0" y2="-0.010843819999990956" stroke="#4E79A5" opacity="1"/><line aria-label="concentration: 0.000004; Fraction Infectivity: 0.777641278; upper_lower: 0.855838226; Virus: N306V; upper: 0.855838226; lower: 0.777641278" role="graphics-symbol" aria-roledescription="errorbar" transform="translate(36.12359947967774,44.47174439999999)" x2="0" y2="-15.639389599999998" stroke="#F18F3B" opacity="1"/><line aria-label="concentration: 0.00001; Fraction Infectivity: 0.591891892; upper_lower: 0.718199609; Virus: N306V; upper: 0.718199609; lower: 0.591891892" role="graphics-symbol" aria-roledescription="errorbar" transform="translate(59.99999999999998,81.6216216)" x2="0" y2="-25.2615434" stroke="#F18F3B" opacity="1"/><line aria-label="concentration: 0.00004; Fraction Infectivity: 0.434029484; upper_lower: 0.481604697; Virus: N306V; upper: 0.481604697; lower: 0.434029484" role="graphics-symbol" aria-roledescription="errorbar" transform="translate(96.12359947967772,113.19410319999999)" x2="0" y2="-9.515042600000001" stroke="#F18F3B" opacity="1"/><line aria-label="concentration: 0.00011; Fraction Infectivity: 0.124005219; upper_lower: 0.131879607; Virus: N306V; upper: 0.131879607; lower: 0.124005219" role="graphics-symbol" aria-roledescription="errorbar" transform="translate(122.4835611094935,175.1989562)" x2="0" y2="-1.5748776000000078" stroke="#F18F3B" opacity="1"/><line aria-label="concentration: 0.00034; Fraction Infectivity: 0.004166341; upper_lower: 0.010509828; Virus: N306V; upper: 0.010509828; lower: 0.004166341" role="graphics-symbol" aria-roledescription="errorbar" transform="translate(151.8887350225353,199.1667318)" x2="0" y2="-1.2686974000000077" stroke="#F18F3B" opacity="1"/><line aria-label="concentration: 0.00103; Fraction Infectivity: 0.000538617; upper_lower: 0.000813268; Virus: N306V; upper: 0.000813268; lower: 0.000538617" role="graphics-symbol" aria-roledescription="errorbar" transform="translate(180.77023348231032,199.8922766)" x2="0" y2="-0.05493020000000115" stroke="#F18F3B" opacity="1"/><line aria-label="concentration: 0.00309; Fraction Infectivity: 0.000082257; upper_lower: 0.0000927518; Virus: N306V; upper: 0.0000927518; lower: 0.000082257" role="graphics-symbol" aria-roledescription="errorbar" transform="translate(209.39750876549004,199.9835486)" x2="0" y2="-0.0020989600000120845" stroke="#F18F3B" opacity="1"/><line aria-label="concentration: 0.00926; Fraction Infectivity: 0.0000302609; upper_lower: 0.0000440295; Virus: N306V; upper: 0.0000440295; lower: 0.0000302609" role="graphics-symbol" aria-roledescription="errorbar" transform="translate(237.996659200916,199.99394782)" x2="0" y2="-0.00275371999998697" stroke="#F18F3B" opacity="1"/><line aria-label="concentration: 0.02778; Fraction Infectivity: 0.0000388084; upper_lower: 0.0000748206; Virus: N306V; upper: 0.0000748206; lower: 0.0000388084" role="graphics-symbol" aria-roledescription="errorbar" transform="translate(266.6239344840958,199.99223831999998)" x2="0" y2="-0.007202439999986154" stroke="#F18F3B" opacity="1"/><line aria-label="concentration: 0.000004; Fraction Infectivity: 0.774675972; upper_lower: 0.800576646; Virus: P403K; upper: 0.800576646; lower: 0.774675972" role="graphics-symbol" aria-roledescription="errorbar" transform="translate(36.12359947967774,45.06480559999999)" x2="0" y2="-5.180134799999969" stroke="#77B7B2" opacity="1"/><line aria-label="concentration: 0.00001; Fraction Infectivity: 0.6184779; upper_lower: 0.622777511; Virus: P403K; upper: 0.622777511; lower: 0.6184779" role="graphics-symbol" aria-roledescription="errorbar" transform="translate(59.99999999999998,76.30442)" x2="0" y2="-0.8599221999999997" stroke="#77B7B2" opacity="1"/><line aria-label="concentration: 0.00004; Fraction Infectivity: 0.538384845; upper_lower: 0.655454109; Virus: P403K; upper: 0.655454109; lower: 0.538384845" role="graphics-symbol" aria-roledescription="errorbar" transform="translate(96.12359947967772,92.32303100000001)" x2="0" y2="-23.4138528" stroke="#77B7B2" opacity="1"/><line aria-label="concentration: 0.00011; Fraction Infectivity: 0.399800598; upper_lower: 0.432724652; Virus: P403K; upper: 0.432724652; lower: 0.399800598" role="graphics-symbol" aria-roledescription="errorbar" transform="translate(122.4835611094935,120.0398804)" x2="0" y2="-6.5848108" stroke="#77B7B2" opacity="1"/><line aria-label="concentration: 0.00034; Fraction Infectivity: 0.118789044; upper_lower: 0.135559987; Virus: P403K; upper: 0.135559987; lower: 0.118789044" role="graphics-symbol" aria-roledescription="errorbar" transform="translate(151.8887350225353,176.2421912)" x2="0" y2="-3.3541885999999863" stroke="#77B7B2" opacity="1"/><line aria-label="concentration: 0.00103; Fraction Infectivity: 0.003454109; upper_lower: 0.003994683; Virus: P403K; upper: 0.003994683; lower: 0.003454109" role="graphics-symbol" aria-roledescription="errorbar" transform="translate(180.77023348231032,199.3091782)" x2="0" y2="-0.10811480000000984" stroke="#77B7B2" opacity="1"/><line aria-label="concentration: 0.00309; Fraction Infectivity: 0.0000414756; upper_lower: 0.0000844306; Virus: P403K; upper: 0.0000844306; lower: 0.0000414756" role="graphics-symbol" aria-roledescription="errorbar" transform="translate(209.39750876549004,199.99170488)" x2="0" y2="-0.008590999999967153" stroke="#77B7B2" opacity="1"/><line aria-label="concentration: 0.00926; Fraction Infectivity: 0.0000368561; upper_lower: 0.000062518; Virus: P403K; upper: 0.000062518; lower: 0.0000368561" role="graphics-symbol" aria-roledescription="errorbar" transform="translate(237.996659200916,199.99262878)" x2="0" y2="-0.005132379999992054" stroke="#77B7B2" opacity="1"/><line aria-label="concentration: 0.02778; Fraction Infectivity: 0.0000317581; upper_lower: 0.0000598751; Virus: P403K; upper: 0.0000598751; lower: 0.0000317581" role="graphics-symbol" aria-roledescription="errorbar" transform="translate(266.6239344840958,199.99364838)" x2="0" y2="-0.005623400000018819" stroke="#77B7B2" opacity="1"/></g><g class="mark-group role-legend" role="graphics-symbol" aria-roledescription="legend" aria-label="Symbol legend titled 'Virus' for fill color and stroke color with 6 values: WT, L184E/P403K, N306V, E393W, P403K, N529H"><g transform="translate(318,0)"><path class="background" aria-hidden="true" d="M0,0h115v123h-115Z" pointer-events="none"/><g><g class="mark-group role-legend-entry"><g transform="translate(5,24)"><path class="background" aria-hidden="true" d="M0,0h0v0h0Z" pointer-events="none"/><g><g class="mark-group role-scope" role="graphics-object" aria-roledescription="group mark container"><g transform="translate(0,0)"><path class="background" aria-hidden="true" d="M0,0h104.40625v14h-104.40625Z" pointer-events="none" opacity="1"/><g><g class="mark-symbol role-legend-symbol" pointer-events="none"><path transform="translate(7,7)" d="M5,0A5,5,0,1,1,-5,0A5,5,0,1,1,5,0" fill="black" stroke="black" stroke-width="1.5" opacity="1"/></g><g class="mark-text role-legend-label" pointer-events="none"><text text-anchor="start" transform="translate(18,11)" font-family="Helvetica" font-size="14px" fill="#000" opacity="1">WT</text></g></g><path class="foreground" aria-hidden="true" d="" pointer-events="none" display="none"/></g><g transform="translate(0,16)"><path class="background" aria-hidden="true" d="M0,0h104.40625v14h-104.40625Z" pointer-events="none" opacity="1"/><g><g class="mark-symbol role-legend-symbol" pointer-events="none"><path transform="translate(7,7)" d="M5,0A5,5,0,1,1,-5,0A5,5,0,1,1,5,0" fill="#4E79A5" stroke="#4E79A5" stroke-width="1.5" opacity="1"/></g><g class="mark-text role-legend-label" pointer-events="none"><text text-anchor="start" transform="translate(18,11)" font-family="Helvetica" font-size="14px" fill="#000" opacity="1">L184E/P403K</text></g></g><path class="foreground" aria-hidden="true" d="" pointer-events="none" display="none"/></g><g transform="translate(0,32)"><path class="background" aria-hidden="true" d="M0,0h104.40625v14h-104.40625Z" pointer-events="none" opacity="1"/><g><g class="mark-symbol role-legend-symbol" pointer-events="none"><path transform="translate(7,7)" d="M5,0A5,5,0,1,1,-5,0A5,5,0,1,1,5,0" fill="#F18F3B" stroke="#F18F3B" stroke-width="1.5" opacity="1"/></g><g class="mark-text role-legend-label" pointer-events="none"><text text-anchor="start" transform="translate(18,11)" font-family="Helvetica" font-size="14px" fill="#000" opacity="1">N306V</text></g></g><path class="foreground" aria-hidden="true" d="" pointer-events="none" display="none"/></g><g transform="translate(0,48)"><path class="background" aria-hidden="true" d="M0,0h104.40625v14h-104.40625Z" pointer-events="none" opacity="1"/><g><g class="mark-symbol role-legend-symbol" pointer-events="none"><path transform="translate(7,7)" d="M5,0A5,5,0,1,1,-5,0A5,5,0,1,1,5,0" fill="#E0585B" stroke="#E0585B" stroke-width="1.5" opacity="1"/></g><g class="mark-text role-legend-label" pointer-events="none"><text text-anchor="start" transform="translate(18,11)" font-family="Helvetica" font-size="14px" fill="#000" opacity="1">E393W</text></g></g><path class="foreground" aria-hidden="true" d="" pointer-events="none" display="none"/></g><g transform="translate(0,64)"><path class="background" aria-hidden="true" d="M0,0h104.40625v14h-104.40625Z" pointer-events="none" opacity="1"/><g><g class="mark-symbol role-legend-symbol" pointer-events="none"><path transform="translate(7,7)" d="M5,0A5,5,0,1,1,-5,0A5,5,0,1,1,5,0" fill="#77B7B2" stroke="#77B7B2" stroke-width="1.5" opacity="1"/></g><g class="mark-text role-legend-label" pointer-events="none"><text text-anchor="start" transform="translate(18,11)" font-family="Helvetica" font-size="14px" fill="#000" opacity="1">P403K</text></g></g><path class="foreground" aria-hidden="true" d="" pointer-events="none" display="none"/></g><g transform="translate(0,80)"><path class="background" aria-hidden="true" d="M0,0h104.40625v14h-104.40625Z" pointer-events="none" opacity="1"/><g><g class="mark-symbol role-legend-symbol" pointer-events="none"><path transform="translate(7,7)" d="M5,0A5,5,0,1,1,-5,0A5,5,0,1,1,5,0" fill="#5AA155" stroke="#5AA155" stroke-width="1.5" opacity="1"/></g><g class="mark-text role-legend-label" pointer-events="none"><text text-anchor="start" transform="translate(18,11)" font-family="Helvetica" font-size="14px" fill="#000" opacity="1">N529H</text></g></g><path class="foreground" aria-hidden="true" d="" pointer-events="none" display="none"/></g></g></g><path class="foreground" aria-hidden="true" d="" pointer-events="none" display="none"/></g></g><g class="mark-text role-legend-title" pointer-events="none"><text text-anchor="start" transform="translate(5,16)" font-family="Helvetica" font-size="14px" font-weight="bold" fill="#000" opacity="1">Virus</text></g></g><path class="foreground" aria-hidden="true" d="" pointer-events="none" display="none"/></g></g></g><path class="foreground" aria-hidden="true" d="" display="none"/></g></g></g></svg>