<svg xmlns="http://www.w3.org/2000/svg" xmlns:xlink="http://www.w3.org/1999/xlink" version="1.1" class="marks" width="444" height="252" viewBox="0 0 444 252"><rect width="444" height="252" fill="white"/><g fill="none" stroke-miterlimit="10" transform="translate(47,11)"><g class="mark-group role-frame root" role="graphics-object" aria-roledescription="group mark container"><g transform="translate(0,0)"><path class="background" aria-hidden="true" d="M0,0h300v200h-300Z" stroke-width="0"/><g><g class="mark-group role-axis" role="graphics-symbol" aria-roledescription="axis" aria-label="X-axis titled 'Sera Dilution' for a log scale with values from 1e-7 to 1e-1"><g transform="translate(0.5,200.5)"><path class="background" aria-hidden="true" d="M0,0h0v0h0Z" pointer-events="none"/><g><g class="mark-rule role-axis-tick" pointer-events="none"><line transform="translate(50,0)" x2="0" y2="4" stroke="black" stroke-width="1" stroke-linecap="butt" opacity="1"/><line transform="translate(150,0)" x2="0" y2="4" stroke="black" stroke-width="1" stroke-linecap="butt" opacity="1"/><line transform="translate(250,0)" x2="0" y2="4" stroke="black" stroke-width="1" stroke-linecap="butt" opacity="1"/></g><g class="mark-text role-axis-label" pointer-events="none"><text text-anchor="middle" transform="translate(50.00000000000002,15)" font-family="sans-serif" font-size="12px" font-weight="light" fill="#000" opacity="1">1e-6</text><text text-anchor="middle" transform="translate(150.00000000000003,15)" font-family="sans-serif" font-size="12px" font-weight="light" fill="#000" opacity="1">1e-4</text><text text-anchor="middle" transform="translate(250,15)" font-family="sans-serif" font-size="12px" font-weight="light" fill="#000" opacity="1">1e-2</text></g><g class="mark-rule role-axis-domain" pointer-events="none"><line transform="translate(0,0)" x2="300" y2="0" stroke="black" stroke-width="1" opacity="1"/></g><g class="mark-text role-axis-title" pointer-events="none"><text text-anchor="middle" transform="translate(150,33)" font-family="sans-serif" font-size="14px" font-weight="bold" fill="black" opacity="1">Sera Dilution</text></g></g><path class="foreground" aria-hidden="true" d="" pointer-events="none" display="none"/></g></g><g class="mark-group role-axis" role="graphics-symbol" aria-roledescription="axis" aria-label="Y-axis titled 'Fraction Infectivity' for a linear scale with values from 0.0 to 1.0"><g transform="translate(0.5,0.5)"><path class="background" aria-hidden="true" d="M0,0h0v0h0Z" pointer-events="none"/><g><g class="mark-rule role-axis-tick" pointer-events="none"><line transform="translate(0,200)" x2="-4" y2="0" stroke="black" stroke-width="1" stroke-linecap="butt" opacity="1"/><line transform="translate(0,100)" x2="-4" y2="0" stroke="black" stroke-width="1" stroke-linecap="butt" opacity="1"/><line transform="translate(0,0)" x2="-4" y2="0" stroke="black" stroke-width="1" stroke-linecap="butt" opacity="1"/></g><g class="mark-text role-axis-label" pointer-events="none"><text text-anchor="end" transform="translate(-6,204)" font-family="sans-serif" font-size="12px" font-weight="light" fill="#000" opacity="1">0.0</text><text text-anchor="end" transform="translate(-6,104)" font-family="sans-serif" font-size="12px" font-weight="light" fill="#000" opacity="1">0.5</text><text text-anchor="end" transform="translate(-6,4)" font-family="sans-serif" font-size="12px" font-weight="light" fill="#000" opacity="1">1.0</text></g><g class="mark-rule role-axis-domain" pointer-events="none"><line transform="translate(0,200)" x2="0" y2="-200" stroke="black" stroke-width="1" opacity="1"/></g><g class="mark-text role-axis-title" pointer-events="none"><text text-anchor="middle" transform="translate(-27.681640625,100) rotate(-90) translate(0,-3)" font-family="sans-serif" font-size="14px" font-weight="bold" fill="black" opacity="1">Fraction Infectivity</text></g></g><path class="foreground" aria-hidden="true" d="" pointer-events="none" display="none"/></g></g><g class="mark-rule role-mark layer_0_marks" role="graphics-object" aria-roledescription="rule mark container"><line aria-label="concentration: 0.000002; Fraction Infectivity: 0.808283246261; upper_lower: 0.885768977739; virus: WT; upper: 0.885768977739; lower: 0.808283246261" role="graphics-symbol" aria-roledescription="errorbar" transform="translate(65.05149978319908,38.34335074771109)" x2="0" y2="-15.497146295422183" stroke="black" opacity="1"/><line aria-label="concentration: 0.00001; Fraction Infectivity: 0.862103824045; upper_lower: 0.928561706622; virus: WT; upper: 0.928561706622; lower: 0.862103824045" role="graphics-symbol" aria-roledescription="errorbar" transform="translate(100,27.579235191003292)" x2="0" y2="-13.29157651533994" stroke="black" opacity="1"/><line aria-label="concentration: 0.00002; Fraction Infectivity: 0.8776089786; upper_lower: 0.9291764774; virus: WT; upper: 0.9291764774; lower: 0.8776089786" role="graphics-symbol" aria-roledescription="errorbar" transform="translate(115.05149978319906,24.478204280063043)" x2="0" y2="-10.3134997601261" stroke="black" opacity="1"/><line aria-label="concentration: 0.00006; Fraction Infectivity: 0.798358488328; upper_lower: 0.923328942338; virus: WT; upper: 0.923328942338; lower: 0.798358488328" role="graphics-symbol" aria-roledescription="errorbar" transform="translate(138.90756251918216,40.3283023343247)" x2="0" y2="-24.99409080198274" stroke="black" opacity="1"/><line aria-label="concentration: 0.00017; Fraction Infectivity: 0.88104957944; upper_lower: 0.948961991227; virus: WT; upper: 0.948961991227; lower: 0.88104957944" role="graphics-symbol" aria-roledescription="errorbar" transform="translate(161.52244606891372,23.790084112016974)" x2="0" y2="-13.582482357367276" stroke="black" opacity="1"/><line aria-label="concentration: 0.00051; Fraction Infectivity: 0.656284481127; upper_lower: 0.725254258207; virus: WT; upper: 0.725254258207; lower: 0.656284481127" role="graphics-symbol" aria-roledescription="errorbar" transform="translate(185.37850880489682,68.74310377466021)" x2="0" y2="-13.793955415987064" stroke="black" opacity="1"/><line aria-label="concentration: 0.00154; Fraction Infectivity: 0.367854577343; upper_lower: 0.394852965323; virus: WT; upper: 0.394852965323; lower: 0.367854577343" role="graphics-symbol" aria-roledescription="errorbar" transform="translate(209.37603604182314,126.42908453133286)" x2="0" y2="-5.399677595999066" stroke="black" opacity="1"/><line aria-label="concentration: 0.00463; Fraction Infectivity: 0.0390274971876; upper_lower: 0.0471604954791; virus: WT; upper: 0.0471604954791; lower: 0.0390274971876" role="graphics-symbol" aria-roledescription="errorbar" transform="translate(233.27904955089764,192.1945005624886)" x2="0" y2="-1.6265996583105107" stroke="black" opacity="1"/><line aria-label="concentration: 0.01389; Fraction Infectivity: 0.000167546930362; upper_lower: 0.000196453736304; virus: WT; upper: 0.000196453736304; lower: 0.000167546930362" role="graphics-symbol" aria-roledescription="errorbar" transform="translate(257.13511228688077,199.96649061392756)" x2="0" y2="-0.00578136118843986" stroke="black" opacity="1"/><line aria-label="concentration: 0.000002; Fraction Infectivity: 0.846124322188; upper_lower: 0.876837999146; virus: L184E; upper: 0.876837999146; lower: 0.846124322188" role="graphics-symbol" aria-roledescription="errorbar" transform="translate(65.05149978319908,30.7751355624726)" x2="0" y2="-6.142735391611875" stroke="#4E79A5" opacity="1"/><line aria-label="concentration: 0.00001; Fraction Infectivity: 0.88190835765; upper_lower: 0.95228810635; virus: L184E; upper: 0.95228810635; lower: 0.88190835765" role="graphics-symbol" aria-roledescription="errorbar" transform="translate(100,23.618328470097193)" x2="0" y2="-14.075949740194371" stroke="#4E79A5" opacity="1"/><line aria-label="concentration: 0.00002; Fraction Infectivity: 0.796115790674; upper_lower: 0.925185814659; virus: L184E; upper: 0.925185814659; lower: 0.796115790674" role="graphics-symbol" aria-roledescription="errorbar" transform="translate(115.05149978319906,40.776841865105794)" x2="0" y2="-25.81400479687823" stroke="#4E79A5" opacity="1"/><line aria-label="concentration: 0.00006; Fraction Infectivity: 0.647571651238; upper_lower: 0.749736811429; virus: L184E; upper: 0.749736811429; lower: 0.647571651238" role="graphics-symbol" aria-roledescription="errorbar" transform="translate(138.90756251918216,70.48566975248602)" x2="0" y2="-20.43303203830535" stroke="#4E79A5" opacity="1"/><line aria-label="concentration: 0.00017; Fraction Infectivity: 0.59151540305; upper_lower: 0.66851580095; virus: L184E; upper: 0.66851580095; lower: 0.59151540305" role="graphics-symbol" aria-roledescription="errorbar" transform="translate(161.52244606891372,81.6969193899834)" x2="0" y2="-15.400079579966786" stroke="#4E79A5" opacity="1"/><line aria-label="concentration: 0.00051; Fraction Infectivity: 0.370355785434; upper_lower: 0.513242332566; virus: L184E; upper: 0.513242332566; lower: 0.370355785434" role="graphics-symbol" aria-roledescription="errorbar" transform="translate(185.37850880489682,125.92884291323597)" x2="0" y2="-28.577309426471942" stroke="#4E79A5" opacity="1"/><line aria-label="concentration: 0.00154; Fraction Infectivity: 0.128927515878; upper_lower: 0.225980128122; virus: L184E; upper: 0.225980128122; lower: 0.128927515878" role="graphics-symbol" aria-roledescription="errorbar" transform="translate(209.37603604182314,174.21449682440166)" x2="0" y2="-19.410522448803334" stroke="#4E79A5" opacity="1"/><line aria-label="concentration: 0.00463; Fraction Infectivity: 0.00463146876979; upper_lower: 0.0133484545635; virus: L184E; upper: 0.0133484545635; lower: 0.00463146876979" role="graphics-symbol" aria-roledescription="errorbar" transform="translate(233.27904955089764,199.07370624604178)" x2="0" y2="-1.7433971587502128" stroke="#4E79A5" opacity="1"/><line aria-label="concentration: 0.01389; Fraction Infectivity: 0.0000594196260408; upper_lower: 0.0000876583739592; virus: L184E; upper: 0.0000876583739592; lower: 0.0000594196260408" role="graphics-symbol" aria-roledescription="errorbar" transform="translate(257.13511228688077,199.98811607479183)" x2="0" y2="-0.005647749583658879" stroke="#4E79A5" opacity="1"/><line aria-label="concentration: 0.000002; Fraction Infectivity: 0.849132198588; upper_lower: 0.920126062078; virus: I580S; upper: 0.920126062078; lower: 0.849132198588" role="graphics-symbol" aria-roledescription="errorbar" transform="translate(65.05149978319908,30.17356028232241)" x2="0" y2="-14.198772697978157" stroke="#EDC958" opacity="1"/><line aria-label="concentration: 0.00001; Fraction Infectivity: 0.879584294012; upper_lower: 0.915285615988; virus: I580S; upper: 0.915285615988; lower: 0.879584294012" role="graphics-symbol" aria-roledescription="errorbar" transform="translate(100,24.08314119766444)" x2="0" y2="-7.140264395328892" stroke="#EDC958" opacity="1"/><line aria-label="concentration: 0.00002; Fraction Infectivity: 0.82783563251; upper_lower: 0.927309276824; virus: I580S; upper: 0.927309276824; lower: 0.82783563251" role="graphics-symbol" aria-roledescription="errorbar" transform="translate(115.05149978319906,34.432873498048686)" x2="0" y2="-19.894728862764087" stroke="#EDC958" opacity="1"/><line aria-label="concentration: 0.00006; Fraction Infectivity: 0.748896406178; upper_lower: 0.852522469822; virus: I580S; upper: 0.852522469822; lower: 0.748896406178" role="graphics-symbol" aria-roledescription="errorbar" transform="translate(138.90756251918216,50.220718764448115)" x2="0" y2="-20.72521272889625" stroke="#EDC958" opacity="1"/><line aria-label="concentration: 0.00017; Fraction Infectivity: 0.620503594349; upper_lower: 0.812716598318; virus: I580S; upper: 0.812716598318; lower: 0.620503594349" role="graphics-symbol" aria-roledescription="errorbar" transform="translate(161.52244606891372,75.89928113019357)" x2="0" y2="-38.4426007937205" stroke="#EDC958" opacity="1"/><line aria-label="concentration: 0.00051; Fraction Infectivity: 0.439371778555; upper_lower: 0.506700924111; virus: I580S; upper: 0.506700924111; lower: 0.439371778555" role="graphics-symbol" aria-roledescription="errorbar" transform="translate(185.37850880489682,112.12564428890363)" x2="0" y2="-13.465829111140593" stroke="#EDC958" opacity="1"/><line aria-label="concentration: 0.00154; Fraction Infectivity: 0.10679978939; upper_lower: 0.135877853277; virus: I580S; upper: 0.135877853277; lower: 0.10679978939" role="graphics-symbol" aria-roledescription="errorbar" transform="translate(209.37603604182314,178.6400421220083)" x2="0" y2="-5.815612777349941" stroke="#EDC958" opacity="1"/><line aria-label="concentration: 0.00463; Fraction Infectivity: 0.000910345103864; upper_lower: 0.00166678822947; virus: I580S; upper: 0.00166678822947; lower: 0.000910345103864" role="graphics-symbol" aria-roledescription="errorbar" transform="translate(233.27904955089764,199.81793097922719)" x2="0" y2="-0.15128862512102614" stroke="#EDC958" opacity="1"/><line aria-label="concentration: 0.01389; Fraction Infectivity: 0.0000312576077381; upper_lower: 0.0000464757255952; virus: I580S; upper: 0.0000464757255952; lower: 0.0000312576077381" role="graphics-symbol" aria-roledescription="errorbar" transform="translate(257.13511228688077,199.99374847845237)" x2="0" y2="-0.003043623571414855" stroke="#EDC958" opacity="1"/><line aria-label="concentration: 0.000002; Fraction Infectivity: 0.818925666153; upper_lower: 0.911578115847; virus: N586Y; upper: 0.911578115847; lower: 0.818925666153" role="graphics-symbol" aria-roledescription="errorbar" transform="translate(65.05149978319908,36.214866769459064)" x2="0" y2="-18.530489938918173" stroke="#AF7AA0" opacity="1"/><line aria-label="concentration: 0.00001; Fraction Infectivity: 0.794989826537; upper_lower: 0.841716557463; virus: N586Y; upper: 0.841716557463; lower: 0.794989826537" role="graphics-symbol" aria-roledescription="errorbar" transform="translate(100,41.00203469258672)" x2="0" y2="-9.34534618517344" stroke="#AF7AA0" opacity="1"/><line aria-label="concentration: 0.00002; Fraction Infectivity: 0.736427742776; upper_lower: 0.769860912557; virus: N586Y; upper: 0.769860912557; lower: 0.736427742776" role="graphics-symbol" aria-roledescription="errorbar" transform="translate(115.05149978319906,52.71445144481643)" x2="0" y2="-6.6866339562995165" stroke="#AF7AA0" opacity="1"/><line aria-label="concentration: 0.00006; Fraction Infectivity: 0.667608544463; upper_lower: 0.714168529537; virus: N586Y; upper: 0.714168529537; lower: 0.667608544463" role="graphics-symbol" aria-roledescription="errorbar" transform="translate(138.90756251918216,66.47829110749525)" x2="0" y2="-9.311997014990453" stroke="#AF7AA0" opacity="1"/><line aria-label="concentration: 0.00017; Fraction Infectivity: 0.456009585601; upper_lower: 0.519360852399; virus: N586Y; upper: 0.519360852399; lower: 0.456009585601" role="graphics-symbol" aria-roledescription="errorbar" transform="translate(161.52244606891372,108.79808287972463)" x2="0" y2="-12.670253359449262" stroke="#AF7AA0" opacity="1"/><line aria-label="concentration: 0.00051; Fraction Infectivity: 0.181984975514; upper_lower: 0.230796142486; virus: N586Y; upper: 0.230796142486; lower: 0.181984975514" role="graphics-symbol" aria-roledescription="errorbar" transform="translate(185.37850880489682,163.60300489726387)" x2="0" y2="-9.762233394527755" stroke="#AF7AA0" opacity="1"/><line aria-label="concentration: 0.00154; Fraction Infectivity: 0.0145056631152; upper_lower: 0.0219299595515; virus: N586Y; upper: 0.0219299595515; lower: 0.0145056631152" role="graphics-symbol" aria-roledescription="errorbar" transform="translate(209.37603604182314,197.09886737696394)" x2="0" y2="-1.4848592872612016" stroke="#AF7AA0" opacity="1"/><line aria-label="concentration: 0.00463; Fraction Infectivity: 0.0000735935065977; upper_lower: 0.000122284493402; virus: N586Y; upper: 0.000122284493402; lower: 0.0000735935065977" role="graphics-symbol" aria-roledescription="errorbar" transform="translate(233.27904955089764,199.98528129868046)" x2="0" y2="-0.009738197360917411" stroke="#AF7AA0" opacity="1"/><line aria-label="concentration: 0.01389; Fraction Infectivity: 0.0000169450717254; upper_lower: 0.0000265882616079; virus: N586Y; upper: 0.0000265882616079; lower: 0.0000169450717254" role="graphics-symbol" aria-roledescription="errorbar" transform="translate(257.13511228688077,199.99661098565494)" x2="0" y2="-0.0019286379765333095" stroke="#AF7AA0" opacity="1"/><line aria-label="concentration: 0.000002; Fraction Infectivity: 0.811301558425; upper_lower: 0.900295816241; virus: P403K; upper: 0.900295816241; lower: 0.811301558425" role="graphics-symbol" aria-roledescription="errorbar" transform="translate(65.05149978319908,37.73968831494652)" x2="0" y2="-17.798851563226407" stroke="#77B7B2" opacity="1"/><line aria-label="concentration: 0.00001; Fraction Infectivity: 0.772217876935; upper_lower: 0.855684369732; virus: P403K; upper: 0.855684369732; lower: 0.772217876935" role="graphics-symbol" aria-roledescription="errorbar" transform="translate(100,45.55642461298095)" x2="0" y2="-16.69329855929522" stroke="#77B7B2" opacity="1"/><line aria-label="concentration: 0.00002; Fraction Infectivity: 0.702710629078; upper_lower: 0.834755961588; virus: P403K; upper: 0.834755961588; lower: 0.702710629078" role="graphics-symbol" aria-roledescription="errorbar" transform="translate(115.05149978319906,59.45787418430226)" x2="0" y2="-26.409066501937865" stroke="#77B7B2" opacity="1"/><line aria-label="concentration: 0.00006; Fraction Infectivity: 0.782525843517; upper_lower: 0.878181655817; virus: P403K; upper: 0.878181655817; lower: 0.782525843517" role="graphics-symbol" aria-roledescription="errorbar" transform="translate(138.90756251918216,43.494831296692226)" x2="0" y2="-19.131162460051108" stroke="#77B7B2" opacity="1"/><line aria-label="concentration: 0.00017; Fraction Infectivity: 0.679558335742; upper_lower: 0.804655385592; virus: P403K; upper: 0.804655385592; lower: 0.679558335742" role="graphics-symbol" aria-roledescription="errorbar" transform="translate(161.52244606891372,64.08833285168265)" x2="0" y2="-25.01940997003196" stroke="#77B7B2" opacity="1"/><line aria-label="concentration: 0.00051; Fraction Infectivity: 0.576044243918; upper_lower: 0.621607906749; virus: P403K; upper: 0.621607906749; lower: 0.576044243918" role="graphics-symbol" aria-roledescription="errorbar" transform="translate(185.37850880489682,84.79115121648888)" x2="0" y2="-9.112732566311095" stroke="#77B7B2" opacity="1"/><line aria-label="concentration: 0.00154; Fraction Infectivity: 0.270479501801; upper_lower: 0.322379068199; virus: P403K; upper: 0.322379068199; lower: 0.270479501801" role="graphics-symbol" aria-roledescription="errorbar" transform="translate(209.37603604182314,145.90409963982452)" x2="0" y2="-10.379913279649088" stroke="#77B7B2" opacity="1"/><line aria-label="concentration: 0.00463; Fraction Infectivity: 0.0245735612291; upper_lower: 0.0324154094376; virus: P403K; upper: 0.0324154094376; lower: 0.0245735612291" role="graphics-symbol" aria-roledescription="errorbar" transform="translate(233.27904955089764,195.08528775418114)" x2="0" y2="-1.5683696416956252" stroke="#77B7B2" opacity="1"/><line aria-label="concentration: 0.01389; Fraction Infectivity: 0.0000807059882428; upper_lower: 0.0000993306117572; virus: P403K; upper: 0.0000993306117572; lower: 0.0000807059882428" role="graphics-symbol" aria-roledescription="errorbar" transform="translate(257.13511228688077,199.98385880235142)" x2="0" y2="-0.00372492470285124" stroke="#77B7B2" opacity="1"/><line aria-label="concentration: 0.000002; Fraction Infectivity: 0.719760912097; upper_lower: 0.913610077236; virus: N529H; upper: 0.913610077236; lower: 0.719760912097" role="graphics-symbol" aria-roledescription="errorbar" transform="translate(65.05149978319908,56.047817580544)" x2="0" y2="-38.76983302775469" stroke="#5AA155" opacity="1"/><line aria-label="concentration: 0.00001; Fraction Infectivity: 0.769098330008; upper_lower: 0.833880839992; virus: N529H; upper: 0.833880839992; lower: 0.769098330008" role="graphics-symbol" aria-roledescription="errorbar" transform="translate(100,46.18033399844676)" x2="0" y2="-12.956501996893529" stroke="#5AA155" opacity="1"/><line aria-label="concentration: 0.00002; Fraction Infectivity: 0.685600293048; upper_lower: 0.762947474285; virus: N529H; upper: 0.762947474285; lower: 0.685600293048" role="graphics-symbol" aria-roledescription="errorbar" transform="translate(115.05149978319906,62.87994139040072)" x2="0" y2="-15.469436247468103" stroke="#5AA155" opacity="1"/><line aria-label="concentration: 0.00006; Fraction Infectivity: 0.659406415629; upper_lower: 0.777956438371; virus: N529H; upper: 0.777956438371; lower: 0.659406415629" role="graphics-symbol" aria-roledescription="errorbar" transform="translate(138.90756251918216,68.11871687419149)" x2="0" y2="-23.710004548382948" stroke="#5AA155" opacity="1"/><line aria-label="concentration: 0.00017; Fraction Infectivity: 0.572340927941; upper_lower: 0.685454407393; virus: N529H; upper: 0.685454407393; lower: 0.572340927941" role="graphics-symbol" aria-roledescription="errorbar" transform="translate(161.52244606891372,85.53181441183537)" x2="0" y2="-22.622695890337404" stroke="#5AA155" opacity="1"/><line aria-label="concentration: 0.00051; Fraction Infectivity: 0.320543636872; upper_lower: 0.436254705795; virus: N529H; upper: 0.436254705795; lower: 0.320543636872" role="graphics-symbol" aria-roledescription="errorbar" transform="translate(185.37850880489682,135.89127262568869)" x2="0" y2="-23.14221378471069" stroke="#5AA155" opacity="1"/><line aria-label="concentration: 0.00154; Fraction Infectivity: 0.0904921208776; upper_lower: 0.137741267789; virus: N529H; upper: 0.137741267789; lower: 0.0904921208776" role="graphics-symbol" aria-roledescription="errorbar" transform="translate(209.37603604182314,181.9015758244869)" x2="0" y2="-9.449829382307172" stroke="#5AA155" opacity="1"/><line aria-label="concentration: 0.00463; Fraction Infectivity: 0.00153696389116; upper_lower: 0.00279962610884; virus: N529H; upper: 0.00279962610884; lower: 0.00153696389116" role="graphics-symbol" aria-roledescription="errorbar" transform="translate(233.27904955089764,199.69260722176725)" x2="0" y2="-0.2525324435344771" stroke="#5AA155" opacity="1"/><line aria-label="concentration: 0.01389; Fraction Infectivity: 0.0000537618204356; upper_lower: 0.0000998957795644; virus: N529H; upper: 0.0000998957795644; lower: 0.0000537618204356" role="graphics-symbol" aria-roledescription="errorbar" transform="translate(257.13511228688077,199.98924763591288)" x2="0" y2="-0.009226791825739156" stroke="#5AA155" opacity="1"/><line aria-label="concentration: 0.000002; Fraction Infectivity: 0.783023172083; upper_lower: 0.871379092584; virus: R344Y; upper: 0.871379092584; lower: 0.783023172083" role="graphics-symbol" aria-roledescription="errorbar" transform="translate(65.05149978319908,43.39536558342398)" x2="0" y2="-17.671184100181268" stroke="#F18F3B" opacity="1"/><line aria-label="concentration: 0.00001; Fraction Infectivity: 0.85492856982; upper_lower: 0.909729475514; virus: R344Y; upper: 0.909729475514; lower: 0.85492856982" role="graphics-symbol" aria-roledescription="errorbar" transform="translate(100,29.014286036093594)" x2="0" y2="-10.960181138853862" stroke="#F18F3B" opacity="1"/><line aria-label="concentration: 0.00002; Fraction Infectivity: 0.733080005028; upper_lower: 0.781705711638; virus: R344Y; upper: 0.781705711638; lower: 0.733080005028" role="graphics-symbol" aria-roledescription="errorbar" transform="translate(115.05149978319906,53.38399899430475)" x2="0" y2="-9.7251413219428" stroke="#F18F3B" opacity="1"/><line aria-label="concentration: 0.00006; Fraction Infectivity: 0.832140185266; upper_lower: 0.913626015401; virus: R344Y; upper: 0.913626015401; lower: 0.832140185266" role="graphics-symbol" aria-roledescription="errorbar" transform="translate(138.90756251918216,33.571962946824186)" x2="0" y2="-16.297166026981724" stroke="#F18F3B" opacity="1"/><line aria-label="concentration: 0.00017; Fraction Infectivity: 0.72610672607; upper_lower: 0.759167165264; virus: R344Y; upper: 0.759167165264; lower: 0.72610672607" role="graphics-symbol" aria-roledescription="errorbar" transform="translate(161.52244606891372,54.7786547860877)" x2="0" y2="-6.612087838842086" stroke="#F18F3B" opacity="1"/><line aria-label="concentration: 0.00051; Fraction Infectivity: 0.589302737795; upper_lower: 0.634132941539; virus: R344Y; upper: 0.634132941539; lower: 0.589302737795" role="graphics-symbol" aria-roledescription="errorbar" transform="translate(185.37850880489682,82.13945244105092)" x2="0" y2="-8.966040748768478" stroke="#F18F3B" opacity="1"/><line aria-label="concentration: 0.00154; Fraction Infectivity: 0.169705550615; upper_lower: 0.194464806052; virus: R344Y; upper: 0.194464806052; lower: 0.169705550615" role="graphics-symbol" aria-roledescription="errorbar" transform="translate(209.37603604182314,166.0588898770554)" x2="0" y2="-4.95185108744414" stroke="#F18F3B" opacity="1"/><line aria-label="concentration: 0.00463; Fraction Infectivity: 0.00549503721336; upper_lower: 0.00711721811997; virus: R344Y; upper: 0.00711721811997; lower: 0.00549503721336" role="graphics-symbol" aria-roledescription="errorbar" transform="translate(233.27904955089764,198.9009925573274)" x2="0" y2="-0.324436181321488" stroke="#F18F3B" opacity="1"/><line aria-label="concentration: 0.01389; Fraction Infectivity: 0.0000995071530432; upper_lower: 0.000103341646957; virus: R344Y; upper: 0.000103341646957; lower: 0.0000995071530432" role="graphics-symbol" aria-roledescription="errorbar" transform="translate(257.13511228688077,199.98009856939137)" x2="0" y2="-0.000766898782728731" stroke="#F18F3B" opacity="1"/><line aria-label="concentration: 0.000002; Fraction Infectivity: 0.740781046899; upper_lower: 0.869624484434; virus: E393W; upper: 0.869624484434; lower: 0.740781046899" role="graphics-symbol" aria-roledescription="errorbar" transform="translate(65.05149978319908,51.84379062014577)" x2="0" y2="-25.768687506958177" stroke="#E0585B" opacity="1"/><line aria-label="concentration: 0.00001; Fraction Infectivity: 0.776380911686; upper_lower: 0.869696333647; virus: E393W; upper: 0.869696333647; lower: 0.776380911686" role="graphics-symbol" aria-roledescription="errorbar" transform="translate(100,44.723817662815456)" x2="0" y2="-18.663084392297602" stroke="#E0585B" opacity="1"/><line aria-label="concentration: 0.00002; Fraction Infectivity: 0.713541992362; upper_lower: 0.784699591638; virus: E393W; upper: 0.784699591638; lower: 0.713541992362" role="graphics-symbol" aria-roledescription="errorbar" transform="translate(115.05149978319906,57.29160152757717)" x2="0" y2="-14.231519855154318" stroke="#E0585B" opacity="1"/><line aria-label="concentration: 0.00006; Fraction Infectivity: 0.61453560316; upper_lower: 0.78153275084; virus: E393W; upper: 0.78153275084; lower: 0.61453560316" role="graphics-symbol" aria-roledescription="errorbar" transform="translate(138.90756251918216,77.09287936808171)" x2="0" y2="-33.399429536163396" stroke="#E0585B" opacity="1"/><line aria-label="concentration: 0.00017; Fraction Infectivity: 0.475303992329; upper_lower: 0.591393847671; virus: E393W; upper: 0.591393847671; lower: 0.475303992329" role="graphics-symbol" aria-roledescription="errorbar" transform="translate(161.52244606891372,104.93920153410994)" x2="0" y2="-23.21797106821988" stroke="#E0585B" opacity="1"/><line aria-label="concentration: 0.00051; Fraction Infectivity: 0.336354617496; upper_lower: 0.468690476504; virus: E393W; upper: 0.468690476504; lower: 0.336354617496" role="graphics-symbol" aria-roledescription="errorbar" transform="translate(185.37850880489682,132.72907650088928)" x2="0" y2="-26.467171801778562" stroke="#E0585B" opacity="1"/><line aria-label="concentration: 0.00154; Fraction Infectivity: 0.0739970392365; upper_lower: 0.115878406097; virus: E393W; upper: 0.115878406097; lower: 0.0739970392365" role="graphics-symbol" aria-roledescription="errorbar" transform="translate(209.37603604182314,185.200592152701)" x2="0" y2="-8.376273372068681" stroke="#E0585B" opacity="1"/><line aria-label="concentration: 0.00463; Fraction Infectivity: 0.000358686133026; upper_lower: 0.000712775200308; virus: E393W; upper: 0.000712775200308; lower: 0.000358686133026" role="graphics-symbol" aria-roledescription="errorbar" transform="translate(233.27904955089764,199.92826277339483)" x2="0" y2="-0.07081781345632976" stroke="#E0585B" opacity="1"/><line aria-label="concentration: 0.01389; Fraction Infectivity: 0.0000584531993004; upper_lower: 0.0000976637340329; virus: E393W; upper: 0.0000976637340329; lower: 0.0000584531993004" role="graphics-symbol" aria-roledescription="errorbar" transform="translate(257.13511228688077,199.9883093601399)" x2="0" y2="-0.007842106946469585" stroke="#E0585B" opacity="1"/></g><g class="mark-group role-scope layer_1_pathgroup" role="graphics-object" aria-roledescription="group mark container"><g transform="translate(0,0)"><path class="background" aria-hidden="true" d="M0,0h300v200h-300Z"/><g><g class="mark-line role-mark layer_1_marks" role="graphics-object" aria-roledescription="line mark container"><path aria-label="Sera Dilution: 8e-7; Fraction Infectivity: 0.999879580025; virus: WT" role="graphics-symbol" aria-roledescription="line mark" d="M45.843,0.024L47.001,0.026L48.16,0.028L49.318,0.03L50.476,0.032L51.635,0.034L52.793,0.036L53.951,0.039L55.109,0.042L56.268,0.045L57.426,0.048L58.584,0.051L59.743,0.055L60.901,0.059L62.059,0.063L63.218,0.067L64.376,0.072L65.051,0.075L65.534,0.077L66.692,0.083L67.851,0.089L69.009,0.095L70.167,0.102L71.326,0.109L72.484,0.116L73.642,0.125L74.8,0.134L75.959,0.143L77.117,0.153L78.275,0.164L79.434,0.176L80.592,0.188L81.75,0.201L82.909,0.216L84.067,0.231L85.225,0.247L86.383,0.265L87.542,0.284L88.7,0.304L89.858,0.325L91.017,0.348L92.175,0.373L93.333,0.399L94.491,0.427L95.65,0.458L96.808,0.49L97.966,0.525L99.125,0.562L100,0.592L100.283,0.602L101.441,0.644L102.6,0.69L103.758,0.739L104.916,0.791L106.074,0.847L107.233,0.906L108.391,0.97L109.549,1.039L110.708,1.112L111.866,1.19L113.024,1.274L114.182,1.364L115.051,1.436L115.341,1.46L116.499,1.563L117.657,1.673L118.816,1.791L119.974,1.916L121.132,2.051L122.29,2.195L123.449,2.349L124.607,2.513L125.765,2.689L126.924,2.877L128.082,3.078L129.24,3.293L130.399,3.522L131.557,3.767L132.715,4.029L133.873,4.309L135.032,4.608L136.19,4.926L137.348,5.267L138.507,5.63L138.908,5.761L139.665,6.017L140.823,6.43L141.981,6.871L143.14,7.34L144.298,7.84L145.456,8.373L146.615,8.941L147.773,9.545L148.931,10.187L150.09,10.87L151.248,11.597L152.406,12.369L153.564,13.188L154.723,14.058L155.881,14.98L157.039,15.958L158.198,16.994L159.356,18.091L160.514,19.25L161.522,20.314L161.672,20.476L162.831,21.771L163.989,23.136L165.147,24.576L166.306,26.092L167.464,27.686L168.622,29.362L169.781,31.121L170.939,32.964L172.097,34.895L173.255,36.913L174.414,39.021L175.572,41.219L176.73,43.506L177.889,45.885L179.047,48.352L180.205,50.909L181.363,53.554L182.522,56.284L183.68,59.096L184.838,61.989L185.379,63.365L185.997,64.958L187.155,67.999L188.313,71.108L189.471,74.279L190.63,77.506L191.788,80.783L192.946,84.104L194.105,87.461L195.263,90.847L196.421,94.254L197.58,97.675L198.738,101.101L199.896,104.525L201.054,107.938L202.213,111.333L203.371,114.701L204.529,118.035L205.688,121.329L206.846,124.575L208.004,127.766L209.162,130.898L209.376,131.468L210.321,133.964L211.479,136.959L212.637,139.88L213.796,142.721L214.954,145.481L216.112,148.156L217.271,150.745L218.429,153.244L219.587,155.655L220.745,157.975L221.904,160.205L223.062,162.344L224.22,164.395L225.379,166.356L226.537,168.231L227.695,170.02L228.853,171.725L230.012,173.348L231.17,174.892L232.328,176.358L233.279,177.506L233.487,177.75L234.645,179.07L235.803,180.32L236.962,181.503L238.12,182.621L239.278,183.679L240.436,184.677L241.595,185.619L242.753,186.507L243.911,187.344L245.07,188.133L246.228,188.875L247.386,189.574L248.544,190.231L249.703,190.848L250.861,191.428L252.019,191.973L253.178,192.485L254.336,192.965L255.494,193.416L256.652,193.839L257.135,194.007L257.811,194.235L258.969,194.606L260.127,194.955L261.286,195.281L262.444,195.587L263.602,195.873L264.761,196.141L265.919,196.392L267.077,196.627L268.235,196.847L269.394,197.053L270.552,197.245L271.71,197.425L272.869,197.594L274.027,197.751L275.185,197.899L276.343,198.037" stroke="black" stroke-width="1.25"/></g></g><path class="foreground" aria-hidden="true" d="" display="none"/></g><g transform="translate(0,0)"><path class="background" aria-hidden="true" d="M0,0h300v200h-300Z"/><g><g class="mark-line role-mark layer_1_marks" role="graphics-object" aria-roledescription="line mark container"><path aria-label="Sera Dilution: 8e-7; Fraction Infectivity: 0.987613478488; virus: L184E" role="graphics-symbol" aria-roledescription="line mark" d="M45.843,2.477L47.001,2.579L48.16,2.684L49.318,2.794L50.476,2.909L51.635,3.028L52.793,3.151L53.951,3.28L55.109,3.414L56.268,3.553L57.426,3.698L58.584,3.849L59.743,4.005L60.901,4.168L62.059,4.337L63.218,4.514L64.376,4.697L65.051,4.807L65.534,4.887L66.692,5.085L67.851,5.29L69.009,5.504L70.167,5.726L71.326,5.956L72.484,6.196L73.642,6.445L74.8,6.704L75.959,6.972L77.117,7.251L78.275,7.541L79.434,7.842L80.592,8.154L81.75,8.479L82.909,8.815L84.067,9.164L85.225,9.527L86.383,9.903L87.542,10.293L88.7,10.697L89.858,11.117L91.017,11.552L92.175,12.003L93.333,12.47L94.491,12.954L95.65,13.456L96.808,13.976L97.966,14.514L99.125,15.071L100,15.505L100.283,15.648L101.441,16.245L102.6,16.863L103.758,17.502L104.916,18.162L106.074,18.845L107.233,19.551L108.391,20.281L109.549,21.034L110.708,21.813L111.866,22.616L113.024,23.445L114.182,24.3L115.051,24.959L115.341,25.182L116.499,26.091L117.657,27.028L118.816,27.994L119.974,28.988L121.132,30.011L122.29,31.063L123.449,32.146L124.607,33.259L125.765,34.402L126.924,35.576L128.082,36.782L129.24,38.019L130.399,39.288L131.557,40.588L132.715,41.92L133.873,43.284L135.032,44.68L136.19,46.107L137.348,47.566L138.507,49.057L138.908,49.58L139.665,50.579L140.823,52.132L141.981,53.715L143.14,55.329L144.298,56.972L145.456,58.644L146.615,60.344L147.773,62.072L148.931,63.827L150.09,65.608L151.248,67.414L152.406,69.244L153.564,71.097L154.723,72.972L155.881,74.868L157.039,76.783L158.198,78.717L159.356,80.667L160.514,82.632L161.522,84.355L161.672,84.612L162.831,86.604L163.989,88.607L165.147,90.619L166.306,92.639L167.464,94.665L168.622,96.695L169.781,98.728L170.939,100.763L172.097,102.796L173.255,104.827L174.414,106.855L175.572,108.876L176.73,110.89L177.889,112.896L179.047,114.891L180.205,116.874L181.363,118.843L182.522,120.797L183.68,122.735L184.838,124.655L185.379,125.544L185.997,126.556L187.155,128.436L188.313,130.295L189.471,132.131L190.63,133.943L191.788,135.73L192.946,137.492L194.105,139.226L195.263,140.934L196.421,142.613L197.58,144.263L198.738,145.884L199.896,147.475L201.054,149.035L202.213,150.565L203.371,152.064L204.529,153.531L205.688,154.966L206.846,156.37L208.004,157.742L209.162,159.082L209.376,159.325L210.321,160.39L211.479,161.667L212.637,162.911L213.796,164.125L214.954,165.307L216.112,166.458L217.271,167.579L218.429,168.669L219.587,169.729L220.745,170.759L221.904,171.76L223.062,172.733L224.22,173.677L225.379,174.593L226.537,175.482L227.695,176.344L228.853,177.179L230.012,177.989L231.17,178.773L232.328,179.533L233.279,180.138L233.487,180.268L234.645,180.98L235.803,181.669L236.962,182.335L238.12,182.98L239.278,183.602L240.436,184.205L241.595,184.786L242.753,185.349L243.911,185.891L245.07,186.416L246.228,186.922L247.386,187.41L248.544,187.882L249.703,188.337L250.861,188.776L252.019,189.199L253.178,189.607L254.336,190.001L255.494,190.38L256.652,190.746L257.135,190.895L257.811,191.099L258.969,191.438L260.127,191.766L261.286,192.081L262.444,192.385L263.602,192.677L264.761,192.959L265.919,193.23L267.077,193.491L268.235,193.743L269.394,193.985L270.552,194.217L271.71,194.442L272.869,194.657L274.027,194.865L275.185,195.064L276.343,195.257" stroke="#4E79A5" stroke-width="1.25"/></g></g><path class="foreground" aria-hidden="true" d="" display="none"/></g><g transform="translate(0,0)"><path class="background" aria-hidden="true" d="M0,0h300v200h-300Z"/><g><g class="mark-line role-mark layer_1_marks" role="graphics-object" aria-roledescription="line mark container"><path aria-label="Sera Dilution: 8e-7; Fraction Infectivity: 0.997270685134; virus: I580S" role="graphics-symbol" aria-roledescription="line mark" d="M45.843,0.546L47.001,0.575L48.16,0.606L49.318,0.638L50.476,0.672L51.635,0.708L52.793,0.746L53.951,0.786L55.109,0.828L56.268,0.872L57.426,0.918L58.584,0.967L59.743,1.019L60.901,1.073L62.059,1.13L63.218,1.19L64.376,1.254L65.051,1.292L65.534,1.32L66.692,1.391L67.851,1.465L69.009,1.543L70.167,1.625L71.326,1.711L72.484,1.802L73.642,1.897L74.8,1.998L75.959,2.104L77.117,2.215L78.275,2.333L79.434,2.456L80.592,2.586L81.75,2.723L82.909,2.866L84.067,3.018L85.225,3.177L86.383,3.344L87.542,3.52L88.7,3.705L89.858,3.9L91.017,4.104L92.175,4.32L93.333,4.546L94.491,4.784L95.65,5.033L96.808,5.296L97.966,5.572L99.125,5.862L100,6.09L100.283,6.166L101.441,6.486L102.6,6.821L103.758,7.174L104.916,7.543L106.074,7.931L107.233,8.339L108.391,8.766L109.549,9.214L110.708,9.684L111.866,10.176L113.024,10.692L114.182,11.233L115.051,11.655L115.341,11.799L116.499,12.392L117.657,13.013L118.816,13.663L119.974,14.342L121.132,15.053L122.29,15.795L123.449,16.572L124.607,17.382L125.765,18.229L126.924,19.112L128.082,20.033L129.24,20.994L130.399,21.995L131.557,23.038L132.715,24.123L133.873,25.253L135.032,26.427L136.19,27.647L137.348,28.914L138.507,30.229L138.908,30.696L139.665,31.593L140.823,33.006L141.981,34.47L143.14,35.984L144.298,37.55L145.456,39.168L146.615,40.838L147.773,42.56L148.931,44.335L150.09,46.162L151.248,48.042L152.406,49.972L153.564,51.954L154.723,53.986L155.881,56.068L157.039,58.198L158.198,60.375L159.356,62.597L160.514,64.863L161.522,66.87L161.672,67.171L162.831,69.519L163.989,71.905L165.147,74.325L166.306,76.779L167.464,79.262L168.622,81.773L169.781,84.307L170.939,86.862L172.097,89.435L173.255,92.022L174.414,94.62L175.572,97.225L176.73,99.834L177.889,102.443L179.047,105.048L180.205,107.647L181.363,110.236L182.522,112.811L183.68,115.368L184.838,117.906L185.379,119.081L185.997,120.419L187.155,122.906L188.313,125.364L189.471,127.789L190.63,130.179L191.788,132.532L192.946,134.845L194.105,137.116L195.263,139.344L196.421,141.527L197.58,143.663L198.738,145.751L199.896,147.789L201.054,149.778L202.213,151.715L203.371,153.601L204.529,155.435L205.688,157.216L206.846,158.945L208.004,160.622L209.162,162.246L209.376,162.54L210.321,163.819L211.479,165.34L212.637,166.81L213.796,168.23L214.954,169.6L216.112,170.921L217.271,172.194L218.429,173.42L219.587,174.6L220.745,175.735L221.904,176.826L223.062,177.874L224.22,178.881L225.379,179.846L226.537,180.773L227.695,181.661L228.853,182.512L230.012,183.327L231.17,184.108L232.328,184.855L233.279,185.443L233.487,185.569L234.645,186.253L235.803,186.906L236.962,187.53L238.12,188.127L239.278,188.696L240.436,189.24L241.595,189.759L242.753,190.255L243.911,190.727L245.07,191.178L246.228,191.608L247.386,192.018L248.544,192.408L249.703,192.78L250.861,193.135L252.019,193.473L253.178,193.794L254.336,194.1L255.494,194.392L256.652,194.67L257.135,194.781L257.811,194.934L258.969,195.185L260.127,195.425L261.286,195.652L262.444,195.869L263.602,196.075L264.761,196.271L265.919,196.457L267.077,196.634L268.235,196.802L269.394,196.963L270.552,197.115L271.71,197.259L272.869,197.397L274.027,197.528L275.185,197.652L276.343,197.77" stroke="#EDC958" stroke-width="1.25"/></g></g><path class="foreground" aria-hidden="true" d="" display="none"/></g><g transform="translate(0,0)"><path class="background" aria-hidden="true" d="M0,0h300v200h-300Z"/><g><g class="mark-line role-mark layer_1_marks" role="graphics-object" aria-roledescription="line mark container"><path aria-label="Sera Dilution: 8e-7; Fraction Infectivity: 0.981072605538; virus: N586Y" role="graphics-symbol" aria-roledescription="line mark" d="M45.843,3.785L47.001,3.948L48.16,4.117L49.318,4.294L50.476,4.477L51.635,4.669L52.793,4.868L53.951,5.076L55.109,5.292L56.268,5.517L57.426,5.752L58.584,5.996L59.743,6.25L60.901,6.515L62.059,6.791L63.218,7.077L64.376,7.376L65.051,7.555L65.534,7.686L66.692,8.009L67.851,8.345L69.009,8.695L70.167,9.058L71.326,9.436L72.484,9.829L73.642,10.237L74.8,10.661L75.959,11.102L77.117,11.56L78.275,12.035L79.434,12.529L80.592,13.042L81.75,13.574L82.909,14.126L84.067,14.699L85.225,15.294L86.383,15.91L87.542,16.549L88.7,17.211L89.858,17.897L91.017,18.607L92.175,19.343L93.333,20.105L94.491,20.893L95.65,21.708L96.808,22.551L97.966,23.423L99.125,24.323L100,25.024L100.283,25.254L101.441,26.214L102.6,27.206L103.758,28.229L104.916,29.283L106.074,30.371L107.233,31.491L108.391,32.644L109.549,33.832L110.708,35.053L111.866,36.309L113.024,37.599L114.182,38.925L115.051,39.943L115.341,40.286L116.499,41.682L117.657,43.113L118.816,44.58L119.974,46.082L121.132,47.618L122.29,49.19L123.449,50.797L124.607,52.437L125.765,54.112L126.924,55.819L128.082,57.56L129.24,59.332L130.399,61.135L131.557,62.969L132.715,64.832L133.873,66.723L135.032,68.641L136.19,70.586L137.348,72.555L138.507,74.547L138.908,75.242L139.665,76.561L140.823,78.595L141.981,80.649L143.14,82.719L144.298,84.804L145.456,86.904L146.615,89.015L147.773,91.136L148.931,93.265L150.09,95.4L151.248,97.54L152.406,99.681L153.564,101.823L154.723,103.964L155.881,106.1L157.039,108.231L158.198,110.355L159.356,112.469L160.514,114.572L161.522,116.392L161.672,116.662L162.831,118.737L163.989,120.796L165.147,122.836L166.306,124.856L167.464,126.855L168.622,128.831L169.781,130.783L170.939,132.709L172.097,134.608L173.255,136.48L174.414,138.322L175.572,140.135L176.73,141.916L177.889,143.666L179.047,145.384L180.205,147.068L181.363,148.719L182.522,150.335L183.68,151.917L184.838,153.465L185.379,154.174L185.997,154.977L187.155,156.454L188.313,157.896L189.471,159.302L190.63,160.674L191.788,162.01L192.946,163.311L194.105,164.577L195.263,165.809L196.421,167.006L197.58,168.169L198.738,169.299L199.896,170.396L201.054,171.461L202.213,172.493L203.371,173.494L204.529,174.464L205.688,175.403L206.846,176.312L208.004,177.192L209.162,178.044L209.376,178.198L210.321,178.867L211.479,179.664L212.637,180.433L213.796,181.176L214.954,181.894L216.112,182.588L217.271,183.257L218.429,183.902L219.587,184.525L220.745,185.126L221.904,185.705L223.062,186.264L224.22,186.802L225.379,187.32L226.537,187.82L227.695,188.301L228.853,188.764L230.012,189.209L231.17,189.639L232.328,190.051L233.279,190.379L233.487,190.449L234.645,190.831L235.803,191.199L236.962,191.552L238.12,191.892L239.278,192.219L240.436,192.533L241.595,192.835L242.753,193.125L243.911,193.404L245.07,193.672L246.228,193.929L247.386,194.176L248.544,194.414L249.703,194.642L250.861,194.861L252.019,195.071L253.178,195.273L254.336,195.467L255.494,195.653L256.652,195.831L257.135,195.903L257.811,196.002L258.969,196.167L260.127,196.325L261.286,196.476L262.444,196.621L263.602,196.761L264.761,196.895L265.919,197.023L267.077,197.146L268.235,197.264L269.394,197.377L270.552,197.486L271.71,197.59L272.869,197.69L274.027,197.786L275.185,197.878L276.343,197.966" stroke="#AF7AA0" stroke-width="1.25"/></g></g><path class="foreground" aria-hidden="true" d="" display="none"/></g><g transform="translate(0,0)"><path class="background" aria-hidden="true" d="M0,0h300v200h-300Z"/><g><g class="mark-line role-mark layer_1_marks" role="graphics-object" aria-roledescription="line mark container"><path aria-label="Sera Dilution: 8e-7; Fraction Infectivity: 0.990186217152; virus: P403K" role="graphics-symbol" aria-roledescription="line mark" d="M45.843,1.963L47.001,2.04L48.16,2.119L49.318,2.202L50.476,2.288L51.635,2.378L52.793,2.471L53.951,2.567L55.109,2.667L56.268,2.771L57.426,2.879L58.584,2.991L59.743,3.108L60.901,3.228L62.059,3.354L63.218,3.484L64.376,3.62L65.051,3.701L65.534,3.76L66.692,3.906L67.851,4.057L69.009,4.214L70.167,4.377L71.326,4.546L72.484,4.722L73.642,4.904L74.8,5.093L75.959,5.289L77.117,5.492L78.275,5.703L79.434,5.922L80.592,6.149L81.75,6.384L82.909,6.628L84.067,6.881L85.225,7.143L86.383,7.415L87.542,7.697L88.7,7.989L89.858,8.292L91.017,8.606L92.175,8.931L93.333,9.268L94.491,9.617L95.65,9.978L96.808,10.352L97.966,10.739L99.125,11.14L100,11.453L100.283,11.555L101.441,11.985L102.6,12.429L103.758,12.889L104.916,13.364L106.074,13.856L107.233,14.365L108.391,14.89L109.549,15.434L110.708,15.995L111.866,16.575L113.024,17.174L114.182,17.793L115.051,18.27L115.341,18.431L116.499,19.09L117.657,19.77L118.816,20.472L119.974,21.196L121.132,21.942L122.29,22.711L123.449,23.503L124.607,24.319L125.765,25.16L126.924,26.025L128.082,26.916L129.24,27.832L130.399,28.774L131.557,29.742L132.715,30.738L133.873,31.76L135.032,32.81L136.19,33.887L137.348,34.992L138.507,36.126L138.908,36.525L139.665,37.288L140.823,38.479L141.981,39.698L143.14,40.946L144.298,42.223L145.456,43.529L146.615,44.864L147.773,46.228L148.931,47.62L150.09,49.042L151.248,50.491L152.406,51.969L153.564,53.474L154.723,55.007L155.881,56.566L157.039,58.152L158.198,59.765L159.356,61.402L160.514,63.064L161.522,64.531L161.672,64.75L162.831,66.46L163.989,68.191L165.147,69.945L166.306,71.718L167.464,73.512L168.622,75.323L169.781,77.153L170.939,78.998L172.097,80.859L173.255,82.733L174.414,84.62L175.572,86.519L176.73,88.427L177.889,90.344L179.047,92.268L180.205,94.198L181.363,96.132L182.522,98.069L183.68,100.007L184.838,101.946L185.379,102.849L185.997,103.883L187.155,105.817L188.313,107.747L189.471,109.671L190.63,111.588L191.788,113.496L192.946,115.394L194.105,117.281L195.263,119.155L196.421,121.016L197.58,122.861L198.738,124.69L199.896,126.502L201.054,128.295L202.213,130.069L203.371,131.822L204.529,133.553L205.688,135.262L206.846,136.948L208.004,138.61L209.162,140.248L209.376,140.547L210.321,141.86L211.479,143.445L212.637,145.005L213.796,146.537L214.954,148.043L216.112,149.52L217.271,150.969L218.429,152.39L219.587,153.782L220.745,155.146L221.904,156.481L223.062,157.786L224.22,159.063L225.379,160.311L226.537,161.53L227.695,162.721L228.853,163.883L230.012,165.016L231.17,166.121L232.328,167.198L233.279,168.062L233.487,168.248L234.645,169.27L235.803,170.265L236.962,171.233L238.12,172.175L239.278,173.091L240.436,173.981L241.595,174.846L242.753,175.687L243.911,176.503L245.07,177.295L246.228,178.064L247.386,178.81L248.544,179.533L249.703,180.235L250.861,180.915L252.019,181.574L253.178,182.212L254.336,182.831L255.494,183.43L256.652,184.009L257.135,184.245L257.811,184.571L258.969,185.114L260.127,185.639L261.286,186.148L262.444,186.639L263.602,187.115L264.761,187.574L265.919,188.019L267.077,188.448L268.235,188.863L269.394,189.264L270.552,189.651L271.71,190.025L272.869,190.386L274.027,190.735L275.185,191.071L276.343,191.396" stroke="#77B7B2" stroke-width="1.25"/></g></g><path class="foreground" aria-hidden="true" d="" display="none"/></g><g transform="translate(0,0)"><path class="background" aria-hidden="true" d="M0,0h300v200h-300Z"/><g><g class="mark-line role-mark layer_1_marks" role="graphics-object" aria-roledescription="line mark container"><path aria-label="Sera Dilution: 8e-7; Fraction Infectivity: 0.969651491725; virus: N529H" role="graphics-symbol" aria-roledescription="line mark" d="M45.843,6.07L47.001,6.276L48.16,6.489L49.318,6.709L50.476,6.936L51.635,7.171L52.793,7.413L53.951,7.664L55.109,7.922L56.268,8.189L57.426,8.464L58.584,8.748L59.743,9.041L60.901,9.343L62.059,9.655L63.218,9.977L64.376,10.309L65.051,10.508L65.534,10.652L66.692,11.005L67.851,11.369L69.009,11.745L70.167,12.132L71.326,12.531L72.484,12.942L73.642,13.366L74.8,13.803L75.959,14.252L77.117,14.716L78.275,15.193L79.434,15.684L80.592,16.19L81.75,16.711L82.909,17.247L84.067,17.798L85.225,18.365L86.383,18.949L87.542,19.549L88.7,20.165L89.858,20.799L91.017,21.451L92.175,22.12L93.333,22.808L94.491,23.514L95.65,24.24L96.808,24.984L97.966,25.748L99.125,26.531L100,27.137L100.283,27.335L101.441,28.159L102.6,29.004L103.758,29.87L104.916,30.757L106.074,31.665L107.233,32.596L108.391,33.548L109.549,34.522L110.708,35.518L111.866,36.536L113.024,37.578L114.182,38.642L115.051,39.455L115.341,39.728L116.499,40.838L117.657,41.97L118.816,43.125L119.974,44.303L121.132,45.504L122.29,46.728L123.449,47.974L124.607,49.243L125.765,50.535L126.924,51.848L128.082,53.184L129.24,54.541L130.399,55.92L131.557,57.32L132.715,58.741L133.873,60.182L135.032,61.643L136.19,63.123L137.348,64.622L138.507,66.14L138.908,66.67L139.665,67.676L140.823,69.229L141.981,70.798L143.14,72.383L144.298,73.984L145.456,75.598L146.615,77.227L147.773,78.868L148.931,80.522L150.09,82.186L151.248,83.861L152.406,85.545L153.564,87.237L154.723,88.937L155.881,90.644L157.039,92.356L158.198,94.072L159.356,95.792L160.514,97.515L161.522,99.016L161.672,99.239L162.831,100.963L163.989,102.687L165.147,104.409L166.306,106.129L167.464,107.845L168.622,109.557L169.781,111.262L170.939,112.961L172.097,114.653L173.255,116.336L174.414,118.01L175.572,119.673L176.73,121.325L177.889,122.965L179.047,124.592L180.205,126.205L181.363,127.803L182.522,129.387L183.68,130.954L184.838,132.505L185.379,133.223L185.997,134.039L187.155,135.554L188.313,137.051L189.471,138.53L190.63,139.988L191.788,141.427L192.946,142.845L194.105,144.243L195.263,145.619L196.421,146.974L197.58,148.307L198.738,149.618L199.896,150.907L201.054,152.173L202.213,153.417L203.371,154.638L204.529,155.836L205.688,157.011L206.846,158.164L208.004,159.294L209.162,160.4L209.376,160.602L210.321,161.484L211.479,162.546L212.637,163.584L213.796,164.6L214.954,165.594L216.112,166.565L217.271,167.515L218.429,168.442L219.587,169.348L220.745,170.233L221.904,171.096L223.062,171.938L224.22,172.76L225.379,173.561L226.537,174.343L227.695,175.104L228.853,175.846L230.012,176.569L231.17,177.273L232.328,177.959L233.279,178.508L233.487,178.626L234.645,179.276L235.803,179.908L236.962,180.523L238.12,181.121L239.278,181.702L240.436,182.267L241.595,182.817L242.753,183.351L243.911,183.87L245.07,184.374L246.228,184.864L247.386,185.339L248.544,185.801L249.703,186.249L250.861,186.684L252.019,187.107L253.178,187.517L254.336,187.914L255.494,188.3L256.652,188.674L257.135,188.827L257.811,189.037L258.969,189.389L260.127,189.73L261.286,190.061L262.444,190.382L263.602,190.693L264.761,190.994L265.919,191.286L267.077,191.569L268.235,191.843L269.394,192.109L270.552,192.366L271.71,192.615L272.869,192.857L274.027,193.091L275.185,193.317L276.343,193.536" stroke="#5AA155" stroke-width="1.25"/></g></g><path class="foreground" aria-hidden="true" d="" display="none"/></g><g transform="translate(0,0)"><path class="background" aria-hidden="true" d="M0,0h300v200h-300Z"/><g><g class="mark-line role-mark layer_1_marks" role="graphics-object" aria-roledescription="line mark container"><path aria-label="Sera Dilution: 8e-7; Fraction Infectivity: 0.997401996845; virus: R344Y" role="graphics-symbol" aria-roledescription="line mark" d="M45.843,0.52L47.001,0.546L48.16,0.574L49.318,0.603L50.476,0.634L51.635,0.667L52.793,0.701L53.951,0.736L55.109,0.774L56.268,0.813L57.426,0.855L58.584,0.898L59.743,0.944L60.901,0.992L62.059,1.043L63.218,1.096L64.376,1.152L65.051,1.186L65.534,1.211L66.692,1.272L67.851,1.337L69.009,1.405L70.167,1.476L71.326,1.551L72.484,1.63L73.642,1.713L74.8,1.8L75.959,1.891L77.117,1.987L78.275,2.088L79.434,2.194L80.592,2.305L81.75,2.422L82.909,2.544L84.067,2.673L85.225,2.808L86.383,2.949L87.542,3.098L88.7,3.254L89.858,3.418L91.017,3.59L92.175,3.771L93.333,3.96L94.491,4.159L95.65,4.367L96.808,4.586L97.966,4.815L99.125,5.055L100,5.245L100.283,5.307L101.441,5.572L102.6,5.849L103.758,6.139L104.916,6.443L106.074,6.762L107.233,7.097L108.391,7.447L109.549,7.813L110.708,8.197L111.866,8.599L113.024,9.019L114.182,9.46L115.051,9.803L115.341,9.92L116.499,10.402L117.657,10.906L118.816,11.433L119.974,11.983L121.132,12.558L122.29,13.159L123.449,13.787L124.607,14.442L125.765,15.126L126.924,15.84L128.082,16.584L129.24,17.36L130.399,18.168L131.557,19.011L132.715,19.888L133.873,20.8L135.032,21.75L136.19,22.738L137.348,23.764L138.507,24.83L138.908,25.209L139.665,25.937L140.823,27.086L141.981,28.278L143.14,29.512L144.298,30.791L145.456,32.116L146.615,33.485L147.773,34.901L148.931,36.364L150.09,37.874L151.248,39.432L152.406,41.037L153.564,42.691L154.723,44.393L155.881,46.142L157.039,47.939L158.198,49.784L159.356,51.675L160.514,53.613L161.522,55.336L161.672,55.596L162.831,57.623L163.989,59.694L165.147,61.807L166.306,63.961L167.464,66.154L168.622,68.384L169.781,70.649L170.939,72.949L172.097,75.279L173.255,77.638L174.414,80.024L175.572,82.434L176.73,84.865L177.889,87.315L179.047,89.78L180.205,92.257L181.363,94.744L182.522,97.238L183.68,99.736L184.838,102.233L185.379,103.397L185.997,104.728L187.155,107.217L188.313,109.697L189.471,112.165L190.63,114.618L191.788,117.053L192.946,119.467L194.105,121.859L195.263,124.224L196.421,126.561L197.58,128.867L198.738,131.139L199.896,133.377L201.054,135.578L202.213,137.74L203.371,139.862L204.529,141.942L205.688,143.979L206.846,145.971L208.004,147.918L209.162,149.82L209.376,150.165L210.321,151.674L211.479,153.481L212.637,155.241L213.796,156.953L214.954,158.616L216.112,160.232L217.271,161.8L218.429,163.32L219.587,164.793L220.745,166.219L221.904,167.598L223.062,168.932L224.22,170.221L225.379,171.465L226.537,172.665L227.695,173.823L228.853,174.939L230.012,176.014L231.17,177.048L232.328,178.044L233.279,178.833L233.487,179.002L234.645,179.922L235.803,180.807L236.962,181.656L238.12,182.472L239.278,183.254L240.436,184.005L241.595,184.725L242.753,185.415L243.911,186.076L245.07,186.71L246.228,187.316L247.386,187.897L248.544,188.453L249.703,188.985L250.861,189.493L252.019,189.98L253.178,190.445L254.336,190.889L255.494,191.314L256.652,191.719L257.135,191.883L257.811,192.107L258.969,192.477L260.127,192.831L261.286,193.168L262.444,193.49L263.602,193.798L264.761,194.091L265.919,194.371L267.077,194.638L268.235,194.892L269.394,195.135L270.552,195.367L271.71,195.588L272.869,195.798L274.027,195.999L275.185,196.19L276.343,196.372" stroke="#F18F3B" stroke-width="1.25"/></g></g><path class="foreground" aria-hidden="true" d="" display="none"/></g><g transform="translate(0,0)"><path class="background" aria-hidden="true" d="M0,0h300v200h-300Z"/><g><g class="mark-line role-mark layer_1_marks" role="graphics-object" aria-roledescription="line mark container"><path aria-label="Sera Dilution: 8e-7; Fraction Infectivity: 0.967940256933; virus: E393W" role="graphics-symbol" aria-roledescription="line mark" d="M45.843,6.412L47.001,6.631L48.16,6.858L49.318,7.092L50.476,7.333L51.635,7.583L52.793,7.84L53.951,8.107L55.109,8.381L56.268,8.665L57.426,8.958L58.584,9.26L59.743,9.572L60.901,9.893L62.059,10.225L63.218,10.568L64.376,10.921L65.051,11.132L65.534,11.286L66.692,11.662L67.851,12.049L69.009,12.449L70.167,12.861L71.326,13.285L72.484,13.723L73.642,14.174L74.8,14.639L75.959,15.117L77.117,15.61L78.275,16.118L79.434,16.64L80.592,17.178L81.75,17.732L82.909,18.302L84.067,18.888L85.225,19.491L86.383,20.111L87.542,20.748L88.7,21.404L89.858,22.077L91.017,22.769L92.175,23.48L93.333,24.21L94.491,24.959L95.65,25.728L96.808,26.518L97.966,27.327L99.125,28.158L100,28.799L100.283,29.009L101.441,29.882L102.6,30.776L103.758,31.692L104.916,32.63L106.074,33.591L107.233,34.573L108.391,35.578L109.549,36.606L110.708,37.657L111.866,38.731L113.024,39.828L114.182,40.949L115.051,41.804L115.341,42.092L116.499,43.259L117.657,44.449L118.816,45.662L119.974,46.898L121.132,48.158L122.29,49.44L123.449,50.745L124.607,52.072L125.765,53.422L126.924,54.794L128.082,56.187L129.24,57.602L130.399,59.038L131.557,60.494L132.715,61.971L133.873,63.467L135.032,64.983L136.19,66.517L137.348,68.068L138.507,69.638L138.908,70.185L139.665,71.224L140.823,72.825L141.981,74.442L143.14,76.074L144.298,77.719L145.456,79.377L146.615,81.046L147.773,82.727L148.931,84.418L150.09,86.118L151.248,87.826L152.406,89.542L153.564,91.264L154.723,92.991L155.881,94.722L157.039,96.456L158.198,98.193L159.356,99.931L160.514,101.668L161.522,103.18L161.672,103.405L162.831,105.14L163.989,106.871L165.147,108.599L166.306,110.321L167.464,112.037L168.622,113.746L169.781,115.447L170.939,117.138L172.097,118.82L173.255,120.491L174.414,122.149L175.572,123.795L176.73,125.428L177.889,127.046L179.047,128.649L180.205,130.236L181.363,131.807L182.522,133.36L183.68,134.896L184.838,136.412L185.379,137.113L185.997,137.91L187.155,139.388L188.313,140.847L189.471,142.284L190.63,143.701L191.788,145.096L192.946,146.469L194.105,147.821L195.263,149.15L196.421,150.457L197.58,151.741L198.738,153.002L199.896,154.24L201.054,155.455L202.213,156.647L203.371,157.816L204.529,158.961L205.688,160.083L206.846,161.182L208.004,162.258L209.162,163.31L209.376,163.502L210.321,164.34L211.479,165.347L212.637,166.332L213.796,167.294L214.954,168.234L216.112,169.151L217.271,170.047L218.429,170.922L219.587,171.775L220.745,172.607L221.904,173.418L223.062,174.209L224.22,174.98L225.379,175.731L226.537,176.463L227.695,177.175L228.853,177.868L230.012,178.543L231.17,179.2L232.328,179.839L233.279,180.35L233.487,180.46L234.645,181.065L235.803,181.652L236.962,182.223L238.12,182.778L239.278,183.317L240.436,183.841L241.595,184.35L242.753,184.844L243.911,185.324L245.07,185.789L246.228,186.241L247.386,186.68L248.544,187.106L249.703,187.519L250.861,187.919L252.019,188.308L253.178,188.685L254.336,189.05L255.494,189.404L256.652,189.748L257.135,189.888L257.811,190.081L258.969,190.403L260.127,190.716L261.286,191.019L262.444,191.312L263.602,191.596L264.761,191.872L265.919,192.139L267.077,192.397L268.235,192.647L269.394,192.889L270.552,193.124L271.71,193.351L272.869,193.571L274.027,193.784L275.185,193.99L276.343,194.189" stroke="#E0585B" stroke-width="1.25"/></g></g><path class="foreground" aria-hidden="true" d="" display="none"/></g></g><g class="mark-symbol role-mark layer_2_marks" role="graphics-object" aria-roledescription="symbol mark container"><path aria-label="Sera Dilution: 2e-6; Fraction Infectivity: 0.847026112; virus: WT" role="graphics-symbol" aria-roledescription="circle" transform="translate(65.05149978319908,30.5947776)" d="M2.5,0A2.5,2.5,0,1,1,-2.5,0A2.5,2.5,0,1,1,2.5,0" fill="black" stroke-width="2" opacity="1"/><path aria-label="Sera Dilution: 1e-5; Fraction Infectivity: 0.895332765333; virus: WT" role="graphics-symbol" aria-roledescription="circle" transform="translate(100,20.93344693333332)" d="M2.5,0A2.5,2.5,0,1,1,-2.5,0A2.5,2.5,0,1,1,2.5,0" fill="black" stroke-width="2" opacity="1"/><path aria-label="Sera Dilution: 2e-5; Fraction Infectivity: 0.903392728; virus: WT" role="graphics-symbol" aria-roledescription="circle" transform="translate(115.05149978319906,19.321454399999993)" d="M2.5,0A2.5,2.5,0,1,1,-2.5,0A2.5,2.5,0,1,1,2.5,0" fill="black" stroke-width="2" opacity="1"/><path aria-label="Sera Dilution: 6e-5; Fraction Infectivity: 0.860843715333; virus: WT" role="graphics-symbol" aria-roledescription="circle" transform="translate(138.90756251918216,27.831256933333325)" d="M2.5,0A2.5,2.5,0,1,1,-2.5,0A2.5,2.5,0,1,1,2.5,0" fill="black" stroke-width="2" opacity="1"/><path aria-label="Sera Dilution: 2e-4; Fraction Infectivity: 0.915005785333; virus: WT" role="graphics-symbol" aria-roledescription="circle" transform="translate(161.52244606891372,16.998842933333336)" d="M2.5,0A2.5,2.5,0,1,1,-2.5,0A2.5,2.5,0,1,1,2.5,0" fill="black" stroke-width="2" opacity="1"/><path aria-label="Sera Dilution: 5e-4; Fraction Infectivity: 0.690769369667; virus: WT" role="graphics-symbol" aria-roledescription="circle" transform="translate(185.37850880489682,61.846126066666685)" d="M2.5,0A2.5,2.5,0,1,1,-2.5,0A2.5,2.5,0,1,1,2.5,0" fill="black" stroke-width="2" opacity="1"/><path aria-label="Sera Dilution: 2e-3; Fraction Infectivity: 0.381353771333; virus: WT" role="graphics-symbol" aria-roledescription="circle" transform="translate(209.37603604182314,123.72924573333334)" d="M2.5,0A2.5,2.5,0,1,1,-2.5,0A2.5,2.5,0,1,1,2.5,0" fill="black" stroke-width="2" opacity="1"/><path aria-label="Sera Dilution: 5e-3; Fraction Infectivity: 0.0430939963333; virus: WT" role="graphics-symbol" aria-roledescription="circle" transform="translate(233.27904955089764,191.38120073333334)" d="M2.5,0A2.5,2.5,0,1,1,-2.5,0A2.5,2.5,0,1,1,2.5,0" fill="black" stroke-width="2" opacity="1"/><path aria-label="Sera Dilution: 1e-2; Fraction Infectivity: 0.000182000333333; virus: WT" role="graphics-symbol" aria-roledescription="circle" transform="translate(257.13511228688077,199.9635999333333)" d="M2.5,0A2.5,2.5,0,1,1,-2.5,0A2.5,2.5,0,1,1,2.5,0" fill="black" stroke-width="2" opacity="1"/><path aria-label="Sera Dilution: 2e-6; Fraction Infectivity: 0.861481160667; virus: L184E" role="graphics-symbol" aria-roledescription="circle" transform="translate(65.05149978319908,27.703767866666663)" d="M2.5,0A2.5,2.5,0,1,1,-2.5,0A2.5,2.5,0,1,1,2.5,0" fill="#4E79A5" stroke-width="2" opacity="1"/><path aria-label="Sera Dilution: 1e-5; Fraction Infectivity: 0.917098232; virus: L184E" role="graphics-symbol" aria-roledescription="circle" transform="translate(100,16.58035360000001)" d="M2.5,0A2.5,2.5,0,1,1,-2.5,0A2.5,2.5,0,1,1,2.5,0" fill="#4E79A5" stroke-width="2" opacity="1"/><path aria-label="Sera Dilution: 2e-5; Fraction Infectivity: 0.860650802667; virus: L184E" role="graphics-symbol" aria-roledescription="circle" transform="translate(115.05149978319906,27.86983946666668)" d="M2.5,0A2.5,2.5,0,1,1,-2.5,0A2.5,2.5,0,1,1,2.5,0" fill="#4E79A5" stroke-width="2" opacity="1"/><path aria-label="Sera Dilution: 6e-5; Fraction Infectivity: 0.698654231333; virus: L184E" role="graphics-symbol" aria-roledescription="circle" transform="translate(138.90756251918216,60.26915373333335)" d="M2.5,0A2.5,2.5,0,1,1,-2.5,0A2.5,2.5,0,1,1,2.5,0" fill="#4E79A5" stroke-width="2" opacity="1"/><path aria-label="Sera Dilution: 2e-4; Fraction Infectivity: 0.630015602; virus: L184E" role="graphics-symbol" aria-roledescription="circle" transform="translate(161.52244606891372,73.99687960000001)" d="M2.5,0A2.5,2.5,0,1,1,-2.5,0A2.5,2.5,0,1,1,2.5,0" fill="#4E79A5" stroke-width="2" opacity="1"/><path aria-label="Sera Dilution: 5e-4; Fraction Infectivity: 0.441799059; virus: L184E" role="graphics-symbol" aria-roledescription="circle" transform="translate(185.37850880489682,111.64018819999998)" d="M2.5,0A2.5,2.5,0,1,1,-2.5,0A2.5,2.5,0,1,1,2.5,0" fill="#4E79A5" stroke-width="2" opacity="1"/><path aria-label="Sera Dilution: 2e-3; Fraction Infectivity: 0.177453822; virus: L184E" role="graphics-symbol" aria-roledescription="circle" transform="translate(209.37603604182314,164.50923559999998)" d="M2.5,0A2.5,2.5,0,1,1,-2.5,0A2.5,2.5,0,1,1,2.5,0" fill="#4E79A5" stroke-width="2" opacity="1"/><path aria-label="Sera Dilution: 5e-3; Fraction Infectivity: 0.00898996166667; virus: L184E" role="graphics-symbol" aria-roledescription="circle" transform="translate(233.27904955089764,198.20200766666667)" d="M2.5,0A2.5,2.5,0,1,1,-2.5,0A2.5,2.5,0,1,1,2.5,0" fill="#4E79A5" stroke-width="2" opacity="1"/><path aria-label="Sera Dilution: 1e-2; Fraction Infectivity: 0.000073539; virus: L184E" role="graphics-symbol" aria-roledescription="circle" transform="translate(257.13511228688077,199.9852922)" d="M2.5,0A2.5,2.5,0,1,1,-2.5,0A2.5,2.5,0,1,1,2.5,0" fill="#4E79A5" stroke-width="2" opacity="1"/><path aria-label="Sera Dilution: 2e-6; Fraction Infectivity: 0.884629130333; virus: I580S" role="graphics-symbol" aria-roledescription="circle" transform="translate(65.05149978319908,23.07417393333333)" d="M2.5,0A2.5,2.5,0,1,1,-2.5,0A2.5,2.5,0,1,1,2.5,0" fill="#EDC958" stroke-width="2" opacity="1"/><path aria-label="Sera Dilution: 1e-5; Fraction Infectivity: 0.897434955; virus: I580S" role="graphics-symbol" aria-roledescription="circle" transform="translate(100,20.513008999999993)" d="M2.5,0A2.5,2.5,0,1,1,-2.5,0A2.5,2.5,0,1,1,2.5,0" fill="#EDC958" stroke-width="2" opacity="1"/><path aria-label="Sera Dilution: 2e-5; Fraction Infectivity: 0.877572454667; virus: I580S" role="graphics-symbol" aria-roledescription="circle" transform="translate(115.05149978319906,24.485509066666644)" d="M2.5,0A2.5,2.5,0,1,1,-2.5,0A2.5,2.5,0,1,1,2.5,0" fill="#EDC958" stroke-width="2" opacity="1"/><path aria-label="Sera Dilution: 6e-5; Fraction Infectivity: 0.800709438; virus: I580S" role="graphics-symbol" aria-roledescription="circle" transform="translate(138.90756251918216,39.85811239999999)" d="M2.5,0A2.5,2.5,0,1,1,-2.5,0A2.5,2.5,0,1,1,2.5,0" fill="#EDC958" stroke-width="2" opacity="1"/><path aria-label="Sera Dilution: 2e-4; Fraction Infectivity: 0.716610096333; virus: I580S" role="graphics-symbol" aria-roledescription="circle" transform="translate(161.52244606891372,56.67798073333332)" d="M2.5,0A2.5,2.5,0,1,1,-2.5,0A2.5,2.5,0,1,1,2.5,0" fill="#EDC958" stroke-width="2" opacity="1"/><path aria-label="Sera Dilution: 5e-4; Fraction Infectivity: 0.473036351333; virus: I580S" role="graphics-symbol" aria-roledescription="circle" transform="translate(185.37850880489682,105.39272973333334)" d="M2.5,0A2.5,2.5,0,1,1,-2.5,0A2.5,2.5,0,1,1,2.5,0" fill="#EDC958" stroke-width="2" opacity="1"/><path aria-label="Sera Dilution: 2e-3; Fraction Infectivity: 0.121338821333; virus: I580S" role="graphics-symbol" aria-roledescription="circle" transform="translate(209.37603604182314,175.73223573333334)" d="M2.5,0A2.5,2.5,0,1,1,-2.5,0A2.5,2.5,0,1,1,2.5,0" fill="#EDC958" stroke-width="2" opacity="1"/><path aria-label="Sera Dilution: 5e-3; Fraction Infectivity: 0.00128856666667; virus: I580S" role="graphics-symbol" aria-roledescription="circle" transform="translate(233.27904955089764,199.74228666666667)" d="M2.5,0A2.5,2.5,0,1,1,-2.5,0A2.5,2.5,0,1,1,2.5,0" fill="#EDC958" stroke-width="2" opacity="1"/><path aria-label="Sera Dilution: 1e-2; Fraction Infectivity: 0.0000388666666667; virus: I580S" role="graphics-symbol" aria-roledescription="circle" transform="translate(257.13511228688077,199.99222666666668)" d="M2.5,0A2.5,2.5,0,1,1,-2.5,0A2.5,2.5,0,1,1,2.5,0" fill="#EDC958" stroke-width="2" opacity="1"/><path aria-label="Sera Dilution: 2e-6; Fraction Infectivity: 0.865251891; virus: N586Y" role="graphics-symbol" aria-roledescription="circle" transform="translate(65.05149978319908,26.949621799999978)" d="M2.5,0A2.5,2.5,0,1,1,-2.5,0A2.5,2.5,0,1,1,2.5,0" fill="#AF7AA0" stroke-width="2" opacity="1"/><path aria-label="Sera Dilution: 1e-5; Fraction Infectivity: 0.818353192; virus: N586Y" role="graphics-symbol" aria-roledescription="circle" transform="translate(100,36.3293616)" d="M2.5,0A2.5,2.5,0,1,1,-2.5,0A2.5,2.5,0,1,1,2.5,0" fill="#AF7AA0" stroke-width="2" opacity="1"/><path aria-label="Sera Dilution: 2e-5; Fraction Infectivity: 0.753144327667; virus: N586Y" role="graphics-symbol" aria-roledescription="circle" transform="translate(115.05149978319906,49.371134466666675)" d="M2.5,0A2.5,2.5,0,1,1,-2.5,0A2.5,2.5,0,1,1,2.5,0" fill="#AF7AA0" stroke-width="2" opacity="1"/><path aria-label="Sera Dilution: 6e-5; Fraction Infectivity: 0.690888537; virus: N586Y" role="graphics-symbol" aria-roledescription="circle" transform="translate(138.90756251918216,61.822292600000026)" d="M2.5,0A2.5,2.5,0,1,1,-2.5,0A2.5,2.5,0,1,1,2.5,0" fill="#AF7AA0" stroke-width="2" opacity="1"/><path aria-label="Sera Dilution: 2e-4; Fraction Infectivity: 0.487685219; virus: N586Y" role="graphics-symbol" aria-roledescription="circle" transform="translate(161.52244606891372,102.4629562)" d="M2.5,0A2.5,2.5,0,1,1,-2.5,0A2.5,2.5,0,1,1,2.5,0" fill="#AF7AA0" stroke-width="2" opacity="1"/><path aria-label="Sera Dilution: 5e-4; Fraction Infectivity: 0.206390559; virus: N586Y" role="graphics-symbol" aria-roledescription="circle" transform="translate(185.37850880489682,158.7218882)" d="M2.5,0A2.5,2.5,0,1,1,-2.5,0A2.5,2.5,0,1,1,2.5,0" fill="#AF7AA0" stroke-width="2" opacity="1"/><path aria-label="Sera Dilution: 2e-3; Fraction Infectivity: 0.0182178113333; virus: N586Y" role="graphics-symbol" aria-roledescription="circle" transform="translate(209.37603604182314,196.35643773333334)" d="M2.5,0A2.5,2.5,0,1,1,-2.5,0A2.5,2.5,0,1,1,2.5,0" fill="#AF7AA0" stroke-width="2" opacity="1"/><path aria-label="Sera Dilution: 5e-3; Fraction Infectivity: 0.000097939; virus: N586Y" role="graphics-symbol" aria-roledescription="circle" transform="translate(233.27904955089764,199.9804122)" d="M2.5,0A2.5,2.5,0,1,1,-2.5,0A2.5,2.5,0,1,1,2.5,0" fill="#AF7AA0" stroke-width="2" opacity="1"/><path aria-label="Sera Dilution: 1e-2; Fraction Infectivity: 0.0000217666666667; virus: N586Y" role="graphics-symbol" aria-roledescription="circle" transform="translate(257.13511228688077,199.99564666666666)" d="M2.5,0A2.5,2.5,0,1,1,-2.5,0A2.5,2.5,0,1,1,2.5,0" fill="#AF7AA0" stroke-width="2" opacity="1"/><path aria-label="Sera Dilution: 2e-6; Fraction Infectivity: 0.855798687333; virus: P403K" role="graphics-symbol" aria-roledescription="circle" transform="translate(65.05149978319908,28.840262533333316)" d="M2.5,0A2.5,2.5,0,1,1,-2.5,0A2.5,2.5,0,1,1,2.5,0" fill="#77B7B2" stroke-width="2" opacity="1"/><path aria-label="Sera Dilution: 1e-5; Fraction Infectivity: 0.813951123333; virus: P403K" role="graphics-symbol" aria-roledescription="circle" transform="translate(100,37.20977533333334)" d="M2.5,0A2.5,2.5,0,1,1,-2.5,0A2.5,2.5,0,1,1,2.5,0" fill="#77B7B2" stroke-width="2" opacity="1"/><path aria-label="Sera Dilution: 2e-5; Fraction Infectivity: 0.768733295333; virus: P403K" role="graphics-symbol" aria-roledescription="circle" transform="translate(115.05149978319906,46.253340933333334)" d="M2.5,0A2.5,2.5,0,1,1,-2.5,0A2.5,2.5,0,1,1,2.5,0" fill="#77B7B2" stroke-width="2" opacity="1"/><path aria-label="Sera Dilution: 6e-5; Fraction Infectivity: 0.830353749667; virus: P403K" role="graphics-symbol" aria-roledescription="circle" transform="translate(138.90756251918216,33.92925006666667)" d="M2.5,0A2.5,2.5,0,1,1,-2.5,0A2.5,2.5,0,1,1,2.5,0" fill="#77B7B2" stroke-width="2" opacity="1"/><path aria-label="Sera Dilution: 2e-4; Fraction Infectivity: 0.742106860667; virus: P403K" role="graphics-symbol" aria-roledescription="circle" transform="translate(161.52244606891372,51.57862786666667)" d="M2.5,0A2.5,2.5,0,1,1,-2.5,0A2.5,2.5,0,1,1,2.5,0" fill="#77B7B2" stroke-width="2" opacity="1"/><path aria-label="Sera Dilution: 5e-4; Fraction Infectivity: 0.598826075333; virus: P403K" role="graphics-symbol" aria-roledescription="circle" transform="translate(185.37850880489682,80.23478493333333)" d="M2.5,0A2.5,2.5,0,1,1,-2.5,0A2.5,2.5,0,1,1,2.5,0" fill="#77B7B2" stroke-width="2" opacity="1"/><path aria-label="Sera Dilution: 2e-3; Fraction Infectivity: 0.296429285; virus: P403K" role="graphics-symbol" aria-roledescription="circle" transform="translate(209.37603604182314,140.71414299999998)" d="M2.5,0A2.5,2.5,0,1,1,-2.5,0A2.5,2.5,0,1,1,2.5,0" fill="#77B7B2" stroke-width="2" opacity="1"/><path aria-label="Sera Dilution: 5e-3; Fraction Infectivity: 0.0284944853333; virus: P403K" role="graphics-symbol" aria-roledescription="circle" transform="translate(233.27904955089764,194.30110293333334)" d="M2.5,0A2.5,2.5,0,1,1,-2.5,0A2.5,2.5,0,1,1,2.5,0" fill="#77B7B2" stroke-width="2" opacity="1"/><path aria-label="Sera Dilution: 1e-2; Fraction Infectivity: 0.0000900183; virus: P403K" role="graphics-symbol" aria-roledescription="circle" transform="translate(257.13511228688077,199.98199634)" d="M2.5,0A2.5,2.5,0,1,1,-2.5,0A2.5,2.5,0,1,1,2.5,0" fill="#77B7B2" stroke-width="2" opacity="1"/><path aria-label="Sera Dilution: 2e-6; Fraction Infectivity: 0.816685494667; virus: N529H" role="graphics-symbol" aria-roledescription="circle" transform="translate(65.05149978319908,36.662901066666656)" d="M2.5,0A2.5,2.5,0,1,1,-2.5,0A2.5,2.5,0,1,1,2.5,0" fill="#5AA155" stroke-width="2" opacity="1"/><path aria-label="Sera Dilution: 1e-5; Fraction Infectivity: 0.801489585; virus: N529H" role="graphics-symbol" aria-roledescription="circle" transform="translate(100,39.702083)" d="M2.5,0A2.5,2.5,0,1,1,-2.5,0A2.5,2.5,0,1,1,2.5,0" fill="#5AA155" stroke-width="2" opacity="1"/><path aria-label="Sera Dilution: 2e-5; Fraction Infectivity: 0.724273883667; virus: N529H" role="graphics-symbol" aria-roledescription="circle" transform="translate(115.05149978319906,55.14522326666666)" d="M2.5,0A2.5,2.5,0,1,1,-2.5,0A2.5,2.5,0,1,1,2.5,0" fill="#5AA155" stroke-width="2" opacity="1"/><path aria-label="Sera Dilution: 6e-5; Fraction Infectivity: 0.718681427; virus: N529H" role="graphics-symbol" aria-roledescription="circle" transform="translate(138.90756251918216,56.263714600000014)" d="M2.5,0A2.5,2.5,0,1,1,-2.5,0A2.5,2.5,0,1,1,2.5,0" fill="#5AA155" stroke-width="2" opacity="1"/><path aria-label="Sera Dilution: 2e-4; Fraction Infectivity: 0.628897667667; virus: N529H" role="graphics-symbol" aria-roledescription="circle" transform="translate(161.52244606891372,74.22046646666666)" d="M2.5,0A2.5,2.5,0,1,1,-2.5,0A2.5,2.5,0,1,1,2.5,0" fill="#5AA155" stroke-width="2" opacity="1"/><path aria-label="Sera Dilution: 5e-4; Fraction Infectivity: 0.378399171333; virus: N529H" role="graphics-symbol" aria-roledescription="circle" transform="translate(185.37850880489682,124.32016573333331)" d="M2.5,0A2.5,2.5,0,1,1,-2.5,0A2.5,2.5,0,1,1,2.5,0" fill="#5AA155" stroke-width="2" opacity="1"/><path aria-label="Sera Dilution: 2e-3; Fraction Infectivity: 0.114116694333; virus: N529H" role="graphics-symbol" aria-roledescription="circle" transform="translate(209.37603604182314,177.1766611333333)" d="M2.5,0A2.5,2.5,0,1,1,-2.5,0A2.5,2.5,0,1,1,2.5,0" fill="#5AA155" stroke-width="2" opacity="1"/><path aria-label="Sera Dilution: 5e-3; Fraction Infectivity: 0.002168295; virus: N529H" role="graphics-symbol" aria-roledescription="circle" transform="translate(233.27904955089764,199.566341)" d="M2.5,0A2.5,2.5,0,1,1,-2.5,0A2.5,2.5,0,1,1,2.5,0" fill="#5AA155" stroke-width="2" opacity="1"/><path aria-label="Sera Dilution: 1e-2; Fraction Infectivity: 0.0000768288; virus: N529H" role="graphics-symbol" aria-roledescription="circle" transform="translate(257.13511228688077,199.98463424)" d="M2.5,0A2.5,2.5,0,1,1,-2.5,0A2.5,2.5,0,1,1,2.5,0" fill="#5AA155" stroke-width="2" opacity="1"/><path aria-label="Sera Dilution: 2e-6; Fraction Infectivity: 0.827201132333; virus: R344Y" role="graphics-symbol" aria-roledescription="circle" transform="translate(65.05149978319908,34.55977353333335)" d="M2.5,0A2.5,2.5,0,1,1,-2.5,0A2.5,2.5,0,1,1,2.5,0" fill="#F18F3B" stroke-width="2" opacity="1"/><path aria-label="Sera Dilution: 1e-5; Fraction Infectivity: 0.882329022667; virus: R344Y" role="graphics-symbol" aria-roledescription="circle" transform="translate(100,23.534195466666663)" d="M2.5,0A2.5,2.5,0,1,1,-2.5,0A2.5,2.5,0,1,1,2.5,0" fill="#F18F3B" stroke-width="2" opacity="1"/><path aria-label="Sera Dilution: 2e-5; Fraction Infectivity: 0.757392858333; virus: R344Y" role="graphics-symbol" aria-roledescription="circle" transform="translate(115.05149978319906,48.52142833333335)" d="M2.5,0A2.5,2.5,0,1,1,-2.5,0A2.5,2.5,0,1,1,2.5,0" fill="#F18F3B" stroke-width="2" opacity="1"/><path aria-label="Sera Dilution: 6e-5; Fraction Infectivity: 0.872883100333; virus: R344Y" role="graphics-symbol" aria-roledescription="circle" transform="translate(138.90756251918216,25.423379933333322)" d="M2.5,0A2.5,2.5,0,1,1,-2.5,0A2.5,2.5,0,1,1,2.5,0" fill="#F18F3B" stroke-width="2" opacity="1"/><path aria-label="Sera Dilution: 2e-4; Fraction Infectivity: 0.742636945667; virus: R344Y" role="graphics-symbol" aria-roledescription="circle" transform="translate(161.52244606891372,51.472610866666656)" d="M2.5,0A2.5,2.5,0,1,1,-2.5,0A2.5,2.5,0,1,1,2.5,0" fill="#F18F3B" stroke-width="2" opacity="1"/><path aria-label="Sera Dilution: 5e-4; Fraction Infectivity: 0.611717839667; virus: R344Y" role="graphics-symbol" aria-roledescription="circle" transform="translate(185.37850880489682,77.65643206666668)" d="M2.5,0A2.5,2.5,0,1,1,-2.5,0A2.5,2.5,0,1,1,2.5,0" fill="#F18F3B" stroke-width="2" opacity="1"/><path aria-label="Sera Dilution: 2e-3; Fraction Infectivity: 0.182085178333; virus: R344Y" role="graphics-symbol" aria-roledescription="circle" transform="translate(209.37603604182314,163.58296433333334)" d="M2.5,0A2.5,2.5,0,1,1,-2.5,0A2.5,2.5,0,1,1,2.5,0" fill="#F18F3B" stroke-width="2" opacity="1"/><path aria-label="Sera Dilution: 5e-3; Fraction Infectivity: 0.00630612766667; virus: R344Y" role="graphics-symbol" aria-roledescription="circle" transform="translate(233.27904955089764,198.73877446666665)" d="M2.5,0A2.5,2.5,0,1,1,-2.5,0A2.5,2.5,0,1,1,2.5,0" fill="#F18F3B" stroke-width="2" opacity="1"/><path aria-label="Sera Dilution: 1e-2; Fraction Infectivity: 0.0001014244; virus: R344Y" role="graphics-symbol" aria-roledescription="circle" transform="translate(257.13511228688077,199.97971511999998)" d="M2.5,0A2.5,2.5,0,1,1,-2.5,0A2.5,2.5,0,1,1,2.5,0" fill="#F18F3B" stroke-width="2" opacity="1"/><path aria-label="Sera Dilution: 2e-6; Fraction Infectivity: 0.805202765667; virus: E393W" role="graphics-symbol" aria-roledescription="circle" transform="translate(65.05149978319908,38.95944686666668)" d="M2.5,0A2.5,2.5,0,1,1,-2.5,0A2.5,2.5,0,1,1,2.5,0" fill="#E0585B" stroke-width="2" opacity="1"/><path aria-label="Sera Dilution: 1e-5; Fraction Infectivity: 0.823038622667; virus: E393W" role="graphics-symbol" aria-roledescription="circle" transform="translate(100,35.39227546666665)" d="M2.5,0A2.5,2.5,0,1,1,-2.5,0A2.5,2.5,0,1,1,2.5,0" fill="#E0585B" stroke-width="2" opacity="1"/><path aria-label="Sera Dilution: 2e-5; Fraction Infectivity: 0.749120792; virus: E393W" role="graphics-symbol" aria-roledescription="circle" transform="translate(115.05149978319906,50.17584160000001)" d="M2.5,0A2.5,2.5,0,1,1,-2.5,0A2.5,2.5,0,1,1,2.5,0" fill="#E0585B" stroke-width="2" opacity="1"/><path aria-label="Sera Dilution: 6e-5; Fraction Infectivity: 0.698034177; virus: E393W" role="graphics-symbol" aria-roledescription="circle" transform="translate(138.90756251918216,60.39316460000001)" d="M2.5,0A2.5,2.5,0,1,1,-2.5,0A2.5,2.5,0,1,1,2.5,0" fill="#E0585B" stroke-width="2" opacity="1"/><path aria-label="Sera Dilution: 2e-4; Fraction Infectivity: 0.53334892; virus: E393W" role="graphics-symbol" aria-roledescription="circle" transform="translate(161.52244606891372,93.330216)" d="M2.5,0A2.5,2.5,0,1,1,-2.5,0A2.5,2.5,0,1,1,2.5,0" fill="#E0585B" stroke-width="2" opacity="1"/><path aria-label="Sera Dilution: 5e-4; Fraction Infectivity: 0.402522547; virus: E393W" role="graphics-symbol" aria-roledescription="circle" transform="translate(185.37850880489682,119.4954906)" d="M2.5,0A2.5,2.5,0,1,1,-2.5,0A2.5,2.5,0,1,1,2.5,0" fill="#E0585B" stroke-width="2" opacity="1"/><path aria-label="Sera Dilution: 2e-3; Fraction Infectivity: 0.0949377226667; virus: E393W" role="graphics-symbol" aria-roledescription="circle" transform="translate(209.37603604182314,181.01245546666667)" d="M2.5,0A2.5,2.5,0,1,1,-2.5,0A2.5,2.5,0,1,1,2.5,0" fill="#E0585B" stroke-width="2" opacity="1"/><path aria-label="Sera Dilution: 5e-3; Fraction Infectivity: 0.000535730666667; virus: E393W" role="graphics-symbol" aria-roledescription="circle" transform="translate(233.27904955089764,199.89285386666666)" d="M2.5,0A2.5,2.5,0,1,1,-2.5,0A2.5,2.5,0,1,1,2.5,0" fill="#E0585B" stroke-width="2" opacity="1"/><path aria-label="Sera Dilution: 1e-2; Fraction Infectivity: 0.0000780584666667; virus: E393W" role="graphics-symbol" aria-roledescription="circle" transform="translate(257.13511228688077,199.98438830666666)" d="M2.5,0A2.5,2.5,0,1,1,-2.5,0A2.5,2.5,0,1,1,2.5,0" fill="#E0585B" stroke-width="2" opacity="1"/></g><g class="mark-group role-legend" role="graphics-symbol" aria-roledescription="legend" aria-label="Symbol legend titled 'Virus' for fill color and stroke color with 8 values: WT, L184E, R344Y, E393W, P403K, ending with N586Y"><g transform="translate(318,0)"><path class="background" aria-hidden="true" d="M0,0h74v155h-74Z" pointer-events="none"/><g><g class="mark-group role-legend-entry"><g transform="translate(5,24)"><path class="background" aria-hidden="true" d="M0,0h0v0h0Z" pointer-events="none"/><g><g class="mark-group role-scope" role="graphics-object" aria-roledescription="group mark container"><g transform="translate(0,0)"><path class="background" aria-hidden="true" d="M0,0h63.91015625v14h-63.91015625Z" pointer-events="none" opacity="1"/><g><g class="mark-symbol role-legend-symbol" pointer-events="none"><path transform="translate(7,7)" d="M5,0A5,5,0,1,1,-5,0A5,5,0,1,1,5,0" fill="black" stroke="black" stroke-width="1.5" opacity="1"/></g><g class="mark-text role-legend-label" pointer-events="none"><text text-anchor="start" transform="translate(18,11)" font-family="sans-serif" font-size="14px" font-weight="light" fill="#000" opacity="1">WT</text></g></g><path class="foreground" aria-hidden="true" d="" pointer-events="none" display="none"/></g><g transform="translate(0,16)"><path class="background" aria-hidden="true" d="M0,0h63.91015625v14h-63.91015625Z" pointer-events="none" opacity="1"/><g><g class="mark-symbol role-legend-symbol" pointer-events="none"><path transform="translate(7,7)" d="M5,0A5,5,0,1,1,-5,0A5,5,0,1,1,5,0" fill="#4E79A5" stroke="#4E79A5" stroke-width="1.5" opacity="1"/></g><g class="mark-text role-legend-label" pointer-events="none"><text text-anchor="start" transform="translate(18,11)" font-family="sans-serif" font-size="14px" font-weight="light" fill="#000" opacity="1">L184E</text></g></g><path class="foreground" aria-hidden="true" d="" pointer-events="none" display="none"/></g><g transform="translate(0,32)"><path class="background" aria-hidden="true" d="M0,0h63.91015625v14h-63.91015625Z" pointer-events="none" opacity="1"/><g><g class="mark-symbol role-legend-symbol" pointer-events="none"><path transform="translate(7,7)" d="M5,0A5,5,0,1,1,-5,0A5,5,0,1,1,5,0" fill="#F18F3B" stroke="#F18F3B" stroke-width="1.5" opacity="1"/></g><g class="mark-text role-legend-label" pointer-events="none"><text text-anchor="start" transform="translate(18,11)" font-family="sans-serif" font-size="14px" font-weight="light" fill="#000" opacity="1">R344Y</text></g></g><path class="foreground" aria-hidden="true" d="" pointer-events="none" display="none"/></g><g transform="translate(0,48)"><path class="background" aria-hidden="true" d="M0,0h63.91015625v14h-63.91015625Z" pointer-events="none" opacity="1"/><g><g class="mark-symbol role-legend-symbol" pointer-events="none"><path transform="translate(7,7)" d="M5,0A5,5,0,1,1,-5,0A5,5,0,1,1,5,0" fill="#E0585B" stroke="#E0585B" stroke-width="1.5" opacity="1"/></g><g class="mark-text role-legend-label" pointer-events="none"><text text-anchor="start" transform="translate(18,11)" font-family="sans-serif" font-size="14px" font-weight="light" fill="#000" opacity="1">E393W</text></g></g><path class="foreground" aria-hidden="true" d="" pointer-events="none" display="none"/></g><g transform="translate(0,64)"><path class="background" aria-hidden="true" d="M0,0h63.91015625v14h-63.91015625Z" pointer-events="none" opacity="1"/><g><g class="mark-symbol role-legend-symbol" pointer-events="none"><path transform="translate(7,7)" d="M5,0A5,5,0,1,1,-5,0A5,5,0,1,1,5,0" fill="#77B7B2" stroke="#77B7B2" stroke-width="1.5" opacity="1"/></g><g class="mark-text role-legend-label" pointer-events="none"><text text-anchor="start" transform="translate(18,11)" font-family="sans-serif" font-size="14px" font-weight="light" fill="#000" opacity="1">P403K</text></g></g><path class="foreground" aria-hidden="true" d="" pointer-events="none" display="none"/></g><g transform="translate(0,80)"><path class="background" aria-hidden="true" d="M0,0h63.91015625v14h-63.91015625Z" pointer-events="none" opacity="1"/><g><g class="mark-symbol role-legend-symbol" pointer-events="none"><path transform="translate(7,7)" d="M5,0A5,5,0,1,1,-5,0A5,5,0,1,1,5,0" fill="#5AA155" stroke="#5AA155" stroke-width="1.5" opacity="1"/></g><g class="mark-text role-legend-label" pointer-events="none"><text text-anchor="start" transform="translate(18,11)" font-family="sans-serif" font-size="14px" font-weight="light" fill="#000" opacity="1">N529H</text></g></g><path class="foreground" aria-hidden="true" d="" pointer-events="none" display="none"/></g><g transform="translate(0,96)"><path class="background" aria-hidden="true" d="M0,0h63.91015625v14h-63.91015625Z" pointer-events="none" opacity="1"/><g><g class="mark-symbol role-legend-symbol" pointer-events="none"><path transform="translate(7,7)" d="M5,0A5,5,0,1,1,-5,0A5,5,0,1,1,5,0" fill="#EDC958" stroke="#EDC958" stroke-width="1.5" opacity="1"/></g><g class="mark-text role-legend-label" pointer-events="none"><text text-anchor="start" transform="translate(18,11)" font-family="sans-serif" font-size="14px" font-weight="light" fill="#000" opacity="1">I580S</text></g></g><path class="foreground" aria-hidden="true" d="" pointer-events="none" display="none"/></g><g transform="translate(0,112)"><path class="background" aria-hidden="true" d="M0,0h63.91015625v14h-63.91015625Z" pointer-events="none" opacity="1"/><g><g class="mark-symbol role-legend-symbol" pointer-events="none"><path transform="translate(7,7)" d="M5,0A5,5,0,1,1,-5,0A5,5,0,1,1,5,0" fill="#AF7AA0" stroke="#AF7AA0" stroke-width="1.5" opacity="1"/></g><g class="mark-text role-legend-label" pointer-events="none"><text text-anchor="start" transform="translate(18,11)" font-family="sans-serif" font-size="14px" font-weight="light" fill="#000" opacity="1">N586Y</text></g></g><path class="foreground" aria-hidden="true" d="" pointer-events="none" display="none"/></g></g></g><path class="foreground" aria-hidden="true" d="" pointer-events="none" display="none"/></g></g><g class="mark-text role-legend-title" pointer-events="none"><text text-anchor="start" transform="translate(5,16)" font-family="sans-serif" font-size="14px" font-weight="bold" fill="#000" opacity="1">Virus</text></g></g><path class="foreground" aria-hidden="true" d="" pointer-events="none" display="none"/></g></g></g><path class="foreground" aria-hidden="true" d="" display="none"/></g></g></g></svg>