<svg xmlns="http://www.w3.org/2000/svg" xmlns:xlink="http://www.w3.org/1999/xlink" version="1.1" class="marks" width="528" height="269" viewBox="0 0 528 269"><rect width="528" height="269" fill="white"/><g fill="none" stroke-miterlimit="10" transform="translate(50,25)"><g class="mark-group role-frame root" role="graphics-object" aria-roledescription="group mark container"><g transform="translate(0,0)"><path class="background" aria-hidden="true" d="M0,0h300v200h-300Z" stroke-width="0"/><g><g class="mark-group role-axis" role="graphics-symbol" aria-roledescription="axis" aria-label="X-axis titled 'Concentration (µM)' for a log scale with values from 1e-5 to 1e+0"><g transform="translate(0.5,200.5)"><path class="background" aria-hidden="true" d="M0,0h0v0h0Z" pointer-events="none"/><g><g class="mark-rule role-axis-tick" pointer-events="none"><line transform="translate(60,0)" x2="0" y2="4" stroke="black" stroke-width="1" opacity="1"/><line transform="translate(180,0)" x2="0" y2="4" stroke="black" stroke-width="1" opacity="1"/><line transform="translate(300,0)" x2="0" y2="4" stroke="black" stroke-width="1" opacity="1"/></g><g class="mark-text role-axis-label" pointer-events="none"><text text-anchor="middle" transform="translate(60.00000000000003,17)" font-family="Helvetica" font-size="14px" font-weight="normal" fill="#000" opacity="1">1e-4</text><text text-anchor="middle" transform="translate(180.00000000000003,17)" font-family="Helvetica" font-size="14px" font-weight="normal" fill="#000" opacity="1">1e-2</text><text text-anchor="middle" transform="translate(300,17)" font-family="Helvetica" font-size="14px" font-weight="normal" fill="#000" opacity="1">1e+0</text></g><g class="mark-rule role-axis-domain" pointer-events="none"><line transform="translate(0,0)" x2="300" y2="0" stroke="black" stroke-width="1" opacity="1"/></g><g class="mark-text role-axis-title" pointer-events="none"><text text-anchor="middle" transform="translate(150,36)" font-family="Helvetica" font-size="14px" font-weight="bold" fill="#000" opacity="1">Concentration (µM)</text></g></g><path class="foreground" aria-hidden="true" d="" pointer-events="none" display="none"/></g></g><g class="mark-group role-axis" role="graphics-symbol" aria-roledescription="axis" aria-label="Y-axis titled 'Fraction Infectivity' for a linear scale with values from 0.0 to 1.0"><g transform="translate(0.5,0.5)"><path class="background" aria-hidden="true" d="M0,0h0v0h0Z" pointer-events="none"/><g><g class="mark-rule role-axis-tick" pointer-events="none"><line transform="translate(0,200)" x2="-4" y2="0" stroke="black" stroke-width="1" opacity="1"/><line transform="translate(0,100)" x2="-4" y2="0" stroke="black" stroke-width="1" opacity="1"/><line transform="translate(0,0)" x2="-4" y2="0" stroke="black" stroke-width="1" opacity="1"/></g><g class="mark-text role-axis-label" pointer-events="none"><text text-anchor="end" transform="translate(-6,204)" font-family="Helvetica" font-size="14px" font-weight="normal" fill="#000" opacity="1">0.0</text><text text-anchor="end" transform="translate(-6,104)" font-family="Helvetica" font-size="14px" font-weight="normal" fill="#000" opacity="1">0.5</text><text text-anchor="end" transform="translate(-6,4)" font-family="Helvetica" font-size="14px" font-weight="normal" fill="#000" opacity="1">1.0</text></g><g class="mark-rule role-axis-domain" pointer-events="none"><line transform="translate(0,200)" x2="0" y2="-200" stroke="black" stroke-width="1" opacity="1"/></g><g class="mark-text role-axis-title" pointer-events="none"><text text-anchor="middle" transform="translate(-30.4619140625,100) rotate(-90) translate(0,-3)" font-family="Helvetica" font-size="14px" font-weight="bold" fill="#000" opacity="1">Fraction Infectivity</text></g></g><path class="foreground" aria-hidden="true" d="" pointer-events="none" display="none"/></g></g><g class="mark-group role-scope layer_0_pathgroup" role="graphics-object" aria-roledescription="group mark container"><g transform="translate(0,0)"><path class="background" aria-hidden="true" d="M0,0h300v200h-300Z"/><g><g class="mark-line role-mark layer_0_marks" role="graphics-object" aria-roledescription="line mark container"><path aria-label="Concentration (µM): 2e-5; Fraction Infectivity: 0.846913698922; Receptor: dimeric-bEFNB2" role="graphics-symbol" aria-roledescription="line mark" d="M19.164,30.617L20.371,32.69L21.579,34.873L22.787,37.17L23.995,39.582L25.203,42.111L26.41,44.755L27.618,47.516L28.826,50.392L30.034,53.381L31.241,56.48L32.449,59.686L33.657,62.994L34.865,66.399L36.073,69.893L37.28,73.471L38.488,77.123L39.193,79.284L39.696,80.841L40.904,84.614L42.112,88.433L43.319,92.286L44.527,96.163L45.735,100.051L46.943,103.939L48.15,107.815L49.358,111.668L50.566,115.486L51.774,119.258L52.982,122.974L54.189,126.624L55.397,130.2L56.605,133.692L57.813,137.094L59.021,140.4L60.228,143.603L61.436,146.699L62.644,149.685L63.852,152.558L65.06,155.316L66.267,157.957L67.475,160.483L67.626,160.79L68.683,162.892L69.891,165.186L71.098,167.366L72.306,169.436L73.514,171.396L74.722,173.251L75.93,175.003L77.137,176.656L78.345,178.213L79.553,179.678L80.761,181.055L81.969,182.348L83.176,183.56L84.384,184.697L85.592,185.761L86.8,186.756L88.007,187.686L89.215,188.555L90.423,189.366L91.631,190.123L92.839,190.828L94.046,191.486L95.254,192.098L96.318,192.602L96.462,192.668L97.67,193.198L98.878,193.691L100.085,194.149L101.293,194.575L102.501,194.971L103.709,195.339L104.916,195.68L106.124,195.997L107.332,196.291L108.54,196.564L109.748,196.817L110.955,197.052L112.163,197.269L113.371,197.471L114.579,197.658L115.787,197.832L116.994,197.992L118.202,198.141L119.41,198.279L120.618,198.407L121.825,198.525L123.033,198.635L124.241,198.736L124.967,198.794L125.449,198.831L126.657,198.918L127.864,198.998L129.072,199.073L130.28,199.142L131.488,199.206L132.696,199.265L133.903,199.32L135.111,199.371L136.319,199.418L137.527,199.461L138.734,199.501L139.942,199.539L141.15,199.573L142.358,199.605L143.566,199.634L144.773,199.662L145.981,199.687L147.189,199.71L148.397,199.732L149.605,199.752L150.812,199.771L152.02,199.788L153.228,199.804L153.602,199.808L154.436,199.818L155.643,199.832L156.851,199.845L158.059,199.856L159.267,199.867L160.475,199.877L161.682,199.886L162.89,199.895L164.098,199.902L165.306,199.91L166.514,199.917L167.721,199.923L168.929,199.929L170.137,199.934L171.345,199.939L172.552,199.943L173.76,199.948L174.968,199.952L176.176,199.955L177.384,199.959L178.591,199.962L179.799,199.965L181.007,199.967L182.215,199.97L182.229,199.97L183.423,199.972L184.63,199.974L185.838,199.976L187.046,199.978L188.254,199.979L189.461,199.981L190.669,199.982L191.877,199.984L193.085,199.985L194.293,199.986L195.5,199.987L196.708,199.988L197.916,199.989L199.124,199.99L200.332,199.991L201.539,199.991L202.747,199.992L203.955,199.993L205.163,199.993L206.37,199.994L207.578,199.994L208.786,199.995L209.994,199.995L210.857,199.995L211.202,199.995L212.409,199.996L213.617,199.996L214.825,199.996L216.033,199.997L217.241,199.997L218.448,199.997L219.656,199.997L220.864,199.997L222.072,199.998L223.279,199.998L224.487,199.998L225.695,199.998L226.903,199.998L228.111,199.998L229.318,199.999L230.526,199.999L231.734,199.999L232.942,199.999L234.15,199.999L235.357,199.999L236.565,199.999L237.773,199.999L238.981,199.999L239.484,199.999L240.188,199.999L241.396,199.999L242.604,199.999L243.812,199.999L245.02,199.999L246.227,200L247.435,200L248.643,200L249.851,200L251.059,200L252.266,200L253.474,200L254.682,200L255.89,200L257.097,200L258.305,200L259.513,200" stroke="#4e79a7" stroke-width="1.5"/></g></g><path class="foreground" aria-hidden="true" d="" display="none"/></g><g transform="translate(0,0)"><path class="background" aria-hidden="true" d="M0,0h300v200h-300Z"/><g><g class="mark-line role-mark layer_0_marks" role="graphics-object" aria-roledescription="line mark container"><path aria-label="Concentration (µM): 9e-5; Fraction Infectivity: 0.978063249486; Receptor: monomeric-bEFNB2" role="graphics-symbol" aria-roledescription="line mark" d="M58.038,4.387L59.246,4.631L60.453,4.887L61.661,5.158L62.868,5.443L64.076,5.743L65.283,6.06L66.49,6.393L67.698,6.744L68.905,7.113L70.113,7.502L71.32,7.912L72.528,8.342L73.735,8.795L74.943,9.272L76.15,9.773L77.357,10.299L78.062,10.619L78.565,10.853L79.772,11.434L80.98,12.045L82.187,12.685L83.395,13.358L84.602,14.063L85.81,14.803L87.017,15.579L88.224,16.391L89.432,17.242L90.639,18.133L91.847,19.065L93.054,20.039L94.262,21.058L95.469,22.121L96.677,23.232L97.884,24.391L99.091,25.599L100.299,26.858L101.506,28.169L102.714,29.533L103.921,30.951L105.129,32.424L106.336,33.954L106.689,34.411L107.544,35.54L108.751,37.183L109.958,38.885L111.166,40.645L112.373,42.464L113.581,44.341L114.788,46.277L115.996,48.272L117.203,50.324L118.411,52.433L119.618,54.599L120.825,56.819L122.033,59.094L123.24,61.42L124.448,63.796L125.655,66.22L126.863,68.69L128.07,71.203L129.278,73.756L130.485,76.347L131.692,78.971L132.9,81.626L134.107,84.309L135.171,86.692L135.315,87.014L136.522,89.74L137.73,92.48L138.937,95.232L140.145,97.992L141.352,100.754L142.559,103.515L143.767,106.271L144.974,109.018L146.182,111.75L147.389,114.465L148.597,117.159L149.804,119.827L151.012,122.466L152.219,125.072L153.426,127.643L154.634,130.174L155.841,132.664L157.049,135.109L158.256,137.508L159.464,139.857L160.671,142.155L161.878,144.4L163.086,146.59L163.798,147.857L164.293,148.725L165.501,150.803L166.708,152.824L167.916,154.787L169.123,156.691L170.331,158.536L171.538,160.323L172.745,162.051L173.953,163.721L175.16,165.333L176.368,166.888L177.575,168.387L178.783,169.83L179.99,171.218L181.198,172.553L182.405,173.835L183.612,175.067L184.82,176.248L186.027,177.38L187.235,178.465L188.442,179.504L189.65,180.498L190.857,181.449L192.065,182.359L192.41,182.611L193.272,183.227L194.479,184.057L195.687,184.849L196.894,185.605L198.102,186.326L199.309,187.013L200.517,187.668L201.724,188.292L202.932,188.887L204.139,189.453L205.346,189.991L206.554,190.504L207.761,190.991L208.969,191.455L210.176,191.896L211.384,192.314L212.591,192.713L213.799,193.091L215.006,193.45L216.213,193.791L217.421,194.115L218.628,194.423L219.836,194.714L221.042,194.991L221.043,194.991L222.251,195.254L223.458,195.504L224.666,195.74L225.873,195.965L227.08,196.177L228.288,196.379L229.495,196.57L230.703,196.752L231.91,196.924L233.118,197.087L234.325,197.241L235.533,197.387L236.74,197.526L237.947,197.658L239.155,197.782L240.362,197.9L241.57,198.012L242.777,198.118L243.985,198.218L245.192,198.313L246.4,198.403L247.607,198.488L248.814,198.569L249.669,198.623L250.022,198.645L251.229,198.718L252.437,198.786L253.644,198.851L254.852,198.912L256.059,198.971L257.267,199.026L258.474,199.078L259.681,199.127L260.889,199.174L262.096,199.218L263.304,199.26L264.511,199.3L265.719,199.337L266.926,199.373L268.134,199.406L269.341,199.438L270.548,199.468L271.756,199.497L272.963,199.524L274.171,199.549L275.378,199.573L276.586,199.596L277.793,199.618L278.296,199.627L279.001,199.638L280.208,199.658L281.415,199.676L282.623,199.694L283.83,199.71L285.038,199.726L286.245,199.74L287.453,199.754L288.66,199.767L289.868,199.78L291.075,199.792L292.282,199.803L293.49,199.814L294.697,199.824L295.905,199.833L297.112,199.842L298.32,199.851" stroke="#e15759" stroke-width="1.5"/></g></g><path class="foreground" aria-hidden="true" d="" display="none"/></g><g transform="translate(0,0)"><path class="background" aria-hidden="true" d="M0,0h300v200h-300Z"/><g><g class="mark-line role-mark layer_0_marks" role="graphics-object" aria-roledescription="line mark container"><path aria-label="Concentration (µM): 2e-5; Fraction Infectivity: 0.987418003646; Receptor: dimeric-bEFNB3" role="graphics-symbol" aria-roledescription="line mark" d="M19.164,2.516L20.371,2.652L21.579,2.795L22.787,2.946L23.995,3.105L25.203,3.272L26.41,3.447L27.618,3.633L28.826,3.827L30.034,4.033L31.241,4.248L32.449,4.476L33.657,4.715L34.865,4.966L36.073,5.231L37.28,5.509L38.488,5.801L39.193,5.979L39.696,6.109L40.904,6.433L42.112,6.772L43.319,7.13L44.527,7.505L45.735,7.899L46.943,8.313L48.15,8.748L49.358,9.205L50.566,9.684L51.774,10.187L52.982,10.714L54.189,11.267L55.397,11.847L56.605,12.454L57.813,13.091L59.021,13.758L60.228,14.456L61.436,15.186L62.644,15.951L63.852,16.75L65.06,17.586L66.267,18.459L67.475,19.371L67.626,19.488L68.683,20.323L69.891,21.316L71.098,22.352L72.306,23.431L73.514,24.555L74.722,25.726L75.93,26.943L77.137,28.209L78.345,29.524L79.553,30.89L80.761,32.306L81.969,33.775L83.176,35.296L84.384,36.871L85.592,38.5L86.8,40.182L88.007,41.919L89.215,43.711L90.423,45.557L91.631,47.458L92.839,49.413L94.046,51.42L95.254,53.481L96.318,55.339L96.462,55.593L97.67,57.756L98.878,59.968L100.085,62.227L101.293,64.533L102.501,66.882L103.709,69.273L104.916,71.704L106.124,74.171L107.332,76.673L108.54,79.206L109.748,81.767L110.955,84.353L112.163,86.961L113.371,89.587L114.579,92.227L115.787,94.879L116.994,97.537L118.202,100.2L119.41,102.862L120.618,105.519L121.825,108.169L123.033,110.808L124.241,113.431L124.967,115L125.449,116.036L126.657,118.619L127.864,121.176L129.072,123.704L130.28,126.201L131.488,128.663L132.696,131.088L133.903,133.473L135.111,135.816L136.319,138.115L137.527,140.367L138.734,142.572L139.942,144.727L141.15,146.831L142.358,148.884L143.566,150.884L144.773,152.83L145.981,154.723L147.189,156.561L148.397,158.344L149.605,160.074L150.812,161.748L152.02,163.369L153.228,164.935L153.602,165.409L154.436,166.449L155.643,167.909L156.851,169.318L158.059,170.676L159.267,171.984L160.475,173.243L161.682,174.453L162.89,175.616L164.098,176.734L165.306,177.806L166.514,178.836L167.721,179.822L168.929,180.768L170.137,181.674L171.345,182.542L172.552,183.372L173.76,184.166L174.968,184.925L176.176,185.651L177.384,186.344L178.591,187.006L179.799,187.639L181.007,188.242L182.215,188.818L182.229,188.824L183.423,189.367L184.63,189.89L185.838,190.389L187.046,190.865L188.254,191.318L189.461,191.75L190.669,192.161L191.877,192.552L193.085,192.925L194.293,193.28L195.5,193.617L196.708,193.938L197.916,194.243L199.124,194.534L200.332,194.81L201.539,195.072L202.747,195.322L203.955,195.559L205.163,195.785L206.37,195.999L207.578,196.202L208.786,196.396L209.994,196.58L210.857,196.705L211.202,196.754L212.409,196.92L213.617,197.077L214.825,197.227L216.033,197.369L217.241,197.503L218.448,197.631L219.656,197.753L220.864,197.868L222.072,197.978L223.279,198.081L224.487,198.18L225.695,198.274L226.903,198.362L228.111,198.447L229.318,198.527L230.526,198.602L231.734,198.674L232.942,198.743L234.15,198.808L235.357,198.869L236.565,198.927L237.773,198.983L238.981,199.035L239.484,199.056L240.188,199.085L241.396,199.132L242.604,199.177L243.812,199.22L245.02,199.26L246.227,199.298L247.435,199.334L248.643,199.369L249.851,199.402L251.059,199.432L252.266,199.462L253.474,199.49L254.682,199.516L255.89,199.541L257.097,199.565L258.305,199.587L259.513,199.609" stroke="#f28e2c" stroke-width="1.5"/></g></g><path class="foreground" aria-hidden="true" d="" display="none"/></g><g transform="translate(0,0)"><path class="background" aria-hidden="true" d="M0,0h300v200h-300Z"/><g><g class="mark-line role-mark layer_0_marks" role="graphics-object" aria-roledescription="line mark container"><path aria-label="Concentration (µM): 9e-5; Fraction Infectivity: 0.999807113927; Receptor: monomeric-bEFNB3" role="graphics-symbol" aria-roledescription="line mark" d="M58.038,0.039L59.246,0.04L60.453,0.041L61.661,0.043L62.868,0.044L64.076,0.046L65.283,0.048L66.49,0.049L67.698,0.051L68.905,0.053L70.113,0.055L71.32,0.057L72.528,0.059L73.735,0.061L74.943,0.063L76.15,0.066L77.357,0.068L78.062,0.069L78.565,0.07L79.772,0.073L80.98,0.076L82.187,0.078L83.395,0.081L84.602,0.084L85.81,0.087L87.017,0.09L88.224,0.094L89.432,0.097L90.639,0.1L91.847,0.104L93.054,0.108L94.262,0.112L95.469,0.116L96.677,0.12L97.884,0.124L99.091,0.129L100.299,0.133L101.506,0.138L102.714,0.143L103.921,0.148L105.129,0.154L106.336,0.159L106.689,0.161L107.544,0.165L108.751,0.171L109.958,0.177L111.166,0.183L112.373,0.19L113.581,0.197L114.788,0.204L115.996,0.211L117.203,0.219L118.411,0.227L119.618,0.235L120.825,0.244L122.033,0.252L123.24,0.261L124.448,0.271L125.655,0.281L126.863,0.291L128.07,0.301L129.278,0.312L130.485,0.323L131.692,0.335L132.9,0.347L134.107,0.36L135.171,0.371L135.315,0.372L136.522,0.386L137.73,0.4L138.937,0.414L140.145,0.429L141.352,0.445L142.559,0.461L143.767,0.477L144.974,0.494L146.182,0.512L147.389,0.531L148.597,0.55L149.804,0.569L151.012,0.59L152.219,0.611L153.426,0.633L154.634,0.656L155.841,0.68L157.049,0.704L158.256,0.729L159.464,0.756L160.671,0.783L161.878,0.811L163.086,0.84L163.798,0.858L164.293,0.87L165.501,0.901L166.708,0.934L167.916,0.967L169.123,1.002L170.331,1.038L171.538,1.075L172.745,1.114L173.953,1.154L175.16,1.195L176.368,1.238L177.575,1.283L178.783,1.329L179.99,1.376L181.198,1.425L182.405,1.477L183.612,1.529L184.82,1.584L186.027,1.641L187.235,1.7L188.442,1.76L189.65,1.823L190.857,1.889L192.065,1.956L192.41,1.976L193.272,2.026L194.479,2.098L195.687,2.173L196.894,2.251L198.102,2.331L199.309,2.414L200.517,2.5L201.724,2.589L202.932,2.681L204.139,2.777L205.346,2.876L206.554,2.978L207.761,3.084L208.969,3.193L210.176,3.307L211.384,3.424L212.591,3.545L213.799,3.671L215.006,3.801L216.213,3.935L217.421,4.075L218.628,4.218L219.836,4.367L221.042,4.521L221.043,4.521L222.251,4.681L223.458,4.846L224.666,5.016L225.873,5.193L227.08,5.375L228.288,5.564L229.495,5.759L230.703,5.96L231.91,6.169L233.118,6.384L234.325,6.607L235.533,6.837L236.74,7.075L237.947,7.321L239.155,7.576L240.362,7.838L241.57,8.11L242.777,8.39L243.985,8.68L245.192,8.979L246.4,9.288L247.607,9.607L248.814,9.937L249.669,10.177L250.022,10.277L251.229,10.628L252.437,10.991L253.644,11.365L254.852,11.751L256.059,12.149L257.267,12.56L258.474,12.984L259.681,13.421L260.889,13.872L262.096,14.337L263.304,14.816L264.511,15.31L265.719,15.819L266.926,16.343L268.134,16.883L269.341,17.439L270.548,18.012L271.756,18.602L272.963,19.209L274.171,19.833L275.378,20.476L276.586,21.137L277.793,21.816L278.296,22.105L279.001,22.515L280.208,23.233L281.415,23.971L282.623,24.729L283.83,25.508L285.038,26.308L286.245,27.128L287.453,27.971L288.66,28.835L289.868,29.721L291.075,30.629L292.282,31.56L293.49,32.514L294.697,33.491L295.905,34.491L297.112,35.515L298.32,36.563" stroke="#76b7b2" stroke-width="1.5"/></g></g><path class="foreground" aria-hidden="true" d="" display="none"/></g></g><g class="mark-symbol role-mark layer_1_marks" role="graphics-object" aria-roledescription="symbol mark container"><path aria-label="Concentration (µM): 5e-5; Fraction Infectivity: 0.59809; Receptor: dimeric-bEFNB2" role="graphics-symbol" aria-roledescription="circle" transform="translate(39.19275082652064,80.382)" d="M2.739,0A2.739,2.739,0,1,1,-2.739,0A2.739,2.739,0,1,1,2.739,0" fill="#4e79a7" stroke-width="2" opacity="1"/><path aria-label="Concentration (µM): 1e-4; Fraction Infectivity: 0.212425; Receptor: dimeric-bEFNB2" role="graphics-symbol" aria-roledescription="circle" transform="translate(67.62628790188845,157.51500000000001)" d="M2.739,0A2.739,2.739,0,1,1,-2.739,0A2.739,2.739,0,1,1,2.739,0" fill="#4e79a7" stroke-width="2" opacity="1"/><path aria-label="Concentration (µM): 4e-4; Fraction Infectivity: 0.00231; Receptor: dimeric-bEFNB2" role="graphics-symbol" aria-roledescription="circle" transform="translate(96.31830276846657,199.53799999999998)" d="M2.739,0A2.739,2.739,0,1,1,-2.739,0A2.739,2.739,0,1,1,2.739,0" fill="#4e79a7" stroke-width="2" opacity="1"/><path aria-label="Concentration (µM): 1e-3; Fraction Infectivity: 0.00067; Receptor: dimeric-bEFNB2" role="graphics-symbol" aria-roledescription="circle" transform="translate(124.967122218987,199.866)" d="M2.739,0A2.739,2.739,0,1,1,-2.739,0A2.739,2.739,0,1,1,2.739,0" fill="#4e79a7" stroke-width="2" opacity="1"/><path aria-label="Concentration (µM): 4e-3; Fraction Infectivity: 0.00036; Receptor: dimeric-bEFNB2" role="graphics-symbol" aria-roledescription="circle" transform="translate(153.60157493477354,199.928)" d="M2.739,0A2.739,2.739,0,1,1,-2.739,0A2.739,2.739,0,1,1,2.739,0" fill="#4e79a7" stroke-width="2" opacity="1"/><path aria-label="Concentration (µM): 1e-2; Fraction Infectivity: 0.000015; Receptor: dimeric-bEFNB2" role="graphics-symbol" aria-roledescription="circle" transform="translate(182.22885021795332,199.997)" d="M2.739,0A2.739,2.739,0,1,1,-2.739,0A2.739,2.739,0,1,1,2.739,0" fill="#4e79a7" stroke-width="2" opacity="1"/><path aria-label="Concentration (µM): 3e-2; Fraction Infectivity: 0.00003; Receptor: dimeric-bEFNB2" role="graphics-symbol" aria-roledescription="circle" transform="translate(210.8569228716227,199.994)" d="M2.739,0A2.739,2.739,0,1,1,-2.739,0A2.739,2.739,0,1,1,2.739,0" fill="#4e79a7" stroke-width="2" opacity="1"/><path aria-label="Concentration (µM): 1e-1; Fraction Infectivity: 0.00002; Receptor: dimeric-bEFNB2" role="graphics-symbol" aria-roledescription="circle" transform="translate(239.4839323673503,199.996)" d="M2.739,0A2.739,2.739,0,1,1,-2.739,0A2.739,2.739,0,1,1,2.739,0" fill="#4e79a7" stroke-width="2" opacity="1"/><path aria-label="Concentration (µM): 2e-4; Fraction Infectivity: 0.883515; Receptor: monomeric-bEFNB2" role="graphics-symbol" aria-roledescription="circle" transform="translate(78.06179973983886,23.29699999999999)" d="M2.739,0A2.739,2.739,0,1,1,-2.739,0A2.739,2.739,0,1,1,2.739,0" fill="#e15759" stroke-width="2" opacity="1"/><path aria-label="Concentration (µM): 6e-4; Fraction Infectivity: 0.817395; Receptor: monomeric-bEFNB2" role="graphics-symbol" aria-roledescription="circle" transform="translate(106.68907502301862,36.521)" d="M2.739,0A2.739,2.739,0,1,1,-2.739,0A2.739,2.739,0,1,1,2.739,0" fill="#e15759" stroke-width="2" opacity="1"/><path aria-label="Concentration (µM): 2e-3; Fraction Infectivity: 0.614475; Receptor: monomeric-bEFNB2" role="graphics-symbol" aria-roledescription="circle" transform="translate(135.17118185879357,77.105)" d="M2.739,0A2.739,2.739,0,1,1,-2.739,0A2.739,2.739,0,1,1,2.739,0" fill="#e15759" stroke-width="2" opacity="1"/><path aria-label="Concentration (µM): 5e-3; Fraction Infectivity: 0.22801; Receptor: monomeric-bEFNB2" role="graphics-symbol" aria-roledescription="circle" transform="translate(163.79845714197333,154.398)" d="M2.739,0A2.739,2.739,0,1,1,-2.739,0A2.739,2.739,0,1,1,2.739,0" fill="#e15759" stroke-width="2" opacity="1"/><path aria-label="Concentration (µM): 2e-2; Fraction Infectivity: 0.077285; Receptor: monomeric-bEFNB2" role="graphics-symbol" aria-roledescription="circle" transform="translate(192.40955256191097,184.54299999999998)" d="M2.739,0A2.739,2.739,0,1,1,-2.739,0A2.739,2.739,0,1,1,2.739,0" fill="#e15759" stroke-width="2" opacity="1"/><path aria-label="Concentration (µM): 5e-2; Fraction Infectivity: 0.02406; Receptor: monomeric-bEFNB2" role="graphics-symbol" aria-roledescription="circle" transform="translate(221.04222224919116,195.18800000000002)" d="M2.739,0A2.739,2.739,0,1,1,-2.739,0A2.739,2.739,0,1,1,2.739,0" fill="#e15759" stroke-width="2" opacity="1"/><path aria-label="Concentration (µM): 1e-1; Fraction Infectivity: 0.00835; Receptor: monomeric-bEFNB2" role="graphics-symbol" aria-roledescription="circle" transform="translate(249.66949753237094,198.33)" d="M2.739,0A2.739,2.739,0,1,1,-2.739,0A2.739,2.739,0,1,1,2.739,0" fill="#e15759" stroke-width="2" opacity="1"/><path aria-label="Concentration (µM): 4e-1; Fraction Infectivity: 0.003605; Receptor: monomeric-bEFNB2" role="graphics-symbol" aria-roledescription="circle" transform="translate(278.29617349246195,199.279)" d="M2.739,0A2.739,2.739,0,1,1,-2.739,0A2.739,2.739,0,1,1,2.739,0" fill="#e15759" stroke-width="2" opacity="1"/><path aria-label="Concentration (µM): 5e-5; Fraction Infectivity: 0.868995; Receptor: dimeric-bEFNB3" role="graphics-symbol" aria-roledescription="circle" transform="translate(39.19275082652064,26.201000000000008)" d="M2.739,0A2.739,2.739,0,1,1,-2.739,0A2.739,2.739,0,1,1,2.739,0" fill="#f28e2c" stroke-width="2" opacity="1"/><path aria-label="Concentration (µM): 1e-4; Fraction Infectivity: 0.85687; Receptor: dimeric-bEFNB3" role="graphics-symbol" aria-roledescription="circle" transform="translate(67.62628790188845,28.625999999999998)" d="M2.739,0A2.739,2.739,0,1,1,-2.739,0A2.739,2.739,0,1,1,2.739,0" fill="#f28e2c" stroke-width="2" opacity="1"/><path aria-label="Concentration (µM): 4e-4; Fraction Infectivity: 0.756115; Receptor: dimeric-bEFNB3" role="graphics-symbol" aria-roledescription="circle" transform="translate(96.31830276846657,48.77699999999998)" d="M2.739,0A2.739,2.739,0,1,1,-2.739,0A2.739,2.739,0,1,1,2.739,0" fill="#f28e2c" stroke-width="2" opacity="1"/><path aria-label="Concentration (µM): 1e-3; Fraction Infectivity: 0.460895; Receptor: dimeric-bEFNB3" role="graphics-symbol" aria-roledescription="circle" transform="translate(124.967122218987,107.82099999999998)" d="M2.739,0A2.739,2.739,0,1,1,-2.739,0A2.739,2.739,0,1,1,2.739,0" fill="#f28e2c" stroke-width="2" opacity="1"/><path aria-label="Concentration (µM): 4e-3; Fraction Infectivity: 0.12644; Receptor: dimeric-bEFNB3" role="graphics-symbol" aria-roledescription="circle" transform="translate(153.60157493477354,174.712)" d="M2.739,0A2.739,2.739,0,1,1,-2.739,0A2.739,2.739,0,1,1,2.739,0" fill="#f28e2c" stroke-width="2" opacity="1"/><path aria-label="Concentration (µM): 1e-2; Fraction Infectivity: 0.02572; Receptor: dimeric-bEFNB3" role="graphics-symbol" aria-roledescription="circle" transform="translate(182.22885021795332,194.856)" d="M2.739,0A2.739,2.739,0,1,1,-2.739,0A2.739,2.739,0,1,1,2.739,0" fill="#f28e2c" stroke-width="2" opacity="1"/><path aria-label="Concentration (µM): 3e-2; Fraction Infectivity: 0.00748; Receptor: dimeric-bEFNB3" role="graphics-symbol" aria-roledescription="circle" transform="translate(210.8569228716227,198.504)" d="M2.739,0A2.739,2.739,0,1,1,-2.739,0A2.739,2.739,0,1,1,2.739,0" fill="#f28e2c" stroke-width="2" opacity="1"/><path aria-label="Concentration (µM): 1e-1; Fraction Infectivity: 0.00533; Receptor: dimeric-bEFNB3" role="graphics-symbol" aria-roledescription="circle" transform="translate(239.4839323673503,198.934)" d="M2.739,0A2.739,2.739,0,1,1,-2.739,0A2.739,2.739,0,1,1,2.739,0" fill="#f28e2c" stroke-width="2" opacity="1"/><path aria-label="Concentration (µM): 2e-4; Fraction Infectivity: 0.92141; Receptor: monomeric-bEFNB3" role="graphics-symbol" aria-roledescription="circle" transform="translate(78.06179973983886,15.71800000000001)" d="M2.739,0A2.739,2.739,0,1,1,-2.739,0A2.739,2.739,0,1,1,2.739,0" fill="#76b7b2" stroke-width="2" opacity="1"/><path aria-label="Concentration (µM): 6e-4; Fraction Infectivity: 1.03777; Receptor: monomeric-bEFNB3" role="graphics-symbol" aria-roledescription="circle" transform="translate(106.68907502301862,-7.554000000000016)" d="M2.739,0A2.739,2.739,0,1,1,-2.739,0A2.739,2.739,0,1,1,2.739,0" fill="#76b7b2" stroke-width="2" opacity="1"/><path aria-label="Concentration (µM): 2e-3; Fraction Infectivity: 1.032235; Receptor: monomeric-bEFNB3" role="graphics-symbol" aria-roledescription="circle" transform="translate(135.17118185879357,-6.447000000000003)" d="M2.739,0A2.739,2.739,0,1,1,-2.739,0A2.739,2.739,0,1,1,2.739,0" fill="#76b7b2" stroke-width="2" opacity="1"/><path aria-label="Concentration (µM): 5e-3; Fraction Infectivity: 1.00534; Receptor: monomeric-bEFNB3" role="graphics-symbol" aria-roledescription="circle" transform="translate(163.79845714197333,-1.06799999999998)" d="M2.739,0A2.739,2.739,0,1,1,-2.739,0A2.739,2.739,0,1,1,2.739,0" fill="#76b7b2" stroke-width="2" opacity="1"/><path aria-label="Concentration (µM): 2e-2; Fraction Infectivity: 0.99567; Receptor: monomeric-bEFNB3" role="graphics-symbol" aria-roledescription="circle" transform="translate(192.40955256191097,0.865999999999989)" d="M2.739,0A2.739,2.739,0,1,1,-2.739,0A2.739,2.739,0,1,1,2.739,0" fill="#76b7b2" stroke-width="2" opacity="1"/><path aria-label="Concentration (µM): 5e-2; Fraction Infectivity: 0.98713; Receptor: monomeric-bEFNB3" role="graphics-symbol" aria-roledescription="circle" transform="translate(221.04222224919116,2.5739999999999874)" d="M2.739,0A2.739,2.739,0,1,1,-2.739,0A2.739,2.739,0,1,1,2.739,0" fill="#76b7b2" stroke-width="2" opacity="1"/><path aria-label="Concentration (µM): 1e-1; Fraction Infectivity: 0.92699; Receptor: monomeric-bEFNB3" role="graphics-symbol" aria-roledescription="circle" transform="translate(249.66949753237094,14.602000000000004)" d="M2.739,0A2.739,2.739,0,1,1,-2.739,0A2.739,2.739,0,1,1,2.739,0" fill="#76b7b2" stroke-width="2" opacity="1"/><path aria-label="Concentration (µM): 4e-1; Fraction Infectivity: 0.896505; Receptor: monomeric-bEFNB3" role="graphics-symbol" aria-roledescription="circle" transform="translate(278.29617349246195,20.699)" d="M2.739,0A2.739,2.739,0,1,1,-2.739,0A2.739,2.739,0,1,1,2.739,0" fill="#76b7b2" stroke-width="2" opacity="1"/></g><g class="mark-rule role-mark layer_2_marks" role="graphics-object" aria-roledescription="rule mark container"><line aria-label="concentration: 0.000045; Fraction Infectivity: 0.59678; upper_lower: 0.5994; virus: dimeric-bEFNB2; upper: 0.5994; lower: 0.59678" role="graphics-symbol" aria-roledescription="errorbar" transform="translate(39.19275082652064,80.644)" x2="0" y2="-0.5240000000000151" stroke="#4e79a7" opacity="1"/><line aria-label="concentration: 0.000134; Fraction Infectivity: 0.17748; upper_lower: 0.24737; virus: dimeric-bEFNB2; upper: 0.24737; lower: 0.17748" role="graphics-symbol" aria-roledescription="errorbar" transform="translate(67.62628790188845,164.50400000000002)" x2="0" y2="-13.978000000000009" stroke="#4e79a7" opacity="1"/><line aria-label="concentration: 0.000403; Fraction Infectivity: 0.00188; upper_lower: 0.00274; virus: dimeric-bEFNB2; upper: 0.00274; lower: 0.00188" role="graphics-symbol" aria-roledescription="errorbar" transform="translate(96.31830276846657,199.624)" x2="0" y2="-0.17199999999999704" stroke="#4e79a7" opacity="1"/><line aria-label="concentration: 0.00121; Fraction Infectivity: 0.0001; upper_lower: 0.00124; virus: dimeric-bEFNB2; upper: 0.00124; lower: 0.0001" role="graphics-symbol" aria-roledescription="errorbar" transform="translate(124.967122218987,199.98)" x2="0" y2="-0.22799999999998022" stroke="#4e79a7" opacity="1"/><line aria-label="concentration: 0.003631; Fraction Infectivity: 0.00017; upper_lower: 0.00055; virus: dimeric-bEFNB2; upper: 0.00055; lower: 0.00017" role="graphics-symbol" aria-roledescription="errorbar" transform="translate(153.60157493477354,199.966)" x2="0" y2="-0.07600000000002183" stroke="#4e79a7" opacity="1"/><line aria-label="concentration: 0.010893; Fraction Infectivity: 1.69406589451e-21; upper_lower: 0.00003; virus: dimeric-bEFNB2; upper: 0.00003; lower: 1.69406589451e-21" role="graphics-symbol" aria-roledescription="errorbar" transform="translate(182.22885021795332,200)" x2="0" y2="-0.006000000000000227" stroke="#4e79a7" opacity="1"/><line aria-label="concentration: 0.03268; Fraction Infectivity: 0.00003; upper_lower: 0.00003; virus: dimeric-bEFNB2; upper: 0.00003; lower: 0.00003" role="graphics-symbol" aria-roledescription="errorbar" transform="translate(210.8569228716227,199.994)" x2="0" y2="0" stroke="#4e79a7" opacity="1"/><line aria-label="concentration: 0.098039; Fraction Infectivity: 0.00002; upper_lower: 0.00002; virus: dimeric-bEFNB2; upper: 0.00002; lower: 0.00002" role="graphics-symbol" aria-roledescription="errorbar" transform="translate(239.4839323673503,199.996)" x2="0" y2="0" stroke="#4e79a7" opacity="1"/><line aria-label="concentration: 0.0002; Fraction Infectivity: 0.8125; upper_lower: 0.95453; virus: monomeric-bEFNB2; upper: 0.95453; lower: 0.8125" role="graphics-symbol" aria-roledescription="errorbar" transform="translate(78.06179973983886,37.5)" x2="0" y2="-28.40600000000002" stroke="#e15759" opacity="1"/><line aria-label="concentration: 0.0006; Fraction Infectivity: 0.79646; upper_lower: 0.83833; virus: monomeric-bEFNB2; upper: 0.83833; lower: 0.79646" role="graphics-symbol" aria-roledescription="errorbar" transform="translate(106.68907502301862,40.70800000000001)" x2="0" y2="-8.374000000000017" stroke="#e15759" opacity="1"/><line aria-label="concentration: 0.00179; Fraction Infectivity: 0.59736; upper_lower: 0.63159; virus: monomeric-bEFNB2; upper: 0.63159; lower: 0.59736" role="graphics-symbol" aria-roledescription="errorbar" transform="translate(135.17118185879357,80.528)" x2="0" y2="-6.846000000000004" stroke="#e15759" opacity="1"/><line aria-label="concentration: 0.00537; Fraction Infectivity: 0.22795; upper_lower: 0.22807; virus: monomeric-bEFNB2; upper: 0.22807; lower: 0.22795" role="graphics-symbol" aria-roledescription="errorbar" transform="translate(163.79845714197333,154.41)" x2="0" y2="-0.02400000000000091" stroke="#e15759" opacity="1"/><line aria-label="concentration: 0.0161; Fraction Infectivity: 0.07665; upper_lower: 0.07792; virus: monomeric-bEFNB2; upper: 0.07792; lower: 0.07665" role="graphics-symbol" aria-roledescription="errorbar" transform="translate(192.40955256191097,184.67)" x2="0" y2="-0.2539999999999907" stroke="#e15759" opacity="1"/><line aria-label="concentration: 0.04831; Fraction Infectivity: 0.02207; upper_lower: 0.02605; virus: monomeric-bEFNB2; upper: 0.02605; lower: 0.02207" role="graphics-symbol" aria-roledescription="errorbar" transform="translate(221.04222224919116,195.58599999999998)" x2="0" y2="-0.7959999999999923" stroke="#e15759" opacity="1"/><line aria-label="concentration: 0.14493; Fraction Infectivity: 0.0066; upper_lower: 0.0101; virus: monomeric-bEFNB2; upper: 0.0101; lower: 0.0066" role="graphics-symbol" aria-roledescription="errorbar" transform="translate(249.66949753237094,198.67999999999998)" x2="0" y2="-0.6999999999999886" stroke="#e15759" opacity="1"/><line aria-label="concentration: 0.43478; Fraction Infectivity: 0.00358; upper_lower: 0.00363; virus: monomeric-bEFNB2; upper: 0.00363; lower: 0.00358" role="graphics-symbol" aria-roledescription="errorbar" transform="translate(278.29617349246195,199.284)" x2="0" y2="-0.009999999999990905" stroke="#e15759" opacity="1"/><line aria-label="concentration: 0.000045; Fraction Infectivity: 0.82763; upper_lower: 0.91036; virus: dimeric-bEFNB3; upper: 0.91036; lower: 0.82763" role="graphics-symbol" aria-roledescription="errorbar" transform="translate(39.19275082652064,34.474000000000004)" x2="0" y2="-16.545999999999992" stroke="#f28e2c" opacity="1"/><line aria-label="concentration: 0.000134; Fraction Infectivity: 0.84476; upper_lower: 0.86898; virus: dimeric-bEFNB3; upper: 0.86898; lower: 0.84476" role="graphics-symbol" aria-roledescription="errorbar" transform="translate(67.62628790188845,31.047999999999988)" x2="0" y2="-4.843999999999983" stroke="#f28e2c" opacity="1"/><line aria-label="concentration: 0.000403; Fraction Infectivity: 0.73316; upper_lower: 0.77907; virus: dimeric-bEFNB3; upper: 0.77907; lower: 0.73316" role="graphics-symbol" aria-roledescription="errorbar" transform="translate(96.31830276846657,53.367999999999974)" x2="0" y2="-9.18199999999998" stroke="#f28e2c" opacity="1"/><line aria-label="concentration: 0.00121; Fraction Infectivity: 0.44752; upper_lower: 0.47427; virus: dimeric-bEFNB3; upper: 0.47427; lower: 0.44752" role="graphics-symbol" aria-roledescription="errorbar" transform="translate(124.967122218987,110.49600000000001)" x2="0" y2="-5.3500000000000085" stroke="#f28e2c" opacity="1"/><line aria-label="concentration: 0.003631; Fraction Infectivity: 0.12452; upper_lower: 0.12836; virus: dimeric-bEFNB3; upper: 0.12836; lower: 0.12452" role="graphics-symbol" aria-roledescription="errorbar" transform="translate(153.60157493477354,175.096)" x2="0" y2="-0.7680000000000007" stroke="#f28e2c" opacity="1"/><line aria-label="concentration: 0.010893; Fraction Infectivity: 0.02157; upper_lower: 0.02987; virus: dimeric-bEFNB3; upper: 0.02987; lower: 0.02157" role="graphics-symbol" aria-roledescription="errorbar" transform="translate(182.22885021795332,195.686)" x2="0" y2="-1.6599999999999966" stroke="#f28e2c" opacity="1"/><line aria-label="concentration: 0.03268; Fraction Infectivity: 0.00705; upper_lower: 0.00791; virus: dimeric-bEFNB3; upper: 0.00791; lower: 0.00705" role="graphics-symbol" aria-roledescription="errorbar" transform="translate(210.8569228716227,198.59)" x2="0" y2="-0.17199999999999704" stroke="#f28e2c" opacity="1"/><line aria-label="concentration: 0.098039; Fraction Infectivity: 0.0043; upper_lower: 0.00636; virus: dimeric-bEFNB3; upper: 0.00636; lower: 0.0043" role="graphics-symbol" aria-roledescription="errorbar" transform="translate(239.4839323673503,199.14000000000001)" x2="0" y2="-0.41200000000003456" stroke="#f28e2c" opacity="1"/><line aria-label="concentration: 0.0002; Fraction Infectivity: 0.91519; upper_lower: 0.92763; virus: monomeric-bEFNB3; upper: 0.92763; lower: 0.91519" role="graphics-symbol" aria-roledescription="errorbar" transform="translate(78.06179973983886,16.96200000000001)" x2="0" y2="-2.4880000000000013" stroke="#76b7b2" opacity="1"/><line aria-label="concentration: 0.0006; Fraction Infectivity: 0.98085; upper_lower: 1.09469; virus: monomeric-bEFNB3; upper: 1.09469; lower: 0.98085" role="graphics-symbol" aria-roledescription="errorbar" transform="translate(106.68907502301862,3.8299999999999557)" x2="0" y2="-22.767999999999944" stroke="#76b7b2" opacity="1"/><line aria-label="concentration: 0.00179; Fraction Infectivity: 1.0236; upper_lower: 1.04087; virus: monomeric-bEFNB3; upper: 1.04087; lower: 1.0236" role="graphics-symbol" aria-roledescription="errorbar" transform="translate(135.17118185879357,-4.720000000000013)" x2="0" y2="-3.4539999999999793" stroke="#76b7b2" opacity="1"/><line aria-label="concentration: 0.00537; Fraction Infectivity: 1.0033; upper_lower: 1.00738; virus: monomeric-bEFNB3; upper: 1.00738; lower: 1.0033" role="graphics-symbol" aria-roledescription="errorbar" transform="translate(163.79845714197333,-0.6599999999999717)" x2="0" y2="-0.8160000000000167" stroke="#76b7b2" opacity="1"/><line aria-label="concentration: 0.0161; Fraction Infectivity: 0.9941; upper_lower: 0.99724; virus: monomeric-bEFNB3; upper: 0.99724; lower: 0.9941" role="graphics-symbol" aria-roledescription="errorbar" transform="translate(192.40955256191097,1.179999999999981)" x2="0" y2="-0.6279999999999841" stroke="#76b7b2" opacity="1"/><line aria-label="concentration: 0.04831; Fraction Infectivity: 0.9612; upper_lower: 1.01306; virus: monomeric-bEFNB3; upper: 1.01306; lower: 0.9612" role="graphics-symbol" aria-roledescription="errorbar" transform="translate(221.04222224919116,7.759999999999989)" x2="0" y2="-10.372000000000003" stroke="#76b7b2" opacity="1"/><line aria-label="concentration: 0.14493; Fraction Infectivity: 0.92005; upper_lower: 0.93393; virus: monomeric-bEFNB3; upper: 0.93393; lower: 0.92005" role="graphics-symbol" aria-roledescription="errorbar" transform="translate(249.66949753237094,15.989999999999993)" x2="0" y2="-2.7759999999999785" stroke="#76b7b2" opacity="1"/><line aria-label="concentration: 0.43478; Fraction Infectivity: 0.88449; upper_lower: 0.90852; virus: monomeric-bEFNB3; upper: 0.90852; lower: 0.88449" role="graphics-symbol" aria-roledescription="errorbar" transform="translate(278.29617349246195,23.102)" x2="0" y2="-4.806000000000001" stroke="#76b7b2" opacity="1"/></g><g class="mark-group role-legend" role="graphics-symbol" aria-roledescription="legend" aria-label="Symbol legend titled 'Receptor' for fill color and stroke color with 4 values: dimeric-bEFNB2, dimeric-bEFNB3, monomeric-bEFNB2, monomeric-bEFNB3"><g transform="translate(318,0)"><path class="background" aria-hidden="true" d="M0,0h155v91h-155Z" pointer-events="none"/><g><g class="mark-group role-legend-entry"><g transform="translate(5,24)"><path class="background" aria-hidden="true" d="M0,0h0v0h0Z" pointer-events="none"/><g><g class="mark-group role-scope" role="graphics-object" aria-roledescription="group mark container"><g transform="translate(0,0)"><path class="background" aria-hidden="true" d="M0,0h144.8134765625v14h-144.8134765625Z" pointer-events="none" opacity="1"/><g><g class="mark-symbol role-legend-symbol" pointer-events="none"><path transform="translate(7,7)" d="M5,0A5,5,0,1,1,-5,0A5,5,0,1,1,5,0" fill="#4e79a7" stroke="#4e79a7" stroke-width="1.5" opacity="1"/></g><g class="mark-text role-legend-label" pointer-events="none"><text text-anchor="start" transform="translate(18,11)" font-family="Helvetica" font-size="14px" fill="#000" opacity="1">dimeric-bEFNB2</text></g></g><path class="foreground" aria-hidden="true" d="" pointer-events="none" display="none"/></g><g transform="translate(0,16)"><path class="background" aria-hidden="true" d="M0,0h144.8134765625v14h-144.8134765625Z" pointer-events="none" opacity="1"/><g><g class="mark-symbol role-legend-symbol" pointer-events="none"><path transform="translate(7,7)" d="M5,0A5,5,0,1,1,-5,0A5,5,0,1,1,5,0" fill="#f28e2c" stroke="#f28e2c" stroke-width="1.5" opacity="1"/></g><g class="mark-text role-legend-label" pointer-events="none"><text text-anchor="start" transform="translate(18,11)" font-family="Helvetica" font-size="14px" fill="#000" opacity="1">dimeric-bEFNB3</text></g></g><path class="foreground" aria-hidden="true" d="" pointer-events="none" display="none"/></g><g transform="translate(0,32)"><path class="background" aria-hidden="true" d="M0,0h144.8134765625v14h-144.8134765625Z" pointer-events="none" opacity="1"/><g><g class="mark-symbol role-legend-symbol" pointer-events="none"><path transform="translate(7,7)" d="M5,0A5,5,0,1,1,-5,0A5,5,0,1,1,5,0" fill="#e15759" stroke="#e15759" stroke-width="1.5" opacity="1"/></g><g class="mark-text role-legend-label" pointer-events="none"><text text-anchor="start" transform="translate(18,11)" font-family="Helvetica" font-size="14px" fill="#000" opacity="1">monomeric-bEFNB2</text></g></g><path class="foreground" aria-hidden="true" d="" pointer-events="none" display="none"/></g><g transform="translate(0,48)"><path class="background" aria-hidden="true" d="M0,0h144.8134765625v14h-144.8134765625Z" pointer-events="none" opacity="1"/><g><g class="mark-symbol role-legend-symbol" pointer-events="none"><path transform="translate(7,7)" d="M5,0A5,5,0,1,1,-5,0A5,5,0,1,1,5,0" fill="#76b7b2" stroke="#76b7b2" stroke-width="1.5" opacity="1"/></g><g class="mark-text role-legend-label" pointer-events="none"><text text-anchor="start" transform="translate(18,11)" font-family="Helvetica" font-size="14px" fill="#000" opacity="1">monomeric-bEFNB3</text></g></g><path class="foreground" aria-hidden="true" d="" pointer-events="none" display="none"/></g></g></g><path class="foreground" aria-hidden="true" d="" pointer-events="none" display="none"/></g></g><g class="mark-text role-legend-title" pointer-events="none"><text text-anchor="start" transform="translate(5,16)" font-family="Helvetica" font-size="14px" font-weight="bold" fill="#000" opacity="1">Receptor</text></g></g><path class="foreground" aria-hidden="true" d="" pointer-events="none" display="none"/></g></g></g><path class="foreground" aria-hidden="true" d="" display="none"/></g></g></g></svg>