<svg xmlns="http://www.w3.org/2000/svg" xmlns:xlink="http://www.w3.org/1999/xlink" version="1.1" class="marks" width="528" height="250" viewBox="0 0 528 250"><rect width="528" height="250" fill="white"/><g fill="none" stroke-miterlimit="10" transform="translate(50,6)"><g class="mark-group role-frame root" role="graphics-object" aria-roledescription="group mark container"><g transform="translate(0,0)"><path class="background" aria-hidden="true" d="M0,0h300v200h-300Z" stroke-width="0"/><g><g class="mark-group role-axis" role="graphics-symbol" aria-roledescription="axis" aria-label="X-axis titled 'Concentration (µM)' for a log scale with values from 1e-5 to 1e+0"><g transform="translate(0.5,200.5)"><path class="background" aria-hidden="true" d="M0,0h0v0h0Z" pointer-events="none"/><g><g class="mark-rule role-axis-tick" pointer-events="none"><line transform="translate(60,0)" x2="0" y2="4" stroke="black" stroke-width="1" opacity="1"/><line transform="translate(180,0)" x2="0" y2="4" stroke="black" stroke-width="1" opacity="1"/><line transform="translate(300,0)" x2="0" y2="4" stroke="black" stroke-width="1" opacity="1"/></g><g class="mark-text role-axis-label" pointer-events="none"><text text-anchor="middle" transform="translate(60.00000000000003,17)" font-family="Helvetica" font-size="14px" font-weight="normal" fill="#000" opacity="1">1e-4</text><text text-anchor="middle" transform="translate(180.00000000000003,17)" font-family="Helvetica" font-size="14px" font-weight="normal" fill="#000" opacity="1">1e-2</text><text text-anchor="middle" transform="translate(300,17)" font-family="Helvetica" font-size="14px" font-weight="normal" fill="#000" opacity="1">1e+0</text></g><g class="mark-rule role-axis-domain" pointer-events="none"><line transform="translate(0,0)" x2="300" y2="0" stroke="black" stroke-width="1" opacity="1"/></g><g class="mark-text role-axis-title" pointer-events="none"><text text-anchor="middle" transform="translate(150,36)" font-family="Helvetica" font-size="14px" font-weight="bold" fill="#000" opacity="1">Concentration (µM)</text></g></g><path class="foreground" aria-hidden="true" d="" pointer-events="none" display="none"/></g></g><g class="mark-group role-axis" role="graphics-symbol" aria-roledescription="axis" aria-label="Y-axis titled 'Fraction Infectivity' for a linear scale with values from 0.0 to 1.1"><g transform="translate(0.5,0.5)"><path class="background" aria-hidden="true" d="M0,0h0v0h0Z" pointer-events="none"/><g><g class="mark-rule role-axis-tick" pointer-events="none"><line transform="translate(0,200)" x2="-4" y2="0" stroke="black" stroke-width="1" opacity="1"/><line transform="translate(0,164)" x2="-4" y2="0" stroke="black" stroke-width="1" opacity="1"/><line transform="translate(0,127)" x2="-4" y2="0" stroke="black" stroke-width="1" opacity="1"/><line transform="translate(0,91)" x2="-4" y2="0" stroke="black" stroke-width="1" opacity="1"/><line transform="translate(0,55)" x2="-4" y2="0" stroke="black" stroke-width="1" opacity="1"/><line transform="translate(0,18)" x2="-4" y2="0" stroke="black" stroke-width="1" opacity="1"/></g><g class="mark-text role-axis-label" pointer-events="none"><text text-anchor="end" transform="translate(-6,204)" font-family="Helvetica" font-size="14px" font-weight="normal" fill="#000" opacity="1">0.0</text><text text-anchor="end" transform="translate(-6,167.63636363636363)" font-family="Helvetica" font-size="14px" font-weight="normal" fill="#000" opacity="1">0.2</text><text text-anchor="end" transform="translate(-6,131.27272727272725)" font-family="Helvetica" font-size="14px" font-weight="normal" fill="#000" opacity="1">0.4</text><text text-anchor="end" transform="translate(-6,94.90909090909092)" font-family="Helvetica" font-size="14px" font-weight="normal" fill="#000" opacity="1">0.6</text><text text-anchor="end" transform="translate(-6,58.54545454545454)" font-family="Helvetica" font-size="14px" font-weight="normal" fill="#000" opacity="1">0.8</text><text text-anchor="end" transform="translate(-6,22.181818181818187)" font-family="Helvetica" font-size="14px" font-weight="normal" fill="#000" opacity="1">1.0</text></g><g class="mark-rule role-axis-domain" pointer-events="none"><line transform="translate(0,200)" x2="0" y2="-200" stroke="black" stroke-width="1" opacity="1"/></g><g class="mark-text role-axis-title" pointer-events="none"><text text-anchor="middle" transform="translate(-30.4619140625,100) rotate(-90) translate(0,-3)" font-family="Helvetica" font-size="14px" font-weight="bold" fill="#000" opacity="1">Fraction Infectivity</text></g></g><path class="foreground" aria-hidden="true" d="" pointer-events="none" display="none"/></g></g><g class="mark-group role-scope layer_0_pathgroup" role="graphics-object" aria-roledescription="group mark container"><g transform="translate(0,0)"><path class="background" aria-hidden="true" d="M0,0h300v200h-300Z"/><g><g class="mark-line role-mark layer_0_marks" role="graphics-object" aria-roledescription="line mark container"><path aria-label="Concentration (µM): 2e-5; Fraction Infectivity: 0.846913698922; Receptor: dimeric-bEFNB2" role="graphics-symbol" aria-roledescription="line mark" d="M19.164,46.016L20.371,47.9L21.579,49.885L22.787,51.973L23.995,54.166L25.203,56.464L26.41,58.869L27.618,61.378L28.826,63.993L30.034,66.71L31.241,69.527L32.449,72.442L33.657,75.449L34.865,78.544L36.073,81.721L37.28,84.974L38.488,88.294L39.193,90.258L39.696,91.673L40.904,95.104L42.112,98.576L43.319,102.079L44.527,105.603L45.735,109.137L46.943,112.672L48.15,116.196L49.358,119.698L50.566,123.169L51.774,126.598L52.982,129.976L54.189,133.295L55.397,136.545L56.605,139.72L57.813,142.813L59.021,145.818L60.228,148.73L61.436,151.545L62.644,154.259L63.852,156.871L65.06,159.378L66.267,161.779L67.475,164.075L67.626,164.355L68.683,166.265L69.891,168.351L71.098,170.333L72.306,172.214L73.514,173.997L74.722,175.683L75.93,177.275L77.137,178.778L78.345,180.193L79.553,181.525L80.761,182.777L81.969,183.953L83.176,185.055L84.384,186.088L85.592,187.055L86.8,187.96L88.007,188.806L89.215,189.596L90.423,190.333L91.631,191.021L92.839,191.662L94.046,192.26L95.254,192.816L96.318,193.275L96.462,193.334L97.67,193.816L98.878,194.264L100.085,194.681L101.293,195.069L102.501,195.428L103.709,195.763L104.916,196.073L106.124,196.361L107.332,196.628L108.54,196.876L109.748,197.106L110.955,197.32L112.163,197.518L113.371,197.701L114.579,197.871L115.787,198.029L116.994,198.175L118.202,198.31L119.41,198.436L120.618,198.552L121.825,198.659L123.033,198.759L124.241,198.851L124.967,198.904L125.449,198.937L126.657,199.016L127.864,199.089L129.072,199.157L130.28,199.22L131.488,199.278L132.696,199.332L133.903,199.382L135.111,199.428L136.319,199.471L137.527,199.51L138.734,199.547L139.942,199.581L141.15,199.612L142.358,199.641L143.566,199.668L144.773,199.693L145.981,199.716L147.189,199.737L148.397,199.756L149.605,199.775L150.812,199.792L152.02,199.807L153.228,199.822L153.602,199.826L154.436,199.835L155.643,199.847L156.851,199.859L158.059,199.869L159.267,199.879L160.475,199.888L161.682,199.896L162.89,199.904L164.098,199.911L165.306,199.918L166.514,199.924L167.721,199.93L168.929,199.935L170.137,199.94L171.345,199.944L172.552,199.949L173.76,199.952L174.968,199.956L176.176,199.959L177.384,199.962L178.591,199.965L179.799,199.968L181.007,199.97L182.215,199.972L182.229,199.972L183.423,199.974L184.63,199.976L185.838,199.978L187.046,199.98L188.254,199.981L189.461,199.983L190.669,199.984L191.877,199.985L193.085,199.986L194.293,199.987L195.5,199.988L196.708,199.989L197.916,199.99L199.124,199.991L200.332,199.991L201.539,199.992L202.747,199.993L203.955,199.993L205.163,199.994L206.37,199.994L207.578,199.995L208.786,199.995L209.994,199.995L210.857,199.996L211.202,199.996L212.409,199.996L213.617,199.996L214.825,199.997L216.033,199.997L217.241,199.997L218.448,199.997L219.656,199.998L220.864,199.998L222.072,199.998L223.279,199.998L224.487,199.998L225.695,199.998L226.903,199.998L228.111,199.999L229.318,199.999L230.526,199.999L231.734,199.999L232.942,199.999L234.15,199.999L235.357,199.999L236.565,199.999L237.773,199.999L238.981,199.999L239.484,199.999L240.188,199.999L241.396,199.999L242.604,199.999L243.812,199.999L245.02,200L246.227,200L247.435,200L248.643,200L249.851,200L251.059,200L252.266,200L253.474,200L254.682,200L255.89,200L257.097,200L258.305,200L259.513,200" stroke="#4e79a7" stroke-width="1.5"/></g></g><path class="foreground" aria-hidden="true" d="" display="none"/></g><g transform="translate(0,0)"><path class="background" aria-hidden="true" d="M0,0h300v200h-300Z"/><g><g class="mark-line role-mark layer_0_marks" role="graphics-object" aria-roledescription="line mark container"><path aria-label="Concentration (µM): 9e-5; Fraction Infectivity: 0.978063249486; Receptor: monomeric-bEFNB2" role="graphics-symbol" aria-roledescription="line mark" d="M58.038,22.17L59.246,22.392L60.453,22.625L61.661,22.871L62.868,23.13L64.076,23.403L65.283,23.691L66.49,23.994L67.698,24.313L68.905,24.649L70.113,25.002L71.32,25.374L72.528,25.766L73.735,26.178L74.943,26.611L76.15,27.066L77.357,27.545L78.062,27.835L78.565,28.048L79.772,28.576L80.98,29.131L82.187,29.714L83.395,30.325L84.602,30.967L85.81,31.639L87.017,32.344L88.224,33.083L89.432,33.856L90.639,34.666L91.847,35.513L93.054,36.399L94.262,37.325L95.469,38.292L96.677,39.302L97.884,40.355L99.091,41.454L100.299,42.598L101.506,43.79L102.714,45.03L103.921,46.319L105.129,47.659L106.336,49.049L106.689,49.465L107.544,50.491L108.751,51.985L109.958,53.532L111.166,55.132L112.373,56.785L113.581,58.492L114.788,60.252L115.996,62.065L117.203,63.931L118.411,65.849L119.618,67.817L120.825,69.836L122.033,71.903L123.24,74.018L124.448,76.178L125.655,78.382L126.863,80.627L128.07,82.912L129.278,85.233L130.485,87.588L131.692,89.974L132.9,92.388L134.107,94.826L135.171,96.992L135.315,97.286L136.522,99.763L137.73,102.255L138.937,104.757L140.145,107.265L141.352,109.776L142.559,112.287L143.767,114.792L144.974,117.289L146.182,119.773L147.389,122.241L148.597,124.69L149.804,127.115L151.012,129.514L152.219,131.884L153.426,134.221L154.634,136.522L155.841,138.785L157.049,141.008L158.256,143.189L159.464,145.324L160.671,147.413L161.878,149.454L163.086,151.446L163.798,152.597L164.293,153.387L165.501,155.276L166.708,157.113L167.916,158.897L169.123,160.628L170.331,162.306L171.538,163.93L172.745,165.501L173.953,167.019L175.16,168.485L176.368,169.898L177.575,171.261L178.783,172.573L179.99,173.835L181.198,175.048L182.405,176.214L183.612,177.333L184.82,178.407L186.027,179.436L187.235,180.423L188.442,181.367L189.65,182.271L190.857,183.136L192.065,183.962L192.41,184.192L193.272,184.752L194.479,185.507L195.687,186.227L196.894,186.914L198.102,187.569L199.309,188.194L200.517,188.789L201.724,189.357L202.932,189.897L204.139,190.412L205.346,190.901L206.554,191.367L207.761,191.81L208.969,192.232L210.176,192.632L211.384,193.013L212.591,193.375L213.799,193.719L215.006,194.045L216.213,194.356L217.421,194.65L218.628,194.93L219.836,195.195L221.042,195.447L221.043,195.447L222.251,195.686L223.458,195.912L224.666,196.127L225.873,196.331L227.08,196.525L228.288,196.708L229.495,196.882L230.703,197.047L231.91,197.203L233.118,197.352L234.325,197.492L235.533,197.625L236.74,197.751L237.947,197.871L239.155,197.984L240.362,198.091L241.57,198.193L242.777,198.289L243.985,198.38L245.192,198.466L246.4,198.548L247.607,198.626L248.814,198.699L249.669,198.749L250.022,198.768L251.229,198.834L252.437,198.896L253.644,198.955L254.852,199.011L256.059,199.064L257.267,199.114L258.474,199.162L259.681,199.206L260.889,199.249L262.096,199.289L263.304,199.327L264.511,199.363L265.719,199.397L266.926,199.43L268.134,199.46L269.341,199.489L270.548,199.517L271.756,199.542L272.963,199.567L274.171,199.59L275.378,199.612L276.586,199.633L277.793,199.653L278.296,199.661L279.001,199.671L280.208,199.689L281.415,199.706L282.623,199.721L283.83,199.736L285.038,199.751L286.245,199.764L287.453,199.777L288.66,199.789L289.868,199.8L291.075,199.811L292.282,199.821L293.49,199.831L294.697,199.84L295.905,199.848L297.112,199.856L298.32,199.864" stroke="#e15759" stroke-width="1.5"/></g></g><path class="foreground" aria-hidden="true" d="" display="none"/></g><g transform="translate(0,0)"><path class="background" aria-hidden="true" d="M0,0h300v200h-300Z"/><g><g class="mark-line role-mark layer_0_marks" role="graphics-object" aria-roledescription="line mark container"><path aria-label="Concentration (µM): 2e-5; Fraction Infectivity: 0.987418003646; Receptor: dimeric-bEFNB3" role="graphics-symbol" aria-roledescription="line mark" d="M19.164,20.469L20.371,20.593L21.579,20.723L22.787,20.86L23.995,21.004L25.203,21.156L26.41,21.316L27.618,21.484L28.826,21.661L30.034,21.848L31.241,22.044L32.449,22.251L33.657,22.468L34.865,22.697L36.073,22.937L37.28,23.19L38.488,23.456L39.193,23.617L39.696,23.736L40.904,24.03L42.112,24.339L43.319,24.663L44.527,25.005L45.735,25.363L46.943,25.739L48.15,26.135L49.358,26.55L50.566,26.985L51.774,27.442L52.982,27.922L54.189,28.424L55.397,28.952L56.605,29.504L57.813,30.083L59.021,30.689L60.228,31.323L61.436,31.988L62.644,32.683L63.852,33.409L65.06,34.169L66.267,34.963L67.475,35.792L67.626,35.898L68.683,36.657L69.891,37.56L71.098,38.501L72.306,39.483L73.514,40.505L74.722,41.569L75.93,42.676L77.137,43.826L78.345,45.022L79.553,46.263L80.761,47.551L81.969,48.886L83.176,50.269L84.384,51.701L85.592,53.181L86.8,54.711L88.007,56.29L89.215,57.919L90.423,59.598L91.631,61.326L92.839,63.102L94.046,64.928L95.254,66.801L96.318,68.49L96.462,68.721L97.67,70.687L98.878,72.698L100.085,74.752L101.293,76.848L102.501,78.984L103.709,81.157L104.916,83.367L106.124,85.61L107.332,87.884L108.54,90.187L109.748,92.515L110.955,94.866L112.163,97.237L113.371,99.624L114.579,102.025L115.787,104.435L116.994,106.852L118.202,109.272L119.41,111.692L120.618,114.109L121.825,116.518L123.033,118.916L124.241,121.301L124.967,122.727L125.449,123.669L126.657,126.017L127.864,128.342L129.072,130.64L130.28,132.91L131.488,135.148L132.696,137.353L133.903,139.521L135.111,141.651L136.319,143.741L137.527,145.788L138.734,147.792L139.942,149.752L141.15,151.665L142.358,153.531L143.566,155.349L144.773,157.118L145.981,158.839L147.189,160.51L148.397,162.131L149.605,163.703L150.812,165.226L152.02,166.699L153.228,168.123L153.602,168.554L154.436,169.499L155.643,170.827L156.851,172.108L158.059,173.342L159.267,174.531L160.475,175.675L161.682,176.775L162.89,177.833L164.098,178.849L165.306,179.824L166.514,180.76L167.721,181.657L168.929,182.517L170.137,183.34L171.345,184.129L172.552,184.883L173.76,185.605L174.968,186.296L176.176,186.955L177.384,187.586L178.591,188.188L179.799,188.762L181.007,189.311L182.215,189.834L182.229,189.84L183.423,190.333L184.63,190.809L185.838,191.263L187.046,191.696L188.254,192.108L189.461,192.5L190.669,192.874L191.877,193.229L193.085,193.568L194.293,193.891L195.5,194.197L196.708,194.489L197.916,194.767L199.124,195.031L200.332,195.282L201.539,195.52L202.747,195.747L203.955,195.963L205.163,196.168L206.37,196.363L207.578,196.548L208.786,196.723L209.994,196.89L210.857,197.005L211.202,197.049L212.409,197.2L213.617,197.343L214.825,197.479L216.033,197.608L217.241,197.73L218.448,197.847L219.656,197.957L220.864,198.062L222.072,198.161L223.279,198.256L224.487,198.345L225.695,198.431L226.903,198.511L228.111,198.588L229.318,198.661L230.526,198.73L231.734,198.795L232.942,198.857L234.15,198.916L235.357,198.972L236.565,199.025L237.773,199.075L238.981,199.123L239.484,199.142L240.188,199.168L241.396,199.211L242.604,199.252L243.812,199.291L245.02,199.327L246.227,199.362L247.435,199.395L248.643,199.426L249.851,199.456L251.059,199.484L252.266,199.511L253.474,199.536L254.682,199.56L255.89,199.583L257.097,199.604L258.305,199.625L259.513,199.644" stroke="#f28e2c" stroke-width="1.5"/></g></g><path class="foreground" aria-hidden="true" d="" display="none"/></g><g transform="translate(0,0)"><path class="background" aria-hidden="true" d="M0,0h300v200h-300Z"/><g><g class="mark-line role-mark layer_0_marks" role="graphics-object" aria-roledescription="line mark container"><path aria-label="Concentration (µM): 9e-5; Fraction Infectivity: 0.999807113927; Receptor: monomeric-bEFNB3" role="graphics-symbol" aria-roledescription="line mark" d="M58.038,18.217L59.246,18.218L60.453,18.219L61.661,18.221L62.868,18.222L64.076,18.224L65.283,18.225L66.49,18.227L67.698,18.228L68.905,18.23L70.113,18.232L71.32,18.234L72.528,18.235L73.735,18.237L74.943,18.239L76.15,18.242L77.357,18.244L78.062,18.245L78.565,18.246L79.772,18.248L80.98,18.251L82.187,18.253L83.395,18.256L84.602,18.258L85.81,18.261L87.017,18.264L88.224,18.267L89.432,18.27L90.639,18.273L91.847,18.276L93.054,18.28L94.262,18.283L95.469,18.287L96.677,18.291L97.884,18.295L99.091,18.299L100.299,18.303L101.506,18.307L102.714,18.312L103.921,18.317L105.129,18.322L106.336,18.327L106.689,18.328L107.544,18.332L108.751,18.337L109.958,18.343L111.166,18.349L112.373,18.355L113.581,18.361L114.788,18.367L115.996,18.374L117.203,18.381L118.411,18.388L119.618,18.396L120.825,18.403L122.033,18.411L123.24,18.419L124.448,18.428L125.655,18.437L126.863,18.446L128.07,18.456L129.278,18.466L130.485,18.476L131.692,18.486L132.9,18.497L134.107,18.509L135.171,18.519L135.315,18.52L136.522,18.533L137.73,18.545L138.937,18.558L140.145,18.572L141.352,18.586L142.559,18.601L143.767,18.616L144.974,18.631L146.182,18.647L147.389,18.664L148.597,18.682L149.804,18.7L151.012,18.718L152.219,18.737L153.426,18.757L154.634,18.778L155.841,18.8L157.049,18.822L158.256,18.845L159.464,18.869L160.671,18.893L161.878,18.919L163.086,18.945L163.798,18.961L164.293,18.973L165.501,19.001L166.708,19.031L167.916,19.061L169.123,19.093L170.331,19.125L171.538,19.159L172.745,19.194L173.953,19.231L175.16,19.268L176.368,19.307L177.575,19.348L178.783,19.39L179.99,19.433L181.198,19.478L182.405,19.524L183.612,19.572L184.82,19.622L186.027,19.674L187.235,19.727L188.442,19.782L189.65,19.839L190.857,19.899L192.065,19.96L192.41,19.978L193.272,20.024L194.479,20.089L195.687,20.157L196.894,20.228L198.102,20.301L199.309,20.377L200.517,20.455L201.724,20.536L202.932,20.62L204.139,20.706L205.346,20.796L206.554,20.889L207.761,20.985L208.969,21.085L210.176,21.188L211.384,21.294L212.591,21.405L213.799,21.519L215.006,21.637L216.213,21.759L217.421,21.886L218.628,22.017L219.836,22.152L221.042,22.292L221.043,22.292L222.251,22.437L223.458,22.587L224.666,22.742L225.873,22.902L227.08,23.068L228.288,23.24L229.495,23.417L230.703,23.6L231.91,23.79L233.118,23.986L234.325,24.188L235.533,24.398L236.74,24.614L237.947,24.838L239.155,25.069L240.362,25.308L241.57,25.554L242.777,25.809L243.985,26.073L245.192,26.345L246.4,26.626L247.607,26.916L248.814,27.215L249.669,27.433L250.022,27.525L251.229,27.844L252.437,28.173L253.644,28.514L254.852,28.865L256.059,29.227L257.267,29.6L258.474,29.986L259.681,30.383L260.889,30.793L262.096,31.215L263.304,31.651L264.511,32.1L265.719,32.563L266.926,33.039L268.134,33.53L269.341,34.036L270.548,34.556L271.756,35.092L272.963,35.644L274.171,36.212L275.378,36.796L276.586,37.397L277.793,38.015L278.296,38.277L279.001,38.65L280.208,39.303L281.415,39.974L282.623,40.663L283.83,41.371L285.038,42.098L286.245,42.844L287.453,43.61L288.66,44.395L289.868,45.201L291.075,46.026L292.282,46.873L293.49,47.74L294.697,48.628L295.905,49.538L297.112,50.468L298.32,51.421" stroke="#76b7b2" stroke-width="1.5"/></g></g><path class="foreground" aria-hidden="true" d="" display="none"/></g></g><g class="mark-symbol role-mark layer_1_marks" role="graphics-object" aria-roledescription="symbol mark container"><path aria-label="Concentration (µM): 5e-5; Fraction Infectivity: 0.59809; Receptor: dimeric-bEFNB2" role="graphics-symbol" aria-roledescription="circle" transform="translate(39.19275082652064,91.25636363636364)" d="M3.162,0A3.162,3.162,0,1,1,-3.162,0A3.162,3.162,0,1,1,3.162,0" fill="#4e79a7" stroke-width="2" opacity="1"/><path aria-label="Concentration (µM): 1e-4; Fraction Infectivity: 0.212425; Receptor: dimeric-bEFNB2" role="graphics-symbol" aria-roledescription="circle" transform="translate(67.62628790188845,161.37727272727273)" d="M3.162,0A3.162,3.162,0,1,1,-3.162,0A3.162,3.162,0,1,1,3.162,0" fill="#4e79a7" stroke-width="2" opacity="1"/><path aria-label="Concentration (µM): 4e-4; Fraction Infectivity: 0.00231; Receptor: dimeric-bEFNB2" role="graphics-symbol" aria-roledescription="circle" transform="translate(96.31830276846657,199.58)" d="M3.162,0A3.162,3.162,0,1,1,-3.162,0A3.162,3.162,0,1,1,3.162,0" fill="#4e79a7" stroke-width="2" opacity="1"/><path aria-label="Concentration (µM): 1e-3; Fraction Infectivity: 0.00067; Receptor: dimeric-bEFNB2" role="graphics-symbol" aria-roledescription="circle" transform="translate(124.967122218987,199.87818181818182)" d="M3.162,0A3.162,3.162,0,1,1,-3.162,0A3.162,3.162,0,1,1,3.162,0" fill="#4e79a7" stroke-width="2" opacity="1"/><path aria-label="Concentration (µM): 4e-3; Fraction Infectivity: 0.00036; Receptor: dimeric-bEFNB2" role="graphics-symbol" aria-roledescription="circle" transform="translate(153.60157493477354,199.93454545454546)" d="M3.162,0A3.162,3.162,0,1,1,-3.162,0A3.162,3.162,0,1,1,3.162,0" fill="#4e79a7" stroke-width="2" opacity="1"/><path aria-label="Concentration (µM): 1e-2; Fraction Infectivity: 0.000015; Receptor: dimeric-bEFNB2" role="graphics-symbol" aria-roledescription="circle" transform="translate(182.22885021795332,199.99727272727273)" d="M3.162,0A3.162,3.162,0,1,1,-3.162,0A3.162,3.162,0,1,1,3.162,0" fill="#4e79a7" stroke-width="2" opacity="1"/><path aria-label="Concentration (µM): 3e-2; Fraction Infectivity: 0.00003; Receptor: dimeric-bEFNB2" role="graphics-symbol" aria-roledescription="circle" transform="translate(210.8569228716227,199.99454545454546)" d="M3.162,0A3.162,3.162,0,1,1,-3.162,0A3.162,3.162,0,1,1,3.162,0" fill="#4e79a7" stroke-width="2" opacity="1"/><path aria-label="Concentration (µM): 1e-1; Fraction Infectivity: 0.00002; Receptor: dimeric-bEFNB2" role="graphics-symbol" aria-roledescription="circle" transform="translate(239.4839323673503,199.99636363636364)" d="M3.162,0A3.162,3.162,0,1,1,-3.162,0A3.162,3.162,0,1,1,3.162,0" fill="#4e79a7" stroke-width="2" opacity="1"/><path aria-label="Concentration (µM): 2e-4; Fraction Infectivity: 0.883515; Receptor: monomeric-bEFNB2" role="graphics-symbol" aria-roledescription="circle" transform="translate(78.06179973983886,39.360909090909104)" d="M3.162,0A3.162,3.162,0,1,1,-3.162,0A3.162,3.162,0,1,1,3.162,0" fill="#e15759" stroke-width="2" opacity="1"/><path aria-label="Concentration (µM): 6e-4; Fraction Infectivity: 0.817395; Receptor: monomeric-bEFNB2" role="graphics-symbol" aria-roledescription="circle" transform="translate(106.68907502301862,51.38272727272728)" d="M3.162,0A3.162,3.162,0,1,1,-3.162,0A3.162,3.162,0,1,1,3.162,0" fill="#e15759" stroke-width="2" opacity="1"/><path aria-label="Concentration (µM): 2e-3; Fraction Infectivity: 0.614475; Receptor: monomeric-bEFNB2" role="graphics-symbol" aria-roledescription="circle" transform="translate(135.17118185879357,88.27727272727273)" d="M3.162,0A3.162,3.162,0,1,1,-3.162,0A3.162,3.162,0,1,1,3.162,0" fill="#e15759" stroke-width="2" opacity="1"/><path aria-label="Concentration (µM): 5e-3; Fraction Infectivity: 0.22801; Receptor: monomeric-bEFNB2" role="graphics-symbol" aria-roledescription="circle" transform="translate(163.79845714197333,158.54363636363638)" d="M3.162,0A3.162,3.162,0,1,1,-3.162,0A3.162,3.162,0,1,1,3.162,0" fill="#e15759" stroke-width="2" opacity="1"/><path aria-label="Concentration (µM): 2e-2; Fraction Infectivity: 0.077285; Receptor: monomeric-bEFNB2" role="graphics-symbol" aria-roledescription="circle" transform="translate(192.40955256191097,185.94818181818184)" d="M3.162,0A3.162,3.162,0,1,1,-3.162,0A3.162,3.162,0,1,1,3.162,0" fill="#e15759" stroke-width="2" opacity="1"/><path aria-label="Concentration (µM): 5e-2; Fraction Infectivity: 0.02406; Receptor: monomeric-bEFNB2" role="graphics-symbol" aria-roledescription="circle" transform="translate(221.04222224919116,195.62545454545455)" d="M3.162,0A3.162,3.162,0,1,1,-3.162,0A3.162,3.162,0,1,1,3.162,0" fill="#e15759" stroke-width="2" opacity="1"/><path aria-label="Concentration (µM): 1e-1; Fraction Infectivity: 0.00835; Receptor: monomeric-bEFNB2" role="graphics-symbol" aria-roledescription="circle" transform="translate(249.66949753237094,198.48181818181817)" d="M3.162,0A3.162,3.162,0,1,1,-3.162,0A3.162,3.162,0,1,1,3.162,0" fill="#e15759" stroke-width="2" opacity="1"/><path aria-label="Concentration (µM): 4e-1; Fraction Infectivity: 0.003605; Receptor: monomeric-bEFNB2" role="graphics-symbol" aria-roledescription="circle" transform="translate(278.29617349246195,199.34454545454545)" d="M3.162,0A3.162,3.162,0,1,1,-3.162,0A3.162,3.162,0,1,1,3.162,0" fill="#e15759" stroke-width="2" opacity="1"/><path aria-label="Concentration (µM): 5e-5; Fraction Infectivity: 0.868995; Receptor: dimeric-bEFNB3" role="graphics-symbol" aria-roledescription="circle" transform="translate(39.19275082652064,42.0009090909091)" d="M3.162,0A3.162,3.162,0,1,1,-3.162,0A3.162,3.162,0,1,1,3.162,0" fill="#f28e2c" stroke-width="2" opacity="1"/><path aria-label="Concentration (µM): 1e-4; Fraction Infectivity: 0.85687; Receptor: dimeric-bEFNB3" role="graphics-symbol" aria-roledescription="circle" transform="translate(67.62628790188845,44.20545454545455)" d="M3.162,0A3.162,3.162,0,1,1,-3.162,0A3.162,3.162,0,1,1,3.162,0" fill="#f28e2c" stroke-width="2" opacity="1"/><path aria-label="Concentration (µM): 4e-4; Fraction Infectivity: 0.756115; Receptor: dimeric-bEFNB3" role="graphics-symbol" aria-roledescription="circle" transform="translate(96.31830276846657,62.524545454545446)" d="M3.162,0A3.162,3.162,0,1,1,-3.162,0A3.162,3.162,0,1,1,3.162,0" fill="#f28e2c" stroke-width="2" opacity="1"/><path aria-label="Concentration (µM): 1e-3; Fraction Infectivity: 0.460895; Receptor: dimeric-bEFNB3" role="graphics-symbol" aria-roledescription="circle" transform="translate(124.967122218987,116.2009090909091)" d="M3.162,0A3.162,3.162,0,1,1,-3.162,0A3.162,3.162,0,1,1,3.162,0" fill="#f28e2c" stroke-width="2" opacity="1"/><path aria-label="Concentration (µM): 4e-3; Fraction Infectivity: 0.12644; Receptor: dimeric-bEFNB3" role="graphics-symbol" aria-roledescription="circle" transform="translate(153.60157493477354,177.01090909090908)" d="M3.162,0A3.162,3.162,0,1,1,-3.162,0A3.162,3.162,0,1,1,3.162,0" fill="#f28e2c" stroke-width="2" opacity="1"/><path aria-label="Concentration (µM): 1e-2; Fraction Infectivity: 0.02572; Receptor: dimeric-bEFNB3" role="graphics-symbol" aria-roledescription="circle" transform="translate(182.22885021795332,195.32363636363635)" d="M3.162,0A3.162,3.162,0,1,1,-3.162,0A3.162,3.162,0,1,1,3.162,0" fill="#f28e2c" stroke-width="2" opacity="1"/><path aria-label="Concentration (µM): 3e-2; Fraction Infectivity: 0.00748; Receptor: dimeric-bEFNB3" role="graphics-symbol" aria-roledescription="circle" transform="translate(210.8569228716227,198.64)" d="M3.162,0A3.162,3.162,0,1,1,-3.162,0A3.162,3.162,0,1,1,3.162,0" fill="#f28e2c" stroke-width="2" opacity="1"/><path aria-label="Concentration (µM): 1e-1; Fraction Infectivity: 0.00533; Receptor: dimeric-bEFNB3" role="graphics-symbol" aria-roledescription="circle" transform="translate(239.4839323673503,199.0309090909091)" d="M3.162,0A3.162,3.162,0,1,1,-3.162,0A3.162,3.162,0,1,1,3.162,0" fill="#f28e2c" stroke-width="2" opacity="1"/><path aria-label="Concentration (µM): 2e-4; Fraction Infectivity: 0.92141; Receptor: monomeric-bEFNB3" role="graphics-symbol" aria-roledescription="circle" transform="translate(78.06179973983886,32.4709090909091)" d="M3.162,0A3.162,3.162,0,1,1,-3.162,0A3.162,3.162,0,1,1,3.162,0" fill="#76b7b2" stroke-width="2" opacity="1"/><path aria-label="Concentration (µM): 6e-4; Fraction Infectivity: 1.03777; Receptor: monomeric-bEFNB3" role="graphics-symbol" aria-roledescription="circle" transform="translate(106.68907502301862,11.314545454545467)" d="M3.162,0A3.162,3.162,0,1,1,-3.162,0A3.162,3.162,0,1,1,3.162,0" fill="#76b7b2" stroke-width="2" opacity="1"/><path aria-label="Concentration (µM): 2e-3; Fraction Infectivity: 1.032235; Receptor: monomeric-bEFNB3" role="graphics-symbol" aria-roledescription="circle" transform="translate(135.17118185879357,12.320909090909105)" d="M3.162,0A3.162,3.162,0,1,1,-3.162,0A3.162,3.162,0,1,1,3.162,0" fill="#76b7b2" stroke-width="2" opacity="1"/><path aria-label="Concentration (µM): 5e-3; Fraction Infectivity: 1.00534; Receptor: monomeric-bEFNB3" role="graphics-symbol" aria-roledescription="circle" transform="translate(163.79845714197333,17.21090909090912)" d="M3.162,0A3.162,3.162,0,1,1,-3.162,0A3.162,3.162,0,1,1,3.162,0" fill="#76b7b2" stroke-width="2" opacity="1"/><path aria-label="Concentration (µM): 2e-2; Fraction Infectivity: 0.99567; Receptor: monomeric-bEFNB3" role="graphics-symbol" aria-roledescription="circle" transform="translate(192.40955256191097,18.969090909090912)" d="M3.162,0A3.162,3.162,0,1,1,-3.162,0A3.162,3.162,0,1,1,3.162,0" fill="#76b7b2" stroke-width="2" opacity="1"/><path aria-label="Concentration (µM): 5e-2; Fraction Infectivity: 0.98713; Receptor: monomeric-bEFNB3" role="graphics-symbol" aria-roledescription="circle" transform="translate(221.04222224919116,20.521818181818176)" d="M3.162,0A3.162,3.162,0,1,1,-3.162,0A3.162,3.162,0,1,1,3.162,0" fill="#76b7b2" stroke-width="2" opacity="1"/><path aria-label="Concentration (µM): 1e-1; Fraction Infectivity: 0.92699; Receptor: monomeric-bEFNB3" role="graphics-symbol" aria-roledescription="circle" transform="translate(249.66949753237094,31.456363636363662)" d="M3.162,0A3.162,3.162,0,1,1,-3.162,0A3.162,3.162,0,1,1,3.162,0" fill="#76b7b2" stroke-width="2" opacity="1"/><path aria-label="Concentration (µM): 4e-1; Fraction Infectivity: 0.896505; Receptor: monomeric-bEFNB3" role="graphics-symbol" aria-roledescription="circle" transform="translate(278.29617349246195,36.999090909090924)" d="M3.162,0A3.162,3.162,0,1,1,-3.162,0A3.162,3.162,0,1,1,3.162,0" fill="#76b7b2" stroke-width="2" opacity="1"/></g><g class="mark-rule role-mark layer_2_marks" role="graphics-object" aria-roledescription="rule mark container"><line aria-label="concentration: 0.000045; Fraction Infectivity: 0.59678; upper_lower: 0.5994; virus: dimeric-bEFNB2; upper: 0.5994; lower: 0.59678" role="graphics-symbol" aria-roledescription="errorbar" transform="translate(39.19275082652064,91.49454545454547)" x2="0" y2="-0.47636363636365786" stroke="#4e79a7" opacity="1"/><line aria-label="concentration: 0.000134; Fraction Infectivity: 0.17748; upper_lower: 0.24737; virus: dimeric-bEFNB2; upper: 0.24737; lower: 0.17748" role="graphics-symbol" aria-roledescription="errorbar" transform="translate(67.62628790188845,167.73090909090908)" x2="0" y2="-12.70727272727271" stroke="#4e79a7" opacity="1"/><line aria-label="concentration: 0.000403; Fraction Infectivity: 0.00188; upper_lower: 0.00274; virus: dimeric-bEFNB2; upper: 0.00274; lower: 0.00188" role="graphics-symbol" aria-roledescription="errorbar" transform="translate(96.31830276846657,199.65818181818182)" x2="0" y2="-0.15636363636363626" stroke="#4e79a7" opacity="1"/><line aria-label="concentration: 0.00121; Fraction Infectivity: 0.0001; upper_lower: 0.00124; virus: dimeric-bEFNB2; upper: 0.00124; lower: 0.0001" role="graphics-symbol" aria-roledescription="errorbar" transform="translate(124.967122218987,199.98181818181817)" x2="0" y2="-0.2072727272727093" stroke="#4e79a7" opacity="1"/><line aria-label="concentration: 0.003631; Fraction Infectivity: 0.00017; upper_lower: 0.00055; virus: dimeric-bEFNB2; upper: 0.00055; lower: 0.00017" role="graphics-symbol" aria-roledescription="errorbar" transform="translate(153.60157493477354,199.9690909090909)" x2="0" y2="-0.0690909090909031" stroke="#4e79a7" opacity="1"/><line aria-label="concentration: 0.010893; Fraction Infectivity: 1.69406589451e-21; upper_lower: 0.00003; virus: dimeric-bEFNB2; upper: 0.00003; lower: 1.69406589451e-21" role="graphics-symbol" aria-roledescription="errorbar" transform="translate(182.22885021795332,200)" x2="0" y2="-0.005454545454540494" stroke="#4e79a7" opacity="1"/><line aria-label="concentration: 0.03268; Fraction Infectivity: 0.00003; upper_lower: 0.00003; virus: dimeric-bEFNB2; upper: 0.00003; lower: 0.00003" role="graphics-symbol" aria-roledescription="errorbar" transform="translate(210.8569228716227,199.99454545454546)" x2="0" y2="0" stroke="#4e79a7" opacity="1"/><line aria-label="concentration: 0.098039; Fraction Infectivity: 0.00002; upper_lower: 0.00002; virus: dimeric-bEFNB2; upper: 0.00002; lower: 0.00002" role="graphics-symbol" aria-roledescription="errorbar" transform="translate(239.4839323673503,199.99636363636364)" x2="0" y2="0" stroke="#4e79a7" opacity="1"/><line aria-label="concentration: 0.0002; Fraction Infectivity: 0.8125; upper_lower: 0.95453; virus: monomeric-bEFNB2; upper: 0.95453; lower: 0.8125" role="graphics-symbol" aria-roledescription="errorbar" transform="translate(78.06179973983886,52.272727272727295)" x2="0" y2="-25.823636363636382" stroke="#e15759" opacity="1"/><line aria-label="concentration: 0.0006; Fraction Infectivity: 0.79646; upper_lower: 0.83833; virus: monomeric-bEFNB2; upper: 0.83833; lower: 0.79646" role="graphics-symbol" aria-roledescription="errorbar" transform="translate(106.68907502301862,55.18909090909092)" x2="0" y2="-7.612727272727284" stroke="#e15759" opacity="1"/><line aria-label="concentration: 0.00179; Fraction Infectivity: 0.59736; upper_lower: 0.63159; virus: monomeric-bEFNB2; upper: 0.63159; lower: 0.59736" role="graphics-symbol" aria-roledescription="errorbar" transform="translate(135.17118185879357,91.38909090909091)" x2="0" y2="-6.223636363636345" stroke="#e15759" opacity="1"/><line aria-label="concentration: 0.00537; Fraction Infectivity: 0.22795; upper_lower: 0.22807; virus: monomeric-bEFNB2; upper: 0.22807; lower: 0.22795" role="graphics-symbol" aria-roledescription="errorbar" transform="translate(163.79845714197333,158.55454545454546)" x2="0" y2="-0.021818181818190396" stroke="#e15759" opacity="1"/><line aria-label="concentration: 0.0161; Fraction Infectivity: 0.07665; upper_lower: 0.07792; virus: monomeric-bEFNB2; upper: 0.07792; lower: 0.07665" role="graphics-symbol" aria-roledescription="errorbar" transform="translate(192.40955256191097,186.06363636363636)" x2="0" y2="-0.23090909090907985" stroke="#e15759" opacity="1"/><line aria-label="concentration: 0.04831; Fraction Infectivity: 0.02207; upper_lower: 0.02605; virus: monomeric-bEFNB2; upper: 0.02605; lower: 0.02207" role="graphics-symbol" aria-roledescription="errorbar" transform="translate(221.04222224919116,195.9872727272727)" x2="0" y2="-0.7236363636363308" stroke="#e15759" opacity="1"/><line aria-label="concentration: 0.14493; Fraction Infectivity: 0.0066; upper_lower: 0.0101; virus: monomeric-bEFNB2; upper: 0.0101; lower: 0.0066" role="graphics-symbol" aria-roledescription="errorbar" transform="translate(249.66949753237094,198.8)" x2="0" y2="-0.6363636363636545" stroke="#e15759" opacity="1"/><line aria-label="concentration: 0.43478; Fraction Infectivity: 0.00358; upper_lower: 0.00363; virus: monomeric-bEFNB2; upper: 0.00363; lower: 0.00358" role="graphics-symbol" aria-roledescription="errorbar" transform="translate(278.29617349246195,199.34909090909093)" x2="0" y2="-0.009090909090929244" stroke="#e15759" opacity="1"/><line aria-label="concentration: 0.000045; Fraction Infectivity: 0.82763; upper_lower: 0.91036; virus: dimeric-bEFNB3; upper: 0.91036; lower: 0.82763" role="graphics-symbol" aria-roledescription="errorbar" transform="translate(39.19275082652064,49.5218181818182)" x2="0" y2="-15.04181818181818" stroke="#f28e2c" opacity="1"/><line aria-label="concentration: 0.000134; Fraction Infectivity: 0.84476; upper_lower: 0.86898; virus: dimeric-bEFNB3; upper: 0.86898; lower: 0.84476" role="graphics-symbol" aria-roledescription="errorbar" transform="translate(67.62628790188845,46.40727272727272)" x2="0" y2="-4.403636363636345" stroke="#f28e2c" opacity="1"/><line aria-label="concentration: 0.000403; Fraction Infectivity: 0.73316; upper_lower: 0.77907; virus: dimeric-bEFNB3; upper: 0.77907; lower: 0.73316" role="graphics-symbol" aria-roledescription="errorbar" transform="translate(96.31830276846657,66.69818181818181)" x2="0" y2="-8.34727272727271" stroke="#f28e2c" opacity="1"/><line aria-label="concentration: 0.00121; Fraction Infectivity: 0.44752; upper_lower: 0.47427; virus: dimeric-bEFNB3; upper: 0.47427; lower: 0.44752" role="graphics-symbol" aria-roledescription="errorbar" transform="translate(124.967122218987,118.6327272727273)" x2="0" y2="-4.863636363636388" stroke="#f28e2c" opacity="1"/><line aria-label="concentration: 0.003631; Fraction Infectivity: 0.12452; upper_lower: 0.12836; virus: dimeric-bEFNB3; upper: 0.12836; lower: 0.12452" role="graphics-symbol" aria-roledescription="errorbar" transform="translate(153.60157493477354,177.36)" x2="0" y2="-0.6981818181818369" stroke="#f28e2c" opacity="1"/><line aria-label="concentration: 0.010893; Fraction Infectivity: 0.02157; upper_lower: 0.02987; virus: dimeric-bEFNB3; upper: 0.02987; lower: 0.02157" role="graphics-symbol" aria-roledescription="errorbar" transform="translate(182.22885021795332,196.0781818181818)" x2="0" y2="-1.5090909090909008" stroke="#f28e2c" opacity="1"/><line aria-label="concentration: 0.03268; Fraction Infectivity: 0.00705; upper_lower: 0.00791; virus: dimeric-bEFNB3; upper: 0.00791; lower: 0.00705" role="graphics-symbol" aria-roledescription="errorbar" transform="translate(210.8569228716227,198.71818181818182)" x2="0" y2="-0.15636363636363626" stroke="#f28e2c" opacity="1"/><line aria-label="concentration: 0.098039; Fraction Infectivity: 0.0043; upper_lower: 0.00636; virus: dimeric-bEFNB3; upper: 0.00636; lower: 0.0043" role="graphics-symbol" aria-roledescription="errorbar" transform="translate(239.4839323673503,199.21818181818182)" x2="0" y2="-0.37454545454545496" stroke="#f28e2c" opacity="1"/><line aria-label="concentration: 0.0002; Fraction Infectivity: 0.91519; upper_lower: 0.92763; virus: monomeric-bEFNB3; upper: 0.92763; lower: 0.91519" role="graphics-symbol" aria-roledescription="errorbar" transform="translate(78.06179973983886,33.6018181818182)" x2="0" y2="-2.2618181818181924" stroke="#76b7b2" opacity="1"/><line aria-label="concentration: 0.0006; Fraction Infectivity: 0.98085; upper_lower: 1.09469; virus: monomeric-bEFNB3; upper: 1.09469; lower: 0.98085" role="graphics-symbol" aria-roledescription="errorbar" transform="translate(106.68907502301862,21.66363636363633)" x2="0" y2="-20.698181818181748" stroke="#76b7b2" opacity="1"/><line aria-label="concentration: 0.00179; Fraction Infectivity: 1.0236; upper_lower: 1.04087; virus: monomeric-bEFNB3; upper: 1.04087; lower: 1.0236" role="graphics-symbol" aria-roledescription="errorbar" transform="translate(135.17118185879357,13.890909090909087)" x2="0" y2="-3.139999999999965" stroke="#76b7b2" opacity="1"/><line aria-label="concentration: 0.00537; Fraction Infectivity: 1.0033; upper_lower: 1.00738; virus: monomeric-bEFNB3; upper: 1.00738; lower: 1.0033" role="graphics-symbol" aria-roledescription="errorbar" transform="translate(163.79845714197333,17.58181818181823)" x2="0" y2="-0.7418181818181999" stroke="#76b7b2" opacity="1"/><line aria-label="concentration: 0.0161; Fraction Infectivity: 0.9941; upper_lower: 0.99724; virus: monomeric-bEFNB3; upper: 0.99724; lower: 0.9941" role="graphics-symbol" aria-roledescription="errorbar" transform="translate(192.40955256191097,19.254545454545458)" x2="0" y2="-0.5709090909090904" stroke="#76b7b2" opacity="1"/><line aria-label="concentration: 0.04831; Fraction Infectivity: 0.9612; upper_lower: 1.01306; virus: monomeric-bEFNB3; upper: 1.01306; lower: 0.9612" role="graphics-symbol" aria-roledescription="errorbar" transform="translate(221.04222224919116,25.236363636363635)" x2="0" y2="-9.429090909090899" stroke="#76b7b2" opacity="1"/><line aria-label="concentration: 0.14493; Fraction Infectivity: 0.92005; upper_lower: 0.93393; virus: monomeric-bEFNB3; upper: 0.93393; lower: 0.92005" role="graphics-symbol" aria-roledescription="errorbar" transform="translate(249.66949753237094,32.718181818181826)" x2="0" y2="-2.523636363636353" stroke="#76b7b2" opacity="1"/><line aria-label="concentration: 0.43478; Fraction Infectivity: 0.88449; upper_lower: 0.90852; virus: monomeric-bEFNB3; upper: 0.90852; lower: 0.88449" role="graphics-symbol" aria-roledescription="errorbar" transform="translate(278.29617349246195,39.183636363636374)" x2="0" y2="-4.3690909090909" stroke="#76b7b2" opacity="1"/></g><g class="mark-group role-legend" role="graphics-symbol" aria-roledescription="legend" aria-label="Symbol legend titled 'Receptor' for fill color and stroke color with 4 values: dimeric-bEFNB2, dimeric-bEFNB3, monomeric-bEFNB2, monomeric-bEFNB3"><g transform="translate(318,0)"><path class="background" aria-hidden="true" d="M0,0h155v91h-155Z" pointer-events="none"/><g><g class="mark-group role-legend-entry"><g transform="translate(5,24)"><path class="background" aria-hidden="true" d="M0,0h0v0h0Z" pointer-events="none"/><g><g class="mark-group role-scope" role="graphics-object" aria-roledescription="group mark container"><g transform="translate(0,0)"><path class="background" aria-hidden="true" d="M0,0h144.8134765625v14h-144.8134765625Z" pointer-events="none" opacity="1"/><g><g class="mark-symbol role-legend-symbol" pointer-events="none"><path transform="translate(7,7)" d="M5,0A5,5,0,1,1,-5,0A5,5,0,1,1,5,0" fill="#4e79a7" stroke="#4e79a7" stroke-width="1.5" opacity="1"/></g><g class="mark-text role-legend-label" pointer-events="none"><text text-anchor="start" transform="translate(18,11)" font-family="Helvetica" font-size="14px" fill="#000" opacity="1">dimeric-bEFNB2</text></g></g><path class="foreground" aria-hidden="true" d="" pointer-events="none" display="none"/></g><g transform="translate(0,16)"><path class="background" aria-hidden="true" d="M0,0h144.8134765625v14h-144.8134765625Z" pointer-events="none" opacity="1"/><g><g class="mark-symbol role-legend-symbol" pointer-events="none"><path transform="translate(7,7)" d="M5,0A5,5,0,1,1,-5,0A5,5,0,1,1,5,0" fill="#f28e2c" stroke="#f28e2c" stroke-width="1.5" opacity="1"/></g><g class="mark-text role-legend-label" pointer-events="none"><text text-anchor="start" transform="translate(18,11)" font-family="Helvetica" font-size="14px" fill="#000" opacity="1">dimeric-bEFNB3</text></g></g><path class="foreground" aria-hidden="true" d="" pointer-events="none" display="none"/></g><g transform="translate(0,32)"><path class="background" aria-hidden="true" d="M0,0h144.8134765625v14h-144.8134765625Z" pointer-events="none" opacity="1"/><g><g class="mark-symbol role-legend-symbol" pointer-events="none"><path transform="translate(7,7)" d="M5,0A5,5,0,1,1,-5,0A5,5,0,1,1,5,0" fill="#e15759" stroke="#e15759" stroke-width="1.5" opacity="1"/></g><g class="mark-text role-legend-label" pointer-events="none"><text text-anchor="start" transform="translate(18,11)" font-family="Helvetica" font-size="14px" fill="#000" opacity="1">monomeric-bEFNB2</text></g></g><path class="foreground" aria-hidden="true" d="" pointer-events="none" display="none"/></g><g transform="translate(0,48)"><path class="background" aria-hidden="true" d="M0,0h144.8134765625v14h-144.8134765625Z" pointer-events="none" opacity="1"/><g><g class="mark-symbol role-legend-symbol" pointer-events="none"><path transform="translate(7,7)" d="M5,0A5,5,0,1,1,-5,0A5,5,0,1,1,5,0" fill="#76b7b2" stroke="#76b7b2" stroke-width="1.5" opacity="1"/></g><g class="mark-text role-legend-label" pointer-events="none"><text text-anchor="start" transform="translate(18,11)" font-family="Helvetica" font-size="14px" fill="#000" opacity="1">monomeric-bEFNB3</text></g></g><path class="foreground" aria-hidden="true" d="" pointer-events="none" display="none"/></g></g></g><path class="foreground" aria-hidden="true" d="" pointer-events="none" display="none"/></g></g><g class="mark-text role-legend-title" pointer-events="none"><text text-anchor="start" transform="translate(5,16)" font-family="Helvetica" font-size="14px" font-weight="bold" fill="#000" opacity="1">Receptor</text></g></g><path class="foreground" aria-hidden="true" d="" pointer-events="none" display="none"/></g></g></g><path class="foreground" aria-hidden="true" d="" display="none"/></g></g></g></svg>