<svg xmlns="http://www.w3.org/2000/svg" xmlns:xlink="http://www.w3.org/1999/xlink" version="1.1" class="marks" width="528" height="249" viewBox="0 0 528 249"><rect width="528" height="249" fill="white"/><g fill="none" stroke-miterlimit="10" transform="translate(50,5)"><g class="mark-group role-frame root" role="graphics-object" aria-roledescription="group mark container"><g transform="translate(0,0)"><path class="background" aria-hidden="true" d="M0,0h300v200h-300Z" stroke-width="0"/><g><g class="mark-group role-axis" role="graphics-symbol" aria-roledescription="axis" aria-label="X-axis titled 'Concentration (µM)' for a log scale with values from 1e-5 to 1e+0"><g transform="translate(0.5,200.5)"><path class="background" aria-hidden="true" d="M0,0h0v0h0Z" pointer-events="none"/><g><g class="mark-rule role-axis-tick" pointer-events="none"><line transform="translate(60,0)" x2="0" y2="4" stroke="black" stroke-width="1" opacity="1"/><line transform="translate(180,0)" x2="0" y2="4" stroke="black" stroke-width="1" opacity="1"/><line transform="translate(300,0)" x2="0" y2="4" stroke="black" stroke-width="1" opacity="1"/></g><g class="mark-text role-axis-label" pointer-events="none"><text text-anchor="middle" transform="translate(60.00000000000003,17)" font-family="Helvetica" font-size="14px" font-weight="normal" fill="#000" opacity="1">1e-4</text><text text-anchor="middle" transform="translate(180.00000000000003,17)" font-family="Helvetica" font-size="14px" font-weight="normal" fill="#000" opacity="1">1e-2</text><text text-anchor="middle" transform="translate(300,17)" font-family="Helvetica" font-size="14px" font-weight="normal" fill="#000" opacity="1">1e+0</text></g><g class="mark-rule role-axis-domain" pointer-events="none"><line transform="translate(0,0)" x2="300" y2="0" stroke="black" stroke-width="1" opacity="1"/></g><g class="mark-text role-axis-title" pointer-events="none"><text text-anchor="middle" transform="translate(150,36)" font-family="Helvetica" font-size="14px" font-weight="bold" fill="#000" opacity="1">Concentration (µM)</text></g></g><path class="foreground" aria-hidden="true" d="" pointer-events="none" display="none"/></g></g><g class="mark-group role-axis" role="graphics-symbol" aria-roledescription="axis" aria-label="Y-axis titled 'Fraction Infectivity' for a linear scale with values from 0.0 to 1.1"><g transform="translate(0.5,0.5)"><path class="background" aria-hidden="true" d="M0,0h0v0h0Z" pointer-events="none"/><g><g class="mark-rule role-axis-tick" pointer-events="none"><line transform="translate(0,200)" x2="-4" y2="0" stroke="black" stroke-width="1" opacity="1"/><line transform="translate(0,164)" x2="-4" y2="0" stroke="black" stroke-width="1" opacity="1"/><line transform="translate(0,127)" x2="-4" y2="0" stroke="black" stroke-width="1" opacity="1"/><line transform="translate(0,91)" x2="-4" y2="0" stroke="black" stroke-width="1" opacity="1"/><line transform="translate(0,55)" x2="-4" y2="0" stroke="black" stroke-width="1" opacity="1"/><line transform="translate(0,18)" x2="-4" y2="0" stroke="black" stroke-width="1" opacity="1"/></g><g class="mark-text role-axis-label" pointer-events="none"><text text-anchor="end" transform="translate(-6,204)" font-family="Helvetica" font-size="14px" font-weight="normal" fill="#000" opacity="1">0.0</text><text text-anchor="end" transform="translate(-6,167.63636363636363)" font-family="Helvetica" font-size="14px" font-weight="normal" fill="#000" opacity="1">0.2</text><text text-anchor="end" transform="translate(-6,131.27272727272725)" font-family="Helvetica" font-size="14px" font-weight="normal" fill="#000" opacity="1">0.4</text><text text-anchor="end" transform="translate(-6,94.90909090909092)" font-family="Helvetica" font-size="14px" font-weight="normal" fill="#000" opacity="1">0.6</text><text text-anchor="end" transform="translate(-6,58.54545454545454)" font-family="Helvetica" font-size="14px" font-weight="normal" fill="#000" opacity="1">0.8</text><text text-anchor="end" transform="translate(-6,22.181818181818187)" font-family="Helvetica" font-size="14px" font-weight="normal" fill="#000" opacity="1">1.0</text></g><g class="mark-rule role-axis-domain" pointer-events="none"><line transform="translate(0,200)" x2="0" y2="-200" stroke="black" stroke-width="1" opacity="1"/></g><g class="mark-text role-axis-title" pointer-events="none"><text text-anchor="middle" transform="translate(-30.4619140625,100) rotate(-90) translate(0,-3)" font-family="Helvetica" font-size="14px" font-weight="bold" fill="#000" opacity="1">Fraction Infectivity</text></g></g><path class="foreground" aria-hidden="true" d="" pointer-events="none" display="none"/></g></g><g class="mark-group role-scope layer_0_pathgroup" role="graphics-object" aria-roledescription="group mark container"><g transform="translate(0,0)"><path class="background" aria-hidden="true" d="M0,0h300v200h-300Z"/><g><g class="mark-line role-mark layer_0_marks" role="graphics-object" aria-roledescription="line mark container"><path aria-label="Concentration (µM): 2e-5; Fraction Infectivity: 0.827615355099; Receptor: dimeric-bEFNB2" role="graphics-symbol" aria-roledescription="line mark" d="M19.164,49.524L20.371,52.111L21.579,54.859L22.787,57.77L23.995,60.845L25.203,64.081L26.41,67.475L27.618,71.023L28.826,74.717L30.034,78.549L31.241,82.507L32.449,86.579L33.657,90.749L34.865,95.001L36.073,99.317L37.28,103.678L38.488,108.064L39.193,110.627L39.696,112.455L40.904,116.831L42.112,121.171L43.319,125.455L44.527,129.665L45.735,133.785L46.943,137.798L48.15,141.69L49.358,145.45L50.566,149.067L51.774,152.534L52.982,155.844L54.189,158.995L55.397,161.982L56.605,164.806L57.813,167.468L59.021,169.97L60.228,172.315L61.436,174.508L62.644,176.553L63.852,178.457L65.06,180.226L66.267,181.866L67.475,183.383L67.626,183.565L68.683,184.786L69.891,186.08L71.098,187.273L72.306,188.37L73.514,189.379L74.722,190.305L75.93,191.155L77.137,191.933L78.345,192.646L79.553,193.299L80.761,193.895L81.969,194.44L83.176,194.938L84.384,195.393L85.592,195.807L86.8,196.186L88.007,196.53L89.215,196.844L90.423,197.13L91.631,197.391L92.839,197.628L94.046,197.844L95.254,198.04L96.318,198.199L96.462,198.219L97.67,198.382L98.878,198.53L100.085,198.664L101.293,198.786L102.501,198.897L103.709,198.998L104.916,199.09L106.124,199.174L107.332,199.249L108.54,199.318L109.748,199.381L110.955,199.438L112.163,199.489L113.371,199.536L114.579,199.579L115.787,199.618L116.994,199.653L118.202,199.685L119.41,199.714L120.618,199.74L121.825,199.764L123.033,199.786L124.241,199.805L124.967,199.816L125.449,199.823L126.657,199.84L127.864,199.854L129.072,199.868L130.28,199.88L131.488,199.891L132.696,199.901L133.903,199.91L135.111,199.918L136.319,199.926L137.527,199.933L138.734,199.939L139.942,199.945L141.15,199.95L142.358,199.954L143.566,199.959L144.773,199.962L145.981,199.966L147.189,199.969L148.397,199.972L149.605,199.974L150.812,199.977L152.02,199.979L153.228,199.981L153.602,199.981L154.436,199.983L155.643,199.984L156.851,199.986L158.059,199.987L159.267,199.988L160.475,199.989L161.682,199.99L162.89,199.991L164.098,199.992L165.306,199.993L166.514,199.993L167.721,199.994L168.929,199.995L170.137,199.995L171.345,199.996L172.552,199.996L173.76,199.996L174.968,199.997L176.176,199.997L177.384,199.997L178.591,199.997L179.799,199.998L181.007,199.998L182.215,199.998L182.229,199.998L183.423,199.998L184.63,199.998L185.838,199.999L187.046,199.999L188.254,199.999L189.461,199.999L190.669,199.999L191.877,199.999L193.085,199.999L194.293,199.999L195.5,199.999L196.708,199.999L197.916,199.999L199.124,200L200.332,200L201.539,200L202.747,200L203.955,200L205.163,200L206.37,200L207.578,200L208.786,200L209.994,200L210.857,200L211.202,200L212.409,200L213.617,200L214.825,200L216.033,200L217.241,200L218.448,200L219.656,200L220.864,200L222.072,200L223.279,200L224.487,200L225.695,200L226.903,200L228.111,200L229.318,200L230.526,200L231.734,200L232.942,200L234.15,200L235.357,200L236.565,200L237.773,200L238.981,200L239.484,200L240.188,200L241.396,200L242.604,200L243.812,200L245.02,200L246.227,200L247.435,200L248.643,200L249.851,200L251.059,200L252.266,200L253.474,200L254.682,200L255.89,200L257.097,200L258.305,200L259.513,200" stroke="#4e79a7" stroke-width="1.5"/></g></g><path class="foreground" aria-hidden="true" d="" display="none"/></g><g transform="translate(0,0)"><path class="background" aria-hidden="true" d="M0,0h300v200h-300Z"/><g><g class="mark-line role-mark layer_0_marks" role="graphics-object" aria-roledescription="line mark container"><path aria-label="Concentration (µM): 9e-5; Fraction Infectivity: 0.91498926623; Receptor: monomeric-bEFNB2" role="graphics-symbol" aria-roledescription="line mark" d="M58.038,33.638L59.246,34.34L60.453,35.071L61.661,35.831L62.868,36.621L64.076,37.443L65.283,38.297L66.49,39.183L67.698,40.104L68.905,41.059L70.113,42.049L71.32,43.076L72.528,44.14L73.735,45.241L74.943,46.38L76.15,47.558L77.357,48.776L78.062,49.505L78.565,50.034L79.772,51.332L80.98,52.671L82.187,54.051L83.395,55.472L84.602,56.934L85.81,58.438L87.017,59.983L88.224,61.569L89.432,63.196L90.639,64.863L91.847,66.571L93.054,68.317L94.262,70.103L95.469,71.925L96.677,73.785L97.884,75.68L99.091,77.609L100.299,79.57L101.506,81.563L102.714,83.586L103.921,85.636L105.129,87.713L106.336,89.813L106.689,90.431L107.544,91.935L108.751,94.076L109.958,96.235L111.166,98.408L112.373,100.594L113.581,102.79L114.788,104.994L115.996,107.202L117.203,109.413L118.411,111.623L119.618,113.83L120.825,116.031L122.033,118.225L123.24,120.407L124.448,122.577L125.655,124.731L126.863,126.867L128.07,128.983L129.278,131.076L130.485,133.145L131.692,135.187L132.9,137.202L134.107,139.186L135.171,140.908L135.315,141.138L136.522,143.057L137.73,144.942L138.937,146.791L140.145,148.603L141.352,150.377L142.559,152.112L143.767,153.808L144.974,155.464L146.182,157.079L147.389,158.653L148.597,160.186L149.804,161.678L151.012,163.128L152.219,164.537L153.426,165.905L154.634,167.232L155.841,168.518L157.049,169.764L158.256,170.97L159.464,172.137L160.671,173.265L161.878,174.356L163.086,175.408L163.798,176.012L164.293,176.424L165.501,177.405L166.708,178.35L167.916,179.26L169.123,180.137L170.331,180.981L171.538,181.794L172.745,182.575L173.953,183.327L175.16,184.049L176.368,184.743L177.575,185.409L178.783,186.048L179.99,186.662L181.198,187.251L182.405,187.815L183.612,188.357L184.82,188.876L186.027,189.373L187.235,189.849L188.442,190.306L189.65,190.742L190.857,191.16L192.065,191.561L192.41,191.672L193.272,191.944L194.479,192.31L195.687,192.66L196.894,192.995L198.102,193.315L199.309,193.622L200.517,193.914L201.724,194.194L202.932,194.461L204.139,194.717L205.346,194.96L206.554,195.193L207.761,195.416L208.969,195.628L210.176,195.831L211.384,196.025L212.591,196.209L213.799,196.386L215.006,196.554L216.213,196.715L217.421,196.868L218.628,197.014L219.836,197.154L221.042,197.287L221.043,197.287L222.251,197.414L223.458,197.535L224.666,197.65L225.873,197.761L227.08,197.866L228.288,197.966L229.495,198.061L230.703,198.152L231.91,198.239L233.118,198.322L234.325,198.401L235.533,198.476L236.74,198.548L237.947,198.617L239.155,198.682L240.362,198.744L241.57,198.803L242.777,198.86L243.985,198.913L245.192,198.965L246.4,199.014L247.607,199.06L248.814,199.105L249.669,199.135L250.022,199.147L251.229,199.187L252.437,199.226L253.644,199.262L254.852,199.297L256.059,199.33L257.267,199.362L258.474,199.392L259.681,199.421L260.889,199.448L262.096,199.474L263.304,199.499L264.511,199.523L265.719,199.546L266.926,199.567L268.134,199.588L269.341,199.607L270.548,199.626L271.756,199.644L272.963,199.66L274.171,199.677L275.378,199.692L276.586,199.706L277.793,199.72L278.296,199.726L279.001,199.734L280.208,199.746L281.415,199.758L282.623,199.77L283.83,199.781L285.038,199.791L286.245,199.801L287.453,199.81L288.66,199.819L289.868,199.828L291.075,199.836L292.282,199.844L293.49,199.851L294.697,199.858L295.905,199.865L297.112,199.871L298.32,199.878" stroke="#e15759" stroke-width="1.5"/></g></g><path class="foreground" aria-hidden="true" d="" display="none"/></g><g transform="translate(0,0)"><path class="background" aria-hidden="true" d="M0,0h300v200h-300Z"/><g><g class="mark-line role-mark layer_0_marks" role="graphics-object" aria-roledescription="line mark container"><path aria-label="Concentration (µM): 2e-5; Fraction Infectivity: 0.95890501664; Receptor: dimeric-bEFNB3" role="graphics-symbol" aria-roledescription="line mark" d="M19.164,25.654L20.371,25.97L21.579,26.298L22.787,26.641L23.995,26.996L25.203,27.366L26.41,27.751L27.618,28.15L28.826,28.566L30.034,28.997L31.241,29.446L32.449,29.911L33.657,30.395L34.865,30.897L36.073,31.418L37.28,31.958L38.488,32.519L39.193,32.856L39.696,33.101L40.904,33.704L42.112,34.329L43.319,34.977L44.527,35.648L45.735,36.342L46.943,37.062L48.15,37.806L49.358,38.576L50.566,39.372L51.774,40.195L52.982,41.046L54.189,41.924L55.397,42.831L56.605,43.767L57.813,44.733L59.021,45.728L60.228,46.754L61.436,47.811L62.644,48.899L63.852,50.019L65.06,51.171L66.267,52.355L67.475,53.571L67.626,53.726L68.683,54.82L69.891,56.101L71.098,57.416L72.306,58.762L73.514,60.142L74.722,61.554L75.93,62.998L77.137,64.475L78.345,65.983L79.553,67.522L80.761,69.092L81.969,70.692L83.176,72.321L84.384,73.98L85.592,75.666L86.8,77.379L88.007,79.119L89.215,80.883L90.423,82.671L91.631,84.482L92.839,86.314L94.046,88.166L95.254,90.036L96.318,91.699L96.462,91.924L97.67,93.827L98.878,95.744L100.085,97.673L101.293,99.612L102.501,101.561L103.709,103.516L104.916,105.477L106.124,107.441L107.332,109.406L108.54,111.371L109.748,113.334L110.955,115.294L112.163,117.247L113.371,119.193L114.579,121.129L115.787,123.054L116.994,124.967L118.202,126.865L119.41,128.748L120.618,130.612L121.825,132.458L123.033,134.283L124.241,136.087L124.967,137.16L125.449,137.868L126.657,139.624L127.864,141.355L129.072,143.06L130.28,144.737L131.488,146.386L132.696,148.007L133.903,149.597L135.111,151.157L136.319,152.686L137.527,154.184L138.734,155.65L139.942,157.084L141.15,158.486L142.358,159.855L143.566,161.191L144.773,162.495L145.981,163.766L147.189,165.004L148.397,166.21L149.605,167.384L150.812,168.525L152.02,169.635L153.228,170.713L153.602,171.04L154.436,171.76L155.643,172.776L156.851,173.762L158.059,174.718L159.267,175.645L160.475,176.543L161.682,177.412L162.89,178.254L164.098,179.068L165.306,179.856L166.514,180.618L167.721,181.354L168.929,182.065L170.137,182.752L171.345,183.415L172.552,184.056L173.76,184.674L174.968,185.27L176.176,185.845L177.384,186.399L178.591,186.933L179.799,187.448L181.007,187.944L182.215,188.422L182.229,188.427L183.423,188.882L184.63,189.325L185.838,189.751L187.046,190.161L188.254,190.556L189.461,190.936L190.669,191.301L191.877,191.652L193.085,191.99L194.293,192.315L195.5,192.627L196.708,192.927L197.916,193.215L199.124,193.492L200.332,193.758L201.539,194.013L202.747,194.259L203.955,194.494L205.163,194.721L206.37,194.938L207.578,195.146L208.786,195.347L209.994,195.539L210.857,195.671L211.202,195.723L212.409,195.9L213.617,196.07L214.825,196.233L216.033,196.389L217.241,196.539L218.448,196.683L219.656,196.821L220.864,196.953L222.072,197.08L223.279,197.201L224.487,197.318L225.695,197.43L226.903,197.537L228.111,197.64L229.318,197.739L230.526,197.833L231.734,197.924L232.942,198.011L234.15,198.094L235.357,198.174L236.565,198.251L237.773,198.324L238.981,198.394L239.484,198.423L240.188,198.462L241.396,198.526L242.604,198.588L243.812,198.647L245.02,198.704L246.227,198.759L247.435,198.811L248.643,198.861L249.851,198.909L251.059,198.955L252.266,198.999L253.474,199.041L254.682,199.081L255.89,199.12L257.097,199.157L258.305,199.193L259.513,199.227" stroke="#f28e2c" stroke-width="1.5"/></g></g><path class="foreground" aria-hidden="true" d="" display="none"/></g><g transform="translate(0,0)"><path class="background" aria-hidden="true" d="M0,0h300v200h-300Z"/><g><g class="mark-line role-mark layer_0_marks" role="graphics-object" aria-roledescription="line mark container"><path aria-label="Concentration (µM): 9e-5; Fraction Infectivity: 0.98914671885; Receptor: monomeric-bEFNB3" role="graphics-symbol" aria-roledescription="line mark" d="M58.038,20.155L59.246,20.188L60.453,20.221L61.661,20.255L62.868,20.289L64.076,20.324L65.283,20.36L66.49,20.396L67.698,20.433L68.905,20.47L70.113,20.508L71.32,20.546L72.528,20.586L73.735,20.625L74.943,20.666L76.15,20.707L77.357,20.749L78.062,20.773L78.565,20.791L79.772,20.834L80.98,20.878L82.187,20.923L83.395,20.968L84.602,21.014L85.81,21.061L87.017,21.108L88.224,21.157L89.432,21.206L90.639,21.256L91.847,21.306L93.054,21.358L94.262,21.41L95.469,21.464L96.677,21.518L97.884,21.573L99.091,21.628L100.299,21.685L101.506,21.743L102.714,21.801L103.921,21.861L105.129,21.921L106.336,21.983L106.689,22.001L107.544,22.045L108.751,22.109L109.958,22.173L111.166,22.239L112.373,22.305L113.581,22.373L114.788,22.441L115.996,22.511L117.203,22.582L118.411,22.654L119.618,22.727L120.825,22.802L122.033,22.877L123.24,22.954L124.448,23.032L125.655,23.111L126.863,23.192L128.07,23.273L129.278,23.356L130.485,23.441L131.692,23.526L132.9,23.613L134.107,23.702L135.171,23.781L135.315,23.791L136.522,23.883L137.73,23.975L138.937,24.069L140.145,24.165L141.352,24.262L142.559,24.361L143.767,24.461L144.974,24.562L146.182,24.666L147.389,24.77L148.597,24.877L149.804,24.985L151.012,25.095L152.219,25.207L153.426,25.32L154.634,25.435L155.841,25.552L157.049,25.67L158.256,25.791L159.464,25.913L160.671,26.037L161.878,26.163L163.086,26.291L163.798,26.367L164.293,26.421L165.501,26.553L166.708,26.687L167.916,26.823L169.123,26.961L170.331,27.101L171.538,27.243L172.745,27.387L173.953,27.534L175.16,27.683L176.368,27.834L177.575,27.987L178.783,28.143L179.99,28.3L181.198,28.461L182.405,28.623L183.612,28.788L184.82,28.956L186.027,29.126L187.235,29.298L188.442,29.473L189.65,29.651L190.857,29.831L192.065,30.014L192.41,30.066L193.272,30.199L194.479,30.387L195.687,30.578L196.894,30.772L198.102,30.968L199.309,31.167L200.517,31.37L201.724,31.575L202.932,31.783L204.139,31.993L205.346,32.207L206.554,32.424L207.761,32.644L208.969,32.867L210.176,33.094L211.384,33.323L212.591,33.556L213.799,33.792L215.006,34.031L216.213,34.273L217.421,34.519L218.628,34.768L219.836,35.021L221.042,35.277L221.043,35.277L222.251,35.536L223.458,35.799L224.666,36.066L225.873,36.336L227.08,36.61L228.288,36.887L229.495,37.169L230.703,37.453L231.91,37.742L233.118,38.034L234.325,38.331L235.533,38.631L236.74,38.935L237.947,39.243L239.155,39.555L240.362,39.871L241.57,40.191L242.777,40.515L243.985,40.843L245.192,41.175L246.4,41.511L247.607,41.852L248.814,42.197L249.669,42.443L250.022,42.546L251.229,42.899L252.437,43.257L253.644,43.619L254.852,43.985L256.059,44.356L257.267,44.731L258.474,45.11L259.681,45.494L260.889,45.883L262.096,46.276L263.304,46.674L264.511,47.076L265.719,47.483L266.926,47.894L268.134,48.31L269.341,48.731L270.548,49.156L271.756,49.586L272.963,50.021L274.171,50.46L275.378,50.905L276.586,51.354L277.793,51.807L278.296,51.998L279.001,52.266L280.208,52.729L281.415,53.197L282.623,53.67L283.83,54.148L285.038,54.631L286.245,55.118L287.453,55.61L288.66,56.108L289.868,56.609L291.075,57.116L292.282,57.628L293.49,58.144L294.697,58.666L295.905,59.192L297.112,59.723L298.32,60.259" stroke="#76b7b2" stroke-width="1.5"/></g></g><path class="foreground" aria-hidden="true" d="" display="none"/></g></g><g class="mark-symbol role-mark layer_1_marks" role="graphics-object" aria-roledescription="symbol mark container"><path aria-label="Concentration (µM): 5e-5; Fraction Infectivity: 0.49116; Receptor: dimeric-bEFNB2" role="graphics-symbol" aria-roledescription="circle" transform="translate(39.19275082652064,110.69818181818181)" d="M3.162,0A3.162,3.162,0,1,1,-3.162,0A3.162,3.162,0,1,1,3.162,0" fill="#4e79a7" stroke-width="2" opacity="1"/><path aria-label="Concentration (µM): 1e-4; Fraction Infectivity: 0.092765; Receptor: dimeric-bEFNB2" role="graphics-symbol" aria-roledescription="circle" transform="translate(67.62628790188845,183.13363636363636)" d="M3.162,0A3.162,3.162,0,1,1,-3.162,0A3.162,3.162,0,1,1,3.162,0" fill="#4e79a7" stroke-width="2" opacity="1"/><path aria-label="Concentration (µM): 4e-4; Fraction Infectivity: 0.00016; Receptor: dimeric-bEFNB2" role="graphics-symbol" aria-roledescription="circle" transform="translate(96.31830276846657,199.9709090909091)" d="M3.162,0A3.162,3.162,0,1,1,-3.162,0A3.162,3.162,0,1,1,3.162,0" fill="#4e79a7" stroke-width="2" opacity="1"/><path aria-label="Concentration (µM): 1e-3; Fraction Infectivity: 0.00001; Receptor: dimeric-bEFNB2" role="graphics-symbol" aria-roledescription="circle" transform="translate(124.967122218987,199.99818181818182)" d="M3.162,0A3.162,3.162,0,1,1,-3.162,0A3.162,3.162,0,1,1,3.162,0" fill="#4e79a7" stroke-width="2" opacity="1"/><path aria-label="Concentration (µM): 4e-3; Fraction Infectivity: 0.00001; Receptor: dimeric-bEFNB2" role="graphics-symbol" aria-roledescription="circle" transform="translate(153.60157493477354,199.99818181818182)" d="M3.162,0A3.162,3.162,0,1,1,-3.162,0A3.162,3.162,0,1,1,3.162,0" fill="#4e79a7" stroke-width="2" opacity="1"/><path aria-label="Concentration (µM): 1e-2; Fraction Infectivity: 0.000005; Receptor: dimeric-bEFNB2" role="graphics-symbol" aria-roledescription="circle" transform="translate(182.22885021795332,199.9990909090909)" d="M3.162,0A3.162,3.162,0,1,1,-3.162,0A3.162,3.162,0,1,1,3.162,0" fill="#4e79a7" stroke-width="2" opacity="1"/><path aria-label="Concentration (µM): 3e-2; Fraction Infectivity: 0.000005; Receptor: dimeric-bEFNB2" role="graphics-symbol" aria-roledescription="circle" transform="translate(210.8569228716227,199.9990909090909)" d="M3.162,0A3.162,3.162,0,1,1,-3.162,0A3.162,3.162,0,1,1,3.162,0" fill="#4e79a7" stroke-width="2" opacity="1"/><path aria-label="Concentration (µM): 1e-1; Fraction Infectivity: 0.000025; Receptor: dimeric-bEFNB2" role="graphics-symbol" aria-roledescription="circle" transform="translate(239.4839323673503,199.99545454545455)" d="M3.162,0A3.162,3.162,0,1,1,-3.162,0A3.162,3.162,0,1,1,3.162,0" fill="#4e79a7" stroke-width="2" opacity="1"/><path aria-label="Concentration (µM): 2e-4; Fraction Infectivity: 0.769185; Receptor: monomeric-bEFNB2" role="graphics-symbol" aria-roledescription="circle" transform="translate(78.06179973983886,60.148181818181826)" d="M3.162,0A3.162,3.162,0,1,1,-3.162,0A3.162,3.162,0,1,1,3.162,0" fill="#e15759" stroke-width="2" opacity="1"/><path aria-label="Concentration (µM): 6e-4; Fraction Infectivity: 0.634845; Receptor: monomeric-bEFNB2" role="graphics-symbol" aria-roledescription="circle" transform="translate(106.68907502301862,84.57363636363637)" d="M3.162,0A3.162,3.162,0,1,1,-3.162,0A3.162,3.162,0,1,1,3.162,0" fill="#e15759" stroke-width="2" opacity="1"/><path aria-label="Concentration (µM): 2e-3; Fraction Infectivity: 0.35843; Receptor: monomeric-bEFNB2" role="graphics-symbol" aria-roledescription="circle" transform="translate(135.17118185879357,134.8309090909091)" d="M3.162,0A3.162,3.162,0,1,1,-3.162,0A3.162,3.162,0,1,1,3.162,0" fill="#e15759" stroke-width="2" opacity="1"/><path aria-label="Concentration (µM): 5e-3; Fraction Infectivity: 0.09098; Receptor: monomeric-bEFNB2" role="graphics-symbol" aria-roledescription="circle" transform="translate(163.79845714197333,183.4581818181818)" d="M3.162,0A3.162,3.162,0,1,1,-3.162,0A3.162,3.162,0,1,1,3.162,0" fill="#e15759" stroke-width="2" opacity="1"/><path aria-label="Concentration (µM): 2e-2; Fraction Infectivity: 0.0054; Receptor: monomeric-bEFNB2" role="graphics-symbol" aria-roledescription="circle" transform="translate(192.40955256191097,199.01818181818183)" d="M3.162,0A3.162,3.162,0,1,1,-3.162,0A3.162,3.162,0,1,1,3.162,0" fill="#e15759" stroke-width="2" opacity="1"/><path aria-label="Concentration (µM): 5e-2; Fraction Infectivity: 0.00007; Receptor: monomeric-bEFNB2" role="graphics-symbol" aria-roledescription="circle" transform="translate(221.04222224919116,199.98727272727274)" d="M3.162,0A3.162,3.162,0,1,1,-3.162,0A3.162,3.162,0,1,1,3.162,0" fill="#e15759" stroke-width="2" opacity="1"/><path aria-label="Concentration (µM): 1e-1; Fraction Infectivity: 0.000005; Receptor: monomeric-bEFNB2" role="graphics-symbol" aria-roledescription="circle" transform="translate(249.66949753237094,199.9990909090909)" d="M3.162,0A3.162,3.162,0,1,1,-3.162,0A3.162,3.162,0,1,1,3.162,0" fill="#e15759" stroke-width="2" opacity="1"/><path aria-label="Concentration (µM): 4e-1; Fraction Infectivity: 0.00001; Receptor: monomeric-bEFNB2" role="graphics-symbol" aria-roledescription="circle" transform="translate(278.29617349246195,199.99818181818182)" d="M3.162,0A3.162,3.162,0,1,1,-3.162,0A3.162,3.162,0,1,1,3.162,0" fill="#e15759" stroke-width="2" opacity="1"/><path aria-label="Concentration (µM): 5e-5; Fraction Infectivity: 0.847165; Receptor: dimeric-bEFNB3" role="graphics-symbol" aria-roledescription="circle" transform="translate(39.19275082652064,45.97000000000002)" d="M3.162,0A3.162,3.162,0,1,1,-3.162,0A3.162,3.162,0,1,1,3.162,0" fill="#f28e2c" stroke-width="2" opacity="1"/><path aria-label="Concentration (µM): 1e-4; Fraction Infectivity: 0.77219; Receptor: dimeric-bEFNB3" role="graphics-symbol" aria-roledescription="circle" transform="translate(67.62628790188845,59.601818181818174)" d="M3.162,0A3.162,3.162,0,1,1,-3.162,0A3.162,3.162,0,1,1,3.162,0" fill="#f28e2c" stroke-width="2" opacity="1"/><path aria-label="Concentration (µM): 4e-4; Fraction Infectivity: 0.61689; Receptor: dimeric-bEFNB3" role="graphics-symbol" aria-roledescription="circle" transform="translate(96.31830276846657,87.83818181818184)" d="M3.162,0A3.162,3.162,0,1,1,-3.162,0A3.162,3.162,0,1,1,3.162,0" fill="#f28e2c" stroke-width="2" opacity="1"/><path aria-label="Concentration (µM): 1e-3; Fraction Infectivity: 0.439885; Receptor: dimeric-bEFNB3" role="graphics-symbol" aria-roledescription="circle" transform="translate(124.967122218987,120.0209090909091)" d="M3.162,0A3.162,3.162,0,1,1,-3.162,0A3.162,3.162,0,1,1,3.162,0" fill="#f28e2c" stroke-width="2" opacity="1"/><path aria-label="Concentration (µM): 4e-3; Fraction Infectivity: 0.072615; Receptor: dimeric-bEFNB3" role="graphics-symbol" aria-roledescription="circle" transform="translate(153.60157493477354,186.79727272727274)" d="M3.162,0A3.162,3.162,0,1,1,-3.162,0A3.162,3.162,0,1,1,3.162,0" fill="#f28e2c" stroke-width="2" opacity="1"/><path aria-label="Concentration (µM): 1e-2; Fraction Infectivity: 0.00047; Receptor: dimeric-bEFNB3" role="graphics-symbol" aria-roledescription="circle" transform="translate(182.22885021795332,199.91454545454545)" d="M3.162,0A3.162,3.162,0,1,1,-3.162,0A3.162,3.162,0,1,1,3.162,0" fill="#f28e2c" stroke-width="2" opacity="1"/><path aria-label="Concentration (µM): 3e-2; Fraction Infectivity: 0.000005; Receptor: dimeric-bEFNB3" role="graphics-symbol" aria-roledescription="circle" transform="translate(210.8569228716227,199.9990909090909)" d="M3.162,0A3.162,3.162,0,1,1,-3.162,0A3.162,3.162,0,1,1,3.162,0" fill="#f28e2c" stroke-width="2" opacity="1"/><path aria-label="Concentration (µM): 1e-1; Fraction Infectivity: 0.000025; Receptor: dimeric-bEFNB3" role="graphics-symbol" aria-roledescription="circle" transform="translate(239.4839323673503,199.99545454545455)" d="M3.162,0A3.162,3.162,0,1,1,-3.162,0A3.162,3.162,0,1,1,3.162,0" fill="#f28e2c" stroke-width="2" opacity="1"/><path aria-label="Concentration (µM): 2e-4; Fraction Infectivity: 1.02474; Receptor: monomeric-bEFNB3" role="graphics-symbol" aria-roledescription="circle" transform="translate(78.06179973983886,13.683636363636387)" d="M3.162,0A3.162,3.162,0,1,1,-3.162,0A3.162,3.162,0,1,1,3.162,0" fill="#76b7b2" stroke-width="2" opacity="1"/><path aria-label="Concentration (µM): 6e-4; Fraction Infectivity: 0.93758; Receptor: monomeric-bEFNB3" role="graphics-symbol" aria-roledescription="circle" transform="translate(106.68907502301862,29.53090909090912)" d="M3.162,0A3.162,3.162,0,1,1,-3.162,0A3.162,3.162,0,1,1,3.162,0" fill="#76b7b2" stroke-width="2" opacity="1"/><path aria-label="Concentration (µM): 2e-3; Fraction Infectivity: 0.924655; Receptor: monomeric-bEFNB3" role="graphics-symbol" aria-roledescription="circle" transform="translate(135.17118185879357,31.880909090909103)" d="M3.162,0A3.162,3.162,0,1,1,-3.162,0A3.162,3.162,0,1,1,3.162,0" fill="#76b7b2" stroke-width="2" opacity="1"/><path aria-label="Concentration (µM): 5e-3; Fraction Infectivity: 0.96586; Receptor: monomeric-bEFNB3" role="graphics-symbol" aria-roledescription="circle" transform="translate(163.79845714197333,24.38909090909094)" d="M3.162,0A3.162,3.162,0,1,1,-3.162,0A3.162,3.162,0,1,1,3.162,0" fill="#76b7b2" stroke-width="2" opacity="1"/><path aria-label="Concentration (µM): 2e-2; Fraction Infectivity: 0.973345; Receptor: monomeric-bEFNB3" role="graphics-symbol" aria-roledescription="circle" transform="translate(192.40955256191097,23.02818181818185)" d="M3.162,0A3.162,3.162,0,1,1,-3.162,0A3.162,3.162,0,1,1,3.162,0" fill="#76b7b2" stroke-width="2" opacity="1"/><path aria-label="Concentration (µM): 5e-2; Fraction Infectivity: 0.905355; Receptor: monomeric-bEFNB3" role="graphics-symbol" aria-roledescription="circle" transform="translate(221.04222224919116,35.39000000000003)" d="M3.162,0A3.162,3.162,0,1,1,-3.162,0A3.162,3.162,0,1,1,3.162,0" fill="#76b7b2" stroke-width="2" opacity="1"/><path aria-label="Concentration (µM): 1e-1; Fraction Infectivity: 0.85844; Receptor: monomeric-bEFNB3" role="graphics-symbol" aria-roledescription="circle" transform="translate(249.66949753237094,43.92000000000002)" d="M3.162,0A3.162,3.162,0,1,1,-3.162,0A3.162,3.162,0,1,1,3.162,0" fill="#76b7b2" stroke-width="2" opacity="1"/><path aria-label="Concentration (µM): 4e-1; Fraction Infectivity: 0.812645; Receptor: monomeric-bEFNB3" role="graphics-symbol" aria-roledescription="circle" transform="translate(278.29617349246195,52.24636363636363)" d="M3.162,0A3.162,3.162,0,1,1,-3.162,0A3.162,3.162,0,1,1,3.162,0" fill="#76b7b2" stroke-width="2" opacity="1"/></g><g class="mark-rule role-mark layer_2_marks" role="graphics-object" aria-roledescription="rule mark container"><line aria-label="concentration: 0.000045; Fraction Infectivity: 0.48393; upper_lower: 0.49839; virus: dimeric-bEFNB2; upper: 0.49839; lower: 0.48393" role="graphics-symbol" aria-roledescription="errorbar" transform="translate(39.19275082652064,112.01272727272729)" x2="0" y2="-2.6290909090909196" stroke="#4e79a7" opacity="1"/><line aria-label="concentration: 0.000134; Fraction Infectivity: 0.08837; upper_lower: 0.09716; virus: dimeric-bEFNB2; upper: 0.09716; lower: 0.08837" role="graphics-symbol" aria-roledescription="errorbar" transform="translate(67.62628790188845,183.93272727272728)" x2="0" y2="-1.5981818181818142" stroke="#4e79a7" opacity="1"/><line aria-label="concentration: 0.000403; Fraction Infectivity: 0.00009; upper_lower: 0.00023; virus: dimeric-bEFNB2; upper: 0.00023; lower: 0.00009" role="graphics-symbol" aria-roledescription="errorbar" transform="translate(96.31830276846657,199.98363636363635)" x2="0" y2="-0.025454545454550725" stroke="#4e79a7" opacity="1"/><line aria-label="concentration: 0.00121; Fraction Infectivity: 0.00001; upper_lower: 0.00001; virus: dimeric-bEFNB2; upper: 0.00001; lower: 0.00001" role="graphics-symbol" aria-roledescription="errorbar" transform="translate(124.967122218987,199.99818181818182)" x2="0" y2="0" stroke="#4e79a7" opacity="1"/><line aria-label="concentration: 0.003631; Fraction Infectivity: 0.00001; upper_lower: 0.00001; virus: dimeric-bEFNB2; upper: 0.00001; lower: 0.00001" role="graphics-symbol" aria-roledescription="errorbar" transform="translate(153.60157493477354,199.99818181818182)" x2="0" y2="0" stroke="#4e79a7" opacity="1"/><line aria-label="concentration: 0.010893; Fraction Infectivity: 8.47032947254e-22; upper_lower: 0.00001; virus: dimeric-bEFNB2; upper: 0.00001; lower: 8.47032947254e-22" role="graphics-symbol" aria-roledescription="errorbar" transform="translate(182.22885021795332,200)" x2="0" y2="-0.0018181818181801646" stroke="#4e79a7" opacity="1"/><line aria-label="concentration: 0.03268; Fraction Infectivity: 8.47032947254e-22; upper_lower: 0.00001; virus: dimeric-bEFNB2; upper: 0.00001; lower: 8.47032947254e-22" role="graphics-symbol" aria-roledescription="errorbar" transform="translate(210.8569228716227,200)" x2="0" y2="-0.0018181818181801646" stroke="#4e79a7" opacity="1"/><line aria-label="concentration: 0.098039; Fraction Infectivity: 0.00001; upper_lower: 0.00004; virus: dimeric-bEFNB2; upper: 0.00004; lower: 0.00001" role="graphics-symbol" aria-roledescription="errorbar" transform="translate(239.4839323673503,199.99818181818182)" x2="0" y2="-0.005454545454540494" stroke="#4e79a7" opacity="1"/><line aria-label="concentration: 0.0002; Fraction Infectivity: 0.76655; upper_lower: 0.77182; virus: monomeric-bEFNB2; upper: 0.77182; lower: 0.76655" role="graphics-symbol" aria-roledescription="errorbar" transform="translate(78.06179973983886,60.62727272727273)" x2="0" y2="-0.9581818181817923" stroke="#e15759" opacity="1"/><line aria-label="concentration: 0.0006; Fraction Infectivity: 0.62102; upper_lower: 0.64867; virus: monomeric-bEFNB2; upper: 0.64867; lower: 0.62102" role="graphics-symbol" aria-roledescription="errorbar" transform="translate(106.68907502301862,87.08727272727272)" x2="0" y2="-5.0272727272727025" stroke="#e15759" opacity="1"/><line aria-label="concentration: 0.00179; Fraction Infectivity: 0.33785; upper_lower: 0.37901; virus: monomeric-bEFNB2; upper: 0.37901; lower: 0.33785" role="graphics-symbol" aria-roledescription="errorbar" transform="translate(135.17118185879357,138.57272727272726)" x2="0" y2="-7.48363636363635" stroke="#e15759" opacity="1"/><line aria-label="concentration: 0.00537; Fraction Infectivity: 0.0848; upper_lower: 0.09716; virus: monomeric-bEFNB2; upper: 0.09716; lower: 0.0848" role="graphics-symbol" aria-roledescription="errorbar" transform="translate(163.79845714197333,184.5818181818182)" x2="0" y2="-2.2472727272727298" stroke="#e15759" opacity="1"/><line aria-label="concentration: 0.0161; Fraction Infectivity: 0.00484; upper_lower: 0.00596; virus: monomeric-bEFNB2; upper: 0.00596; lower: 0.00484" role="graphics-symbol" aria-roledescription="errorbar" transform="translate(192.40955256191097,199.12)" x2="0" y2="-0.20363636363634896" stroke="#e15759" opacity="1"/><line aria-label="concentration: 0.04831; Fraction Infectivity: 0.00007; upper_lower: 0.00007; virus: monomeric-bEFNB2; upper: 0.00007; lower: 0.00007" role="graphics-symbol" aria-roledescription="errorbar" transform="translate(221.04222224919116,199.98727272727274)" x2="0" y2="0" stroke="#e15759" opacity="1"/><line aria-label="concentration: 0.14493; Fraction Infectivity: 8.47032947254e-22; upper_lower: 0.00001; virus: monomeric-bEFNB2; upper: 0.00001; lower: 8.47032947254e-22" role="graphics-symbol" aria-roledescription="errorbar" transform="translate(249.66949753237094,200)" x2="0" y2="-0.0018181818181801646" stroke="#e15759" opacity="1"/><line aria-label="concentration: 0.43478; Fraction Infectivity: 0.00001; upper_lower: 0.00001; virus: monomeric-bEFNB2; upper: 0.00001; lower: 0.00001" role="graphics-symbol" aria-roledescription="errorbar" transform="translate(278.29617349246195,199.99818181818182)" x2="0" y2="0" stroke="#e15759" opacity="1"/><line aria-label="concentration: 0.000045; Fraction Infectivity: 0.82445; upper_lower: 0.86988; virus: dimeric-bEFNB3; upper: 0.86988; lower: 0.82445" role="graphics-symbol" aria-roledescription="errorbar" transform="translate(39.19275082652064,50.10000000000004)" x2="0" y2="-8.260000000000026" stroke="#f28e2c" opacity="1"/><line aria-label="concentration: 0.000134; Fraction Infectivity: 0.73843; upper_lower: 0.80595; virus: dimeric-bEFNB3; upper: 0.80595; lower: 0.73843" role="graphics-symbol" aria-roledescription="errorbar" transform="translate(67.62628790188845,65.74)" x2="0" y2="-12.27636363636364" stroke="#f28e2c" opacity="1"/><line aria-label="concentration: 0.000403; Fraction Infectivity: 0.61273; upper_lower: 0.62105; virus: dimeric-bEFNB3; upper: 0.62105; lower: 0.61273" role="graphics-symbol" aria-roledescription="errorbar" transform="translate(96.31830276846657,88.59454545454548)" x2="0" y2="-1.5127272727272896" stroke="#f28e2c" opacity="1"/><line aria-label="concentration: 0.00121; Fraction Infectivity: 0.39347; upper_lower: 0.4863; virus: dimeric-bEFNB3; upper: 0.4863; lower: 0.39347" role="graphics-symbol" aria-roledescription="errorbar" transform="translate(124.967122218987,128.46)" x2="0" y2="-16.87818181818183" stroke="#f28e2c" opacity="1"/><line aria-label="concentration: 0.003631; Fraction Infectivity: 0.0579; upper_lower: 0.08733; virus: dimeric-bEFNB3; upper: 0.08733; lower: 0.0579" role="graphics-symbol" aria-roledescription="errorbar" transform="translate(153.60157493477354,189.47272727272727)" x2="0" y2="-5.350909090909084" stroke="#f28e2c" opacity="1"/><line aria-label="concentration: 0.010893; Fraction Infectivity: 0.00043; upper_lower: 0.00051; virus: dimeric-bEFNB3; upper: 0.00051; lower: 0.00043" role="graphics-symbol" aria-roledescription="errorbar" transform="translate(182.22885021795332,199.92181818181817)" x2="0" y2="-0.014545454545441316" stroke="#f28e2c" opacity="1"/><line aria-label="concentration: 0.03268; Fraction Infectivity: 8.47032947254e-22; upper_lower: 0.00001; virus: dimeric-bEFNB3; upper: 0.00001; lower: 8.47032947254e-22" role="graphics-symbol" aria-roledescription="errorbar" transform="translate(210.8569228716227,200)" x2="0" y2="-0.0018181818181801646" stroke="#f28e2c" opacity="1"/><line aria-label="concentration: 0.098039; Fraction Infectivity: 0.00001; upper_lower: 0.00004; virus: dimeric-bEFNB3; upper: 0.00004; lower: 0.00001" role="graphics-symbol" aria-roledescription="errorbar" transform="translate(239.4839323673503,199.99818181818182)" x2="0" y2="-0.005454545454540494" stroke="#f28e2c" opacity="1"/><line aria-label="concentration: 0.0002; Fraction Infectivity: 1.00222; upper_lower: 1.04726; virus: monomeric-bEFNB3; upper: 1.04726; lower: 1.00222" role="graphics-symbol" aria-roledescription="errorbar" transform="translate(78.06179973983886,17.77818181818185)" x2="0" y2="-8.189090909090947" stroke="#76b7b2" opacity="1"/><line aria-label="concentration: 0.0006; Fraction Infectivity: 0.91077; upper_lower: 0.96439; virus: monomeric-bEFNB3; upper: 0.96439; lower: 0.91077" role="graphics-symbol" aria-roledescription="errorbar" transform="translate(106.68907502301862,34.40545454545456)" x2="0" y2="-9.749090909090906" stroke="#76b7b2" opacity="1"/><line aria-label="concentration: 0.00179; Fraction Infectivity: 0.87036; upper_lower: 0.97895; virus: monomeric-bEFNB3; upper: 0.97895; lower: 0.87036" role="graphics-symbol" aria-roledescription="errorbar" transform="translate(135.17118185879357,41.75272727272728)" x2="0" y2="-19.743636363636345" stroke="#76b7b2" opacity="1"/><line aria-label="concentration: 0.00537; Fraction Infectivity: 0.9444; upper_lower: 0.98732; virus: monomeric-bEFNB3; upper: 0.98732; lower: 0.9444" role="graphics-symbol" aria-roledescription="errorbar" transform="translate(163.79845714197333,28.29090909090912)" x2="0" y2="-7.803636363636368" stroke="#76b7b2" opacity="1"/><line aria-label="concentration: 0.0161; Fraction Infectivity: 0.97276; upper_lower: 0.97393; virus: monomeric-bEFNB3; upper: 0.97393; lower: 0.97276" role="graphics-symbol" aria-roledescription="errorbar" transform="translate(192.40955256191097,23.134545454545474)" x2="0" y2="-0.21272727272725334" stroke="#76b7b2" opacity="1"/><line aria-label="concentration: 0.04831; Fraction Infectivity: 0.88689; upper_lower: 0.92382; virus: monomeric-bEFNB3; upper: 0.92382; lower: 0.88689" role="graphics-symbol" aria-roledescription="errorbar" transform="translate(221.04222224919116,38.747272727272765)" x2="0" y2="-6.7145454545454655" stroke="#76b7b2" opacity="1"/><line aria-label="concentration: 0.14493; Fraction Infectivity: 0.83707; upper_lower: 0.87981; virus: monomeric-bEFNB3; upper: 0.87981; lower: 0.83707" role="graphics-symbol" aria-roledescription="errorbar" transform="translate(249.66949753237094,47.80545454545455)" x2="0" y2="-7.770909090909072" stroke="#76b7b2" opacity="1"/><line aria-label="concentration: 0.43478; Fraction Infectivity: 0.812; upper_lower: 0.81329; virus: monomeric-bEFNB3; upper: 0.81329; lower: 0.812" role="graphics-symbol" aria-roledescription="errorbar" transform="translate(278.29617349246195,52.36363636363637)" x2="0" y2="-0.2345454545454615" stroke="#76b7b2" opacity="1"/></g><g class="mark-group role-legend" role="graphics-symbol" aria-roledescription="legend" aria-label="Symbol legend titled 'Receptor' for fill color and stroke color with 4 values: dimeric-bEFNB2, dimeric-bEFNB3, monomeric-bEFNB2, monomeric-bEFNB3"><g transform="translate(318,0)"><path class="background" aria-hidden="true" d="M0,0h155v91h-155Z" pointer-events="none"/><g><g class="mark-group role-legend-entry"><g transform="translate(5,24)"><path class="background" aria-hidden="true" d="M0,0h0v0h0Z" pointer-events="none"/><g><g class="mark-group role-scope" role="graphics-object" aria-roledescription="group mark container"><g transform="translate(0,0)"><path class="background" aria-hidden="true" d="M0,0h144.8134765625v14h-144.8134765625Z" pointer-events="none" opacity="1"/><g><g class="mark-symbol role-legend-symbol" pointer-events="none"><path transform="translate(7,7)" d="M5,0A5,5,0,1,1,-5,0A5,5,0,1,1,5,0" fill="#4e79a7" stroke="#4e79a7" stroke-width="1.5" opacity="1"/></g><g class="mark-text role-legend-label" pointer-events="none"><text text-anchor="start" transform="translate(18,11)" font-family="Helvetica" font-size="14px" fill="#000" opacity="1">dimeric-bEFNB2</text></g></g><path class="foreground" aria-hidden="true" d="" pointer-events="none" display="none"/></g><g transform="translate(0,16)"><path class="background" aria-hidden="true" d="M0,0h144.8134765625v14h-144.8134765625Z" pointer-events="none" opacity="1"/><g><g class="mark-symbol role-legend-symbol" pointer-events="none"><path transform="translate(7,7)" d="M5,0A5,5,0,1,1,-5,0A5,5,0,1,1,5,0" fill="#f28e2c" stroke="#f28e2c" stroke-width="1.5" opacity="1"/></g><g class="mark-text role-legend-label" pointer-events="none"><text text-anchor="start" transform="translate(18,11)" font-family="Helvetica" font-size="14px" fill="#000" opacity="1">dimeric-bEFNB3</text></g></g><path class="foreground" aria-hidden="true" d="" pointer-events="none" display="none"/></g><g transform="translate(0,32)"><path class="background" aria-hidden="true" d="M0,0h144.8134765625v14h-144.8134765625Z" pointer-events="none" opacity="1"/><g><g class="mark-symbol role-legend-symbol" pointer-events="none"><path transform="translate(7,7)" d="M5,0A5,5,0,1,1,-5,0A5,5,0,1,1,5,0" fill="#e15759" stroke="#e15759" stroke-width="1.5" opacity="1"/></g><g class="mark-text role-legend-label" pointer-events="none"><text text-anchor="start" transform="translate(18,11)" font-family="Helvetica" font-size="14px" fill="#000" opacity="1">monomeric-bEFNB2</text></g></g><path class="foreground" aria-hidden="true" d="" pointer-events="none" display="none"/></g><g transform="translate(0,48)"><path class="background" aria-hidden="true" d="M0,0h144.8134765625v14h-144.8134765625Z" pointer-events="none" opacity="1"/><g><g class="mark-symbol role-legend-symbol" pointer-events="none"><path transform="translate(7,7)" d="M5,0A5,5,0,1,1,-5,0A5,5,0,1,1,5,0" fill="#76b7b2" stroke="#76b7b2" stroke-width="1.5" opacity="1"/></g><g class="mark-text role-legend-label" pointer-events="none"><text text-anchor="start" transform="translate(18,11)" font-family="Helvetica" font-size="14px" fill="#000" opacity="1">monomeric-bEFNB3</text></g></g><path class="foreground" aria-hidden="true" d="" pointer-events="none" display="none"/></g></g></g><path class="foreground" aria-hidden="true" d="" pointer-events="none" display="none"/></g></g><g class="mark-text role-legend-title" pointer-events="none"><text text-anchor="start" transform="translate(5,16)" font-family="Helvetica" font-size="14px" font-weight="bold" fill="#000" opacity="1">Receptor</text></g></g><path class="foreground" aria-hidden="true" d="" pointer-events="none" display="none"/></g></g></g><path class="foreground" aria-hidden="true" d="" display="none"/></g></g></g></svg>