<svg xmlns="http://www.w3.org/2000/svg" xmlns:xlink="http://www.w3.org/1999/xlink" version="1.1" class="marks" width="528" height="260" viewBox="0 0 528 260"><rect width="528" height="260" fill="white"/><g fill="none" stroke-miterlimit="10" transform="translate(50,16)"><g class="mark-group role-frame root" role="graphics-object" aria-roledescription="group mark container"><g transform="translate(0,0)"><path class="background" aria-hidden="true" d="M0,0h300v200h-300Z" stroke-width="0"/><g><g class="mark-group role-axis" role="graphics-symbol" aria-roledescription="axis" aria-label="X-axis titled 'Concentration (µM)' for a log scale with values from 1e-5 to 1e+0"><g transform="translate(0.5,200.5)"><path class="background" aria-hidden="true" d="M0,0h0v0h0Z" pointer-events="none"/><g><g class="mark-rule role-axis-tick" pointer-events="none"><line transform="translate(60,0)" x2="0" y2="4" stroke="black" stroke-width="1" opacity="1"/><line transform="translate(180,0)" x2="0" y2="4" stroke="black" stroke-width="1" opacity="1"/><line transform="translate(300,0)" x2="0" y2="4" stroke="black" stroke-width="1" opacity="1"/></g><g class="mark-text role-axis-label" pointer-events="none"><text text-anchor="middle" transform="translate(60.00000000000003,17)" font-family="Helvetica" font-size="14px" font-weight="normal" fill="#000" opacity="1">1e-4</text><text text-anchor="middle" transform="translate(180.00000000000003,17)" font-family="Helvetica" font-size="14px" font-weight="normal" fill="#000" opacity="1">1e-2</text><text text-anchor="middle" transform="translate(300,17)" font-family="Helvetica" font-size="14px" font-weight="normal" fill="#000" opacity="1">1e+0</text></g><g class="mark-rule role-axis-domain" pointer-events="none"><line transform="translate(0,0)" x2="300" y2="0" stroke="black" stroke-width="1" opacity="1"/></g><g class="mark-text role-axis-title" pointer-events="none"><text text-anchor="middle" transform="translate(150,36)" font-family="Helvetica" font-size="14px" font-weight="bold" fill="#000" opacity="1">Concentration (µM)</text></g></g><path class="foreground" aria-hidden="true" d="" pointer-events="none" display="none"/></g></g><g class="mark-group role-axis" role="graphics-symbol" aria-roledescription="axis" aria-label="Y-axis titled 'Fraction Infectivity' for a linear scale with values from 0.0 to 1.0"><g transform="translate(0.5,0.5)"><path class="background" aria-hidden="true" d="M0,0h0v0h0Z" pointer-events="none"/><g><g class="mark-rule role-axis-tick" pointer-events="none"><line transform="translate(0,200)" x2="-4" y2="0" stroke="black" stroke-width="1" opacity="1"/><line transform="translate(0,100)" x2="-4" y2="0" stroke="black" stroke-width="1" opacity="1"/><line transform="translate(0,0)" x2="-4" y2="0" stroke="black" stroke-width="1" opacity="1"/></g><g class="mark-text role-axis-label" pointer-events="none"><text text-anchor="end" transform="translate(-6,204)" font-family="Helvetica" font-size="14px" font-weight="normal" fill="#000" opacity="1">0.0</text><text text-anchor="end" transform="translate(-6,104)" font-family="Helvetica" font-size="14px" font-weight="normal" fill="#000" opacity="1">0.5</text><text text-anchor="end" transform="translate(-6,4)" font-family="Helvetica" font-size="14px" font-weight="normal" fill="#000" opacity="1">1.0</text></g><g class="mark-rule role-axis-domain" pointer-events="none"><line transform="translate(0,200)" x2="0" y2="-200" stroke="black" stroke-width="1" opacity="1"/></g><g class="mark-text role-axis-title" pointer-events="none"><text text-anchor="middle" transform="translate(-30.4619140625,100) rotate(-90) translate(0,-3)" font-family="Helvetica" font-size="14px" font-weight="bold" fill="#000" opacity="1">Fraction Infectivity</text></g></g><path class="foreground" aria-hidden="true" d="" pointer-events="none" display="none"/></g></g><g class="mark-group role-scope layer_0_pathgroup" role="graphics-object" aria-roledescription="group mark container"><g transform="translate(0,0)"><path class="background" aria-hidden="true" d="M0,0h300v200h-300Z"/><g><g class="mark-line role-mark layer_0_marks" role="graphics-object" aria-roledescription="line mark container"><path aria-label="Concentration (µM): 2e-5; Fraction Infectivity: 0.827615355099; Virus: dimeric-bEFNB2" role="graphics-symbol" aria-roledescription="line mark" d="M19.164,34.477L20.371,37.322L21.579,40.345L22.787,43.547L23.995,46.929L25.203,50.489L26.41,54.223L27.618,58.125L28.826,62.189L30.034,66.404L31.241,70.758L32.449,75.236L33.657,79.823L34.865,84.501L36.073,89.248L37.28,94.046L38.488,98.871L39.193,101.689L39.696,103.701L40.904,108.514L42.112,113.288L43.319,118L44.527,122.632L45.735,127.163L46.943,131.577L48.15,135.859L49.358,139.995L50.566,143.974L51.774,147.787L52.982,151.429L54.189,154.894L55.397,158.18L56.605,161.287L57.813,164.215L59.021,166.967L60.228,169.546L61.436,171.958L62.644,174.208L63.852,176.303L65.06,178.248L66.267,180.052L67.475,181.722L67.626,181.922L68.683,183.265L69.891,184.688L71.098,186L72.306,187.207L73.514,188.317L74.722,189.336L75.93,190.27L77.137,191.127L78.345,191.911L79.553,192.629L80.761,193.285L81.969,193.885L83.176,194.432L84.384,194.932L85.592,195.388L86.8,195.804L88.007,196.183L89.215,196.529L90.423,196.843L91.631,197.13L92.839,197.391L94.046,197.628L95.254,197.845L96.318,198.019L96.462,198.041L97.67,198.22L98.878,198.383L100.085,198.531L101.293,198.665L102.501,198.787L103.709,198.898L104.916,198.999L106.124,199.091L107.332,199.174L108.54,199.25L109.748,199.319L110.955,199.382L112.163,199.438L113.371,199.49L114.579,199.537L115.787,199.579L116.994,199.618L118.202,199.653L119.41,199.685L120.618,199.714L121.825,199.74L123.033,199.764L124.241,199.786L124.967,199.798L125.449,199.806L126.657,199.824L127.864,199.84L129.072,199.855L130.28,199.868L131.488,199.88L132.696,199.891L133.903,199.901L135.111,199.91L136.319,199.919L137.527,199.926L138.734,199.933L139.942,199.939L141.15,199.945L142.358,199.95L143.566,199.954L144.773,199.959L145.981,199.962L147.189,199.966L148.397,199.969L149.605,199.972L150.812,199.974L152.02,199.977L153.228,199.979L153.602,199.98L154.436,199.981L155.643,199.983L156.851,199.984L158.059,199.986L159.267,199.987L160.475,199.988L161.682,199.989L162.89,199.99L164.098,199.991L165.306,199.992L166.514,199.993L167.721,199.993L168.929,199.994L170.137,199.995L171.345,199.995L172.552,199.996L173.76,199.996L174.968,199.996L176.176,199.997L177.384,199.997L178.591,199.997L179.799,199.997L181.007,199.998L182.215,199.998L182.229,199.998L183.423,199.998L184.63,199.998L185.838,199.998L187.046,199.999L188.254,199.999L189.461,199.999L190.669,199.999L191.877,199.999L193.085,199.999L194.293,199.999L195.5,199.999L196.708,199.999L197.916,199.999L199.124,199.999L200.332,200L201.539,200L202.747,200L203.955,200L205.163,200L206.37,200L207.578,200L208.786,200L209.994,200L210.857,200L211.202,200L212.409,200L213.617,200L214.825,200L216.033,200L217.241,200L218.448,200L219.656,200L220.864,200L222.072,200L223.279,200L224.487,200L225.695,200L226.903,200L228.111,200L229.318,200L230.526,200L231.734,200L232.942,200L234.15,200L235.357,200L236.565,200L237.773,200L238.981,200L239.484,200L240.188,200L241.396,200L242.604,200L243.812,200L245.02,200L246.227,200L247.435,200L248.643,200L249.851,200L251.059,200L252.266,200L253.474,200L254.682,200L255.89,200L257.097,200L258.305,200L259.513,200" stroke="#4e79a7" stroke-width="1.5"/></g></g><path class="foreground" aria-hidden="true" d="" display="none"/></g><g transform="translate(0,0)"><path class="background" aria-hidden="true" d="M0,0h300v200h-300Z"/><g><g class="mark-line role-mark layer_0_marks" role="graphics-object" aria-roledescription="line mark container"><path aria-label="Concentration (µM): 9e-5; Fraction Infectivity: 0.91498926623; Virus: monomeric-bEFNB2" role="graphics-symbol" aria-roledescription="line mark" d="M58.038,17.002L59.246,17.774L60.453,18.578L61.661,19.414L62.868,20.283L64.076,21.187L65.283,22.126L66.49,23.102L67.698,24.114L68.905,25.165L70.113,26.254L71.32,27.384L72.528,28.554L73.735,29.765L74.943,31.018L76.15,32.314L77.357,33.654L78.062,34.455L78.565,35.037L79.772,36.465L80.98,37.938L82.187,39.456L83.395,41.019L84.602,42.627L85.81,44.281L87.017,45.981L88.224,47.726L89.432,49.516L90.639,51.35L91.847,53.228L93.054,55.149L94.262,57.113L95.469,59.118L96.677,61.163L97.884,63.248L99.091,65.37L100.299,67.527L101.506,69.72L102.714,71.945L103.921,74.2L105.129,76.484L106.336,78.794L106.689,79.474L107.544,81.128L108.751,83.484L109.958,85.858L111.166,88.249L112.373,90.654L113.581,93.069L114.788,95.493L115.996,97.922L117.203,100.354L118.411,102.785L119.618,105.213L120.825,107.635L122.033,110.047L123.24,112.448L124.448,114.835L125.655,117.204L126.863,119.554L128.07,121.881L129.278,124.184L130.485,126.459L131.692,128.706L132.9,130.922L134.107,133.104L135.171,134.998L135.315,135.252L136.522,137.363L137.73,139.436L138.937,141.47L140.145,143.463L141.352,145.414L142.559,147.323L143.767,149.189L144.974,151.01L146.182,152.787L147.389,154.518L148.597,156.205L149.804,157.846L151.012,159.441L152.219,160.991L153.426,162.495L154.634,163.955L155.841,165.37L157.049,166.74L158.256,168.067L159.464,169.351L160.671,170.592L161.878,171.791L163.086,172.949L163.798,173.614L164.293,174.067L165.501,175.145L166.708,176.184L167.916,177.186L169.123,178.151L170.331,179.08L171.538,179.973L172.745,180.833L173.953,181.659L175.16,182.454L176.368,183.217L177.575,183.95L178.783,184.653L179.99,185.328L181.198,185.976L182.405,186.597L183.612,187.193L184.82,187.763L186.027,188.31L187.235,188.834L188.442,189.336L189.65,189.817L190.857,190.277L192.065,190.717L192.41,190.839L193.272,191.138L194.479,191.541L195.687,191.926L196.894,192.295L198.102,192.647L199.309,192.984L200.517,193.306L201.724,193.613L202.932,193.907L204.139,194.188L205.346,194.456L206.554,194.713L207.761,194.957L208.969,195.191L210.176,195.414L211.384,195.627L212.591,195.83L213.799,196.024L215.006,196.209L216.213,196.386L217.421,196.555L218.628,196.716L219.836,196.869L221.042,197.015L221.043,197.016L222.251,197.155L223.458,197.288L224.666,197.415L225.873,197.537L227.08,197.652L228.288,197.762L229.495,197.868L230.703,197.968L231.91,198.063L233.118,198.154L234.325,198.241L235.533,198.324L236.74,198.403L237.947,198.478L239.155,198.55L240.362,198.618L241.57,198.683L242.777,198.746L243.985,198.805L245.192,198.861L246.4,198.915L247.607,198.966L248.814,199.015L249.669,199.048L250.022,199.062L251.229,199.106L252.437,199.148L253.644,199.188L254.852,199.227L256.059,199.263L257.267,199.298L258.474,199.331L259.681,199.363L260.889,199.393L262.096,199.422L263.304,199.449L264.511,199.475L265.719,199.5L266.926,199.524L268.134,199.546L269.341,199.568L270.548,199.588L271.756,199.608L272.963,199.626L274.171,199.644L275.378,199.661L276.586,199.677L277.793,199.692L278.296,199.699L279.001,199.707L280.208,199.721L281.415,199.734L282.623,199.747L283.83,199.759L285.038,199.77L286.245,199.781L287.453,199.791L288.66,199.801L289.868,199.811L291.075,199.82L292.282,199.828L293.49,199.836L294.697,199.844L295.905,199.852L297.112,199.859L298.32,199.865" stroke="#f28e2c" stroke-width="1.5"/></g></g><path class="foreground" aria-hidden="true" d="" display="none"/></g><g transform="translate(0,0)"><path class="background" aria-hidden="true" d="M0,0h300v200h-300Z"/><g><g class="mark-line role-mark layer_0_marks" role="graphics-object" aria-roledescription="line mark container"><path aria-label="Concentration (µM): 2e-5; Fraction Infectivity: 0.95890501664; Virus: dimeric-bEFNB3" role="graphics-symbol" aria-roledescription="line mark" d="M19.164,8.219L20.371,8.567L21.579,8.928L22.787,9.305L23.995,9.696L25.203,10.103L26.41,10.526L27.618,10.965L28.826,11.422L30.034,11.897L31.241,12.39L32.449,12.902L33.657,13.434L34.865,13.986L36.073,14.56L37.28,15.154L38.488,15.771L39.193,16.142L39.696,16.411L40.904,17.074L42.112,17.762L43.319,18.474L44.527,19.212L45.735,19.977L46.943,20.768L48.15,21.586L49.358,22.433L50.566,23.309L51.774,24.215L52.982,25.15L54.189,26.117L55.397,27.114L56.605,28.144L57.813,29.206L59.021,30.301L60.228,31.43L61.436,32.592L62.644,33.789L63.852,35.021L65.06,36.288L66.267,37.59L67.475,38.928L67.626,39.098L68.683,40.302L69.891,41.712L71.098,43.157L72.306,44.639L73.514,46.156L74.722,47.709L75.93,49.298L77.137,50.922L78.345,52.581L79.553,54.274L80.761,56.001L81.969,57.761L83.176,59.553L84.384,61.378L85.592,63.233L86.8,65.117L88.007,67.03L89.215,68.971L90.423,70.938L91.631,72.93L92.839,74.945L94.046,76.982L95.254,79.04L96.318,80.868L96.462,81.116L97.67,83.21L98.878,85.318L100.085,87.44L101.293,89.574L102.501,91.717L103.709,93.868L104.916,96.024L106.124,98.185L107.332,100.347L108.54,102.509L109.748,104.668L110.955,106.823L112.163,108.972L113.371,111.112L114.579,113.242L115.787,115.36L116.994,117.464L118.202,119.552L119.41,121.622L120.618,123.674L121.825,125.704L123.033,127.712L124.241,129.696L124.967,130.876L125.449,131.654L126.657,133.586L127.864,135.491L129.072,137.366L130.28,139.211L131.488,141.025L132.696,142.807L133.903,144.557L135.111,146.273L136.319,147.955L137.527,149.603L138.734,151.215L139.942,152.793L141.15,154.335L142.358,155.84L143.566,157.311L144.773,158.745L145.981,160.143L147.189,161.505L148.397,162.831L149.605,164.122L150.812,165.378L152.02,166.598L153.228,167.784L153.602,168.144L154.436,168.936L155.643,170.054L156.851,171.138L158.059,172.19L159.267,173.209L160.475,174.197L161.682,175.153L162.89,176.079L164.098,176.975L165.306,177.841L166.514,178.679L167.721,179.489L168.929,180.272L170.137,181.027L171.345,181.757L172.552,182.461L173.76,183.141L174.968,183.797L176.176,184.429L177.384,185.039L178.591,185.627L179.799,186.193L181.007,186.739L182.215,187.264L182.229,187.27L183.423,187.77L184.63,188.257L185.838,188.726L187.046,189.178L188.254,189.612L189.461,190.03L190.669,190.431L191.877,190.818L193.085,191.189L194.293,191.546L195.5,191.89L196.708,192.22L197.916,192.537L199.124,192.841L200.332,193.134L201.539,193.415L202.747,193.685L203.955,193.944L205.163,194.193L206.37,194.432L207.578,194.661L208.786,194.881L209.994,195.093L210.857,195.238L211.202,195.295L212.409,195.49L213.617,195.677L214.825,195.856L216.033,196.028L217.241,196.193L218.448,196.351L219.656,196.503L220.864,196.648L222.072,196.788L223.279,196.922L224.487,197.05L225.695,197.173L226.903,197.291L228.111,197.404L229.318,197.513L230.526,197.617L231.734,197.716L232.942,197.812L234.15,197.904L235.357,197.992L236.565,198.076L237.773,198.156L238.981,198.234L239.484,198.265L240.188,198.308L241.396,198.379L242.604,198.447L243.812,198.512L245.02,198.575L246.227,198.635L247.435,198.692L248.643,198.747L249.851,198.8L251.059,198.85L252.266,198.899L253.474,198.945L254.682,198.989L255.89,199.032L257.097,199.073L258.305,199.112L259.513,199.149" stroke="#e15759" stroke-width="1.5"/></g></g><path class="foreground" aria-hidden="true" d="" display="none"/></g><g transform="translate(0,0)"><path class="background" aria-hidden="true" d="M0,0h300v200h-300Z"/><g><g class="mark-line role-mark layer_0_marks" role="graphics-object" aria-roledescription="line mark container"><path aria-label="Concentration (µM): 9e-5; Fraction Infectivity: 0.98914671885; Virus: monomeric-bEFNB3" role="graphics-symbol" aria-roledescription="line mark" d="M58.038,2.171L59.246,2.207L60.453,2.243L61.661,2.281L62.868,2.318L64.076,2.357L65.283,2.396L66.49,2.436L67.698,2.476L68.905,2.517L70.113,2.559L71.32,2.601L72.528,2.644L73.735,2.688L74.943,2.732L76.15,2.778L77.357,2.824L78.062,2.851L78.565,2.87L79.772,2.918L80.98,2.966L82.187,3.015L83.395,3.065L84.602,3.116L85.81,3.167L87.017,3.219L88.224,3.272L89.432,3.326L90.639,3.381L91.847,3.437L93.054,3.494L94.262,3.551L95.469,3.61L96.677,3.669L97.884,3.73L99.091,3.791L100.299,3.854L101.506,3.917L102.714,3.981L103.921,4.047L105.129,4.113L106.336,4.181L106.689,4.201L107.544,4.25L108.751,4.32L109.958,4.39L111.166,4.462L112.373,4.536L113.581,4.61L114.788,4.686L115.996,4.762L117.203,4.84L118.411,4.92L119.618,5L120.825,5.082L122.033,5.165L123.24,5.249L124.448,5.335L125.655,5.422L126.863,5.511L128.07,5.601L129.278,5.692L130.485,5.785L131.692,5.879L132.9,5.975L134.107,6.072L135.171,6.159L135.315,6.171L136.522,6.271L137.73,6.373L138.937,6.476L140.145,6.581L141.352,6.688L142.559,6.797L143.767,6.907L144.974,7.019L146.182,7.132L147.389,7.248L148.597,7.365L149.804,7.484L151.012,7.604L152.219,7.727L153.426,7.852L154.634,7.978L155.841,8.107L157.049,8.237L158.256,8.37L159.464,8.504L160.671,8.641L161.878,8.779L163.086,8.92L163.798,9.004L164.293,9.063L165.501,9.208L166.708,9.355L167.916,9.505L169.123,9.657L170.331,9.811L171.538,9.967L172.745,10.126L173.953,10.287L175.16,10.451L176.368,10.617L177.575,10.786L178.783,10.957L179.99,11.131L181.198,11.307L182.405,11.486L183.612,11.667L184.82,11.851L186.027,12.038L187.235,12.228L188.442,12.42L189.65,12.616L190.857,12.814L192.065,13.015L192.41,13.073L193.272,13.219L194.479,13.426L195.687,13.636L196.894,13.849L198.102,14.065L199.309,14.284L200.517,14.506L201.724,14.732L202.932,14.961L204.139,15.193L205.346,15.428L206.554,15.667L207.761,15.909L208.969,16.154L210.176,16.403L211.384,16.655L212.591,16.911L213.799,17.171L215.006,17.434L216.213,17.701L217.421,17.971L218.628,18.245L219.836,18.523L221.042,18.804L221.043,18.804L222.251,19.09L223.458,19.379L224.666,19.673L225.873,19.97L227.08,20.271L228.288,20.576L229.495,20.885L230.703,21.199L231.91,21.516L233.118,21.838L234.325,22.164L235.533,22.494L236.74,22.828L237.947,23.167L239.155,23.51L240.362,23.858L241.57,24.21L242.777,24.566L243.985,24.927L245.192,25.292L246.4,25.662L247.607,26.037L248.814,26.416L249.669,26.688L250.022,26.8L251.229,27.189L252.437,27.582L253.644,27.98L254.852,28.383L256.059,28.791L257.267,29.204L258.474,29.621L259.681,30.044L260.889,30.471L262.096,30.904L263.304,31.341L264.511,31.783L265.719,32.231L266.926,32.683L268.134,33.141L269.341,33.604L270.548,34.072L271.756,34.545L272.963,35.023L274.171,35.506L275.378,35.995L276.586,36.489L277.793,36.988L278.296,37.198L279.001,37.492L280.208,38.002L281.415,38.517L282.623,39.037L283.83,39.563L285.038,40.094L286.245,40.63L287.453,41.171L288.66,41.718L289.868,42.27L291.075,42.828L292.282,43.391L293.49,43.959L294.697,44.532L295.905,45.111L297.112,45.695L298.32,46.285" stroke="#76b7b2" stroke-width="1.5"/></g></g><path class="foreground" aria-hidden="true" d="" display="none"/></g></g><g class="mark-symbol role-mark layer_1_marks" role="graphics-object" aria-roledescription="symbol mark container"><path aria-label="Concentration (µM): 5e-5; Fraction Infectivity: 0.49116; Virus: dimeric-bEFNB2" role="graphics-symbol" aria-roledescription="circle" transform="translate(39.19275082652064,101.76799999999999)" d="M2.739,0A2.739,2.739,0,1,1,-2.739,0A2.739,2.739,0,1,1,2.739,0" fill="#4e79a7" stroke-width="2" opacity="1"/><path aria-label="Concentration (µM): 1e-4; Fraction Infectivity: 0.092765; Virus: dimeric-bEFNB2" role="graphics-symbol" aria-roledescription="circle" transform="translate(67.62628790188845,181.447)" d="M2.739,0A2.739,2.739,0,1,1,-2.739,0A2.739,2.739,0,1,1,2.739,0" fill="#4e79a7" stroke-width="2" opacity="1"/><path aria-label="Concentration (µM): 4e-4; Fraction Infectivity: 0.00016; Virus: dimeric-bEFNB2" role="graphics-symbol" aria-roledescription="circle" transform="translate(96.31830276846657,199.968)" d="M2.739,0A2.739,2.739,0,1,1,-2.739,0A2.739,2.739,0,1,1,2.739,0" fill="#4e79a7" stroke-width="2" opacity="1"/><path aria-label="Concentration (µM): 1e-3; Fraction Infectivity: 0.00001; Virus: dimeric-bEFNB2" role="graphics-symbol" aria-roledescription="circle" transform="translate(124.967122218987,199.99800000000002)" d="M2.739,0A2.739,2.739,0,1,1,-2.739,0A2.739,2.739,0,1,1,2.739,0" fill="#4e79a7" stroke-width="2" opacity="1"/><path aria-label="Concentration (µM): 4e-3; Fraction Infectivity: 0.00001; Virus: dimeric-bEFNB2" role="graphics-symbol" aria-roledescription="circle" transform="translate(153.60157493477354,199.99800000000002)" d="M2.739,0A2.739,2.739,0,1,1,-2.739,0A2.739,2.739,0,1,1,2.739,0" fill="#4e79a7" stroke-width="2" opacity="1"/><path aria-label="Concentration (µM): 1e-2; Fraction Infectivity: 0.000005; Virus: dimeric-bEFNB2" role="graphics-symbol" aria-roledescription="circle" transform="translate(182.22885021795332,199.999)" d="M2.739,0A2.739,2.739,0,1,1,-2.739,0A2.739,2.739,0,1,1,2.739,0" fill="#4e79a7" stroke-width="2" opacity="1"/><path aria-label="Concentration (µM): 3e-2; Fraction Infectivity: 0.000005; Virus: dimeric-bEFNB2" role="graphics-symbol" aria-roledescription="circle" transform="translate(210.8569228716227,199.999)" d="M2.739,0A2.739,2.739,0,1,1,-2.739,0A2.739,2.739,0,1,1,2.739,0" fill="#4e79a7" stroke-width="2" opacity="1"/><path aria-label="Concentration (µM): 1e-1; Fraction Infectivity: 0.000025; Virus: dimeric-bEFNB2" role="graphics-symbol" aria-roledescription="circle" transform="translate(239.4839323673503,199.99499999999998)" d="M2.739,0A2.739,2.739,0,1,1,-2.739,0A2.739,2.739,0,1,1,2.739,0" fill="#4e79a7" stroke-width="2" opacity="1"/><path aria-label="Concentration (µM): 2e-4; Fraction Infectivity: 0.769185; Virus: monomeric-bEFNB2" role="graphics-symbol" aria-roledescription="circle" transform="translate(78.06179973983886,46.163)" d="M2.739,0A2.739,2.739,0,1,1,-2.739,0A2.739,2.739,0,1,1,2.739,0" fill="#f28e2c" stroke-width="2" opacity="1"/><path aria-label="Concentration (µM): 6e-4; Fraction Infectivity: 0.634845; Virus: monomeric-bEFNB2" role="graphics-symbol" aria-roledescription="circle" transform="translate(106.68907502301862,73.031)" d="M2.739,0A2.739,2.739,0,1,1,-2.739,0A2.739,2.739,0,1,1,2.739,0" fill="#f28e2c" stroke-width="2" opacity="1"/><path aria-label="Concentration (µM): 2e-3; Fraction Infectivity: 0.35843; Virus: monomeric-bEFNB2" role="graphics-symbol" aria-roledescription="circle" transform="translate(135.17118185879357,128.314)" d="M2.739,0A2.739,2.739,0,1,1,-2.739,0A2.739,2.739,0,1,1,2.739,0" fill="#f28e2c" stroke-width="2" opacity="1"/><path aria-label="Concentration (µM): 5e-3; Fraction Infectivity: 0.09098; Virus: monomeric-bEFNB2" role="graphics-symbol" aria-roledescription="circle" transform="translate(163.79845714197333,181.80399999999997)" d="M2.739,0A2.739,2.739,0,1,1,-2.739,0A2.739,2.739,0,1,1,2.739,0" fill="#f28e2c" stroke-width="2" opacity="1"/><path aria-label="Concentration (µM): 2e-2; Fraction Infectivity: 0.0054; Virus: monomeric-bEFNB2" role="graphics-symbol" aria-roledescription="circle" transform="translate(192.40955256191097,198.92000000000002)" d="M2.739,0A2.739,2.739,0,1,1,-2.739,0A2.739,2.739,0,1,1,2.739,0" fill="#f28e2c" stroke-width="2" opacity="1"/><path aria-label="Concentration (µM): 5e-2; Fraction Infectivity: 0.00007; Virus: monomeric-bEFNB2" role="graphics-symbol" aria-roledescription="circle" transform="translate(221.04222224919116,199.986)" d="M2.739,0A2.739,2.739,0,1,1,-2.739,0A2.739,2.739,0,1,1,2.739,0" fill="#f28e2c" stroke-width="2" opacity="1"/><path aria-label="Concentration (µM): 1e-1; Fraction Infectivity: 0.000005; Virus: monomeric-bEFNB2" role="graphics-symbol" aria-roledescription="circle" transform="translate(249.66949753237094,199.999)" d="M2.739,0A2.739,2.739,0,1,1,-2.739,0A2.739,2.739,0,1,1,2.739,0" fill="#f28e2c" stroke-width="2" opacity="1"/><path aria-label="Concentration (µM): 4e-1; Fraction Infectivity: 0.00001; Virus: monomeric-bEFNB2" role="graphics-symbol" aria-roledescription="circle" transform="translate(278.29617349246195,199.99800000000002)" d="M2.739,0A2.739,2.739,0,1,1,-2.739,0A2.739,2.739,0,1,1,2.739,0" fill="#f28e2c" stroke-width="2" opacity="1"/><path aria-label="Concentration (µM): 5e-5; Fraction Infectivity: 0.847165; Virus: dimeric-bEFNB3" role="graphics-symbol" aria-roledescription="circle" transform="translate(39.19275082652064,30.56700000000001)" d="M2.739,0A2.739,2.739,0,1,1,-2.739,0A2.739,2.739,0,1,1,2.739,0" fill="#e15759" stroke-width="2" opacity="1"/><path aria-label="Concentration (µM): 1e-4; Fraction Infectivity: 0.77219; Virus: dimeric-bEFNB3" role="graphics-symbol" aria-roledescription="circle" transform="translate(67.62628790188845,45.56199999999999)" d="M2.739,0A2.739,2.739,0,1,1,-2.739,0A2.739,2.739,0,1,1,2.739,0" fill="#e15759" stroke-width="2" opacity="1"/><path aria-label="Concentration (µM): 4e-4; Fraction Infectivity: 0.61689; Virus: dimeric-bEFNB3" role="graphics-symbol" aria-roledescription="circle" transform="translate(96.31830276846657,76.62200000000001)" d="M2.739,0A2.739,2.739,0,1,1,-2.739,0A2.739,2.739,0,1,1,2.739,0" fill="#e15759" stroke-width="2" opacity="1"/><path aria-label="Concentration (µM): 1e-3; Fraction Infectivity: 0.439885; Virus: dimeric-bEFNB3" role="graphics-symbol" aria-roledescription="circle" transform="translate(124.967122218987,112.02300000000001)" d="M2.739,0A2.739,2.739,0,1,1,-2.739,0A2.739,2.739,0,1,1,2.739,0" fill="#e15759" stroke-width="2" opacity="1"/><path aria-label="Concentration (µM): 4e-3; Fraction Infectivity: 0.072615; Virus: dimeric-bEFNB3" role="graphics-symbol" aria-roledescription="circle" transform="translate(153.60157493477354,185.477)" d="M2.739,0A2.739,2.739,0,1,1,-2.739,0A2.739,2.739,0,1,1,2.739,0" fill="#e15759" stroke-width="2" opacity="1"/><path aria-label="Concentration (µM): 1e-2; Fraction Infectivity: 0.00047; Virus: dimeric-bEFNB3" role="graphics-symbol" aria-roledescription="circle" transform="translate(182.22885021795332,199.906)" d="M2.739,0A2.739,2.739,0,1,1,-2.739,0A2.739,2.739,0,1,1,2.739,0" fill="#e15759" stroke-width="2" opacity="1"/><path aria-label="Concentration (µM): 3e-2; Fraction Infectivity: 0.000005; Virus: dimeric-bEFNB3" role="graphics-symbol" aria-roledescription="circle" transform="translate(210.8569228716227,199.999)" d="M2.739,0A2.739,2.739,0,1,1,-2.739,0A2.739,2.739,0,1,1,2.739,0" fill="#e15759" stroke-width="2" opacity="1"/><path aria-label="Concentration (µM): 1e-1; Fraction Infectivity: 0.000025; Virus: dimeric-bEFNB3" role="graphics-symbol" aria-roledescription="circle" transform="translate(239.4839323673503,199.99499999999998)" d="M2.739,0A2.739,2.739,0,1,1,-2.739,0A2.739,2.739,0,1,1,2.739,0" fill="#e15759" stroke-width="2" opacity="1"/><path aria-label="Concentration (µM): 2e-4; Fraction Infectivity: 1.02474; Virus: monomeric-bEFNB3" role="graphics-symbol" aria-roledescription="circle" transform="translate(78.06179973983886,-4.947999999999997)" d="M2.739,0A2.739,2.739,0,1,1,-2.739,0A2.739,2.739,0,1,1,2.739,0" fill="#76b7b2" stroke-width="2" opacity="1"/><path aria-label="Concentration (µM): 6e-4; Fraction Infectivity: 0.93758; Virus: monomeric-bEFNB3" role="graphics-symbol" aria-roledescription="circle" transform="translate(106.68907502301862,12.484000000000005)" d="M2.739,0A2.739,2.739,0,1,1,-2.739,0A2.739,2.739,0,1,1,2.739,0" fill="#76b7b2" stroke-width="2" opacity="1"/><path aria-label="Concentration (µM): 2e-3; Fraction Infectivity: 0.924655; Virus: monomeric-bEFNB3" role="graphics-symbol" aria-roledescription="circle" transform="translate(135.17118185879357,15.068999999999999)" d="M2.739,0A2.739,2.739,0,1,1,-2.739,0A2.739,2.739,0,1,1,2.739,0" fill="#76b7b2" stroke-width="2" opacity="1"/><path aria-label="Concentration (µM): 5e-3; Fraction Infectivity: 0.96586; Virus: monomeric-bEFNB3" role="graphics-symbol" aria-roledescription="circle" transform="translate(163.79845714197333,6.828000000000012)" d="M2.739,0A2.739,2.739,0,1,1,-2.739,0A2.739,2.739,0,1,1,2.739,0" fill="#76b7b2" stroke-width="2" opacity="1"/><path aria-label="Concentration (µM): 2e-2; Fraction Infectivity: 0.973345; Virus: monomeric-bEFNB3" role="graphics-symbol" aria-roledescription="circle" transform="translate(192.40955256191097,5.331000000000019)" d="M2.739,0A2.739,2.739,0,1,1,-2.739,0A2.739,2.739,0,1,1,2.739,0" fill="#76b7b2" stroke-width="2" opacity="1"/><path aria-label="Concentration (µM): 5e-2; Fraction Infectivity: 0.905355; Virus: monomeric-bEFNB3" role="graphics-symbol" aria-roledescription="circle" transform="translate(221.04222224919116,18.929000000000016)" d="M2.739,0A2.739,2.739,0,1,1,-2.739,0A2.739,2.739,0,1,1,2.739,0" fill="#76b7b2" stroke-width="2" opacity="1"/><path aria-label="Concentration (µM): 1e-1; Fraction Infectivity: 0.85844; Virus: monomeric-bEFNB3" role="graphics-symbol" aria-roledescription="circle" transform="translate(249.66949753237094,28.312000000000005)" d="M2.739,0A2.739,2.739,0,1,1,-2.739,0A2.739,2.739,0,1,1,2.739,0" fill="#76b7b2" stroke-width="2" opacity="1"/><path aria-label="Concentration (µM): 4e-1; Fraction Infectivity: 0.812645; Virus: monomeric-bEFNB3" role="graphics-symbol" aria-roledescription="circle" transform="translate(278.29617349246195,37.47099999999999)" d="M2.739,0A2.739,2.739,0,1,1,-2.739,0A2.739,2.739,0,1,1,2.739,0" fill="#76b7b2" stroke-width="2" opacity="1"/></g><g class="mark-rule role-mark layer_2_marks" role="graphics-object" aria-roledescription="rule mark container"><line aria-label="concentration: 0.000045; Fraction Infectivity: 0.48393; upper_lower: 0.49839; Virus: dimeric-bEFNB2; upper: 0.49839; lower: 0.48393" role="graphics-symbol" aria-roledescription="errorbar" transform="translate(39.19275082652064,103.214)" x2="0" y2="-2.8920000000000243" stroke="#4e79a7" opacity="1"/><line aria-label="concentration: 0.000134; Fraction Infectivity: 0.08837; upper_lower: 0.09716; Virus: dimeric-bEFNB2; upper: 0.09716; lower: 0.08837" role="graphics-symbol" aria-roledescription="errorbar" transform="translate(67.62628790188845,182.326)" x2="0" y2="-1.7580000000000098" stroke="#4e79a7" opacity="1"/><line aria-label="concentration: 0.000403; Fraction Infectivity: 0.00009; upper_lower: 0.00023; Virus: dimeric-bEFNB2; upper: 0.00023; lower: 0.00009" role="graphics-symbol" aria-roledescription="errorbar" transform="translate(96.31830276846657,199.982)" x2="0" y2="-0.027999999999991587" stroke="#4e79a7" opacity="1"/><line aria-label="concentration: 0.00121; Fraction Infectivity: 0.00001; upper_lower: 0.00001; Virus: dimeric-bEFNB2; upper: 0.00001; lower: 0.00001" role="graphics-symbol" aria-roledescription="errorbar" transform="translate(124.967122218987,199.99800000000002)" x2="0" y2="0" stroke="#4e79a7" opacity="1"/><line aria-label="concentration: 0.003631; Fraction Infectivity: 0.00001; upper_lower: 0.00001; Virus: dimeric-bEFNB2; upper: 0.00001; lower: 0.00001" role="graphics-symbol" aria-roledescription="errorbar" transform="translate(153.60157493477354,199.99800000000002)" x2="0" y2="0" stroke="#4e79a7" opacity="1"/><line aria-label="concentration: 0.010893; Fraction Infectivity: 8.47032947254e-22; upper_lower: 0.00001; Virus: dimeric-bEFNB2; upper: 0.00001; lower: 8.47032947254e-22" role="graphics-symbol" aria-roledescription="errorbar" transform="translate(182.22885021795332,200)" x2="0" y2="-0.001999999999981128" stroke="#4e79a7" opacity="1"/><line aria-label="concentration: 0.03268; Fraction Infectivity: 8.47032947254e-22; upper_lower: 0.00001; Virus: dimeric-bEFNB2; upper: 0.00001; lower: 8.47032947254e-22" role="graphics-symbol" aria-roledescription="errorbar" transform="translate(210.8569228716227,200)" x2="0" y2="-0.001999999999981128" stroke="#4e79a7" opacity="1"/><line aria-label="concentration: 0.098039; Fraction Infectivity: 0.00001; upper_lower: 0.00004; Virus: dimeric-bEFNB2; upper: 0.00004; lower: 0.00001" role="graphics-symbol" aria-roledescription="errorbar" transform="translate(239.4839323673503,199.99800000000002)" x2="0" y2="-0.006000000000028649" stroke="#4e79a7" opacity="1"/><line aria-label="concentration: 0.0002; Fraction Infectivity: 0.76655; upper_lower: 0.77182; Virus: monomeric-bEFNB2; upper: 0.77182; lower: 0.76655" role="graphics-symbol" aria-roledescription="errorbar" transform="translate(78.06179973983886,46.68999999999998)" x2="0" y2="-1.0539999999999736" stroke="#f28e2c" opacity="1"/><line aria-label="concentration: 0.0006; Fraction Infectivity: 0.62102; upper_lower: 0.64867; Virus: monomeric-bEFNB2; upper: 0.64867; lower: 0.62102" role="graphics-symbol" aria-roledescription="errorbar" transform="translate(106.68907502301862,75.79599999999999)" x2="0" y2="-5.529999999999987" stroke="#f28e2c" opacity="1"/><line aria-label="concentration: 0.00179; Fraction Infectivity: 0.33785; upper_lower: 0.37901; Virus: monomeric-bEFNB2; upper: 0.37901; lower: 0.33785" role="graphics-symbol" aria-roledescription="errorbar" transform="translate(135.17118185879357,132.43)" x2="0" y2="-8.232000000000028" stroke="#f28e2c" opacity="1"/><line aria-label="concentration: 0.00537; Fraction Infectivity: 0.0848; upper_lower: 0.09716; Virus: monomeric-bEFNB2; upper: 0.09716; lower: 0.0848" role="graphics-symbol" aria-roledescription="errorbar" transform="translate(163.79845714197333,183.04)" x2="0" y2="-2.4720000000000084" stroke="#f28e2c" opacity="1"/><line aria-label="concentration: 0.0161; Fraction Infectivity: 0.00484; upper_lower: 0.00596; Virus: monomeric-bEFNB2; upper: 0.00596; lower: 0.00484" role="graphics-symbol" aria-roledescription="errorbar" transform="translate(192.40955256191097,199.032)" x2="0" y2="-0.22400000000001796" stroke="#f28e2c" opacity="1"/><line aria-label="concentration: 0.04831; Fraction Infectivity: 0.00007; upper_lower: 0.00007; Virus: monomeric-bEFNB2; upper: 0.00007; lower: 0.00007" role="graphics-symbol" aria-roledescription="errorbar" transform="translate(221.04222224919116,199.986)" x2="0" y2="0" stroke="#f28e2c" opacity="1"/><line aria-label="concentration: 0.14493; Fraction Infectivity: 8.47032947254e-22; upper_lower: 0.00001; Virus: monomeric-bEFNB2; upper: 0.00001; lower: 8.47032947254e-22" role="graphics-symbol" aria-roledescription="errorbar" transform="translate(249.66949753237094,200)" x2="0" y2="-0.001999999999981128" stroke="#f28e2c" opacity="1"/><line aria-label="concentration: 0.43478; Fraction Infectivity: 0.00001; upper_lower: 0.00001; Virus: monomeric-bEFNB2; upper: 0.00001; lower: 0.00001" role="graphics-symbol" aria-roledescription="errorbar" transform="translate(278.29617349246195,199.99800000000002)" x2="0" y2="0" stroke="#f28e2c" opacity="1"/><line aria-label="concentration: 0.000045; Fraction Infectivity: 0.82445; upper_lower: 0.86988; Virus: dimeric-bEFNB3; upper: 0.86988; lower: 0.82445" role="graphics-symbol" aria-roledescription="errorbar" transform="translate(39.19275082652064,35.11000000000002)" x2="0" y2="-9.08600000000002" stroke="#e15759" opacity="1"/><line aria-label="concentration: 0.000134; Fraction Infectivity: 0.73843; upper_lower: 0.80595; Virus: dimeric-bEFNB3; upper: 0.80595; lower: 0.73843" role="graphics-symbol" aria-roledescription="errorbar" transform="translate(67.62628790188845,52.31399999999999)" x2="0" y2="-13.504000000000005" stroke="#e15759" opacity="1"/><line aria-label="concentration: 0.000403; Fraction Infectivity: 0.61273; upper_lower: 0.62105; Virus: dimeric-bEFNB3; upper: 0.62105; lower: 0.61273" role="graphics-symbol" aria-roledescription="errorbar" transform="translate(96.31830276846657,77.45400000000002)" x2="0" y2="-1.6640000000000157" stroke="#e15759" opacity="1"/><line aria-label="concentration: 0.00121; Fraction Infectivity: 0.39347; upper_lower: 0.4863; Virus: dimeric-bEFNB3; upper: 0.4863; lower: 0.39347" role="graphics-symbol" aria-roledescription="errorbar" transform="translate(124.967122218987,121.306)" x2="0" y2="-18.56599999999999" stroke="#e15759" opacity="1"/><line aria-label="concentration: 0.003631; Fraction Infectivity: 0.0579; upper_lower: 0.08733; Virus: dimeric-bEFNB3; upper: 0.08733; lower: 0.0579" role="graphics-symbol" aria-roledescription="errorbar" transform="translate(153.60157493477354,188.42000000000002)" x2="0" y2="-5.886000000000024" stroke="#e15759" opacity="1"/><line aria-label="concentration: 0.010893; Fraction Infectivity: 0.00043; upper_lower: 0.00051; Virus: dimeric-bEFNB3; upper: 0.00051; lower: 0.00043" role="graphics-symbol" aria-roledescription="errorbar" transform="translate(182.22885021795332,199.914)" x2="0" y2="-0.015999999999991132" stroke="#e15759" opacity="1"/><line aria-label="concentration: 0.03268; Fraction Infectivity: 8.47032947254e-22; upper_lower: 0.00001; Virus: dimeric-bEFNB3; upper: 0.00001; lower: 8.47032947254e-22" role="graphics-symbol" aria-roledescription="errorbar" transform="translate(210.8569228716227,200)" x2="0" y2="-0.001999999999981128" stroke="#e15759" opacity="1"/><line aria-label="concentration: 0.098039; Fraction Infectivity: 0.00001; upper_lower: 0.00004; Virus: dimeric-bEFNB3; upper: 0.00004; lower: 0.00001" role="graphics-symbol" aria-roledescription="errorbar" transform="translate(239.4839323673503,199.99800000000002)" x2="0" y2="-0.006000000000028649" stroke="#e15759" opacity="1"/><line aria-label="concentration: 0.0002; Fraction Infectivity: 1.00222; upper_lower: 1.04726; Virus: monomeric-bEFNB3; upper: 1.04726; lower: 1.00222" role="graphics-symbol" aria-roledescription="errorbar" transform="translate(78.06179973983886,-0.44399999999997775)" x2="0" y2="-9.008000000000038" stroke="#76b7b2" opacity="1"/><line aria-label="concentration: 0.0006; Fraction Infectivity: 0.91077; upper_lower: 0.96439; Virus: monomeric-bEFNB3; upper: 0.96439; lower: 0.91077" role="graphics-symbol" aria-roledescription="errorbar" transform="translate(106.68907502301862,17.846000000000007)" x2="0" y2="-10.724" stroke="#76b7b2" opacity="1"/><line aria-label="concentration: 0.00179; Fraction Infectivity: 0.87036; upper_lower: 0.97895; Virus: monomeric-bEFNB3; upper: 0.97895; lower: 0.87036" role="graphics-symbol" aria-roledescription="errorbar" transform="translate(135.17118185879357,25.927999999999997)" x2="0" y2="-21.717999999999996" stroke="#76b7b2" opacity="1"/><line aria-label="concentration: 0.00537; Fraction Infectivity: 0.9444; upper_lower: 0.98732; Virus: monomeric-bEFNB3; upper: 0.98732; lower: 0.9444" role="graphics-symbol" aria-roledescription="errorbar" transform="translate(163.79845714197333,11.120000000000019)" x2="0" y2="-8.584000000000014" stroke="#76b7b2" opacity="1"/><line aria-label="concentration: 0.0161; Fraction Infectivity: 0.97276; upper_lower: 0.97393; Virus: monomeric-bEFNB3; upper: 0.97393; lower: 0.97276" role="graphics-symbol" aria-roledescription="errorbar" transform="translate(192.40955256191097,5.448000000000008)" x2="0" y2="-0.23399999999997867" stroke="#76b7b2" opacity="1"/><line aria-label="concentration: 0.04831; Fraction Infectivity: 0.88689; upper_lower: 0.92382; Virus: monomeric-bEFNB3; upper: 0.92382; lower: 0.88689" role="graphics-symbol" aria-roledescription="errorbar" transform="translate(221.04222224919116,22.622000000000032)" x2="0" y2="-7.386000000000028" stroke="#76b7b2" opacity="1"/><line aria-label="concentration: 0.14493; Fraction Infectivity: 0.83707; upper_lower: 0.87981; Virus: monomeric-bEFNB3; upper: 0.87981; lower: 0.83707" role="graphics-symbol" aria-roledescription="errorbar" transform="translate(249.66949753237094,32.586000000000006)" x2="0" y2="-8.548000000000002" stroke="#76b7b2" opacity="1"/><line aria-label="concentration: 0.43478; Fraction Infectivity: 0.812; upper_lower: 0.81329; Virus: monomeric-bEFNB3; upper: 0.81329; lower: 0.812" role="graphics-symbol" aria-roledescription="errorbar" transform="translate(278.29617349246195,37.59999999999999)" x2="0" y2="-0.25800000000000267" stroke="#76b7b2" opacity="1"/></g><g class="mark-group role-legend" role="graphics-symbol" aria-roledescription="legend" aria-label="Symbol legend titled 'Virus' for fill color and stroke color with 4 values: dimeric-bEFNB2, monomeric-bEFNB2, dimeric-bEFNB3, monomeric-bEFNB3"><g transform="translate(318,0)"><path class="background" aria-hidden="true" d="M0,0h155v91h-155Z" pointer-events="none"/><g><g class="mark-group role-legend-entry"><g transform="translate(5,24)"><path class="background" aria-hidden="true" d="M0,0h0v0h0Z" pointer-events="none"/><g><g class="mark-group role-scope" role="graphics-object" aria-roledescription="group mark container"><g transform="translate(0,0)"><path class="background" aria-hidden="true" d="M0,0h144.8134765625v14h-144.8134765625Z" pointer-events="none" opacity="1"/><g><g class="mark-symbol role-legend-symbol" pointer-events="none"><path transform="translate(7,7)" d="M5,0A5,5,0,1,1,-5,0A5,5,0,1,1,5,0" fill="#4e79a7" stroke="#4e79a7" stroke-width="1.5" opacity="1"/></g><g class="mark-text role-legend-label" pointer-events="none"><text text-anchor="start" transform="translate(18,11)" font-family="Helvetica" font-size="14px" fill="#000" opacity="1">dimeric-bEFNB2</text></g></g><path class="foreground" aria-hidden="true" d="" pointer-events="none" display="none"/></g><g transform="translate(0,16)"><path class="background" aria-hidden="true" d="M0,0h144.8134765625v14h-144.8134765625Z" pointer-events="none" opacity="1"/><g><g class="mark-symbol role-legend-symbol" pointer-events="none"><path transform="translate(7,7)" d="M5,0A5,5,0,1,1,-5,0A5,5,0,1,1,5,0" fill="#f28e2c" stroke="#f28e2c" stroke-width="1.5" opacity="1"/></g><g class="mark-text role-legend-label" pointer-events="none"><text text-anchor="start" transform="translate(18,11)" font-family="Helvetica" font-size="14px" fill="#000" opacity="1">monomeric-bEFNB2</text></g></g><path class="foreground" aria-hidden="true" d="" pointer-events="none" display="none"/></g><g transform="translate(0,32)"><path class="background" aria-hidden="true" d="M0,0h144.8134765625v14h-144.8134765625Z" pointer-events="none" opacity="1"/><g><g class="mark-symbol role-legend-symbol" pointer-events="none"><path transform="translate(7,7)" d="M5,0A5,5,0,1,1,-5,0A5,5,0,1,1,5,0" fill="#e15759" stroke="#e15759" stroke-width="1.5" opacity="1"/></g><g class="mark-text role-legend-label" pointer-events="none"><text text-anchor="start" transform="translate(18,11)" font-family="Helvetica" font-size="14px" fill="#000" opacity="1">dimeric-bEFNB3</text></g></g><path class="foreground" aria-hidden="true" d="" pointer-events="none" display="none"/></g><g transform="translate(0,48)"><path class="background" aria-hidden="true" d="M0,0h144.8134765625v14h-144.8134765625Z" pointer-events="none" opacity="1"/><g><g class="mark-symbol role-legend-symbol" pointer-events="none"><path transform="translate(7,7)" d="M5,0A5,5,0,1,1,-5,0A5,5,0,1,1,5,0" fill="#76b7b2" stroke="#76b7b2" stroke-width="1.5" opacity="1"/></g><g class="mark-text role-legend-label" pointer-events="none"><text text-anchor="start" transform="translate(18,11)" font-family="Helvetica" font-size="14px" fill="#000" opacity="1">monomeric-bEFNB3</text></g></g><path class="foreground" aria-hidden="true" d="" pointer-events="none" display="none"/></g></g></g><path class="foreground" aria-hidden="true" d="" pointer-events="none" display="none"/></g></g><g class="mark-text role-legend-title" pointer-events="none"><text text-anchor="start" transform="translate(5,16)" font-family="Helvetica" font-size="14px" font-weight="bold" fill="#000" opacity="1">Virus</text></g></g><path class="foreground" aria-hidden="true" d="" pointer-events="none" display="none"/></g></g></g><path class="foreground" aria-hidden="true" d="" display="none"/></g></g></g></svg>